G04 #@! TF.GenerationSoftware,KiCad,Pcbnew,5.1.5+dfsg1-2build2*
G04 #@! TF.CreationDate,2023-04-13T23:09:04-05:00*
G04 #@! TF.ProjectId,NES_backup,4e45535f-6261-4636-9b75-702e6b696361,rev?*
G04 #@! TF.SameCoordinates,Original*
G04 #@! TF.FileFunction,Copper,L1,Top*
G04 #@! TF.FilePolarity,Positive*
%FSLAX46Y46*%
G04 Gerber Fmt 4.6, Leading zero omitted, Abs format (unit mm)*
G04 Created by KiCad (PCBNEW 5.1.5+dfsg1-2build2) date 2023-04-13 23:09:04*
%MOMM*%
%LPD*%
G04 APERTURE LIST*
%ADD10C,0.150000*%
%ADD11C,1.524000*%
%ADD12R,1.600000X1.600000*%
%ADD13O,1.600000X1.600000*%
%ADD14R,0.450000X1.500000*%
%ADD15C,0.100000*%
%ADD16C,3.000000*%
%ADD17C,1.600000*%
%ADD18C,4.000000*%
%ADD19R,1.500000X2.200000*%
%ADD20R,2.200000X1.500000*%
%ADD21R,0.800000X0.900000*%
%ADD22C,0.600000*%
%ADD23C,1.800000*%
%ADD24C,1.850000*%
%ADD25C,2.000000*%
%ADD26C,0.250000*%
%ADD27C,0.400000*%
%ADD28C,0.440000*%
G04 APERTURE END LIST*
D10*
X211500000Y-150700000D02*
X211500000Y-91500000D01*
X85500000Y-150700000D02*
X85500000Y-91500000D01*
X85500000Y-91500000D02*
X211500000Y-91500000D01*
X85500000Y-150700000D02*
X211500000Y-150700000D01*
D11*
X96700000Y-127100000D03*
X99200000Y-127100000D03*
X101700000Y-127100000D03*
D12*
X135300000Y-123000000D03*
D13*
X87040000Y-138240000D03*
X132760000Y-123000000D03*
X89580000Y-138240000D03*
X130220000Y-123000000D03*
X92120000Y-138240000D03*
X127680000Y-123000000D03*
X94660000Y-138240000D03*
X125140000Y-123000000D03*
X97200000Y-138240000D03*
X122600000Y-123000000D03*
X99740000Y-138240000D03*
X120060000Y-123000000D03*
X102280000Y-138240000D03*
X117520000Y-123000000D03*
X104820000Y-138240000D03*
X114980000Y-123000000D03*
X107360000Y-138240000D03*
X112440000Y-123000000D03*
X109900000Y-138240000D03*
X109900000Y-123000000D03*
X112440000Y-138240000D03*
X107360000Y-123000000D03*
X114980000Y-138240000D03*
X104820000Y-123000000D03*
X117520000Y-138240000D03*
X102280000Y-123000000D03*
X120060000Y-138240000D03*
X99740000Y-123000000D03*
X122600000Y-138240000D03*
X97200000Y-123000000D03*
X125140000Y-138240000D03*
X94660000Y-123000000D03*
X127680000Y-138240000D03*
X92120000Y-123000000D03*
X130220000Y-138240000D03*
X89580000Y-123000000D03*
X132760000Y-138240000D03*
X87040000Y-123000000D03*
X135300000Y-138240000D03*
D11*
X131490000Y-134430000D03*
X131490000Y-131890000D03*
X131490000Y-129350000D03*
X131490000Y-126810000D03*
X101700000Y-129600000D03*
X99200000Y-129600000D03*
X96700000Y-129600000D03*
D14*
X153325000Y-137050000D03*
X153975000Y-137050000D03*
X154625000Y-137050000D03*
X155275000Y-137050000D03*
X155925000Y-137050000D03*
X156575000Y-137050000D03*
X157225000Y-137050000D03*
X157875000Y-137050000D03*
X157875000Y-131150000D03*
X157225000Y-131150000D03*
X156575000Y-131150000D03*
X155925000Y-131150000D03*
X155275000Y-131150000D03*
X154625000Y-131150000D03*
X153975000Y-131150000D03*
X153325000Y-131150000D03*
G04 #@! TA.AperFunction,SMDPad,CuDef*
D15*
G36*
X186000000Y-128150000D02*
G01*
X187150000Y-128150000D01*
X186650000Y-128900000D01*
X187150000Y-129650000D01*
X186000000Y-129650000D01*
X186000000Y-128150000D01*
G37*
G04 #@! TD.AperFunction*
G04 #@! TA.AperFunction,SMDPad,CuDef*
G36*
X186950000Y-128900000D02*
G01*
X187450000Y-128150000D01*
X188450000Y-128150000D01*
X188450000Y-129650000D01*
X187450000Y-129650000D01*
X186950000Y-128900000D01*
G37*
G04 #@! TD.AperFunction*
D14*
X185325000Y-131150000D03*
X185975000Y-131150000D03*
X186625000Y-131150000D03*
X187275000Y-131150000D03*
X187925000Y-131150000D03*
X188575000Y-131150000D03*
X189225000Y-131150000D03*
X189875000Y-131150000D03*
X189875000Y-137050000D03*
X189225000Y-137050000D03*
X188575000Y-137050000D03*
X187925000Y-137050000D03*
X187275000Y-137050000D03*
X186625000Y-137050000D03*
X185975000Y-137050000D03*
X185325000Y-137050000D03*
G04 #@! TA.AperFunction,SMDPad,CuDef*
D15*
G36*
X186600000Y-139300000D02*
G01*
X186100000Y-140050000D01*
X185100000Y-140050000D01*
X185100000Y-138550000D01*
X186100000Y-138550000D01*
X186600000Y-139300000D01*
G37*
G04 #@! TD.AperFunction*
G04 #@! TA.AperFunction,SMDPad,CuDef*
G36*
X187550000Y-140050000D02*
G01*
X186400000Y-140050000D01*
X186900000Y-139300000D01*
X186400000Y-138550000D01*
X187550000Y-138550000D01*
X187550000Y-140050000D01*
G37*
G04 #@! TD.AperFunction*
D16*
X145600000Y-132600000D03*
X145600000Y-128600000D03*
X149600000Y-132600000D03*
X149600000Y-128600000D03*
X145600000Y-136600000D03*
X149600000Y-136600000D03*
X145600000Y-124600000D03*
G04 #@! TA.AperFunction,SMDPad,CuDef*
D15*
G36*
X154025000Y-128150000D02*
G01*
X155175000Y-128150000D01*
X154675000Y-128900000D01*
X155175000Y-129650000D01*
X154025000Y-129650000D01*
X154025000Y-128150000D01*
G37*
G04 #@! TD.AperFunction*
G04 #@! TA.AperFunction,SMDPad,CuDef*
G36*
X154975000Y-128900000D02*
G01*
X155475000Y-128150000D01*
X156475000Y-128150000D01*
X156475000Y-129650000D01*
X155475000Y-129650000D01*
X154975000Y-128900000D01*
G37*
G04 #@! TD.AperFunction*
G04 #@! TA.AperFunction,SMDPad,CuDef*
G36*
X154600000Y-139300000D02*
G01*
X154100000Y-140050000D01*
X153100000Y-140050000D01*
X153100000Y-138550000D01*
X154100000Y-138550000D01*
X154600000Y-139300000D01*
G37*
G04 #@! TD.AperFunction*
G04 #@! TA.AperFunction,SMDPad,CuDef*
G36*
X155550000Y-140050000D02*
G01*
X154400000Y-140050000D01*
X154900000Y-139300000D01*
X154400000Y-138550000D01*
X155550000Y-138550000D01*
X155550000Y-140050000D01*
G37*
G04 #@! TD.AperFunction*
D16*
X161600000Y-124600000D03*
X165600000Y-136600000D03*
X161600000Y-136600000D03*
X165600000Y-128600000D03*
X165600000Y-132600000D03*
X161600000Y-128600000D03*
X161600000Y-132600000D03*
G04 #@! TA.AperFunction,SMDPad,CuDef*
D15*
G36*
X138349504Y-135676204D02*
G01*
X138373773Y-135679804D01*
X138397571Y-135685765D01*
X138420671Y-135694030D01*
X138442849Y-135704520D01*
X138463893Y-135717133D01*
X138483598Y-135731747D01*
X138501777Y-135748223D01*
X138518253Y-135766402D01*
X138532867Y-135786107D01*
X138545480Y-135807151D01*
X138555970Y-135829329D01*
X138564235Y-135852429D01*
X138570196Y-135876227D01*
X138573796Y-135900496D01*
X138575000Y-135925000D01*
X138575000Y-136850000D01*
X138573796Y-136874504D01*
X138570196Y-136898773D01*
X138564235Y-136922571D01*
X138555970Y-136945671D01*
X138545480Y-136967849D01*
X138532867Y-136988893D01*
X138518253Y-137008598D01*
X138501777Y-137026777D01*
X138483598Y-137043253D01*
X138463893Y-137057867D01*
X138442849Y-137070480D01*
X138420671Y-137080970D01*
X138397571Y-137089235D01*
X138373773Y-137095196D01*
X138349504Y-137098796D01*
X138325000Y-137100000D01*
X137075000Y-137100000D01*
X137050496Y-137098796D01*
X137026227Y-137095196D01*
X137002429Y-137089235D01*
X136979329Y-137080970D01*
X136957151Y-137070480D01*
X136936107Y-137057867D01*
X136916402Y-137043253D01*
X136898223Y-137026777D01*
X136881747Y-137008598D01*
X136867133Y-136988893D01*
X136854520Y-136967849D01*
X136844030Y-136945671D01*
X136835765Y-136922571D01*
X136829804Y-136898773D01*
X136826204Y-136874504D01*
X136825000Y-136850000D01*
X136825000Y-135925000D01*
X136826204Y-135900496D01*
X136829804Y-135876227D01*
X136835765Y-135852429D01*
X136844030Y-135829329D01*
X136854520Y-135807151D01*
X136867133Y-135786107D01*
X136881747Y-135766402D01*
X136898223Y-135748223D01*
X136916402Y-135731747D01*
X136936107Y-135717133D01*
X136957151Y-135704520D01*
X136979329Y-135694030D01*
X137002429Y-135685765D01*
X137026227Y-135679804D01*
X137050496Y-135676204D01*
X137075000Y-135675000D01*
X138325000Y-135675000D01*
X138349504Y-135676204D01*
G37*
G04 #@! TD.AperFunction*
G04 #@! TA.AperFunction,SMDPad,CuDef*
G36*
X138349504Y-132701204D02*
G01*
X138373773Y-132704804D01*
X138397571Y-132710765D01*
X138420671Y-132719030D01*
X138442849Y-132729520D01*
X138463893Y-132742133D01*
X138483598Y-132756747D01*
X138501777Y-132773223D01*
X138518253Y-132791402D01*
X138532867Y-132811107D01*
X138545480Y-132832151D01*
X138555970Y-132854329D01*
X138564235Y-132877429D01*
X138570196Y-132901227D01*
X138573796Y-132925496D01*
X138575000Y-132950000D01*
X138575000Y-133875000D01*
X138573796Y-133899504D01*
X138570196Y-133923773D01*
X138564235Y-133947571D01*
X138555970Y-133970671D01*
X138545480Y-133992849D01*
X138532867Y-134013893D01*
X138518253Y-134033598D01*
X138501777Y-134051777D01*
X138483598Y-134068253D01*
X138463893Y-134082867D01*
X138442849Y-134095480D01*
X138420671Y-134105970D01*
X138397571Y-134114235D01*
X138373773Y-134120196D01*
X138349504Y-134123796D01*
X138325000Y-134125000D01*
X137075000Y-134125000D01*
X137050496Y-134123796D01*
X137026227Y-134120196D01*
X137002429Y-134114235D01*
X136979329Y-134105970D01*
X136957151Y-134095480D01*
X136936107Y-134082867D01*
X136916402Y-134068253D01*
X136898223Y-134051777D01*
X136881747Y-134033598D01*
X136867133Y-134013893D01*
X136854520Y-133992849D01*
X136844030Y-133970671D01*
X136835765Y-133947571D01*
X136829804Y-133923773D01*
X136826204Y-133899504D01*
X136825000Y-133875000D01*
X136825000Y-132950000D01*
X136826204Y-132925496D01*
X136829804Y-132901227D01*
X136835765Y-132877429D01*
X136844030Y-132854329D01*
X136854520Y-132832151D01*
X136867133Y-132811107D01*
X136881747Y-132791402D01*
X136898223Y-132773223D01*
X136916402Y-132756747D01*
X136936107Y-132742133D01*
X136957151Y-132729520D01*
X136979329Y-132719030D01*
X137002429Y-132710765D01*
X137026227Y-132704804D01*
X137050496Y-132701204D01*
X137075000Y-132700000D01*
X138325000Y-132700000D01*
X138349504Y-132701204D01*
G37*
G04 #@! TD.AperFunction*
D12*
X137900000Y-126400000D03*
D17*
X137900000Y-129900000D03*
D18*
X91501100Y-105003600D03*
D11*
X192251100Y-107503600D03*
X189751100Y-107503600D03*
X187251100Y-107503600D03*
X184751100Y-107503600D03*
X182251100Y-107503600D03*
X179751100Y-107503600D03*
X177251100Y-107503600D03*
X174751100Y-107503600D03*
X172251100Y-107503600D03*
X169751100Y-107503600D03*
X167251100Y-107503600D03*
X164751100Y-107503600D03*
X162251100Y-107503600D03*
X159751100Y-107503600D03*
X157251100Y-107503600D03*
X154751100Y-107503600D03*
X152251100Y-107503600D03*
X149751100Y-107503600D03*
X147251100Y-107503600D03*
X144751100Y-107503600D03*
X142251100Y-107503600D03*
X139751100Y-107503600D03*
X137251100Y-107503600D03*
X134751100Y-107503600D03*
X132251100Y-107503600D03*
X129751100Y-107503600D03*
X127251100Y-107503600D03*
X124751100Y-107503600D03*
X122251100Y-107503600D03*
X119751100Y-107503600D03*
X117251100Y-107503600D03*
X114751100Y-107503600D03*
X112251100Y-107503600D03*
X109751100Y-107503600D03*
X107251100Y-107503600D03*
X104751100Y-107503600D03*
X192251100Y-102503600D03*
X189751100Y-102503600D03*
X187251100Y-102503600D03*
X184751100Y-102503600D03*
X182251100Y-102503600D03*
X179751100Y-102503600D03*
X177251100Y-102503600D03*
X174751100Y-102503600D03*
X172251100Y-102503600D03*
X169751100Y-102503600D03*
X167251100Y-102503600D03*
X164751100Y-102503600D03*
X162251100Y-102503600D03*
X159751100Y-102503600D03*
X157251100Y-102503600D03*
X154751100Y-102503600D03*
X152251100Y-102503600D03*
X149751100Y-102503600D03*
X147251100Y-102503600D03*
X144751100Y-102503600D03*
X142251100Y-102503600D03*
X139751100Y-102503600D03*
X137251100Y-102503600D03*
X134751100Y-102503600D03*
X132251100Y-102503600D03*
X129751100Y-102503600D03*
X127251100Y-102503600D03*
X124751100Y-102503600D03*
X122251100Y-102503600D03*
X119751100Y-102503600D03*
X117251100Y-102503600D03*
X114751100Y-102503600D03*
X112251100Y-102503600D03*
X109751100Y-102503600D03*
X107251100Y-102503600D03*
X104751100Y-102503600D03*
D18*
X205501100Y-105003600D03*
X205500000Y-96000000D03*
X91500000Y-96000000D03*
X205500000Y-146200000D03*
D11*
X202750000Y-124100000D03*
X207750000Y-119100000D03*
X207750000Y-129100000D03*
X210250000Y-119100000D03*
X210250000Y-129100000D03*
D19*
X207750000Y-124100000D03*
D20*
X202750000Y-121600000D03*
X202750000Y-126600000D03*
X202750000Y-129100000D03*
X202750000Y-119100000D03*
D21*
X137650000Y-122700000D03*
X139550000Y-122700000D03*
X138600000Y-120700000D03*
D18*
X91500000Y-146200000D03*
D16*
X177600000Y-132600000D03*
X177600000Y-128600000D03*
X181600000Y-132600000D03*
X181600000Y-128600000D03*
X177600000Y-136600000D03*
X181600000Y-136600000D03*
X177600000Y-124600000D03*
X193600000Y-124600000D03*
X197600000Y-136600000D03*
X193600000Y-136600000D03*
X197600000Y-128600000D03*
X197600000Y-132600000D03*
X193600000Y-128600000D03*
X193600000Y-132600000D03*
G04 #@! TA.AperFunction,SMDPad,CuDef*
D15*
G36*
X143137004Y-125526204D02*
G01*
X143161273Y-125529804D01*
X143185071Y-125535765D01*
X143208171Y-125544030D01*
X143230349Y-125554520D01*
X143251393Y-125567133D01*
X143271098Y-125581747D01*
X143289277Y-125598223D01*
X143305753Y-125616402D01*
X143320367Y-125636107D01*
X143332980Y-125657151D01*
X143343470Y-125679329D01*
X143351735Y-125702429D01*
X143357696Y-125726227D01*
X143361296Y-125750496D01*
X143362500Y-125775000D01*
X143362500Y-127025000D01*
X143361296Y-127049504D01*
X143357696Y-127073773D01*
X143351735Y-127097571D01*
X143343470Y-127120671D01*
X143332980Y-127142849D01*
X143320367Y-127163893D01*
X143305753Y-127183598D01*
X143289277Y-127201777D01*
X143271098Y-127218253D01*
X143251393Y-127232867D01*
X143230349Y-127245480D01*
X143208171Y-127255970D01*
X143185071Y-127264235D01*
X143161273Y-127270196D01*
X143137004Y-127273796D01*
X143112500Y-127275000D01*
X142187500Y-127275000D01*
X142162996Y-127273796D01*
X142138727Y-127270196D01*
X142114929Y-127264235D01*
X142091829Y-127255970D01*
X142069651Y-127245480D01*
X142048607Y-127232867D01*
X142028902Y-127218253D01*
X142010723Y-127201777D01*
X141994247Y-127183598D01*
X141979633Y-127163893D01*
X141967020Y-127142849D01*
X141956530Y-127120671D01*
X141948265Y-127097571D01*
X141942304Y-127073773D01*
X141938704Y-127049504D01*
X141937500Y-127025000D01*
X141937500Y-125775000D01*
X141938704Y-125750496D01*
X141942304Y-125726227D01*
X141948265Y-125702429D01*
X141956530Y-125679329D01*
X141967020Y-125657151D01*
X141979633Y-125636107D01*
X141994247Y-125616402D01*
X142010723Y-125598223D01*
X142028902Y-125581747D01*
X142048607Y-125567133D01*
X142069651Y-125554520D01*
X142091829Y-125544030D01*
X142114929Y-125535765D01*
X142138727Y-125529804D01*
X142162996Y-125526204D01*
X142187500Y-125525000D01*
X143112500Y-125525000D01*
X143137004Y-125526204D01*
G37*
G04 #@! TD.AperFunction*
G04 #@! TA.AperFunction,SMDPad,CuDef*
G36*
X140162004Y-125526204D02*
G01*
X140186273Y-125529804D01*
X140210071Y-125535765D01*
X140233171Y-125544030D01*
X140255349Y-125554520D01*
X140276393Y-125567133D01*
X140296098Y-125581747D01*
X140314277Y-125598223D01*
X140330753Y-125616402D01*
X140345367Y-125636107D01*
X140357980Y-125657151D01*
X140368470Y-125679329D01*
X140376735Y-125702429D01*
X140382696Y-125726227D01*
X140386296Y-125750496D01*
X140387500Y-125775000D01*
X140387500Y-127025000D01*
X140386296Y-127049504D01*
X140382696Y-127073773D01*
X140376735Y-127097571D01*
X140368470Y-127120671D01*
X140357980Y-127142849D01*
X140345367Y-127163893D01*
X140330753Y-127183598D01*
X140314277Y-127201777D01*
X140296098Y-127218253D01*
X140276393Y-127232867D01*
X140255349Y-127245480D01*
X140233171Y-127255970D01*
X140210071Y-127264235D01*
X140186273Y-127270196D01*
X140162004Y-127273796D01*
X140137500Y-127275000D01*
X139212500Y-127275000D01*
X139187996Y-127273796D01*
X139163727Y-127270196D01*
X139139929Y-127264235D01*
X139116829Y-127255970D01*
X139094651Y-127245480D01*
X139073607Y-127232867D01*
X139053902Y-127218253D01*
X139035723Y-127201777D01*
X139019247Y-127183598D01*
X139004633Y-127163893D01*
X138992020Y-127142849D01*
X138981530Y-127120671D01*
X138973265Y-127097571D01*
X138967304Y-127073773D01*
X138963704Y-127049504D01*
X138962500Y-127025000D01*
X138962500Y-125775000D01*
X138963704Y-125750496D01*
X138967304Y-125726227D01*
X138973265Y-125702429D01*
X138981530Y-125679329D01*
X138992020Y-125657151D01*
X139004633Y-125636107D01*
X139019247Y-125616402D01*
X139035723Y-125598223D01*
X139053902Y-125581747D01*
X139073607Y-125567133D01*
X139094651Y-125554520D01*
X139116829Y-125544030D01*
X139139929Y-125535765D01*
X139163727Y-125529804D01*
X139187996Y-125526204D01*
X139212500Y-125525000D01*
X140137500Y-125525000D01*
X140162004Y-125526204D01*
G37*
G04 #@! TD.AperFunction*
G04 #@! TA.AperFunction,SMDPad,CuDef*
G36*
X140149504Y-138326204D02*
G01*
X140173773Y-138329804D01*
X140197571Y-138335765D01*
X140220671Y-138344030D01*
X140242849Y-138354520D01*
X140263893Y-138367133D01*
X140283598Y-138381747D01*
X140301777Y-138398223D01*
X140318253Y-138416402D01*
X140332867Y-138436107D01*
X140345480Y-138457151D01*
X140355970Y-138479329D01*
X140364235Y-138502429D01*
X140370196Y-138526227D01*
X140373796Y-138550496D01*
X140375000Y-138575000D01*
X140375000Y-139825000D01*
X140373796Y-139849504D01*
X140370196Y-139873773D01*
X140364235Y-139897571D01*
X140355970Y-139920671D01*
X140345480Y-139942849D01*
X140332867Y-139963893D01*
X140318253Y-139983598D01*
X140301777Y-140001777D01*
X140283598Y-140018253D01*
X140263893Y-140032867D01*
X140242849Y-140045480D01*
X140220671Y-140055970D01*
X140197571Y-140064235D01*
X140173773Y-140070196D01*
X140149504Y-140073796D01*
X140125000Y-140075000D01*
X139200000Y-140075000D01*
X139175496Y-140073796D01*
X139151227Y-140070196D01*
X139127429Y-140064235D01*
X139104329Y-140055970D01*
X139082151Y-140045480D01*
X139061107Y-140032867D01*
X139041402Y-140018253D01*
X139023223Y-140001777D01*
X139006747Y-139983598D01*
X138992133Y-139963893D01*
X138979520Y-139942849D01*
X138969030Y-139920671D01*
X138960765Y-139897571D01*
X138954804Y-139873773D01*
X138951204Y-139849504D01*
X138950000Y-139825000D01*
X138950000Y-138575000D01*
X138951204Y-138550496D01*
X138954804Y-138526227D01*
X138960765Y-138502429D01*
X138969030Y-138479329D01*
X138979520Y-138457151D01*
X138992133Y-138436107D01*
X139006747Y-138416402D01*
X139023223Y-138398223D01*
X139041402Y-138381747D01*
X139061107Y-138367133D01*
X139082151Y-138354520D01*
X139104329Y-138344030D01*
X139127429Y-138335765D01*
X139151227Y-138329804D01*
X139175496Y-138326204D01*
X139200000Y-138325000D01*
X140125000Y-138325000D01*
X140149504Y-138326204D01*
G37*
G04 #@! TD.AperFunction*
G04 #@! TA.AperFunction,SMDPad,CuDef*
G36*
X143124504Y-138326204D02*
G01*
X143148773Y-138329804D01*
X143172571Y-138335765D01*
X143195671Y-138344030D01*
X143217849Y-138354520D01*
X143238893Y-138367133D01*
X143258598Y-138381747D01*
X143276777Y-138398223D01*
X143293253Y-138416402D01*
X143307867Y-138436107D01*
X143320480Y-138457151D01*
X143330970Y-138479329D01*
X143339235Y-138502429D01*
X143345196Y-138526227D01*
X143348796Y-138550496D01*
X143350000Y-138575000D01*
X143350000Y-139825000D01*
X143348796Y-139849504D01*
X143345196Y-139873773D01*
X143339235Y-139897571D01*
X143330970Y-139920671D01*
X143320480Y-139942849D01*
X143307867Y-139963893D01*
X143293253Y-139983598D01*
X143276777Y-140001777D01*
X143258598Y-140018253D01*
X143238893Y-140032867D01*
X143217849Y-140045480D01*
X143195671Y-140055970D01*
X143172571Y-140064235D01*
X143148773Y-140070196D01*
X143124504Y-140073796D01*
X143100000Y-140075000D01*
X142175000Y-140075000D01*
X142150496Y-140073796D01*
X142126227Y-140070196D01*
X142102429Y-140064235D01*
X142079329Y-140055970D01*
X142057151Y-140045480D01*
X142036107Y-140032867D01*
X142016402Y-140018253D01*
X141998223Y-140001777D01*
X141981747Y-139983598D01*
X141967133Y-139963893D01*
X141954520Y-139942849D01*
X141944030Y-139920671D01*
X141935765Y-139897571D01*
X141929804Y-139873773D01*
X141926204Y-139849504D01*
X141925000Y-139825000D01*
X141925000Y-138575000D01*
X141926204Y-138550496D01*
X141929804Y-138526227D01*
X141935765Y-138502429D01*
X141944030Y-138479329D01*
X141954520Y-138457151D01*
X141967133Y-138436107D01*
X141981747Y-138416402D01*
X141998223Y-138398223D01*
X142016402Y-138381747D01*
X142036107Y-138367133D01*
X142057151Y-138354520D01*
X142079329Y-138344030D01*
X142102429Y-138335765D01*
X142126227Y-138329804D01*
X142150496Y-138326204D01*
X142175000Y-138325000D01*
X143100000Y-138325000D01*
X143124504Y-138326204D01*
G37*
G04 #@! TD.AperFunction*
D14*
X169625000Y-137050000D03*
X170275000Y-137050000D03*
X170925000Y-137050000D03*
X171575000Y-137050000D03*
X172225000Y-137050000D03*
X172875000Y-137050000D03*
X173525000Y-137050000D03*
X174175000Y-137050000D03*
X174175000Y-131150000D03*
X173525000Y-131150000D03*
X172875000Y-131150000D03*
X172225000Y-131150000D03*
X171575000Y-131150000D03*
X170925000Y-131150000D03*
X170275000Y-131150000D03*
X169625000Y-131150000D03*
D22*
X157900000Y-138500000D03*
X156550000Y-138500000D03*
X172200000Y-138600000D03*
X188550000Y-138650000D03*
X189900000Y-138650000D03*
X174200000Y-138600000D03*
X144700000Y-138550000D03*
X146500000Y-138550000D03*
X128502129Y-115474990D03*
X125958051Y-116758051D03*
X131000000Y-117874957D03*
X136000000Y-118300000D03*
X138500000Y-114500000D03*
X137300000Y-113900000D03*
X132200000Y-114800000D03*
X129700000Y-113525011D03*
X128500000Y-98607704D03*
X164000000Y-99899992D03*
X161500000Y-99900000D03*
X124700000Y-104674968D03*
X123500000Y-100800000D03*
X142250000Y-117400000D03*
X139496640Y-119346640D03*
X128900000Y-118700000D03*
X188500000Y-105300000D03*
X187250000Y-109100000D03*
X173249996Y-114500000D03*
X191000000Y-103775000D03*
X191000000Y-109100000D03*
X137767025Y-119167025D03*
X172350000Y-115600000D03*
X115931587Y-104707011D03*
X165899998Y-99900000D03*
X167200000Y-99900000D03*
X114200000Y-104100000D03*
X123516944Y-114150021D03*
X121141949Y-113058051D03*
X185700000Y-104900000D03*
X188350299Y-114749967D03*
X185600000Y-106200000D03*
X174100013Y-114500000D03*
X156600000Y-118650000D03*
X191900000Y-109100000D03*
X169700000Y-99900000D03*
X147100000Y-117850000D03*
X144100000Y-109350000D03*
X144075010Y-117850000D03*
X198500000Y-101100000D03*
X161500000Y-101300000D03*
X174100002Y-118250000D03*
X136850000Y-123600000D03*
X172900000Y-133950000D03*
X169600000Y-133250000D03*
X137700000Y-134900000D03*
X172793251Y-117575032D03*
X169800000Y-134600000D03*
X172250000Y-132600000D03*
X190100000Y-132750000D03*
X187950000Y-132750000D03*
X158050000Y-132850000D03*
X156000000Y-132850000D03*
X157881016Y-116130195D03*
X189850000Y-116450000D03*
X157200000Y-116550000D03*
X188850000Y-116950002D03*
X168050000Y-132600000D03*
X170900000Y-132600000D03*
D23*
X87040000Y-123000000D02*
X89580000Y-123000000D01*
D24*
X193396400Y-107503600D02*
X194500000Y-106400000D01*
X194500000Y-106400000D02*
X194500000Y-99500000D01*
X192251100Y-107503600D02*
X193396400Y-107503600D01*
D25*
X104751100Y-102503600D02*
X104751100Y-100048900D01*
X104751100Y-100048900D02*
X109300000Y-95500000D01*
X109300000Y-95500000D02*
X190500000Y-95500000D01*
X190500000Y-95500000D02*
X194500000Y-99500000D01*
X104751100Y-102503600D02*
X104696400Y-102503600D01*
X104696400Y-102503600D02*
X89580000Y-117620000D01*
X96700000Y-129600000D02*
X96700000Y-127100000D01*
X96700000Y-127100000D02*
X99200000Y-127100000D01*
X131500000Y-126800000D02*
X133600000Y-126800000D01*
X131490000Y-126810000D02*
X131500000Y-126800000D01*
X133600000Y-129500000D02*
X133600000Y-126800000D01*
X136368630Y-129500000D02*
X133600000Y-129500000D01*
X136768630Y-129900000D02*
X136368630Y-129500000D01*
X137900000Y-129900000D02*
X136768630Y-129900000D01*
D26*
X172225000Y-137050000D02*
X172875000Y-137050000D01*
X172875000Y-137050000D02*
X173525000Y-137050000D01*
X173525000Y-137050000D02*
X174175000Y-137050000D01*
X188575000Y-137050000D02*
X189225000Y-137050000D01*
X189225000Y-137050000D02*
X189875000Y-137050000D01*
D25*
X89580000Y-117620000D02*
X89580000Y-123000000D01*
X89580000Y-124131370D02*
X89580000Y-123000000D01*
X92548630Y-127100000D02*
X89580000Y-124131370D01*
X96700000Y-127100000D02*
X92548630Y-127100000D01*
X132760000Y-138240000D02*
X132760000Y-137108630D01*
X132760000Y-137108630D02*
X133599997Y-136268633D01*
X133599997Y-136268633D02*
X133599997Y-129500003D01*
X133599997Y-129500003D02*
X133600000Y-129500000D01*
X96700000Y-130677630D02*
X96700000Y-129600000D01*
X98122370Y-132100000D02*
X96700000Y-130677630D01*
X103100000Y-132100000D02*
X98122370Y-132100000D01*
X108390000Y-126810000D02*
X103100000Y-132100000D01*
X131490000Y-126810000D02*
X108390000Y-126810000D01*
D27*
X156575000Y-138475000D02*
X156550000Y-138500000D01*
X156575000Y-137050000D02*
X156575000Y-138475000D01*
X157875000Y-138475000D02*
X157900000Y-138500000D01*
X157875000Y-137050000D02*
X157875000Y-138475000D01*
X156575000Y-137050000D02*
X157225000Y-137050000D01*
X157225000Y-137050000D02*
X157875000Y-137050000D01*
X172225000Y-138575000D02*
X172200000Y-138600000D01*
X172225000Y-137050000D02*
X172225000Y-138575000D01*
X172225000Y-137050000D02*
X174175000Y-137050000D01*
X174175000Y-138575000D02*
X174200000Y-138600000D01*
X174175000Y-137050000D02*
X174175000Y-138575000D01*
X188575000Y-138625000D02*
X188550000Y-138650000D01*
X188575000Y-137050000D02*
X188575000Y-138625000D01*
X188575000Y-137050000D02*
X189875000Y-137050000D01*
X189875000Y-138625000D02*
X189900000Y-138650000D01*
X189875000Y-137050000D02*
X189875000Y-138625000D01*
D26*
X128502129Y-115050726D02*
X128502129Y-115474990D01*
X128500000Y-115048597D02*
X128502129Y-115050726D01*
X128500000Y-104832330D02*
X128500000Y-115048597D01*
X129751100Y-103581230D02*
X128500000Y-104832330D01*
X129751100Y-102503600D02*
X129751100Y-103581230D01*
X125958051Y-103796649D02*
X125958051Y-116333787D01*
X127251100Y-102503600D02*
X125958051Y-103796649D01*
X125958051Y-116333787D02*
X125958051Y-116758051D01*
X132251100Y-102503600D02*
X131000000Y-103754700D01*
X131000000Y-103754700D02*
X131000000Y-117874957D01*
X134751100Y-102503600D02*
X136000000Y-103752500D01*
X136000000Y-103752500D02*
X136000000Y-117875736D01*
X136000000Y-117875736D02*
X136000000Y-118300000D01*
X138500000Y-114075736D02*
X138500000Y-114500000D01*
X138500000Y-103752500D02*
X138500000Y-114075736D01*
X137251100Y-102503600D02*
X138500000Y-103752500D01*
X137251100Y-113851100D02*
X137300000Y-113900000D01*
X137251100Y-107503600D02*
X137251100Y-113851100D01*
X174751100Y-107503600D02*
X177054700Y-105200000D01*
X180700000Y-98600000D02*
X143000000Y-98600000D01*
X177054700Y-105200000D02*
X181500000Y-105200000D01*
X183500000Y-103200000D02*
X183500000Y-101400000D01*
X181500000Y-105200000D02*
X183500000Y-103200000D01*
X143000000Y-98600000D02*
X140400000Y-101200000D01*
X133500000Y-101800000D02*
X133500000Y-106252500D01*
X183500000Y-101400000D02*
X180700000Y-98600000D01*
X140400000Y-101200000D02*
X134100000Y-101200000D01*
X134100000Y-101200000D02*
X133500000Y-101800000D01*
X133500000Y-106252500D02*
X134751100Y-107503600D01*
X132251100Y-114748900D02*
X132200000Y-114800000D01*
X132251100Y-107503600D02*
X132251100Y-114748900D01*
X129751100Y-107503600D02*
X129751100Y-113473911D01*
X129751100Y-113473911D02*
X129700000Y-113525011D01*
X167251100Y-107503600D02*
X166853600Y-107503600D01*
X166853600Y-107503600D02*
X166000000Y-106650000D01*
X166000000Y-106650000D02*
X166000000Y-101899992D01*
X166000000Y-101899992D02*
X164299999Y-100199991D01*
X164299999Y-100199991D02*
X164000000Y-99899992D01*
X127251100Y-104948900D02*
X128500000Y-103700000D01*
X127251100Y-107503600D02*
X127251100Y-104948900D01*
X128500000Y-99031968D02*
X128500000Y-98607704D01*
X128500000Y-103700000D02*
X128500000Y-99031968D01*
X164751100Y-107503600D02*
X164751100Y-104376100D01*
X164751100Y-104376100D02*
X163500000Y-103125000D01*
X163500000Y-103125000D02*
X163500000Y-101900000D01*
X163500000Y-101900000D02*
X161799999Y-100199999D01*
X161799999Y-100199999D02*
X161500000Y-99900000D01*
X124751100Y-104726068D02*
X124700000Y-104674968D01*
X124751100Y-107503600D02*
X124751100Y-104726068D01*
X123500000Y-104100000D02*
X122251100Y-105348900D01*
X122251100Y-105348900D02*
X122251100Y-107503600D01*
X123500000Y-100800000D02*
X123500000Y-104100000D01*
X142251100Y-107503600D02*
X142251100Y-117398900D01*
X142251100Y-117398900D02*
X142250000Y-117400000D01*
X139751100Y-107503600D02*
X139751100Y-119092180D01*
X139751100Y-119092180D02*
X139496640Y-119346640D01*
X128475736Y-118700000D02*
X128900000Y-118700000D01*
X125900000Y-118700000D02*
X128475736Y-118700000D01*
X119751100Y-112551100D02*
X125900000Y-118700000D01*
X119751100Y-107503600D02*
X119751100Y-112551100D01*
X187550000Y-109100000D02*
X187250000Y-109100000D01*
X188500000Y-108150000D02*
X187550000Y-109100000D01*
X188500000Y-105300000D02*
X188500000Y-108150000D01*
X174749989Y-130149989D02*
X173450000Y-128850000D01*
X173450000Y-115124268D02*
X173249996Y-114924264D01*
X170275000Y-137050000D02*
X170275000Y-135649998D01*
X173450000Y-128850000D02*
X173450000Y-115124268D01*
X170275000Y-135649998D02*
X172624998Y-133300000D01*
X172624998Y-133300000D02*
X173677179Y-133300000D01*
X173677179Y-133300000D02*
X174749989Y-132227190D01*
X174749989Y-132227190D02*
X174749989Y-130149989D01*
X173249996Y-114924264D02*
X173249996Y-114500000D01*
X191000000Y-109100000D02*
X191000000Y-103775000D01*
X137342761Y-119167025D02*
X137767025Y-119167025D01*
X137159775Y-119350011D02*
X137342761Y-119167025D01*
X125850011Y-119350011D02*
X137159775Y-119350011D01*
X117250000Y-110750000D02*
X125850011Y-119350011D01*
X117250000Y-107504700D02*
X117250000Y-110750000D01*
X117251100Y-107503600D02*
X117250000Y-107504700D01*
X172150000Y-115800000D02*
X172350000Y-115600000D01*
X172150000Y-130075000D02*
X172150000Y-115800000D01*
X172225000Y-130150000D02*
X172150000Y-130075000D01*
X172225000Y-131150000D02*
X172225000Y-130150000D01*
X114751100Y-107503600D02*
X114751100Y-105887498D01*
X115631588Y-105007010D02*
X115931587Y-104707011D01*
X114751100Y-105887498D02*
X115631588Y-105007010D01*
X166199997Y-100199999D02*
X165899998Y-99900000D01*
X167251100Y-101251102D02*
X166199997Y-100199999D01*
X167251100Y-102503600D02*
X167251100Y-101251102D01*
X167200000Y-99952500D02*
X167200000Y-99900000D01*
X169751100Y-102503600D02*
X167200000Y-99952500D01*
X114200000Y-104100000D02*
X112300000Y-106000000D01*
X112300000Y-106000000D02*
X112300000Y-107454700D01*
X112300000Y-107454700D02*
X112251100Y-107503600D01*
D25*
X125000000Y-120700000D02*
X138600000Y-120700000D01*
X105869870Y-109700000D02*
X114000000Y-109700000D01*
X104751100Y-108581230D02*
X105869870Y-109700000D01*
X114000000Y-109700000D02*
X125000000Y-120700000D01*
X104751100Y-107503600D02*
X104751100Y-108581230D01*
D26*
X123516944Y-113725757D02*
X123516944Y-114150021D01*
X123500000Y-104832330D02*
X123500000Y-113708813D01*
X124751100Y-102503600D02*
X124751100Y-103581230D01*
X123500000Y-113708813D02*
X123516944Y-113725757D01*
X124751100Y-103581230D02*
X123500000Y-104832330D01*
X122251100Y-102503600D02*
X121000000Y-103754700D01*
X121000000Y-103754700D02*
X121000000Y-112491838D01*
X121000000Y-112491838D02*
X121141949Y-112633787D01*
X121141949Y-112633787D02*
X121141949Y-113058051D01*
X182251100Y-102503600D02*
X182251100Y-101425970D01*
X150400000Y-101200000D02*
X141054700Y-101200000D01*
X141054700Y-101200000D02*
X139751100Y-102503600D01*
X182251100Y-101425970D02*
X180025130Y-99200000D01*
X180025130Y-99200000D02*
X152400000Y-99200000D01*
X152400000Y-99200000D02*
X150400000Y-101200000D01*
X187925000Y-131150000D02*
X187925000Y-128925000D01*
X187925000Y-128925000D02*
X187950000Y-128900000D01*
X178989101Y-103265599D02*
X179751100Y-102503600D01*
X177854700Y-104400000D02*
X178989101Y-103265599D01*
X175991110Y-104400000D02*
X177854700Y-104400000D01*
X179600000Y-105700000D02*
X178500000Y-106800000D01*
X177700000Y-108900000D02*
X174100000Y-108900000D01*
X184850000Y-105700000D02*
X179600000Y-105700000D01*
X178500000Y-106800000D02*
X178500000Y-108100000D01*
X178500000Y-108100000D02*
X177700000Y-108900000D01*
X174100000Y-108900000D02*
X173500000Y-108300000D01*
X173500000Y-108300000D02*
X173500000Y-106891110D01*
X173500000Y-106891110D02*
X175991110Y-104400000D01*
X185700000Y-104900000D02*
X184850000Y-105700000D01*
X185675000Y-104875000D02*
X185700000Y-104900000D01*
X186000000Y-104550000D02*
X185675000Y-104875000D01*
X186000000Y-101500000D02*
X186000000Y-104550000D01*
X182482703Y-97982703D02*
X186000000Y-101500000D01*
X124967297Y-97982703D02*
X182482703Y-97982703D01*
X120446400Y-102503600D02*
X124967297Y-97982703D01*
X119751100Y-102503600D02*
X120446400Y-102503600D01*
X187950000Y-115150266D02*
X188050300Y-115049966D01*
X187950000Y-128900000D02*
X187950000Y-115150266D01*
X188050300Y-115049966D02*
X188350299Y-114749967D01*
X185325000Y-139025000D02*
X185600000Y-139300000D01*
X185325000Y-137050000D02*
X185325000Y-139025000D01*
X185600000Y-106200000D02*
X181400000Y-106200000D01*
X181400000Y-106200000D02*
X181000000Y-106600000D01*
X179700000Y-109400000D02*
X172300000Y-109400000D01*
X175354700Y-104400000D02*
X177251100Y-102503600D01*
X172300000Y-109400000D02*
X171000000Y-108100000D01*
X171000000Y-108100000D02*
X171000000Y-106800000D01*
X173400000Y-104400000D02*
X175354700Y-104400000D01*
X171000000Y-106800000D02*
X173400000Y-104400000D01*
X181000000Y-106600000D02*
X181000000Y-108100000D01*
X181000000Y-108100000D02*
X179700000Y-109400000D01*
X188500000Y-101700000D02*
X188500000Y-103300000D01*
X188500000Y-103300000D02*
X185600000Y-106200000D01*
X184300000Y-97500000D02*
X188500000Y-101700000D01*
X122950000Y-97500000D02*
X184300000Y-97500000D01*
X117946400Y-102503600D02*
X122950000Y-97500000D01*
X117251100Y-102503600D02*
X117946400Y-102503600D01*
X174100013Y-117350013D02*
X174100013Y-114500000D01*
X174800000Y-118050000D02*
X174100013Y-117350013D01*
X174800000Y-128900000D02*
X174800000Y-118050000D01*
X175650000Y-129750000D02*
X174800000Y-128900000D01*
X175650000Y-137600000D02*
X175650000Y-129750000D01*
X177350000Y-139300000D02*
X175650000Y-137600000D01*
X185600000Y-139300000D02*
X177350000Y-139300000D01*
X114800000Y-102454700D02*
X114751100Y-102503600D01*
X155925000Y-131150000D02*
X155925000Y-128950000D01*
X155925000Y-128950000D02*
X155975000Y-128900000D01*
X156600000Y-127400000D02*
X156050000Y-127950000D01*
X156050000Y-128825000D02*
X155975000Y-128900000D01*
X156600000Y-118650000D02*
X156600000Y-127400000D01*
X156050000Y-127950000D02*
X156050000Y-128825000D01*
X172650000Y-109900000D02*
X172000000Y-109900000D01*
X114751100Y-102503600D02*
X115446400Y-102503600D01*
X120950000Y-97000000D02*
X186400000Y-97000000D01*
X186400000Y-97000000D02*
X191000000Y-101600000D01*
X189199999Y-104674999D02*
X188025001Y-104674999D01*
X191000000Y-101600000D02*
X191000000Y-102874998D01*
X191000000Y-102874998D02*
X189199999Y-104674999D01*
X188025001Y-104674999D02*
X186000000Y-106700000D01*
X186000000Y-106700000D02*
X186000000Y-108300000D01*
X115446400Y-102503600D02*
X120950000Y-97000000D01*
X191900000Y-109100000D02*
X191250000Y-109750000D01*
X191250000Y-109750000D02*
X186500000Y-109750000D01*
X186500000Y-109750000D02*
X186000000Y-109250000D01*
X186000000Y-109250000D02*
X186000000Y-108350000D01*
X186000000Y-108300000D02*
X186000000Y-108350000D01*
X173989101Y-103265599D02*
X174751100Y-102503600D01*
X171500000Y-103900000D02*
X173354700Y-103900000D01*
X168500000Y-106900000D02*
X171500000Y-103900000D01*
X168500000Y-108450000D02*
X168500000Y-106900000D01*
X170100000Y-109900000D02*
X168500000Y-108450000D01*
X185350000Y-109900000D02*
X170100000Y-109900000D01*
X173354700Y-103900000D02*
X173989101Y-103265599D01*
X186000000Y-109250000D02*
X185350000Y-109900000D01*
X169700000Y-99952500D02*
X169700000Y-99900000D01*
X172251100Y-102503600D02*
X169700000Y-99952500D01*
X153325000Y-137050000D02*
X153325000Y-139025000D01*
X153325000Y-139025000D02*
X153600000Y-139300000D01*
X144100000Y-109350000D02*
X144100000Y-117825010D01*
X144100000Y-117825010D02*
X144075010Y-117850000D01*
X147100000Y-118274264D02*
X147100000Y-117850000D01*
X147100000Y-119474264D02*
X147100000Y-118274264D01*
X141450000Y-125124264D02*
X147100000Y-119474264D01*
X141450000Y-140550000D02*
X141450000Y-125124264D01*
X142600000Y-141700000D02*
X141450000Y-140550000D01*
X152250000Y-141700000D02*
X142600000Y-141700000D01*
X153600000Y-140350000D02*
X152250000Y-141700000D01*
X153600000Y-139300000D02*
X153600000Y-140350000D01*
X161075736Y-101300000D02*
X161500000Y-101300000D01*
X150954700Y-101300000D02*
X161075736Y-101300000D01*
X149751100Y-102503600D02*
X150954700Y-101300000D01*
X202750000Y-119100000D02*
X202750000Y-120100000D01*
X202450000Y-121000000D02*
X202800000Y-121000000D01*
X202750000Y-120100000D02*
X202750000Y-121600000D01*
X202800000Y-121000000D02*
X202800000Y-122000000D01*
X202750000Y-121600000D02*
X203100000Y-121600000D01*
X203100000Y-121600000D02*
X204100000Y-122600000D01*
X204100000Y-122600000D02*
X204100000Y-125600000D01*
X204100000Y-125600000D02*
X203100000Y-126600000D01*
X203100000Y-126600000D02*
X202750000Y-126600000D01*
X202750000Y-129100000D02*
X202750000Y-126600000D01*
X202750000Y-112950000D02*
X202750000Y-119100000D01*
X198500000Y-108700000D02*
X202750000Y-112950000D01*
X198500000Y-101100000D02*
X198500000Y-108700000D01*
X174150000Y-118299998D02*
X174100002Y-118250000D01*
X174150000Y-128900000D02*
X174150000Y-118299998D01*
X175200000Y-129950000D02*
X174150000Y-128900000D01*
X175200000Y-132550000D02*
X175200000Y-129950000D01*
X171575000Y-136175000D02*
X175200000Y-132550000D01*
X171575000Y-137050000D02*
X171575000Y-136175000D01*
X137650000Y-122700000D02*
X137650000Y-122750000D01*
X137650000Y-122750000D02*
X136850000Y-123550000D01*
X136850000Y-123550000D02*
X136850000Y-123600000D01*
D25*
X139550000Y-122700000D02*
X141950000Y-122700000D01*
D26*
X170925000Y-135925000D02*
X170925000Y-137050000D01*
X172900000Y-133950000D02*
X170925000Y-135925000D01*
X169625000Y-131150000D02*
X169625000Y-133225000D01*
X169625000Y-133225000D02*
X169600000Y-133250000D01*
D25*
X139912500Y-128412500D02*
X139912500Y-126400000D01*
X139912500Y-126400000D02*
X137900000Y-126400000D01*
X139912500Y-123062500D02*
X139550000Y-122700000D01*
X137900000Y-126400000D02*
X137900000Y-125750000D01*
X137900000Y-125750000D02*
X139900000Y-123750000D01*
X139900000Y-123750000D02*
X139912500Y-123062500D01*
X139912500Y-126400000D02*
X139900000Y-123750000D01*
X137900000Y-126400000D02*
X139912500Y-128412500D01*
X138250000Y-126400000D02*
X141950000Y-122700000D01*
X137900000Y-126400000D02*
X138250000Y-126400000D01*
X131598630Y-140750000D02*
X138112500Y-140750000D01*
X138112500Y-140750000D02*
X139662500Y-139200000D01*
X130220000Y-139371370D02*
X131598630Y-140750000D01*
X130220000Y-138240000D02*
X130220000Y-139371370D01*
X139550000Y-122700000D02*
X139550000Y-124750000D01*
X139550000Y-128050000D02*
X139912500Y-128412500D01*
X139550000Y-122700000D02*
X139550000Y-128050000D01*
X140100010Y-123250010D02*
X139550000Y-122700000D01*
X140100010Y-137887490D02*
X140100010Y-123250010D01*
X139662500Y-138325000D02*
X140100010Y-137887490D01*
X139662500Y-139200000D02*
X139662500Y-138325000D01*
X181600000Y-111300000D02*
X181650000Y-111250000D01*
X145600000Y-113200000D02*
X147550000Y-111250000D01*
X145600000Y-119050000D02*
X145600000Y-113200000D01*
X181550000Y-111250000D02*
X181600000Y-111300000D01*
X141950000Y-122700000D02*
X145600000Y-119050000D01*
X181600000Y-128600000D02*
X186600000Y-123600000D01*
X186600000Y-111450000D02*
X186800000Y-111250000D01*
X149600000Y-128600000D02*
X155100000Y-123100000D01*
X155100000Y-111400000D02*
X155250000Y-111250000D01*
X165650000Y-128600000D02*
X170700000Y-123550000D01*
X165600000Y-128600000D02*
X165650000Y-128600000D01*
X155100000Y-113000000D02*
X153350000Y-111250000D01*
X155100000Y-114450000D02*
X155100000Y-113000000D01*
X147550000Y-111250000D02*
X153350000Y-111250000D01*
X153350000Y-111250000D02*
X155250000Y-111250000D01*
X155100000Y-123100000D02*
X155100000Y-114450000D01*
X155100000Y-113000000D02*
X156850000Y-111250000D01*
X155250000Y-111250000D02*
X156850000Y-111250000D01*
X155100000Y-113150000D02*
X155100000Y-113000000D01*
X155100000Y-114450000D02*
X155100000Y-113150000D01*
X155100000Y-113150000D02*
X155100000Y-111400000D01*
X156850000Y-111250000D02*
X168800000Y-111250000D01*
X170700000Y-123550000D02*
X170700000Y-113850000D01*
X170700000Y-113150000D02*
X168800000Y-111250000D01*
X168800000Y-111250000D02*
X170700000Y-111250000D01*
X170700000Y-113850000D02*
X170700000Y-111250000D01*
X170700000Y-113850000D02*
X170700000Y-113150000D01*
X172600000Y-111250000D02*
X181550000Y-111250000D01*
X170700000Y-113150000D02*
X172600000Y-111250000D01*
X170700000Y-111250000D02*
X172600000Y-111250000D01*
X186600000Y-113250000D02*
X184600000Y-111250000D01*
X184600000Y-111250000D02*
X186800000Y-111250000D01*
X181650000Y-111250000D02*
X184600000Y-111250000D01*
X186600000Y-123600000D02*
X186600000Y-114100000D01*
X186600000Y-114100000D02*
X186600000Y-113250000D01*
X186850000Y-112950000D02*
X188550000Y-111250000D01*
X186600000Y-112950000D02*
X186850000Y-112950000D01*
X186800000Y-111250000D02*
X188550000Y-111250000D01*
X186600000Y-114100000D02*
X186600000Y-112950000D01*
X186600000Y-112950000D02*
X186600000Y-111450000D01*
D28*
X167721320Y-128600000D02*
X165600000Y-128600000D01*
X168265000Y-128600000D02*
X167721320Y-128600000D01*
X169625000Y-129960000D02*
X168265000Y-128600000D01*
X169625000Y-131150000D02*
X169625000Y-129960000D01*
X183721320Y-128600000D02*
X181600000Y-128600000D01*
X183965000Y-128600000D02*
X183721320Y-128600000D01*
X185325000Y-129960000D02*
X183965000Y-128600000D01*
X185325000Y-131150000D02*
X185325000Y-129960000D01*
X151965000Y-128600000D02*
X151721320Y-128600000D01*
X151721320Y-128600000D02*
X149600000Y-128600000D01*
X153325000Y-129960000D02*
X151965000Y-128600000D01*
X153325000Y-131150000D02*
X153325000Y-129960000D01*
D25*
X138150000Y-124750000D02*
X137900000Y-125000000D01*
X139550000Y-124750000D02*
X138150000Y-124750000D01*
X137900000Y-125000000D02*
X137900000Y-126400000D01*
X188550000Y-111250000D02*
X192250000Y-111250000D01*
X197600000Y-116600000D02*
X197600000Y-128600000D01*
X192250000Y-111250000D02*
X197600000Y-116600000D01*
D26*
X136431370Y-138240000D02*
X135300000Y-138240000D01*
X136560000Y-138240000D02*
X136431370Y-138240000D01*
X137700000Y-137100000D02*
X136560000Y-138240000D01*
X137700000Y-136387500D02*
X137700000Y-137100000D01*
X172875000Y-131150000D02*
X173525000Y-131150000D01*
X173525000Y-131150000D02*
X174175000Y-131150000D01*
X174150000Y-131125000D02*
X174175000Y-131150000D01*
X137700000Y-134900000D02*
X137700000Y-133412500D01*
X172875000Y-117656781D02*
X172793251Y-117575032D01*
X172875000Y-131150000D02*
X172875000Y-117656781D01*
X171575000Y-131150000D02*
X171575000Y-132836415D01*
X171575000Y-132836415D02*
X170111414Y-134300001D01*
X170111414Y-134300001D02*
X170099999Y-134300001D01*
X170099999Y-134300001D02*
X169800000Y-134600000D01*
X145600000Y-133300000D02*
X145600000Y-132600000D01*
X142050000Y-136850000D02*
X145600000Y-133300000D01*
X142050000Y-138612500D02*
X142050000Y-136850000D01*
X142637500Y-139200000D02*
X142050000Y-138612500D01*
X169625000Y-137050000D02*
X169625000Y-135663587D01*
X169625000Y-135663587D02*
X172250000Y-133038587D01*
X172250000Y-133038587D02*
X172250000Y-133024264D01*
X172250000Y-133024264D02*
X172250000Y-132600000D01*
X143400000Y-126400000D02*
X145600000Y-128600000D01*
X142650000Y-126400000D02*
X143400000Y-126400000D01*
X153800000Y-135900000D02*
X153975000Y-136075000D01*
X152700000Y-135900000D02*
X153800000Y-135900000D01*
X152350000Y-136250000D02*
X152700000Y-135900000D01*
X152350000Y-136700000D02*
X152350000Y-136250000D01*
X147600000Y-137450000D02*
X148750000Y-138600000D01*
X150450000Y-138600000D02*
X152350000Y-136700000D01*
X147600000Y-135350000D02*
X147600000Y-137450000D01*
X148750000Y-138600000D02*
X150450000Y-138600000D01*
X148100001Y-134849999D02*
X147600000Y-135350000D01*
X153975000Y-136075000D02*
X153975000Y-137050000D01*
X148100001Y-134099999D02*
X148100001Y-134849999D01*
X149600000Y-132600000D02*
X148100001Y-134099999D01*
X150475000Y-130600000D02*
X155925000Y-136050000D01*
X148750000Y-130600000D02*
X150475000Y-130600000D01*
X147600000Y-131750000D02*
X148750000Y-130600000D01*
X147600000Y-134600000D02*
X147600000Y-131750000D01*
X145600000Y-136600000D02*
X147600000Y-134600000D01*
X155925000Y-136050000D02*
X155925000Y-137050000D01*
X149600000Y-136600000D02*
X150450000Y-135750000D01*
X155275000Y-136061410D02*
X155275000Y-137050000D01*
X150800000Y-135400000D02*
X154613590Y-135400000D01*
X154613590Y-135400000D02*
X155275000Y-136061410D01*
X149600000Y-136600000D02*
X150800000Y-135400000D01*
X164100001Y-135100001D02*
X165600000Y-136600000D01*
X158850000Y-134600000D02*
X163600000Y-134600000D01*
X156875001Y-132549999D02*
X156875001Y-132625001D01*
X163600000Y-134600000D02*
X164100001Y-135100001D01*
X156575000Y-131150000D02*
X156575000Y-132249998D01*
X156875001Y-132625001D02*
X158850000Y-134600000D01*
X156575000Y-132249998D02*
X156875001Y-132549999D01*
X154625000Y-131150000D02*
X154625000Y-132400002D01*
X160100001Y-135100001D02*
X161600000Y-136600000D01*
X157274998Y-135050000D02*
X160050000Y-135050000D01*
X154625000Y-132400002D02*
X157274998Y-135050000D01*
X160050000Y-135050000D02*
X160100001Y-135100001D01*
X167599967Y-137450033D02*
X167599967Y-134599967D01*
X160749978Y-138599978D02*
X166450022Y-138599978D01*
X167599967Y-134599967D02*
X167099999Y-134099999D01*
X159600000Y-137450000D02*
X160749978Y-138599978D01*
X159600000Y-136600000D02*
X159600000Y-137450000D01*
X158600000Y-135600000D02*
X159600000Y-136600000D01*
X167099999Y-134099999D02*
X165600000Y-132600000D01*
X156150000Y-135600000D02*
X158600000Y-135600000D01*
X166450022Y-138599978D02*
X167599967Y-137450033D01*
X153975000Y-133425000D02*
X156150000Y-135600000D01*
X153975000Y-131150000D02*
X153975000Y-133425000D01*
X185650000Y-135500000D02*
X185975000Y-135825000D01*
X184300000Y-135500000D02*
X185650000Y-135500000D01*
X183600000Y-136200000D02*
X184300000Y-135500000D01*
X183600000Y-137450000D02*
X183600000Y-136200000D01*
X182450000Y-138600000D02*
X183600000Y-137450000D01*
X185975000Y-135825000D02*
X185975000Y-137050000D01*
X180750000Y-138600000D02*
X182450000Y-138600000D01*
X179600000Y-137450000D02*
X180750000Y-138600000D01*
X179600000Y-135300000D02*
X179600000Y-137450000D01*
X180100001Y-134799999D02*
X179600000Y-135300000D01*
X180100001Y-134099999D02*
X180100001Y-134799999D01*
X181600000Y-132600000D02*
X180100001Y-134099999D01*
X179550000Y-134650000D02*
X179550000Y-131800000D01*
X182475000Y-130600000D02*
X187925000Y-136050000D01*
X177600000Y-136600000D02*
X179550000Y-134650000D01*
X180750000Y-130600000D02*
X182475000Y-130600000D01*
X187925000Y-136050000D02*
X187925000Y-137050000D01*
X179550000Y-131800000D02*
X180750000Y-130600000D01*
X187275000Y-136050000D02*
X187275000Y-137050000D01*
X186125000Y-134900000D02*
X187275000Y-136050000D01*
X183300000Y-134900000D02*
X186125000Y-134900000D01*
X181600000Y-136600000D02*
X183300000Y-134900000D01*
X197600000Y-136600000D02*
X195600000Y-134600000D01*
X188575000Y-132150000D02*
X188575000Y-131150000D01*
X191025000Y-134600000D02*
X188575000Y-132150000D01*
X195600000Y-134600000D02*
X191025000Y-134600000D01*
X189374999Y-135100001D02*
X186625000Y-132350002D01*
X186625000Y-132150000D02*
X186625000Y-131150000D01*
X192100001Y-135100001D02*
X189374999Y-135100001D01*
X193600000Y-136600000D02*
X192100001Y-135100001D01*
X186625000Y-132350002D02*
X186625000Y-132150000D01*
X185975000Y-132150000D02*
X185975000Y-131150000D01*
X185975000Y-133425000D02*
X185975000Y-132150000D01*
X198400000Y-138650000D02*
X192750000Y-138650000D01*
X188150000Y-135600000D02*
X185975000Y-133425000D01*
X192750000Y-138650000D02*
X191550000Y-137450000D01*
X197600000Y-132600000D02*
X199650000Y-134650000D01*
X191550000Y-137450000D02*
X191550000Y-136650000D01*
X190500000Y-135600000D02*
X188150000Y-135600000D01*
X199650000Y-134650000D02*
X199650000Y-137400000D01*
X199650000Y-137400000D02*
X198400000Y-138650000D01*
X191550000Y-136650000D02*
X190500000Y-135600000D01*
X187275000Y-131150000D02*
X187275000Y-130150000D01*
X187275000Y-130150000D02*
X186500000Y-129375000D01*
X187275000Y-132150000D02*
X187875000Y-132750000D01*
X187275000Y-131150000D02*
X187275000Y-132150000D01*
X187875000Y-132750000D02*
X187950000Y-132750000D01*
X93860001Y-137440001D02*
X94660000Y-138240000D01*
X190100000Y-132750000D02*
X192250000Y-130600000D01*
X192250000Y-130600000D02*
X198500000Y-130600000D01*
X198500000Y-130600000D02*
X200100000Y-132200000D01*
X200100000Y-137600000D02*
X193299945Y-144400055D01*
X193299945Y-144400055D02*
X130000055Y-144400055D01*
X91600000Y-136900000D02*
X93320000Y-136900000D01*
X91450000Y-140150000D02*
X90850000Y-139550000D01*
X130000055Y-144400055D02*
X125750000Y-140150000D01*
X93320000Y-136900000D02*
X93860001Y-137440001D01*
X200100000Y-132200000D02*
X200100000Y-137600000D01*
X125750000Y-140150000D02*
X91450000Y-140150000D01*
X90850000Y-139550000D02*
X90850000Y-137650000D01*
X90850000Y-137650000D02*
X91600000Y-136900000D01*
X186625000Y-137050000D02*
X186625000Y-138615364D01*
X186625000Y-138615364D02*
X187050000Y-139040364D01*
X187050000Y-139040364D02*
X187050000Y-139300000D01*
X125950000Y-139700000D02*
X93580000Y-139700000D01*
X93580000Y-139700000D02*
X92120000Y-138240000D01*
X130200044Y-143950044D02*
X125950000Y-139700000D01*
X183149956Y-143950044D02*
X130200044Y-143950044D01*
X187050000Y-140050000D02*
X183149956Y-143950044D01*
X187050000Y-139300000D02*
X187050000Y-140050000D01*
X155275000Y-130150000D02*
X154525000Y-129400000D01*
X155275000Y-131150000D02*
X155275000Y-130150000D01*
X155275000Y-132150000D02*
X155975000Y-132850000D01*
X155975000Y-132850000D02*
X156000000Y-132850000D01*
X155275000Y-131150000D02*
X155275000Y-132150000D01*
X130627200Y-143050022D02*
X126400000Y-138822822D01*
X90379999Y-137440001D02*
X89580000Y-138240000D01*
X91370011Y-136449989D02*
X90379999Y-137440001D01*
X160300000Y-130600000D02*
X166975004Y-130600000D01*
X163313569Y-143050022D02*
X130627200Y-143050022D01*
X126400000Y-137650000D02*
X125199989Y-136449989D01*
X166975004Y-130600000D02*
X168675002Y-132299998D01*
X168675002Y-133688587D02*
X168499989Y-133863600D01*
X126400000Y-138822822D02*
X126400000Y-137650000D01*
X158050000Y-132850000D02*
X160300000Y-130600000D01*
X125199989Y-136449989D02*
X91370011Y-136449989D01*
X168499989Y-133863600D02*
X168499989Y-137863602D01*
X168675002Y-132299998D02*
X168675002Y-133688587D01*
X168499989Y-137863602D02*
X163313569Y-143050022D01*
X154625000Y-137050000D02*
X154625000Y-138615364D01*
X155050000Y-139040364D02*
X155050000Y-139300000D01*
X154625000Y-138615364D02*
X155050000Y-139040364D01*
X87910000Y-138240000D02*
X87040000Y-138240000D01*
X88300000Y-137850000D02*
X87910000Y-138240000D01*
X88300000Y-137400000D02*
X88300000Y-137850000D01*
X127549978Y-135999978D02*
X89700022Y-135999978D01*
X128894990Y-137344990D02*
X127549978Y-135999978D01*
X131000000Y-142150000D02*
X128894990Y-140044990D01*
X89700022Y-135999978D02*
X88300000Y-137400000D01*
X152500000Y-142150000D02*
X131000000Y-142150000D01*
X128894990Y-140044990D02*
X128894990Y-137344990D01*
X155050000Y-139600000D02*
X152500000Y-142150000D01*
X155050000Y-139300000D02*
X155050000Y-139600000D01*
X157875000Y-130975000D02*
X157881016Y-130968984D01*
X157881016Y-130968984D02*
X157881016Y-116554459D01*
X157881016Y-116554459D02*
X157881016Y-116130195D01*
X189875000Y-116475000D02*
X189850000Y-116450000D01*
X189875000Y-131150000D02*
X189875000Y-116475000D01*
X157225000Y-131150000D02*
X157225001Y-116575001D01*
X157225001Y-116575001D02*
X157200000Y-116550000D01*
X189225000Y-131150000D02*
X189225000Y-117325002D01*
X189225000Y-117325002D02*
X188850000Y-116950002D01*
X170275000Y-133500004D02*
X170275000Y-132150000D01*
X170275000Y-132150000D02*
X170275000Y-131150000D01*
X169900002Y-133875002D02*
X170275000Y-133500004D01*
X168950000Y-138050002D02*
X168950000Y-134550000D01*
X168950000Y-134550000D02*
X169624998Y-133875002D01*
X163499969Y-143500033D02*
X168950000Y-138050002D01*
X130400033Y-143500033D02*
X163499969Y-143500033D01*
X125140000Y-138240000D02*
X130400033Y-143500033D01*
X169624998Y-133875002D02*
X169900002Y-133875002D01*
X170900000Y-131175000D02*
X170925000Y-131150000D01*
X170900000Y-132600000D02*
X170900000Y-131175000D01*
X168050000Y-133024264D02*
X168050000Y-132600000D01*
X168049978Y-133024286D02*
X168050000Y-133024264D01*
X163127169Y-142600011D02*
X168049978Y-137677202D01*
X127680000Y-139466411D02*
X130813600Y-142600011D01*
X168049978Y-137677202D02*
X168049978Y-133024286D01*
X127680000Y-138240000D02*
X127680000Y-139466411D01*
X130813600Y-142600011D02*
X163127169Y-142600011D01*
D15*
G36*
X211025001Y-118231685D02*
G01*
X210990732Y-118197416D01*
X210800413Y-118070249D01*
X210588943Y-117982655D01*
X210364447Y-117938000D01*
X210135553Y-117938000D01*
X209911057Y-117982655D01*
X209699587Y-118070249D01*
X209509268Y-118197416D01*
X209347416Y-118359268D01*
X209220249Y-118549587D01*
X209132655Y-118761057D01*
X209088000Y-118985553D01*
X209088000Y-119214447D01*
X209132655Y-119438943D01*
X209220249Y-119650413D01*
X209347416Y-119840732D01*
X209509268Y-120002584D01*
X209699587Y-120129751D01*
X209911057Y-120217345D01*
X210135553Y-120262000D01*
X210364447Y-120262000D01*
X210588943Y-120217345D01*
X210800413Y-120129751D01*
X210990732Y-120002584D01*
X211025001Y-119968315D01*
X211025000Y-128231684D01*
X210990732Y-128197416D01*
X210800413Y-128070249D01*
X210588943Y-127982655D01*
X210364447Y-127938000D01*
X210135553Y-127938000D01*
X209911057Y-127982655D01*
X209699587Y-128070249D01*
X209509268Y-128197416D01*
X209347416Y-128359268D01*
X209220249Y-128549587D01*
X209132655Y-128761057D01*
X209088000Y-128985553D01*
X209088000Y-129214447D01*
X209132655Y-129438943D01*
X209220249Y-129650413D01*
X209347416Y-129840732D01*
X209509268Y-130002584D01*
X209699587Y-130129751D01*
X209911057Y-130217345D01*
X210135553Y-130262000D01*
X210364447Y-130262000D01*
X210588943Y-130217345D01*
X210800413Y-130129751D01*
X210990732Y-130002584D01*
X211025000Y-129968316D01*
X211025000Y-150225000D01*
X85975000Y-150225000D01*
X85975000Y-145963621D01*
X89100000Y-145963621D01*
X89100000Y-146436379D01*
X89192230Y-146900054D01*
X89373147Y-147336826D01*
X89635798Y-147729911D01*
X89970089Y-148064202D01*
X90363174Y-148326853D01*
X90799946Y-148507770D01*
X91263621Y-148600000D01*
X91736379Y-148600000D01*
X92200054Y-148507770D01*
X92636826Y-148326853D01*
X93029911Y-148064202D01*
X93364202Y-147729911D01*
X93626853Y-147336826D01*
X93807770Y-146900054D01*
X93900000Y-146436379D01*
X93900000Y-145963621D01*
X203100000Y-145963621D01*
X203100000Y-146436379D01*
X203192230Y-146900054D01*
X203373147Y-147336826D01*
X203635798Y-147729911D01*
X203970089Y-148064202D01*
X204363174Y-148326853D01*
X204799946Y-148507770D01*
X205263621Y-148600000D01*
X205736379Y-148600000D01*
X206200054Y-148507770D01*
X206636826Y-148326853D01*
X207029911Y-148064202D01*
X207364202Y-147729911D01*
X207626853Y-147336826D01*
X207807770Y-146900054D01*
X207900000Y-146436379D01*
X207900000Y-145963621D01*
X207807770Y-145499946D01*
X207626853Y-145063174D01*
X207364202Y-144670089D01*
X207029911Y-144335798D01*
X206636826Y-144073147D01*
X206200054Y-143892230D01*
X205736379Y-143800000D01*
X205263621Y-143800000D01*
X204799946Y-143892230D01*
X204363174Y-144073147D01*
X203970089Y-144335798D01*
X203635798Y-144670089D01*
X203373147Y-145063174D01*
X203192230Y-145499946D01*
X203100000Y-145963621D01*
X93900000Y-145963621D01*
X93807770Y-145499946D01*
X93626853Y-145063174D01*
X93364202Y-144670089D01*
X93029911Y-144335798D01*
X92636826Y-144073147D01*
X92200054Y-143892230D01*
X91736379Y-143800000D01*
X91263621Y-143800000D01*
X90799946Y-143892230D01*
X90363174Y-144073147D01*
X89970089Y-144335798D01*
X89635798Y-144670089D01*
X89373147Y-145063174D01*
X89192230Y-145499946D01*
X89100000Y-145963621D01*
X85975000Y-145963621D01*
X85975000Y-138804613D01*
X85976574Y-138808413D01*
X86107899Y-139004955D01*
X86275045Y-139172101D01*
X86471587Y-139303426D01*
X86689973Y-139393884D01*
X86921810Y-139440000D01*
X87158190Y-139440000D01*
X87390027Y-139393884D01*
X87608413Y-139303426D01*
X87804955Y-139172101D01*
X87972101Y-139004955D01*
X88103426Y-138808413D01*
X88144129Y-138710146D01*
X88203086Y-138678633D01*
X88283027Y-138613027D01*
X88299470Y-138592991D01*
X88405596Y-138486866D01*
X88426116Y-138590027D01*
X88516574Y-138808413D01*
X88647899Y-139004955D01*
X88815045Y-139172101D01*
X89011587Y-139303426D01*
X89229973Y-139393884D01*
X89461810Y-139440000D01*
X89698190Y-139440000D01*
X89930027Y-139393884D01*
X90148413Y-139303426D01*
X90325000Y-139185434D01*
X90325000Y-139524220D01*
X90322461Y-139550000D01*
X90325000Y-139575780D01*
X90325000Y-139575787D01*
X90332597Y-139652917D01*
X90362617Y-139751880D01*
X90411367Y-139843086D01*
X90476973Y-139923027D01*
X90497010Y-139939471D01*
X91060533Y-140502995D01*
X91076973Y-140523027D01*
X91156914Y-140588633D01*
X91248119Y-140637383D01*
X91347082Y-140667403D01*
X91424212Y-140675000D01*
X91424219Y-140675000D01*
X91449999Y-140677539D01*
X91475779Y-140675000D01*
X125532539Y-140675000D01*
X129610589Y-144753051D01*
X129627028Y-144773082D01*
X129706969Y-144838688D01*
X129798174Y-144887438D01*
X129897137Y-144917458D01*
X129974267Y-144925055D01*
X129974274Y-144925055D01*
X130000054Y-144927594D01*
X130025834Y-144925055D01*
X193274165Y-144925055D01*
X193299945Y-144927594D01*
X193325725Y-144925055D01*
X193325733Y-144925055D01*
X193402863Y-144917458D01*
X193501826Y-144887438D01*
X193593031Y-144838688D01*
X193672972Y-144773082D01*
X193689416Y-144753045D01*
X200452996Y-137989466D01*
X200473027Y-137973027D01*
X200538633Y-137893086D01*
X200587383Y-137801881D01*
X200617403Y-137702918D01*
X200625000Y-137625788D01*
X200625000Y-137625781D01*
X200627539Y-137600001D01*
X200625000Y-137574221D01*
X200625000Y-132225788D01*
X200627540Y-132200000D01*
X200617403Y-132097082D01*
X200587383Y-131998119D01*
X200553167Y-131934106D01*
X200538633Y-131906914D01*
X200473027Y-131826973D01*
X200452996Y-131810534D01*
X198889471Y-130247010D01*
X198873027Y-130226973D01*
X198793086Y-130161367D01*
X198732013Y-130128723D01*
X198811179Y-130075826D01*
X199075826Y-129811179D01*
X199283758Y-129499987D01*
X199426984Y-129154209D01*
X199500000Y-128787134D01*
X199500000Y-128412866D01*
X199426984Y-128045791D01*
X199283758Y-127700013D01*
X199075826Y-127388821D01*
X199000000Y-127312995D01*
X199000000Y-116668769D01*
X199006773Y-116600000D01*
X199000000Y-116531231D01*
X199000000Y-116531223D01*
X198979743Y-116325552D01*
X198951022Y-116230870D01*
X198899690Y-116061650D01*
X198841612Y-115952995D01*
X198769690Y-115818438D01*
X198708907Y-115744374D01*
X198638582Y-115658683D01*
X198638576Y-115658677D01*
X198594738Y-115605261D01*
X198541324Y-115561425D01*
X193288584Y-110308686D01*
X193244739Y-110255261D01*
X193031562Y-110080310D01*
X192788349Y-109950310D01*
X192524448Y-109870257D01*
X192318777Y-109850000D01*
X192318769Y-109850000D01*
X192250000Y-109843227D01*
X192181231Y-109850000D01*
X191892462Y-109850000D01*
X191942462Y-109800000D01*
X191968944Y-109800000D01*
X192104182Y-109773099D01*
X192231574Y-109720332D01*
X192346224Y-109643726D01*
X192443726Y-109546224D01*
X192520332Y-109431574D01*
X192573099Y-109304182D01*
X192600000Y-109168944D01*
X192600000Y-109031056D01*
X192573099Y-108895818D01*
X192520332Y-108768426D01*
X192443726Y-108653776D01*
X192346224Y-108556274D01*
X192231574Y-108479668D01*
X192104182Y-108426901D01*
X191968944Y-108400000D01*
X191831056Y-108400000D01*
X191695818Y-108426901D01*
X191568426Y-108479668D01*
X191525000Y-108508684D01*
X191525000Y-104239950D01*
X191543726Y-104221224D01*
X191620332Y-104106574D01*
X191673099Y-103979182D01*
X191700000Y-103843944D01*
X191700000Y-103706056D01*
X191673099Y-103570818D01*
X191641084Y-103493525D01*
X191700687Y-103533351D01*
X191912157Y-103620945D01*
X192136653Y-103665600D01*
X192365547Y-103665600D01*
X192590043Y-103620945D01*
X192801513Y-103533351D01*
X192991832Y-103406184D01*
X193153684Y-103244332D01*
X193280851Y-103054013D01*
X193368445Y-102842543D01*
X193413100Y-102618047D01*
X193413100Y-102389153D01*
X193368445Y-102164657D01*
X193280851Y-101953187D01*
X193153684Y-101762868D01*
X192991832Y-101601016D01*
X192801513Y-101473849D01*
X192590043Y-101386255D01*
X192365547Y-101341600D01*
X192136653Y-101341600D01*
X191912157Y-101386255D01*
X191700687Y-101473849D01*
X191526573Y-101590188D01*
X191525000Y-101574219D01*
X191525000Y-101574212D01*
X191517403Y-101497082D01*
X191487383Y-101398119D01*
X191438633Y-101306914D01*
X191373027Y-101226973D01*
X191352996Y-101210534D01*
X191173518Y-101031056D01*
X197800000Y-101031056D01*
X197800000Y-101168944D01*
X197826901Y-101304182D01*
X197879668Y-101431574D01*
X197956274Y-101546224D01*
X197975000Y-101564950D01*
X197975001Y-108674210D01*
X197972461Y-108700000D01*
X197982597Y-108802917D01*
X198012617Y-108901880D01*
X198061367Y-108993085D01*
X198061368Y-108993086D01*
X198126974Y-109073027D01*
X198147005Y-109089466D01*
X202225000Y-113167462D01*
X202225001Y-117948065D01*
X201650000Y-117948065D01*
X201571586Y-117955788D01*
X201496186Y-117978660D01*
X201426697Y-118015803D01*
X201365789Y-118065789D01*
X201315803Y-118126697D01*
X201278660Y-118196186D01*
X201255788Y-118271586D01*
X201248065Y-118350000D01*
X201248065Y-119850000D01*
X201255788Y-119928414D01*
X201278660Y-120003814D01*
X201315803Y-120073303D01*
X201365789Y-120134211D01*
X201426697Y-120184197D01*
X201496186Y-120221340D01*
X201571586Y-120244212D01*
X201650000Y-120251935D01*
X202225000Y-120251935D01*
X202225000Y-120448065D01*
X201650000Y-120448065D01*
X201571586Y-120455788D01*
X201496186Y-120478660D01*
X201426697Y-120515803D01*
X201365789Y-120565789D01*
X201315803Y-120626697D01*
X201278660Y-120696186D01*
X201255788Y-120771586D01*
X201248065Y-120850000D01*
X201248065Y-122350000D01*
X201255788Y-122428414D01*
X201278660Y-122503814D01*
X201315803Y-122573303D01*
X201365789Y-122634211D01*
X201426697Y-122684197D01*
X201496186Y-122721340D01*
X201571586Y-122744212D01*
X201650000Y-122751935D01*
X203509473Y-122751935D01*
X203575000Y-122817462D01*
X203575000Y-123281684D01*
X203490732Y-123197416D01*
X203300413Y-123070249D01*
X203088943Y-122982655D01*
X202864447Y-122938000D01*
X202635553Y-122938000D01*
X202411057Y-122982655D01*
X202199587Y-123070249D01*
X202009268Y-123197416D01*
X201847416Y-123359268D01*
X201720249Y-123549587D01*
X201632655Y-123761057D01*
X201588000Y-123985553D01*
X201588000Y-124214447D01*
X201632655Y-124438943D01*
X201720249Y-124650413D01*
X201847416Y-124840732D01*
X202009268Y-125002584D01*
X202199587Y-125129751D01*
X202411057Y-125217345D01*
X202635553Y-125262000D01*
X202864447Y-125262000D01*
X203088943Y-125217345D01*
X203300413Y-125129751D01*
X203490732Y-125002584D01*
X203575001Y-124918315D01*
X203575001Y-125382537D01*
X203509473Y-125448065D01*
X201650000Y-125448065D01*
X201571586Y-125455788D01*
X201496186Y-125478660D01*
X201426697Y-125515803D01*
X201365789Y-125565789D01*
X201315803Y-125626697D01*
X201278660Y-125696186D01*
X201255788Y-125771586D01*
X201248065Y-125850000D01*
X201248065Y-127350000D01*
X201255788Y-127428414D01*
X201278660Y-127503814D01*
X201315803Y-127573303D01*
X201365789Y-127634211D01*
X201426697Y-127684197D01*
X201496186Y-127721340D01*
X201571586Y-127744212D01*
X201650000Y-127751935D01*
X202225001Y-127751935D01*
X202225000Y-127948065D01*
X201650000Y-127948065D01*
X201571586Y-127955788D01*
X201496186Y-127978660D01*
X201426697Y-128015803D01*
X201365789Y-128065789D01*
X201315803Y-128126697D01*
X201278660Y-128196186D01*
X201255788Y-128271586D01*
X201248065Y-128350000D01*
X201248065Y-129850000D01*
X201255788Y-129928414D01*
X201278660Y-130003814D01*
X201315803Y-130073303D01*
X201365789Y-130134211D01*
X201426697Y-130184197D01*
X201496186Y-130221340D01*
X201571586Y-130244212D01*
X201650000Y-130251935D01*
X203850000Y-130251935D01*
X203928414Y-130244212D01*
X204003814Y-130221340D01*
X204073303Y-130184197D01*
X204134211Y-130134211D01*
X204184197Y-130073303D01*
X204221340Y-130003814D01*
X204244212Y-129928414D01*
X204251935Y-129850000D01*
X204251935Y-128985553D01*
X206588000Y-128985553D01*
X206588000Y-129214447D01*
X206632655Y-129438943D01*
X206720249Y-129650413D01*
X206847416Y-129840732D01*
X207009268Y-130002584D01*
X207199587Y-130129751D01*
X207411057Y-130217345D01*
X207635553Y-130262000D01*
X207864447Y-130262000D01*
X208088943Y-130217345D01*
X208300413Y-130129751D01*
X208490732Y-130002584D01*
X208652584Y-129840732D01*
X208779751Y-129650413D01*
X208867345Y-129438943D01*
X208912000Y-129214447D01*
X208912000Y-128985553D01*
X208867345Y-128761057D01*
X208779751Y-128549587D01*
X208652584Y-128359268D01*
X208490732Y-128197416D01*
X208300413Y-128070249D01*
X208088943Y-127982655D01*
X207864447Y-127938000D01*
X207635553Y-127938000D01*
X207411057Y-127982655D01*
X207199587Y-128070249D01*
X207009268Y-128197416D01*
X206847416Y-128359268D01*
X206720249Y-128549587D01*
X206632655Y-128761057D01*
X206588000Y-128985553D01*
X204251935Y-128985553D01*
X204251935Y-128350000D01*
X204244212Y-128271586D01*
X204221340Y-128196186D01*
X204184197Y-128126697D01*
X204134211Y-128065789D01*
X204073303Y-128015803D01*
X204003814Y-127978660D01*
X203928414Y-127955788D01*
X203850000Y-127948065D01*
X203275000Y-127948065D01*
X203275000Y-127751935D01*
X203850000Y-127751935D01*
X203928414Y-127744212D01*
X204003814Y-127721340D01*
X204073303Y-127684197D01*
X204134211Y-127634211D01*
X204184197Y-127573303D01*
X204221340Y-127503814D01*
X204244212Y-127428414D01*
X204251935Y-127350000D01*
X204251935Y-126190527D01*
X204452996Y-125989466D01*
X204473027Y-125973027D01*
X204538633Y-125893086D01*
X204587383Y-125801881D01*
X204617403Y-125702918D01*
X204625000Y-125625788D01*
X204627540Y-125600000D01*
X204625000Y-125574212D01*
X204625000Y-122625788D01*
X204627540Y-122600000D01*
X204620069Y-122524151D01*
X204617403Y-122497082D01*
X204587383Y-122398119D01*
X204538633Y-122306914D01*
X204473027Y-122226973D01*
X204452996Y-122210534D01*
X204251935Y-122009473D01*
X204251935Y-120850000D01*
X204244212Y-120771586D01*
X204221340Y-120696186D01*
X204184197Y-120626697D01*
X204134211Y-120565789D01*
X204073303Y-120515803D01*
X204003814Y-120478660D01*
X203928414Y-120455788D01*
X203850000Y-120448065D01*
X203275000Y-120448065D01*
X203275000Y-120251935D01*
X203850000Y-120251935D01*
X203928414Y-120244212D01*
X204003814Y-120221340D01*
X204073303Y-120184197D01*
X204134211Y-120134211D01*
X204184197Y-120073303D01*
X204221340Y-120003814D01*
X204244212Y-119928414D01*
X204251935Y-119850000D01*
X204251935Y-118985553D01*
X206588000Y-118985553D01*
X206588000Y-119214447D01*
X206632655Y-119438943D01*
X206720249Y-119650413D01*
X206847416Y-119840732D01*
X207009268Y-120002584D01*
X207199587Y-120129751D01*
X207411057Y-120217345D01*
X207635553Y-120262000D01*
X207864447Y-120262000D01*
X208088943Y-120217345D01*
X208300413Y-120129751D01*
X208490732Y-120002584D01*
X208652584Y-119840732D01*
X208779751Y-119650413D01*
X208867345Y-119438943D01*
X208912000Y-119214447D01*
X208912000Y-118985553D01*
X208867345Y-118761057D01*
X208779751Y-118549587D01*
X208652584Y-118359268D01*
X208490732Y-118197416D01*
X208300413Y-118070249D01*
X208088943Y-117982655D01*
X207864447Y-117938000D01*
X207635553Y-117938000D01*
X207411057Y-117982655D01*
X207199587Y-118070249D01*
X207009268Y-118197416D01*
X206847416Y-118359268D01*
X206720249Y-118549587D01*
X206632655Y-118761057D01*
X206588000Y-118985553D01*
X204251935Y-118985553D01*
X204251935Y-118350000D01*
X204244212Y-118271586D01*
X204221340Y-118196186D01*
X204184197Y-118126697D01*
X204134211Y-118065789D01*
X204073303Y-118015803D01*
X204003814Y-117978660D01*
X203928414Y-117955788D01*
X203850000Y-117948065D01*
X203275000Y-117948065D01*
X203275000Y-112975788D01*
X203277540Y-112950000D01*
X203267403Y-112847082D01*
X203237383Y-112748119D01*
X203188633Y-112656914D01*
X203123027Y-112576973D01*
X203102996Y-112560534D01*
X199025000Y-108482539D01*
X199025000Y-104767221D01*
X203101100Y-104767221D01*
X203101100Y-105239979D01*
X203193330Y-105703654D01*
X203374247Y-106140426D01*
X203636898Y-106533511D01*
X203971189Y-106867802D01*
X204364274Y-107130453D01*
X204801046Y-107311370D01*
X205264721Y-107403600D01*
X205737479Y-107403600D01*
X206201154Y-107311370D01*
X206637926Y-107130453D01*
X207031011Y-106867802D01*
X207365302Y-106533511D01*
X207627953Y-106140426D01*
X207808870Y-105703654D01*
X207901100Y-105239979D01*
X207901100Y-104767221D01*
X207808870Y-104303546D01*
X207627953Y-103866774D01*
X207365302Y-103473689D01*
X207031011Y-103139398D01*
X206637926Y-102876747D01*
X206201154Y-102695830D01*
X205737479Y-102603600D01*
X205264721Y-102603600D01*
X204801046Y-102695830D01*
X204364274Y-102876747D01*
X203971189Y-103139398D01*
X203636898Y-103473689D01*
X203374247Y-103866774D01*
X203193330Y-104303546D01*
X203101100Y-104767221D01*
X199025000Y-104767221D01*
X199025000Y-101564950D01*
X199043726Y-101546224D01*
X199120332Y-101431574D01*
X199173099Y-101304182D01*
X199200000Y-101168944D01*
X199200000Y-101031056D01*
X199173099Y-100895818D01*
X199120332Y-100768426D01*
X199043726Y-100653776D01*
X198946224Y-100556274D01*
X198831574Y-100479668D01*
X198704182Y-100426901D01*
X198568944Y-100400000D01*
X198431056Y-100400000D01*
X198295818Y-100426901D01*
X198168426Y-100479668D01*
X198053776Y-100556274D01*
X197956274Y-100653776D01*
X197879668Y-100768426D01*
X197826901Y-100895818D01*
X197800000Y-101031056D01*
X191173518Y-101031056D01*
X186789471Y-96647010D01*
X186773027Y-96626973D01*
X186693086Y-96561367D01*
X186601881Y-96512617D01*
X186502918Y-96482597D01*
X186425788Y-96475000D01*
X186425780Y-96475000D01*
X186400000Y-96472461D01*
X186374220Y-96475000D01*
X120975788Y-96475000D01*
X120950000Y-96472460D01*
X120924212Y-96475000D01*
X120847082Y-96482597D01*
X120748119Y-96512617D01*
X120656914Y-96561367D01*
X120626093Y-96586661D01*
X120597003Y-96610534D01*
X120596999Y-96610538D01*
X120576973Y-96626973D01*
X120560538Y-96646999D01*
X115549177Y-101658361D01*
X115491832Y-101601016D01*
X115301513Y-101473849D01*
X115090043Y-101386255D01*
X114865547Y-101341600D01*
X114636653Y-101341600D01*
X114412157Y-101386255D01*
X114200687Y-101473849D01*
X114010368Y-101601016D01*
X113848516Y-101762868D01*
X113721349Y-101953187D01*
X113633755Y-102164657D01*
X113589100Y-102389153D01*
X113589100Y-102618047D01*
X113633755Y-102842543D01*
X113721349Y-103054013D01*
X113848516Y-103244332D01*
X114010368Y-103406184D01*
X114030923Y-103419918D01*
X113995818Y-103426901D01*
X113868426Y-103479668D01*
X113753776Y-103556274D01*
X113656274Y-103653776D01*
X113579668Y-103768426D01*
X113526901Y-103895818D01*
X113500000Y-104031056D01*
X113500000Y-104057537D01*
X111947010Y-105610529D01*
X111926973Y-105626973D01*
X111861367Y-105706914D01*
X111812617Y-105798120D01*
X111782597Y-105897083D01*
X111775000Y-105974213D01*
X111775000Y-105974220D01*
X111772461Y-106000000D01*
X111775000Y-106025780D01*
X111775000Y-106443067D01*
X111700687Y-106473849D01*
X111510368Y-106601016D01*
X111348516Y-106762868D01*
X111221349Y-106953187D01*
X111133755Y-107164657D01*
X111089100Y-107389153D01*
X111089100Y-107618047D01*
X111133755Y-107842543D01*
X111221349Y-108054013D01*
X111348516Y-108244332D01*
X111404184Y-108300000D01*
X110598016Y-108300000D01*
X110653684Y-108244332D01*
X110780851Y-108054013D01*
X110868445Y-107842543D01*
X110913100Y-107618047D01*
X110913100Y-107389153D01*
X110868445Y-107164657D01*
X110780851Y-106953187D01*
X110653684Y-106762868D01*
X110491832Y-106601016D01*
X110301513Y-106473849D01*
X110090043Y-106386255D01*
X109865547Y-106341600D01*
X109636653Y-106341600D01*
X109412157Y-106386255D01*
X109200687Y-106473849D01*
X109010368Y-106601016D01*
X108848516Y-106762868D01*
X108721349Y-106953187D01*
X108633755Y-107164657D01*
X108589100Y-107389153D01*
X108589100Y-107618047D01*
X108633755Y-107842543D01*
X108721349Y-108054013D01*
X108848516Y-108244332D01*
X108904184Y-108300000D01*
X108098016Y-108300000D01*
X108153684Y-108244332D01*
X108280851Y-108054013D01*
X108368445Y-107842543D01*
X108413100Y-107618047D01*
X108413100Y-107389153D01*
X108368445Y-107164657D01*
X108280851Y-106953187D01*
X108153684Y-106762868D01*
X107991832Y-106601016D01*
X107801513Y-106473849D01*
X107590043Y-106386255D01*
X107365547Y-106341600D01*
X107136653Y-106341600D01*
X106912157Y-106386255D01*
X106700687Y-106473849D01*
X106510368Y-106601016D01*
X106348516Y-106762868D01*
X106221349Y-106953187D01*
X106133755Y-107164657D01*
X106124854Y-107209407D01*
X106050790Y-106965251D01*
X105920790Y-106722038D01*
X105745838Y-106508861D01*
X105532661Y-106333910D01*
X105289448Y-106203910D01*
X105025547Y-106123857D01*
X104751100Y-106096826D01*
X104476652Y-106123857D01*
X104212751Y-106203910D01*
X103969538Y-106333910D01*
X103756361Y-106508862D01*
X103581410Y-106722039D01*
X103451410Y-106965252D01*
X103371357Y-107229153D01*
X103351100Y-107434824D01*
X103351100Y-108512461D01*
X103344327Y-108581230D01*
X103351100Y-108649999D01*
X103351100Y-108650007D01*
X103371357Y-108855678D01*
X103451410Y-109119579D01*
X103581410Y-109362792D01*
X103756362Y-109575969D01*
X103809781Y-109619809D01*
X104831290Y-110641319D01*
X104875131Y-110694739D01*
X105088308Y-110869690D01*
X105166812Y-110911651D01*
X105331520Y-110999690D01*
X105416780Y-111025553D01*
X105595422Y-111079743D01*
X105801093Y-111100000D01*
X105801101Y-111100000D01*
X105869870Y-111106773D01*
X105938639Y-111100000D01*
X113420102Y-111100000D01*
X123961420Y-121641319D01*
X124005261Y-121694739D01*
X124058681Y-121738580D01*
X124058683Y-121738582D01*
X124100391Y-121772811D01*
X124218438Y-121869690D01*
X124461651Y-121999690D01*
X124472295Y-122002919D01*
X124375045Y-122067899D01*
X124207899Y-122235045D01*
X124076574Y-122431587D01*
X123986116Y-122649973D01*
X123940000Y-122881810D01*
X123940000Y-123118190D01*
X123986116Y-123350027D01*
X124076574Y-123568413D01*
X124207899Y-123764955D01*
X124375045Y-123932101D01*
X124571587Y-124063426D01*
X124789973Y-124153884D01*
X125021810Y-124200000D01*
X125258190Y-124200000D01*
X125490027Y-124153884D01*
X125708413Y-124063426D01*
X125904955Y-123932101D01*
X126072101Y-123764955D01*
X126203426Y-123568413D01*
X126293884Y-123350027D01*
X126340000Y-123118190D01*
X126340000Y-122881810D01*
X126293884Y-122649973D01*
X126203426Y-122431587D01*
X126072101Y-122235045D01*
X125937056Y-122100000D01*
X126882944Y-122100000D01*
X126747899Y-122235045D01*
X126616574Y-122431587D01*
X126526116Y-122649973D01*
X126480000Y-122881810D01*
X126480000Y-123118190D01*
X126526116Y-123350027D01*
X126616574Y-123568413D01*
X126747899Y-123764955D01*
X126915045Y-123932101D01*
X127111587Y-124063426D01*
X127329973Y-124153884D01*
X127561810Y-124200000D01*
X127798190Y-124200000D01*
X128030027Y-124153884D01*
X128248413Y-124063426D01*
X128444955Y-123932101D01*
X128612101Y-123764955D01*
X128743426Y-123568413D01*
X128833884Y-123350027D01*
X128880000Y-123118190D01*
X128880000Y-122881810D01*
X128833884Y-122649973D01*
X128743426Y-122431587D01*
X128612101Y-122235045D01*
X128477056Y-122100000D01*
X129422944Y-122100000D01*
X129287899Y-122235045D01*
X129156574Y-122431587D01*
X129066116Y-122649973D01*
X129020000Y-122881810D01*
X129020000Y-123118190D01*
X129066116Y-123350027D01*
X129156574Y-123568413D01*
X129287899Y-123764955D01*
X129455045Y-123932101D01*
X129651587Y-124063426D01*
X129869973Y-124153884D01*
X130101810Y-124200000D01*
X130338190Y-124200000D01*
X130570027Y-124153884D01*
X130788413Y-124063426D01*
X130984955Y-123932101D01*
X131152101Y-123764955D01*
X131283426Y-123568413D01*
X131373884Y-123350027D01*
X131420000Y-123118190D01*
X131420000Y-122881810D01*
X131373884Y-122649973D01*
X131283426Y-122431587D01*
X131152101Y-122235045D01*
X131017056Y-122100000D01*
X131962944Y-122100000D01*
X131827899Y-122235045D01*
X131696574Y-122431587D01*
X131606116Y-122649973D01*
X131560000Y-122881810D01*
X131560000Y-123118190D01*
X131606116Y-123350027D01*
X131696574Y-123568413D01*
X131827899Y-123764955D01*
X131995045Y-123932101D01*
X132191587Y-124063426D01*
X132409973Y-124153884D01*
X132641810Y-124200000D01*
X132878190Y-124200000D01*
X133110027Y-124153884D01*
X133328413Y-124063426D01*
X133524955Y-123932101D01*
X133692101Y-123764955D01*
X133823426Y-123568413D01*
X133913884Y-123350027D01*
X133960000Y-123118190D01*
X133960000Y-122881810D01*
X133913884Y-122649973D01*
X133823426Y-122431587D01*
X133692101Y-122235045D01*
X133557056Y-122100000D01*
X134112336Y-122100000D01*
X134105788Y-122121586D01*
X134098065Y-122200000D01*
X134098065Y-123800000D01*
X134105788Y-123878414D01*
X134128660Y-123953814D01*
X134165803Y-124023303D01*
X134215789Y-124084211D01*
X134276697Y-124134197D01*
X134346186Y-124171340D01*
X134421586Y-124194212D01*
X134500000Y-124201935D01*
X136100000Y-124201935D01*
X136178414Y-124194212D01*
X136253814Y-124171340D01*
X136323303Y-124134197D01*
X136362269Y-124102219D01*
X136403776Y-124143726D01*
X136518426Y-124220332D01*
X136645818Y-124273099D01*
X136695781Y-124283038D01*
X136600310Y-124461652D01*
X136520257Y-124725553D01*
X136500000Y-124931224D01*
X136500000Y-124931231D01*
X136493227Y-125000000D01*
X136500000Y-125068769D01*
X136500000Y-125681231D01*
X136493227Y-125750000D01*
X136500000Y-125818769D01*
X136500000Y-126331223D01*
X136493226Y-126400000D01*
X136520257Y-126674448D01*
X136600310Y-126938349D01*
X136698065Y-127121236D01*
X136698065Y-127200000D01*
X136705788Y-127278414D01*
X136728660Y-127353814D01*
X136765803Y-127423303D01*
X136815789Y-127484211D01*
X136876697Y-127534197D01*
X136946186Y-127571340D01*
X137021586Y-127594212D01*
X137100000Y-127601935D01*
X137122037Y-127601935D01*
X138511425Y-128991324D01*
X138555262Y-129044739D01*
X138608677Y-129088576D01*
X138700011Y-129179909D01*
X138700010Y-132418452D01*
X138687196Y-132407936D01*
X138574485Y-132347691D01*
X138452186Y-132310592D01*
X138325000Y-132298065D01*
X137075000Y-132298065D01*
X136947814Y-132310592D01*
X136825515Y-132347691D01*
X136712804Y-132407936D01*
X136614012Y-132489012D01*
X136532936Y-132587804D01*
X136472691Y-132700515D01*
X136435592Y-132822814D01*
X136423065Y-132950000D01*
X136423065Y-133875000D01*
X136435592Y-134002186D01*
X136472691Y-134124485D01*
X136532936Y-134237196D01*
X136614012Y-134335988D01*
X136712804Y-134417064D01*
X136825515Y-134477309D01*
X136947814Y-134514408D01*
X137075000Y-134526935D01*
X137107391Y-134526935D01*
X137079668Y-134568426D01*
X137026901Y-134695818D01*
X137000000Y-134831056D01*
X137000000Y-134968944D01*
X137026901Y-135104182D01*
X137079668Y-135231574D01*
X137107391Y-135273065D01*
X137075000Y-135273065D01*
X136947814Y-135285592D01*
X136825515Y-135322691D01*
X136712804Y-135382936D01*
X136614012Y-135464012D01*
X136532936Y-135562804D01*
X136472691Y-135675515D01*
X136435592Y-135797814D01*
X136423065Y-135925000D01*
X136423065Y-136850000D01*
X136435592Y-136977186D01*
X136472691Y-137099485D01*
X136532936Y-137212196D01*
X136614012Y-137310988D01*
X136686808Y-137370730D01*
X136370024Y-137687515D01*
X136363426Y-137671587D01*
X136232101Y-137475045D01*
X136064955Y-137307899D01*
X135868413Y-137176574D01*
X135650027Y-137086116D01*
X135418190Y-137040000D01*
X135181810Y-137040000D01*
X134949973Y-137086116D01*
X134731587Y-137176574D01*
X134535045Y-137307899D01*
X134367899Y-137475045D01*
X134236574Y-137671587D01*
X134146116Y-137889973D01*
X134100000Y-138121810D01*
X134100000Y-138358190D01*
X134146116Y-138590027D01*
X134236574Y-138808413D01*
X134367899Y-139004955D01*
X134535045Y-139172101D01*
X134731587Y-139303426D01*
X134844027Y-139350000D01*
X132178529Y-139350000D01*
X131620000Y-138791472D01*
X131620000Y-138171223D01*
X131599743Y-137965552D01*
X131519690Y-137701651D01*
X131389690Y-137458438D01*
X131214738Y-137245261D01*
X131001561Y-137070310D01*
X130758348Y-136940310D01*
X130494447Y-136860257D01*
X130220000Y-136833226D01*
X129945552Y-136860257D01*
X129681651Y-136940310D01*
X129438438Y-137070310D01*
X129372421Y-137124490D01*
X129333623Y-137051904D01*
X129268017Y-136971963D01*
X129247986Y-136955524D01*
X127939449Y-135646988D01*
X127923005Y-135626951D01*
X127843064Y-135561345D01*
X127751859Y-135512595D01*
X127652896Y-135482575D01*
X127575766Y-135474978D01*
X127575758Y-135474978D01*
X127549978Y-135472439D01*
X127524198Y-135474978D01*
X89725801Y-135474978D01*
X89700021Y-135472439D01*
X89674241Y-135474978D01*
X89674234Y-135474978D01*
X89597104Y-135482575D01*
X89498141Y-135512595D01*
X89406936Y-135561345D01*
X89326995Y-135626951D01*
X89310556Y-135646982D01*
X87947010Y-137010529D01*
X87926973Y-137026973D01*
X87861367Y-137106914D01*
X87812617Y-137198120D01*
X87783637Y-137293655D01*
X87608413Y-137176574D01*
X87390027Y-137086116D01*
X87158190Y-137040000D01*
X86921810Y-137040000D01*
X86689973Y-137086116D01*
X86471587Y-137176574D01*
X86275045Y-137307899D01*
X86107899Y-137475045D01*
X85976574Y-137671587D01*
X85975000Y-137675387D01*
X85975000Y-134315553D01*
X130328000Y-134315553D01*
X130328000Y-134544447D01*
X130372655Y-134768943D01*
X130460249Y-134980413D01*
X130587416Y-135170732D01*
X130749268Y-135332584D01*
X130939587Y-135459751D01*
X131151057Y-135547345D01*
X131375553Y-135592000D01*
X131604447Y-135592000D01*
X131828943Y-135547345D01*
X132040413Y-135459751D01*
X132230732Y-135332584D01*
X132392584Y-135170732D01*
X132519751Y-134980413D01*
X132607345Y-134768943D01*
X132652000Y-134544447D01*
X132652000Y-134315553D01*
X132607345Y-134091057D01*
X132519751Y-133879587D01*
X132392584Y-133689268D01*
X132230732Y-133527416D01*
X132040413Y-133400249D01*
X131828943Y-133312655D01*
X131604447Y-133268000D01*
X131375553Y-133268000D01*
X131151057Y-133312655D01*
X130939587Y-133400249D01*
X130749268Y-133527416D01*
X130587416Y-133689268D01*
X130460249Y-133879587D01*
X130372655Y-134091057D01*
X130328000Y-134315553D01*
X85975000Y-134315553D01*
X85975000Y-131775553D01*
X130328000Y-131775553D01*
X130328000Y-132004447D01*
X130372655Y-132228943D01*
X130460249Y-132440413D01*
X130587416Y-132630732D01*
X130749268Y-132792584D01*
X130939587Y-132919751D01*
X131151057Y-133007345D01*
X131375553Y-133052000D01*
X131604447Y-133052000D01*
X131828943Y-133007345D01*
X132040413Y-132919751D01*
X132230732Y-132792584D01*
X132392584Y-132630732D01*
X132519751Y-132440413D01*
X132607345Y-132228943D01*
X132652000Y-132004447D01*
X132652000Y-131775553D01*
X132607345Y-131551057D01*
X132519751Y-131339587D01*
X132392584Y-131149268D01*
X132230732Y-130987416D01*
X132040413Y-130860249D01*
X131828943Y-130772655D01*
X131604447Y-130728000D01*
X131375553Y-130728000D01*
X131151057Y-130772655D01*
X130939587Y-130860249D01*
X130749268Y-130987416D01*
X130587416Y-131149268D01*
X130460249Y-131339587D01*
X130372655Y-131551057D01*
X130328000Y-131775553D01*
X85975000Y-131775553D01*
X85975000Y-129485553D01*
X98038000Y-129485553D01*
X98038000Y-129714447D01*
X98082655Y-129938943D01*
X98170249Y-130150413D01*
X98297416Y-130340732D01*
X98459268Y-130502584D01*
X98649587Y-130629751D01*
X98861057Y-130717345D01*
X99085553Y-130762000D01*
X99314447Y-130762000D01*
X99538943Y-130717345D01*
X99750413Y-130629751D01*
X99940732Y-130502584D01*
X100102584Y-130340732D01*
X100229751Y-130150413D01*
X100317345Y-129938943D01*
X100362000Y-129714447D01*
X100362000Y-129485553D01*
X100538000Y-129485553D01*
X100538000Y-129714447D01*
X100582655Y-129938943D01*
X100670249Y-130150413D01*
X100797416Y-130340732D01*
X100959268Y-130502584D01*
X101149587Y-130629751D01*
X101361057Y-130717345D01*
X101585553Y-130762000D01*
X101814447Y-130762000D01*
X102038943Y-130717345D01*
X102250413Y-130629751D01*
X102440732Y-130502584D01*
X102602584Y-130340732D01*
X102729751Y-130150413D01*
X102817345Y-129938943D01*
X102862000Y-129714447D01*
X102862000Y-129485553D01*
X102817345Y-129261057D01*
X102806781Y-129235553D01*
X130328000Y-129235553D01*
X130328000Y-129464447D01*
X130372655Y-129688943D01*
X130460249Y-129900413D01*
X130587416Y-130090732D01*
X130749268Y-130252584D01*
X130939587Y-130379751D01*
X131151057Y-130467345D01*
X131375553Y-130512000D01*
X131604447Y-130512000D01*
X131828943Y-130467345D01*
X132040413Y-130379751D01*
X132230732Y-130252584D01*
X132392584Y-130090732D01*
X132519751Y-129900413D01*
X132607345Y-129688943D01*
X132652000Y-129464447D01*
X132652000Y-129235553D01*
X132607345Y-129011057D01*
X132519751Y-128799587D01*
X132392584Y-128609268D01*
X132230732Y-128447416D01*
X132040413Y-128320249D01*
X131828943Y-128232655D01*
X131604447Y-128188000D01*
X131375553Y-128188000D01*
X131151057Y-128232655D01*
X130939587Y-128320249D01*
X130749268Y-128447416D01*
X130587416Y-128609268D01*
X130460249Y-128799587D01*
X130372655Y-129011057D01*
X130328000Y-129235553D01*
X102806781Y-129235553D01*
X102729751Y-129049587D01*
X102602584Y-128859268D01*
X102440732Y-128697416D01*
X102250413Y-128570249D01*
X102038943Y-128482655D01*
X101814447Y-128438000D01*
X101585553Y-128438000D01*
X101361057Y-128482655D01*
X101149587Y-128570249D01*
X100959268Y-128697416D01*
X100797416Y-128859268D01*
X100670249Y-129049587D01*
X100582655Y-129261057D01*
X100538000Y-129485553D01*
X100362000Y-129485553D01*
X100317345Y-129261057D01*
X100229751Y-129049587D01*
X100102584Y-128859268D01*
X99940732Y-128697416D01*
X99750413Y-128570249D01*
X99538943Y-128482655D01*
X99314447Y-128438000D01*
X99085553Y-128438000D01*
X98861057Y-128482655D01*
X98649587Y-128570249D01*
X98459268Y-128697416D01*
X98297416Y-128859268D01*
X98170249Y-129049587D01*
X98082655Y-129261057D01*
X98038000Y-129485553D01*
X85975000Y-129485553D01*
X85975000Y-126985553D01*
X100538000Y-126985553D01*
X100538000Y-127214447D01*
X100582655Y-127438943D01*
X100670249Y-127650413D01*
X100797416Y-127840732D01*
X100959268Y-128002584D01*
X101149587Y-128129751D01*
X101361057Y-128217345D01*
X101585553Y-128262000D01*
X101814447Y-128262000D01*
X102038943Y-128217345D01*
X102250413Y-128129751D01*
X102440732Y-128002584D01*
X102602584Y-127840732D01*
X102729751Y-127650413D01*
X102817345Y-127438943D01*
X102862000Y-127214447D01*
X102862000Y-126985553D01*
X102817345Y-126761057D01*
X102729751Y-126549587D01*
X102602584Y-126359268D01*
X102440732Y-126197416D01*
X102250413Y-126070249D01*
X102038943Y-125982655D01*
X101814447Y-125938000D01*
X101585553Y-125938000D01*
X101361057Y-125982655D01*
X101149587Y-126070249D01*
X100959268Y-126197416D01*
X100797416Y-126359268D01*
X100670249Y-126549587D01*
X100582655Y-126761057D01*
X100538000Y-126985553D01*
X85975000Y-126985553D01*
X85975000Y-122881810D01*
X90920000Y-122881810D01*
X90920000Y-123118190D01*
X90966116Y-123350027D01*
X91056574Y-123568413D01*
X91187899Y-123764955D01*
X91355045Y-123932101D01*
X91551587Y-124063426D01*
X91769973Y-124153884D01*
X92001810Y-124200000D01*
X92238190Y-124200000D01*
X92470027Y-124153884D01*
X92688413Y-124063426D01*
X92884955Y-123932101D01*
X93052101Y-123764955D01*
X93183426Y-123568413D01*
X93273884Y-123350027D01*
X93320000Y-123118190D01*
X93320000Y-122881810D01*
X93460000Y-122881810D01*
X93460000Y-123118190D01*
X93506116Y-123350027D01*
X93596574Y-123568413D01*
X93727899Y-123764955D01*
X93895045Y-123932101D01*
X94091587Y-124063426D01*
X94309973Y-124153884D01*
X94541810Y-124200000D01*
X94778190Y-124200000D01*
X95010027Y-124153884D01*
X95228413Y-124063426D01*
X95424955Y-123932101D01*
X95592101Y-123764955D01*
X95723426Y-123568413D01*
X95813884Y-123350027D01*
X95860000Y-123118190D01*
X95860000Y-122881810D01*
X96000000Y-122881810D01*
X96000000Y-123118190D01*
X96046116Y-123350027D01*
X96136574Y-123568413D01*
X96267899Y-123764955D01*
X96435045Y-123932101D01*
X96631587Y-124063426D01*
X96849973Y-124153884D01*
X97081810Y-124200000D01*
X97318190Y-124200000D01*
X97550027Y-124153884D01*
X97768413Y-124063426D01*
X97964955Y-123932101D01*
X98132101Y-123764955D01*
X98263426Y-123568413D01*
X98353884Y-123350027D01*
X98400000Y-123118190D01*
X98400000Y-122881810D01*
X98540000Y-122881810D01*
X98540000Y-123118190D01*
X98586116Y-123350027D01*
X98676574Y-123568413D01*
X98807899Y-123764955D01*
X98975045Y-123932101D01*
X99171587Y-124063426D01*
X99389973Y-124153884D01*
X99621810Y-124200000D01*
X99858190Y-124200000D01*
X100090027Y-124153884D01*
X100308413Y-124063426D01*
X100504955Y-123932101D01*
X100672101Y-123764955D01*
X100803426Y-123568413D01*
X100893884Y-123350027D01*
X100940000Y-123118190D01*
X100940000Y-122881810D01*
X101080000Y-122881810D01*
X101080000Y-123118190D01*
X101126116Y-123350027D01*
X101216574Y-123568413D01*
X101347899Y-123764955D01*
X101515045Y-123932101D01*
X101711587Y-124063426D01*
X101929973Y-124153884D01*
X102161810Y-124200000D01*
X102398190Y-124200000D01*
X102630027Y-124153884D01*
X102848413Y-124063426D01*
X103044955Y-123932101D01*
X103212101Y-123764955D01*
X103343426Y-123568413D01*
X103433884Y-123350027D01*
X103480000Y-123118190D01*
X103480000Y-122881810D01*
X103620000Y-122881810D01*
X103620000Y-123118190D01*
X103666116Y-123350027D01*
X103756574Y-123568413D01*
X103887899Y-123764955D01*
X104055045Y-123932101D01*
X104251587Y-124063426D01*
X104469973Y-124153884D01*
X104701810Y-124200000D01*
X104938190Y-124200000D01*
X105170027Y-124153884D01*
X105388413Y-124063426D01*
X105584955Y-123932101D01*
X105752101Y-123764955D01*
X105883426Y-123568413D01*
X105973884Y-123350027D01*
X106020000Y-123118190D01*
X106020000Y-122881810D01*
X106160000Y-122881810D01*
X106160000Y-123118190D01*
X106206116Y-123350027D01*
X106296574Y-123568413D01*
X106427899Y-123764955D01*
X106595045Y-123932101D01*
X106791587Y-124063426D01*
X107009973Y-124153884D01*
X107241810Y-124200000D01*
X107478190Y-124200000D01*
X107710027Y-124153884D01*
X107928413Y-124063426D01*
X108124955Y-123932101D01*
X108292101Y-123764955D01*
X108423426Y-123568413D01*
X108513884Y-123350027D01*
X108560000Y-123118190D01*
X108560000Y-122881810D01*
X108700000Y-122881810D01*
X108700000Y-123118190D01*
X108746116Y-123350027D01*
X108836574Y-123568413D01*
X108967899Y-123764955D01*
X109135045Y-123932101D01*
X109331587Y-124063426D01*
X109549973Y-124153884D01*
X109781810Y-124200000D01*
X110018190Y-124200000D01*
X110250027Y-124153884D01*
X110468413Y-124063426D01*
X110664955Y-123932101D01*
X110832101Y-123764955D01*
X110963426Y-123568413D01*
X111053884Y-123350027D01*
X111100000Y-123118190D01*
X111100000Y-122881810D01*
X111240000Y-122881810D01*
X111240000Y-123118190D01*
X111286116Y-123350027D01*
X111376574Y-123568413D01*
X111507899Y-123764955D01*
X111675045Y-123932101D01*
X111871587Y-124063426D01*
X112089973Y-124153884D01*
X112321810Y-124200000D01*
X112558190Y-124200000D01*
X112790027Y-124153884D01*
X113008413Y-124063426D01*
X113204955Y-123932101D01*
X113372101Y-123764955D01*
X113503426Y-123568413D01*
X113593884Y-123350027D01*
X113640000Y-123118190D01*
X113640000Y-122881810D01*
X113780000Y-122881810D01*
X113780000Y-123118190D01*
X113826116Y-123350027D01*
X113916574Y-123568413D01*
X114047899Y-123764955D01*
X114215045Y-123932101D01*
X114411587Y-124063426D01*
X114629973Y-124153884D01*
X114861810Y-124200000D01*
X115098190Y-124200000D01*
X115330027Y-124153884D01*
X115548413Y-124063426D01*
X115744955Y-123932101D01*
X115912101Y-123764955D01*
X116043426Y-123568413D01*
X116133884Y-123350027D01*
X116180000Y-123118190D01*
X116180000Y-122881810D01*
X116320000Y-122881810D01*
X116320000Y-123118190D01*
X116366116Y-123350027D01*
X116456574Y-123568413D01*
X116587899Y-123764955D01*
X116755045Y-123932101D01*
X116951587Y-124063426D01*
X117169973Y-124153884D01*
X117401810Y-124200000D01*
X117638190Y-124200000D01*
X117870027Y-124153884D01*
X118088413Y-124063426D01*
X118284955Y-123932101D01*
X118452101Y-123764955D01*
X118583426Y-123568413D01*
X118673884Y-123350027D01*
X118720000Y-123118190D01*
X118720000Y-122881810D01*
X118860000Y-122881810D01*
X118860000Y-123118190D01*
X118906116Y-123350027D01*
X118996574Y-123568413D01*
X119127899Y-123764955D01*
X119295045Y-123932101D01*
X119491587Y-124063426D01*
X119709973Y-124153884D01*
X119941810Y-124200000D01*
X120178190Y-124200000D01*
X120410027Y-124153884D01*
X120628413Y-124063426D01*
X120824955Y-123932101D01*
X120992101Y-123764955D01*
X121123426Y-123568413D01*
X121213884Y-123350027D01*
X121260000Y-123118190D01*
X121260000Y-122881810D01*
X121400000Y-122881810D01*
X121400000Y-123118190D01*
X121446116Y-123350027D01*
X121536574Y-123568413D01*
X121667899Y-123764955D01*
X121835045Y-123932101D01*
X122031587Y-124063426D01*
X122249973Y-124153884D01*
X122481810Y-124200000D01*
X122718190Y-124200000D01*
X122950027Y-124153884D01*
X123168413Y-124063426D01*
X123364955Y-123932101D01*
X123532101Y-123764955D01*
X123663426Y-123568413D01*
X123753884Y-123350027D01*
X123800000Y-123118190D01*
X123800000Y-122881810D01*
X123753884Y-122649973D01*
X123663426Y-122431587D01*
X123532101Y-122235045D01*
X123364955Y-122067899D01*
X123168413Y-121936574D01*
X122950027Y-121846116D01*
X122718190Y-121800000D01*
X122481810Y-121800000D01*
X122249973Y-121846116D01*
X122031587Y-121936574D01*
X121835045Y-122067899D01*
X121667899Y-122235045D01*
X121536574Y-122431587D01*
X121446116Y-122649973D01*
X121400000Y-122881810D01*
X121260000Y-122881810D01*
X121213884Y-122649973D01*
X121123426Y-122431587D01*
X120992101Y-122235045D01*
X120824955Y-122067899D01*
X120628413Y-121936574D01*
X120410027Y-121846116D01*
X120178190Y-121800000D01*
X119941810Y-121800000D01*
X119709973Y-121846116D01*
X119491587Y-121936574D01*
X119295045Y-122067899D01*
X119127899Y-122235045D01*
X118996574Y-122431587D01*
X118906116Y-122649973D01*
X118860000Y-122881810D01*
X118720000Y-122881810D01*
X118673884Y-122649973D01*
X118583426Y-122431587D01*
X118452101Y-122235045D01*
X118284955Y-122067899D01*
X118088413Y-121936574D01*
X117870027Y-121846116D01*
X117638190Y-121800000D01*
X117401810Y-121800000D01*
X117169973Y-121846116D01*
X116951587Y-121936574D01*
X116755045Y-122067899D01*
X116587899Y-122235045D01*
X116456574Y-122431587D01*
X116366116Y-122649973D01*
X116320000Y-122881810D01*
X116180000Y-122881810D01*
X116133884Y-122649973D01*
X116043426Y-122431587D01*
X115912101Y-122235045D01*
X115744955Y-122067899D01*
X115548413Y-121936574D01*
X115330027Y-121846116D01*
X115098190Y-121800000D01*
X114861810Y-121800000D01*
X114629973Y-121846116D01*
X114411587Y-121936574D01*
X114215045Y-122067899D01*
X114047899Y-122235045D01*
X113916574Y-122431587D01*
X113826116Y-122649973D01*
X113780000Y-122881810D01*
X113640000Y-122881810D01*
X113593884Y-122649973D01*
X113503426Y-122431587D01*
X113372101Y-122235045D01*
X113204955Y-122067899D01*
X113008413Y-121936574D01*
X112790027Y-121846116D01*
X112558190Y-121800000D01*
X112321810Y-121800000D01*
X112089973Y-121846116D01*
X111871587Y-121936574D01*
X111675045Y-122067899D01*
X111507899Y-122235045D01*
X111376574Y-122431587D01*
X111286116Y-122649973D01*
X111240000Y-122881810D01*
X111100000Y-122881810D01*
X111053884Y-122649973D01*
X110963426Y-122431587D01*
X110832101Y-122235045D01*
X110664955Y-122067899D01*
X110468413Y-121936574D01*
X110250027Y-121846116D01*
X110018190Y-121800000D01*
X109781810Y-121800000D01*
X109549973Y-121846116D01*
X109331587Y-121936574D01*
X109135045Y-122067899D01*
X108967899Y-122235045D01*
X108836574Y-122431587D01*
X108746116Y-122649973D01*
X108700000Y-122881810D01*
X108560000Y-122881810D01*
X108513884Y-122649973D01*
X108423426Y-122431587D01*
X108292101Y-122235045D01*
X108124955Y-122067899D01*
X107928413Y-121936574D01*
X107710027Y-121846116D01*
X107478190Y-121800000D01*
X107241810Y-121800000D01*
X107009973Y-121846116D01*
X106791587Y-121936574D01*
X106595045Y-122067899D01*
X106427899Y-122235045D01*
X106296574Y-122431587D01*
X106206116Y-122649973D01*
X106160000Y-122881810D01*
X106020000Y-122881810D01*
X105973884Y-122649973D01*
X105883426Y-122431587D01*
X105752101Y-122235045D01*
X105584955Y-122067899D01*
X105388413Y-121936574D01*
X105170027Y-121846116D01*
X104938190Y-121800000D01*
X104701810Y-121800000D01*
X104469973Y-121846116D01*
X104251587Y-121936574D01*
X104055045Y-122067899D01*
X103887899Y-122235045D01*
X103756574Y-122431587D01*
X103666116Y-122649973D01*
X103620000Y-122881810D01*
X103480000Y-122881810D01*
X103433884Y-122649973D01*
X103343426Y-122431587D01*
X103212101Y-122235045D01*
X103044955Y-122067899D01*
X102848413Y-121936574D01*
X102630027Y-121846116D01*
X102398190Y-121800000D01*
X102161810Y-121800000D01*
X101929973Y-121846116D01*
X101711587Y-121936574D01*
X101515045Y-122067899D01*
X101347899Y-122235045D01*
X101216574Y-122431587D01*
X101126116Y-122649973D01*
X101080000Y-122881810D01*
X100940000Y-122881810D01*
X100893884Y-122649973D01*
X100803426Y-122431587D01*
X100672101Y-122235045D01*
X100504955Y-122067899D01*
X100308413Y-121936574D01*
X100090027Y-121846116D01*
X99858190Y-121800000D01*
X99621810Y-121800000D01*
X99389973Y-121846116D01*
X99171587Y-121936574D01*
X98975045Y-122067899D01*
X98807899Y-122235045D01*
X98676574Y-122431587D01*
X98586116Y-122649973D01*
X98540000Y-122881810D01*
X98400000Y-122881810D01*
X98353884Y-122649973D01*
X98263426Y-122431587D01*
X98132101Y-122235045D01*
X97964955Y-122067899D01*
X97768413Y-121936574D01*
X97550027Y-121846116D01*
X97318190Y-121800000D01*
X97081810Y-121800000D01*
X96849973Y-121846116D01*
X96631587Y-121936574D01*
X96435045Y-122067899D01*
X96267899Y-122235045D01*
X96136574Y-122431587D01*
X96046116Y-122649973D01*
X96000000Y-122881810D01*
X95860000Y-122881810D01*
X95813884Y-122649973D01*
X95723426Y-122431587D01*
X95592101Y-122235045D01*
X95424955Y-122067899D01*
X95228413Y-121936574D01*
X95010027Y-121846116D01*
X94778190Y-121800000D01*
X94541810Y-121800000D01*
X94309973Y-121846116D01*
X94091587Y-121936574D01*
X93895045Y-122067899D01*
X93727899Y-122235045D01*
X93596574Y-122431587D01*
X93506116Y-122649973D01*
X93460000Y-122881810D01*
X93320000Y-122881810D01*
X93273884Y-122649973D01*
X93183426Y-122431587D01*
X93052101Y-122235045D01*
X92884955Y-122067899D01*
X92688413Y-121936574D01*
X92470027Y-121846116D01*
X92238190Y-121800000D01*
X92001810Y-121800000D01*
X91769973Y-121846116D01*
X91551587Y-121936574D01*
X91355045Y-122067899D01*
X91187899Y-122235045D01*
X91056574Y-122431587D01*
X90966116Y-122649973D01*
X90920000Y-122881810D01*
X85975000Y-122881810D01*
X85975000Y-104767221D01*
X89101100Y-104767221D01*
X89101100Y-105239979D01*
X89193330Y-105703654D01*
X89374247Y-106140426D01*
X89636898Y-106533511D01*
X89971189Y-106867802D01*
X90364274Y-107130453D01*
X90801046Y-107311370D01*
X91264721Y-107403600D01*
X91737479Y-107403600D01*
X92201154Y-107311370D01*
X92637926Y-107130453D01*
X93031011Y-106867802D01*
X93365302Y-106533511D01*
X93627953Y-106140426D01*
X93808870Y-105703654D01*
X93901100Y-105239979D01*
X93901100Y-104767221D01*
X93808870Y-104303546D01*
X93627953Y-103866774D01*
X93365302Y-103473689D01*
X93031011Y-103139398D01*
X92637926Y-102876747D01*
X92201154Y-102695830D01*
X91737479Y-102603600D01*
X91264721Y-102603600D01*
X90801046Y-102695830D01*
X90364274Y-102876747D01*
X89971189Y-103139398D01*
X89636898Y-103473689D01*
X89374247Y-103866774D01*
X89193330Y-104303546D01*
X89101100Y-104767221D01*
X85975000Y-104767221D01*
X85975000Y-102389153D01*
X106089100Y-102389153D01*
X106089100Y-102618047D01*
X106133755Y-102842543D01*
X106221349Y-103054013D01*
X106348516Y-103244332D01*
X106510368Y-103406184D01*
X106700687Y-103533351D01*
X106912157Y-103620945D01*
X107136653Y-103665600D01*
X107365547Y-103665600D01*
X107590043Y-103620945D01*
X107801513Y-103533351D01*
X107991832Y-103406184D01*
X108153684Y-103244332D01*
X108280851Y-103054013D01*
X108368445Y-102842543D01*
X108413100Y-102618047D01*
X108413100Y-102389153D01*
X108589100Y-102389153D01*
X108589100Y-102618047D01*
X108633755Y-102842543D01*
X108721349Y-103054013D01*
X108848516Y-103244332D01*
X109010368Y-103406184D01*
X109200687Y-103533351D01*
X109412157Y-103620945D01*
X109636653Y-103665600D01*
X109865547Y-103665600D01*
X110090043Y-103620945D01*
X110301513Y-103533351D01*
X110491832Y-103406184D01*
X110653684Y-103244332D01*
X110780851Y-103054013D01*
X110868445Y-102842543D01*
X110913100Y-102618047D01*
X110913100Y-102389153D01*
X111089100Y-102389153D01*
X111089100Y-102618047D01*
X111133755Y-102842543D01*
X111221349Y-103054013D01*
X111348516Y-103244332D01*
X111510368Y-103406184D01*
X111700687Y-103533351D01*
X111912157Y-103620945D01*
X112136653Y-103665600D01*
X112365547Y-103665600D01*
X112590043Y-103620945D01*
X112801513Y-103533351D01*
X112991832Y-103406184D01*
X113153684Y-103244332D01*
X113280851Y-103054013D01*
X113368445Y-102842543D01*
X113413100Y-102618047D01*
X113413100Y-102389153D01*
X113368445Y-102164657D01*
X113280851Y-101953187D01*
X113153684Y-101762868D01*
X112991832Y-101601016D01*
X112801513Y-101473849D01*
X112590043Y-101386255D01*
X112365547Y-101341600D01*
X112136653Y-101341600D01*
X111912157Y-101386255D01*
X111700687Y-101473849D01*
X111510368Y-101601016D01*
X111348516Y-101762868D01*
X111221349Y-101953187D01*
X111133755Y-102164657D01*
X111089100Y-102389153D01*
X110913100Y-102389153D01*
X110868445Y-102164657D01*
X110780851Y-101953187D01*
X110653684Y-101762868D01*
X110491832Y-101601016D01*
X110301513Y-101473849D01*
X110090043Y-101386255D01*
X109865547Y-101341600D01*
X109636653Y-101341600D01*
X109412157Y-101386255D01*
X109200687Y-101473849D01*
X109010368Y-101601016D01*
X108848516Y-101762868D01*
X108721349Y-101953187D01*
X108633755Y-102164657D01*
X108589100Y-102389153D01*
X108413100Y-102389153D01*
X108368445Y-102164657D01*
X108280851Y-101953187D01*
X108153684Y-101762868D01*
X107991832Y-101601016D01*
X107801513Y-101473849D01*
X107590043Y-101386255D01*
X107365547Y-101341600D01*
X107136653Y-101341600D01*
X106912157Y-101386255D01*
X106700687Y-101473849D01*
X106510368Y-101601016D01*
X106348516Y-101762868D01*
X106221349Y-101953187D01*
X106133755Y-102164657D01*
X106089100Y-102389153D01*
X85975000Y-102389153D01*
X85975000Y-95763621D01*
X89100000Y-95763621D01*
X89100000Y-96236379D01*
X89192230Y-96700054D01*
X89373147Y-97136826D01*
X89635798Y-97529911D01*
X89970089Y-97864202D01*
X90363174Y-98126853D01*
X90799946Y-98307770D01*
X91263621Y-98400000D01*
X91736379Y-98400000D01*
X92200054Y-98307770D01*
X92636826Y-98126853D01*
X93029911Y-97864202D01*
X93364202Y-97529911D01*
X93626853Y-97136826D01*
X93807770Y-96700054D01*
X93900000Y-96236379D01*
X93900000Y-95763621D01*
X203100000Y-95763621D01*
X203100000Y-96236379D01*
X203192230Y-96700054D01*
X203373147Y-97136826D01*
X203635798Y-97529911D01*
X203970089Y-97864202D01*
X204363174Y-98126853D01*
X204799946Y-98307770D01*
X205263621Y-98400000D01*
X205736379Y-98400000D01*
X206200054Y-98307770D01*
X206636826Y-98126853D01*
X207029911Y-97864202D01*
X207364202Y-97529911D01*
X207626853Y-97136826D01*
X207807770Y-96700054D01*
X207900000Y-96236379D01*
X207900000Y-95763621D01*
X207807770Y-95299946D01*
X207626853Y-94863174D01*
X207364202Y-94470089D01*
X207029911Y-94135798D01*
X206636826Y-93873147D01*
X206200054Y-93692230D01*
X205736379Y-93600000D01*
X205263621Y-93600000D01*
X204799946Y-93692230D01*
X204363174Y-93873147D01*
X203970089Y-94135798D01*
X203635798Y-94470089D01*
X203373147Y-94863174D01*
X203192230Y-95299946D01*
X203100000Y-95763621D01*
X93900000Y-95763621D01*
X93807770Y-95299946D01*
X93626853Y-94863174D01*
X93364202Y-94470089D01*
X93029911Y-94135798D01*
X92636826Y-93873147D01*
X92200054Y-93692230D01*
X91736379Y-93600000D01*
X91263621Y-93600000D01*
X90799946Y-93692230D01*
X90363174Y-93873147D01*
X89970089Y-94135798D01*
X89635798Y-94470089D01*
X89373147Y-94863174D01*
X89192230Y-95299946D01*
X89100000Y-95763621D01*
X85975000Y-95763621D01*
X85975000Y-91975000D01*
X211025001Y-91975000D01*
X211025001Y-118231685D01*
G37*
X211025001Y-118231685D02*
X210990732Y-118197416D01*
X210800413Y-118070249D01*
X210588943Y-117982655D01*
X210364447Y-117938000D01*
X210135553Y-117938000D01*
X209911057Y-117982655D01*
X209699587Y-118070249D01*
X209509268Y-118197416D01*
X209347416Y-118359268D01*
X209220249Y-118549587D01*
X209132655Y-118761057D01*
X209088000Y-118985553D01*
X209088000Y-119214447D01*
X209132655Y-119438943D01*
X209220249Y-119650413D01*
X209347416Y-119840732D01*
X209509268Y-120002584D01*
X209699587Y-120129751D01*
X209911057Y-120217345D01*
X210135553Y-120262000D01*
X210364447Y-120262000D01*
X210588943Y-120217345D01*
X210800413Y-120129751D01*
X210990732Y-120002584D01*
X211025001Y-119968315D01*
X211025000Y-128231684D01*
X210990732Y-128197416D01*
X210800413Y-128070249D01*
X210588943Y-127982655D01*
X210364447Y-127938000D01*
X210135553Y-127938000D01*
X209911057Y-127982655D01*
X209699587Y-128070249D01*
X209509268Y-128197416D01*
X209347416Y-128359268D01*
X209220249Y-128549587D01*
X209132655Y-128761057D01*
X209088000Y-128985553D01*
X209088000Y-129214447D01*
X209132655Y-129438943D01*
X209220249Y-129650413D01*
X209347416Y-129840732D01*
X209509268Y-130002584D01*
X209699587Y-130129751D01*
X209911057Y-130217345D01*
X210135553Y-130262000D01*
X210364447Y-130262000D01*
X210588943Y-130217345D01*
X210800413Y-130129751D01*
X210990732Y-130002584D01*
X211025000Y-129968316D01*
X211025000Y-150225000D01*
X85975000Y-150225000D01*
X85975000Y-145963621D01*
X89100000Y-145963621D01*
X89100000Y-146436379D01*
X89192230Y-146900054D01*
X89373147Y-147336826D01*
X89635798Y-147729911D01*
X89970089Y-148064202D01*
X90363174Y-148326853D01*
X90799946Y-148507770D01*
X91263621Y-148600000D01*
X91736379Y-148600000D01*
X92200054Y-148507770D01*
X92636826Y-148326853D01*
X93029911Y-148064202D01*
X93364202Y-147729911D01*
X93626853Y-147336826D01*
X93807770Y-146900054D01*
X93900000Y-146436379D01*
X93900000Y-145963621D01*
X203100000Y-145963621D01*
X203100000Y-146436379D01*
X203192230Y-146900054D01*
X203373147Y-147336826D01*
X203635798Y-147729911D01*
X203970089Y-148064202D01*
X204363174Y-148326853D01*
X204799946Y-148507770D01*
X205263621Y-148600000D01*
X205736379Y-148600000D01*
X206200054Y-148507770D01*
X206636826Y-148326853D01*
X207029911Y-148064202D01*
X207364202Y-147729911D01*
X207626853Y-147336826D01*
X207807770Y-146900054D01*
X207900000Y-146436379D01*
X207900000Y-145963621D01*
X207807770Y-145499946D01*
X207626853Y-145063174D01*
X207364202Y-144670089D01*
X207029911Y-144335798D01*
X206636826Y-144073147D01*
X206200054Y-143892230D01*
X205736379Y-143800000D01*
X205263621Y-143800000D01*
X204799946Y-143892230D01*
X204363174Y-144073147D01*
X203970089Y-144335798D01*
X203635798Y-144670089D01*
X203373147Y-145063174D01*
X203192230Y-145499946D01*
X203100000Y-145963621D01*
X93900000Y-145963621D01*
X93807770Y-145499946D01*
X93626853Y-145063174D01*
X93364202Y-144670089D01*
X93029911Y-144335798D01*
X92636826Y-144073147D01*
X92200054Y-143892230D01*
X91736379Y-143800000D01*
X91263621Y-143800000D01*
X90799946Y-143892230D01*
X90363174Y-144073147D01*
X89970089Y-144335798D01*
X89635798Y-144670089D01*
X89373147Y-145063174D01*
X89192230Y-145499946D01*
X89100000Y-145963621D01*
X85975000Y-145963621D01*
X85975000Y-138804613D01*
X85976574Y-138808413D01*
X86107899Y-139004955D01*
X86275045Y-139172101D01*
X86471587Y-139303426D01*
X86689973Y-139393884D01*
X86921810Y-139440000D01*
X87158190Y-139440000D01*
X87390027Y-139393884D01*
X87608413Y-139303426D01*
X87804955Y-139172101D01*
X87972101Y-139004955D01*
X88103426Y-138808413D01*
X88144129Y-138710146D01*
X88203086Y-138678633D01*
X88283027Y-138613027D01*
X88299470Y-138592991D01*
X88405596Y-138486866D01*
X88426116Y-138590027D01*
X88516574Y-138808413D01*
X88647899Y-139004955D01*
X88815045Y-139172101D01*
X89011587Y-139303426D01*
X89229973Y-139393884D01*
X89461810Y-139440000D01*
X89698190Y-139440000D01*
X89930027Y-139393884D01*
X90148413Y-139303426D01*
X90325000Y-139185434D01*
X90325000Y-139524220D01*
X90322461Y-139550000D01*
X90325000Y-139575780D01*
X90325000Y-139575787D01*
X90332597Y-139652917D01*
X90362617Y-139751880D01*
X90411367Y-139843086D01*
X90476973Y-139923027D01*
X90497010Y-139939471D01*
X91060533Y-140502995D01*
X91076973Y-140523027D01*
X91156914Y-140588633D01*
X91248119Y-140637383D01*
X91347082Y-140667403D01*
X91424212Y-140675000D01*
X91424219Y-140675000D01*
X91449999Y-140677539D01*
X91475779Y-140675000D01*
X125532539Y-140675000D01*
X129610589Y-144753051D01*
X129627028Y-144773082D01*
X129706969Y-144838688D01*
X129798174Y-144887438D01*
X129897137Y-144917458D01*
X129974267Y-144925055D01*
X129974274Y-144925055D01*
X130000054Y-144927594D01*
X130025834Y-144925055D01*
X193274165Y-144925055D01*
X193299945Y-144927594D01*
X193325725Y-144925055D01*
X193325733Y-144925055D01*
X193402863Y-144917458D01*
X193501826Y-144887438D01*
X193593031Y-144838688D01*
X193672972Y-144773082D01*
X193689416Y-144753045D01*
X200452996Y-137989466D01*
X200473027Y-137973027D01*
X200538633Y-137893086D01*
X200587383Y-137801881D01*
X200617403Y-137702918D01*
X200625000Y-137625788D01*
X200625000Y-137625781D01*
X200627539Y-137600001D01*
X200625000Y-137574221D01*
X200625000Y-132225788D01*
X200627540Y-132200000D01*
X200617403Y-132097082D01*
X200587383Y-131998119D01*
X200553167Y-131934106D01*
X200538633Y-131906914D01*
X200473027Y-131826973D01*
X200452996Y-131810534D01*
X198889471Y-130247010D01*
X198873027Y-130226973D01*
X198793086Y-130161367D01*
X198732013Y-130128723D01*
X198811179Y-130075826D01*
X199075826Y-129811179D01*
X199283758Y-129499987D01*
X199426984Y-129154209D01*
X199500000Y-128787134D01*
X199500000Y-128412866D01*
X199426984Y-128045791D01*
X199283758Y-127700013D01*
X199075826Y-127388821D01*
X199000000Y-127312995D01*
X199000000Y-116668769D01*
X199006773Y-116600000D01*
X199000000Y-116531231D01*
X199000000Y-116531223D01*
X198979743Y-116325552D01*
X198951022Y-116230870D01*
X198899690Y-116061650D01*
X198841612Y-115952995D01*
X198769690Y-115818438D01*
X198708907Y-115744374D01*
X198638582Y-115658683D01*
X198638576Y-115658677D01*
X198594738Y-115605261D01*
X198541324Y-115561425D01*
X193288584Y-110308686D01*
X193244739Y-110255261D01*
X193031562Y-110080310D01*
X192788349Y-109950310D01*
X192524448Y-109870257D01*
X192318777Y-109850000D01*
X192318769Y-109850000D01*
X192250000Y-109843227D01*
X192181231Y-109850000D01*
X191892462Y-109850000D01*
X191942462Y-109800000D01*
X191968944Y-109800000D01*
X192104182Y-109773099D01*
X192231574Y-109720332D01*
X192346224Y-109643726D01*
X192443726Y-109546224D01*
X192520332Y-109431574D01*
X192573099Y-109304182D01*
X192600000Y-109168944D01*
X192600000Y-109031056D01*
X192573099Y-108895818D01*
X192520332Y-108768426D01*
X192443726Y-108653776D01*
X192346224Y-108556274D01*
X192231574Y-108479668D01*
X192104182Y-108426901D01*
X191968944Y-108400000D01*
X191831056Y-108400000D01*
X191695818Y-108426901D01*
X191568426Y-108479668D01*
X191525000Y-108508684D01*
X191525000Y-104239950D01*
X191543726Y-104221224D01*
X191620332Y-104106574D01*
X191673099Y-103979182D01*
X191700000Y-103843944D01*
X191700000Y-103706056D01*
X191673099Y-103570818D01*
X191641084Y-103493525D01*
X191700687Y-103533351D01*
X191912157Y-103620945D01*
X192136653Y-103665600D01*
X192365547Y-103665600D01*
X192590043Y-103620945D01*
X192801513Y-103533351D01*
X192991832Y-103406184D01*
X193153684Y-103244332D01*
X193280851Y-103054013D01*
X193368445Y-102842543D01*
X193413100Y-102618047D01*
X193413100Y-102389153D01*
X193368445Y-102164657D01*
X193280851Y-101953187D01*
X193153684Y-101762868D01*
X192991832Y-101601016D01*
X192801513Y-101473849D01*
X192590043Y-101386255D01*
X192365547Y-101341600D01*
X192136653Y-101341600D01*
X191912157Y-101386255D01*
X191700687Y-101473849D01*
X191526573Y-101590188D01*
X191525000Y-101574219D01*
X191525000Y-101574212D01*
X191517403Y-101497082D01*
X191487383Y-101398119D01*
X191438633Y-101306914D01*
X191373027Y-101226973D01*
X191352996Y-101210534D01*
X191173518Y-101031056D01*
X197800000Y-101031056D01*
X197800000Y-101168944D01*
X197826901Y-101304182D01*
X197879668Y-101431574D01*
X197956274Y-101546224D01*
X197975000Y-101564950D01*
X197975001Y-108674210D01*
X197972461Y-108700000D01*
X197982597Y-108802917D01*
X198012617Y-108901880D01*
X198061367Y-108993085D01*
X198061368Y-108993086D01*
X198126974Y-109073027D01*
X198147005Y-109089466D01*
X202225000Y-113167462D01*
X202225001Y-117948065D01*
X201650000Y-117948065D01*
X201571586Y-117955788D01*
X201496186Y-117978660D01*
X201426697Y-118015803D01*
X201365789Y-118065789D01*
X201315803Y-118126697D01*
X201278660Y-118196186D01*
X201255788Y-118271586D01*
X201248065Y-118350000D01*
X201248065Y-119850000D01*
X201255788Y-119928414D01*
X201278660Y-120003814D01*
X201315803Y-120073303D01*
X201365789Y-120134211D01*
X201426697Y-120184197D01*
X201496186Y-120221340D01*
X201571586Y-120244212D01*
X201650000Y-120251935D01*
X202225000Y-120251935D01*
X202225000Y-120448065D01*
X201650000Y-120448065D01*
X201571586Y-120455788D01*
X201496186Y-120478660D01*
X201426697Y-120515803D01*
X201365789Y-120565789D01*
X201315803Y-120626697D01*
X201278660Y-120696186D01*
X201255788Y-120771586D01*
X201248065Y-120850000D01*
X201248065Y-122350000D01*
X201255788Y-122428414D01*
X201278660Y-122503814D01*
X201315803Y-122573303D01*
X201365789Y-122634211D01*
X201426697Y-122684197D01*
X201496186Y-122721340D01*
X201571586Y-122744212D01*
X201650000Y-122751935D01*
X203509473Y-122751935D01*
X203575000Y-122817462D01*
X203575000Y-123281684D01*
X203490732Y-123197416D01*
X203300413Y-123070249D01*
X203088943Y-122982655D01*
X202864447Y-122938000D01*
X202635553Y-122938000D01*
X202411057Y-122982655D01*
X202199587Y-123070249D01*
X202009268Y-123197416D01*
X201847416Y-123359268D01*
X201720249Y-123549587D01*
X201632655Y-123761057D01*
X201588000Y-123985553D01*
X201588000Y-124214447D01*
X201632655Y-124438943D01*
X201720249Y-124650413D01*
X201847416Y-124840732D01*
X202009268Y-125002584D01*
X202199587Y-125129751D01*
X202411057Y-125217345D01*
X202635553Y-125262000D01*
X202864447Y-125262000D01*
X203088943Y-125217345D01*
X203300413Y-125129751D01*
X203490732Y-125002584D01*
X203575001Y-124918315D01*
X203575001Y-125382537D01*
X203509473Y-125448065D01*
X201650000Y-125448065D01*
X201571586Y-125455788D01*
X201496186Y-125478660D01*
X201426697Y-125515803D01*
X201365789Y-125565789D01*
X201315803Y-125626697D01*
X201278660Y-125696186D01*
X201255788Y-125771586D01*
X201248065Y-125850000D01*
X201248065Y-127350000D01*
X201255788Y-127428414D01*
X201278660Y-127503814D01*
X201315803Y-127573303D01*
X201365789Y-127634211D01*
X201426697Y-127684197D01*
X201496186Y-127721340D01*
X201571586Y-127744212D01*
X201650000Y-127751935D01*
X202225001Y-127751935D01*
X202225000Y-127948065D01*
X201650000Y-127948065D01*
X201571586Y-127955788D01*
X201496186Y-127978660D01*
X201426697Y-128015803D01*
X201365789Y-128065789D01*
X201315803Y-128126697D01*
X201278660Y-128196186D01*
X201255788Y-128271586D01*
X201248065Y-128350000D01*
X201248065Y-129850000D01*
X201255788Y-129928414D01*
X201278660Y-130003814D01*
X201315803Y-130073303D01*
X201365789Y-130134211D01*
X201426697Y-130184197D01*
X201496186Y-130221340D01*
X201571586Y-130244212D01*
X201650000Y-130251935D01*
X203850000Y-130251935D01*
X203928414Y-130244212D01*
X204003814Y-130221340D01*
X204073303Y-130184197D01*
X204134211Y-130134211D01*
X204184197Y-130073303D01*
X204221340Y-130003814D01*
X204244212Y-129928414D01*
X204251935Y-129850000D01*
X204251935Y-128985553D01*
X206588000Y-128985553D01*
X206588000Y-129214447D01*
X206632655Y-129438943D01*
X206720249Y-129650413D01*
X206847416Y-129840732D01*
X207009268Y-130002584D01*
X207199587Y-130129751D01*
X207411057Y-130217345D01*
X207635553Y-130262000D01*
X207864447Y-130262000D01*
X208088943Y-130217345D01*
X208300413Y-130129751D01*
X208490732Y-130002584D01*
X208652584Y-129840732D01*
X208779751Y-129650413D01*
X208867345Y-129438943D01*
X208912000Y-129214447D01*
X208912000Y-128985553D01*
X208867345Y-128761057D01*
X208779751Y-128549587D01*
X208652584Y-128359268D01*
X208490732Y-128197416D01*
X208300413Y-128070249D01*
X208088943Y-127982655D01*
X207864447Y-127938000D01*
X207635553Y-127938000D01*
X207411057Y-127982655D01*
X207199587Y-128070249D01*
X207009268Y-128197416D01*
X206847416Y-128359268D01*
X206720249Y-128549587D01*
X206632655Y-128761057D01*
X206588000Y-128985553D01*
X204251935Y-128985553D01*
X204251935Y-128350000D01*
X204244212Y-128271586D01*
X204221340Y-128196186D01*
X204184197Y-128126697D01*
X204134211Y-128065789D01*
X204073303Y-128015803D01*
X204003814Y-127978660D01*
X203928414Y-127955788D01*
X203850000Y-127948065D01*
X203275000Y-127948065D01*
X203275000Y-127751935D01*
X203850000Y-127751935D01*
X203928414Y-127744212D01*
X204003814Y-127721340D01*
X204073303Y-127684197D01*
X204134211Y-127634211D01*
X204184197Y-127573303D01*
X204221340Y-127503814D01*
X204244212Y-127428414D01*
X204251935Y-127350000D01*
X204251935Y-126190527D01*
X204452996Y-125989466D01*
X204473027Y-125973027D01*
X204538633Y-125893086D01*
X204587383Y-125801881D01*
X204617403Y-125702918D01*
X204625000Y-125625788D01*
X204627540Y-125600000D01*
X204625000Y-125574212D01*
X204625000Y-122625788D01*
X204627540Y-122600000D01*
X204620069Y-122524151D01*
X204617403Y-122497082D01*
X204587383Y-122398119D01*
X204538633Y-122306914D01*
X204473027Y-122226973D01*
X204452996Y-122210534D01*
X204251935Y-122009473D01*
X204251935Y-120850000D01*
X204244212Y-120771586D01*
X204221340Y-120696186D01*
X204184197Y-120626697D01*
X204134211Y-120565789D01*
X204073303Y-120515803D01*
X204003814Y-120478660D01*
X203928414Y-120455788D01*
X203850000Y-120448065D01*
X203275000Y-120448065D01*
X203275000Y-120251935D01*
X203850000Y-120251935D01*
X203928414Y-120244212D01*
X204003814Y-120221340D01*
X204073303Y-120184197D01*
X204134211Y-120134211D01*
X204184197Y-120073303D01*
X204221340Y-120003814D01*
X204244212Y-119928414D01*
X204251935Y-119850000D01*
X204251935Y-118985553D01*
X206588000Y-118985553D01*
X206588000Y-119214447D01*
X206632655Y-119438943D01*
X206720249Y-119650413D01*
X206847416Y-119840732D01*
X207009268Y-120002584D01*
X207199587Y-120129751D01*
X207411057Y-120217345D01*
X207635553Y-120262000D01*
X207864447Y-120262000D01*
X208088943Y-120217345D01*
X208300413Y-120129751D01*
X208490732Y-120002584D01*
X208652584Y-119840732D01*
X208779751Y-119650413D01*
X208867345Y-119438943D01*
X208912000Y-119214447D01*
X208912000Y-118985553D01*
X208867345Y-118761057D01*
X208779751Y-118549587D01*
X208652584Y-118359268D01*
X208490732Y-118197416D01*
X208300413Y-118070249D01*
X208088943Y-117982655D01*
X207864447Y-117938000D01*
X207635553Y-117938000D01*
X207411057Y-117982655D01*
X207199587Y-118070249D01*
X207009268Y-118197416D01*
X206847416Y-118359268D01*
X206720249Y-118549587D01*
X206632655Y-118761057D01*
X206588000Y-118985553D01*
X204251935Y-118985553D01*
X204251935Y-118350000D01*
X204244212Y-118271586D01*
X204221340Y-118196186D01*
X204184197Y-118126697D01*
X204134211Y-118065789D01*
X204073303Y-118015803D01*
X204003814Y-117978660D01*
X203928414Y-117955788D01*
X203850000Y-117948065D01*
X203275000Y-117948065D01*
X203275000Y-112975788D01*
X203277540Y-112950000D01*
X203267403Y-112847082D01*
X203237383Y-112748119D01*
X203188633Y-112656914D01*
X203123027Y-112576973D01*
X203102996Y-112560534D01*
X199025000Y-108482539D01*
X199025000Y-104767221D01*
X203101100Y-104767221D01*
X203101100Y-105239979D01*
X203193330Y-105703654D01*
X203374247Y-106140426D01*
X203636898Y-106533511D01*
X203971189Y-106867802D01*
X204364274Y-107130453D01*
X204801046Y-107311370D01*
X205264721Y-107403600D01*
X205737479Y-107403600D01*
X206201154Y-107311370D01*
X206637926Y-107130453D01*
X207031011Y-106867802D01*
X207365302Y-106533511D01*
X207627953Y-106140426D01*
X207808870Y-105703654D01*
X207901100Y-105239979D01*
X207901100Y-104767221D01*
X207808870Y-104303546D01*
X207627953Y-103866774D01*
X207365302Y-103473689D01*
X207031011Y-103139398D01*
X206637926Y-102876747D01*
X206201154Y-102695830D01*
X205737479Y-102603600D01*
X205264721Y-102603600D01*
X204801046Y-102695830D01*
X204364274Y-102876747D01*
X203971189Y-103139398D01*
X203636898Y-103473689D01*
X203374247Y-103866774D01*
X203193330Y-104303546D01*
X203101100Y-104767221D01*
X199025000Y-104767221D01*
X199025000Y-101564950D01*
X199043726Y-101546224D01*
X199120332Y-101431574D01*
X199173099Y-101304182D01*
X199200000Y-101168944D01*
X199200000Y-101031056D01*
X199173099Y-100895818D01*
X199120332Y-100768426D01*
X199043726Y-100653776D01*
X198946224Y-100556274D01*
X198831574Y-100479668D01*
X198704182Y-100426901D01*
X198568944Y-100400000D01*
X198431056Y-100400000D01*
X198295818Y-100426901D01*
X198168426Y-100479668D01*
X198053776Y-100556274D01*
X197956274Y-100653776D01*
X197879668Y-100768426D01*
X197826901Y-100895818D01*
X197800000Y-101031056D01*
X191173518Y-101031056D01*
X186789471Y-96647010D01*
X186773027Y-96626973D01*
X186693086Y-96561367D01*
X186601881Y-96512617D01*
X186502918Y-96482597D01*
X186425788Y-96475000D01*
X186425780Y-96475000D01*
X186400000Y-96472461D01*
X186374220Y-96475000D01*
X120975788Y-96475000D01*
X120950000Y-96472460D01*
X120924212Y-96475000D01*
X120847082Y-96482597D01*
X120748119Y-96512617D01*
X120656914Y-96561367D01*
X120626093Y-96586661D01*
X120597003Y-96610534D01*
X120596999Y-96610538D01*
X120576973Y-96626973D01*
X120560538Y-96646999D01*
X115549177Y-101658361D01*
X115491832Y-101601016D01*
X115301513Y-101473849D01*
X115090043Y-101386255D01*
X114865547Y-101341600D01*
X114636653Y-101341600D01*
X114412157Y-101386255D01*
X114200687Y-101473849D01*
X114010368Y-101601016D01*
X113848516Y-101762868D01*
X113721349Y-101953187D01*
X113633755Y-102164657D01*
X113589100Y-102389153D01*
X113589100Y-102618047D01*
X113633755Y-102842543D01*
X113721349Y-103054013D01*
X113848516Y-103244332D01*
X114010368Y-103406184D01*
X114030923Y-103419918D01*
X113995818Y-103426901D01*
X113868426Y-103479668D01*
X113753776Y-103556274D01*
X113656274Y-103653776D01*
X113579668Y-103768426D01*
X113526901Y-103895818D01*
X113500000Y-104031056D01*
X113500000Y-104057537D01*
X111947010Y-105610529D01*
X111926973Y-105626973D01*
X111861367Y-105706914D01*
X111812617Y-105798120D01*
X111782597Y-105897083D01*
X111775000Y-105974213D01*
X111775000Y-105974220D01*
X111772461Y-106000000D01*
X111775000Y-106025780D01*
X111775000Y-106443067D01*
X111700687Y-106473849D01*
X111510368Y-106601016D01*
X111348516Y-106762868D01*
X111221349Y-106953187D01*
X111133755Y-107164657D01*
X111089100Y-107389153D01*
X111089100Y-107618047D01*
X111133755Y-107842543D01*
X111221349Y-108054013D01*
X111348516Y-108244332D01*
X111404184Y-108300000D01*
X110598016Y-108300000D01*
X110653684Y-108244332D01*
X110780851Y-108054013D01*
X110868445Y-107842543D01*
X110913100Y-107618047D01*
X110913100Y-107389153D01*
X110868445Y-107164657D01*
X110780851Y-106953187D01*
X110653684Y-106762868D01*
X110491832Y-106601016D01*
X110301513Y-106473849D01*
X110090043Y-106386255D01*
X109865547Y-106341600D01*
X109636653Y-106341600D01*
X109412157Y-106386255D01*
X109200687Y-106473849D01*
X109010368Y-106601016D01*
X108848516Y-106762868D01*
X108721349Y-106953187D01*
X108633755Y-107164657D01*
X108589100Y-107389153D01*
X108589100Y-107618047D01*
X108633755Y-107842543D01*
X108721349Y-108054013D01*
X108848516Y-108244332D01*
X108904184Y-108300000D01*
X108098016Y-108300000D01*
X108153684Y-108244332D01*
X108280851Y-108054013D01*
X108368445Y-107842543D01*
X108413100Y-107618047D01*
X108413100Y-107389153D01*
X108368445Y-107164657D01*
X108280851Y-106953187D01*
X108153684Y-106762868D01*
X107991832Y-106601016D01*
X107801513Y-106473849D01*
X107590043Y-106386255D01*
X107365547Y-106341600D01*
X107136653Y-106341600D01*
X106912157Y-106386255D01*
X106700687Y-106473849D01*
X106510368Y-106601016D01*
X106348516Y-106762868D01*
X106221349Y-106953187D01*
X106133755Y-107164657D01*
X106124854Y-107209407D01*
X106050790Y-106965251D01*
X105920790Y-106722038D01*
X105745838Y-106508861D01*
X105532661Y-106333910D01*
X105289448Y-106203910D01*
X105025547Y-106123857D01*
X104751100Y-106096826D01*
X104476652Y-106123857D01*
X104212751Y-106203910D01*
X103969538Y-106333910D01*
X103756361Y-106508862D01*
X103581410Y-106722039D01*
X103451410Y-106965252D01*
X103371357Y-107229153D01*
X103351100Y-107434824D01*
X103351100Y-108512461D01*
X103344327Y-108581230D01*
X103351100Y-108649999D01*
X103351100Y-108650007D01*
X103371357Y-108855678D01*
X103451410Y-109119579D01*
X103581410Y-109362792D01*
X103756362Y-109575969D01*
X103809781Y-109619809D01*
X104831290Y-110641319D01*
X104875131Y-110694739D01*
X105088308Y-110869690D01*
X105166812Y-110911651D01*
X105331520Y-110999690D01*
X105416780Y-111025553D01*
X105595422Y-111079743D01*
X105801093Y-111100000D01*
X105801101Y-111100000D01*
X105869870Y-111106773D01*
X105938639Y-111100000D01*
X113420102Y-111100000D01*
X123961420Y-121641319D01*
X124005261Y-121694739D01*
X124058681Y-121738580D01*
X124058683Y-121738582D01*
X124100391Y-121772811D01*
X124218438Y-121869690D01*
X124461651Y-121999690D01*
X124472295Y-122002919D01*
X124375045Y-122067899D01*
X124207899Y-122235045D01*
X124076574Y-122431587D01*
X123986116Y-122649973D01*
X123940000Y-122881810D01*
X123940000Y-123118190D01*
X123986116Y-123350027D01*
X124076574Y-123568413D01*
X124207899Y-123764955D01*
X124375045Y-123932101D01*
X124571587Y-124063426D01*
X124789973Y-124153884D01*
X125021810Y-124200000D01*
X125258190Y-124200000D01*
X125490027Y-124153884D01*
X125708413Y-124063426D01*
X125904955Y-123932101D01*
X126072101Y-123764955D01*
X126203426Y-123568413D01*
X126293884Y-123350027D01*
X126340000Y-123118190D01*
X126340000Y-122881810D01*
X126293884Y-122649973D01*
X126203426Y-122431587D01*
X126072101Y-122235045D01*
X125937056Y-122100000D01*
X126882944Y-122100000D01*
X126747899Y-122235045D01*
X126616574Y-122431587D01*
X126526116Y-122649973D01*
X126480000Y-122881810D01*
X126480000Y-123118190D01*
X126526116Y-123350027D01*
X126616574Y-123568413D01*
X126747899Y-123764955D01*
X126915045Y-123932101D01*
X127111587Y-124063426D01*
X127329973Y-124153884D01*
X127561810Y-124200000D01*
X127798190Y-124200000D01*
X128030027Y-124153884D01*
X128248413Y-124063426D01*
X128444955Y-123932101D01*
X128612101Y-123764955D01*
X128743426Y-123568413D01*
X128833884Y-123350027D01*
X128880000Y-123118190D01*
X128880000Y-122881810D01*
X128833884Y-122649973D01*
X128743426Y-122431587D01*
X128612101Y-122235045D01*
X128477056Y-122100000D01*
X129422944Y-122100000D01*
X129287899Y-122235045D01*
X129156574Y-122431587D01*
X129066116Y-122649973D01*
X129020000Y-122881810D01*
X129020000Y-123118190D01*
X129066116Y-123350027D01*
X129156574Y-123568413D01*
X129287899Y-123764955D01*
X129455045Y-123932101D01*
X129651587Y-124063426D01*
X129869973Y-124153884D01*
X130101810Y-124200000D01*
X130338190Y-124200000D01*
X130570027Y-124153884D01*
X130788413Y-124063426D01*
X130984955Y-123932101D01*
X131152101Y-123764955D01*
X131283426Y-123568413D01*
X131373884Y-123350027D01*
X131420000Y-123118190D01*
X131420000Y-122881810D01*
X131373884Y-122649973D01*
X131283426Y-122431587D01*
X131152101Y-122235045D01*
X131017056Y-122100000D01*
X131962944Y-122100000D01*
X131827899Y-122235045D01*
X131696574Y-122431587D01*
X131606116Y-122649973D01*
X131560000Y-122881810D01*
X131560000Y-123118190D01*
X131606116Y-123350027D01*
X131696574Y-123568413D01*
X131827899Y-123764955D01*
X131995045Y-123932101D01*
X132191587Y-124063426D01*
X132409973Y-124153884D01*
X132641810Y-124200000D01*
X132878190Y-124200000D01*
X133110027Y-124153884D01*
X133328413Y-124063426D01*
X133524955Y-123932101D01*
X133692101Y-123764955D01*
X133823426Y-123568413D01*
X133913884Y-123350027D01*
X133960000Y-123118190D01*
X133960000Y-122881810D01*
X133913884Y-122649973D01*
X133823426Y-122431587D01*
X133692101Y-122235045D01*
X133557056Y-122100000D01*
X134112336Y-122100000D01*
X134105788Y-122121586D01*
X134098065Y-122200000D01*
X134098065Y-123800000D01*
X134105788Y-123878414D01*
X134128660Y-123953814D01*
X134165803Y-124023303D01*
X134215789Y-124084211D01*
X134276697Y-124134197D01*
X134346186Y-124171340D01*
X134421586Y-124194212D01*
X134500000Y-124201935D01*
X136100000Y-124201935D01*
X136178414Y-124194212D01*
X136253814Y-124171340D01*
X136323303Y-124134197D01*
X136362269Y-124102219D01*
X136403776Y-124143726D01*
X136518426Y-124220332D01*
X136645818Y-124273099D01*
X136695781Y-124283038D01*
X136600310Y-124461652D01*
X136520257Y-124725553D01*
X136500000Y-124931224D01*
X136500000Y-124931231D01*
X136493227Y-125000000D01*
X136500000Y-125068769D01*
X136500000Y-125681231D01*
X136493227Y-125750000D01*
X136500000Y-125818769D01*
X136500000Y-126331223D01*
X136493226Y-126400000D01*
X136520257Y-126674448D01*
X136600310Y-126938349D01*
X136698065Y-127121236D01*
X136698065Y-127200000D01*
X136705788Y-127278414D01*
X136728660Y-127353814D01*
X136765803Y-127423303D01*
X136815789Y-127484211D01*
X136876697Y-127534197D01*
X136946186Y-127571340D01*
X137021586Y-127594212D01*
X137100000Y-127601935D01*
X137122037Y-127601935D01*
X138511425Y-128991324D01*
X138555262Y-129044739D01*
X138608677Y-129088576D01*
X138700011Y-129179909D01*
X138700010Y-132418452D01*
X138687196Y-132407936D01*
X138574485Y-132347691D01*
X138452186Y-132310592D01*
X138325000Y-132298065D01*
X137075000Y-132298065D01*
X136947814Y-132310592D01*
X136825515Y-132347691D01*
X136712804Y-132407936D01*
X136614012Y-132489012D01*
X136532936Y-132587804D01*
X136472691Y-132700515D01*
X136435592Y-132822814D01*
X136423065Y-132950000D01*
X136423065Y-133875000D01*
X136435592Y-134002186D01*
X136472691Y-134124485D01*
X136532936Y-134237196D01*
X136614012Y-134335988D01*
X136712804Y-134417064D01*
X136825515Y-134477309D01*
X136947814Y-134514408D01*
X137075000Y-134526935D01*
X137107391Y-134526935D01*
X137079668Y-134568426D01*
X137026901Y-134695818D01*
X137000000Y-134831056D01*
X137000000Y-134968944D01*
X137026901Y-135104182D01*
X137079668Y-135231574D01*
X137107391Y-135273065D01*
X137075000Y-135273065D01*
X136947814Y-135285592D01*
X136825515Y-135322691D01*
X136712804Y-135382936D01*
X136614012Y-135464012D01*
X136532936Y-135562804D01*
X136472691Y-135675515D01*
X136435592Y-135797814D01*
X136423065Y-135925000D01*
X136423065Y-136850000D01*
X136435592Y-136977186D01*
X136472691Y-137099485D01*
X136532936Y-137212196D01*
X136614012Y-137310988D01*
X136686808Y-137370730D01*
X136370024Y-137687515D01*
X136363426Y-137671587D01*
X136232101Y-137475045D01*
X136064955Y-137307899D01*
X135868413Y-137176574D01*
X135650027Y-137086116D01*
X135418190Y-137040000D01*
X135181810Y-137040000D01*
X134949973Y-137086116D01*
X134731587Y-137176574D01*
X134535045Y-137307899D01*
X134367899Y-137475045D01*
X134236574Y-137671587D01*
X134146116Y-137889973D01*
X134100000Y-138121810D01*
X134100000Y-138358190D01*
X134146116Y-138590027D01*
X134236574Y-138808413D01*
X134367899Y-139004955D01*
X134535045Y-139172101D01*
X134731587Y-139303426D01*
X134844027Y-139350000D01*
X132178529Y-139350000D01*
X131620000Y-138791472D01*
X131620000Y-138171223D01*
X131599743Y-137965552D01*
X131519690Y-137701651D01*
X131389690Y-137458438D01*
X131214738Y-137245261D01*
X131001561Y-137070310D01*
X130758348Y-136940310D01*
X130494447Y-136860257D01*
X130220000Y-136833226D01*
X129945552Y-136860257D01*
X129681651Y-136940310D01*
X129438438Y-137070310D01*
X129372421Y-137124490D01*
X129333623Y-137051904D01*
X129268017Y-136971963D01*
X129247986Y-136955524D01*
X127939449Y-135646988D01*
X127923005Y-135626951D01*
X127843064Y-135561345D01*
X127751859Y-135512595D01*
X127652896Y-135482575D01*
X127575766Y-135474978D01*
X127575758Y-135474978D01*
X127549978Y-135472439D01*
X127524198Y-135474978D01*
X89725801Y-135474978D01*
X89700021Y-135472439D01*
X89674241Y-135474978D01*
X89674234Y-135474978D01*
X89597104Y-135482575D01*
X89498141Y-135512595D01*
X89406936Y-135561345D01*
X89326995Y-135626951D01*
X89310556Y-135646982D01*
X87947010Y-137010529D01*
X87926973Y-137026973D01*
X87861367Y-137106914D01*
X87812617Y-137198120D01*
X87783637Y-137293655D01*
X87608413Y-137176574D01*
X87390027Y-137086116D01*
X87158190Y-137040000D01*
X86921810Y-137040000D01*
X86689973Y-137086116D01*
X86471587Y-137176574D01*
X86275045Y-137307899D01*
X86107899Y-137475045D01*
X85976574Y-137671587D01*
X85975000Y-137675387D01*
X85975000Y-134315553D01*
X130328000Y-134315553D01*
X130328000Y-134544447D01*
X130372655Y-134768943D01*
X130460249Y-134980413D01*
X130587416Y-135170732D01*
X130749268Y-135332584D01*
X130939587Y-135459751D01*
X131151057Y-135547345D01*
X131375553Y-135592000D01*
X131604447Y-135592000D01*
X131828943Y-135547345D01*
X132040413Y-135459751D01*
X132230732Y-135332584D01*
X132392584Y-135170732D01*
X132519751Y-134980413D01*
X132607345Y-134768943D01*
X132652000Y-134544447D01*
X132652000Y-134315553D01*
X132607345Y-134091057D01*
X132519751Y-133879587D01*
X132392584Y-133689268D01*
X132230732Y-133527416D01*
X132040413Y-133400249D01*
X131828943Y-133312655D01*
X131604447Y-133268000D01*
X131375553Y-133268000D01*
X131151057Y-133312655D01*
X130939587Y-133400249D01*
X130749268Y-133527416D01*
X130587416Y-133689268D01*
X130460249Y-133879587D01*
X130372655Y-134091057D01*
X130328000Y-134315553D01*
X85975000Y-134315553D01*
X85975000Y-131775553D01*
X130328000Y-131775553D01*
X130328000Y-132004447D01*
X130372655Y-132228943D01*
X130460249Y-132440413D01*
X130587416Y-132630732D01*
X130749268Y-132792584D01*
X130939587Y-132919751D01*
X131151057Y-133007345D01*
X131375553Y-133052000D01*
X131604447Y-133052000D01*
X131828943Y-133007345D01*
X132040413Y-132919751D01*
X132230732Y-132792584D01*
X132392584Y-132630732D01*
X132519751Y-132440413D01*
X132607345Y-132228943D01*
X132652000Y-132004447D01*
X132652000Y-131775553D01*
X132607345Y-131551057D01*
X132519751Y-131339587D01*
X132392584Y-131149268D01*
X132230732Y-130987416D01*
X132040413Y-130860249D01*
X131828943Y-130772655D01*
X131604447Y-130728000D01*
X131375553Y-130728000D01*
X131151057Y-130772655D01*
X130939587Y-130860249D01*
X130749268Y-130987416D01*
X130587416Y-131149268D01*
X130460249Y-131339587D01*
X130372655Y-131551057D01*
X130328000Y-131775553D01*
X85975000Y-131775553D01*
X85975000Y-129485553D01*
X98038000Y-129485553D01*
X98038000Y-129714447D01*
X98082655Y-129938943D01*
X98170249Y-130150413D01*
X98297416Y-130340732D01*
X98459268Y-130502584D01*
X98649587Y-130629751D01*
X98861057Y-130717345D01*
X99085553Y-130762000D01*
X99314447Y-130762000D01*
X99538943Y-130717345D01*
X99750413Y-130629751D01*
X99940732Y-130502584D01*
X100102584Y-130340732D01*
X100229751Y-130150413D01*
X100317345Y-129938943D01*
X100362000Y-129714447D01*
X100362000Y-129485553D01*
X100538000Y-129485553D01*
X100538000Y-129714447D01*
X100582655Y-129938943D01*
X100670249Y-130150413D01*
X100797416Y-130340732D01*
X100959268Y-130502584D01*
X101149587Y-130629751D01*
X101361057Y-130717345D01*
X101585553Y-130762000D01*
X101814447Y-130762000D01*
X102038943Y-130717345D01*
X102250413Y-130629751D01*
X102440732Y-130502584D01*
X102602584Y-130340732D01*
X102729751Y-130150413D01*
X102817345Y-129938943D01*
X102862000Y-129714447D01*
X102862000Y-129485553D01*
X102817345Y-129261057D01*
X102806781Y-129235553D01*
X130328000Y-129235553D01*
X130328000Y-129464447D01*
X130372655Y-129688943D01*
X130460249Y-129900413D01*
X130587416Y-130090732D01*
X130749268Y-130252584D01*
X130939587Y-130379751D01*
X131151057Y-130467345D01*
X131375553Y-130512000D01*
X131604447Y-130512000D01*
X131828943Y-130467345D01*
X132040413Y-130379751D01*
X132230732Y-130252584D01*
X132392584Y-130090732D01*
X132519751Y-129900413D01*
X132607345Y-129688943D01*
X132652000Y-129464447D01*
X132652000Y-129235553D01*
X132607345Y-129011057D01*
X132519751Y-128799587D01*
X132392584Y-128609268D01*
X132230732Y-128447416D01*
X132040413Y-128320249D01*
X131828943Y-128232655D01*
X131604447Y-128188000D01*
X131375553Y-128188000D01*
X131151057Y-128232655D01*
X130939587Y-128320249D01*
X130749268Y-128447416D01*
X130587416Y-128609268D01*
X130460249Y-128799587D01*
X130372655Y-129011057D01*
X130328000Y-129235553D01*
X102806781Y-129235553D01*
X102729751Y-129049587D01*
X102602584Y-128859268D01*
X102440732Y-128697416D01*
X102250413Y-128570249D01*
X102038943Y-128482655D01*
X101814447Y-128438000D01*
X101585553Y-128438000D01*
X101361057Y-128482655D01*
X101149587Y-128570249D01*
X100959268Y-128697416D01*
X100797416Y-128859268D01*
X100670249Y-129049587D01*
X100582655Y-129261057D01*
X100538000Y-129485553D01*
X100362000Y-129485553D01*
X100317345Y-129261057D01*
X100229751Y-129049587D01*
X100102584Y-128859268D01*
X99940732Y-128697416D01*
X99750413Y-128570249D01*
X99538943Y-128482655D01*
X99314447Y-128438000D01*
X99085553Y-128438000D01*
X98861057Y-128482655D01*
X98649587Y-128570249D01*
X98459268Y-128697416D01*
X98297416Y-128859268D01*
X98170249Y-129049587D01*
X98082655Y-129261057D01*
X98038000Y-129485553D01*
X85975000Y-129485553D01*
X85975000Y-126985553D01*
X100538000Y-126985553D01*
X100538000Y-127214447D01*
X100582655Y-127438943D01*
X100670249Y-127650413D01*
X100797416Y-127840732D01*
X100959268Y-128002584D01*
X101149587Y-128129751D01*
X101361057Y-128217345D01*
X101585553Y-128262000D01*
X101814447Y-128262000D01*
X102038943Y-128217345D01*
X102250413Y-128129751D01*
X102440732Y-128002584D01*
X102602584Y-127840732D01*
X102729751Y-127650413D01*
X102817345Y-127438943D01*
X102862000Y-127214447D01*
X102862000Y-126985553D01*
X102817345Y-126761057D01*
X102729751Y-126549587D01*
X102602584Y-126359268D01*
X102440732Y-126197416D01*
X102250413Y-126070249D01*
X102038943Y-125982655D01*
X101814447Y-125938000D01*
X101585553Y-125938000D01*
X101361057Y-125982655D01*
X101149587Y-126070249D01*
X100959268Y-126197416D01*
X100797416Y-126359268D01*
X100670249Y-126549587D01*
X100582655Y-126761057D01*
X100538000Y-126985553D01*
X85975000Y-126985553D01*
X85975000Y-122881810D01*
X90920000Y-122881810D01*
X90920000Y-123118190D01*
X90966116Y-123350027D01*
X91056574Y-123568413D01*
X91187899Y-123764955D01*
X91355045Y-123932101D01*
X91551587Y-124063426D01*
X91769973Y-124153884D01*
X92001810Y-124200000D01*
X92238190Y-124200000D01*
X92470027Y-124153884D01*
X92688413Y-124063426D01*
X92884955Y-123932101D01*
X93052101Y-123764955D01*
X93183426Y-123568413D01*
X93273884Y-123350027D01*
X93320000Y-123118190D01*
X93320000Y-122881810D01*
X93460000Y-122881810D01*
X93460000Y-123118190D01*
X93506116Y-123350027D01*
X93596574Y-123568413D01*
X93727899Y-123764955D01*
X93895045Y-123932101D01*
X94091587Y-124063426D01*
X94309973Y-124153884D01*
X94541810Y-124200000D01*
X94778190Y-124200000D01*
X95010027Y-124153884D01*
X95228413Y-124063426D01*
X95424955Y-123932101D01*
X95592101Y-123764955D01*
X95723426Y-123568413D01*
X95813884Y-123350027D01*
X95860000Y-123118190D01*
X95860000Y-122881810D01*
X96000000Y-122881810D01*
X96000000Y-123118190D01*
X96046116Y-123350027D01*
X96136574Y-123568413D01*
X96267899Y-123764955D01*
X96435045Y-123932101D01*
X96631587Y-124063426D01*
X96849973Y-124153884D01*
X97081810Y-124200000D01*
X97318190Y-124200000D01*
X97550027Y-124153884D01*
X97768413Y-124063426D01*
X97964955Y-123932101D01*
X98132101Y-123764955D01*
X98263426Y-123568413D01*
X98353884Y-123350027D01*
X98400000Y-123118190D01*
X98400000Y-122881810D01*
X98540000Y-122881810D01*
X98540000Y-123118190D01*
X98586116Y-123350027D01*
X98676574Y-123568413D01*
X98807899Y-123764955D01*
X98975045Y-123932101D01*
X99171587Y-124063426D01*
X99389973Y-124153884D01*
X99621810Y-124200000D01*
X99858190Y-124200000D01*
X100090027Y-124153884D01*
X100308413Y-124063426D01*
X100504955Y-123932101D01*
X100672101Y-123764955D01*
X100803426Y-123568413D01*
X100893884Y-123350027D01*
X100940000Y-123118190D01*
X100940000Y-122881810D01*
X101080000Y-122881810D01*
X101080000Y-123118190D01*
X101126116Y-123350027D01*
X101216574Y-123568413D01*
X101347899Y-123764955D01*
X101515045Y-123932101D01*
X101711587Y-124063426D01*
X101929973Y-124153884D01*
X102161810Y-124200000D01*
X102398190Y-124200000D01*
X102630027Y-124153884D01*
X102848413Y-124063426D01*
X103044955Y-123932101D01*
X103212101Y-123764955D01*
X103343426Y-123568413D01*
X103433884Y-123350027D01*
X103480000Y-123118190D01*
X103480000Y-122881810D01*
X103620000Y-122881810D01*
X103620000Y-123118190D01*
X103666116Y-123350027D01*
X103756574Y-123568413D01*
X103887899Y-123764955D01*
X104055045Y-123932101D01*
X104251587Y-124063426D01*
X104469973Y-124153884D01*
X104701810Y-124200000D01*
X104938190Y-124200000D01*
X105170027Y-124153884D01*
X105388413Y-124063426D01*
X105584955Y-123932101D01*
X105752101Y-123764955D01*
X105883426Y-123568413D01*
X105973884Y-123350027D01*
X106020000Y-123118190D01*
X106020000Y-122881810D01*
X106160000Y-122881810D01*
X106160000Y-123118190D01*
X106206116Y-123350027D01*
X106296574Y-123568413D01*
X106427899Y-123764955D01*
X106595045Y-123932101D01*
X106791587Y-124063426D01*
X107009973Y-124153884D01*
X107241810Y-124200000D01*
X107478190Y-124200000D01*
X107710027Y-124153884D01*
X107928413Y-124063426D01*
X108124955Y-123932101D01*
X108292101Y-123764955D01*
X108423426Y-123568413D01*
X108513884Y-123350027D01*
X108560000Y-123118190D01*
X108560000Y-122881810D01*
X108700000Y-122881810D01*
X108700000Y-123118190D01*
X108746116Y-123350027D01*
X108836574Y-123568413D01*
X108967899Y-123764955D01*
X109135045Y-123932101D01*
X109331587Y-124063426D01*
X109549973Y-124153884D01*
X109781810Y-124200000D01*
X110018190Y-124200000D01*
X110250027Y-124153884D01*
X110468413Y-124063426D01*
X110664955Y-123932101D01*
X110832101Y-123764955D01*
X110963426Y-123568413D01*
X111053884Y-123350027D01*
X111100000Y-123118190D01*
X111100000Y-122881810D01*
X111240000Y-122881810D01*
X111240000Y-123118190D01*
X111286116Y-123350027D01*
X111376574Y-123568413D01*
X111507899Y-123764955D01*
X111675045Y-123932101D01*
X111871587Y-124063426D01*
X112089973Y-124153884D01*
X112321810Y-124200000D01*
X112558190Y-124200000D01*
X112790027Y-124153884D01*
X113008413Y-124063426D01*
X113204955Y-123932101D01*
X113372101Y-123764955D01*
X113503426Y-123568413D01*
X113593884Y-123350027D01*
X113640000Y-123118190D01*
X113640000Y-122881810D01*
X113780000Y-122881810D01*
X113780000Y-123118190D01*
X113826116Y-123350027D01*
X113916574Y-123568413D01*
X114047899Y-123764955D01*
X114215045Y-123932101D01*
X114411587Y-124063426D01*
X114629973Y-124153884D01*
X114861810Y-124200000D01*
X115098190Y-124200000D01*
X115330027Y-124153884D01*
X115548413Y-124063426D01*
X115744955Y-123932101D01*
X115912101Y-123764955D01*
X116043426Y-123568413D01*
X116133884Y-123350027D01*
X116180000Y-123118190D01*
X116180000Y-122881810D01*
X116320000Y-122881810D01*
X116320000Y-123118190D01*
X116366116Y-123350027D01*
X116456574Y-123568413D01*
X116587899Y-123764955D01*
X116755045Y-123932101D01*
X116951587Y-124063426D01*
X117169973Y-124153884D01*
X117401810Y-124200000D01*
X117638190Y-124200000D01*
X117870027Y-124153884D01*
X118088413Y-124063426D01*
X118284955Y-123932101D01*
X118452101Y-123764955D01*
X118583426Y-123568413D01*
X118673884Y-123350027D01*
X118720000Y-123118190D01*
X118720000Y-122881810D01*
X118860000Y-122881810D01*
X118860000Y-123118190D01*
X118906116Y-123350027D01*
X118996574Y-123568413D01*
X119127899Y-123764955D01*
X119295045Y-123932101D01*
X119491587Y-124063426D01*
X119709973Y-124153884D01*
X119941810Y-124200000D01*
X120178190Y-124200000D01*
X120410027Y-124153884D01*
X120628413Y-124063426D01*
X120824955Y-123932101D01*
X120992101Y-123764955D01*
X121123426Y-123568413D01*
X121213884Y-123350027D01*
X121260000Y-123118190D01*
X121260000Y-122881810D01*
X121400000Y-122881810D01*
X121400000Y-123118190D01*
X121446116Y-123350027D01*
X121536574Y-123568413D01*
X121667899Y-123764955D01*
X121835045Y-123932101D01*
X122031587Y-124063426D01*
X122249973Y-124153884D01*
X122481810Y-124200000D01*
X122718190Y-124200000D01*
X122950027Y-124153884D01*
X123168413Y-124063426D01*
X123364955Y-123932101D01*
X123532101Y-123764955D01*
X123663426Y-123568413D01*
X123753884Y-123350027D01*
X123800000Y-123118190D01*
X123800000Y-122881810D01*
X123753884Y-122649973D01*
X123663426Y-122431587D01*
X123532101Y-122235045D01*
X123364955Y-122067899D01*
X123168413Y-121936574D01*
X122950027Y-121846116D01*
X122718190Y-121800000D01*
X122481810Y-121800000D01*
X122249973Y-121846116D01*
X122031587Y-121936574D01*
X121835045Y-122067899D01*
X121667899Y-122235045D01*
X121536574Y-122431587D01*
X121446116Y-122649973D01*
X121400000Y-122881810D01*
X121260000Y-122881810D01*
X121213884Y-122649973D01*
X121123426Y-122431587D01*
X120992101Y-122235045D01*
X120824955Y-122067899D01*
X120628413Y-121936574D01*
X120410027Y-121846116D01*
X120178190Y-121800000D01*
X119941810Y-121800000D01*
X119709973Y-121846116D01*
X119491587Y-121936574D01*
X119295045Y-122067899D01*
X119127899Y-122235045D01*
X118996574Y-122431587D01*
X118906116Y-122649973D01*
X118860000Y-122881810D01*
X118720000Y-122881810D01*
X118673884Y-122649973D01*
X118583426Y-122431587D01*
X118452101Y-122235045D01*
X118284955Y-122067899D01*
X118088413Y-121936574D01*
X117870027Y-121846116D01*
X117638190Y-121800000D01*
X117401810Y-121800000D01*
X117169973Y-121846116D01*
X116951587Y-121936574D01*
X116755045Y-122067899D01*
X116587899Y-122235045D01*
X116456574Y-122431587D01*
X116366116Y-122649973D01*
X116320000Y-122881810D01*
X116180000Y-122881810D01*
X116133884Y-122649973D01*
X116043426Y-122431587D01*
X115912101Y-122235045D01*
X115744955Y-122067899D01*
X115548413Y-121936574D01*
X115330027Y-121846116D01*
X115098190Y-121800000D01*
X114861810Y-121800000D01*
X114629973Y-121846116D01*
X114411587Y-121936574D01*
X114215045Y-122067899D01*
X114047899Y-122235045D01*
X113916574Y-122431587D01*
X113826116Y-122649973D01*
X113780000Y-122881810D01*
X113640000Y-122881810D01*
X113593884Y-122649973D01*
X113503426Y-122431587D01*
X113372101Y-122235045D01*
X113204955Y-122067899D01*
X113008413Y-121936574D01*
X112790027Y-121846116D01*
X112558190Y-121800000D01*
X112321810Y-121800000D01*
X112089973Y-121846116D01*
X111871587Y-121936574D01*
X111675045Y-122067899D01*
X111507899Y-122235045D01*
X111376574Y-122431587D01*
X111286116Y-122649973D01*
X111240000Y-122881810D01*
X111100000Y-122881810D01*
X111053884Y-122649973D01*
X110963426Y-122431587D01*
X110832101Y-122235045D01*
X110664955Y-122067899D01*
X110468413Y-121936574D01*
X110250027Y-121846116D01*
X110018190Y-121800000D01*
X109781810Y-121800000D01*
X109549973Y-121846116D01*
X109331587Y-121936574D01*
X109135045Y-122067899D01*
X108967899Y-122235045D01*
X108836574Y-122431587D01*
X108746116Y-122649973D01*
X108700000Y-122881810D01*
X108560000Y-122881810D01*
X108513884Y-122649973D01*
X108423426Y-122431587D01*
X108292101Y-122235045D01*
X108124955Y-122067899D01*
X107928413Y-121936574D01*
X107710027Y-121846116D01*
X107478190Y-121800000D01*
X107241810Y-121800000D01*
X107009973Y-121846116D01*
X106791587Y-121936574D01*
X106595045Y-122067899D01*
X106427899Y-122235045D01*
X106296574Y-122431587D01*
X106206116Y-122649973D01*
X106160000Y-122881810D01*
X106020000Y-122881810D01*
X105973884Y-122649973D01*
X105883426Y-122431587D01*
X105752101Y-122235045D01*
X105584955Y-122067899D01*
X105388413Y-121936574D01*
X105170027Y-121846116D01*
X104938190Y-121800000D01*
X104701810Y-121800000D01*
X104469973Y-121846116D01*
X104251587Y-121936574D01*
X104055045Y-122067899D01*
X103887899Y-122235045D01*
X103756574Y-122431587D01*
X103666116Y-122649973D01*
X103620000Y-122881810D01*
X103480000Y-122881810D01*
X103433884Y-122649973D01*
X103343426Y-122431587D01*
X103212101Y-122235045D01*
X103044955Y-122067899D01*
X102848413Y-121936574D01*
X102630027Y-121846116D01*
X102398190Y-121800000D01*
X102161810Y-121800000D01*
X101929973Y-121846116D01*
X101711587Y-121936574D01*
X101515045Y-122067899D01*
X101347899Y-122235045D01*
X101216574Y-122431587D01*
X101126116Y-122649973D01*
X101080000Y-122881810D01*
X100940000Y-122881810D01*
X100893884Y-122649973D01*
X100803426Y-122431587D01*
X100672101Y-122235045D01*
X100504955Y-122067899D01*
X100308413Y-121936574D01*
X100090027Y-121846116D01*
X99858190Y-121800000D01*
X99621810Y-121800000D01*
X99389973Y-121846116D01*
X99171587Y-121936574D01*
X98975045Y-122067899D01*
X98807899Y-122235045D01*
X98676574Y-122431587D01*
X98586116Y-122649973D01*
X98540000Y-122881810D01*
X98400000Y-122881810D01*
X98353884Y-122649973D01*
X98263426Y-122431587D01*
X98132101Y-122235045D01*
X97964955Y-122067899D01*
X97768413Y-121936574D01*
X97550027Y-121846116D01*
X97318190Y-121800000D01*
X97081810Y-121800000D01*
X96849973Y-121846116D01*
X96631587Y-121936574D01*
X96435045Y-122067899D01*
X96267899Y-122235045D01*
X96136574Y-122431587D01*
X96046116Y-122649973D01*
X96000000Y-122881810D01*
X95860000Y-122881810D01*
X95813884Y-122649973D01*
X95723426Y-122431587D01*
X95592101Y-122235045D01*
X95424955Y-122067899D01*
X95228413Y-121936574D01*
X95010027Y-121846116D01*
X94778190Y-121800000D01*
X94541810Y-121800000D01*
X94309973Y-121846116D01*
X94091587Y-121936574D01*
X93895045Y-122067899D01*
X93727899Y-122235045D01*
X93596574Y-122431587D01*
X93506116Y-122649973D01*
X93460000Y-122881810D01*
X93320000Y-122881810D01*
X93273884Y-122649973D01*
X93183426Y-122431587D01*
X93052101Y-122235045D01*
X92884955Y-122067899D01*
X92688413Y-121936574D01*
X92470027Y-121846116D01*
X92238190Y-121800000D01*
X92001810Y-121800000D01*
X91769973Y-121846116D01*
X91551587Y-121936574D01*
X91355045Y-122067899D01*
X91187899Y-122235045D01*
X91056574Y-122431587D01*
X90966116Y-122649973D01*
X90920000Y-122881810D01*
X85975000Y-122881810D01*
X85975000Y-104767221D01*
X89101100Y-104767221D01*
X89101100Y-105239979D01*
X89193330Y-105703654D01*
X89374247Y-106140426D01*
X89636898Y-106533511D01*
X89971189Y-106867802D01*
X90364274Y-107130453D01*
X90801046Y-107311370D01*
X91264721Y-107403600D01*
X91737479Y-107403600D01*
X92201154Y-107311370D01*
X92637926Y-107130453D01*
X93031011Y-106867802D01*
X93365302Y-106533511D01*
X93627953Y-106140426D01*
X93808870Y-105703654D01*
X93901100Y-105239979D01*
X93901100Y-104767221D01*
X93808870Y-104303546D01*
X93627953Y-103866774D01*
X93365302Y-103473689D01*
X93031011Y-103139398D01*
X92637926Y-102876747D01*
X92201154Y-102695830D01*
X91737479Y-102603600D01*
X91264721Y-102603600D01*
X90801046Y-102695830D01*
X90364274Y-102876747D01*
X89971189Y-103139398D01*
X89636898Y-103473689D01*
X89374247Y-103866774D01*
X89193330Y-104303546D01*
X89101100Y-104767221D01*
X85975000Y-104767221D01*
X85975000Y-102389153D01*
X106089100Y-102389153D01*
X106089100Y-102618047D01*
X106133755Y-102842543D01*
X106221349Y-103054013D01*
X106348516Y-103244332D01*
X106510368Y-103406184D01*
X106700687Y-103533351D01*
X106912157Y-103620945D01*
X107136653Y-103665600D01*
X107365547Y-103665600D01*
X107590043Y-103620945D01*
X107801513Y-103533351D01*
X107991832Y-103406184D01*
X108153684Y-103244332D01*
X108280851Y-103054013D01*
X108368445Y-102842543D01*
X108413100Y-102618047D01*
X108413100Y-102389153D01*
X108589100Y-102389153D01*
X108589100Y-102618047D01*
X108633755Y-102842543D01*
X108721349Y-103054013D01*
X108848516Y-103244332D01*
X109010368Y-103406184D01*
X109200687Y-103533351D01*
X109412157Y-103620945D01*
X109636653Y-103665600D01*
X109865547Y-103665600D01*
X110090043Y-103620945D01*
X110301513Y-103533351D01*
X110491832Y-103406184D01*
X110653684Y-103244332D01*
X110780851Y-103054013D01*
X110868445Y-102842543D01*
X110913100Y-102618047D01*
X110913100Y-102389153D01*
X111089100Y-102389153D01*
X111089100Y-102618047D01*
X111133755Y-102842543D01*
X111221349Y-103054013D01*
X111348516Y-103244332D01*
X111510368Y-103406184D01*
X111700687Y-103533351D01*
X111912157Y-103620945D01*
X112136653Y-103665600D01*
X112365547Y-103665600D01*
X112590043Y-103620945D01*
X112801513Y-103533351D01*
X112991832Y-103406184D01*
X113153684Y-103244332D01*
X113280851Y-103054013D01*
X113368445Y-102842543D01*
X113413100Y-102618047D01*
X113413100Y-102389153D01*
X113368445Y-102164657D01*
X113280851Y-101953187D01*
X113153684Y-101762868D01*
X112991832Y-101601016D01*
X112801513Y-101473849D01*
X112590043Y-101386255D01*
X112365547Y-101341600D01*
X112136653Y-101341600D01*
X111912157Y-101386255D01*
X111700687Y-101473849D01*
X111510368Y-101601016D01*
X111348516Y-101762868D01*
X111221349Y-101953187D01*
X111133755Y-102164657D01*
X111089100Y-102389153D01*
X110913100Y-102389153D01*
X110868445Y-102164657D01*
X110780851Y-101953187D01*
X110653684Y-101762868D01*
X110491832Y-101601016D01*
X110301513Y-101473849D01*
X110090043Y-101386255D01*
X109865547Y-101341600D01*
X109636653Y-101341600D01*
X109412157Y-101386255D01*
X109200687Y-101473849D01*
X109010368Y-101601016D01*
X108848516Y-101762868D01*
X108721349Y-101953187D01*
X108633755Y-102164657D01*
X108589100Y-102389153D01*
X108413100Y-102389153D01*
X108368445Y-102164657D01*
X108280851Y-101953187D01*
X108153684Y-101762868D01*
X107991832Y-101601016D01*
X107801513Y-101473849D01*
X107590043Y-101386255D01*
X107365547Y-101341600D01*
X107136653Y-101341600D01*
X106912157Y-101386255D01*
X106700687Y-101473849D01*
X106510368Y-101601016D01*
X106348516Y-101762868D01*
X106221349Y-101953187D01*
X106133755Y-102164657D01*
X106089100Y-102389153D01*
X85975000Y-102389153D01*
X85975000Y-95763621D01*
X89100000Y-95763621D01*
X89100000Y-96236379D01*
X89192230Y-96700054D01*
X89373147Y-97136826D01*
X89635798Y-97529911D01*
X89970089Y-97864202D01*
X90363174Y-98126853D01*
X90799946Y-98307770D01*
X91263621Y-98400000D01*
X91736379Y-98400000D01*
X92200054Y-98307770D01*
X92636826Y-98126853D01*
X93029911Y-97864202D01*
X93364202Y-97529911D01*
X93626853Y-97136826D01*
X93807770Y-96700054D01*
X93900000Y-96236379D01*
X93900000Y-95763621D01*
X203100000Y-95763621D01*
X203100000Y-96236379D01*
X203192230Y-96700054D01*
X203373147Y-97136826D01*
X203635798Y-97529911D01*
X203970089Y-97864202D01*
X204363174Y-98126853D01*
X204799946Y-98307770D01*
X205263621Y-98400000D01*
X205736379Y-98400000D01*
X206200054Y-98307770D01*
X206636826Y-98126853D01*
X207029911Y-97864202D01*
X207364202Y-97529911D01*
X207626853Y-97136826D01*
X207807770Y-96700054D01*
X207900000Y-96236379D01*
X207900000Y-95763621D01*
X207807770Y-95299946D01*
X207626853Y-94863174D01*
X207364202Y-94470089D01*
X207029911Y-94135798D01*
X206636826Y-93873147D01*
X206200054Y-93692230D01*
X205736379Y-93600000D01*
X205263621Y-93600000D01*
X204799946Y-93692230D01*
X204363174Y-93873147D01*
X203970089Y-94135798D01*
X203635798Y-94470089D01*
X203373147Y-94863174D01*
X203192230Y-95299946D01*
X203100000Y-95763621D01*
X93900000Y-95763621D01*
X93807770Y-95299946D01*
X93626853Y-94863174D01*
X93364202Y-94470089D01*
X93029911Y-94135798D01*
X92636826Y-93873147D01*
X92200054Y-93692230D01*
X91736379Y-93600000D01*
X91263621Y-93600000D01*
X90799946Y-93692230D01*
X90363174Y-93873147D01*
X89970089Y-94135798D01*
X89635798Y-94470089D01*
X89373147Y-94863174D01*
X89192230Y-95299946D01*
X89100000Y-95763621D01*
X85975000Y-95763621D01*
X85975000Y-91975000D01*
X211025001Y-91975000D01*
X211025001Y-118231685D01*
G36*
X191025000Y-136867462D02*
G01*
X191025000Y-137424220D01*
X191022461Y-137450000D01*
X191025000Y-137475780D01*
X191025000Y-137475787D01*
X191032597Y-137552917D01*
X191062617Y-137651880D01*
X191111367Y-137743086D01*
X191176973Y-137823027D01*
X191197010Y-137839471D01*
X192360534Y-139002996D01*
X192376973Y-139023027D01*
X192456914Y-139088633D01*
X192548119Y-139137383D01*
X192647082Y-139167403D01*
X192724212Y-139175000D01*
X192724219Y-139175000D01*
X192749999Y-139177539D01*
X192775779Y-139175000D01*
X197782538Y-139175000D01*
X193082484Y-143875055D01*
X183967406Y-143875055D01*
X187390527Y-140451935D01*
X187550000Y-140451935D01*
X187628414Y-140444212D01*
X187703814Y-140421340D01*
X187773303Y-140384197D01*
X187834211Y-140334211D01*
X187884197Y-140273303D01*
X187921340Y-140203814D01*
X187944212Y-140128414D01*
X187951935Y-140050000D01*
X187951935Y-138550000D01*
X187944212Y-138471586D01*
X187921340Y-138396186D01*
X187884197Y-138326697D01*
X187834211Y-138265789D01*
X187773303Y-138215803D01*
X187747358Y-138201935D01*
X188150000Y-138201935D01*
X188228414Y-138194212D01*
X188303814Y-138171340D01*
X188373303Y-138134197D01*
X188434211Y-138084211D01*
X188484197Y-138023303D01*
X188521340Y-137953814D01*
X188544212Y-137878414D01*
X188551935Y-137800000D01*
X188551935Y-136300000D01*
X188544212Y-136221586D01*
X188521340Y-136146186D01*
X188510016Y-136125000D01*
X190282539Y-136125000D01*
X191025000Y-136867462D01*
G37*
X191025000Y-136867462D02*
X191025000Y-137424220D01*
X191022461Y-137450000D01*
X191025000Y-137475780D01*
X191025000Y-137475787D01*
X191032597Y-137552917D01*
X191062617Y-137651880D01*
X191111367Y-137743086D01*
X191176973Y-137823027D01*
X191197010Y-137839471D01*
X192360534Y-139002996D01*
X192376973Y-139023027D01*
X192456914Y-139088633D01*
X192548119Y-139137383D01*
X192647082Y-139167403D01*
X192724212Y-139175000D01*
X192724219Y-139175000D01*
X192749999Y-139177539D01*
X192775779Y-139175000D01*
X197782538Y-139175000D01*
X193082484Y-143875055D01*
X183967406Y-143875055D01*
X187390527Y-140451935D01*
X187550000Y-140451935D01*
X187628414Y-140444212D01*
X187703814Y-140421340D01*
X187773303Y-140384197D01*
X187834211Y-140334211D01*
X187884197Y-140273303D01*
X187921340Y-140203814D01*
X187944212Y-140128414D01*
X187951935Y-140050000D01*
X187951935Y-138550000D01*
X187944212Y-138471586D01*
X187921340Y-138396186D01*
X187884197Y-138326697D01*
X187834211Y-138265789D01*
X187773303Y-138215803D01*
X187747358Y-138201935D01*
X188150000Y-138201935D01*
X188228414Y-138194212D01*
X188303814Y-138171340D01*
X188373303Y-138134197D01*
X188434211Y-138084211D01*
X188484197Y-138023303D01*
X188521340Y-137953814D01*
X188544212Y-137878414D01*
X188551935Y-137800000D01*
X188551935Y-136300000D01*
X188544212Y-136221586D01*
X188521340Y-136146186D01*
X188510016Y-136125000D01*
X190282539Y-136125000D01*
X191025000Y-136867462D01*
G36*
X175125000Y-137574220D02*
G01*
X175122461Y-137600000D01*
X175125000Y-137625780D01*
X175125000Y-137625787D01*
X175132597Y-137702917D01*
X175162617Y-137801880D01*
X175211367Y-137893086D01*
X175276973Y-137973027D01*
X175297010Y-137989471D01*
X176960534Y-139652996D01*
X176976973Y-139673027D01*
X177056914Y-139738633D01*
X177148119Y-139787383D01*
X177247082Y-139817403D01*
X177324212Y-139825000D01*
X177324219Y-139825000D01*
X177349999Y-139827539D01*
X177375779Y-139825000D01*
X184698065Y-139825000D01*
X184698065Y-140050000D01*
X184705788Y-140128414D01*
X184728660Y-140203814D01*
X184765803Y-140273303D01*
X184815789Y-140334211D01*
X184876697Y-140384197D01*
X184946186Y-140421340D01*
X185021586Y-140444212D01*
X185100000Y-140451935D01*
X185905603Y-140451935D01*
X182932495Y-143425044D01*
X164317419Y-143425044D01*
X169303001Y-138439464D01*
X169323027Y-138423029D01*
X169339462Y-138403003D01*
X169339466Y-138402999D01*
X169377286Y-138356914D01*
X169388633Y-138343088D01*
X169437383Y-138251883D01*
X169452535Y-138201935D01*
X169850000Y-138201935D01*
X169928414Y-138194212D01*
X169950000Y-138187664D01*
X169971586Y-138194212D01*
X170050000Y-138201935D01*
X170500000Y-138201935D01*
X170578414Y-138194212D01*
X170600000Y-138187664D01*
X170621586Y-138194212D01*
X170700000Y-138201935D01*
X171150000Y-138201935D01*
X171228414Y-138194212D01*
X171250000Y-138187664D01*
X171271586Y-138194212D01*
X171350000Y-138201935D01*
X171800000Y-138201935D01*
X171878414Y-138194212D01*
X171953814Y-138171340D01*
X172023303Y-138134197D01*
X172084211Y-138084211D01*
X172134197Y-138023303D01*
X172171340Y-137953814D01*
X172194212Y-137878414D01*
X172201935Y-137800000D01*
X172201935Y-136300000D01*
X172201086Y-136291376D01*
X175125001Y-133367461D01*
X175125000Y-137574220D01*
G37*
X175125000Y-137574220D02*
X175122461Y-137600000D01*
X175125000Y-137625780D01*
X175125000Y-137625787D01*
X175132597Y-137702917D01*
X175162617Y-137801880D01*
X175211367Y-137893086D01*
X175276973Y-137973027D01*
X175297010Y-137989471D01*
X176960534Y-139652996D01*
X176976973Y-139673027D01*
X177056914Y-139738633D01*
X177148119Y-139787383D01*
X177247082Y-139817403D01*
X177324212Y-139825000D01*
X177324219Y-139825000D01*
X177349999Y-139827539D01*
X177375779Y-139825000D01*
X184698065Y-139825000D01*
X184698065Y-140050000D01*
X184705788Y-140128414D01*
X184728660Y-140203814D01*
X184765803Y-140273303D01*
X184815789Y-140334211D01*
X184876697Y-140384197D01*
X184946186Y-140421340D01*
X185021586Y-140444212D01*
X185100000Y-140451935D01*
X185905603Y-140451935D01*
X182932495Y-143425044D01*
X164317419Y-143425044D01*
X169303001Y-138439464D01*
X169323027Y-138423029D01*
X169339462Y-138403003D01*
X169339466Y-138402999D01*
X169377286Y-138356914D01*
X169388633Y-138343088D01*
X169437383Y-138251883D01*
X169452535Y-138201935D01*
X169850000Y-138201935D01*
X169928414Y-138194212D01*
X169950000Y-138187664D01*
X169971586Y-138194212D01*
X170050000Y-138201935D01*
X170500000Y-138201935D01*
X170578414Y-138194212D01*
X170600000Y-138187664D01*
X170621586Y-138194212D01*
X170700000Y-138201935D01*
X171150000Y-138201935D01*
X171228414Y-138194212D01*
X171250000Y-138187664D01*
X171271586Y-138194212D01*
X171350000Y-138201935D01*
X171800000Y-138201935D01*
X171878414Y-138194212D01*
X171953814Y-138171340D01*
X172023303Y-138134197D01*
X172084211Y-138084211D01*
X172134197Y-138023303D01*
X172171340Y-137953814D01*
X172194212Y-137878414D01*
X172201935Y-137800000D01*
X172201935Y-136300000D01*
X172201086Y-136291376D01*
X175125001Y-133367461D01*
X175125000Y-137574220D01*
G36*
X159075000Y-136817462D02*
G01*
X159075000Y-137424220D01*
X159072461Y-137450000D01*
X159075000Y-137475780D01*
X159075000Y-137475788D01*
X159077673Y-137502918D01*
X159082597Y-137552917D01*
X159112617Y-137651880D01*
X159161367Y-137743085D01*
X159161368Y-137743086D01*
X159226974Y-137823027D01*
X159247005Y-137839466D01*
X160360512Y-138952974D01*
X160376951Y-138973005D01*
X160456892Y-139038611D01*
X160548097Y-139087361D01*
X160647060Y-139117381D01*
X160724190Y-139124978D01*
X160724197Y-139124978D01*
X160749977Y-139127517D01*
X160775757Y-139124978D01*
X165859740Y-139124978D01*
X162909708Y-142075011D01*
X153317450Y-142075011D01*
X154940527Y-140451935D01*
X155550000Y-140451935D01*
X155628414Y-140444212D01*
X155703814Y-140421340D01*
X155773303Y-140384197D01*
X155834211Y-140334211D01*
X155884197Y-140273303D01*
X155921340Y-140203814D01*
X155944212Y-140128414D01*
X155951935Y-140050000D01*
X155951935Y-138550000D01*
X155944212Y-138471586D01*
X155921340Y-138396186D01*
X155884197Y-138326697D01*
X155834211Y-138265789D01*
X155773303Y-138215803D01*
X155747358Y-138201935D01*
X156150000Y-138201935D01*
X156228414Y-138194212D01*
X156303814Y-138171340D01*
X156373303Y-138134197D01*
X156434211Y-138084211D01*
X156484197Y-138023303D01*
X156521340Y-137953814D01*
X156544212Y-137878414D01*
X156551935Y-137800000D01*
X156551935Y-136300000D01*
X156544212Y-136221586D01*
X156521340Y-136146186D01*
X156510016Y-136125000D01*
X158382539Y-136125000D01*
X159075000Y-136817462D01*
G37*
X159075000Y-136817462D02*
X159075000Y-137424220D01*
X159072461Y-137450000D01*
X159075000Y-137475780D01*
X159075000Y-137475788D01*
X159077673Y-137502918D01*
X159082597Y-137552917D01*
X159112617Y-137651880D01*
X159161367Y-137743085D01*
X159161368Y-137743086D01*
X159226974Y-137823027D01*
X159247005Y-137839466D01*
X160360512Y-138952974D01*
X160376951Y-138973005D01*
X160456892Y-139038611D01*
X160548097Y-139087361D01*
X160647060Y-139117381D01*
X160724190Y-139124978D01*
X160724197Y-139124978D01*
X160749977Y-139127517D01*
X160775757Y-139124978D01*
X165859740Y-139124978D01*
X162909708Y-142075011D01*
X153317450Y-142075011D01*
X154940527Y-140451935D01*
X155550000Y-140451935D01*
X155628414Y-140444212D01*
X155703814Y-140421340D01*
X155773303Y-140384197D01*
X155834211Y-140334211D01*
X155884197Y-140273303D01*
X155921340Y-140203814D01*
X155944212Y-140128414D01*
X155951935Y-140050000D01*
X155951935Y-138550000D01*
X155944212Y-138471586D01*
X155921340Y-138396186D01*
X155884197Y-138326697D01*
X155834211Y-138265789D01*
X155773303Y-138215803D01*
X155747358Y-138201935D01*
X156150000Y-138201935D01*
X156228414Y-138194212D01*
X156303814Y-138171340D01*
X156373303Y-138134197D01*
X156434211Y-138084211D01*
X156484197Y-138023303D01*
X156521340Y-137953814D01*
X156544212Y-137878414D01*
X156551935Y-137800000D01*
X156551935Y-136300000D01*
X156544212Y-136221586D01*
X156521340Y-136146186D01*
X156510016Y-136125000D01*
X158382539Y-136125000D01*
X159075000Y-136817462D01*
G36*
X143773016Y-136045791D02*
G01*
X143700000Y-136412866D01*
X143700000Y-136787134D01*
X143773016Y-137154209D01*
X143916242Y-137499987D01*
X144124174Y-137811179D01*
X144388821Y-138075826D01*
X144700013Y-138283758D01*
X145045791Y-138426984D01*
X145412866Y-138500000D01*
X145787134Y-138500000D01*
X146154209Y-138426984D01*
X146499987Y-138283758D01*
X146811179Y-138075826D01*
X147075826Y-137811179D01*
X147143571Y-137709791D01*
X147161367Y-137743085D01*
X147161368Y-137743086D01*
X147226974Y-137823027D01*
X147247005Y-137839466D01*
X148360534Y-138952996D01*
X148376973Y-138973027D01*
X148456914Y-139038633D01*
X148548119Y-139087383D01*
X148647082Y-139117403D01*
X148724212Y-139125000D01*
X148750000Y-139127540D01*
X148775788Y-139125000D01*
X150424220Y-139125000D01*
X150450000Y-139127539D01*
X150475780Y-139125000D01*
X150475788Y-139125000D01*
X150552918Y-139117403D01*
X150651881Y-139087383D01*
X150743086Y-139038633D01*
X150823027Y-138973027D01*
X150839471Y-138952990D01*
X152698065Y-137094398D01*
X152698065Y-137800000D01*
X152705788Y-137878414D01*
X152728660Y-137953814D01*
X152765803Y-138023303D01*
X152800001Y-138064973D01*
X152800001Y-138285027D01*
X152765803Y-138326697D01*
X152728660Y-138396186D01*
X152705788Y-138471586D01*
X152698065Y-138550000D01*
X152698065Y-140050000D01*
X152705788Y-140128414D01*
X152728660Y-140203814D01*
X152765803Y-140273303D01*
X152815789Y-140334211D01*
X152847392Y-140360147D01*
X152032539Y-141175000D01*
X142817462Y-141175000D01*
X142113321Y-140470860D01*
X142175000Y-140476935D01*
X143100000Y-140476935D01*
X143227186Y-140464408D01*
X143349485Y-140427309D01*
X143462196Y-140367064D01*
X143560988Y-140285988D01*
X143642064Y-140187196D01*
X143702309Y-140074485D01*
X143739408Y-139952186D01*
X143751935Y-139825000D01*
X143751935Y-138575000D01*
X143739408Y-138447814D01*
X143702309Y-138325515D01*
X143642064Y-138212804D01*
X143560988Y-138114012D01*
X143462196Y-138032936D01*
X143349485Y-137972691D01*
X143227186Y-137935592D01*
X143100000Y-137923065D01*
X142575000Y-137923065D01*
X142575000Y-137067461D01*
X143897711Y-135744750D01*
X143773016Y-136045791D01*
G37*
X143773016Y-136045791D02*
X143700000Y-136412866D01*
X143700000Y-136787134D01*
X143773016Y-137154209D01*
X143916242Y-137499987D01*
X144124174Y-137811179D01*
X144388821Y-138075826D01*
X144700013Y-138283758D01*
X145045791Y-138426984D01*
X145412866Y-138500000D01*
X145787134Y-138500000D01*
X146154209Y-138426984D01*
X146499987Y-138283758D01*
X146811179Y-138075826D01*
X147075826Y-137811179D01*
X147143571Y-137709791D01*
X147161367Y-137743085D01*
X147161368Y-137743086D01*
X147226974Y-137823027D01*
X147247005Y-137839466D01*
X148360534Y-138952996D01*
X148376973Y-138973027D01*
X148456914Y-139038633D01*
X148548119Y-139087383D01*
X148647082Y-139117403D01*
X148724212Y-139125000D01*
X148750000Y-139127540D01*
X148775788Y-139125000D01*
X150424220Y-139125000D01*
X150450000Y-139127539D01*
X150475780Y-139125000D01*
X150475788Y-139125000D01*
X150552918Y-139117403D01*
X150651881Y-139087383D01*
X150743086Y-139038633D01*
X150823027Y-138973027D01*
X150839471Y-138952990D01*
X152698065Y-137094398D01*
X152698065Y-137800000D01*
X152705788Y-137878414D01*
X152728660Y-137953814D01*
X152765803Y-138023303D01*
X152800001Y-138064973D01*
X152800001Y-138285027D01*
X152765803Y-138326697D01*
X152728660Y-138396186D01*
X152705788Y-138471586D01*
X152698065Y-138550000D01*
X152698065Y-140050000D01*
X152705788Y-140128414D01*
X152728660Y-140203814D01*
X152765803Y-140273303D01*
X152815789Y-140334211D01*
X152847392Y-140360147D01*
X152032539Y-141175000D01*
X142817462Y-141175000D01*
X142113321Y-140470860D01*
X142175000Y-140476935D01*
X143100000Y-140476935D01*
X143227186Y-140464408D01*
X143349485Y-140427309D01*
X143462196Y-140367064D01*
X143560988Y-140285988D01*
X143642064Y-140187196D01*
X143702309Y-140074485D01*
X143739408Y-139952186D01*
X143751935Y-139825000D01*
X143751935Y-138575000D01*
X143739408Y-138447814D01*
X143702309Y-138325515D01*
X143642064Y-138212804D01*
X143560988Y-138114012D01*
X143462196Y-138032936D01*
X143349485Y-137972691D01*
X143227186Y-137935592D01*
X143100000Y-137923065D01*
X142575000Y-137923065D01*
X142575000Y-137067461D01*
X143897711Y-135744750D01*
X143773016Y-136045791D01*
G36*
X153700000Y-113579899D02*
G01*
X153700000Y-114518776D01*
X153700001Y-114518786D01*
X153700000Y-122520101D01*
X149520102Y-126700000D01*
X149412866Y-126700000D01*
X149045791Y-126773016D01*
X148700013Y-126916242D01*
X148388821Y-127124174D01*
X148124174Y-127388821D01*
X147916242Y-127700013D01*
X147773016Y-128045791D01*
X147700000Y-128412866D01*
X147700000Y-128787134D01*
X147773016Y-129154209D01*
X147916242Y-129499987D01*
X148124174Y-129811179D01*
X148388821Y-130075826D01*
X148490208Y-130143571D01*
X148456914Y-130161367D01*
X148376973Y-130226973D01*
X148360534Y-130247004D01*
X147247005Y-131360534D01*
X147226974Y-131376973D01*
X147210535Y-131397004D01*
X147161367Y-131456915D01*
X147143571Y-131490209D01*
X147075826Y-131388821D01*
X146811179Y-131124174D01*
X146499987Y-130916242D01*
X146154209Y-130773016D01*
X145787134Y-130700000D01*
X145412866Y-130700000D01*
X145045791Y-130773016D01*
X144700013Y-130916242D01*
X144388821Y-131124174D01*
X144124174Y-131388821D01*
X143916242Y-131700013D01*
X143773016Y-132045791D01*
X143700000Y-132412866D01*
X143700000Y-132787134D01*
X143773016Y-133154209D01*
X143916242Y-133499987D01*
X144124174Y-133811179D01*
X144235267Y-133922272D01*
X141975000Y-136182539D01*
X141975000Y-127638528D01*
X142060314Y-127664408D01*
X142187500Y-127676935D01*
X143112500Y-127676935D01*
X143239686Y-127664408D01*
X143361985Y-127627309D01*
X143474696Y-127567064D01*
X143573488Y-127485988D01*
X143650133Y-127392595D01*
X143932788Y-127675250D01*
X143916242Y-127700013D01*
X143773016Y-128045791D01*
X143700000Y-128412866D01*
X143700000Y-128787134D01*
X143773016Y-129154209D01*
X143916242Y-129499987D01*
X144124174Y-129811179D01*
X144388821Y-130075826D01*
X144700013Y-130283758D01*
X145045791Y-130426984D01*
X145412866Y-130500000D01*
X145787134Y-130500000D01*
X146154209Y-130426984D01*
X146499987Y-130283758D01*
X146811179Y-130075826D01*
X147075826Y-129811179D01*
X147283758Y-129499987D01*
X147426984Y-129154209D01*
X147500000Y-128787134D01*
X147500000Y-128412866D01*
X147426984Y-128045791D01*
X147283758Y-127700013D01*
X147075826Y-127388821D01*
X146811179Y-127124174D01*
X146499987Y-126916242D01*
X146154209Y-126773016D01*
X145787134Y-126700000D01*
X145412866Y-126700000D01*
X145045791Y-126773016D01*
X144700013Y-126916242D01*
X144675250Y-126932788D01*
X143789471Y-126047010D01*
X143773027Y-126026973D01*
X143764435Y-126019922D01*
X143764435Y-125775000D01*
X143751908Y-125647814D01*
X143714809Y-125525515D01*
X143654564Y-125412804D01*
X143573488Y-125314012D01*
X143474696Y-125232936D01*
X143361985Y-125172691D01*
X143239686Y-125135592D01*
X143112500Y-125123065D01*
X142193660Y-125123065D01*
X147452996Y-119863730D01*
X147473027Y-119847291D01*
X147538633Y-119767350D01*
X147587383Y-119676145D01*
X147617403Y-119577182D01*
X147625000Y-119500052D01*
X147625000Y-119500051D01*
X147627540Y-119474264D01*
X147625000Y-119448476D01*
X147625000Y-118314950D01*
X147643726Y-118296224D01*
X147720332Y-118181574D01*
X147773099Y-118054182D01*
X147800000Y-117918944D01*
X147800000Y-117781056D01*
X147773099Y-117645818D01*
X147720332Y-117518426D01*
X147643726Y-117403776D01*
X147546224Y-117306274D01*
X147431574Y-117229668D01*
X147304182Y-117176901D01*
X147168944Y-117150000D01*
X147031056Y-117150000D01*
X147000000Y-117156178D01*
X147000000Y-113779898D01*
X148129899Y-112650000D01*
X152770102Y-112650000D01*
X153700000Y-113579899D01*
G37*
X153700000Y-113579899D02*
X153700000Y-114518776D01*
X153700001Y-114518786D01*
X153700000Y-122520101D01*
X149520102Y-126700000D01*
X149412866Y-126700000D01*
X149045791Y-126773016D01*
X148700013Y-126916242D01*
X148388821Y-127124174D01*
X148124174Y-127388821D01*
X147916242Y-127700013D01*
X147773016Y-128045791D01*
X147700000Y-128412866D01*
X147700000Y-128787134D01*
X147773016Y-129154209D01*
X147916242Y-129499987D01*
X148124174Y-129811179D01*
X148388821Y-130075826D01*
X148490208Y-130143571D01*
X148456914Y-130161367D01*
X148376973Y-130226973D01*
X148360534Y-130247004D01*
X147247005Y-131360534D01*
X147226974Y-131376973D01*
X147210535Y-131397004D01*
X147161367Y-131456915D01*
X147143571Y-131490209D01*
X147075826Y-131388821D01*
X146811179Y-131124174D01*
X146499987Y-130916242D01*
X146154209Y-130773016D01*
X145787134Y-130700000D01*
X145412866Y-130700000D01*
X145045791Y-130773016D01*
X144700013Y-130916242D01*
X144388821Y-131124174D01*
X144124174Y-131388821D01*
X143916242Y-131700013D01*
X143773016Y-132045791D01*
X143700000Y-132412866D01*
X143700000Y-132787134D01*
X143773016Y-133154209D01*
X143916242Y-133499987D01*
X144124174Y-133811179D01*
X144235267Y-133922272D01*
X141975000Y-136182539D01*
X141975000Y-127638528D01*
X142060314Y-127664408D01*
X142187500Y-127676935D01*
X143112500Y-127676935D01*
X143239686Y-127664408D01*
X143361985Y-127627309D01*
X143474696Y-127567064D01*
X143573488Y-127485988D01*
X143650133Y-127392595D01*
X143932788Y-127675250D01*
X143916242Y-127700013D01*
X143773016Y-128045791D01*
X143700000Y-128412866D01*
X143700000Y-128787134D01*
X143773016Y-129154209D01*
X143916242Y-129499987D01*
X144124174Y-129811179D01*
X144388821Y-130075826D01*
X144700013Y-130283758D01*
X145045791Y-130426984D01*
X145412866Y-130500000D01*
X145787134Y-130500000D01*
X146154209Y-130426984D01*
X146499987Y-130283758D01*
X146811179Y-130075826D01*
X147075826Y-129811179D01*
X147283758Y-129499987D01*
X147426984Y-129154209D01*
X147500000Y-128787134D01*
X147500000Y-128412866D01*
X147426984Y-128045791D01*
X147283758Y-127700013D01*
X147075826Y-127388821D01*
X146811179Y-127124174D01*
X146499987Y-126916242D01*
X146154209Y-126773016D01*
X145787134Y-126700000D01*
X145412866Y-126700000D01*
X145045791Y-126773016D01*
X144700013Y-126916242D01*
X144675250Y-126932788D01*
X143789471Y-126047010D01*
X143773027Y-126026973D01*
X143764435Y-126019922D01*
X143764435Y-125775000D01*
X143751908Y-125647814D01*
X143714809Y-125525515D01*
X143654564Y-125412804D01*
X143573488Y-125314012D01*
X143474696Y-125232936D01*
X143361985Y-125172691D01*
X143239686Y-125135592D01*
X143112500Y-125123065D01*
X142193660Y-125123065D01*
X147452996Y-119863730D01*
X147473027Y-119847291D01*
X147538633Y-119767350D01*
X147587383Y-119676145D01*
X147617403Y-119577182D01*
X147625000Y-119500052D01*
X147625000Y-119500051D01*
X147627540Y-119474264D01*
X147625000Y-119448476D01*
X147625000Y-118314950D01*
X147643726Y-118296224D01*
X147720332Y-118181574D01*
X147773099Y-118054182D01*
X147800000Y-117918944D01*
X147800000Y-117781056D01*
X147773099Y-117645818D01*
X147720332Y-117518426D01*
X147643726Y-117403776D01*
X147546224Y-117306274D01*
X147431574Y-117229668D01*
X147304182Y-117176901D01*
X147168944Y-117150000D01*
X147031056Y-117150000D01*
X147000000Y-117156178D01*
X147000000Y-113779898D01*
X148129899Y-112650000D01*
X152770102Y-112650000D01*
X153700000Y-113579899D01*
G36*
X169300000Y-113729899D02*
G01*
X169300000Y-113918776D01*
X169300001Y-113918786D01*
X169300000Y-122970101D01*
X165570102Y-126700000D01*
X165412866Y-126700000D01*
X165045791Y-126773016D01*
X164700013Y-126916242D01*
X164388821Y-127124174D01*
X164124174Y-127388821D01*
X163916242Y-127700013D01*
X163773016Y-128045791D01*
X163700000Y-128412866D01*
X163700000Y-128787134D01*
X163773016Y-129154209D01*
X163916242Y-129499987D01*
X164124174Y-129811179D01*
X164387995Y-130075000D01*
X162812005Y-130075000D01*
X163075826Y-129811179D01*
X163283758Y-129499987D01*
X163426984Y-129154209D01*
X163500000Y-128787134D01*
X163500000Y-128412866D01*
X163426984Y-128045791D01*
X163283758Y-127700013D01*
X163075826Y-127388821D01*
X162811179Y-127124174D01*
X162499987Y-126916242D01*
X162154209Y-126773016D01*
X161787134Y-126700000D01*
X161412866Y-126700000D01*
X161045791Y-126773016D01*
X160700013Y-126916242D01*
X160388821Y-127124174D01*
X160124174Y-127388821D01*
X159916242Y-127700013D01*
X159773016Y-128045791D01*
X159700000Y-128412866D01*
X159700000Y-128787134D01*
X159773016Y-129154209D01*
X159916242Y-129499987D01*
X160124174Y-129811179D01*
X160387995Y-130075000D01*
X160325788Y-130075000D01*
X160300000Y-130072460D01*
X160274212Y-130075000D01*
X160197082Y-130082597D01*
X160098119Y-130112617D01*
X160006914Y-130161367D01*
X159926973Y-130226973D01*
X159910534Y-130247004D01*
X158501935Y-131655604D01*
X158501935Y-130400000D01*
X158494212Y-130321586D01*
X158471340Y-130246186D01*
X158434197Y-130176697D01*
X158406016Y-130142358D01*
X158406016Y-116595145D01*
X158424742Y-116576419D01*
X158501348Y-116461769D01*
X158554115Y-116334377D01*
X158581016Y-116199139D01*
X158581016Y-116061251D01*
X158554115Y-115926013D01*
X158501348Y-115798621D01*
X158424742Y-115683971D01*
X158327240Y-115586469D01*
X158212590Y-115509863D01*
X158085198Y-115457096D01*
X157949960Y-115430195D01*
X157812072Y-115430195D01*
X157676834Y-115457096D01*
X157549442Y-115509863D01*
X157434792Y-115586469D01*
X157337290Y-115683971D01*
X157260684Y-115798621D01*
X157239402Y-115850000D01*
X157131056Y-115850000D01*
X156995818Y-115876901D01*
X156868426Y-115929668D01*
X156753776Y-116006274D01*
X156656274Y-116103776D01*
X156579668Y-116218426D01*
X156526901Y-116345818D01*
X156500000Y-116481056D01*
X156500000Y-113579898D01*
X157429899Y-112650000D01*
X168220102Y-112650000D01*
X169300000Y-113729899D01*
G37*
X169300000Y-113729899D02*
X169300000Y-113918776D01*
X169300001Y-113918786D01*
X169300000Y-122970101D01*
X165570102Y-126700000D01*
X165412866Y-126700000D01*
X165045791Y-126773016D01*
X164700013Y-126916242D01*
X164388821Y-127124174D01*
X164124174Y-127388821D01*
X163916242Y-127700013D01*
X163773016Y-128045791D01*
X163700000Y-128412866D01*
X163700000Y-128787134D01*
X163773016Y-129154209D01*
X163916242Y-129499987D01*
X164124174Y-129811179D01*
X164387995Y-130075000D01*
X162812005Y-130075000D01*
X163075826Y-129811179D01*
X163283758Y-129499987D01*
X163426984Y-129154209D01*
X163500000Y-128787134D01*
X163500000Y-128412866D01*
X163426984Y-128045791D01*
X163283758Y-127700013D01*
X163075826Y-127388821D01*
X162811179Y-127124174D01*
X162499987Y-126916242D01*
X162154209Y-126773016D01*
X161787134Y-126700000D01*
X161412866Y-126700000D01*
X161045791Y-126773016D01*
X160700013Y-126916242D01*
X160388821Y-127124174D01*
X160124174Y-127388821D01*
X159916242Y-127700013D01*
X159773016Y-128045791D01*
X159700000Y-128412866D01*
X159700000Y-128787134D01*
X159773016Y-129154209D01*
X159916242Y-129499987D01*
X160124174Y-129811179D01*
X160387995Y-130075000D01*
X160325788Y-130075000D01*
X160300000Y-130072460D01*
X160274212Y-130075000D01*
X160197082Y-130082597D01*
X160098119Y-130112617D01*
X160006914Y-130161367D01*
X159926973Y-130226973D01*
X159910534Y-130247004D01*
X158501935Y-131655604D01*
X158501935Y-130400000D01*
X158494212Y-130321586D01*
X158471340Y-130246186D01*
X158434197Y-130176697D01*
X158406016Y-130142358D01*
X158406016Y-116595145D01*
X158424742Y-116576419D01*
X158501348Y-116461769D01*
X158554115Y-116334377D01*
X158581016Y-116199139D01*
X158581016Y-116061251D01*
X158554115Y-115926013D01*
X158501348Y-115798621D01*
X158424742Y-115683971D01*
X158327240Y-115586469D01*
X158212590Y-115509863D01*
X158085198Y-115457096D01*
X157949960Y-115430195D01*
X157812072Y-115430195D01*
X157676834Y-115457096D01*
X157549442Y-115509863D01*
X157434792Y-115586469D01*
X157337290Y-115683971D01*
X157260684Y-115798621D01*
X157239402Y-115850000D01*
X157131056Y-115850000D01*
X156995818Y-115876901D01*
X156868426Y-115929668D01*
X156753776Y-116006274D01*
X156656274Y-116103776D01*
X156579668Y-116218426D01*
X156526901Y-116345818D01*
X156500000Y-116481056D01*
X156500000Y-113579898D01*
X157429899Y-112650000D01*
X168220102Y-112650000D01*
X169300000Y-113729899D01*
G36*
X196200000Y-117179899D02*
G01*
X196200001Y-127312994D01*
X196124174Y-127388821D01*
X195916242Y-127700013D01*
X195773016Y-128045791D01*
X195700000Y-128412866D01*
X195700000Y-128787134D01*
X195773016Y-129154209D01*
X195916242Y-129499987D01*
X196124174Y-129811179D01*
X196387995Y-130075000D01*
X194812005Y-130075000D01*
X195075826Y-129811179D01*
X195283758Y-129499987D01*
X195426984Y-129154209D01*
X195500000Y-128787134D01*
X195500000Y-128412866D01*
X195426984Y-128045791D01*
X195283758Y-127700013D01*
X195075826Y-127388821D01*
X194811179Y-127124174D01*
X194499987Y-126916242D01*
X194154209Y-126773016D01*
X193787134Y-126700000D01*
X193412866Y-126700000D01*
X193045791Y-126773016D01*
X192700013Y-126916242D01*
X192388821Y-127124174D01*
X192124174Y-127388821D01*
X191916242Y-127700013D01*
X191773016Y-128045791D01*
X191700000Y-128412866D01*
X191700000Y-128787134D01*
X191773016Y-129154209D01*
X191916242Y-129499987D01*
X192124174Y-129811179D01*
X192387995Y-130075000D01*
X192275779Y-130075000D01*
X192249999Y-130072461D01*
X192224219Y-130075000D01*
X192224212Y-130075000D01*
X192147082Y-130082597D01*
X192048119Y-130112617D01*
X191956914Y-130161367D01*
X191876973Y-130226973D01*
X191860534Y-130247004D01*
X190501935Y-131605604D01*
X190501935Y-130400000D01*
X190494212Y-130321586D01*
X190471340Y-130246186D01*
X190434197Y-130176697D01*
X190400000Y-130135028D01*
X190400000Y-116886834D01*
X190470332Y-116781574D01*
X190523099Y-116654182D01*
X190550000Y-116518944D01*
X190550000Y-116381056D01*
X190523099Y-116245818D01*
X190470332Y-116118426D01*
X190393726Y-116003776D01*
X190296224Y-115906274D01*
X190181574Y-115829668D01*
X190054182Y-115776901D01*
X189918944Y-115750000D01*
X189781056Y-115750000D01*
X189645818Y-115776901D01*
X189518426Y-115829668D01*
X189403776Y-115906274D01*
X189306274Y-116003776D01*
X189229668Y-116118426D01*
X189176901Y-116245818D01*
X189161847Y-116321499D01*
X189054182Y-116276903D01*
X188918944Y-116250002D01*
X188781056Y-116250002D01*
X188645818Y-116276903D01*
X188518426Y-116329670D01*
X188475000Y-116358686D01*
X188475000Y-115438876D01*
X188554481Y-115423066D01*
X188681873Y-115370299D01*
X188796523Y-115293693D01*
X188894025Y-115196191D01*
X188970631Y-115081541D01*
X189023398Y-114954149D01*
X189050299Y-114818911D01*
X189050299Y-114681023D01*
X189023398Y-114545785D01*
X188970631Y-114418393D01*
X188894025Y-114303743D01*
X188796523Y-114206241D01*
X188681873Y-114129635D01*
X188554481Y-114076868D01*
X188419243Y-114049967D01*
X188281355Y-114049967D01*
X188146117Y-114076868D01*
X188018725Y-114129635D01*
X188000000Y-114142147D01*
X188000000Y-113779898D01*
X189129899Y-112650000D01*
X191670102Y-112650000D01*
X196200000Y-117179899D01*
G37*
X196200000Y-117179899D02*
X196200001Y-127312994D01*
X196124174Y-127388821D01*
X195916242Y-127700013D01*
X195773016Y-128045791D01*
X195700000Y-128412866D01*
X195700000Y-128787134D01*
X195773016Y-129154209D01*
X195916242Y-129499987D01*
X196124174Y-129811179D01*
X196387995Y-130075000D01*
X194812005Y-130075000D01*
X195075826Y-129811179D01*
X195283758Y-129499987D01*
X195426984Y-129154209D01*
X195500000Y-128787134D01*
X195500000Y-128412866D01*
X195426984Y-128045791D01*
X195283758Y-127700013D01*
X195075826Y-127388821D01*
X194811179Y-127124174D01*
X194499987Y-126916242D01*
X194154209Y-126773016D01*
X193787134Y-126700000D01*
X193412866Y-126700000D01*
X193045791Y-126773016D01*
X192700013Y-126916242D01*
X192388821Y-127124174D01*
X192124174Y-127388821D01*
X191916242Y-127700013D01*
X191773016Y-128045791D01*
X191700000Y-128412866D01*
X191700000Y-128787134D01*
X191773016Y-129154209D01*
X191916242Y-129499987D01*
X192124174Y-129811179D01*
X192387995Y-130075000D01*
X192275779Y-130075000D01*
X192249999Y-130072461D01*
X192224219Y-130075000D01*
X192224212Y-130075000D01*
X192147082Y-130082597D01*
X192048119Y-130112617D01*
X191956914Y-130161367D01*
X191876973Y-130226973D01*
X191860534Y-130247004D01*
X190501935Y-131605604D01*
X190501935Y-130400000D01*
X190494212Y-130321586D01*
X190471340Y-130246186D01*
X190434197Y-130176697D01*
X190400000Y-130135028D01*
X190400000Y-116886834D01*
X190470332Y-116781574D01*
X190523099Y-116654182D01*
X190550000Y-116518944D01*
X190550000Y-116381056D01*
X190523099Y-116245818D01*
X190470332Y-116118426D01*
X190393726Y-116003776D01*
X190296224Y-115906274D01*
X190181574Y-115829668D01*
X190054182Y-115776901D01*
X189918944Y-115750000D01*
X189781056Y-115750000D01*
X189645818Y-115776901D01*
X189518426Y-115829668D01*
X189403776Y-115906274D01*
X189306274Y-116003776D01*
X189229668Y-116118426D01*
X189176901Y-116245818D01*
X189161847Y-116321499D01*
X189054182Y-116276903D01*
X188918944Y-116250002D01*
X188781056Y-116250002D01*
X188645818Y-116276903D01*
X188518426Y-116329670D01*
X188475000Y-116358686D01*
X188475000Y-115438876D01*
X188554481Y-115423066D01*
X188681873Y-115370299D01*
X188796523Y-115293693D01*
X188894025Y-115196191D01*
X188970631Y-115081541D01*
X189023398Y-114954149D01*
X189050299Y-114818911D01*
X189050299Y-114681023D01*
X189023398Y-114545785D01*
X188970631Y-114418393D01*
X188894025Y-114303743D01*
X188796523Y-114206241D01*
X188681873Y-114129635D01*
X188554481Y-114076868D01*
X188419243Y-114049967D01*
X188281355Y-114049967D01*
X188146117Y-114076868D01*
X188018725Y-114129635D01*
X188000000Y-114142147D01*
X188000000Y-113779898D01*
X189129899Y-112650000D01*
X191670102Y-112650000D01*
X196200000Y-117179899D01*
G36*
X181325553Y-112679743D02*
G01*
X181600000Y-112706773D01*
X181874448Y-112679743D01*
X181972498Y-112650000D01*
X184020102Y-112650000D01*
X185200000Y-113829899D01*
X185200000Y-114168776D01*
X185200001Y-114168786D01*
X185200000Y-123020101D01*
X181520102Y-126700000D01*
X181412866Y-126700000D01*
X181045791Y-126773016D01*
X180700013Y-126916242D01*
X180388821Y-127124174D01*
X180124174Y-127388821D01*
X179916242Y-127700013D01*
X179773016Y-128045791D01*
X179700000Y-128412866D01*
X179700000Y-128787134D01*
X179773016Y-129154209D01*
X179916242Y-129499987D01*
X180124174Y-129811179D01*
X180388821Y-130075826D01*
X180490208Y-130143571D01*
X180456914Y-130161367D01*
X180376973Y-130226973D01*
X180360534Y-130247004D01*
X179197005Y-131410534D01*
X179176974Y-131426973D01*
X179160535Y-131447004D01*
X179135272Y-131477787D01*
X179075826Y-131388821D01*
X178811179Y-131124174D01*
X178499987Y-130916242D01*
X178154209Y-130773016D01*
X177787134Y-130700000D01*
X177412866Y-130700000D01*
X177045791Y-130773016D01*
X176700013Y-130916242D01*
X176388821Y-131124174D01*
X176175000Y-131337995D01*
X176175000Y-129862005D01*
X176388821Y-130075826D01*
X176700013Y-130283758D01*
X177045791Y-130426984D01*
X177412866Y-130500000D01*
X177787134Y-130500000D01*
X178154209Y-130426984D01*
X178499987Y-130283758D01*
X178811179Y-130075826D01*
X179075826Y-129811179D01*
X179283758Y-129499987D01*
X179426984Y-129154209D01*
X179500000Y-128787134D01*
X179500000Y-128412866D01*
X179426984Y-128045791D01*
X179283758Y-127700013D01*
X179075826Y-127388821D01*
X178811179Y-127124174D01*
X178499987Y-126916242D01*
X178154209Y-126773016D01*
X177787134Y-126700000D01*
X177412866Y-126700000D01*
X177045791Y-126773016D01*
X176700013Y-126916242D01*
X176388821Y-127124174D01*
X176124174Y-127388821D01*
X175916242Y-127700013D01*
X175773016Y-128045791D01*
X175700000Y-128412866D01*
X175700000Y-128787134D01*
X175767142Y-129124681D01*
X175325000Y-128682539D01*
X175325000Y-118075779D01*
X175327539Y-118049999D01*
X175325000Y-118024219D01*
X175325000Y-118024212D01*
X175317403Y-117947082D01*
X175287383Y-117848119D01*
X175238633Y-117756914D01*
X175173027Y-117676973D01*
X175152995Y-117660534D01*
X174625013Y-117132552D01*
X174625013Y-114964950D01*
X174643739Y-114946224D01*
X174720345Y-114831574D01*
X174773112Y-114704182D01*
X174800013Y-114568944D01*
X174800013Y-114431056D01*
X174773112Y-114295818D01*
X174720345Y-114168426D01*
X174643739Y-114053776D01*
X174546237Y-113956274D01*
X174431587Y-113879668D01*
X174304195Y-113826901D01*
X174168957Y-113800000D01*
X174031069Y-113800000D01*
X173895831Y-113826901D01*
X173768439Y-113879668D01*
X173675005Y-113942098D01*
X173581570Y-113879668D01*
X173454178Y-113826901D01*
X173318940Y-113800000D01*
X173181052Y-113800000D01*
X173045814Y-113826901D01*
X172918422Y-113879668D01*
X172803772Y-113956274D01*
X172706270Y-114053776D01*
X172629664Y-114168426D01*
X172576897Y-114295818D01*
X172549996Y-114431056D01*
X172549996Y-114568944D01*
X172576897Y-114704182D01*
X172629664Y-114831574D01*
X172706270Y-114946224D01*
X172726624Y-114966578D01*
X172731178Y-115012812D01*
X172681574Y-114979668D01*
X172554182Y-114926901D01*
X172418944Y-114900000D01*
X172281056Y-114900000D01*
X172145818Y-114926901D01*
X172100000Y-114945879D01*
X172100000Y-113729898D01*
X173179899Y-112650000D01*
X181227502Y-112650000D01*
X181325553Y-112679743D01*
G37*
X181325553Y-112679743D02*
X181600000Y-112706773D01*
X181874448Y-112679743D01*
X181972498Y-112650000D01*
X184020102Y-112650000D01*
X185200000Y-113829899D01*
X185200000Y-114168776D01*
X185200001Y-114168786D01*
X185200000Y-123020101D01*
X181520102Y-126700000D01*
X181412866Y-126700000D01*
X181045791Y-126773016D01*
X180700013Y-126916242D01*
X180388821Y-127124174D01*
X180124174Y-127388821D01*
X179916242Y-127700013D01*
X179773016Y-128045791D01*
X179700000Y-128412866D01*
X179700000Y-128787134D01*
X179773016Y-129154209D01*
X179916242Y-129499987D01*
X180124174Y-129811179D01*
X180388821Y-130075826D01*
X180490208Y-130143571D01*
X180456914Y-130161367D01*
X180376973Y-130226973D01*
X180360534Y-130247004D01*
X179197005Y-131410534D01*
X179176974Y-131426973D01*
X179160535Y-131447004D01*
X179135272Y-131477787D01*
X179075826Y-131388821D01*
X178811179Y-131124174D01*
X178499987Y-130916242D01*
X178154209Y-130773016D01*
X177787134Y-130700000D01*
X177412866Y-130700000D01*
X177045791Y-130773016D01*
X176700013Y-130916242D01*
X176388821Y-131124174D01*
X176175000Y-131337995D01*
X176175000Y-129862005D01*
X176388821Y-130075826D01*
X176700013Y-130283758D01*
X177045791Y-130426984D01*
X177412866Y-130500000D01*
X177787134Y-130500000D01*
X178154209Y-130426984D01*
X178499987Y-130283758D01*
X178811179Y-130075826D01*
X179075826Y-129811179D01*
X179283758Y-129499987D01*
X179426984Y-129154209D01*
X179500000Y-128787134D01*
X179500000Y-128412866D01*
X179426984Y-128045791D01*
X179283758Y-127700013D01*
X179075826Y-127388821D01*
X178811179Y-127124174D01*
X178499987Y-126916242D01*
X178154209Y-126773016D01*
X177787134Y-126700000D01*
X177412866Y-126700000D01*
X177045791Y-126773016D01*
X176700013Y-126916242D01*
X176388821Y-127124174D01*
X176124174Y-127388821D01*
X175916242Y-127700013D01*
X175773016Y-128045791D01*
X175700000Y-128412866D01*
X175700000Y-128787134D01*
X175767142Y-129124681D01*
X175325000Y-128682539D01*
X175325000Y-118075779D01*
X175327539Y-118049999D01*
X175325000Y-118024219D01*
X175325000Y-118024212D01*
X175317403Y-117947082D01*
X175287383Y-117848119D01*
X175238633Y-117756914D01*
X175173027Y-117676973D01*
X175152995Y-117660534D01*
X174625013Y-117132552D01*
X174625013Y-114964950D01*
X174643739Y-114946224D01*
X174720345Y-114831574D01*
X174773112Y-114704182D01*
X174800013Y-114568944D01*
X174800013Y-114431056D01*
X174773112Y-114295818D01*
X174720345Y-114168426D01*
X174643739Y-114053776D01*
X174546237Y-113956274D01*
X174431587Y-113879668D01*
X174304195Y-113826901D01*
X174168957Y-113800000D01*
X174031069Y-113800000D01*
X173895831Y-113826901D01*
X173768439Y-113879668D01*
X173675005Y-113942098D01*
X173581570Y-113879668D01*
X173454178Y-113826901D01*
X173318940Y-113800000D01*
X173181052Y-113800000D01*
X173045814Y-113826901D01*
X172918422Y-113879668D01*
X172803772Y-113956274D01*
X172706270Y-114053776D01*
X172629664Y-114168426D01*
X172576897Y-114295818D01*
X172549996Y-114431056D01*
X172549996Y-114568944D01*
X172576897Y-114704182D01*
X172629664Y-114831574D01*
X172706270Y-114946224D01*
X172726624Y-114966578D01*
X172731178Y-115012812D01*
X172681574Y-114979668D01*
X172554182Y-114926901D01*
X172418944Y-114900000D01*
X172281056Y-114900000D01*
X172145818Y-114926901D01*
X172100000Y-114945879D01*
X172100000Y-113729898D01*
X173179899Y-112650000D01*
X181227502Y-112650000D01*
X181325553Y-112679743D01*
M02*
