G04 #@! TF.GenerationSoftware,KiCad,Pcbnew,5.1.5+dfsg1-2build2*
G04 #@! TF.CreationDate,2023-04-13T23:09:06-05:00*
G04 #@! TF.ProjectId,NES_backup,4e45535f-6261-4636-9b75-702e6b696361,rev?*
G04 #@! TF.SameCoordinates,Original*
G04 #@! TF.FileFunction,Copper,L2,Bot*
G04 #@! TF.FilePolarity,Positive*
%FSLAX46Y46*%
G04 Gerber Fmt 4.6, Leading zero omitted, Abs format (unit mm)*
G04 Created by KiCad (PCBNEW 5.1.5+dfsg1-2build2) date 2023-04-13 23:09:06*
%MOMM*%
%LPD*%
G04 APERTURE LIST*
%ADD10C,0.150000*%
%ADD11C,1.524000*%
%ADD12R,1.600000X1.600000*%
%ADD13O,1.600000X1.600000*%
%ADD14C,3.000000*%
%ADD15C,1.600000*%
%ADD16C,4.000000*%
%ADD17R,1.500000X2.200000*%
%ADD18R,2.200000X1.500000*%
%ADD19C,0.600000*%
%ADD20C,0.250000*%
%ADD21C,2.000000*%
%ADD22C,0.100000*%
G04 APERTURE END LIST*
D10*
X211500000Y-150700000D02*
X211500000Y-91500000D01*
X85500000Y-150700000D02*
X85500000Y-91500000D01*
X85500000Y-91500000D02*
X211500000Y-91500000D01*
X85500000Y-150700000D02*
X211500000Y-150700000D01*
D11*
X96700000Y-127100000D03*
X99200000Y-127100000D03*
X101700000Y-127100000D03*
D12*
X135300000Y-123000000D03*
D13*
X87040000Y-138240000D03*
X132760000Y-123000000D03*
X89580000Y-138240000D03*
X130220000Y-123000000D03*
X92120000Y-138240000D03*
X127680000Y-123000000D03*
X94660000Y-138240000D03*
X125140000Y-123000000D03*
X97200000Y-138240000D03*
X122600000Y-123000000D03*
X99740000Y-138240000D03*
X120060000Y-123000000D03*
X102280000Y-138240000D03*
X117520000Y-123000000D03*
X104820000Y-138240000D03*
X114980000Y-123000000D03*
X107360000Y-138240000D03*
X112440000Y-123000000D03*
X109900000Y-138240000D03*
X109900000Y-123000000D03*
X112440000Y-138240000D03*
X107360000Y-123000000D03*
X114980000Y-138240000D03*
X104820000Y-123000000D03*
X117520000Y-138240000D03*
X102280000Y-123000000D03*
X120060000Y-138240000D03*
X99740000Y-123000000D03*
X122600000Y-138240000D03*
X97200000Y-123000000D03*
X125140000Y-138240000D03*
X94660000Y-123000000D03*
X127680000Y-138240000D03*
X92120000Y-123000000D03*
X130220000Y-138240000D03*
X89580000Y-123000000D03*
X132760000Y-138240000D03*
X87040000Y-123000000D03*
X135300000Y-138240000D03*
D11*
X131490000Y-134430000D03*
X131490000Y-131890000D03*
X131490000Y-129350000D03*
X131490000Y-126810000D03*
X101700000Y-129600000D03*
X99200000Y-129600000D03*
X96700000Y-129600000D03*
D14*
X145600000Y-132600000D03*
X145600000Y-128600000D03*
X149600000Y-132600000D03*
X149600000Y-128600000D03*
X145600000Y-136600000D03*
X149600000Y-136600000D03*
X145600000Y-124600000D03*
X161600000Y-124600000D03*
X165600000Y-136600000D03*
X161600000Y-136600000D03*
X165600000Y-128600000D03*
X165600000Y-132600000D03*
X161600000Y-128600000D03*
X161600000Y-132600000D03*
D12*
X137900000Y-126400000D03*
D15*
X137900000Y-129900000D03*
D16*
X91501100Y-105003600D03*
D11*
X192251100Y-107503600D03*
X189751100Y-107503600D03*
X187251100Y-107503600D03*
X184751100Y-107503600D03*
X182251100Y-107503600D03*
X179751100Y-107503600D03*
X177251100Y-107503600D03*
X174751100Y-107503600D03*
X172251100Y-107503600D03*
X169751100Y-107503600D03*
X167251100Y-107503600D03*
X164751100Y-107503600D03*
X162251100Y-107503600D03*
X159751100Y-107503600D03*
X157251100Y-107503600D03*
X154751100Y-107503600D03*
X152251100Y-107503600D03*
X149751100Y-107503600D03*
X147251100Y-107503600D03*
X144751100Y-107503600D03*
X142251100Y-107503600D03*
X139751100Y-107503600D03*
X137251100Y-107503600D03*
X134751100Y-107503600D03*
X132251100Y-107503600D03*
X129751100Y-107503600D03*
X127251100Y-107503600D03*
X124751100Y-107503600D03*
X122251100Y-107503600D03*
X119751100Y-107503600D03*
X117251100Y-107503600D03*
X114751100Y-107503600D03*
X112251100Y-107503600D03*
X109751100Y-107503600D03*
X107251100Y-107503600D03*
X104751100Y-107503600D03*
X192251100Y-102503600D03*
X189751100Y-102503600D03*
X187251100Y-102503600D03*
X184751100Y-102503600D03*
X182251100Y-102503600D03*
X179751100Y-102503600D03*
X177251100Y-102503600D03*
X174751100Y-102503600D03*
X172251100Y-102503600D03*
X169751100Y-102503600D03*
X167251100Y-102503600D03*
X164751100Y-102503600D03*
X162251100Y-102503600D03*
X159751100Y-102503600D03*
X157251100Y-102503600D03*
X154751100Y-102503600D03*
X152251100Y-102503600D03*
X149751100Y-102503600D03*
X147251100Y-102503600D03*
X144751100Y-102503600D03*
X142251100Y-102503600D03*
X139751100Y-102503600D03*
X137251100Y-102503600D03*
X134751100Y-102503600D03*
X132251100Y-102503600D03*
X129751100Y-102503600D03*
X127251100Y-102503600D03*
X124751100Y-102503600D03*
X122251100Y-102503600D03*
X119751100Y-102503600D03*
X117251100Y-102503600D03*
X114751100Y-102503600D03*
X112251100Y-102503600D03*
X109751100Y-102503600D03*
X107251100Y-102503600D03*
X104751100Y-102503600D03*
D16*
X205501100Y-105003600D03*
X205500000Y-96000000D03*
X91500000Y-96000000D03*
X205500000Y-146200000D03*
D11*
X202750000Y-124100000D03*
X207750000Y-119100000D03*
X207750000Y-129100000D03*
X210250000Y-119100000D03*
X210250000Y-129100000D03*
D17*
X207750000Y-124100000D03*
D18*
X202750000Y-121600000D03*
X202750000Y-126600000D03*
X202750000Y-129100000D03*
X202750000Y-119100000D03*
D16*
X91500000Y-146200000D03*
D14*
X177600000Y-132600000D03*
X177600000Y-128600000D03*
X181600000Y-132600000D03*
X181600000Y-128600000D03*
X177600000Y-136600000D03*
X181600000Y-136600000D03*
X177600000Y-124600000D03*
X193600000Y-124600000D03*
X197600000Y-136600000D03*
X193600000Y-136600000D03*
X197600000Y-128600000D03*
X197600000Y-132600000D03*
X193600000Y-128600000D03*
X193600000Y-132600000D03*
D19*
X157900000Y-138500000D03*
X156550000Y-138500000D03*
X172200000Y-138600000D03*
X188550000Y-138650000D03*
X189900000Y-138650000D03*
X174200000Y-138600000D03*
X144700000Y-138550000D03*
X146500000Y-138550000D03*
X128502129Y-115474990D03*
X125958051Y-116758051D03*
X131000000Y-117874957D03*
X136000000Y-118300000D03*
X138500000Y-114500000D03*
X137300000Y-113900000D03*
X132200000Y-114800000D03*
X129700000Y-113525011D03*
X128500000Y-98607704D03*
X164000000Y-99899992D03*
X161500000Y-99900000D03*
X124700000Y-104674968D03*
X123500000Y-100800000D03*
X142250000Y-117400000D03*
X139496640Y-119346640D03*
X128900000Y-118700000D03*
X188500000Y-105300000D03*
X187250000Y-109100000D03*
X173249996Y-114500000D03*
X191000000Y-103775000D03*
X191000000Y-109100000D03*
X137767025Y-119167025D03*
X172350000Y-115600000D03*
X115931587Y-104707011D03*
X165899998Y-99900000D03*
X167200000Y-99900000D03*
X114200000Y-104100000D03*
X123516944Y-114150021D03*
X121141949Y-113058051D03*
X185700000Y-104900000D03*
X188350299Y-114749967D03*
X185600000Y-106200000D03*
X174100013Y-114500000D03*
X156600000Y-118650000D03*
X191900000Y-109100000D03*
X169700000Y-99900000D03*
X147100000Y-117850000D03*
X144100000Y-109350000D03*
X144075010Y-117850000D03*
X198500000Y-101100000D03*
X161500000Y-101300000D03*
X174100002Y-118250000D03*
X136850000Y-123600000D03*
X172900000Y-133950000D03*
X169600000Y-133250000D03*
X137700000Y-134900000D03*
X172793251Y-117575032D03*
X169800000Y-134600000D03*
X172250000Y-132600000D03*
X190100000Y-132750000D03*
X187950000Y-132750000D03*
X158050000Y-132850000D03*
X156000000Y-132850000D03*
X157881016Y-116130195D03*
X189850000Y-116450000D03*
X157200000Y-116550000D03*
X188850000Y-116950002D03*
X168050000Y-132600000D03*
X170900000Y-132600000D03*
D20*
X207750000Y-124150000D02*
X207300000Y-124150000D01*
X195133600Y-107503600D02*
X192251100Y-107503600D01*
X205740000Y-123090000D02*
X205740000Y-118110000D01*
X206750000Y-124100000D02*
X205740000Y-123090000D01*
X205740000Y-118110000D02*
X195133600Y-107503600D01*
X206750000Y-124100000D02*
X207750000Y-124100000D01*
D21*
X145600000Y-124600000D02*
X161600000Y-124600000D01*
X177600000Y-124600000D02*
X193600000Y-124600000D01*
X163746322Y-124625002D02*
X175453678Y-124625002D01*
X175478680Y-124600000D02*
X177600000Y-124600000D01*
X161600000Y-124600000D02*
X163721320Y-124600000D01*
X163721320Y-124600000D02*
X163746322Y-124625002D01*
X175453678Y-124625002D02*
X175478680Y-124600000D01*
D20*
X158324264Y-138500000D02*
X158424264Y-138600000D01*
X157900000Y-138500000D02*
X158324264Y-138500000D01*
D21*
X144300000Y-124600000D02*
X145600000Y-124600000D01*
X139000000Y-129900000D02*
X144300000Y-124600000D01*
X137900000Y-129900000D02*
X139000000Y-129900000D01*
D20*
X156550000Y-138500000D02*
X157900000Y-138500000D01*
X158424264Y-138600000D02*
X172200000Y-138600000D01*
X198375501Y-138650000D02*
X190324264Y-138650000D01*
X204600000Y-132425501D02*
X198375501Y-138650000D01*
X190324264Y-138650000D02*
X189900000Y-138650000D01*
X204600000Y-126250000D02*
X204600000Y-132425501D01*
X206750000Y-124100000D02*
X204600000Y-126250000D01*
X188550000Y-138650000D02*
X189900000Y-138650000D01*
X174250000Y-138650000D02*
X174200000Y-138600000D01*
X188550000Y-138650000D02*
X174250000Y-138650000D01*
X172200000Y-138600000D02*
X174200000Y-138600000D01*
X138499956Y-111800044D02*
X134825010Y-115474990D01*
X169999956Y-111800044D02*
X138499956Y-111800044D01*
X173500000Y-108300000D02*
X169999956Y-111800044D01*
X173500000Y-106600000D02*
X173500000Y-108300000D01*
X175400000Y-104700000D02*
X173500000Y-106600000D01*
X184100000Y-104700000D02*
X175400000Y-104700000D01*
X184550000Y-104250000D02*
X184100000Y-104700000D01*
X186497500Y-104250000D02*
X184550000Y-104250000D01*
X189751100Y-107503600D02*
X186497500Y-104250000D01*
X134825010Y-115474990D02*
X128926393Y-115474990D01*
X128926393Y-115474990D02*
X128502129Y-115474990D01*
X128077865Y-115474990D02*
X128502129Y-115474990D01*
X124025010Y-115474990D02*
X128077865Y-115474990D01*
X117520000Y-121980000D02*
X124025010Y-115474990D01*
X117520000Y-123000000D02*
X117520000Y-121980000D01*
X125441949Y-116758051D02*
X125958051Y-116758051D01*
X120000000Y-122200000D02*
X125441949Y-116758051D01*
X120000000Y-122940000D02*
X120000000Y-122200000D01*
X120060000Y-123000000D02*
X120000000Y-122940000D01*
X186400129Y-105574999D02*
X179225001Y-105574999D01*
X187251100Y-107503600D02*
X187251100Y-106425970D01*
X135375034Y-116724966D02*
X125991136Y-116724966D01*
X125991136Y-116724966D02*
X125958051Y-116758051D01*
X187251100Y-106425970D02*
X186400129Y-105574999D01*
X172236345Y-112700066D02*
X139399934Y-112700066D01*
X179225001Y-105574999D02*
X178500000Y-106300000D01*
X178500000Y-108100000D02*
X174100000Y-112500000D01*
X178500000Y-106300000D02*
X178500000Y-108100000D01*
X174100000Y-112500000D02*
X172436411Y-112500000D01*
X172436411Y-112500000D02*
X172236345Y-112700066D01*
X139399934Y-112700066D02*
X135375034Y-116724966D01*
X131424264Y-117874957D02*
X131000000Y-117874957D01*
X136249989Y-117649989D02*
X131649232Y-117649989D01*
X172609145Y-113600088D02*
X140299890Y-113600088D01*
X140299890Y-113600088D02*
X136249989Y-117649989D01*
X181500000Y-106100000D02*
X181000000Y-106600000D01*
X184751100Y-107503600D02*
X183347500Y-106100000D01*
X131649232Y-117649989D02*
X131424264Y-117874957D01*
X183347500Y-106100000D02*
X181500000Y-106100000D01*
X181000000Y-108100000D02*
X175699978Y-113400022D01*
X172809211Y-113400022D02*
X172609145Y-113600088D01*
X181000000Y-106600000D02*
X181000000Y-108100000D01*
X175699978Y-113400022D02*
X172809211Y-113400022D01*
X130575736Y-117874957D02*
X131000000Y-117874957D01*
X130325767Y-117624988D02*
X130575736Y-117874957D01*
X127375012Y-117624988D02*
X130325767Y-117624988D01*
X122600000Y-122400000D02*
X127375012Y-117624988D01*
X122600000Y-123000000D02*
X122600000Y-122400000D01*
X182251100Y-107503600D02*
X182251100Y-108098900D01*
X172999967Y-113850033D02*
X172799901Y-114050099D01*
X136300000Y-118300000D02*
X136000000Y-118300000D01*
X176499967Y-113850033D02*
X172999967Y-113850033D01*
X172799901Y-114050099D02*
X140549901Y-114050099D01*
X140549901Y-114050099D02*
X136300000Y-118300000D01*
X182251100Y-108098900D02*
X176499967Y-113850033D01*
X135575736Y-118300000D02*
X136000000Y-118300000D01*
X135375769Y-118499967D02*
X135575736Y-118300000D01*
X130270800Y-118499967D02*
X135375769Y-118499967D01*
X129845832Y-118074999D02*
X130270800Y-118499967D01*
X128275001Y-118074999D02*
X129845832Y-118074999D01*
X125140000Y-121210000D02*
X128275001Y-118074999D01*
X125140000Y-123000000D02*
X125140000Y-121210000D01*
X122600000Y-138240000D02*
X121325000Y-136965000D01*
X135825023Y-117174977D02*
X138200001Y-114799999D01*
X121325000Y-136965000D02*
X121325000Y-122275000D01*
X121325000Y-122275000D02*
X126425023Y-117174977D01*
X138200001Y-114799999D02*
X138500000Y-114500000D01*
X126425023Y-117174977D02*
X135825023Y-117174977D01*
X138799999Y-114200001D02*
X138500000Y-114500000D01*
X139849923Y-113150077D02*
X138799999Y-114200001D01*
X172622811Y-112950011D02*
X172422745Y-113150077D01*
X174899989Y-112950011D02*
X172622811Y-112950011D01*
X172422745Y-113150077D02*
X139849923Y-113150077D01*
X179751100Y-107503600D02*
X179751100Y-108098900D01*
X179751100Y-108098900D02*
X174899989Y-112950011D01*
X177251100Y-108148900D02*
X173399945Y-112000055D01*
X137599999Y-113600001D02*
X137300000Y-113900000D01*
X172049945Y-112250055D02*
X138949945Y-112250055D01*
X173399945Y-112000055D02*
X172299945Y-112000055D01*
X177251100Y-107503600D02*
X177251100Y-108148900D01*
X172299945Y-112000055D02*
X172049945Y-112250055D01*
X138949945Y-112250055D02*
X137599999Y-113600001D01*
X137000001Y-114199999D02*
X137300000Y-113900000D01*
X135100001Y-116099999D02*
X137000001Y-114199999D01*
X124750001Y-116099999D02*
X135100001Y-116099999D01*
X118800000Y-122050000D02*
X124750001Y-116099999D01*
X118800000Y-136980000D02*
X118800000Y-122050000D01*
X120060000Y-138240000D02*
X118800000Y-136980000D01*
X116720001Y-139039999D02*
X117520000Y-138240000D01*
X108625000Y-139025000D02*
X109275000Y-139675000D01*
X108625000Y-121925000D02*
X108625000Y-139025000D01*
X119150000Y-111400000D02*
X108625000Y-121925000D01*
X131950000Y-111400000D02*
X119150000Y-111400000D01*
X109275000Y-139675000D02*
X116085000Y-139675000D01*
X134751100Y-108598900D02*
X131950000Y-111400000D01*
X116085000Y-139675000D02*
X116720001Y-139039999D01*
X134751100Y-107503600D02*
X134751100Y-108598900D01*
X114980000Y-138240000D02*
X116250000Y-136970000D01*
X116250000Y-136970000D02*
X116250000Y-121850000D01*
X116250000Y-121850000D02*
X123300000Y-114800000D01*
X123300000Y-114800000D02*
X131775736Y-114800000D01*
X131775736Y-114800000D02*
X132200000Y-114800000D01*
X132624264Y-114800000D02*
X132200000Y-114800000D01*
X134800000Y-114800000D02*
X132624264Y-114800000D01*
X138249967Y-111350033D02*
X134800000Y-114800000D01*
X169099967Y-111350033D02*
X138249967Y-111350033D01*
X172251100Y-108198900D02*
X169099967Y-111350033D01*
X172251100Y-107503600D02*
X172251100Y-108198900D01*
X130124264Y-113525011D02*
X129700000Y-113525011D01*
X134574989Y-113525011D02*
X130124264Y-113525011D01*
X137649989Y-110450011D02*
X134574989Y-113525011D01*
X167449989Y-110450011D02*
X137649989Y-110450011D01*
X169751100Y-108148900D02*
X167449989Y-110450011D01*
X169751100Y-107503600D02*
X169751100Y-108148900D01*
X129275736Y-113525011D02*
X129700000Y-113525011D01*
X121974989Y-113525011D02*
X129275736Y-113525011D01*
X113700000Y-121800000D02*
X121974989Y-113525011D01*
X113700000Y-136980000D02*
X113700000Y-121800000D01*
X112440000Y-138240000D02*
X113700000Y-136980000D01*
X164000000Y-99899992D02*
X162707712Y-98607704D01*
X128924264Y-98607704D02*
X128500000Y-98607704D01*
X162707712Y-98607704D02*
X128924264Y-98607704D01*
X126489101Y-106741601D02*
X127251100Y-107503600D01*
X101000000Y-126000000D02*
X101000000Y-122275000D01*
X99300000Y-129500000D02*
X99900000Y-129500000D01*
X125047478Y-105299978D02*
X126489101Y-106741601D01*
X99200000Y-129600000D02*
X99300000Y-129500000D01*
X100450000Y-126550000D02*
X101000000Y-126000000D01*
X99900000Y-129500000D02*
X100450000Y-128950000D01*
X101000000Y-122275000D02*
X114375000Y-108900000D01*
X114375000Y-108900000D02*
X115063590Y-108900000D01*
X100450000Y-128950000D02*
X100450000Y-126550000D01*
X116000000Y-107963590D02*
X116000000Y-106900000D01*
X115063590Y-108900000D02*
X116000000Y-107963590D01*
X117600022Y-105299978D02*
X125047478Y-105299978D01*
X116000000Y-106900000D02*
X117600022Y-105299978D01*
X161200001Y-99600001D02*
X161500000Y-99900000D01*
X123067286Y-99232714D02*
X160832714Y-99232714D01*
X121000000Y-101300000D02*
X123067286Y-99232714D01*
X121000000Y-103500000D02*
X121000000Y-101300000D01*
X160832714Y-99232714D02*
X161200001Y-99600001D01*
X122174968Y-104674968D02*
X121000000Y-103500000D01*
X124700000Y-104674968D02*
X122174968Y-104674968D01*
X119550011Y-105749989D02*
X124075119Y-105749989D01*
X124075119Y-105749989D02*
X124751100Y-106425970D01*
X118500000Y-106800000D02*
X119550011Y-105749989D01*
X115700000Y-108900000D02*
X117900000Y-108900000D01*
X102280000Y-122320000D02*
X115700000Y-108900000D01*
X124751100Y-106425970D02*
X124751100Y-107503600D01*
X118500000Y-108300000D02*
X118500000Y-106800000D01*
X117900000Y-108900000D02*
X118500000Y-108300000D01*
X102280000Y-123000000D02*
X102280000Y-122320000D01*
X104820000Y-123000000D02*
X104820000Y-121868630D01*
X104820000Y-121868630D02*
X116788630Y-109900000D01*
X116788630Y-109900000D02*
X120932330Y-109900000D01*
X120932330Y-109900000D02*
X122251100Y-108581230D01*
X122251100Y-108581230D02*
X122251100Y-107503600D01*
X123799999Y-100500001D02*
X123500000Y-100800000D01*
X128940401Y-99700000D02*
X128940379Y-99700022D01*
X124599978Y-99700022D02*
X123799999Y-100500001D01*
X159000000Y-99700000D02*
X128940401Y-99700000D01*
X161000000Y-101700000D02*
X159000000Y-99700000D01*
X162251100Y-104451100D02*
X161000000Y-103200000D01*
X162251100Y-107503600D02*
X162251100Y-104451100D01*
X161000000Y-103200000D02*
X161000000Y-101700000D01*
X128940379Y-99700022D02*
X124599978Y-99700022D01*
X158500000Y-106252500D02*
X158989101Y-106741601D01*
X125000001Y-104049967D02*
X124449967Y-104049967D01*
X127050034Y-106100000D02*
X125000001Y-104049967D01*
X128500000Y-106600000D02*
X128000000Y-106100000D01*
X157099980Y-100199980D02*
X158500000Y-101600000D01*
X127700000Y-109000000D02*
X128500000Y-108200000D01*
X125200020Y-100199980D02*
X157099980Y-100199980D01*
X124100000Y-109000000D02*
X127700000Y-109000000D01*
X123500000Y-101900000D02*
X125200020Y-100199980D01*
X128500000Y-108200000D02*
X128500000Y-106600000D01*
X123500000Y-108400000D02*
X124100000Y-109000000D01*
X158500000Y-101600000D02*
X158500000Y-106252500D01*
X128000000Y-106100000D02*
X127050034Y-106100000D01*
X99760000Y-138240000D02*
X103250000Y-134750000D01*
X158989101Y-106741601D02*
X159751100Y-107503600D01*
X103250000Y-134750000D02*
X103250000Y-123850000D01*
X124449967Y-104049967D02*
X123500000Y-103100000D01*
X122900000Y-106200000D02*
X123500000Y-106800000D01*
X123500000Y-103100000D02*
X123500000Y-101900000D01*
X99740000Y-138240000D02*
X99760000Y-138240000D01*
X123500000Y-106800000D02*
X123500000Y-108400000D01*
X121000000Y-108400000D02*
X121000000Y-106800000D01*
X103550000Y-122075000D02*
X116225000Y-109400000D01*
X103250000Y-123850000D02*
X103550000Y-123550000D01*
X116225000Y-109400000D02*
X120000000Y-109400000D01*
X103550000Y-123550000D02*
X103550000Y-122075000D01*
X120000000Y-109400000D02*
X121000000Y-108400000D01*
X121000000Y-106800000D02*
X121600000Y-106200000D01*
X121600000Y-106200000D02*
X122900000Y-106200000D01*
X103079999Y-137440001D02*
X102280000Y-138240000D01*
X106100000Y-134420000D02*
X103079999Y-137440001D01*
X126000000Y-101700000D02*
X126000000Y-103800000D01*
X129700000Y-110400000D02*
X117550000Y-110400000D01*
X157251100Y-107503600D02*
X157251100Y-106425970D01*
X157251100Y-106425970D02*
X156000000Y-105174870D01*
X117550000Y-110400000D02*
X106100000Y-121850000D01*
X156000000Y-101600000D02*
X155149989Y-100749989D01*
X106100000Y-121850000D02*
X106100000Y-134420000D01*
X126000000Y-103800000D02*
X127100000Y-104900000D01*
X156000000Y-105174870D02*
X156000000Y-101600000D01*
X155149989Y-100749989D02*
X126950011Y-100749989D01*
X127100000Y-104900000D02*
X129300000Y-104900000D01*
X129300000Y-104900000D02*
X131000000Y-106600000D01*
X126950011Y-100749989D02*
X126000000Y-101700000D01*
X131000000Y-106600000D02*
X131000000Y-109100000D01*
X131000000Y-109100000D02*
X129700000Y-110400000D01*
X130728001Y-128588001D02*
X131490000Y-129350000D01*
X130150000Y-126200000D02*
X130150000Y-128010000D01*
X134000000Y-121950000D02*
X134000000Y-123650000D01*
X134250000Y-121700000D02*
X134000000Y-121950000D01*
X132050000Y-124300000D02*
X130150000Y-126200000D01*
X138663590Y-121700000D02*
X134250000Y-121700000D01*
X134000000Y-123650000D02*
X133350000Y-124300000D01*
X140899989Y-119463601D02*
X138663590Y-121700000D01*
X140899989Y-118750011D02*
X140899989Y-119463601D01*
X130150000Y-128010000D02*
X130728001Y-128588001D01*
X133350000Y-124300000D02*
X132050000Y-124300000D01*
X142250000Y-117400000D02*
X140899989Y-118750011D01*
X129249978Y-129649978D02*
X129249978Y-125750022D01*
X131500000Y-123500000D02*
X131500000Y-122250000D01*
X129249978Y-125750022D02*
X131500000Y-123500000D01*
X138340769Y-120750000D02*
X139496640Y-119594130D01*
X139496640Y-119594130D02*
X139496640Y-119346640D01*
X133000000Y-120750000D02*
X138340769Y-120750000D01*
X131490000Y-131890000D02*
X129249978Y-129649978D01*
X131500000Y-122250000D02*
X133000000Y-120750000D01*
X162251100Y-102503600D02*
X163647500Y-103900000D01*
X188500000Y-101700000D02*
X188500000Y-103200000D01*
X163647500Y-103900000D02*
X170400000Y-103900000D01*
X171000000Y-103300000D02*
X171000000Y-101600000D01*
X170400000Y-103900000D02*
X171000000Y-103300000D01*
X171000000Y-101600000D02*
X171500000Y-101100000D01*
X171500000Y-101100000D02*
X187900000Y-101100000D01*
X187900000Y-101100000D02*
X188500000Y-101700000D01*
X188500000Y-103200000D02*
X188500000Y-105300000D01*
X140799890Y-114500110D02*
X172825622Y-114500110D01*
X136350033Y-118949967D02*
X140799890Y-114500110D01*
X187250000Y-109100000D02*
X181200022Y-115149978D01*
X181200022Y-115149978D02*
X173849978Y-115149978D01*
X129574231Y-118949967D02*
X136350033Y-118949967D01*
X128900000Y-118700000D02*
X129324264Y-118700000D01*
X173849978Y-115149978D02*
X173249996Y-114549996D01*
X172825732Y-114500000D02*
X173249996Y-114500000D01*
X129324264Y-118700000D02*
X129574231Y-118949967D01*
X172825622Y-114500110D02*
X172825732Y-114500000D01*
X173249996Y-114549996D02*
X173249996Y-114500000D01*
X164751100Y-102503600D02*
X166154700Y-101100000D01*
X166154700Y-101100000D02*
X170450000Y-101100000D01*
X170450000Y-101100000D02*
X170950000Y-100600000D01*
X170950000Y-100600000D02*
X190000000Y-100600000D01*
X190000000Y-100600000D02*
X191000000Y-101600000D01*
X191000000Y-101600000D02*
X191000000Y-103350736D01*
X191000000Y-103350736D02*
X191000000Y-103775000D01*
X172150132Y-115400132D02*
X172350000Y-115600000D01*
X141245322Y-115400132D02*
X172150132Y-115400132D01*
X137767025Y-118878429D02*
X141245322Y-115400132D01*
X137767025Y-119167025D02*
X137767025Y-118878429D01*
X172927178Y-116050000D02*
X172477178Y-115600000D01*
X188138587Y-116050000D02*
X172927178Y-116050000D01*
X189086437Y-115824988D02*
X188363599Y-115824988D01*
X189800000Y-115111425D02*
X189086437Y-115824988D01*
X172477178Y-115600000D02*
X172350000Y-115600000D01*
X189800000Y-110300000D02*
X189800000Y-115111425D01*
X188363599Y-115824988D02*
X188138587Y-116050000D01*
X191000000Y-109100000D02*
X189800000Y-110300000D01*
X118500000Y-101600000D02*
X118500000Y-103100000D01*
X116355851Y-104707011D02*
X115931587Y-104707011D01*
X118500000Y-103100000D02*
X116892989Y-104707011D01*
X163974996Y-97974998D02*
X122125002Y-97974998D01*
X122125002Y-97974998D02*
X118500000Y-101600000D01*
X165899998Y-99900000D02*
X163974996Y-97974998D01*
X116892989Y-104707011D02*
X116355851Y-104707011D01*
X114496400Y-107503600D02*
X114751100Y-107503600D01*
X99740000Y-122260000D02*
X114496400Y-107503600D01*
X99740000Y-123000000D02*
X99740000Y-122260000D01*
X119799977Y-97500023D02*
X164800023Y-97500023D01*
X166900001Y-99600001D02*
X167200000Y-99900000D01*
X114200000Y-104100000D02*
X114863589Y-104100000D01*
X116000000Y-102963589D02*
X116000000Y-101300000D01*
X114863589Y-104100000D02*
X116000000Y-102963589D01*
X116000000Y-101300000D02*
X119799977Y-97500023D01*
X164800023Y-97500023D02*
X166900001Y-99600001D01*
X112251100Y-107503600D02*
X112251100Y-108523900D01*
X112251100Y-108523900D02*
X97775000Y-123000000D01*
X97775000Y-123000000D02*
X97200000Y-123000000D01*
X97285000Y-138325000D02*
X97200000Y-138240000D01*
X97700000Y-138325000D02*
X97285000Y-138325000D01*
X99300011Y-140125011D02*
X97700000Y-138525000D01*
X122874989Y-140125011D02*
X99300011Y-140125011D01*
X123850000Y-126200000D02*
X123850000Y-139150000D01*
X97700000Y-138525000D02*
X97700000Y-138325000D01*
X126400000Y-121450000D02*
X126400000Y-123650000D01*
X126400000Y-123650000D02*
X123850000Y-126200000D01*
X128450022Y-119399978D02*
X126400000Y-121450000D01*
X187952187Y-115599989D02*
X173274993Y-115599989D01*
X189751100Y-103581230D02*
X191000000Y-104830130D01*
X191000000Y-104830130D02*
X191000000Y-108200000D01*
X191000000Y-108200000D02*
X189150000Y-110050000D01*
X189150000Y-110050000D02*
X189150000Y-114850000D01*
X189150000Y-114850000D02*
X188625023Y-115374977D01*
X188625023Y-115374977D02*
X188177199Y-115374977D01*
X136600022Y-119399978D02*
X128450022Y-119399978D01*
X188177199Y-115374977D02*
X187952187Y-115599989D01*
X173274993Y-115599989D02*
X172625125Y-114950121D01*
X141049879Y-114950121D02*
X136600022Y-119399978D01*
X123850000Y-139150000D02*
X122874989Y-140125011D01*
X189751100Y-102503600D02*
X189751100Y-103581230D01*
X172625125Y-114950121D02*
X141049879Y-114950121D01*
X114980000Y-121868630D02*
X122698609Y-114150021D01*
X123092680Y-114150021D02*
X123516944Y-114150021D01*
X122698609Y-114150021D02*
X123092680Y-114150021D01*
X114980000Y-123000000D02*
X114980000Y-121868630D01*
X123941208Y-114150021D02*
X123516944Y-114150021D01*
X134649979Y-114150021D02*
X123941208Y-114150021D01*
X137899978Y-110900022D02*
X134649979Y-114150021D01*
X168218268Y-110900022D02*
X137899978Y-110900022D01*
X171000000Y-108118290D02*
X168218268Y-110900022D01*
X171000000Y-106800000D02*
X171000000Y-108118290D01*
X173500011Y-104299989D02*
X171000000Y-106800000D01*
X175163600Y-104299989D02*
X173500011Y-104299989D01*
X184200000Y-103800000D02*
X183750011Y-104249989D01*
X175213600Y-104249989D02*
X175163600Y-104299989D01*
X185954700Y-103800000D02*
X184200000Y-103800000D01*
X187251100Y-102503600D02*
X185954700Y-103800000D01*
X183750011Y-104249989D02*
X175213600Y-104249989D01*
X120841950Y-113358050D02*
X121141949Y-113058051D01*
X112440000Y-121760000D02*
X120841950Y-113358050D01*
X112440000Y-123000000D02*
X112440000Y-121760000D01*
X121566213Y-113058051D02*
X121141949Y-113058051D01*
X184751100Y-102503600D02*
X183454722Y-103799978D01*
X137400000Y-110000000D02*
X134541948Y-112858052D01*
X183454722Y-103799978D02*
X175027200Y-103799978D01*
X134541948Y-112858052D02*
X121766212Y-112858052D01*
X121766212Y-112858052D02*
X121566213Y-113058051D01*
X175027200Y-103799978D02*
X175027178Y-103800000D01*
X172950000Y-103800000D02*
X170800000Y-105950000D01*
X170800000Y-105950000D02*
X169450000Y-105950000D01*
X169450000Y-105950000D02*
X168500000Y-106900000D01*
X168500000Y-106900000D02*
X168500000Y-108150000D01*
X175027178Y-103800000D02*
X172950000Y-103800000D01*
X168500000Y-108150000D02*
X166650000Y-110000000D01*
X166650000Y-110000000D02*
X137400000Y-110000000D01*
X136000000Y-106254700D02*
X138989101Y-103265599D01*
X136000000Y-109000000D02*
X136000000Y-106254700D01*
X133100000Y-111900000D02*
X136000000Y-109000000D01*
X119868630Y-111900000D02*
X133100000Y-111900000D01*
X109900000Y-121868630D02*
X119868630Y-111900000D01*
X138989101Y-103265599D02*
X139751100Y-102503600D01*
X109900000Y-123000000D02*
X109900000Y-121868630D01*
X188500000Y-114400000D02*
X188350299Y-114549701D01*
X188350299Y-114549701D02*
X188350299Y-114749967D01*
X188500000Y-106950000D02*
X188500000Y-114400000D01*
X186450000Y-104900000D02*
X188500000Y-106950000D01*
X185700000Y-104900000D02*
X186450000Y-104900000D01*
X174524277Y-114500000D02*
X174100013Y-114500000D01*
X180750000Y-114500000D02*
X174524277Y-114500000D01*
X186000000Y-109250000D02*
X180750000Y-114500000D01*
X186000000Y-106600000D02*
X186000000Y-109250000D01*
X185600000Y-106200000D02*
X186000000Y-106600000D01*
X191450000Y-109550000D02*
X191900000Y-109100000D01*
X190500000Y-110500000D02*
X191450000Y-109550000D01*
X189700000Y-117600000D02*
X190500000Y-116800000D01*
X176543476Y-117600000D02*
X189700000Y-117600000D01*
X175193477Y-118949999D02*
X176543476Y-117600000D01*
X156899999Y-118949999D02*
X175193477Y-118949999D01*
X190500000Y-116800000D02*
X190500000Y-110500000D01*
X156600000Y-118650000D02*
X156899999Y-118949999D01*
X169400001Y-99600001D02*
X169700000Y-99900000D01*
X166800000Y-97000000D02*
X169400001Y-99600001D01*
X118450000Y-97000000D02*
X166800000Y-97000000D01*
X112946400Y-102503600D02*
X118450000Y-97000000D01*
X112251100Y-102503600D02*
X112946400Y-102503600D01*
X147100000Y-117850000D02*
X144075010Y-117850000D01*
X144524264Y-109350000D02*
X144100000Y-109350000D01*
X164900000Y-109350000D02*
X144524264Y-109350000D01*
X166000000Y-108250000D02*
X164900000Y-109350000D01*
X167700000Y-105250000D02*
X166000000Y-106950000D01*
X166000000Y-106950000D02*
X166000000Y-108250000D01*
X170582330Y-105250000D02*
X167700000Y-105250000D01*
X172251100Y-103581230D02*
X170582330Y-105250000D01*
X172251100Y-102503600D02*
X172251100Y-103581230D01*
X131900000Y-104900000D02*
X133500000Y-106500000D01*
X159751100Y-102503600D02*
X159751100Y-103581230D01*
X159751100Y-103581230D02*
X161000000Y-104830130D01*
X128500000Y-103400000D02*
X130000000Y-104900000D01*
X156399989Y-108899989D02*
X156000000Y-108500000D01*
X129000000Y-101200000D02*
X128500000Y-101700000D01*
X133500000Y-106500000D02*
X133500000Y-108300000D01*
X161000000Y-104830130D02*
X161000000Y-108500000D01*
X130000000Y-104900000D02*
X131900000Y-104900000D01*
X156000000Y-108500000D02*
X156000000Y-106000000D01*
X128500000Y-101700000D02*
X128500000Y-103400000D01*
X133500000Y-108300000D02*
X130900000Y-110900000D01*
X161000000Y-108500000D02*
X160600011Y-108899989D01*
X160600011Y-108899989D02*
X156399989Y-108899989D01*
X130900000Y-110900000D02*
X118328630Y-110900000D01*
X152900000Y-101200000D02*
X129000000Y-101200000D01*
X118328630Y-110900000D02*
X107360000Y-121868630D01*
X156000000Y-106000000D02*
X153500000Y-103500000D01*
X107360000Y-121868630D02*
X107360000Y-123000000D01*
X153500000Y-103500000D02*
X153500000Y-101800000D01*
X153500000Y-101800000D02*
X152900000Y-101200000D01*
X190150000Y-100100000D02*
X170400000Y-100100000D01*
X169899999Y-100600001D02*
X162199999Y-100600001D01*
X170400000Y-100100000D02*
X169899999Y-100600001D01*
X191150000Y-101100000D02*
X198500000Y-101100000D01*
X190950000Y-100900000D02*
X190150000Y-100100000D01*
X190950000Y-100900000D02*
X191150000Y-101100000D01*
X161799999Y-101000001D02*
X161500000Y-101300000D01*
X162199999Y-100600001D02*
X161799999Y-101000001D01*
X111200000Y-136940000D02*
X110699999Y-137440001D01*
X120550000Y-112400000D02*
X111200000Y-121750000D01*
X111200000Y-121750000D02*
X111200000Y-136940000D01*
X134288590Y-112400000D02*
X120550000Y-112400000D01*
X138500000Y-106600000D02*
X138500000Y-108188590D01*
X141200000Y-103900000D02*
X138500000Y-106600000D01*
X110699999Y-137440001D02*
X109900000Y-138240000D01*
X138500000Y-108188590D02*
X134288590Y-112400000D01*
X143354700Y-103900000D02*
X141200000Y-103900000D01*
X144751100Y-102503600D02*
X143354700Y-103900000D01*
X138300000Y-122150000D02*
X136850000Y-123600000D01*
X143799824Y-117200176D02*
X138850000Y-122150000D01*
X156300176Y-117200176D02*
X143799824Y-117200176D01*
X157350000Y-118250000D02*
X156300176Y-117200176D01*
X138850000Y-122150000D02*
X138300000Y-122150000D01*
X174100002Y-118250000D02*
X157350000Y-118250000D01*
X172900000Y-133950000D02*
X170300000Y-133950000D01*
X170300000Y-133950000D02*
X169600000Y-133250000D01*
X133400000Y-130600000D02*
X137400001Y-134600001D01*
X130836410Y-130600000D02*
X133400000Y-130600000D01*
X129699989Y-126013600D02*
X129699989Y-129463579D01*
X131913590Y-123799999D02*
X129699989Y-126013600D01*
X131960001Y-123799999D02*
X131913590Y-123799999D01*
X132760000Y-123000000D02*
X131960001Y-123799999D01*
X137400001Y-134600001D02*
X137700000Y-134900000D01*
X129699989Y-129463579D02*
X130836410Y-130600000D01*
X157290790Y-117554380D02*
X172772599Y-117554380D01*
X156486576Y-116750165D02*
X157290790Y-117554380D01*
X141849835Y-116750165D02*
X156486576Y-116750165D01*
X140429451Y-119297729D02*
X140429451Y-118170549D01*
X138477190Y-121249989D02*
X140429451Y-119297729D01*
X172772599Y-117554380D02*
X172793251Y-117575032D01*
X133700011Y-121249989D02*
X138477190Y-121249989D01*
X140429451Y-118170549D02*
X141849835Y-116750165D01*
X132760000Y-122190000D02*
X133700011Y-121249989D01*
X132760000Y-123000000D02*
X132760000Y-122190000D01*
X145600000Y-132600000D02*
X147600000Y-134600000D01*
X159600000Y-134600000D02*
X161600000Y-132600000D01*
X147600000Y-134600000D02*
X159600000Y-134600000D01*
X161600000Y-132600000D02*
X163600000Y-134600000D01*
X177600000Y-132600000D02*
X179600000Y-134600000D01*
X191600000Y-134600000D02*
X193600000Y-132600000D01*
X179600000Y-134600000D02*
X191600000Y-134600000D01*
X168850000Y-134600000D02*
X169800000Y-134600000D01*
X163600000Y-134600000D02*
X168850000Y-134600000D01*
X175600000Y-134600000D02*
X177600000Y-132600000D01*
X169800000Y-134600000D02*
X175600000Y-134600000D01*
X177600000Y-128600000D02*
X175600000Y-130600000D01*
X163600000Y-130600000D02*
X161600000Y-128600000D01*
X161600000Y-128600000D02*
X159600000Y-130600000D01*
X147600000Y-130600000D02*
X145600000Y-128600000D01*
X159600000Y-130600000D02*
X147600000Y-130600000D01*
X172250000Y-130600000D02*
X163600000Y-130600000D01*
X175600000Y-130600000D02*
X172250000Y-130600000D01*
X172250000Y-130600000D02*
X172250000Y-132600000D01*
X179600000Y-130600000D02*
X177600000Y-128600000D01*
X193600000Y-129850000D02*
X192850000Y-130600000D01*
X192850000Y-130600000D02*
X179600000Y-130600000D01*
X193600000Y-128600000D02*
X193600000Y-129850000D01*
X190100000Y-132750000D02*
X188250000Y-132750000D01*
X188250000Y-132750000D02*
X187950000Y-132750000D01*
X158050000Y-132850000D02*
X156200000Y-132850000D01*
X156200000Y-132850000D02*
X156000000Y-132850000D01*
X87040000Y-138240000D02*
X87360000Y-138240000D01*
X157881016Y-116130195D02*
X157600964Y-115850143D01*
X128300000Y-123000000D02*
X127680000Y-123000000D01*
X157600964Y-115850143D02*
X141431722Y-115850143D01*
X141431722Y-115850143D02*
X138421627Y-118860238D01*
X138421627Y-118860238D02*
X138421627Y-119396322D01*
X130830022Y-119849978D02*
X128950000Y-121730000D01*
X138421627Y-119396322D02*
X137967970Y-119849978D01*
X137967970Y-119849978D02*
X130830022Y-119849978D01*
X128950000Y-122350000D02*
X128300000Y-123000000D01*
X128950000Y-121730000D02*
X128950000Y-122350000D01*
X189425736Y-116450000D02*
X189850000Y-116450000D01*
X189250735Y-116274999D02*
X189425736Y-116450000D01*
X188324987Y-116500011D02*
X188549999Y-116274999D01*
X172350011Y-116500011D02*
X188324987Y-116500011D01*
X171750000Y-115900000D02*
X172350011Y-116500011D01*
X188549999Y-116274999D02*
X189250735Y-116274999D01*
X158111211Y-115900000D02*
X171750000Y-115900000D01*
X157881016Y-116130195D02*
X158111211Y-115900000D01*
X138871638Y-119582722D02*
X138871638Y-119046638D01*
X156950154Y-116300154D02*
X157200000Y-116550000D01*
X131788641Y-120299989D02*
X138154370Y-120299989D01*
X130220000Y-123000000D02*
X130220000Y-121868630D01*
X138154370Y-120299989D02*
X138871638Y-119582722D01*
X130220000Y-121868630D02*
X131788641Y-120299989D01*
X138871638Y-119046638D02*
X141618122Y-116300154D01*
X141618122Y-116300154D02*
X156950154Y-116300154D01*
X157600022Y-116950022D02*
X188425716Y-116950022D01*
X157200000Y-116550000D02*
X157600022Y-116950022D01*
X188425736Y-116950002D02*
X188850000Y-116950002D01*
X188425716Y-116950022D02*
X188425736Y-116950002D01*
X168050000Y-132600000D02*
X170900000Y-132600000D01*
D22*
G36*
X211025001Y-118231685D02*
G01*
X210990732Y-118197416D01*
X210800413Y-118070249D01*
X210588943Y-117982655D01*
X210364447Y-117938000D01*
X210135553Y-117938000D01*
X209911057Y-117982655D01*
X209699587Y-118070249D01*
X209509268Y-118197416D01*
X209347416Y-118359268D01*
X209220249Y-118549587D01*
X209132655Y-118761057D01*
X209088000Y-118985553D01*
X209088000Y-119214447D01*
X209132655Y-119438943D01*
X209220249Y-119650413D01*
X209347416Y-119840732D01*
X209509268Y-120002584D01*
X209699587Y-120129751D01*
X209911057Y-120217345D01*
X210135553Y-120262000D01*
X210364447Y-120262000D01*
X210588943Y-120217345D01*
X210800413Y-120129751D01*
X210990732Y-120002584D01*
X211025001Y-119968315D01*
X211025000Y-128231684D01*
X210990732Y-128197416D01*
X210800413Y-128070249D01*
X210588943Y-127982655D01*
X210364447Y-127938000D01*
X210135553Y-127938000D01*
X209911057Y-127982655D01*
X209699587Y-128070249D01*
X209509268Y-128197416D01*
X209347416Y-128359268D01*
X209220249Y-128549587D01*
X209132655Y-128761057D01*
X209088000Y-128985553D01*
X209088000Y-129214447D01*
X209132655Y-129438943D01*
X209220249Y-129650413D01*
X209347416Y-129840732D01*
X209509268Y-130002584D01*
X209699587Y-130129751D01*
X209911057Y-130217345D01*
X210135553Y-130262000D01*
X210364447Y-130262000D01*
X210588943Y-130217345D01*
X210800413Y-130129751D01*
X210990732Y-130002584D01*
X211025000Y-129968316D01*
X211025000Y-150225000D01*
X85975000Y-150225000D01*
X85975000Y-145963621D01*
X89100000Y-145963621D01*
X89100000Y-146436379D01*
X89192230Y-146900054D01*
X89373147Y-147336826D01*
X89635798Y-147729911D01*
X89970089Y-148064202D01*
X90363174Y-148326853D01*
X90799946Y-148507770D01*
X91263621Y-148600000D01*
X91736379Y-148600000D01*
X92200054Y-148507770D01*
X92636826Y-148326853D01*
X93029911Y-148064202D01*
X93364202Y-147729911D01*
X93626853Y-147336826D01*
X93807770Y-146900054D01*
X93900000Y-146436379D01*
X93900000Y-145963621D01*
X203100000Y-145963621D01*
X203100000Y-146436379D01*
X203192230Y-146900054D01*
X203373147Y-147336826D01*
X203635798Y-147729911D01*
X203970089Y-148064202D01*
X204363174Y-148326853D01*
X204799946Y-148507770D01*
X205263621Y-148600000D01*
X205736379Y-148600000D01*
X206200054Y-148507770D01*
X206636826Y-148326853D01*
X207029911Y-148064202D01*
X207364202Y-147729911D01*
X207626853Y-147336826D01*
X207807770Y-146900054D01*
X207900000Y-146436379D01*
X207900000Y-145963621D01*
X207807770Y-145499946D01*
X207626853Y-145063174D01*
X207364202Y-144670089D01*
X207029911Y-144335798D01*
X206636826Y-144073147D01*
X206200054Y-143892230D01*
X205736379Y-143800000D01*
X205263621Y-143800000D01*
X204799946Y-143892230D01*
X204363174Y-144073147D01*
X203970089Y-144335798D01*
X203635798Y-144670089D01*
X203373147Y-145063174D01*
X203192230Y-145499946D01*
X203100000Y-145963621D01*
X93900000Y-145963621D01*
X93807770Y-145499946D01*
X93626853Y-145063174D01*
X93364202Y-144670089D01*
X93029911Y-144335798D01*
X92636826Y-144073147D01*
X92200054Y-143892230D01*
X91736379Y-143800000D01*
X91263621Y-143800000D01*
X90799946Y-143892230D01*
X90363174Y-144073147D01*
X89970089Y-144335798D01*
X89635798Y-144670089D01*
X89373147Y-145063174D01*
X89192230Y-145499946D01*
X89100000Y-145963621D01*
X85975000Y-145963621D01*
X85975000Y-138804613D01*
X85976574Y-138808413D01*
X86107899Y-139004955D01*
X86275045Y-139172101D01*
X86471587Y-139303426D01*
X86689973Y-139393884D01*
X86921810Y-139440000D01*
X87158190Y-139440000D01*
X87390027Y-139393884D01*
X87608413Y-139303426D01*
X87804955Y-139172101D01*
X87972101Y-139004955D01*
X88103426Y-138808413D01*
X88193884Y-138590027D01*
X88240000Y-138358190D01*
X88240000Y-138121810D01*
X88380000Y-138121810D01*
X88380000Y-138358190D01*
X88426116Y-138590027D01*
X88516574Y-138808413D01*
X88647899Y-139004955D01*
X88815045Y-139172101D01*
X89011587Y-139303426D01*
X89229973Y-139393884D01*
X89461810Y-139440000D01*
X89698190Y-139440000D01*
X89930027Y-139393884D01*
X90148413Y-139303426D01*
X90344955Y-139172101D01*
X90512101Y-139004955D01*
X90643426Y-138808413D01*
X90733884Y-138590027D01*
X90780000Y-138358190D01*
X90780000Y-138121810D01*
X90920000Y-138121810D01*
X90920000Y-138358190D01*
X90966116Y-138590027D01*
X91056574Y-138808413D01*
X91187899Y-139004955D01*
X91355045Y-139172101D01*
X91551587Y-139303426D01*
X91769973Y-139393884D01*
X92001810Y-139440000D01*
X92238190Y-139440000D01*
X92470027Y-139393884D01*
X92688413Y-139303426D01*
X92884955Y-139172101D01*
X93052101Y-139004955D01*
X93183426Y-138808413D01*
X93273884Y-138590027D01*
X93320000Y-138358190D01*
X93320000Y-138121810D01*
X93460000Y-138121810D01*
X93460000Y-138358190D01*
X93506116Y-138590027D01*
X93596574Y-138808413D01*
X93727899Y-139004955D01*
X93895045Y-139172101D01*
X94091587Y-139303426D01*
X94309973Y-139393884D01*
X94541810Y-139440000D01*
X94778190Y-139440000D01*
X95010027Y-139393884D01*
X95228413Y-139303426D01*
X95424955Y-139172101D01*
X95592101Y-139004955D01*
X95723426Y-138808413D01*
X95813884Y-138590027D01*
X95860000Y-138358190D01*
X95860000Y-138121810D01*
X95813884Y-137889973D01*
X95723426Y-137671587D01*
X95592101Y-137475045D01*
X95424955Y-137307899D01*
X95228413Y-137176574D01*
X95010027Y-137086116D01*
X94778190Y-137040000D01*
X94541810Y-137040000D01*
X94309973Y-137086116D01*
X94091587Y-137176574D01*
X93895045Y-137307899D01*
X93727899Y-137475045D01*
X93596574Y-137671587D01*
X93506116Y-137889973D01*
X93460000Y-138121810D01*
X93320000Y-138121810D01*
X93273884Y-137889973D01*
X93183426Y-137671587D01*
X93052101Y-137475045D01*
X92884955Y-137307899D01*
X92688413Y-137176574D01*
X92470027Y-137086116D01*
X92238190Y-137040000D01*
X92001810Y-137040000D01*
X91769973Y-137086116D01*
X91551587Y-137176574D01*
X91355045Y-137307899D01*
X91187899Y-137475045D01*
X91056574Y-137671587D01*
X90966116Y-137889973D01*
X90920000Y-138121810D01*
X90780000Y-138121810D01*
X90733884Y-137889973D01*
X90643426Y-137671587D01*
X90512101Y-137475045D01*
X90344955Y-137307899D01*
X90148413Y-137176574D01*
X89930027Y-137086116D01*
X89698190Y-137040000D01*
X89461810Y-137040000D01*
X89229973Y-137086116D01*
X89011587Y-137176574D01*
X88815045Y-137307899D01*
X88647899Y-137475045D01*
X88516574Y-137671587D01*
X88426116Y-137889973D01*
X88380000Y-138121810D01*
X88240000Y-138121810D01*
X88193884Y-137889973D01*
X88103426Y-137671587D01*
X87972101Y-137475045D01*
X87804955Y-137307899D01*
X87608413Y-137176574D01*
X87390027Y-137086116D01*
X87158190Y-137040000D01*
X86921810Y-137040000D01*
X86689973Y-137086116D01*
X86471587Y-137176574D01*
X86275045Y-137307899D01*
X86107899Y-137475045D01*
X85976574Y-137671587D01*
X85975000Y-137675387D01*
X85975000Y-122881810D01*
X90920000Y-122881810D01*
X90920000Y-123118190D01*
X90966116Y-123350027D01*
X91056574Y-123568413D01*
X91187899Y-123764955D01*
X91355045Y-123932101D01*
X91551587Y-124063426D01*
X91769973Y-124153884D01*
X92001810Y-124200000D01*
X92238190Y-124200000D01*
X92470027Y-124153884D01*
X92688413Y-124063426D01*
X92884955Y-123932101D01*
X93052101Y-123764955D01*
X93183426Y-123568413D01*
X93273884Y-123350027D01*
X93320000Y-123118190D01*
X93320000Y-122881810D01*
X93460000Y-122881810D01*
X93460000Y-123118190D01*
X93506116Y-123350027D01*
X93596574Y-123568413D01*
X93727899Y-123764955D01*
X93895045Y-123932101D01*
X94091587Y-124063426D01*
X94309973Y-124153884D01*
X94541810Y-124200000D01*
X94778190Y-124200000D01*
X95010027Y-124153884D01*
X95228413Y-124063426D01*
X95424955Y-123932101D01*
X95592101Y-123764955D01*
X95723426Y-123568413D01*
X95813884Y-123350027D01*
X95860000Y-123118190D01*
X95860000Y-122881810D01*
X96000000Y-122881810D01*
X96000000Y-123118190D01*
X96046116Y-123350027D01*
X96136574Y-123568413D01*
X96267899Y-123764955D01*
X96435045Y-123932101D01*
X96631587Y-124063426D01*
X96849973Y-124153884D01*
X97081810Y-124200000D01*
X97318190Y-124200000D01*
X97550027Y-124153884D01*
X97768413Y-124063426D01*
X97964955Y-123932101D01*
X98132101Y-123764955D01*
X98263426Y-123568413D01*
X98353884Y-123350027D01*
X98400000Y-123118190D01*
X98400000Y-123117461D01*
X98540000Y-122977461D01*
X98540000Y-123118190D01*
X98586116Y-123350027D01*
X98676574Y-123568413D01*
X98807899Y-123764955D01*
X98975045Y-123932101D01*
X99171587Y-124063426D01*
X99389973Y-124153884D01*
X99621810Y-124200000D01*
X99858190Y-124200000D01*
X100090027Y-124153884D01*
X100308413Y-124063426D01*
X100475001Y-123952116D01*
X100475000Y-125782538D01*
X100097005Y-126160534D01*
X100076974Y-126176973D01*
X100050476Y-126209261D01*
X100011367Y-126256915D01*
X99962617Y-126348120D01*
X99932597Y-126447083D01*
X99922461Y-126550000D01*
X99925001Y-126575790D01*
X99925000Y-128686904D01*
X99750413Y-128570249D01*
X99538943Y-128482655D01*
X99314447Y-128438000D01*
X99085553Y-128438000D01*
X98861057Y-128482655D01*
X98649587Y-128570249D01*
X98459268Y-128697416D01*
X98297416Y-128859268D01*
X98170249Y-129049587D01*
X98082655Y-129261057D01*
X98038000Y-129485553D01*
X98038000Y-129714447D01*
X98082655Y-129938943D01*
X98170249Y-130150413D01*
X98297416Y-130340732D01*
X98459268Y-130502584D01*
X98649587Y-130629751D01*
X98861057Y-130717345D01*
X99085553Y-130762000D01*
X99314447Y-130762000D01*
X99538943Y-130717345D01*
X99750413Y-130629751D01*
X99940732Y-130502584D01*
X100102584Y-130340732D01*
X100229751Y-130150413D01*
X100317345Y-129938943D01*
X100345609Y-129796853D01*
X100538000Y-129604461D01*
X100538000Y-129714447D01*
X100582655Y-129938943D01*
X100670249Y-130150413D01*
X100797416Y-130340732D01*
X100959268Y-130502584D01*
X101149587Y-130629751D01*
X101361057Y-130717345D01*
X101585553Y-130762000D01*
X101814447Y-130762000D01*
X102038943Y-130717345D01*
X102250413Y-130629751D01*
X102440732Y-130502584D01*
X102602584Y-130340732D01*
X102725000Y-130157523D01*
X102725000Y-134532538D01*
X100147583Y-137109956D01*
X100090027Y-137086116D01*
X99858190Y-137040000D01*
X99621810Y-137040000D01*
X99389973Y-137086116D01*
X99171587Y-137176574D01*
X98975045Y-137307899D01*
X98807899Y-137475045D01*
X98676574Y-137671587D01*
X98586116Y-137889973D01*
X98540000Y-138121810D01*
X98540000Y-138358190D01*
X98586116Y-138590027D01*
X98641714Y-138724252D01*
X98379369Y-138461908D01*
X98400000Y-138358190D01*
X98400000Y-138121810D01*
X98353884Y-137889973D01*
X98263426Y-137671587D01*
X98132101Y-137475045D01*
X97964955Y-137307899D01*
X97768413Y-137176574D01*
X97550027Y-137086116D01*
X97318190Y-137040000D01*
X97081810Y-137040000D01*
X96849973Y-137086116D01*
X96631587Y-137176574D01*
X96435045Y-137307899D01*
X96267899Y-137475045D01*
X96136574Y-137671587D01*
X96046116Y-137889973D01*
X96000000Y-138121810D01*
X96000000Y-138358190D01*
X96046116Y-138590027D01*
X96136574Y-138808413D01*
X96267899Y-139004955D01*
X96435045Y-139172101D01*
X96631587Y-139303426D01*
X96849973Y-139393884D01*
X97081810Y-139440000D01*
X97318190Y-139440000D01*
X97550027Y-139393884D01*
X97745469Y-139312930D01*
X98910545Y-140478007D01*
X98926984Y-140498038D01*
X99006925Y-140563644D01*
X99098130Y-140612394D01*
X99197093Y-140642414D01*
X99274223Y-140650011D01*
X99274230Y-140650011D01*
X99300010Y-140652550D01*
X99325790Y-140650011D01*
X122849209Y-140650011D01*
X122874989Y-140652550D01*
X122900769Y-140650011D01*
X122900777Y-140650011D01*
X122977907Y-140642414D01*
X123076870Y-140612394D01*
X123168075Y-140563644D01*
X123248016Y-140498038D01*
X123264460Y-140478002D01*
X124203001Y-139539462D01*
X124223027Y-139523027D01*
X124239462Y-139503001D01*
X124239466Y-139502997D01*
X124263985Y-139473120D01*
X124288633Y-139443086D01*
X124337383Y-139351881D01*
X124367403Y-139252918D01*
X124375000Y-139175788D01*
X124375000Y-139175780D01*
X124375343Y-139172300D01*
X124571587Y-139303426D01*
X124789973Y-139393884D01*
X125021810Y-139440000D01*
X125258190Y-139440000D01*
X125490027Y-139393884D01*
X125708413Y-139303426D01*
X125904955Y-139172101D01*
X126072101Y-139004955D01*
X126203426Y-138808413D01*
X126293884Y-138590027D01*
X126340000Y-138358190D01*
X126340000Y-138121810D01*
X126480000Y-138121810D01*
X126480000Y-138358190D01*
X126526116Y-138590027D01*
X126616574Y-138808413D01*
X126747899Y-139004955D01*
X126915045Y-139172101D01*
X127111587Y-139303426D01*
X127329973Y-139393884D01*
X127561810Y-139440000D01*
X127798190Y-139440000D01*
X128030027Y-139393884D01*
X128248413Y-139303426D01*
X128444955Y-139172101D01*
X128612101Y-139004955D01*
X128743426Y-138808413D01*
X128833884Y-138590027D01*
X128880000Y-138358190D01*
X128880000Y-138121810D01*
X129020000Y-138121810D01*
X129020000Y-138358190D01*
X129066116Y-138590027D01*
X129156574Y-138808413D01*
X129287899Y-139004955D01*
X129455045Y-139172101D01*
X129651587Y-139303426D01*
X129869973Y-139393884D01*
X130101810Y-139440000D01*
X130338190Y-139440000D01*
X130570027Y-139393884D01*
X130788413Y-139303426D01*
X130984955Y-139172101D01*
X131152101Y-139004955D01*
X131283426Y-138808413D01*
X131373884Y-138590027D01*
X131420000Y-138358190D01*
X131420000Y-138121810D01*
X134100000Y-138121810D01*
X134100000Y-138358190D01*
X134146116Y-138590027D01*
X134236574Y-138808413D01*
X134367899Y-139004955D01*
X134535045Y-139172101D01*
X134731587Y-139303426D01*
X134949973Y-139393884D01*
X135181810Y-139440000D01*
X135418190Y-139440000D01*
X135650027Y-139393884D01*
X135868413Y-139303426D01*
X136064955Y-139172101D01*
X136232101Y-139004955D01*
X136363426Y-138808413D01*
X136453884Y-138590027D01*
X136500000Y-138358190D01*
X136500000Y-138121810D01*
X136453884Y-137889973D01*
X136363426Y-137671587D01*
X136232101Y-137475045D01*
X136064955Y-137307899D01*
X135868413Y-137176574D01*
X135650027Y-137086116D01*
X135418190Y-137040000D01*
X135181810Y-137040000D01*
X134949973Y-137086116D01*
X134731587Y-137176574D01*
X134535045Y-137307899D01*
X134367899Y-137475045D01*
X134236574Y-137671587D01*
X134146116Y-137889973D01*
X134100000Y-138121810D01*
X131420000Y-138121810D01*
X131373884Y-137889973D01*
X131283426Y-137671587D01*
X131152101Y-137475045D01*
X130984955Y-137307899D01*
X130788413Y-137176574D01*
X130570027Y-137086116D01*
X130338190Y-137040000D01*
X130101810Y-137040000D01*
X129869973Y-137086116D01*
X129651587Y-137176574D01*
X129455045Y-137307899D01*
X129287899Y-137475045D01*
X129156574Y-137671587D01*
X129066116Y-137889973D01*
X129020000Y-138121810D01*
X128880000Y-138121810D01*
X128833884Y-137889973D01*
X128743426Y-137671587D01*
X128612101Y-137475045D01*
X128444955Y-137307899D01*
X128248413Y-137176574D01*
X128030027Y-137086116D01*
X127798190Y-137040000D01*
X127561810Y-137040000D01*
X127329973Y-137086116D01*
X127111587Y-137176574D01*
X126915045Y-137307899D01*
X126747899Y-137475045D01*
X126616574Y-137671587D01*
X126526116Y-137889973D01*
X126480000Y-138121810D01*
X126340000Y-138121810D01*
X126293884Y-137889973D01*
X126203426Y-137671587D01*
X126072101Y-137475045D01*
X125904955Y-137307899D01*
X125708413Y-137176574D01*
X125490027Y-137086116D01*
X125258190Y-137040000D01*
X125021810Y-137040000D01*
X124789973Y-137086116D01*
X124571587Y-137176574D01*
X124375045Y-137307899D01*
X124375000Y-137307944D01*
X124375000Y-136412866D01*
X143700000Y-136412866D01*
X143700000Y-136787134D01*
X143773016Y-137154209D01*
X143916242Y-137499987D01*
X144124174Y-137811179D01*
X144388821Y-138075826D01*
X144700013Y-138283758D01*
X145045791Y-138426984D01*
X145412866Y-138500000D01*
X145787134Y-138500000D01*
X146154209Y-138426984D01*
X146499987Y-138283758D01*
X146811179Y-138075826D01*
X147075826Y-137811179D01*
X147283758Y-137499987D01*
X147426984Y-137154209D01*
X147500000Y-136787134D01*
X147500000Y-136412866D01*
X147426984Y-136045791D01*
X147283758Y-135700013D01*
X147075826Y-135388821D01*
X146811179Y-135124174D01*
X146499987Y-134916242D01*
X146154209Y-134773016D01*
X145787134Y-134700000D01*
X145412866Y-134700000D01*
X145045791Y-134773016D01*
X144700013Y-134916242D01*
X144388821Y-135124174D01*
X144124174Y-135388821D01*
X143916242Y-135700013D01*
X143773016Y-136045791D01*
X143700000Y-136412866D01*
X124375000Y-136412866D01*
X124375000Y-134315553D01*
X130328000Y-134315553D01*
X130328000Y-134544447D01*
X130372655Y-134768943D01*
X130460249Y-134980413D01*
X130587416Y-135170732D01*
X130749268Y-135332584D01*
X130939587Y-135459751D01*
X131151057Y-135547345D01*
X131375553Y-135592000D01*
X131604447Y-135592000D01*
X131828943Y-135547345D01*
X132040413Y-135459751D01*
X132230732Y-135332584D01*
X132392584Y-135170732D01*
X132519751Y-134980413D01*
X132607345Y-134768943D01*
X132652000Y-134544447D01*
X132652000Y-134315553D01*
X132607345Y-134091057D01*
X132519751Y-133879587D01*
X132392584Y-133689268D01*
X132230732Y-133527416D01*
X132040413Y-133400249D01*
X131828943Y-133312655D01*
X131604447Y-133268000D01*
X131375553Y-133268000D01*
X131151057Y-133312655D01*
X130939587Y-133400249D01*
X130749268Y-133527416D01*
X130587416Y-133689268D01*
X130460249Y-133879587D01*
X130372655Y-134091057D01*
X130328000Y-134315553D01*
X124375000Y-134315553D01*
X124375000Y-126417461D01*
X126752996Y-124039466D01*
X126773027Y-124023027D01*
X126838633Y-123943086D01*
X126869076Y-123886132D01*
X126915045Y-123932101D01*
X127111587Y-124063426D01*
X127329973Y-124153884D01*
X127561810Y-124200000D01*
X127798190Y-124200000D01*
X128030027Y-124153884D01*
X128248413Y-124063426D01*
X128444955Y-123932101D01*
X128612101Y-123764955D01*
X128743426Y-123568413D01*
X128833884Y-123350027D01*
X128869007Y-123173455D01*
X129020000Y-123022462D01*
X129020000Y-123118190D01*
X129066116Y-123350027D01*
X129156574Y-123568413D01*
X129287899Y-123764955D01*
X129455045Y-123932101D01*
X129651587Y-124063426D01*
X129869973Y-124153884D01*
X130064884Y-124192655D01*
X128896983Y-125360556D01*
X128876952Y-125376995D01*
X128860513Y-125397026D01*
X128811345Y-125456937D01*
X128762595Y-125548142D01*
X128732575Y-125647105D01*
X128722439Y-125750022D01*
X128724979Y-125775812D01*
X128724978Y-129624198D01*
X128722439Y-129649978D01*
X128724978Y-129675758D01*
X128724978Y-129675765D01*
X128732575Y-129752895D01*
X128762595Y-129851858D01*
X128811345Y-129943064D01*
X128876951Y-130023005D01*
X128896988Y-130039449D01*
X130383182Y-131525643D01*
X130372655Y-131551057D01*
X130328000Y-131775553D01*
X130328000Y-132004447D01*
X130372655Y-132228943D01*
X130460249Y-132440413D01*
X130587416Y-132630732D01*
X130749268Y-132792584D01*
X130939587Y-132919751D01*
X131151057Y-133007345D01*
X131375553Y-133052000D01*
X131604447Y-133052000D01*
X131828943Y-133007345D01*
X132040413Y-132919751D01*
X132230732Y-132792584D01*
X132392584Y-132630732D01*
X132519751Y-132440413D01*
X132607345Y-132228943D01*
X132652000Y-132004447D01*
X132652000Y-131775553D01*
X132607345Y-131551057D01*
X132519751Y-131339587D01*
X132392584Y-131149268D01*
X132368316Y-131125000D01*
X133182539Y-131125000D01*
X137000000Y-134942462D01*
X137000000Y-134968944D01*
X137026901Y-135104182D01*
X137079668Y-135231574D01*
X137156274Y-135346224D01*
X137253776Y-135443726D01*
X137368426Y-135520332D01*
X137495818Y-135573099D01*
X137631056Y-135600000D01*
X137768944Y-135600000D01*
X137904182Y-135573099D01*
X138031574Y-135520332D01*
X138146224Y-135443726D01*
X138243726Y-135346224D01*
X138320332Y-135231574D01*
X138373099Y-135104182D01*
X138400000Y-134968944D01*
X138400000Y-134831056D01*
X138373099Y-134695818D01*
X138320332Y-134568426D01*
X138243726Y-134453776D01*
X138146224Y-134356274D01*
X138031574Y-134279668D01*
X137904182Y-134226901D01*
X137768944Y-134200000D01*
X137742462Y-134200000D01*
X133789471Y-130247010D01*
X133773027Y-130226973D01*
X133693086Y-130161367D01*
X133601881Y-130112617D01*
X133502918Y-130082597D01*
X133425788Y-130075000D01*
X133425780Y-130075000D01*
X133400000Y-130072461D01*
X133374220Y-130075000D01*
X132403096Y-130075000D01*
X132519751Y-129900413D01*
X132607345Y-129688943D01*
X132652000Y-129464447D01*
X132652000Y-129235553D01*
X132607345Y-129011057D01*
X132519751Y-128799587D01*
X132392584Y-128609268D01*
X132230732Y-128447416D01*
X132179025Y-128412866D01*
X143700000Y-128412866D01*
X143700000Y-128787134D01*
X143773016Y-129154209D01*
X143916242Y-129499987D01*
X144124174Y-129811179D01*
X144388821Y-130075826D01*
X144700013Y-130283758D01*
X145045791Y-130426984D01*
X145412866Y-130500000D01*
X145787134Y-130500000D01*
X146154209Y-130426984D01*
X146499987Y-130283758D01*
X146524750Y-130267212D01*
X147210534Y-130952996D01*
X147226973Y-130973027D01*
X147306914Y-131038633D01*
X147398119Y-131087383D01*
X147497082Y-131117403D01*
X147574212Y-131125000D01*
X147574219Y-131125000D01*
X147599999Y-131127539D01*
X147625779Y-131125000D01*
X148387995Y-131125000D01*
X148124174Y-131388821D01*
X147916242Y-131700013D01*
X147773016Y-132045791D01*
X147700000Y-132412866D01*
X147700000Y-132787134D01*
X147773016Y-133154209D01*
X147916242Y-133499987D01*
X148124174Y-133811179D01*
X148387995Y-134075000D01*
X147817462Y-134075000D01*
X147267212Y-133524750D01*
X147283758Y-133499987D01*
X147426984Y-133154209D01*
X147500000Y-132787134D01*
X147500000Y-132412866D01*
X147426984Y-132045791D01*
X147283758Y-131700013D01*
X147075826Y-131388821D01*
X146811179Y-131124174D01*
X146499987Y-130916242D01*
X146154209Y-130773016D01*
X145787134Y-130700000D01*
X145412866Y-130700000D01*
X145045791Y-130773016D01*
X144700013Y-130916242D01*
X144388821Y-131124174D01*
X144124174Y-131388821D01*
X143916242Y-131700013D01*
X143773016Y-132045791D01*
X143700000Y-132412866D01*
X143700000Y-132787134D01*
X143773016Y-133154209D01*
X143916242Y-133499987D01*
X144124174Y-133811179D01*
X144388821Y-134075826D01*
X144700013Y-134283758D01*
X145045791Y-134426984D01*
X145412866Y-134500000D01*
X145787134Y-134500000D01*
X146154209Y-134426984D01*
X146499987Y-134283758D01*
X146524750Y-134267212D01*
X147210534Y-134952996D01*
X147226973Y-134973027D01*
X147306914Y-135038633D01*
X147398119Y-135087383D01*
X147497082Y-135117403D01*
X147574212Y-135125000D01*
X147574219Y-135125000D01*
X147599999Y-135127539D01*
X147625779Y-135125000D01*
X148387995Y-135125000D01*
X148124174Y-135388821D01*
X147916242Y-135700013D01*
X147773016Y-136045791D01*
X147700000Y-136412866D01*
X147700000Y-136787134D01*
X147773016Y-137154209D01*
X147916242Y-137499987D01*
X148124174Y-137811179D01*
X148388821Y-138075826D01*
X148700013Y-138283758D01*
X149045791Y-138426984D01*
X149412866Y-138500000D01*
X149787134Y-138500000D01*
X150154209Y-138426984D01*
X150499987Y-138283758D01*
X150811179Y-138075826D01*
X151075826Y-137811179D01*
X151283758Y-137499987D01*
X151426984Y-137154209D01*
X151500000Y-136787134D01*
X151500000Y-136412866D01*
X159700000Y-136412866D01*
X159700000Y-136787134D01*
X159773016Y-137154209D01*
X159916242Y-137499987D01*
X160124174Y-137811179D01*
X160388821Y-138075826D01*
X160700013Y-138283758D01*
X161045791Y-138426984D01*
X161412866Y-138500000D01*
X161787134Y-138500000D01*
X162154209Y-138426984D01*
X162499987Y-138283758D01*
X162811179Y-138075826D01*
X163075826Y-137811179D01*
X163283758Y-137499987D01*
X163426984Y-137154209D01*
X163500000Y-136787134D01*
X163500000Y-136412866D01*
X163426984Y-136045791D01*
X163283758Y-135700013D01*
X163075826Y-135388821D01*
X162811179Y-135124174D01*
X162499987Y-134916242D01*
X162154209Y-134773016D01*
X161787134Y-134700000D01*
X161412866Y-134700000D01*
X161045791Y-134773016D01*
X160700013Y-134916242D01*
X160388821Y-135124174D01*
X160124174Y-135388821D01*
X159916242Y-135700013D01*
X159773016Y-136045791D01*
X159700000Y-136412866D01*
X151500000Y-136412866D01*
X151426984Y-136045791D01*
X151283758Y-135700013D01*
X151075826Y-135388821D01*
X150812005Y-135125000D01*
X159574220Y-135125000D01*
X159600000Y-135127539D01*
X159625780Y-135125000D01*
X159625788Y-135125000D01*
X159702918Y-135117403D01*
X159801881Y-135087383D01*
X159893086Y-135038633D01*
X159973027Y-134973027D01*
X159989471Y-134952990D01*
X160675250Y-134267212D01*
X160700013Y-134283758D01*
X161045791Y-134426984D01*
X161412866Y-134500000D01*
X161787134Y-134500000D01*
X162154209Y-134426984D01*
X162499987Y-134283758D01*
X162524750Y-134267212D01*
X163210534Y-134952996D01*
X163226973Y-134973027D01*
X163306914Y-135038633D01*
X163398119Y-135087383D01*
X163497082Y-135117403D01*
X163574212Y-135125000D01*
X163574219Y-135125000D01*
X163599999Y-135127539D01*
X163625779Y-135125000D01*
X164387995Y-135125000D01*
X164124174Y-135388821D01*
X163916242Y-135700013D01*
X163773016Y-136045791D01*
X163700000Y-136412866D01*
X163700000Y-136787134D01*
X163773016Y-137154209D01*
X163916242Y-137499987D01*
X164124174Y-137811179D01*
X164388821Y-138075826D01*
X164700013Y-138283758D01*
X165045791Y-138426984D01*
X165412866Y-138500000D01*
X165787134Y-138500000D01*
X166154209Y-138426984D01*
X166499987Y-138283758D01*
X166811179Y-138075826D01*
X167075826Y-137811179D01*
X167283758Y-137499987D01*
X167426984Y-137154209D01*
X167500000Y-136787134D01*
X167500000Y-136412866D01*
X175700000Y-136412866D01*
X175700000Y-136787134D01*
X175773016Y-137154209D01*
X175916242Y-137499987D01*
X176124174Y-137811179D01*
X176388821Y-138075826D01*
X176700013Y-138283758D01*
X177045791Y-138426984D01*
X177412866Y-138500000D01*
X177787134Y-138500000D01*
X178154209Y-138426984D01*
X178499987Y-138283758D01*
X178811179Y-138075826D01*
X179075826Y-137811179D01*
X179283758Y-137499987D01*
X179426984Y-137154209D01*
X179500000Y-136787134D01*
X179500000Y-136412866D01*
X179426984Y-136045791D01*
X179283758Y-135700013D01*
X179075826Y-135388821D01*
X178811179Y-135124174D01*
X178499987Y-134916242D01*
X178154209Y-134773016D01*
X177787134Y-134700000D01*
X177412866Y-134700000D01*
X177045791Y-134773016D01*
X176700013Y-134916242D01*
X176388821Y-135124174D01*
X176124174Y-135388821D01*
X175916242Y-135700013D01*
X175773016Y-136045791D01*
X175700000Y-136412866D01*
X167500000Y-136412866D01*
X167426984Y-136045791D01*
X167283758Y-135700013D01*
X167075826Y-135388821D01*
X166812005Y-135125000D01*
X169335050Y-135125000D01*
X169353776Y-135143726D01*
X169468426Y-135220332D01*
X169595818Y-135273099D01*
X169731056Y-135300000D01*
X169868944Y-135300000D01*
X170004182Y-135273099D01*
X170131574Y-135220332D01*
X170246224Y-135143726D01*
X170264950Y-135125000D01*
X175574220Y-135125000D01*
X175600000Y-135127539D01*
X175625780Y-135125000D01*
X175625788Y-135125000D01*
X175702918Y-135117403D01*
X175801881Y-135087383D01*
X175893086Y-135038633D01*
X175973027Y-134973027D01*
X175989471Y-134952990D01*
X176675250Y-134267212D01*
X176700013Y-134283758D01*
X177045791Y-134426984D01*
X177412866Y-134500000D01*
X177787134Y-134500000D01*
X178154209Y-134426984D01*
X178499987Y-134283758D01*
X178524750Y-134267212D01*
X179210534Y-134952996D01*
X179226973Y-134973027D01*
X179306914Y-135038633D01*
X179398119Y-135087383D01*
X179497082Y-135117403D01*
X179574212Y-135125000D01*
X179574219Y-135125000D01*
X179599999Y-135127539D01*
X179625779Y-135125000D01*
X180387995Y-135125000D01*
X180124174Y-135388821D01*
X179916242Y-135700013D01*
X179773016Y-136045791D01*
X179700000Y-136412866D01*
X179700000Y-136787134D01*
X179773016Y-137154209D01*
X179916242Y-137499987D01*
X180124174Y-137811179D01*
X180388821Y-138075826D01*
X180700013Y-138283758D01*
X181045791Y-138426984D01*
X181412866Y-138500000D01*
X181787134Y-138500000D01*
X182154209Y-138426984D01*
X182499987Y-138283758D01*
X182811179Y-138075826D01*
X183075826Y-137811179D01*
X183283758Y-137499987D01*
X183426984Y-137154209D01*
X183500000Y-136787134D01*
X183500000Y-136412866D01*
X191700000Y-136412866D01*
X191700000Y-136787134D01*
X191773016Y-137154209D01*
X191916242Y-137499987D01*
X192124174Y-137811179D01*
X192388821Y-138075826D01*
X192700013Y-138283758D01*
X193045791Y-138426984D01*
X193412866Y-138500000D01*
X193787134Y-138500000D01*
X194154209Y-138426984D01*
X194499987Y-138283758D01*
X194811179Y-138075826D01*
X195075826Y-137811179D01*
X195283758Y-137499987D01*
X195426984Y-137154209D01*
X195500000Y-136787134D01*
X195500000Y-136412866D01*
X195700000Y-136412866D01*
X195700000Y-136787134D01*
X195773016Y-137154209D01*
X195916242Y-137499987D01*
X196124174Y-137811179D01*
X196388821Y-138075826D01*
X196700013Y-138283758D01*
X197045791Y-138426984D01*
X197412866Y-138500000D01*
X197787134Y-138500000D01*
X198154209Y-138426984D01*
X198499987Y-138283758D01*
X198811179Y-138075826D01*
X199075826Y-137811179D01*
X199283758Y-137499987D01*
X199426984Y-137154209D01*
X199500000Y-136787134D01*
X199500000Y-136412866D01*
X199426984Y-136045791D01*
X199283758Y-135700013D01*
X199075826Y-135388821D01*
X198811179Y-135124174D01*
X198499987Y-134916242D01*
X198154209Y-134773016D01*
X197787134Y-134700000D01*
X197412866Y-134700000D01*
X197045791Y-134773016D01*
X196700013Y-134916242D01*
X196388821Y-135124174D01*
X196124174Y-135388821D01*
X195916242Y-135700013D01*
X195773016Y-136045791D01*
X195700000Y-136412866D01*
X195500000Y-136412866D01*
X195426984Y-136045791D01*
X195283758Y-135700013D01*
X195075826Y-135388821D01*
X194811179Y-135124174D01*
X194499987Y-134916242D01*
X194154209Y-134773016D01*
X193787134Y-134700000D01*
X193412866Y-134700000D01*
X193045791Y-134773016D01*
X192700013Y-134916242D01*
X192388821Y-135124174D01*
X192124174Y-135388821D01*
X191916242Y-135700013D01*
X191773016Y-136045791D01*
X191700000Y-136412866D01*
X183500000Y-136412866D01*
X183426984Y-136045791D01*
X183283758Y-135700013D01*
X183075826Y-135388821D01*
X182812005Y-135125000D01*
X191574220Y-135125000D01*
X191600000Y-135127539D01*
X191625780Y-135125000D01*
X191625788Y-135125000D01*
X191702918Y-135117403D01*
X191801881Y-135087383D01*
X191893086Y-135038633D01*
X191973027Y-134973027D01*
X191989471Y-134952990D01*
X192675250Y-134267212D01*
X192700013Y-134283758D01*
X193045791Y-134426984D01*
X193412866Y-134500000D01*
X193787134Y-134500000D01*
X194154209Y-134426984D01*
X194499987Y-134283758D01*
X194811179Y-134075826D01*
X195075826Y-133811179D01*
X195283758Y-133499987D01*
X195426984Y-133154209D01*
X195500000Y-132787134D01*
X195500000Y-132412866D01*
X195700000Y-132412866D01*
X195700000Y-132787134D01*
X195773016Y-133154209D01*
X195916242Y-133499987D01*
X196124174Y-133811179D01*
X196388821Y-134075826D01*
X196700013Y-134283758D01*
X197045791Y-134426984D01*
X197412866Y-134500000D01*
X197787134Y-134500000D01*
X198154209Y-134426984D01*
X198499987Y-134283758D01*
X198811179Y-134075826D01*
X199075826Y-133811179D01*
X199283758Y-133499987D01*
X199426984Y-133154209D01*
X199500000Y-132787134D01*
X199500000Y-132412866D01*
X199426984Y-132045791D01*
X199283758Y-131700013D01*
X199075826Y-131388821D01*
X198811179Y-131124174D01*
X198499987Y-130916242D01*
X198154209Y-130773016D01*
X197787134Y-130700000D01*
X197412866Y-130700000D01*
X197045791Y-130773016D01*
X196700013Y-130916242D01*
X196388821Y-131124174D01*
X196124174Y-131388821D01*
X195916242Y-131700013D01*
X195773016Y-132045791D01*
X195700000Y-132412866D01*
X195500000Y-132412866D01*
X195426984Y-132045791D01*
X195283758Y-131700013D01*
X195075826Y-131388821D01*
X194811179Y-131124174D01*
X194499987Y-130916242D01*
X194154209Y-130773016D01*
X193787134Y-130700000D01*
X193492461Y-130700000D01*
X193692462Y-130500000D01*
X193787134Y-130500000D01*
X194154209Y-130426984D01*
X194499987Y-130283758D01*
X194811179Y-130075826D01*
X195075826Y-129811179D01*
X195283758Y-129499987D01*
X195426984Y-129154209D01*
X195500000Y-128787134D01*
X195500000Y-128412866D01*
X195700000Y-128412866D01*
X195700000Y-128787134D01*
X195773016Y-129154209D01*
X195916242Y-129499987D01*
X196124174Y-129811179D01*
X196388821Y-130075826D01*
X196700013Y-130283758D01*
X197045791Y-130426984D01*
X197412866Y-130500000D01*
X197787134Y-130500000D01*
X198154209Y-130426984D01*
X198499987Y-130283758D01*
X198811179Y-130075826D01*
X199075826Y-129811179D01*
X199283758Y-129499987D01*
X199426984Y-129154209D01*
X199500000Y-128787134D01*
X199500000Y-128412866D01*
X199487496Y-128350000D01*
X201248065Y-128350000D01*
X201248065Y-129850000D01*
X201255788Y-129928414D01*
X201278660Y-130003814D01*
X201315803Y-130073303D01*
X201365789Y-130134211D01*
X201426697Y-130184197D01*
X201496186Y-130221340D01*
X201571586Y-130244212D01*
X201650000Y-130251935D01*
X203850000Y-130251935D01*
X203928414Y-130244212D01*
X204003814Y-130221340D01*
X204073303Y-130184197D01*
X204134211Y-130134211D01*
X204184197Y-130073303D01*
X204221340Y-130003814D01*
X204244212Y-129928414D01*
X204251935Y-129850000D01*
X204251935Y-128985553D01*
X206588000Y-128985553D01*
X206588000Y-129214447D01*
X206632655Y-129438943D01*
X206720249Y-129650413D01*
X206847416Y-129840732D01*
X207009268Y-130002584D01*
X207199587Y-130129751D01*
X207411057Y-130217345D01*
X207635553Y-130262000D01*
X207864447Y-130262000D01*
X208088943Y-130217345D01*
X208300413Y-130129751D01*
X208490732Y-130002584D01*
X208652584Y-129840732D01*
X208779751Y-129650413D01*
X208867345Y-129438943D01*
X208912000Y-129214447D01*
X208912000Y-128985553D01*
X208867345Y-128761057D01*
X208779751Y-128549587D01*
X208652584Y-128359268D01*
X208490732Y-128197416D01*
X208300413Y-128070249D01*
X208088943Y-127982655D01*
X207864447Y-127938000D01*
X207635553Y-127938000D01*
X207411057Y-127982655D01*
X207199587Y-128070249D01*
X207009268Y-128197416D01*
X206847416Y-128359268D01*
X206720249Y-128549587D01*
X206632655Y-128761057D01*
X206588000Y-128985553D01*
X204251935Y-128985553D01*
X204251935Y-128350000D01*
X204244212Y-128271586D01*
X204221340Y-128196186D01*
X204184197Y-128126697D01*
X204134211Y-128065789D01*
X204073303Y-128015803D01*
X204003814Y-127978660D01*
X203928414Y-127955788D01*
X203850000Y-127948065D01*
X201650000Y-127948065D01*
X201571586Y-127955788D01*
X201496186Y-127978660D01*
X201426697Y-128015803D01*
X201365789Y-128065789D01*
X201315803Y-128126697D01*
X201278660Y-128196186D01*
X201255788Y-128271586D01*
X201248065Y-128350000D01*
X199487496Y-128350000D01*
X199426984Y-128045791D01*
X199283758Y-127700013D01*
X199075826Y-127388821D01*
X198811179Y-127124174D01*
X198499987Y-126916242D01*
X198154209Y-126773016D01*
X197787134Y-126700000D01*
X197412866Y-126700000D01*
X197045791Y-126773016D01*
X196700013Y-126916242D01*
X196388821Y-127124174D01*
X196124174Y-127388821D01*
X195916242Y-127700013D01*
X195773016Y-128045791D01*
X195700000Y-128412866D01*
X195500000Y-128412866D01*
X195426984Y-128045791D01*
X195283758Y-127700013D01*
X195075826Y-127388821D01*
X194811179Y-127124174D01*
X194499987Y-126916242D01*
X194154209Y-126773016D01*
X193787134Y-126700000D01*
X193412866Y-126700000D01*
X193045791Y-126773016D01*
X192700013Y-126916242D01*
X192388821Y-127124174D01*
X192124174Y-127388821D01*
X191916242Y-127700013D01*
X191773016Y-128045791D01*
X191700000Y-128412866D01*
X191700000Y-128787134D01*
X191773016Y-129154209D01*
X191916242Y-129499987D01*
X192124174Y-129811179D01*
X192387995Y-130075000D01*
X182812005Y-130075000D01*
X183075826Y-129811179D01*
X183283758Y-129499987D01*
X183426984Y-129154209D01*
X183500000Y-128787134D01*
X183500000Y-128412866D01*
X183426984Y-128045791D01*
X183283758Y-127700013D01*
X183075826Y-127388821D01*
X182811179Y-127124174D01*
X182499987Y-126916242D01*
X182154209Y-126773016D01*
X181787134Y-126700000D01*
X181412866Y-126700000D01*
X181045791Y-126773016D01*
X180700013Y-126916242D01*
X180388821Y-127124174D01*
X180124174Y-127388821D01*
X179916242Y-127700013D01*
X179773016Y-128045791D01*
X179700000Y-128412866D01*
X179700000Y-128787134D01*
X179773016Y-129154209D01*
X179916242Y-129499987D01*
X180124174Y-129811179D01*
X180387995Y-130075000D01*
X179817462Y-130075000D01*
X179267212Y-129524750D01*
X179283758Y-129499987D01*
X179426984Y-129154209D01*
X179500000Y-128787134D01*
X179500000Y-128412866D01*
X179426984Y-128045791D01*
X179283758Y-127700013D01*
X179075826Y-127388821D01*
X178811179Y-127124174D01*
X178499987Y-126916242D01*
X178154209Y-126773016D01*
X177787134Y-126700000D01*
X177412866Y-126700000D01*
X177045791Y-126773016D01*
X176700013Y-126916242D01*
X176388821Y-127124174D01*
X176124174Y-127388821D01*
X175916242Y-127700013D01*
X175773016Y-128045791D01*
X175700000Y-128412866D01*
X175700000Y-128787134D01*
X175773016Y-129154209D01*
X175916242Y-129499987D01*
X175932788Y-129524750D01*
X175382539Y-130075000D01*
X172275788Y-130075000D01*
X172250000Y-130072460D01*
X172224212Y-130075000D01*
X166812005Y-130075000D01*
X167075826Y-129811179D01*
X167283758Y-129499987D01*
X167426984Y-129154209D01*
X167500000Y-128787134D01*
X167500000Y-128412866D01*
X167426984Y-128045791D01*
X167283758Y-127700013D01*
X167075826Y-127388821D01*
X166811179Y-127124174D01*
X166499987Y-126916242D01*
X166154209Y-126773016D01*
X165787134Y-126700000D01*
X165412866Y-126700000D01*
X165045791Y-126773016D01*
X164700013Y-126916242D01*
X164388821Y-127124174D01*
X164124174Y-127388821D01*
X163916242Y-127700013D01*
X163773016Y-128045791D01*
X163700000Y-128412866D01*
X163700000Y-128787134D01*
X163773016Y-129154209D01*
X163916242Y-129499987D01*
X164124174Y-129811179D01*
X164387995Y-130075000D01*
X163817462Y-130075000D01*
X163267212Y-129524750D01*
X163283758Y-129499987D01*
X163426984Y-129154209D01*
X163500000Y-128787134D01*
X163500000Y-128412866D01*
X163426984Y-128045791D01*
X163283758Y-127700013D01*
X163075826Y-127388821D01*
X162811179Y-127124174D01*
X162499987Y-126916242D01*
X162154209Y-126773016D01*
X161787134Y-126700000D01*
X161412866Y-126700000D01*
X161045791Y-126773016D01*
X160700013Y-126916242D01*
X160388821Y-127124174D01*
X160124174Y-127388821D01*
X159916242Y-127700013D01*
X159773016Y-128045791D01*
X159700000Y-128412866D01*
X159700000Y-128787134D01*
X159773016Y-129154209D01*
X159916242Y-129499987D01*
X159932788Y-129524750D01*
X159382539Y-130075000D01*
X150812005Y-130075000D01*
X151075826Y-129811179D01*
X151283758Y-129499987D01*
X151426984Y-129154209D01*
X151500000Y-128787134D01*
X151500000Y-128412866D01*
X151426984Y-128045791D01*
X151283758Y-127700013D01*
X151075826Y-127388821D01*
X150811179Y-127124174D01*
X150499987Y-126916242D01*
X150154209Y-126773016D01*
X149787134Y-126700000D01*
X149412866Y-126700000D01*
X149045791Y-126773016D01*
X148700013Y-126916242D01*
X148388821Y-127124174D01*
X148124174Y-127388821D01*
X147916242Y-127700013D01*
X147773016Y-128045791D01*
X147700000Y-128412866D01*
X147700000Y-128787134D01*
X147773016Y-129154209D01*
X147916242Y-129499987D01*
X148124174Y-129811179D01*
X148387995Y-130075000D01*
X147817462Y-130075000D01*
X147267212Y-129524750D01*
X147283758Y-129499987D01*
X147426984Y-129154209D01*
X147500000Y-128787134D01*
X147500000Y-128412866D01*
X147426984Y-128045791D01*
X147283758Y-127700013D01*
X147075826Y-127388821D01*
X146811179Y-127124174D01*
X146499987Y-126916242D01*
X146154209Y-126773016D01*
X145787134Y-126700000D01*
X145412866Y-126700000D01*
X145045791Y-126773016D01*
X144700013Y-126916242D01*
X144388821Y-127124174D01*
X144124174Y-127388821D01*
X143916242Y-127700013D01*
X143773016Y-128045791D01*
X143700000Y-128412866D01*
X132179025Y-128412866D01*
X132040413Y-128320249D01*
X131828943Y-128232655D01*
X131604447Y-128188000D01*
X131375553Y-128188000D01*
X131151057Y-128232655D01*
X131125643Y-128243182D01*
X131117476Y-128235015D01*
X131117467Y-128235004D01*
X130675000Y-127792538D01*
X130675000Y-126417461D01*
X131492462Y-125600000D01*
X136698065Y-125600000D01*
X136698065Y-127200000D01*
X136705788Y-127278414D01*
X136728660Y-127353814D01*
X136765803Y-127423303D01*
X136815789Y-127484211D01*
X136876697Y-127534197D01*
X136946186Y-127571340D01*
X137021586Y-127594212D01*
X137100000Y-127601935D01*
X138700000Y-127601935D01*
X138778414Y-127594212D01*
X138853814Y-127571340D01*
X138923303Y-127534197D01*
X138984211Y-127484211D01*
X139034197Y-127423303D01*
X139071340Y-127353814D01*
X139094212Y-127278414D01*
X139101935Y-127200000D01*
X139101935Y-125850000D01*
X201248065Y-125850000D01*
X201248065Y-127350000D01*
X201255788Y-127428414D01*
X201278660Y-127503814D01*
X201315803Y-127573303D01*
X201365789Y-127634211D01*
X201426697Y-127684197D01*
X201496186Y-127721340D01*
X201571586Y-127744212D01*
X201650000Y-127751935D01*
X203850000Y-127751935D01*
X203928414Y-127744212D01*
X204003814Y-127721340D01*
X204073303Y-127684197D01*
X204134211Y-127634211D01*
X204184197Y-127573303D01*
X204221340Y-127503814D01*
X204244212Y-127428414D01*
X204251935Y-127350000D01*
X204251935Y-125850000D01*
X204244212Y-125771586D01*
X204221340Y-125696186D01*
X204184197Y-125626697D01*
X204134211Y-125565789D01*
X204073303Y-125515803D01*
X204003814Y-125478660D01*
X203928414Y-125455788D01*
X203850000Y-125448065D01*
X201650000Y-125448065D01*
X201571586Y-125455788D01*
X201496186Y-125478660D01*
X201426697Y-125515803D01*
X201365789Y-125565789D01*
X201315803Y-125626697D01*
X201278660Y-125696186D01*
X201255788Y-125771586D01*
X201248065Y-125850000D01*
X139101935Y-125850000D01*
X139101935Y-125600000D01*
X139094212Y-125521586D01*
X139071340Y-125446186D01*
X139034197Y-125376697D01*
X138984211Y-125315789D01*
X138923303Y-125265803D01*
X138853814Y-125228660D01*
X138778414Y-125205788D01*
X138700000Y-125198065D01*
X137100000Y-125198065D01*
X137021586Y-125205788D01*
X136946186Y-125228660D01*
X136876697Y-125265803D01*
X136815789Y-125315789D01*
X136765803Y-125376697D01*
X136728660Y-125446186D01*
X136705788Y-125521586D01*
X136698065Y-125600000D01*
X131492462Y-125600000D01*
X132267463Y-124825000D01*
X133324220Y-124825000D01*
X133350000Y-124827539D01*
X133375780Y-124825000D01*
X133375788Y-124825000D01*
X133452918Y-124817403D01*
X133551881Y-124787383D01*
X133643086Y-124738633D01*
X133723027Y-124673027D01*
X133739470Y-124652991D01*
X134266574Y-124125889D01*
X134276697Y-124134197D01*
X134346186Y-124171340D01*
X134421586Y-124194212D01*
X134500000Y-124201935D01*
X136100000Y-124201935D01*
X136178414Y-124194212D01*
X136253814Y-124171340D01*
X136323303Y-124134197D01*
X136362269Y-124102219D01*
X136403776Y-124143726D01*
X136518426Y-124220332D01*
X136645818Y-124273099D01*
X136781056Y-124300000D01*
X136918944Y-124300000D01*
X137054182Y-124273099D01*
X137181574Y-124220332D01*
X137296224Y-124143726D01*
X137393726Y-124046224D01*
X137434264Y-123985553D01*
X201588000Y-123985553D01*
X201588000Y-124214447D01*
X201632655Y-124438943D01*
X201720249Y-124650413D01*
X201847416Y-124840732D01*
X202009268Y-125002584D01*
X202199587Y-125129751D01*
X202411057Y-125217345D01*
X202635553Y-125262000D01*
X202864447Y-125262000D01*
X203088943Y-125217345D01*
X203300413Y-125129751D01*
X203490732Y-125002584D01*
X203652584Y-124840732D01*
X203779751Y-124650413D01*
X203867345Y-124438943D01*
X203912000Y-124214447D01*
X203912000Y-123985553D01*
X203867345Y-123761057D01*
X203779751Y-123549587D01*
X203652584Y-123359268D01*
X203490732Y-123197416D01*
X203300413Y-123070249D01*
X203088943Y-122982655D01*
X202864447Y-122938000D01*
X202635553Y-122938000D01*
X202411057Y-122982655D01*
X202199587Y-123070249D01*
X202009268Y-123197416D01*
X201847416Y-123359268D01*
X201720249Y-123549587D01*
X201632655Y-123761057D01*
X201588000Y-123985553D01*
X137434264Y-123985553D01*
X137470332Y-123931574D01*
X137523099Y-123804182D01*
X137550000Y-123668944D01*
X137550000Y-123642461D01*
X138517462Y-122675000D01*
X138824220Y-122675000D01*
X138850000Y-122677539D01*
X138875780Y-122675000D01*
X138875788Y-122675000D01*
X138952918Y-122667403D01*
X139051881Y-122637383D01*
X139143086Y-122588633D01*
X139223027Y-122523027D01*
X139239471Y-122502990D01*
X140892461Y-120850000D01*
X201248065Y-120850000D01*
X201248065Y-122350000D01*
X201255788Y-122428414D01*
X201278660Y-122503814D01*
X201315803Y-122573303D01*
X201365789Y-122634211D01*
X201426697Y-122684197D01*
X201496186Y-122721340D01*
X201571586Y-122744212D01*
X201650000Y-122751935D01*
X203850000Y-122751935D01*
X203928414Y-122744212D01*
X204003814Y-122721340D01*
X204073303Y-122684197D01*
X204134211Y-122634211D01*
X204184197Y-122573303D01*
X204221340Y-122503814D01*
X204244212Y-122428414D01*
X204251935Y-122350000D01*
X204251935Y-120850000D01*
X204244212Y-120771586D01*
X204221340Y-120696186D01*
X204184197Y-120626697D01*
X204134211Y-120565789D01*
X204073303Y-120515803D01*
X204003814Y-120478660D01*
X203928414Y-120455788D01*
X203850000Y-120448065D01*
X201650000Y-120448065D01*
X201571586Y-120455788D01*
X201496186Y-120478660D01*
X201426697Y-120515803D01*
X201365789Y-120565789D01*
X201315803Y-120626697D01*
X201278660Y-120696186D01*
X201255788Y-120771586D01*
X201248065Y-120850000D01*
X140892461Y-120850000D01*
X143497219Y-118245242D01*
X143531284Y-118296224D01*
X143628786Y-118393726D01*
X143743436Y-118470332D01*
X143870828Y-118523099D01*
X144006066Y-118550000D01*
X144143954Y-118550000D01*
X144279192Y-118523099D01*
X144406584Y-118470332D01*
X144521234Y-118393726D01*
X144539960Y-118375000D01*
X146635050Y-118375000D01*
X146653776Y-118393726D01*
X146768426Y-118470332D01*
X146895818Y-118523099D01*
X147031056Y-118550000D01*
X147168944Y-118550000D01*
X147304182Y-118523099D01*
X147431574Y-118470332D01*
X147546224Y-118393726D01*
X147643726Y-118296224D01*
X147720332Y-118181574D01*
X147773099Y-118054182D01*
X147800000Y-117918944D01*
X147800000Y-117781056D01*
X147788885Y-117725176D01*
X156082715Y-117725176D01*
X156352417Y-117994878D01*
X156268426Y-118029668D01*
X156153776Y-118106274D01*
X156056274Y-118203776D01*
X155979668Y-118318426D01*
X155926901Y-118445818D01*
X155900000Y-118581056D01*
X155900000Y-118718944D01*
X155926901Y-118854182D01*
X155979668Y-118981574D01*
X156056274Y-119096224D01*
X156153776Y-119193726D01*
X156268426Y-119270332D01*
X156395818Y-119323099D01*
X156531056Y-119350000D01*
X156559840Y-119350000D01*
X156606913Y-119388632D01*
X156657337Y-119415584D01*
X156698118Y-119437382D01*
X156797081Y-119467402D01*
X156899999Y-119477539D01*
X156925787Y-119474999D01*
X175167697Y-119474999D01*
X175193477Y-119477538D01*
X175219257Y-119474999D01*
X175219265Y-119474999D01*
X175296395Y-119467402D01*
X175395358Y-119437382D01*
X175486563Y-119388632D01*
X175566504Y-119323026D01*
X175582948Y-119302989D01*
X176535938Y-118350000D01*
X201248065Y-118350000D01*
X201248065Y-119850000D01*
X201255788Y-119928414D01*
X201278660Y-120003814D01*
X201315803Y-120073303D01*
X201365789Y-120134211D01*
X201426697Y-120184197D01*
X201496186Y-120221340D01*
X201571586Y-120244212D01*
X201650000Y-120251935D01*
X203850000Y-120251935D01*
X203928414Y-120244212D01*
X204003814Y-120221340D01*
X204073303Y-120184197D01*
X204134211Y-120134211D01*
X204184197Y-120073303D01*
X204221340Y-120003814D01*
X204244212Y-119928414D01*
X204251935Y-119850000D01*
X204251935Y-118985553D01*
X206588000Y-118985553D01*
X206588000Y-119214447D01*
X206632655Y-119438943D01*
X206720249Y-119650413D01*
X206847416Y-119840732D01*
X207009268Y-120002584D01*
X207199587Y-120129751D01*
X207411057Y-120217345D01*
X207635553Y-120262000D01*
X207864447Y-120262000D01*
X208088943Y-120217345D01*
X208300413Y-120129751D01*
X208490732Y-120002584D01*
X208652584Y-119840732D01*
X208779751Y-119650413D01*
X208867345Y-119438943D01*
X208912000Y-119214447D01*
X208912000Y-118985553D01*
X208867345Y-118761057D01*
X208779751Y-118549587D01*
X208652584Y-118359268D01*
X208490732Y-118197416D01*
X208300413Y-118070249D01*
X208088943Y-117982655D01*
X207864447Y-117938000D01*
X207635553Y-117938000D01*
X207411057Y-117982655D01*
X207199587Y-118070249D01*
X207009268Y-118197416D01*
X206847416Y-118359268D01*
X206720249Y-118549587D01*
X206632655Y-118761057D01*
X206588000Y-118985553D01*
X204251935Y-118985553D01*
X204251935Y-118350000D01*
X204244212Y-118271586D01*
X204221340Y-118196186D01*
X204184197Y-118126697D01*
X204134211Y-118065789D01*
X204073303Y-118015803D01*
X204003814Y-117978660D01*
X203928414Y-117955788D01*
X203850000Y-117948065D01*
X201650000Y-117948065D01*
X201571586Y-117955788D01*
X201496186Y-117978660D01*
X201426697Y-118015803D01*
X201365789Y-118065789D01*
X201315803Y-118126697D01*
X201278660Y-118196186D01*
X201255788Y-118271586D01*
X201248065Y-118350000D01*
X176535938Y-118350000D01*
X176760939Y-118125000D01*
X189674220Y-118125000D01*
X189700000Y-118127539D01*
X189725780Y-118125000D01*
X189725788Y-118125000D01*
X189802918Y-118117403D01*
X189901881Y-118087383D01*
X189993086Y-118038633D01*
X190073027Y-117973027D01*
X190089470Y-117952991D01*
X190853001Y-117189462D01*
X190873027Y-117173027D01*
X190889462Y-117153001D01*
X190889466Y-117152997D01*
X190938633Y-117093086D01*
X190987383Y-117001881D01*
X191017403Y-116902918D01*
X191018810Y-116888633D01*
X191025000Y-116825788D01*
X191025000Y-116825780D01*
X191027539Y-116800000D01*
X191025000Y-116774220D01*
X191025000Y-110717461D01*
X191839466Y-109902997D01*
X191839475Y-109902986D01*
X191942461Y-109800000D01*
X191968944Y-109800000D01*
X192104182Y-109773099D01*
X192231574Y-109720332D01*
X192346224Y-109643726D01*
X192443726Y-109546224D01*
X192520332Y-109431574D01*
X192573099Y-109304182D01*
X192600000Y-109168944D01*
X192600000Y-109031056D01*
X192573099Y-108895818D01*
X192520332Y-108768426D01*
X192443726Y-108653776D01*
X192346224Y-108556274D01*
X192231574Y-108479668D01*
X192104182Y-108426901D01*
X191968944Y-108400000D01*
X191831056Y-108400000D01*
X191695818Y-108426901D01*
X191568426Y-108479668D01*
X191453776Y-108556274D01*
X191450000Y-108560050D01*
X191446224Y-108556274D01*
X191407830Y-108530620D01*
X191438633Y-108493086D01*
X191487383Y-108401881D01*
X191517403Y-108302918D01*
X191525000Y-108225788D01*
X191525000Y-108225781D01*
X191527539Y-108200001D01*
X191525000Y-108174221D01*
X191525000Y-104855909D01*
X191527539Y-104830129D01*
X191525000Y-104804349D01*
X191525000Y-104804342D01*
X191521344Y-104767221D01*
X203101100Y-104767221D01*
X203101100Y-105239979D01*
X203193330Y-105703654D01*
X203374247Y-106140426D01*
X203636898Y-106533511D01*
X203971189Y-106867802D01*
X204364274Y-107130453D01*
X204801046Y-107311370D01*
X205264721Y-107403600D01*
X205737479Y-107403600D01*
X206201154Y-107311370D01*
X206637926Y-107130453D01*
X207031011Y-106867802D01*
X207365302Y-106533511D01*
X207627953Y-106140426D01*
X207808870Y-105703654D01*
X207901100Y-105239979D01*
X207901100Y-104767221D01*
X207808870Y-104303546D01*
X207627953Y-103866774D01*
X207365302Y-103473689D01*
X207031011Y-103139398D01*
X206637926Y-102876747D01*
X206201154Y-102695830D01*
X205737479Y-102603600D01*
X205264721Y-102603600D01*
X204801046Y-102695830D01*
X204364274Y-102876747D01*
X203971189Y-103139398D01*
X203636898Y-103473689D01*
X203374247Y-103866774D01*
X203193330Y-104303546D01*
X203101100Y-104767221D01*
X191521344Y-104767221D01*
X191517403Y-104727212D01*
X191487383Y-104628249D01*
X191438633Y-104537044D01*
X191373027Y-104457103D01*
X191352996Y-104440664D01*
X191314667Y-104402335D01*
X191331574Y-104395332D01*
X191446224Y-104318726D01*
X191543726Y-104221224D01*
X191620332Y-104106574D01*
X191673099Y-103979182D01*
X191700000Y-103843944D01*
X191700000Y-103706056D01*
X191673099Y-103570818D01*
X191641084Y-103493525D01*
X191700687Y-103533351D01*
X191912157Y-103620945D01*
X192136653Y-103665600D01*
X192365547Y-103665600D01*
X192590043Y-103620945D01*
X192801513Y-103533351D01*
X192991832Y-103406184D01*
X193153684Y-103244332D01*
X193280851Y-103054013D01*
X193368445Y-102842543D01*
X193413100Y-102618047D01*
X193413100Y-102389153D01*
X193368445Y-102164657D01*
X193280851Y-101953187D01*
X193153684Y-101762868D01*
X193015816Y-101625000D01*
X198035050Y-101625000D01*
X198053776Y-101643726D01*
X198168426Y-101720332D01*
X198295818Y-101773099D01*
X198431056Y-101800000D01*
X198568944Y-101800000D01*
X198704182Y-101773099D01*
X198831574Y-101720332D01*
X198946224Y-101643726D01*
X199043726Y-101546224D01*
X199120332Y-101431574D01*
X199173099Y-101304182D01*
X199200000Y-101168944D01*
X199200000Y-101031056D01*
X199173099Y-100895818D01*
X199120332Y-100768426D01*
X199043726Y-100653776D01*
X198946224Y-100556274D01*
X198831574Y-100479668D01*
X198704182Y-100426901D01*
X198568944Y-100400000D01*
X198431056Y-100400000D01*
X198295818Y-100426901D01*
X198168426Y-100479668D01*
X198053776Y-100556274D01*
X198035050Y-100575000D01*
X191367461Y-100575000D01*
X191339475Y-100547014D01*
X191339466Y-100547003D01*
X190539470Y-99747009D01*
X190523027Y-99726973D01*
X190443086Y-99661367D01*
X190351881Y-99612617D01*
X190252918Y-99582597D01*
X190175788Y-99575000D01*
X190175780Y-99575000D01*
X190150000Y-99572461D01*
X190124220Y-99575000D01*
X170425779Y-99575000D01*
X170399999Y-99572461D01*
X170374219Y-99575000D01*
X170374212Y-99575000D01*
X170325060Y-99579841D01*
X170320332Y-99568426D01*
X170243726Y-99453776D01*
X170146224Y-99356274D01*
X170031574Y-99279668D01*
X169904182Y-99226901D01*
X169768944Y-99200000D01*
X169742462Y-99200000D01*
X167189471Y-96647010D01*
X167173027Y-96626973D01*
X167093086Y-96561367D01*
X167001881Y-96512617D01*
X166902918Y-96482597D01*
X166825788Y-96475000D01*
X166825780Y-96475000D01*
X166800000Y-96472461D01*
X166774220Y-96475000D01*
X118475788Y-96475000D01*
X118450000Y-96472460D01*
X118424212Y-96475000D01*
X118347082Y-96482597D01*
X118248119Y-96512617D01*
X118156914Y-96561367D01*
X118126093Y-96586661D01*
X118097003Y-96610534D01*
X118096999Y-96610538D01*
X118076973Y-96626973D01*
X118060538Y-96646999D01*
X113049177Y-101658361D01*
X112991832Y-101601016D01*
X112801513Y-101473849D01*
X112590043Y-101386255D01*
X112365547Y-101341600D01*
X112136653Y-101341600D01*
X111912157Y-101386255D01*
X111700687Y-101473849D01*
X111510368Y-101601016D01*
X111348516Y-101762868D01*
X111221349Y-101953187D01*
X111133755Y-102164657D01*
X111089100Y-102389153D01*
X111089100Y-102618047D01*
X111133755Y-102842543D01*
X111221349Y-103054013D01*
X111348516Y-103244332D01*
X111510368Y-103406184D01*
X111700687Y-103533351D01*
X111912157Y-103620945D01*
X112136653Y-103665600D01*
X112365547Y-103665600D01*
X112590043Y-103620945D01*
X112801513Y-103533351D01*
X112991832Y-103406184D01*
X113153684Y-103244332D01*
X113280851Y-103054013D01*
X113368445Y-102842543D01*
X113373045Y-102819416D01*
X113589100Y-102603361D01*
X113589100Y-102618047D01*
X113633755Y-102842543D01*
X113721349Y-103054013D01*
X113848516Y-103244332D01*
X114010368Y-103406184D01*
X114030923Y-103419918D01*
X113995818Y-103426901D01*
X113868426Y-103479668D01*
X113753776Y-103556274D01*
X113656274Y-103653776D01*
X113579668Y-103768426D01*
X113526901Y-103895818D01*
X113500000Y-104031056D01*
X113500000Y-104168944D01*
X113526901Y-104304182D01*
X113579668Y-104431574D01*
X113656274Y-104546224D01*
X113753776Y-104643726D01*
X113868426Y-104720332D01*
X113995818Y-104773099D01*
X114131056Y-104800000D01*
X114268944Y-104800000D01*
X114404182Y-104773099D01*
X114531574Y-104720332D01*
X114646224Y-104643726D01*
X114664950Y-104625000D01*
X114837809Y-104625000D01*
X114863589Y-104627539D01*
X114889369Y-104625000D01*
X114889377Y-104625000D01*
X114966507Y-104617403D01*
X115065470Y-104587383D01*
X115156675Y-104538633D01*
X115236616Y-104473027D01*
X115253060Y-104452991D01*
X115297567Y-104408483D01*
X115258488Y-104502829D01*
X115231587Y-104638067D01*
X115231587Y-104775955D01*
X115258488Y-104911193D01*
X115311255Y-105038585D01*
X115387861Y-105153235D01*
X115485363Y-105250737D01*
X115600013Y-105327343D01*
X115727405Y-105380110D01*
X115862643Y-105407011D01*
X116000531Y-105407011D01*
X116135769Y-105380110D01*
X116263161Y-105327343D01*
X116377811Y-105250737D01*
X116396537Y-105232011D01*
X116867209Y-105232011D01*
X116892989Y-105234550D01*
X116918769Y-105232011D01*
X116918777Y-105232011D01*
X116926264Y-105231274D01*
X115647005Y-106510534D01*
X115626974Y-106526973D01*
X115610535Y-106547004D01*
X115561367Y-106606915D01*
X115539201Y-106648385D01*
X115491832Y-106601016D01*
X115301513Y-106473849D01*
X115090043Y-106386255D01*
X114865547Y-106341600D01*
X114636653Y-106341600D01*
X114412157Y-106386255D01*
X114200687Y-106473849D01*
X114010368Y-106601016D01*
X113848516Y-106762868D01*
X113721349Y-106953187D01*
X113633755Y-107164657D01*
X113589100Y-107389153D01*
X113589100Y-107618047D01*
X113597460Y-107660078D01*
X113335529Y-107922009D01*
X113368445Y-107842543D01*
X113413100Y-107618047D01*
X113413100Y-107389153D01*
X113368445Y-107164657D01*
X113280851Y-106953187D01*
X113153684Y-106762868D01*
X112991832Y-106601016D01*
X112801513Y-106473849D01*
X112590043Y-106386255D01*
X112365547Y-106341600D01*
X112136653Y-106341600D01*
X111912157Y-106386255D01*
X111700687Y-106473849D01*
X111510368Y-106601016D01*
X111348516Y-106762868D01*
X111221349Y-106953187D01*
X111133755Y-107164657D01*
X111089100Y-107389153D01*
X111089100Y-107618047D01*
X111133755Y-107842543D01*
X111221349Y-108054013D01*
X111348516Y-108244332D01*
X111510368Y-108406184D01*
X111579897Y-108452641D01*
X97964766Y-122067773D01*
X97768413Y-121936574D01*
X97550027Y-121846116D01*
X97318190Y-121800000D01*
X97081810Y-121800000D01*
X96849973Y-121846116D01*
X96631587Y-121936574D01*
X96435045Y-122067899D01*
X96267899Y-122235045D01*
X96136574Y-122431587D01*
X96046116Y-122649973D01*
X96000000Y-122881810D01*
X95860000Y-122881810D01*
X95813884Y-122649973D01*
X95723426Y-122431587D01*
X95592101Y-122235045D01*
X95424955Y-122067899D01*
X95228413Y-121936574D01*
X95010027Y-121846116D01*
X94778190Y-121800000D01*
X94541810Y-121800000D01*
X94309973Y-121846116D01*
X94091587Y-121936574D01*
X93895045Y-122067899D01*
X93727899Y-122235045D01*
X93596574Y-122431587D01*
X93506116Y-122649973D01*
X93460000Y-122881810D01*
X93320000Y-122881810D01*
X93273884Y-122649973D01*
X93183426Y-122431587D01*
X93052101Y-122235045D01*
X92884955Y-122067899D01*
X92688413Y-121936574D01*
X92470027Y-121846116D01*
X92238190Y-121800000D01*
X92001810Y-121800000D01*
X91769973Y-121846116D01*
X91551587Y-121936574D01*
X91355045Y-122067899D01*
X91187899Y-122235045D01*
X91056574Y-122431587D01*
X90966116Y-122649973D01*
X90920000Y-122881810D01*
X85975000Y-122881810D01*
X85975000Y-104767221D01*
X89101100Y-104767221D01*
X89101100Y-105239979D01*
X89193330Y-105703654D01*
X89374247Y-106140426D01*
X89636898Y-106533511D01*
X89971189Y-106867802D01*
X90364274Y-107130453D01*
X90801046Y-107311370D01*
X91264721Y-107403600D01*
X91737479Y-107403600D01*
X91810109Y-107389153D01*
X103589100Y-107389153D01*
X103589100Y-107618047D01*
X103633755Y-107842543D01*
X103721349Y-108054013D01*
X103848516Y-108244332D01*
X104010368Y-108406184D01*
X104200687Y-108533351D01*
X104412157Y-108620945D01*
X104636653Y-108665600D01*
X104865547Y-108665600D01*
X105090043Y-108620945D01*
X105301513Y-108533351D01*
X105491832Y-108406184D01*
X105653684Y-108244332D01*
X105780851Y-108054013D01*
X105868445Y-107842543D01*
X105913100Y-107618047D01*
X105913100Y-107389153D01*
X106089100Y-107389153D01*
X106089100Y-107618047D01*
X106133755Y-107842543D01*
X106221349Y-108054013D01*
X106348516Y-108244332D01*
X106510368Y-108406184D01*
X106700687Y-108533351D01*
X106912157Y-108620945D01*
X107136653Y-108665600D01*
X107365547Y-108665600D01*
X107590043Y-108620945D01*
X107801513Y-108533351D01*
X107991832Y-108406184D01*
X108153684Y-108244332D01*
X108280851Y-108054013D01*
X108368445Y-107842543D01*
X108413100Y-107618047D01*
X108413100Y-107389153D01*
X108589100Y-107389153D01*
X108589100Y-107618047D01*
X108633755Y-107842543D01*
X108721349Y-108054013D01*
X108848516Y-108244332D01*
X109010368Y-108406184D01*
X109200687Y-108533351D01*
X109412157Y-108620945D01*
X109636653Y-108665600D01*
X109865547Y-108665600D01*
X110090043Y-108620945D01*
X110301513Y-108533351D01*
X110491832Y-108406184D01*
X110653684Y-108244332D01*
X110780851Y-108054013D01*
X110868445Y-107842543D01*
X110913100Y-107618047D01*
X110913100Y-107389153D01*
X110868445Y-107164657D01*
X110780851Y-106953187D01*
X110653684Y-106762868D01*
X110491832Y-106601016D01*
X110301513Y-106473849D01*
X110090043Y-106386255D01*
X109865547Y-106341600D01*
X109636653Y-106341600D01*
X109412157Y-106386255D01*
X109200687Y-106473849D01*
X109010368Y-106601016D01*
X108848516Y-106762868D01*
X108721349Y-106953187D01*
X108633755Y-107164657D01*
X108589100Y-107389153D01*
X108413100Y-107389153D01*
X108368445Y-107164657D01*
X108280851Y-106953187D01*
X108153684Y-106762868D01*
X107991832Y-106601016D01*
X107801513Y-106473849D01*
X107590043Y-106386255D01*
X107365547Y-106341600D01*
X107136653Y-106341600D01*
X106912157Y-106386255D01*
X106700687Y-106473849D01*
X106510368Y-106601016D01*
X106348516Y-106762868D01*
X106221349Y-106953187D01*
X106133755Y-107164657D01*
X106089100Y-107389153D01*
X105913100Y-107389153D01*
X105868445Y-107164657D01*
X105780851Y-106953187D01*
X105653684Y-106762868D01*
X105491832Y-106601016D01*
X105301513Y-106473849D01*
X105090043Y-106386255D01*
X104865547Y-106341600D01*
X104636653Y-106341600D01*
X104412157Y-106386255D01*
X104200687Y-106473849D01*
X104010368Y-106601016D01*
X103848516Y-106762868D01*
X103721349Y-106953187D01*
X103633755Y-107164657D01*
X103589100Y-107389153D01*
X91810109Y-107389153D01*
X92201154Y-107311370D01*
X92637926Y-107130453D01*
X93031011Y-106867802D01*
X93365302Y-106533511D01*
X93627953Y-106140426D01*
X93808870Y-105703654D01*
X93901100Y-105239979D01*
X93901100Y-104767221D01*
X93808870Y-104303546D01*
X93627953Y-103866774D01*
X93365302Y-103473689D01*
X93031011Y-103139398D01*
X92637926Y-102876747D01*
X92201154Y-102695830D01*
X91737479Y-102603600D01*
X91264721Y-102603600D01*
X90801046Y-102695830D01*
X90364274Y-102876747D01*
X89971189Y-103139398D01*
X89636898Y-103473689D01*
X89374247Y-103866774D01*
X89193330Y-104303546D01*
X89101100Y-104767221D01*
X85975000Y-104767221D01*
X85975000Y-102389153D01*
X106089100Y-102389153D01*
X106089100Y-102618047D01*
X106133755Y-102842543D01*
X106221349Y-103054013D01*
X106348516Y-103244332D01*
X106510368Y-103406184D01*
X106700687Y-103533351D01*
X106912157Y-103620945D01*
X107136653Y-103665600D01*
X107365547Y-103665600D01*
X107590043Y-103620945D01*
X107801513Y-103533351D01*
X107991832Y-103406184D01*
X108153684Y-103244332D01*
X108280851Y-103054013D01*
X108368445Y-102842543D01*
X108413100Y-102618047D01*
X108413100Y-102389153D01*
X108589100Y-102389153D01*
X108589100Y-102618047D01*
X108633755Y-102842543D01*
X108721349Y-103054013D01*
X108848516Y-103244332D01*
X109010368Y-103406184D01*
X109200687Y-103533351D01*
X109412157Y-103620945D01*
X109636653Y-103665600D01*
X109865547Y-103665600D01*
X110090043Y-103620945D01*
X110301513Y-103533351D01*
X110491832Y-103406184D01*
X110653684Y-103244332D01*
X110780851Y-103054013D01*
X110868445Y-102842543D01*
X110913100Y-102618047D01*
X110913100Y-102389153D01*
X110868445Y-102164657D01*
X110780851Y-101953187D01*
X110653684Y-101762868D01*
X110491832Y-101601016D01*
X110301513Y-101473849D01*
X110090043Y-101386255D01*
X109865547Y-101341600D01*
X109636653Y-101341600D01*
X109412157Y-101386255D01*
X109200687Y-101473849D01*
X109010368Y-101601016D01*
X108848516Y-101762868D01*
X108721349Y-101953187D01*
X108633755Y-102164657D01*
X108589100Y-102389153D01*
X108413100Y-102389153D01*
X108368445Y-102164657D01*
X108280851Y-101953187D01*
X108153684Y-101762868D01*
X107991832Y-101601016D01*
X107801513Y-101473849D01*
X107590043Y-101386255D01*
X107365547Y-101341600D01*
X107136653Y-101341600D01*
X106912157Y-101386255D01*
X106700687Y-101473849D01*
X106510368Y-101601016D01*
X106348516Y-101762868D01*
X106221349Y-101953187D01*
X106133755Y-102164657D01*
X106089100Y-102389153D01*
X85975000Y-102389153D01*
X85975000Y-95763621D01*
X89100000Y-95763621D01*
X89100000Y-96236379D01*
X89192230Y-96700054D01*
X89373147Y-97136826D01*
X89635798Y-97529911D01*
X89970089Y-97864202D01*
X90363174Y-98126853D01*
X90799946Y-98307770D01*
X91263621Y-98400000D01*
X91736379Y-98400000D01*
X92200054Y-98307770D01*
X92636826Y-98126853D01*
X93029911Y-97864202D01*
X93364202Y-97529911D01*
X93626853Y-97136826D01*
X93807770Y-96700054D01*
X93900000Y-96236379D01*
X93900000Y-95763621D01*
X203100000Y-95763621D01*
X203100000Y-96236379D01*
X203192230Y-96700054D01*
X203373147Y-97136826D01*
X203635798Y-97529911D01*
X203970089Y-97864202D01*
X204363174Y-98126853D01*
X204799946Y-98307770D01*
X205263621Y-98400000D01*
X205736379Y-98400000D01*
X206200054Y-98307770D01*
X206636826Y-98126853D01*
X207029911Y-97864202D01*
X207364202Y-97529911D01*
X207626853Y-97136826D01*
X207807770Y-96700054D01*
X207900000Y-96236379D01*
X207900000Y-95763621D01*
X207807770Y-95299946D01*
X207626853Y-94863174D01*
X207364202Y-94470089D01*
X207029911Y-94135798D01*
X206636826Y-93873147D01*
X206200054Y-93692230D01*
X205736379Y-93600000D01*
X205263621Y-93600000D01*
X204799946Y-93692230D01*
X204363174Y-93873147D01*
X203970089Y-94135798D01*
X203635798Y-94470089D01*
X203373147Y-94863174D01*
X203192230Y-95299946D01*
X203100000Y-95763621D01*
X93900000Y-95763621D01*
X93807770Y-95299946D01*
X93626853Y-94863174D01*
X93364202Y-94470089D01*
X93029911Y-94135798D01*
X92636826Y-93873147D01*
X92200054Y-93692230D01*
X91736379Y-93600000D01*
X91263621Y-93600000D01*
X90799946Y-93692230D01*
X90363174Y-93873147D01*
X89970089Y-94135798D01*
X89635798Y-94470089D01*
X89373147Y-94863174D01*
X89192230Y-95299946D01*
X89100000Y-95763621D01*
X85975000Y-95763621D01*
X85975000Y-91975000D01*
X211025001Y-91975000D01*
X211025001Y-118231685D01*
G37*
X211025001Y-118231685D02*
X210990732Y-118197416D01*
X210800413Y-118070249D01*
X210588943Y-117982655D01*
X210364447Y-117938000D01*
X210135553Y-117938000D01*
X209911057Y-117982655D01*
X209699587Y-118070249D01*
X209509268Y-118197416D01*
X209347416Y-118359268D01*
X209220249Y-118549587D01*
X209132655Y-118761057D01*
X209088000Y-118985553D01*
X209088000Y-119214447D01*
X209132655Y-119438943D01*
X209220249Y-119650413D01*
X209347416Y-119840732D01*
X209509268Y-120002584D01*
X209699587Y-120129751D01*
X209911057Y-120217345D01*
X210135553Y-120262000D01*
X210364447Y-120262000D01*
X210588943Y-120217345D01*
X210800413Y-120129751D01*
X210990732Y-120002584D01*
X211025001Y-119968315D01*
X211025000Y-128231684D01*
X210990732Y-128197416D01*
X210800413Y-128070249D01*
X210588943Y-127982655D01*
X210364447Y-127938000D01*
X210135553Y-127938000D01*
X209911057Y-127982655D01*
X209699587Y-128070249D01*
X209509268Y-128197416D01*
X209347416Y-128359268D01*
X209220249Y-128549587D01*
X209132655Y-128761057D01*
X209088000Y-128985553D01*
X209088000Y-129214447D01*
X209132655Y-129438943D01*
X209220249Y-129650413D01*
X209347416Y-129840732D01*
X209509268Y-130002584D01*
X209699587Y-130129751D01*
X209911057Y-130217345D01*
X210135553Y-130262000D01*
X210364447Y-130262000D01*
X210588943Y-130217345D01*
X210800413Y-130129751D01*
X210990732Y-130002584D01*
X211025000Y-129968316D01*
X211025000Y-150225000D01*
X85975000Y-150225000D01*
X85975000Y-145963621D01*
X89100000Y-145963621D01*
X89100000Y-146436379D01*
X89192230Y-146900054D01*
X89373147Y-147336826D01*
X89635798Y-147729911D01*
X89970089Y-148064202D01*
X90363174Y-148326853D01*
X90799946Y-148507770D01*
X91263621Y-148600000D01*
X91736379Y-148600000D01*
X92200054Y-148507770D01*
X92636826Y-148326853D01*
X93029911Y-148064202D01*
X93364202Y-147729911D01*
X93626853Y-147336826D01*
X93807770Y-146900054D01*
X93900000Y-146436379D01*
X93900000Y-145963621D01*
X203100000Y-145963621D01*
X203100000Y-146436379D01*
X203192230Y-146900054D01*
X203373147Y-147336826D01*
X203635798Y-147729911D01*
X203970089Y-148064202D01*
X204363174Y-148326853D01*
X204799946Y-148507770D01*
X205263621Y-148600000D01*
X205736379Y-148600000D01*
X206200054Y-148507770D01*
X206636826Y-148326853D01*
X207029911Y-148064202D01*
X207364202Y-147729911D01*
X207626853Y-147336826D01*
X207807770Y-146900054D01*
X207900000Y-146436379D01*
X207900000Y-145963621D01*
X207807770Y-145499946D01*
X207626853Y-145063174D01*
X207364202Y-144670089D01*
X207029911Y-144335798D01*
X206636826Y-144073147D01*
X206200054Y-143892230D01*
X205736379Y-143800000D01*
X205263621Y-143800000D01*
X204799946Y-143892230D01*
X204363174Y-144073147D01*
X203970089Y-144335798D01*
X203635798Y-144670089D01*
X203373147Y-145063174D01*
X203192230Y-145499946D01*
X203100000Y-145963621D01*
X93900000Y-145963621D01*
X93807770Y-145499946D01*
X93626853Y-145063174D01*
X93364202Y-144670089D01*
X93029911Y-144335798D01*
X92636826Y-144073147D01*
X92200054Y-143892230D01*
X91736379Y-143800000D01*
X91263621Y-143800000D01*
X90799946Y-143892230D01*
X90363174Y-144073147D01*
X89970089Y-144335798D01*
X89635798Y-144670089D01*
X89373147Y-145063174D01*
X89192230Y-145499946D01*
X89100000Y-145963621D01*
X85975000Y-145963621D01*
X85975000Y-138804613D01*
X85976574Y-138808413D01*
X86107899Y-139004955D01*
X86275045Y-139172101D01*
X86471587Y-139303426D01*
X86689973Y-139393884D01*
X86921810Y-139440000D01*
X87158190Y-139440000D01*
X87390027Y-139393884D01*
X87608413Y-139303426D01*
X87804955Y-139172101D01*
X87972101Y-139004955D01*
X88103426Y-138808413D01*
X88193884Y-138590027D01*
X88240000Y-138358190D01*
X88240000Y-138121810D01*
X88380000Y-138121810D01*
X88380000Y-138358190D01*
X88426116Y-138590027D01*
X88516574Y-138808413D01*
X88647899Y-139004955D01*
X88815045Y-139172101D01*
X89011587Y-139303426D01*
X89229973Y-139393884D01*
X89461810Y-139440000D01*
X89698190Y-139440000D01*
X89930027Y-139393884D01*
X90148413Y-139303426D01*
X90344955Y-139172101D01*
X90512101Y-139004955D01*
X90643426Y-138808413D01*
X90733884Y-138590027D01*
X90780000Y-138358190D01*
X90780000Y-138121810D01*
X90920000Y-138121810D01*
X90920000Y-138358190D01*
X90966116Y-138590027D01*
X91056574Y-138808413D01*
X91187899Y-139004955D01*
X91355045Y-139172101D01*
X91551587Y-139303426D01*
X91769973Y-139393884D01*
X92001810Y-139440000D01*
X92238190Y-139440000D01*
X92470027Y-139393884D01*
X92688413Y-139303426D01*
X92884955Y-139172101D01*
X93052101Y-139004955D01*
X93183426Y-138808413D01*
X93273884Y-138590027D01*
X93320000Y-138358190D01*
X93320000Y-138121810D01*
X93460000Y-138121810D01*
X93460000Y-138358190D01*
X93506116Y-138590027D01*
X93596574Y-138808413D01*
X93727899Y-139004955D01*
X93895045Y-139172101D01*
X94091587Y-139303426D01*
X94309973Y-139393884D01*
X94541810Y-139440000D01*
X94778190Y-139440000D01*
X95010027Y-139393884D01*
X95228413Y-139303426D01*
X95424955Y-139172101D01*
X95592101Y-139004955D01*
X95723426Y-138808413D01*
X95813884Y-138590027D01*
X95860000Y-138358190D01*
X95860000Y-138121810D01*
X95813884Y-137889973D01*
X95723426Y-137671587D01*
X95592101Y-137475045D01*
X95424955Y-137307899D01*
X95228413Y-137176574D01*
X95010027Y-137086116D01*
X94778190Y-137040000D01*
X94541810Y-137040000D01*
X94309973Y-137086116D01*
X94091587Y-137176574D01*
X93895045Y-137307899D01*
X93727899Y-137475045D01*
X93596574Y-137671587D01*
X93506116Y-137889973D01*
X93460000Y-138121810D01*
X93320000Y-138121810D01*
X93273884Y-137889973D01*
X93183426Y-137671587D01*
X93052101Y-137475045D01*
X92884955Y-137307899D01*
X92688413Y-137176574D01*
X92470027Y-137086116D01*
X92238190Y-137040000D01*
X92001810Y-137040000D01*
X91769973Y-137086116D01*
X91551587Y-137176574D01*
X91355045Y-137307899D01*
X91187899Y-137475045D01*
X91056574Y-137671587D01*
X90966116Y-137889973D01*
X90920000Y-138121810D01*
X90780000Y-138121810D01*
X90733884Y-137889973D01*
X90643426Y-137671587D01*
X90512101Y-137475045D01*
X90344955Y-137307899D01*
X90148413Y-137176574D01*
X89930027Y-137086116D01*
X89698190Y-137040000D01*
X89461810Y-137040000D01*
X89229973Y-137086116D01*
X89011587Y-137176574D01*
X88815045Y-137307899D01*
X88647899Y-137475045D01*
X88516574Y-137671587D01*
X88426116Y-137889973D01*
X88380000Y-138121810D01*
X88240000Y-138121810D01*
X88193884Y-137889973D01*
X88103426Y-137671587D01*
X87972101Y-137475045D01*
X87804955Y-137307899D01*
X87608413Y-137176574D01*
X87390027Y-137086116D01*
X87158190Y-137040000D01*
X86921810Y-137040000D01*
X86689973Y-137086116D01*
X86471587Y-137176574D01*
X86275045Y-137307899D01*
X86107899Y-137475045D01*
X85976574Y-137671587D01*
X85975000Y-137675387D01*
X85975000Y-122881810D01*
X90920000Y-122881810D01*
X90920000Y-123118190D01*
X90966116Y-123350027D01*
X91056574Y-123568413D01*
X91187899Y-123764955D01*
X91355045Y-123932101D01*
X91551587Y-124063426D01*
X91769973Y-124153884D01*
X92001810Y-124200000D01*
X92238190Y-124200000D01*
X92470027Y-124153884D01*
X92688413Y-124063426D01*
X92884955Y-123932101D01*
X93052101Y-123764955D01*
X93183426Y-123568413D01*
X93273884Y-123350027D01*
X93320000Y-123118190D01*
X93320000Y-122881810D01*
X93460000Y-122881810D01*
X93460000Y-123118190D01*
X93506116Y-123350027D01*
X93596574Y-123568413D01*
X93727899Y-123764955D01*
X93895045Y-123932101D01*
X94091587Y-124063426D01*
X94309973Y-124153884D01*
X94541810Y-124200000D01*
X94778190Y-124200000D01*
X95010027Y-124153884D01*
X95228413Y-124063426D01*
X95424955Y-123932101D01*
X95592101Y-123764955D01*
X95723426Y-123568413D01*
X95813884Y-123350027D01*
X95860000Y-123118190D01*
X95860000Y-122881810D01*
X96000000Y-122881810D01*
X96000000Y-123118190D01*
X96046116Y-123350027D01*
X96136574Y-123568413D01*
X96267899Y-123764955D01*
X96435045Y-123932101D01*
X96631587Y-124063426D01*
X96849973Y-124153884D01*
X97081810Y-124200000D01*
X97318190Y-124200000D01*
X97550027Y-124153884D01*
X97768413Y-124063426D01*
X97964955Y-123932101D01*
X98132101Y-123764955D01*
X98263426Y-123568413D01*
X98353884Y-123350027D01*
X98400000Y-123118190D01*
X98400000Y-123117461D01*
X98540000Y-122977461D01*
X98540000Y-123118190D01*
X98586116Y-123350027D01*
X98676574Y-123568413D01*
X98807899Y-123764955D01*
X98975045Y-123932101D01*
X99171587Y-124063426D01*
X99389973Y-124153884D01*
X99621810Y-124200000D01*
X99858190Y-124200000D01*
X100090027Y-124153884D01*
X100308413Y-124063426D01*
X100475001Y-123952116D01*
X100475000Y-125782538D01*
X100097005Y-126160534D01*
X100076974Y-126176973D01*
X100050476Y-126209261D01*
X100011367Y-126256915D01*
X99962617Y-126348120D01*
X99932597Y-126447083D01*
X99922461Y-126550000D01*
X99925001Y-126575790D01*
X99925000Y-128686904D01*
X99750413Y-128570249D01*
X99538943Y-128482655D01*
X99314447Y-128438000D01*
X99085553Y-128438000D01*
X98861057Y-128482655D01*
X98649587Y-128570249D01*
X98459268Y-128697416D01*
X98297416Y-128859268D01*
X98170249Y-129049587D01*
X98082655Y-129261057D01*
X98038000Y-129485553D01*
X98038000Y-129714447D01*
X98082655Y-129938943D01*
X98170249Y-130150413D01*
X98297416Y-130340732D01*
X98459268Y-130502584D01*
X98649587Y-130629751D01*
X98861057Y-130717345D01*
X99085553Y-130762000D01*
X99314447Y-130762000D01*
X99538943Y-130717345D01*
X99750413Y-130629751D01*
X99940732Y-130502584D01*
X100102584Y-130340732D01*
X100229751Y-130150413D01*
X100317345Y-129938943D01*
X100345609Y-129796853D01*
X100538000Y-129604461D01*
X100538000Y-129714447D01*
X100582655Y-129938943D01*
X100670249Y-130150413D01*
X100797416Y-130340732D01*
X100959268Y-130502584D01*
X101149587Y-130629751D01*
X101361057Y-130717345D01*
X101585553Y-130762000D01*
X101814447Y-130762000D01*
X102038943Y-130717345D01*
X102250413Y-130629751D01*
X102440732Y-130502584D01*
X102602584Y-130340732D01*
X102725000Y-130157523D01*
X102725000Y-134532538D01*
X100147583Y-137109956D01*
X100090027Y-137086116D01*
X99858190Y-137040000D01*
X99621810Y-137040000D01*
X99389973Y-137086116D01*
X99171587Y-137176574D01*
X98975045Y-137307899D01*
X98807899Y-137475045D01*
X98676574Y-137671587D01*
X98586116Y-137889973D01*
X98540000Y-138121810D01*
X98540000Y-138358190D01*
X98586116Y-138590027D01*
X98641714Y-138724252D01*
X98379369Y-138461908D01*
X98400000Y-138358190D01*
X98400000Y-138121810D01*
X98353884Y-137889973D01*
X98263426Y-137671587D01*
X98132101Y-137475045D01*
X97964955Y-137307899D01*
X97768413Y-137176574D01*
X97550027Y-137086116D01*
X97318190Y-137040000D01*
X97081810Y-137040000D01*
X96849973Y-137086116D01*
X96631587Y-137176574D01*
X96435045Y-137307899D01*
X96267899Y-137475045D01*
X96136574Y-137671587D01*
X96046116Y-137889973D01*
X96000000Y-138121810D01*
X96000000Y-138358190D01*
X96046116Y-138590027D01*
X96136574Y-138808413D01*
X96267899Y-139004955D01*
X96435045Y-139172101D01*
X96631587Y-139303426D01*
X96849973Y-139393884D01*
X97081810Y-139440000D01*
X97318190Y-139440000D01*
X97550027Y-139393884D01*
X97745469Y-139312930D01*
X98910545Y-140478007D01*
X98926984Y-140498038D01*
X99006925Y-140563644D01*
X99098130Y-140612394D01*
X99197093Y-140642414D01*
X99274223Y-140650011D01*
X99274230Y-140650011D01*
X99300010Y-140652550D01*
X99325790Y-140650011D01*
X122849209Y-140650011D01*
X122874989Y-140652550D01*
X122900769Y-140650011D01*
X122900777Y-140650011D01*
X122977907Y-140642414D01*
X123076870Y-140612394D01*
X123168075Y-140563644D01*
X123248016Y-140498038D01*
X123264460Y-140478002D01*
X124203001Y-139539462D01*
X124223027Y-139523027D01*
X124239462Y-139503001D01*
X124239466Y-139502997D01*
X124263985Y-139473120D01*
X124288633Y-139443086D01*
X124337383Y-139351881D01*
X124367403Y-139252918D01*
X124375000Y-139175788D01*
X124375000Y-139175780D01*
X124375343Y-139172300D01*
X124571587Y-139303426D01*
X124789973Y-139393884D01*
X125021810Y-139440000D01*
X125258190Y-139440000D01*
X125490027Y-139393884D01*
X125708413Y-139303426D01*
X125904955Y-139172101D01*
X126072101Y-139004955D01*
X126203426Y-138808413D01*
X126293884Y-138590027D01*
X126340000Y-138358190D01*
X126340000Y-138121810D01*
X126480000Y-138121810D01*
X126480000Y-138358190D01*
X126526116Y-138590027D01*
X126616574Y-138808413D01*
X126747899Y-139004955D01*
X126915045Y-139172101D01*
X127111587Y-139303426D01*
X127329973Y-139393884D01*
X127561810Y-139440000D01*
X127798190Y-139440000D01*
X128030027Y-139393884D01*
X128248413Y-139303426D01*
X128444955Y-139172101D01*
X128612101Y-139004955D01*
X128743426Y-138808413D01*
X128833884Y-138590027D01*
X128880000Y-138358190D01*
X128880000Y-138121810D01*
X129020000Y-138121810D01*
X129020000Y-138358190D01*
X129066116Y-138590027D01*
X129156574Y-138808413D01*
X129287899Y-139004955D01*
X129455045Y-139172101D01*
X129651587Y-139303426D01*
X129869973Y-139393884D01*
X130101810Y-139440000D01*
X130338190Y-139440000D01*
X130570027Y-139393884D01*
X130788413Y-139303426D01*
X130984955Y-139172101D01*
X131152101Y-139004955D01*
X131283426Y-138808413D01*
X131373884Y-138590027D01*
X131420000Y-138358190D01*
X131420000Y-138121810D01*
X134100000Y-138121810D01*
X134100000Y-138358190D01*
X134146116Y-138590027D01*
X134236574Y-138808413D01*
X134367899Y-139004955D01*
X134535045Y-139172101D01*
X134731587Y-139303426D01*
X134949973Y-139393884D01*
X135181810Y-139440000D01*
X135418190Y-139440000D01*
X135650027Y-139393884D01*
X135868413Y-139303426D01*
X136064955Y-139172101D01*
X136232101Y-139004955D01*
X136363426Y-138808413D01*
X136453884Y-138590027D01*
X136500000Y-138358190D01*
X136500000Y-138121810D01*
X136453884Y-137889973D01*
X136363426Y-137671587D01*
X136232101Y-137475045D01*
X136064955Y-137307899D01*
X135868413Y-137176574D01*
X135650027Y-137086116D01*
X135418190Y-137040000D01*
X135181810Y-137040000D01*
X134949973Y-137086116D01*
X134731587Y-137176574D01*
X134535045Y-137307899D01*
X134367899Y-137475045D01*
X134236574Y-137671587D01*
X134146116Y-137889973D01*
X134100000Y-138121810D01*
X131420000Y-138121810D01*
X131373884Y-137889973D01*
X131283426Y-137671587D01*
X131152101Y-137475045D01*
X130984955Y-137307899D01*
X130788413Y-137176574D01*
X130570027Y-137086116D01*
X130338190Y-137040000D01*
X130101810Y-137040000D01*
X129869973Y-137086116D01*
X129651587Y-137176574D01*
X129455045Y-137307899D01*
X129287899Y-137475045D01*
X129156574Y-137671587D01*
X129066116Y-137889973D01*
X129020000Y-138121810D01*
X128880000Y-138121810D01*
X128833884Y-137889973D01*
X128743426Y-137671587D01*
X128612101Y-137475045D01*
X128444955Y-137307899D01*
X128248413Y-137176574D01*
X128030027Y-137086116D01*
X127798190Y-137040000D01*
X127561810Y-137040000D01*
X127329973Y-137086116D01*
X127111587Y-137176574D01*
X126915045Y-137307899D01*
X126747899Y-137475045D01*
X126616574Y-137671587D01*
X126526116Y-137889973D01*
X126480000Y-138121810D01*
X126340000Y-138121810D01*
X126293884Y-137889973D01*
X126203426Y-137671587D01*
X126072101Y-137475045D01*
X125904955Y-137307899D01*
X125708413Y-137176574D01*
X125490027Y-137086116D01*
X125258190Y-137040000D01*
X125021810Y-137040000D01*
X124789973Y-137086116D01*
X124571587Y-137176574D01*
X124375045Y-137307899D01*
X124375000Y-137307944D01*
X124375000Y-136412866D01*
X143700000Y-136412866D01*
X143700000Y-136787134D01*
X143773016Y-137154209D01*
X143916242Y-137499987D01*
X144124174Y-137811179D01*
X144388821Y-138075826D01*
X144700013Y-138283758D01*
X145045791Y-138426984D01*
X145412866Y-138500000D01*
X145787134Y-138500000D01*
X146154209Y-138426984D01*
X146499987Y-138283758D01*
X146811179Y-138075826D01*
X147075826Y-137811179D01*
X147283758Y-137499987D01*
X147426984Y-137154209D01*
X147500000Y-136787134D01*
X147500000Y-136412866D01*
X147426984Y-136045791D01*
X147283758Y-135700013D01*
X147075826Y-135388821D01*
X146811179Y-135124174D01*
X146499987Y-134916242D01*
X146154209Y-134773016D01*
X145787134Y-134700000D01*
X145412866Y-134700000D01*
X145045791Y-134773016D01*
X144700013Y-134916242D01*
X144388821Y-135124174D01*
X144124174Y-135388821D01*
X143916242Y-135700013D01*
X143773016Y-136045791D01*
X143700000Y-136412866D01*
X124375000Y-136412866D01*
X124375000Y-134315553D01*
X130328000Y-134315553D01*
X130328000Y-134544447D01*
X130372655Y-134768943D01*
X130460249Y-134980413D01*
X130587416Y-135170732D01*
X130749268Y-135332584D01*
X130939587Y-135459751D01*
X131151057Y-135547345D01*
X131375553Y-135592000D01*
X131604447Y-135592000D01*
X131828943Y-135547345D01*
X132040413Y-135459751D01*
X132230732Y-135332584D01*
X132392584Y-135170732D01*
X132519751Y-134980413D01*
X132607345Y-134768943D01*
X132652000Y-134544447D01*
X132652000Y-134315553D01*
X132607345Y-134091057D01*
X132519751Y-133879587D01*
X132392584Y-133689268D01*
X132230732Y-133527416D01*
X132040413Y-133400249D01*
X131828943Y-133312655D01*
X131604447Y-133268000D01*
X131375553Y-133268000D01*
X131151057Y-133312655D01*
X130939587Y-133400249D01*
X130749268Y-133527416D01*
X130587416Y-133689268D01*
X130460249Y-133879587D01*
X130372655Y-134091057D01*
X130328000Y-134315553D01*
X124375000Y-134315553D01*
X124375000Y-126417461D01*
X126752996Y-124039466D01*
X126773027Y-124023027D01*
X126838633Y-123943086D01*
X126869076Y-123886132D01*
X126915045Y-123932101D01*
X127111587Y-124063426D01*
X127329973Y-124153884D01*
X127561810Y-124200000D01*
X127798190Y-124200000D01*
X128030027Y-124153884D01*
X128248413Y-124063426D01*
X128444955Y-123932101D01*
X128612101Y-123764955D01*
X128743426Y-123568413D01*
X128833884Y-123350027D01*
X128869007Y-123173455D01*
X129020000Y-123022462D01*
X129020000Y-123118190D01*
X129066116Y-123350027D01*
X129156574Y-123568413D01*
X129287899Y-123764955D01*
X129455045Y-123932101D01*
X129651587Y-124063426D01*
X129869973Y-124153884D01*
X130064884Y-124192655D01*
X128896983Y-125360556D01*
X128876952Y-125376995D01*
X128860513Y-125397026D01*
X128811345Y-125456937D01*
X128762595Y-125548142D01*
X128732575Y-125647105D01*
X128722439Y-125750022D01*
X128724979Y-125775812D01*
X128724978Y-129624198D01*
X128722439Y-129649978D01*
X128724978Y-129675758D01*
X128724978Y-129675765D01*
X128732575Y-129752895D01*
X128762595Y-129851858D01*
X128811345Y-129943064D01*
X128876951Y-130023005D01*
X128896988Y-130039449D01*
X130383182Y-131525643D01*
X130372655Y-131551057D01*
X130328000Y-131775553D01*
X130328000Y-132004447D01*
X130372655Y-132228943D01*
X130460249Y-132440413D01*
X130587416Y-132630732D01*
X130749268Y-132792584D01*
X130939587Y-132919751D01*
X131151057Y-133007345D01*
X131375553Y-133052000D01*
X131604447Y-133052000D01*
X131828943Y-133007345D01*
X132040413Y-132919751D01*
X132230732Y-132792584D01*
X132392584Y-132630732D01*
X132519751Y-132440413D01*
X132607345Y-132228943D01*
X132652000Y-132004447D01*
X132652000Y-131775553D01*
X132607345Y-131551057D01*
X132519751Y-131339587D01*
X132392584Y-131149268D01*
X132368316Y-131125000D01*
X133182539Y-131125000D01*
X137000000Y-134942462D01*
X137000000Y-134968944D01*
X137026901Y-135104182D01*
X137079668Y-135231574D01*
X137156274Y-135346224D01*
X137253776Y-135443726D01*
X137368426Y-135520332D01*
X137495818Y-135573099D01*
X137631056Y-135600000D01*
X137768944Y-135600000D01*
X137904182Y-135573099D01*
X138031574Y-135520332D01*
X138146224Y-135443726D01*
X138243726Y-135346224D01*
X138320332Y-135231574D01*
X138373099Y-135104182D01*
X138400000Y-134968944D01*
X138400000Y-134831056D01*
X138373099Y-134695818D01*
X138320332Y-134568426D01*
X138243726Y-134453776D01*
X138146224Y-134356274D01*
X138031574Y-134279668D01*
X137904182Y-134226901D01*
X137768944Y-134200000D01*
X137742462Y-134200000D01*
X133789471Y-130247010D01*
X133773027Y-130226973D01*
X133693086Y-130161367D01*
X133601881Y-130112617D01*
X133502918Y-130082597D01*
X133425788Y-130075000D01*
X133425780Y-130075000D01*
X133400000Y-130072461D01*
X133374220Y-130075000D01*
X132403096Y-130075000D01*
X132519751Y-129900413D01*
X132607345Y-129688943D01*
X132652000Y-129464447D01*
X132652000Y-129235553D01*
X132607345Y-129011057D01*
X132519751Y-128799587D01*
X132392584Y-128609268D01*
X132230732Y-128447416D01*
X132179025Y-128412866D01*
X143700000Y-128412866D01*
X143700000Y-128787134D01*
X143773016Y-129154209D01*
X143916242Y-129499987D01*
X144124174Y-129811179D01*
X144388821Y-130075826D01*
X144700013Y-130283758D01*
X145045791Y-130426984D01*
X145412866Y-130500000D01*
X145787134Y-130500000D01*
X146154209Y-130426984D01*
X146499987Y-130283758D01*
X146524750Y-130267212D01*
X147210534Y-130952996D01*
X147226973Y-130973027D01*
X147306914Y-131038633D01*
X147398119Y-131087383D01*
X147497082Y-131117403D01*
X147574212Y-131125000D01*
X147574219Y-131125000D01*
X147599999Y-131127539D01*
X147625779Y-131125000D01*
X148387995Y-131125000D01*
X148124174Y-131388821D01*
X147916242Y-131700013D01*
X147773016Y-132045791D01*
X147700000Y-132412866D01*
X147700000Y-132787134D01*
X147773016Y-133154209D01*
X147916242Y-133499987D01*
X148124174Y-133811179D01*
X148387995Y-134075000D01*
X147817462Y-134075000D01*
X147267212Y-133524750D01*
X147283758Y-133499987D01*
X147426984Y-133154209D01*
X147500000Y-132787134D01*
X147500000Y-132412866D01*
X147426984Y-132045791D01*
X147283758Y-131700013D01*
X147075826Y-131388821D01*
X146811179Y-131124174D01*
X146499987Y-130916242D01*
X146154209Y-130773016D01*
X145787134Y-130700000D01*
X145412866Y-130700000D01*
X145045791Y-130773016D01*
X144700013Y-130916242D01*
X144388821Y-131124174D01*
X144124174Y-131388821D01*
X143916242Y-131700013D01*
X143773016Y-132045791D01*
X143700000Y-132412866D01*
X143700000Y-132787134D01*
X143773016Y-133154209D01*
X143916242Y-133499987D01*
X144124174Y-133811179D01*
X144388821Y-134075826D01*
X144700013Y-134283758D01*
X145045791Y-134426984D01*
X145412866Y-134500000D01*
X145787134Y-134500000D01*
X146154209Y-134426984D01*
X146499987Y-134283758D01*
X146524750Y-134267212D01*
X147210534Y-134952996D01*
X147226973Y-134973027D01*
X147306914Y-135038633D01*
X147398119Y-135087383D01*
X147497082Y-135117403D01*
X147574212Y-135125000D01*
X147574219Y-135125000D01*
X147599999Y-135127539D01*
X147625779Y-135125000D01*
X148387995Y-135125000D01*
X148124174Y-135388821D01*
X147916242Y-135700013D01*
X147773016Y-136045791D01*
X147700000Y-136412866D01*
X147700000Y-136787134D01*
X147773016Y-137154209D01*
X147916242Y-137499987D01*
X148124174Y-137811179D01*
X148388821Y-138075826D01*
X148700013Y-138283758D01*
X149045791Y-138426984D01*
X149412866Y-138500000D01*
X149787134Y-138500000D01*
X150154209Y-138426984D01*
X150499987Y-138283758D01*
X150811179Y-138075826D01*
X151075826Y-137811179D01*
X151283758Y-137499987D01*
X151426984Y-137154209D01*
X151500000Y-136787134D01*
X151500000Y-136412866D01*
X159700000Y-136412866D01*
X159700000Y-136787134D01*
X159773016Y-137154209D01*
X159916242Y-137499987D01*
X160124174Y-137811179D01*
X160388821Y-138075826D01*
X160700013Y-138283758D01*
X161045791Y-138426984D01*
X161412866Y-138500000D01*
X161787134Y-138500000D01*
X162154209Y-138426984D01*
X162499987Y-138283758D01*
X162811179Y-138075826D01*
X163075826Y-137811179D01*
X163283758Y-137499987D01*
X163426984Y-137154209D01*
X163500000Y-136787134D01*
X163500000Y-136412866D01*
X163426984Y-136045791D01*
X163283758Y-135700013D01*
X163075826Y-135388821D01*
X162811179Y-135124174D01*
X162499987Y-134916242D01*
X162154209Y-134773016D01*
X161787134Y-134700000D01*
X161412866Y-134700000D01*
X161045791Y-134773016D01*
X160700013Y-134916242D01*
X160388821Y-135124174D01*
X160124174Y-135388821D01*
X159916242Y-135700013D01*
X159773016Y-136045791D01*
X159700000Y-136412866D01*
X151500000Y-136412866D01*
X151426984Y-136045791D01*
X151283758Y-135700013D01*
X151075826Y-135388821D01*
X150812005Y-135125000D01*
X159574220Y-135125000D01*
X159600000Y-135127539D01*
X159625780Y-135125000D01*
X159625788Y-135125000D01*
X159702918Y-135117403D01*
X159801881Y-135087383D01*
X159893086Y-135038633D01*
X159973027Y-134973027D01*
X159989471Y-134952990D01*
X160675250Y-134267212D01*
X160700013Y-134283758D01*
X161045791Y-134426984D01*
X161412866Y-134500000D01*
X161787134Y-134500000D01*
X162154209Y-134426984D01*
X162499987Y-134283758D01*
X162524750Y-134267212D01*
X163210534Y-134952996D01*
X163226973Y-134973027D01*
X163306914Y-135038633D01*
X163398119Y-135087383D01*
X163497082Y-135117403D01*
X163574212Y-135125000D01*
X163574219Y-135125000D01*
X163599999Y-135127539D01*
X163625779Y-135125000D01*
X164387995Y-135125000D01*
X164124174Y-135388821D01*
X163916242Y-135700013D01*
X163773016Y-136045791D01*
X163700000Y-136412866D01*
X163700000Y-136787134D01*
X163773016Y-137154209D01*
X163916242Y-137499987D01*
X164124174Y-137811179D01*
X164388821Y-138075826D01*
X164700013Y-138283758D01*
X165045791Y-138426984D01*
X165412866Y-138500000D01*
X165787134Y-138500000D01*
X166154209Y-138426984D01*
X166499987Y-138283758D01*
X166811179Y-138075826D01*
X167075826Y-137811179D01*
X167283758Y-137499987D01*
X167426984Y-137154209D01*
X167500000Y-136787134D01*
X167500000Y-136412866D01*
X175700000Y-136412866D01*
X175700000Y-136787134D01*
X175773016Y-137154209D01*
X175916242Y-137499987D01*
X176124174Y-137811179D01*
X176388821Y-138075826D01*
X176700013Y-138283758D01*
X177045791Y-138426984D01*
X177412866Y-138500000D01*
X177787134Y-138500000D01*
X178154209Y-138426984D01*
X178499987Y-138283758D01*
X178811179Y-138075826D01*
X179075826Y-137811179D01*
X179283758Y-137499987D01*
X179426984Y-137154209D01*
X179500000Y-136787134D01*
X179500000Y-136412866D01*
X179426984Y-136045791D01*
X179283758Y-135700013D01*
X179075826Y-135388821D01*
X178811179Y-135124174D01*
X178499987Y-134916242D01*
X178154209Y-134773016D01*
X177787134Y-134700000D01*
X177412866Y-134700000D01*
X177045791Y-134773016D01*
X176700013Y-134916242D01*
X176388821Y-135124174D01*
X176124174Y-135388821D01*
X175916242Y-135700013D01*
X175773016Y-136045791D01*
X175700000Y-136412866D01*
X167500000Y-136412866D01*
X167426984Y-136045791D01*
X167283758Y-135700013D01*
X167075826Y-135388821D01*
X166812005Y-135125000D01*
X169335050Y-135125000D01*
X169353776Y-135143726D01*
X169468426Y-135220332D01*
X169595818Y-135273099D01*
X169731056Y-135300000D01*
X169868944Y-135300000D01*
X170004182Y-135273099D01*
X170131574Y-135220332D01*
X170246224Y-135143726D01*
X170264950Y-135125000D01*
X175574220Y-135125000D01*
X175600000Y-135127539D01*
X175625780Y-135125000D01*
X175625788Y-135125000D01*
X175702918Y-135117403D01*
X175801881Y-135087383D01*
X175893086Y-135038633D01*
X175973027Y-134973027D01*
X175989471Y-134952990D01*
X176675250Y-134267212D01*
X176700013Y-134283758D01*
X177045791Y-134426984D01*
X177412866Y-134500000D01*
X177787134Y-134500000D01*
X178154209Y-134426984D01*
X178499987Y-134283758D01*
X178524750Y-134267212D01*
X179210534Y-134952996D01*
X179226973Y-134973027D01*
X179306914Y-135038633D01*
X179398119Y-135087383D01*
X179497082Y-135117403D01*
X179574212Y-135125000D01*
X179574219Y-135125000D01*
X179599999Y-135127539D01*
X179625779Y-135125000D01*
X180387995Y-135125000D01*
X180124174Y-135388821D01*
X179916242Y-135700013D01*
X179773016Y-136045791D01*
X179700000Y-136412866D01*
X179700000Y-136787134D01*
X179773016Y-137154209D01*
X179916242Y-137499987D01*
X180124174Y-137811179D01*
X180388821Y-138075826D01*
X180700013Y-138283758D01*
X181045791Y-138426984D01*
X181412866Y-138500000D01*
X181787134Y-138500000D01*
X182154209Y-138426984D01*
X182499987Y-138283758D01*
X182811179Y-138075826D01*
X183075826Y-137811179D01*
X183283758Y-137499987D01*
X183426984Y-137154209D01*
X183500000Y-136787134D01*
X183500000Y-136412866D01*
X191700000Y-136412866D01*
X191700000Y-136787134D01*
X191773016Y-137154209D01*
X191916242Y-137499987D01*
X192124174Y-137811179D01*
X192388821Y-138075826D01*
X192700013Y-138283758D01*
X193045791Y-138426984D01*
X193412866Y-138500000D01*
X193787134Y-138500000D01*
X194154209Y-138426984D01*
X194499987Y-138283758D01*
X194811179Y-138075826D01*
X195075826Y-137811179D01*
X195283758Y-137499987D01*
X195426984Y-137154209D01*
X195500000Y-136787134D01*
X195500000Y-136412866D01*
X195700000Y-136412866D01*
X195700000Y-136787134D01*
X195773016Y-137154209D01*
X195916242Y-137499987D01*
X196124174Y-137811179D01*
X196388821Y-138075826D01*
X196700013Y-138283758D01*
X197045791Y-138426984D01*
X197412866Y-138500000D01*
X197787134Y-138500000D01*
X198154209Y-138426984D01*
X198499987Y-138283758D01*
X198811179Y-138075826D01*
X199075826Y-137811179D01*
X199283758Y-137499987D01*
X199426984Y-137154209D01*
X199500000Y-136787134D01*
X199500000Y-136412866D01*
X199426984Y-136045791D01*
X199283758Y-135700013D01*
X199075826Y-135388821D01*
X198811179Y-135124174D01*
X198499987Y-134916242D01*
X198154209Y-134773016D01*
X197787134Y-134700000D01*
X197412866Y-134700000D01*
X197045791Y-134773016D01*
X196700013Y-134916242D01*
X196388821Y-135124174D01*
X196124174Y-135388821D01*
X195916242Y-135700013D01*
X195773016Y-136045791D01*
X195700000Y-136412866D01*
X195500000Y-136412866D01*
X195426984Y-136045791D01*
X195283758Y-135700013D01*
X195075826Y-135388821D01*
X194811179Y-135124174D01*
X194499987Y-134916242D01*
X194154209Y-134773016D01*
X193787134Y-134700000D01*
X193412866Y-134700000D01*
X193045791Y-134773016D01*
X192700013Y-134916242D01*
X192388821Y-135124174D01*
X192124174Y-135388821D01*
X191916242Y-135700013D01*
X191773016Y-136045791D01*
X191700000Y-136412866D01*
X183500000Y-136412866D01*
X183426984Y-136045791D01*
X183283758Y-135700013D01*
X183075826Y-135388821D01*
X182812005Y-135125000D01*
X191574220Y-135125000D01*
X191600000Y-135127539D01*
X191625780Y-135125000D01*
X191625788Y-135125000D01*
X191702918Y-135117403D01*
X191801881Y-135087383D01*
X191893086Y-135038633D01*
X191973027Y-134973027D01*
X191989471Y-134952990D01*
X192675250Y-134267212D01*
X192700013Y-134283758D01*
X193045791Y-134426984D01*
X193412866Y-134500000D01*
X193787134Y-134500000D01*
X194154209Y-134426984D01*
X194499987Y-134283758D01*
X194811179Y-134075826D01*
X195075826Y-133811179D01*
X195283758Y-133499987D01*
X195426984Y-133154209D01*
X195500000Y-132787134D01*
X195500000Y-132412866D01*
X195700000Y-132412866D01*
X195700000Y-132787134D01*
X195773016Y-133154209D01*
X195916242Y-133499987D01*
X196124174Y-133811179D01*
X196388821Y-134075826D01*
X196700013Y-134283758D01*
X197045791Y-134426984D01*
X197412866Y-134500000D01*
X197787134Y-134500000D01*
X198154209Y-134426984D01*
X198499987Y-134283758D01*
X198811179Y-134075826D01*
X199075826Y-133811179D01*
X199283758Y-133499987D01*
X199426984Y-133154209D01*
X199500000Y-132787134D01*
X199500000Y-132412866D01*
X199426984Y-132045791D01*
X199283758Y-131700013D01*
X199075826Y-131388821D01*
X198811179Y-131124174D01*
X198499987Y-130916242D01*
X198154209Y-130773016D01*
X197787134Y-130700000D01*
X197412866Y-130700000D01*
X197045791Y-130773016D01*
X196700013Y-130916242D01*
X196388821Y-131124174D01*
X196124174Y-131388821D01*
X195916242Y-131700013D01*
X195773016Y-132045791D01*
X195700000Y-132412866D01*
X195500000Y-132412866D01*
X195426984Y-132045791D01*
X195283758Y-131700013D01*
X195075826Y-131388821D01*
X194811179Y-131124174D01*
X194499987Y-130916242D01*
X194154209Y-130773016D01*
X193787134Y-130700000D01*
X193492461Y-130700000D01*
X193692462Y-130500000D01*
X193787134Y-130500000D01*
X194154209Y-130426984D01*
X194499987Y-130283758D01*
X194811179Y-130075826D01*
X195075826Y-129811179D01*
X195283758Y-129499987D01*
X195426984Y-129154209D01*
X195500000Y-128787134D01*
X195500000Y-128412866D01*
X195700000Y-128412866D01*
X195700000Y-128787134D01*
X195773016Y-129154209D01*
X195916242Y-129499987D01*
X196124174Y-129811179D01*
X196388821Y-130075826D01*
X196700013Y-130283758D01*
X197045791Y-130426984D01*
X197412866Y-130500000D01*
X197787134Y-130500000D01*
X198154209Y-130426984D01*
X198499987Y-130283758D01*
X198811179Y-130075826D01*
X199075826Y-129811179D01*
X199283758Y-129499987D01*
X199426984Y-129154209D01*
X199500000Y-128787134D01*
X199500000Y-128412866D01*
X199487496Y-128350000D01*
X201248065Y-128350000D01*
X201248065Y-129850000D01*
X201255788Y-129928414D01*
X201278660Y-130003814D01*
X201315803Y-130073303D01*
X201365789Y-130134211D01*
X201426697Y-130184197D01*
X201496186Y-130221340D01*
X201571586Y-130244212D01*
X201650000Y-130251935D01*
X203850000Y-130251935D01*
X203928414Y-130244212D01*
X204003814Y-130221340D01*
X204073303Y-130184197D01*
X204134211Y-130134211D01*
X204184197Y-130073303D01*
X204221340Y-130003814D01*
X204244212Y-129928414D01*
X204251935Y-129850000D01*
X204251935Y-128985553D01*
X206588000Y-128985553D01*
X206588000Y-129214447D01*
X206632655Y-129438943D01*
X206720249Y-129650413D01*
X206847416Y-129840732D01*
X207009268Y-130002584D01*
X207199587Y-130129751D01*
X207411057Y-130217345D01*
X207635553Y-130262000D01*
X207864447Y-130262000D01*
X208088943Y-130217345D01*
X208300413Y-130129751D01*
X208490732Y-130002584D01*
X208652584Y-129840732D01*
X208779751Y-129650413D01*
X208867345Y-129438943D01*
X208912000Y-129214447D01*
X208912000Y-128985553D01*
X208867345Y-128761057D01*
X208779751Y-128549587D01*
X208652584Y-128359268D01*
X208490732Y-128197416D01*
X208300413Y-128070249D01*
X208088943Y-127982655D01*
X207864447Y-127938000D01*
X207635553Y-127938000D01*
X207411057Y-127982655D01*
X207199587Y-128070249D01*
X207009268Y-128197416D01*
X206847416Y-128359268D01*
X206720249Y-128549587D01*
X206632655Y-128761057D01*
X206588000Y-128985553D01*
X204251935Y-128985553D01*
X204251935Y-128350000D01*
X204244212Y-128271586D01*
X204221340Y-128196186D01*
X204184197Y-128126697D01*
X204134211Y-128065789D01*
X204073303Y-128015803D01*
X204003814Y-127978660D01*
X203928414Y-127955788D01*
X203850000Y-127948065D01*
X201650000Y-127948065D01*
X201571586Y-127955788D01*
X201496186Y-127978660D01*
X201426697Y-128015803D01*
X201365789Y-128065789D01*
X201315803Y-128126697D01*
X201278660Y-128196186D01*
X201255788Y-128271586D01*
X201248065Y-128350000D01*
X199487496Y-128350000D01*
X199426984Y-128045791D01*
X199283758Y-127700013D01*
X199075826Y-127388821D01*
X198811179Y-127124174D01*
X198499987Y-126916242D01*
X198154209Y-126773016D01*
X197787134Y-126700000D01*
X197412866Y-126700000D01*
X197045791Y-126773016D01*
X196700013Y-126916242D01*
X196388821Y-127124174D01*
X196124174Y-127388821D01*
X195916242Y-127700013D01*
X195773016Y-128045791D01*
X195700000Y-128412866D01*
X195500000Y-128412866D01*
X195426984Y-128045791D01*
X195283758Y-127700013D01*
X195075826Y-127388821D01*
X194811179Y-127124174D01*
X194499987Y-126916242D01*
X194154209Y-126773016D01*
X193787134Y-126700000D01*
X193412866Y-126700000D01*
X193045791Y-126773016D01*
X192700013Y-126916242D01*
X192388821Y-127124174D01*
X192124174Y-127388821D01*
X191916242Y-127700013D01*
X191773016Y-128045791D01*
X191700000Y-128412866D01*
X191700000Y-128787134D01*
X191773016Y-129154209D01*
X191916242Y-129499987D01*
X192124174Y-129811179D01*
X192387995Y-130075000D01*
X182812005Y-130075000D01*
X183075826Y-129811179D01*
X183283758Y-129499987D01*
X183426984Y-129154209D01*
X183500000Y-128787134D01*
X183500000Y-128412866D01*
X183426984Y-128045791D01*
X183283758Y-127700013D01*
X183075826Y-127388821D01*
X182811179Y-127124174D01*
X182499987Y-126916242D01*
X182154209Y-126773016D01*
X181787134Y-126700000D01*
X181412866Y-126700000D01*
X181045791Y-126773016D01*
X180700013Y-126916242D01*
X180388821Y-127124174D01*
X180124174Y-127388821D01*
X179916242Y-127700013D01*
X179773016Y-128045791D01*
X179700000Y-128412866D01*
X179700000Y-128787134D01*
X179773016Y-129154209D01*
X179916242Y-129499987D01*
X180124174Y-129811179D01*
X180387995Y-130075000D01*
X179817462Y-130075000D01*
X179267212Y-129524750D01*
X179283758Y-129499987D01*
X179426984Y-129154209D01*
X179500000Y-128787134D01*
X179500000Y-128412866D01*
X179426984Y-128045791D01*
X179283758Y-127700013D01*
X179075826Y-127388821D01*
X178811179Y-127124174D01*
X178499987Y-126916242D01*
X178154209Y-126773016D01*
X177787134Y-126700000D01*
X177412866Y-126700000D01*
X177045791Y-126773016D01*
X176700013Y-126916242D01*
X176388821Y-127124174D01*
X176124174Y-127388821D01*
X175916242Y-127700013D01*
X175773016Y-128045791D01*
X175700000Y-128412866D01*
X175700000Y-128787134D01*
X175773016Y-129154209D01*
X175916242Y-129499987D01*
X175932788Y-129524750D01*
X175382539Y-130075000D01*
X172275788Y-130075000D01*
X172250000Y-130072460D01*
X172224212Y-130075000D01*
X166812005Y-130075000D01*
X167075826Y-129811179D01*
X167283758Y-129499987D01*
X167426984Y-129154209D01*
X167500000Y-128787134D01*
X167500000Y-128412866D01*
X167426984Y-128045791D01*
X167283758Y-127700013D01*
X167075826Y-127388821D01*
X166811179Y-127124174D01*
X166499987Y-126916242D01*
X166154209Y-126773016D01*
X165787134Y-126700000D01*
X165412866Y-126700000D01*
X165045791Y-126773016D01*
X164700013Y-126916242D01*
X164388821Y-127124174D01*
X164124174Y-127388821D01*
X163916242Y-127700013D01*
X163773016Y-128045791D01*
X163700000Y-128412866D01*
X163700000Y-128787134D01*
X163773016Y-129154209D01*
X163916242Y-129499987D01*
X164124174Y-129811179D01*
X164387995Y-130075000D01*
X163817462Y-130075000D01*
X163267212Y-129524750D01*
X163283758Y-129499987D01*
X163426984Y-129154209D01*
X163500000Y-128787134D01*
X163500000Y-128412866D01*
X163426984Y-128045791D01*
X163283758Y-127700013D01*
X163075826Y-127388821D01*
X162811179Y-127124174D01*
X162499987Y-126916242D01*
X162154209Y-126773016D01*
X161787134Y-126700000D01*
X161412866Y-126700000D01*
X161045791Y-126773016D01*
X160700013Y-126916242D01*
X160388821Y-127124174D01*
X160124174Y-127388821D01*
X159916242Y-127700013D01*
X159773016Y-128045791D01*
X159700000Y-128412866D01*
X159700000Y-128787134D01*
X159773016Y-129154209D01*
X159916242Y-129499987D01*
X159932788Y-129524750D01*
X159382539Y-130075000D01*
X150812005Y-130075000D01*
X151075826Y-129811179D01*
X151283758Y-129499987D01*
X151426984Y-129154209D01*
X151500000Y-128787134D01*
X151500000Y-128412866D01*
X151426984Y-128045791D01*
X151283758Y-127700013D01*
X151075826Y-127388821D01*
X150811179Y-127124174D01*
X150499987Y-126916242D01*
X150154209Y-126773016D01*
X149787134Y-126700000D01*
X149412866Y-126700000D01*
X149045791Y-126773016D01*
X148700013Y-126916242D01*
X148388821Y-127124174D01*
X148124174Y-127388821D01*
X147916242Y-127700013D01*
X147773016Y-128045791D01*
X147700000Y-128412866D01*
X147700000Y-128787134D01*
X147773016Y-129154209D01*
X147916242Y-129499987D01*
X148124174Y-129811179D01*
X148387995Y-130075000D01*
X147817462Y-130075000D01*
X147267212Y-129524750D01*
X147283758Y-129499987D01*
X147426984Y-129154209D01*
X147500000Y-128787134D01*
X147500000Y-128412866D01*
X147426984Y-128045791D01*
X147283758Y-127700013D01*
X147075826Y-127388821D01*
X146811179Y-127124174D01*
X146499987Y-126916242D01*
X146154209Y-126773016D01*
X145787134Y-126700000D01*
X145412866Y-126700000D01*
X145045791Y-126773016D01*
X144700013Y-126916242D01*
X144388821Y-127124174D01*
X144124174Y-127388821D01*
X143916242Y-127700013D01*
X143773016Y-128045791D01*
X143700000Y-128412866D01*
X132179025Y-128412866D01*
X132040413Y-128320249D01*
X131828943Y-128232655D01*
X131604447Y-128188000D01*
X131375553Y-128188000D01*
X131151057Y-128232655D01*
X131125643Y-128243182D01*
X131117476Y-128235015D01*
X131117467Y-128235004D01*
X130675000Y-127792538D01*
X130675000Y-126417461D01*
X131492462Y-125600000D01*
X136698065Y-125600000D01*
X136698065Y-127200000D01*
X136705788Y-127278414D01*
X136728660Y-127353814D01*
X136765803Y-127423303D01*
X136815789Y-127484211D01*
X136876697Y-127534197D01*
X136946186Y-127571340D01*
X137021586Y-127594212D01*
X137100000Y-127601935D01*
X138700000Y-127601935D01*
X138778414Y-127594212D01*
X138853814Y-127571340D01*
X138923303Y-127534197D01*
X138984211Y-127484211D01*
X139034197Y-127423303D01*
X139071340Y-127353814D01*
X139094212Y-127278414D01*
X139101935Y-127200000D01*
X139101935Y-125850000D01*
X201248065Y-125850000D01*
X201248065Y-127350000D01*
X201255788Y-127428414D01*
X201278660Y-127503814D01*
X201315803Y-127573303D01*
X201365789Y-127634211D01*
X201426697Y-127684197D01*
X201496186Y-127721340D01*
X201571586Y-127744212D01*
X201650000Y-127751935D01*
X203850000Y-127751935D01*
X203928414Y-127744212D01*
X204003814Y-127721340D01*
X204073303Y-127684197D01*
X204134211Y-127634211D01*
X204184197Y-127573303D01*
X204221340Y-127503814D01*
X204244212Y-127428414D01*
X204251935Y-127350000D01*
X204251935Y-125850000D01*
X204244212Y-125771586D01*
X204221340Y-125696186D01*
X204184197Y-125626697D01*
X204134211Y-125565789D01*
X204073303Y-125515803D01*
X204003814Y-125478660D01*
X203928414Y-125455788D01*
X203850000Y-125448065D01*
X201650000Y-125448065D01*
X201571586Y-125455788D01*
X201496186Y-125478660D01*
X201426697Y-125515803D01*
X201365789Y-125565789D01*
X201315803Y-125626697D01*
X201278660Y-125696186D01*
X201255788Y-125771586D01*
X201248065Y-125850000D01*
X139101935Y-125850000D01*
X139101935Y-125600000D01*
X139094212Y-125521586D01*
X139071340Y-125446186D01*
X139034197Y-125376697D01*
X138984211Y-125315789D01*
X138923303Y-125265803D01*
X138853814Y-125228660D01*
X138778414Y-125205788D01*
X138700000Y-125198065D01*
X137100000Y-125198065D01*
X137021586Y-125205788D01*
X136946186Y-125228660D01*
X136876697Y-125265803D01*
X136815789Y-125315789D01*
X136765803Y-125376697D01*
X136728660Y-125446186D01*
X136705788Y-125521586D01*
X136698065Y-125600000D01*
X131492462Y-125600000D01*
X132267463Y-124825000D01*
X133324220Y-124825000D01*
X133350000Y-124827539D01*
X133375780Y-124825000D01*
X133375788Y-124825000D01*
X133452918Y-124817403D01*
X133551881Y-124787383D01*
X133643086Y-124738633D01*
X133723027Y-124673027D01*
X133739470Y-124652991D01*
X134266574Y-124125889D01*
X134276697Y-124134197D01*
X134346186Y-124171340D01*
X134421586Y-124194212D01*
X134500000Y-124201935D01*
X136100000Y-124201935D01*
X136178414Y-124194212D01*
X136253814Y-124171340D01*
X136323303Y-124134197D01*
X136362269Y-124102219D01*
X136403776Y-124143726D01*
X136518426Y-124220332D01*
X136645818Y-124273099D01*
X136781056Y-124300000D01*
X136918944Y-124300000D01*
X137054182Y-124273099D01*
X137181574Y-124220332D01*
X137296224Y-124143726D01*
X137393726Y-124046224D01*
X137434264Y-123985553D01*
X201588000Y-123985553D01*
X201588000Y-124214447D01*
X201632655Y-124438943D01*
X201720249Y-124650413D01*
X201847416Y-124840732D01*
X202009268Y-125002584D01*
X202199587Y-125129751D01*
X202411057Y-125217345D01*
X202635553Y-125262000D01*
X202864447Y-125262000D01*
X203088943Y-125217345D01*
X203300413Y-125129751D01*
X203490732Y-125002584D01*
X203652584Y-124840732D01*
X203779751Y-124650413D01*
X203867345Y-124438943D01*
X203912000Y-124214447D01*
X203912000Y-123985553D01*
X203867345Y-123761057D01*
X203779751Y-123549587D01*
X203652584Y-123359268D01*
X203490732Y-123197416D01*
X203300413Y-123070249D01*
X203088943Y-122982655D01*
X202864447Y-122938000D01*
X202635553Y-122938000D01*
X202411057Y-122982655D01*
X202199587Y-123070249D01*
X202009268Y-123197416D01*
X201847416Y-123359268D01*
X201720249Y-123549587D01*
X201632655Y-123761057D01*
X201588000Y-123985553D01*
X137434264Y-123985553D01*
X137470332Y-123931574D01*
X137523099Y-123804182D01*
X137550000Y-123668944D01*
X137550000Y-123642461D01*
X138517462Y-122675000D01*
X138824220Y-122675000D01*
X138850000Y-122677539D01*
X138875780Y-122675000D01*
X138875788Y-122675000D01*
X138952918Y-122667403D01*
X139051881Y-122637383D01*
X139143086Y-122588633D01*
X139223027Y-122523027D01*
X139239471Y-122502990D01*
X140892461Y-120850000D01*
X201248065Y-120850000D01*
X201248065Y-122350000D01*
X201255788Y-122428414D01*
X201278660Y-122503814D01*
X201315803Y-122573303D01*
X201365789Y-122634211D01*
X201426697Y-122684197D01*
X201496186Y-122721340D01*
X201571586Y-122744212D01*
X201650000Y-122751935D01*
X203850000Y-122751935D01*
X203928414Y-122744212D01*
X204003814Y-122721340D01*
X204073303Y-122684197D01*
X204134211Y-122634211D01*
X204184197Y-122573303D01*
X204221340Y-122503814D01*
X204244212Y-122428414D01*
X204251935Y-122350000D01*
X204251935Y-120850000D01*
X204244212Y-120771586D01*
X204221340Y-120696186D01*
X204184197Y-120626697D01*
X204134211Y-120565789D01*
X204073303Y-120515803D01*
X204003814Y-120478660D01*
X203928414Y-120455788D01*
X203850000Y-120448065D01*
X201650000Y-120448065D01*
X201571586Y-120455788D01*
X201496186Y-120478660D01*
X201426697Y-120515803D01*
X201365789Y-120565789D01*
X201315803Y-120626697D01*
X201278660Y-120696186D01*
X201255788Y-120771586D01*
X201248065Y-120850000D01*
X140892461Y-120850000D01*
X143497219Y-118245242D01*
X143531284Y-118296224D01*
X143628786Y-118393726D01*
X143743436Y-118470332D01*
X143870828Y-118523099D01*
X144006066Y-118550000D01*
X144143954Y-118550000D01*
X144279192Y-118523099D01*
X144406584Y-118470332D01*
X144521234Y-118393726D01*
X144539960Y-118375000D01*
X146635050Y-118375000D01*
X146653776Y-118393726D01*
X146768426Y-118470332D01*
X146895818Y-118523099D01*
X147031056Y-118550000D01*
X147168944Y-118550000D01*
X147304182Y-118523099D01*
X147431574Y-118470332D01*
X147546224Y-118393726D01*
X147643726Y-118296224D01*
X147720332Y-118181574D01*
X147773099Y-118054182D01*
X147800000Y-117918944D01*
X147800000Y-117781056D01*
X147788885Y-117725176D01*
X156082715Y-117725176D01*
X156352417Y-117994878D01*
X156268426Y-118029668D01*
X156153776Y-118106274D01*
X156056274Y-118203776D01*
X155979668Y-118318426D01*
X155926901Y-118445818D01*
X155900000Y-118581056D01*
X155900000Y-118718944D01*
X155926901Y-118854182D01*
X155979668Y-118981574D01*
X156056274Y-119096224D01*
X156153776Y-119193726D01*
X156268426Y-119270332D01*
X156395818Y-119323099D01*
X156531056Y-119350000D01*
X156559840Y-119350000D01*
X156606913Y-119388632D01*
X156657337Y-119415584D01*
X156698118Y-119437382D01*
X156797081Y-119467402D01*
X156899999Y-119477539D01*
X156925787Y-119474999D01*
X175167697Y-119474999D01*
X175193477Y-119477538D01*
X175219257Y-119474999D01*
X175219265Y-119474999D01*
X175296395Y-119467402D01*
X175395358Y-119437382D01*
X175486563Y-119388632D01*
X175566504Y-119323026D01*
X175582948Y-119302989D01*
X176535938Y-118350000D01*
X201248065Y-118350000D01*
X201248065Y-119850000D01*
X201255788Y-119928414D01*
X201278660Y-120003814D01*
X201315803Y-120073303D01*
X201365789Y-120134211D01*
X201426697Y-120184197D01*
X201496186Y-120221340D01*
X201571586Y-120244212D01*
X201650000Y-120251935D01*
X203850000Y-120251935D01*
X203928414Y-120244212D01*
X204003814Y-120221340D01*
X204073303Y-120184197D01*
X204134211Y-120134211D01*
X204184197Y-120073303D01*
X204221340Y-120003814D01*
X204244212Y-119928414D01*
X204251935Y-119850000D01*
X204251935Y-118985553D01*
X206588000Y-118985553D01*
X206588000Y-119214447D01*
X206632655Y-119438943D01*
X206720249Y-119650413D01*
X206847416Y-119840732D01*
X207009268Y-120002584D01*
X207199587Y-120129751D01*
X207411057Y-120217345D01*
X207635553Y-120262000D01*
X207864447Y-120262000D01*
X208088943Y-120217345D01*
X208300413Y-120129751D01*
X208490732Y-120002584D01*
X208652584Y-119840732D01*
X208779751Y-119650413D01*
X208867345Y-119438943D01*
X208912000Y-119214447D01*
X208912000Y-118985553D01*
X208867345Y-118761057D01*
X208779751Y-118549587D01*
X208652584Y-118359268D01*
X208490732Y-118197416D01*
X208300413Y-118070249D01*
X208088943Y-117982655D01*
X207864447Y-117938000D01*
X207635553Y-117938000D01*
X207411057Y-117982655D01*
X207199587Y-118070249D01*
X207009268Y-118197416D01*
X206847416Y-118359268D01*
X206720249Y-118549587D01*
X206632655Y-118761057D01*
X206588000Y-118985553D01*
X204251935Y-118985553D01*
X204251935Y-118350000D01*
X204244212Y-118271586D01*
X204221340Y-118196186D01*
X204184197Y-118126697D01*
X204134211Y-118065789D01*
X204073303Y-118015803D01*
X204003814Y-117978660D01*
X203928414Y-117955788D01*
X203850000Y-117948065D01*
X201650000Y-117948065D01*
X201571586Y-117955788D01*
X201496186Y-117978660D01*
X201426697Y-118015803D01*
X201365789Y-118065789D01*
X201315803Y-118126697D01*
X201278660Y-118196186D01*
X201255788Y-118271586D01*
X201248065Y-118350000D01*
X176535938Y-118350000D01*
X176760939Y-118125000D01*
X189674220Y-118125000D01*
X189700000Y-118127539D01*
X189725780Y-118125000D01*
X189725788Y-118125000D01*
X189802918Y-118117403D01*
X189901881Y-118087383D01*
X189993086Y-118038633D01*
X190073027Y-117973027D01*
X190089470Y-117952991D01*
X190853001Y-117189462D01*
X190873027Y-117173027D01*
X190889462Y-117153001D01*
X190889466Y-117152997D01*
X190938633Y-117093086D01*
X190987383Y-117001881D01*
X191017403Y-116902918D01*
X191018810Y-116888633D01*
X191025000Y-116825788D01*
X191025000Y-116825780D01*
X191027539Y-116800000D01*
X191025000Y-116774220D01*
X191025000Y-110717461D01*
X191839466Y-109902997D01*
X191839475Y-109902986D01*
X191942461Y-109800000D01*
X191968944Y-109800000D01*
X192104182Y-109773099D01*
X192231574Y-109720332D01*
X192346224Y-109643726D01*
X192443726Y-109546224D01*
X192520332Y-109431574D01*
X192573099Y-109304182D01*
X192600000Y-109168944D01*
X192600000Y-109031056D01*
X192573099Y-108895818D01*
X192520332Y-108768426D01*
X192443726Y-108653776D01*
X192346224Y-108556274D01*
X192231574Y-108479668D01*
X192104182Y-108426901D01*
X191968944Y-108400000D01*
X191831056Y-108400000D01*
X191695818Y-108426901D01*
X191568426Y-108479668D01*
X191453776Y-108556274D01*
X191450000Y-108560050D01*
X191446224Y-108556274D01*
X191407830Y-108530620D01*
X191438633Y-108493086D01*
X191487383Y-108401881D01*
X191517403Y-108302918D01*
X191525000Y-108225788D01*
X191525000Y-108225781D01*
X191527539Y-108200001D01*
X191525000Y-108174221D01*
X191525000Y-104855909D01*
X191527539Y-104830129D01*
X191525000Y-104804349D01*
X191525000Y-104804342D01*
X191521344Y-104767221D01*
X203101100Y-104767221D01*
X203101100Y-105239979D01*
X203193330Y-105703654D01*
X203374247Y-106140426D01*
X203636898Y-106533511D01*
X203971189Y-106867802D01*
X204364274Y-107130453D01*
X204801046Y-107311370D01*
X205264721Y-107403600D01*
X205737479Y-107403600D01*
X206201154Y-107311370D01*
X206637926Y-107130453D01*
X207031011Y-106867802D01*
X207365302Y-106533511D01*
X207627953Y-106140426D01*
X207808870Y-105703654D01*
X207901100Y-105239979D01*
X207901100Y-104767221D01*
X207808870Y-104303546D01*
X207627953Y-103866774D01*
X207365302Y-103473689D01*
X207031011Y-103139398D01*
X206637926Y-102876747D01*
X206201154Y-102695830D01*
X205737479Y-102603600D01*
X205264721Y-102603600D01*
X204801046Y-102695830D01*
X204364274Y-102876747D01*
X203971189Y-103139398D01*
X203636898Y-103473689D01*
X203374247Y-103866774D01*
X203193330Y-104303546D01*
X203101100Y-104767221D01*
X191521344Y-104767221D01*
X191517403Y-104727212D01*
X191487383Y-104628249D01*
X191438633Y-104537044D01*
X191373027Y-104457103D01*
X191352996Y-104440664D01*
X191314667Y-104402335D01*
X191331574Y-104395332D01*
X191446224Y-104318726D01*
X191543726Y-104221224D01*
X191620332Y-104106574D01*
X191673099Y-103979182D01*
X191700000Y-103843944D01*
X191700000Y-103706056D01*
X191673099Y-103570818D01*
X191641084Y-103493525D01*
X191700687Y-103533351D01*
X191912157Y-103620945D01*
X192136653Y-103665600D01*
X192365547Y-103665600D01*
X192590043Y-103620945D01*
X192801513Y-103533351D01*
X192991832Y-103406184D01*
X193153684Y-103244332D01*
X193280851Y-103054013D01*
X193368445Y-102842543D01*
X193413100Y-102618047D01*
X193413100Y-102389153D01*
X193368445Y-102164657D01*
X193280851Y-101953187D01*
X193153684Y-101762868D01*
X193015816Y-101625000D01*
X198035050Y-101625000D01*
X198053776Y-101643726D01*
X198168426Y-101720332D01*
X198295818Y-101773099D01*
X198431056Y-101800000D01*
X198568944Y-101800000D01*
X198704182Y-101773099D01*
X198831574Y-101720332D01*
X198946224Y-101643726D01*
X199043726Y-101546224D01*
X199120332Y-101431574D01*
X199173099Y-101304182D01*
X199200000Y-101168944D01*
X199200000Y-101031056D01*
X199173099Y-100895818D01*
X199120332Y-100768426D01*
X199043726Y-100653776D01*
X198946224Y-100556274D01*
X198831574Y-100479668D01*
X198704182Y-100426901D01*
X198568944Y-100400000D01*
X198431056Y-100400000D01*
X198295818Y-100426901D01*
X198168426Y-100479668D01*
X198053776Y-100556274D01*
X198035050Y-100575000D01*
X191367461Y-100575000D01*
X191339475Y-100547014D01*
X191339466Y-100547003D01*
X190539470Y-99747009D01*
X190523027Y-99726973D01*
X190443086Y-99661367D01*
X190351881Y-99612617D01*
X190252918Y-99582597D01*
X190175788Y-99575000D01*
X190175780Y-99575000D01*
X190150000Y-99572461D01*
X190124220Y-99575000D01*
X170425779Y-99575000D01*
X170399999Y-99572461D01*
X170374219Y-99575000D01*
X170374212Y-99575000D01*
X170325060Y-99579841D01*
X170320332Y-99568426D01*
X170243726Y-99453776D01*
X170146224Y-99356274D01*
X170031574Y-99279668D01*
X169904182Y-99226901D01*
X169768944Y-99200000D01*
X169742462Y-99200000D01*
X167189471Y-96647010D01*
X167173027Y-96626973D01*
X167093086Y-96561367D01*
X167001881Y-96512617D01*
X166902918Y-96482597D01*
X166825788Y-96475000D01*
X166825780Y-96475000D01*
X166800000Y-96472461D01*
X166774220Y-96475000D01*
X118475788Y-96475000D01*
X118450000Y-96472460D01*
X118424212Y-96475000D01*
X118347082Y-96482597D01*
X118248119Y-96512617D01*
X118156914Y-96561367D01*
X118126093Y-96586661D01*
X118097003Y-96610534D01*
X118096999Y-96610538D01*
X118076973Y-96626973D01*
X118060538Y-96646999D01*
X113049177Y-101658361D01*
X112991832Y-101601016D01*
X112801513Y-101473849D01*
X112590043Y-101386255D01*
X112365547Y-101341600D01*
X112136653Y-101341600D01*
X111912157Y-101386255D01*
X111700687Y-101473849D01*
X111510368Y-101601016D01*
X111348516Y-101762868D01*
X111221349Y-101953187D01*
X111133755Y-102164657D01*
X111089100Y-102389153D01*
X111089100Y-102618047D01*
X111133755Y-102842543D01*
X111221349Y-103054013D01*
X111348516Y-103244332D01*
X111510368Y-103406184D01*
X111700687Y-103533351D01*
X111912157Y-103620945D01*
X112136653Y-103665600D01*
X112365547Y-103665600D01*
X112590043Y-103620945D01*
X112801513Y-103533351D01*
X112991832Y-103406184D01*
X113153684Y-103244332D01*
X113280851Y-103054013D01*
X113368445Y-102842543D01*
X113373045Y-102819416D01*
X113589100Y-102603361D01*
X113589100Y-102618047D01*
X113633755Y-102842543D01*
X113721349Y-103054013D01*
X113848516Y-103244332D01*
X114010368Y-103406184D01*
X114030923Y-103419918D01*
X113995818Y-103426901D01*
X113868426Y-103479668D01*
X113753776Y-103556274D01*
X113656274Y-103653776D01*
X113579668Y-103768426D01*
X113526901Y-103895818D01*
X113500000Y-104031056D01*
X113500000Y-104168944D01*
X113526901Y-104304182D01*
X113579668Y-104431574D01*
X113656274Y-104546224D01*
X113753776Y-104643726D01*
X113868426Y-104720332D01*
X113995818Y-104773099D01*
X114131056Y-104800000D01*
X114268944Y-104800000D01*
X114404182Y-104773099D01*
X114531574Y-104720332D01*
X114646224Y-104643726D01*
X114664950Y-104625000D01*
X114837809Y-104625000D01*
X114863589Y-104627539D01*
X114889369Y-104625000D01*
X114889377Y-104625000D01*
X114966507Y-104617403D01*
X115065470Y-104587383D01*
X115156675Y-104538633D01*
X115236616Y-104473027D01*
X115253060Y-104452991D01*
X115297567Y-104408483D01*
X115258488Y-104502829D01*
X115231587Y-104638067D01*
X115231587Y-104775955D01*
X115258488Y-104911193D01*
X115311255Y-105038585D01*
X115387861Y-105153235D01*
X115485363Y-105250737D01*
X115600013Y-105327343D01*
X115727405Y-105380110D01*
X115862643Y-105407011D01*
X116000531Y-105407011D01*
X116135769Y-105380110D01*
X116263161Y-105327343D01*
X116377811Y-105250737D01*
X116396537Y-105232011D01*
X116867209Y-105232011D01*
X116892989Y-105234550D01*
X116918769Y-105232011D01*
X116918777Y-105232011D01*
X116926264Y-105231274D01*
X115647005Y-106510534D01*
X115626974Y-106526973D01*
X115610535Y-106547004D01*
X115561367Y-106606915D01*
X115539201Y-106648385D01*
X115491832Y-106601016D01*
X115301513Y-106473849D01*
X115090043Y-106386255D01*
X114865547Y-106341600D01*
X114636653Y-106341600D01*
X114412157Y-106386255D01*
X114200687Y-106473849D01*
X114010368Y-106601016D01*
X113848516Y-106762868D01*
X113721349Y-106953187D01*
X113633755Y-107164657D01*
X113589100Y-107389153D01*
X113589100Y-107618047D01*
X113597460Y-107660078D01*
X113335529Y-107922009D01*
X113368445Y-107842543D01*
X113413100Y-107618047D01*
X113413100Y-107389153D01*
X113368445Y-107164657D01*
X113280851Y-106953187D01*
X113153684Y-106762868D01*
X112991832Y-106601016D01*
X112801513Y-106473849D01*
X112590043Y-106386255D01*
X112365547Y-106341600D01*
X112136653Y-106341600D01*
X111912157Y-106386255D01*
X111700687Y-106473849D01*
X111510368Y-106601016D01*
X111348516Y-106762868D01*
X111221349Y-106953187D01*
X111133755Y-107164657D01*
X111089100Y-107389153D01*
X111089100Y-107618047D01*
X111133755Y-107842543D01*
X111221349Y-108054013D01*
X111348516Y-108244332D01*
X111510368Y-108406184D01*
X111579897Y-108452641D01*
X97964766Y-122067773D01*
X97768413Y-121936574D01*
X97550027Y-121846116D01*
X97318190Y-121800000D01*
X97081810Y-121800000D01*
X96849973Y-121846116D01*
X96631587Y-121936574D01*
X96435045Y-122067899D01*
X96267899Y-122235045D01*
X96136574Y-122431587D01*
X96046116Y-122649973D01*
X96000000Y-122881810D01*
X95860000Y-122881810D01*
X95813884Y-122649973D01*
X95723426Y-122431587D01*
X95592101Y-122235045D01*
X95424955Y-122067899D01*
X95228413Y-121936574D01*
X95010027Y-121846116D01*
X94778190Y-121800000D01*
X94541810Y-121800000D01*
X94309973Y-121846116D01*
X94091587Y-121936574D01*
X93895045Y-122067899D01*
X93727899Y-122235045D01*
X93596574Y-122431587D01*
X93506116Y-122649973D01*
X93460000Y-122881810D01*
X93320000Y-122881810D01*
X93273884Y-122649973D01*
X93183426Y-122431587D01*
X93052101Y-122235045D01*
X92884955Y-122067899D01*
X92688413Y-121936574D01*
X92470027Y-121846116D01*
X92238190Y-121800000D01*
X92001810Y-121800000D01*
X91769973Y-121846116D01*
X91551587Y-121936574D01*
X91355045Y-122067899D01*
X91187899Y-122235045D01*
X91056574Y-122431587D01*
X90966116Y-122649973D01*
X90920000Y-122881810D01*
X85975000Y-122881810D01*
X85975000Y-104767221D01*
X89101100Y-104767221D01*
X89101100Y-105239979D01*
X89193330Y-105703654D01*
X89374247Y-106140426D01*
X89636898Y-106533511D01*
X89971189Y-106867802D01*
X90364274Y-107130453D01*
X90801046Y-107311370D01*
X91264721Y-107403600D01*
X91737479Y-107403600D01*
X91810109Y-107389153D01*
X103589100Y-107389153D01*
X103589100Y-107618047D01*
X103633755Y-107842543D01*
X103721349Y-108054013D01*
X103848516Y-108244332D01*
X104010368Y-108406184D01*
X104200687Y-108533351D01*
X104412157Y-108620945D01*
X104636653Y-108665600D01*
X104865547Y-108665600D01*
X105090043Y-108620945D01*
X105301513Y-108533351D01*
X105491832Y-108406184D01*
X105653684Y-108244332D01*
X105780851Y-108054013D01*
X105868445Y-107842543D01*
X105913100Y-107618047D01*
X105913100Y-107389153D01*
X106089100Y-107389153D01*
X106089100Y-107618047D01*
X106133755Y-107842543D01*
X106221349Y-108054013D01*
X106348516Y-108244332D01*
X106510368Y-108406184D01*
X106700687Y-108533351D01*
X106912157Y-108620945D01*
X107136653Y-108665600D01*
X107365547Y-108665600D01*
X107590043Y-108620945D01*
X107801513Y-108533351D01*
X107991832Y-108406184D01*
X108153684Y-108244332D01*
X108280851Y-108054013D01*
X108368445Y-107842543D01*
X108413100Y-107618047D01*
X108413100Y-107389153D01*
X108589100Y-107389153D01*
X108589100Y-107618047D01*
X108633755Y-107842543D01*
X108721349Y-108054013D01*
X108848516Y-108244332D01*
X109010368Y-108406184D01*
X109200687Y-108533351D01*
X109412157Y-108620945D01*
X109636653Y-108665600D01*
X109865547Y-108665600D01*
X110090043Y-108620945D01*
X110301513Y-108533351D01*
X110491832Y-108406184D01*
X110653684Y-108244332D01*
X110780851Y-108054013D01*
X110868445Y-107842543D01*
X110913100Y-107618047D01*
X110913100Y-107389153D01*
X110868445Y-107164657D01*
X110780851Y-106953187D01*
X110653684Y-106762868D01*
X110491832Y-106601016D01*
X110301513Y-106473849D01*
X110090043Y-106386255D01*
X109865547Y-106341600D01*
X109636653Y-106341600D01*
X109412157Y-106386255D01*
X109200687Y-106473849D01*
X109010368Y-106601016D01*
X108848516Y-106762868D01*
X108721349Y-106953187D01*
X108633755Y-107164657D01*
X108589100Y-107389153D01*
X108413100Y-107389153D01*
X108368445Y-107164657D01*
X108280851Y-106953187D01*
X108153684Y-106762868D01*
X107991832Y-106601016D01*
X107801513Y-106473849D01*
X107590043Y-106386255D01*
X107365547Y-106341600D01*
X107136653Y-106341600D01*
X106912157Y-106386255D01*
X106700687Y-106473849D01*
X106510368Y-106601016D01*
X106348516Y-106762868D01*
X106221349Y-106953187D01*
X106133755Y-107164657D01*
X106089100Y-107389153D01*
X105913100Y-107389153D01*
X105868445Y-107164657D01*
X105780851Y-106953187D01*
X105653684Y-106762868D01*
X105491832Y-106601016D01*
X105301513Y-106473849D01*
X105090043Y-106386255D01*
X104865547Y-106341600D01*
X104636653Y-106341600D01*
X104412157Y-106386255D01*
X104200687Y-106473849D01*
X104010368Y-106601016D01*
X103848516Y-106762868D01*
X103721349Y-106953187D01*
X103633755Y-107164657D01*
X103589100Y-107389153D01*
X91810109Y-107389153D01*
X92201154Y-107311370D01*
X92637926Y-107130453D01*
X93031011Y-106867802D01*
X93365302Y-106533511D01*
X93627953Y-106140426D01*
X93808870Y-105703654D01*
X93901100Y-105239979D01*
X93901100Y-104767221D01*
X93808870Y-104303546D01*
X93627953Y-103866774D01*
X93365302Y-103473689D01*
X93031011Y-103139398D01*
X92637926Y-102876747D01*
X92201154Y-102695830D01*
X91737479Y-102603600D01*
X91264721Y-102603600D01*
X90801046Y-102695830D01*
X90364274Y-102876747D01*
X89971189Y-103139398D01*
X89636898Y-103473689D01*
X89374247Y-103866774D01*
X89193330Y-104303546D01*
X89101100Y-104767221D01*
X85975000Y-104767221D01*
X85975000Y-102389153D01*
X106089100Y-102389153D01*
X106089100Y-102618047D01*
X106133755Y-102842543D01*
X106221349Y-103054013D01*
X106348516Y-103244332D01*
X106510368Y-103406184D01*
X106700687Y-103533351D01*
X106912157Y-103620945D01*
X107136653Y-103665600D01*
X107365547Y-103665600D01*
X107590043Y-103620945D01*
X107801513Y-103533351D01*
X107991832Y-103406184D01*
X108153684Y-103244332D01*
X108280851Y-103054013D01*
X108368445Y-102842543D01*
X108413100Y-102618047D01*
X108413100Y-102389153D01*
X108589100Y-102389153D01*
X108589100Y-102618047D01*
X108633755Y-102842543D01*
X108721349Y-103054013D01*
X108848516Y-103244332D01*
X109010368Y-103406184D01*
X109200687Y-103533351D01*
X109412157Y-103620945D01*
X109636653Y-103665600D01*
X109865547Y-103665600D01*
X110090043Y-103620945D01*
X110301513Y-103533351D01*
X110491832Y-103406184D01*
X110653684Y-103244332D01*
X110780851Y-103054013D01*
X110868445Y-102842543D01*
X110913100Y-102618047D01*
X110913100Y-102389153D01*
X110868445Y-102164657D01*
X110780851Y-101953187D01*
X110653684Y-101762868D01*
X110491832Y-101601016D01*
X110301513Y-101473849D01*
X110090043Y-101386255D01*
X109865547Y-101341600D01*
X109636653Y-101341600D01*
X109412157Y-101386255D01*
X109200687Y-101473849D01*
X109010368Y-101601016D01*
X108848516Y-101762868D01*
X108721349Y-101953187D01*
X108633755Y-102164657D01*
X108589100Y-102389153D01*
X108413100Y-102389153D01*
X108368445Y-102164657D01*
X108280851Y-101953187D01*
X108153684Y-101762868D01*
X107991832Y-101601016D01*
X107801513Y-101473849D01*
X107590043Y-101386255D01*
X107365547Y-101341600D01*
X107136653Y-101341600D01*
X106912157Y-101386255D01*
X106700687Y-101473849D01*
X106510368Y-101601016D01*
X106348516Y-101762868D01*
X106221349Y-101953187D01*
X106133755Y-102164657D01*
X106089100Y-102389153D01*
X85975000Y-102389153D01*
X85975000Y-95763621D01*
X89100000Y-95763621D01*
X89100000Y-96236379D01*
X89192230Y-96700054D01*
X89373147Y-97136826D01*
X89635798Y-97529911D01*
X89970089Y-97864202D01*
X90363174Y-98126853D01*
X90799946Y-98307770D01*
X91263621Y-98400000D01*
X91736379Y-98400000D01*
X92200054Y-98307770D01*
X92636826Y-98126853D01*
X93029911Y-97864202D01*
X93364202Y-97529911D01*
X93626853Y-97136826D01*
X93807770Y-96700054D01*
X93900000Y-96236379D01*
X93900000Y-95763621D01*
X203100000Y-95763621D01*
X203100000Y-96236379D01*
X203192230Y-96700054D01*
X203373147Y-97136826D01*
X203635798Y-97529911D01*
X203970089Y-97864202D01*
X204363174Y-98126853D01*
X204799946Y-98307770D01*
X205263621Y-98400000D01*
X205736379Y-98400000D01*
X206200054Y-98307770D01*
X206636826Y-98126853D01*
X207029911Y-97864202D01*
X207364202Y-97529911D01*
X207626853Y-97136826D01*
X207807770Y-96700054D01*
X207900000Y-96236379D01*
X207900000Y-95763621D01*
X207807770Y-95299946D01*
X207626853Y-94863174D01*
X207364202Y-94470089D01*
X207029911Y-94135798D01*
X206636826Y-93873147D01*
X206200054Y-93692230D01*
X205736379Y-93600000D01*
X205263621Y-93600000D01*
X204799946Y-93692230D01*
X204363174Y-93873147D01*
X203970089Y-94135798D01*
X203635798Y-94470089D01*
X203373147Y-94863174D01*
X203192230Y-95299946D01*
X203100000Y-95763621D01*
X93900000Y-95763621D01*
X93807770Y-95299946D01*
X93626853Y-94863174D01*
X93364202Y-94470089D01*
X93029911Y-94135798D01*
X92636826Y-93873147D01*
X92200054Y-93692230D01*
X91736379Y-93600000D01*
X91263621Y-93600000D01*
X90799946Y-93692230D01*
X90363174Y-93873147D01*
X89970089Y-94135798D01*
X89635798Y-94470089D01*
X89373147Y-94863174D01*
X89192230Y-95299946D01*
X89100000Y-95763621D01*
X85975000Y-95763621D01*
X85975000Y-91975000D01*
X211025001Y-91975000D01*
X211025001Y-118231685D01*
M02*
