G04 #@! TF.GenerationSoftware,KiCad,Pcbnew,5.1.5+dfsg1-2build2*
G04 #@! TF.CreationDate,2023-04-13T23:09:06-05:00*
G04 #@! TF.ProjectId,NES_backup,4e45535f-6261-4636-9b75-702e6b696361,rev?*
G04 #@! TF.SameCoordinates,Original*
G04 #@! TF.FileFunction,Soldermask,Top*
G04 #@! TF.FilePolarity,Negative*
%FSLAX46Y46*%
G04 Gerber Fmt 4.6, Leading zero omitted, Abs format (unit mm)*
G04 Created by KiCad (PCBNEW 5.1.5+dfsg1-2build2) date 2023-04-13 23:09:06*
%MOMM*%
%LPD*%
G04 APERTURE LIST*
%ADD10C,0.150000*%
%ADD11C,1.924000*%
%ADD12R,2.000000X2.000000*%
%ADD13O,2.000000X2.000000*%
%ADD14R,0.850000X1.900000*%
%ADD15C,0.100000*%
%ADD16C,3.400000*%
%ADD17C,2.000000*%
%ADD18C,4.400000*%
%ADD19R,1.900000X2.600000*%
%ADD20R,2.600000X1.900000*%
%ADD21R,1.200000X1.300000*%
G04 APERTURE END LIST*
D10*
X211500000Y-150700000D02*
X211500000Y-91500000D01*
X85500000Y-150700000D02*
X85500000Y-91500000D01*
X85500000Y-91500000D02*
X211500000Y-91500000D01*
X85500000Y-150700000D02*
X211500000Y-150700000D01*
D11*
X96700000Y-127100000D03*
X99200000Y-127100000D03*
X101700000Y-127100000D03*
D12*
X135300000Y-123000000D03*
D13*
X87040000Y-138240000D03*
X132760000Y-123000000D03*
X89580000Y-138240000D03*
X130220000Y-123000000D03*
X92120000Y-138240000D03*
X127680000Y-123000000D03*
X94660000Y-138240000D03*
X125140000Y-123000000D03*
X97200000Y-138240000D03*
X122600000Y-123000000D03*
X99740000Y-138240000D03*
X120060000Y-123000000D03*
X102280000Y-138240000D03*
X117520000Y-123000000D03*
X104820000Y-138240000D03*
X114980000Y-123000000D03*
X107360000Y-138240000D03*
X112440000Y-123000000D03*
X109900000Y-138240000D03*
X109900000Y-123000000D03*
X112440000Y-138240000D03*
X107360000Y-123000000D03*
X114980000Y-138240000D03*
X104820000Y-123000000D03*
X117520000Y-138240000D03*
X102280000Y-123000000D03*
X120060000Y-138240000D03*
X99740000Y-123000000D03*
X122600000Y-138240000D03*
X97200000Y-123000000D03*
X125140000Y-138240000D03*
X94660000Y-123000000D03*
X127680000Y-138240000D03*
X92120000Y-123000000D03*
X130220000Y-138240000D03*
X89580000Y-123000000D03*
X132760000Y-138240000D03*
X87040000Y-123000000D03*
X135300000Y-138240000D03*
D11*
X131490000Y-134430000D03*
X131490000Y-131890000D03*
X131490000Y-129350000D03*
X131490000Y-126810000D03*
X101700000Y-129600000D03*
X99200000Y-129600000D03*
X96700000Y-129600000D03*
D14*
X153325000Y-137050000D03*
X153975000Y-137050000D03*
X154625000Y-137050000D03*
X155275000Y-137050000D03*
X155925000Y-137050000D03*
X156575000Y-137050000D03*
X157225000Y-137050000D03*
X157875000Y-137050000D03*
X157875000Y-131150000D03*
X157225000Y-131150000D03*
X156575000Y-131150000D03*
X155925000Y-131150000D03*
X155275000Y-131150000D03*
X154625000Y-131150000D03*
X153975000Y-131150000D03*
X153325000Y-131150000D03*
D15*
G36*
X185960982Y-129846157D02*
G01*
X185923463Y-129834776D01*
X185888886Y-129816294D01*
X185858579Y-129791421D01*
X185833706Y-129761114D01*
X185815224Y-129726537D01*
X185803843Y-129689018D01*
X185800000Y-129650000D01*
X185800000Y-128150000D01*
X185803843Y-128110982D01*
X185815224Y-128073463D01*
X185833706Y-128038886D01*
X185858579Y-128008579D01*
X185888886Y-127983706D01*
X185923463Y-127965224D01*
X185960982Y-127953843D01*
X186000000Y-127950000D01*
X187150000Y-127950000D01*
X187189018Y-127953843D01*
X187226537Y-127965224D01*
X187261114Y-127983706D01*
X187291421Y-128008579D01*
X187316294Y-128038886D01*
X187334776Y-128073463D01*
X187346157Y-128110982D01*
X187350000Y-128150000D01*
X187346157Y-128189018D01*
X187334776Y-128226537D01*
X187316410Y-128260940D01*
X186890370Y-128900000D01*
X187316410Y-129539060D01*
X187334856Y-129573657D01*
X187346198Y-129611187D01*
X187350000Y-129650209D01*
X187346116Y-129689223D01*
X187334696Y-129726730D01*
X187316178Y-129761288D01*
X187291273Y-129791569D01*
X187260940Y-129816410D01*
X187226343Y-129834856D01*
X187188813Y-129846198D01*
X187150000Y-129850000D01*
X186000000Y-129850000D01*
X185960982Y-129846157D01*
G37*
G36*
X187410982Y-129846157D02*
G01*
X187373463Y-129834776D01*
X187338886Y-129816294D01*
X187308579Y-129791421D01*
X187283590Y-129760940D01*
X186783590Y-129010940D01*
X186765144Y-128976343D01*
X186753802Y-128938813D01*
X186750000Y-128899791D01*
X186753884Y-128860777D01*
X186765304Y-128823270D01*
X186783590Y-128789060D01*
X187283590Y-128039060D01*
X187308431Y-128008727D01*
X187338712Y-127983822D01*
X187373270Y-127965304D01*
X187410777Y-127953884D01*
X187450000Y-127950000D01*
X188450000Y-127950000D01*
X188489018Y-127953843D01*
X188526537Y-127965224D01*
X188561114Y-127983706D01*
X188591421Y-128008579D01*
X188616294Y-128038886D01*
X188634776Y-128073463D01*
X188646157Y-128110982D01*
X188650000Y-128150000D01*
X188650000Y-129650000D01*
X188646157Y-129689018D01*
X188634776Y-129726537D01*
X188616294Y-129761114D01*
X188591421Y-129791421D01*
X188561114Y-129816294D01*
X188526537Y-129834776D01*
X188489018Y-129846157D01*
X188450000Y-129850000D01*
X187450000Y-129850000D01*
X187410982Y-129846157D01*
G37*
D14*
X185325000Y-131150000D03*
X185975000Y-131150000D03*
X186625000Y-131150000D03*
X187275000Y-131150000D03*
X187925000Y-131150000D03*
X188575000Y-131150000D03*
X189225000Y-131150000D03*
X189875000Y-131150000D03*
X189875000Y-137050000D03*
X189225000Y-137050000D03*
X188575000Y-137050000D03*
X187925000Y-137050000D03*
X187275000Y-137050000D03*
X186625000Y-137050000D03*
X185975000Y-137050000D03*
X185325000Y-137050000D03*
D15*
G36*
X186139018Y-138353843D02*
G01*
X186176537Y-138365224D01*
X186211114Y-138383706D01*
X186241421Y-138408579D01*
X186266410Y-138439060D01*
X186766410Y-139189060D01*
X186784856Y-139223657D01*
X186796198Y-139261187D01*
X186800000Y-139300209D01*
X186796116Y-139339223D01*
X186784696Y-139376730D01*
X186766410Y-139410940D01*
X186266410Y-140160940D01*
X186241569Y-140191273D01*
X186211288Y-140216178D01*
X186176730Y-140234696D01*
X186139223Y-140246116D01*
X186100000Y-140250000D01*
X185100000Y-140250000D01*
X185060982Y-140246157D01*
X185023463Y-140234776D01*
X184988886Y-140216294D01*
X184958579Y-140191421D01*
X184933706Y-140161114D01*
X184915224Y-140126537D01*
X184903843Y-140089018D01*
X184900000Y-140050000D01*
X184900000Y-138550000D01*
X184903843Y-138510982D01*
X184915224Y-138473463D01*
X184933706Y-138438886D01*
X184958579Y-138408579D01*
X184988886Y-138383706D01*
X185023463Y-138365224D01*
X185060982Y-138353843D01*
X185100000Y-138350000D01*
X186100000Y-138350000D01*
X186139018Y-138353843D01*
G37*
G36*
X187589018Y-138353843D02*
G01*
X187626537Y-138365224D01*
X187661114Y-138383706D01*
X187691421Y-138408579D01*
X187716294Y-138438886D01*
X187734776Y-138473463D01*
X187746157Y-138510982D01*
X187750000Y-138550000D01*
X187750000Y-140050000D01*
X187746157Y-140089018D01*
X187734776Y-140126537D01*
X187716294Y-140161114D01*
X187691421Y-140191421D01*
X187661114Y-140216294D01*
X187626537Y-140234776D01*
X187589018Y-140246157D01*
X187550000Y-140250000D01*
X186400000Y-140250000D01*
X186360982Y-140246157D01*
X186323463Y-140234776D01*
X186288886Y-140216294D01*
X186258579Y-140191421D01*
X186233706Y-140161114D01*
X186215224Y-140126537D01*
X186203843Y-140089018D01*
X186200000Y-140050000D01*
X186203843Y-140010982D01*
X186215224Y-139973463D01*
X186233590Y-139939060D01*
X186659630Y-139300000D01*
X186233590Y-138660940D01*
X186215144Y-138626343D01*
X186203802Y-138588813D01*
X186200000Y-138549791D01*
X186203884Y-138510777D01*
X186215304Y-138473270D01*
X186233822Y-138438712D01*
X186258727Y-138408431D01*
X186289060Y-138383590D01*
X186323657Y-138365144D01*
X186361187Y-138353802D01*
X186400000Y-138350000D01*
X187550000Y-138350000D01*
X187589018Y-138353843D01*
G37*
D16*
X145600000Y-132600000D03*
X145600000Y-128600000D03*
X149600000Y-132600000D03*
X149600000Y-128600000D03*
X145600000Y-136600000D03*
X149600000Y-136600000D03*
X145600000Y-124600000D03*
D15*
G36*
X153985982Y-129846157D02*
G01*
X153948463Y-129834776D01*
X153913886Y-129816294D01*
X153883579Y-129791421D01*
X153858706Y-129761114D01*
X153840224Y-129726537D01*
X153828843Y-129689018D01*
X153825000Y-129650000D01*
X153825000Y-128150000D01*
X153828843Y-128110982D01*
X153840224Y-128073463D01*
X153858706Y-128038886D01*
X153883579Y-128008579D01*
X153913886Y-127983706D01*
X153948463Y-127965224D01*
X153985982Y-127953843D01*
X154025000Y-127950000D01*
X155175000Y-127950000D01*
X155214018Y-127953843D01*
X155251537Y-127965224D01*
X155286114Y-127983706D01*
X155316421Y-128008579D01*
X155341294Y-128038886D01*
X155359776Y-128073463D01*
X155371157Y-128110982D01*
X155375000Y-128150000D01*
X155371157Y-128189018D01*
X155359776Y-128226537D01*
X155341410Y-128260940D01*
X154915370Y-128900000D01*
X155341410Y-129539060D01*
X155359856Y-129573657D01*
X155371198Y-129611187D01*
X155375000Y-129650209D01*
X155371116Y-129689223D01*
X155359696Y-129726730D01*
X155341178Y-129761288D01*
X155316273Y-129791569D01*
X155285940Y-129816410D01*
X155251343Y-129834856D01*
X155213813Y-129846198D01*
X155175000Y-129850000D01*
X154025000Y-129850000D01*
X153985982Y-129846157D01*
G37*
G36*
X155435982Y-129846157D02*
G01*
X155398463Y-129834776D01*
X155363886Y-129816294D01*
X155333579Y-129791421D01*
X155308590Y-129760940D01*
X154808590Y-129010940D01*
X154790144Y-128976343D01*
X154778802Y-128938813D01*
X154775000Y-128899791D01*
X154778884Y-128860777D01*
X154790304Y-128823270D01*
X154808590Y-128789060D01*
X155308590Y-128039060D01*
X155333431Y-128008727D01*
X155363712Y-127983822D01*
X155398270Y-127965304D01*
X155435777Y-127953884D01*
X155475000Y-127950000D01*
X156475000Y-127950000D01*
X156514018Y-127953843D01*
X156551537Y-127965224D01*
X156586114Y-127983706D01*
X156616421Y-128008579D01*
X156641294Y-128038886D01*
X156659776Y-128073463D01*
X156671157Y-128110982D01*
X156675000Y-128150000D01*
X156675000Y-129650000D01*
X156671157Y-129689018D01*
X156659776Y-129726537D01*
X156641294Y-129761114D01*
X156616421Y-129791421D01*
X156586114Y-129816294D01*
X156551537Y-129834776D01*
X156514018Y-129846157D01*
X156475000Y-129850000D01*
X155475000Y-129850000D01*
X155435982Y-129846157D01*
G37*
G36*
X154139018Y-138353843D02*
G01*
X154176537Y-138365224D01*
X154211114Y-138383706D01*
X154241421Y-138408579D01*
X154266410Y-138439060D01*
X154766410Y-139189060D01*
X154784856Y-139223657D01*
X154796198Y-139261187D01*
X154800000Y-139300209D01*
X154796116Y-139339223D01*
X154784696Y-139376730D01*
X154766410Y-139410940D01*
X154266410Y-140160940D01*
X154241569Y-140191273D01*
X154211288Y-140216178D01*
X154176730Y-140234696D01*
X154139223Y-140246116D01*
X154100000Y-140250000D01*
X153100000Y-140250000D01*
X153060982Y-140246157D01*
X153023463Y-140234776D01*
X152988886Y-140216294D01*
X152958579Y-140191421D01*
X152933706Y-140161114D01*
X152915224Y-140126537D01*
X152903843Y-140089018D01*
X152900000Y-140050000D01*
X152900000Y-138550000D01*
X152903843Y-138510982D01*
X152915224Y-138473463D01*
X152933706Y-138438886D01*
X152958579Y-138408579D01*
X152988886Y-138383706D01*
X153023463Y-138365224D01*
X153060982Y-138353843D01*
X153100000Y-138350000D01*
X154100000Y-138350000D01*
X154139018Y-138353843D01*
G37*
G36*
X155589018Y-138353843D02*
G01*
X155626537Y-138365224D01*
X155661114Y-138383706D01*
X155691421Y-138408579D01*
X155716294Y-138438886D01*
X155734776Y-138473463D01*
X155746157Y-138510982D01*
X155750000Y-138550000D01*
X155750000Y-140050000D01*
X155746157Y-140089018D01*
X155734776Y-140126537D01*
X155716294Y-140161114D01*
X155691421Y-140191421D01*
X155661114Y-140216294D01*
X155626537Y-140234776D01*
X155589018Y-140246157D01*
X155550000Y-140250000D01*
X154400000Y-140250000D01*
X154360982Y-140246157D01*
X154323463Y-140234776D01*
X154288886Y-140216294D01*
X154258579Y-140191421D01*
X154233706Y-140161114D01*
X154215224Y-140126537D01*
X154203843Y-140089018D01*
X154200000Y-140050000D01*
X154203843Y-140010982D01*
X154215224Y-139973463D01*
X154233590Y-139939060D01*
X154659630Y-139300000D01*
X154233590Y-138660940D01*
X154215144Y-138626343D01*
X154203802Y-138588813D01*
X154200000Y-138549791D01*
X154203884Y-138510777D01*
X154215304Y-138473270D01*
X154233822Y-138438712D01*
X154258727Y-138408431D01*
X154289060Y-138383590D01*
X154323657Y-138365144D01*
X154361187Y-138353802D01*
X154400000Y-138350000D01*
X155550000Y-138350000D01*
X155589018Y-138353843D01*
G37*
D16*
X161600000Y-124600000D03*
X165600000Y-136600000D03*
X161600000Y-136600000D03*
X165600000Y-128600000D03*
X165600000Y-132600000D03*
X161600000Y-128600000D03*
X161600000Y-132600000D03*
D15*
G36*
X138486207Y-135476542D02*
G01*
X138517287Y-135481152D01*
X138547766Y-135488787D01*
X138577350Y-135499372D01*
X138605754Y-135512806D01*
X138632704Y-135528959D01*
X138657942Y-135547677D01*
X138681223Y-135568777D01*
X138702323Y-135592058D01*
X138721041Y-135617296D01*
X138737194Y-135644246D01*
X138750628Y-135672650D01*
X138761213Y-135702234D01*
X138768848Y-135732713D01*
X138773458Y-135763793D01*
X138775000Y-135795176D01*
X138775000Y-136979824D01*
X138773458Y-137011207D01*
X138768848Y-137042287D01*
X138761213Y-137072766D01*
X138750628Y-137102350D01*
X138737194Y-137130754D01*
X138721041Y-137157704D01*
X138702323Y-137182942D01*
X138681223Y-137206223D01*
X138657942Y-137227323D01*
X138632704Y-137246041D01*
X138605754Y-137262194D01*
X138577350Y-137275628D01*
X138547766Y-137286213D01*
X138517287Y-137293848D01*
X138486207Y-137298458D01*
X138454824Y-137300000D01*
X136945176Y-137300000D01*
X136913793Y-137298458D01*
X136882713Y-137293848D01*
X136852234Y-137286213D01*
X136822650Y-137275628D01*
X136794246Y-137262194D01*
X136767296Y-137246041D01*
X136742058Y-137227323D01*
X136718777Y-137206223D01*
X136697677Y-137182942D01*
X136678959Y-137157704D01*
X136662806Y-137130754D01*
X136649372Y-137102350D01*
X136638787Y-137072766D01*
X136631152Y-137042287D01*
X136626542Y-137011207D01*
X136625000Y-136979824D01*
X136625000Y-135795176D01*
X136626542Y-135763793D01*
X136631152Y-135732713D01*
X136638787Y-135702234D01*
X136649372Y-135672650D01*
X136662806Y-135644246D01*
X136678959Y-135617296D01*
X136697677Y-135592058D01*
X136718777Y-135568777D01*
X136742058Y-135547677D01*
X136767296Y-135528959D01*
X136794246Y-135512806D01*
X136822650Y-135499372D01*
X136852234Y-135488787D01*
X136882713Y-135481152D01*
X136913793Y-135476542D01*
X136945176Y-135475000D01*
X138454824Y-135475000D01*
X138486207Y-135476542D01*
G37*
G36*
X138486207Y-132501542D02*
G01*
X138517287Y-132506152D01*
X138547766Y-132513787D01*
X138577350Y-132524372D01*
X138605754Y-132537806D01*
X138632704Y-132553959D01*
X138657942Y-132572677D01*
X138681223Y-132593777D01*
X138702323Y-132617058D01*
X138721041Y-132642296D01*
X138737194Y-132669246D01*
X138750628Y-132697650D01*
X138761213Y-132727234D01*
X138768848Y-132757713D01*
X138773458Y-132788793D01*
X138775000Y-132820176D01*
X138775000Y-134004824D01*
X138773458Y-134036207D01*
X138768848Y-134067287D01*
X138761213Y-134097766D01*
X138750628Y-134127350D01*
X138737194Y-134155754D01*
X138721041Y-134182704D01*
X138702323Y-134207942D01*
X138681223Y-134231223D01*
X138657942Y-134252323D01*
X138632704Y-134271041D01*
X138605754Y-134287194D01*
X138577350Y-134300628D01*
X138547766Y-134311213D01*
X138517287Y-134318848D01*
X138486207Y-134323458D01*
X138454824Y-134325000D01*
X136945176Y-134325000D01*
X136913793Y-134323458D01*
X136882713Y-134318848D01*
X136852234Y-134311213D01*
X136822650Y-134300628D01*
X136794246Y-134287194D01*
X136767296Y-134271041D01*
X136742058Y-134252323D01*
X136718777Y-134231223D01*
X136697677Y-134207942D01*
X136678959Y-134182704D01*
X136662806Y-134155754D01*
X136649372Y-134127350D01*
X136638787Y-134097766D01*
X136631152Y-134067287D01*
X136626542Y-134036207D01*
X136625000Y-134004824D01*
X136625000Y-132820176D01*
X136626542Y-132788793D01*
X136631152Y-132757713D01*
X136638787Y-132727234D01*
X136649372Y-132697650D01*
X136662806Y-132669246D01*
X136678959Y-132642296D01*
X136697677Y-132617058D01*
X136718777Y-132593777D01*
X136742058Y-132572677D01*
X136767296Y-132553959D01*
X136794246Y-132537806D01*
X136822650Y-132524372D01*
X136852234Y-132513787D01*
X136882713Y-132506152D01*
X136913793Y-132501542D01*
X136945176Y-132500000D01*
X138454824Y-132500000D01*
X138486207Y-132501542D01*
G37*
D12*
X137900000Y-126400000D03*
D17*
X137900000Y-129900000D03*
D18*
X91501100Y-105003600D03*
D11*
X192251100Y-107503600D03*
X189751100Y-107503600D03*
X187251100Y-107503600D03*
X184751100Y-107503600D03*
X182251100Y-107503600D03*
X179751100Y-107503600D03*
X177251100Y-107503600D03*
X174751100Y-107503600D03*
X172251100Y-107503600D03*
X169751100Y-107503600D03*
X167251100Y-107503600D03*
X164751100Y-107503600D03*
X162251100Y-107503600D03*
X159751100Y-107503600D03*
X157251100Y-107503600D03*
X154751100Y-107503600D03*
X152251100Y-107503600D03*
X149751100Y-107503600D03*
X147251100Y-107503600D03*
X144751100Y-107503600D03*
X142251100Y-107503600D03*
X139751100Y-107503600D03*
X137251100Y-107503600D03*
X134751100Y-107503600D03*
X132251100Y-107503600D03*
X129751100Y-107503600D03*
X127251100Y-107503600D03*
X124751100Y-107503600D03*
X122251100Y-107503600D03*
X119751100Y-107503600D03*
X117251100Y-107503600D03*
X114751100Y-107503600D03*
X112251100Y-107503600D03*
X109751100Y-107503600D03*
X107251100Y-107503600D03*
X104751100Y-107503600D03*
X192251100Y-102503600D03*
X189751100Y-102503600D03*
X187251100Y-102503600D03*
X184751100Y-102503600D03*
X182251100Y-102503600D03*
X179751100Y-102503600D03*
X177251100Y-102503600D03*
X174751100Y-102503600D03*
X172251100Y-102503600D03*
X169751100Y-102503600D03*
X167251100Y-102503600D03*
X164751100Y-102503600D03*
X162251100Y-102503600D03*
X159751100Y-102503600D03*
X157251100Y-102503600D03*
X154751100Y-102503600D03*
X152251100Y-102503600D03*
X149751100Y-102503600D03*
X147251100Y-102503600D03*
X144751100Y-102503600D03*
X142251100Y-102503600D03*
X139751100Y-102503600D03*
X137251100Y-102503600D03*
X134751100Y-102503600D03*
X132251100Y-102503600D03*
X129751100Y-102503600D03*
X127251100Y-102503600D03*
X124751100Y-102503600D03*
X122251100Y-102503600D03*
X119751100Y-102503600D03*
X117251100Y-102503600D03*
X114751100Y-102503600D03*
X112251100Y-102503600D03*
X109751100Y-102503600D03*
X107251100Y-102503600D03*
X104751100Y-102503600D03*
D18*
X205501100Y-105003600D03*
X205500000Y-96000000D03*
X91500000Y-96000000D03*
X205500000Y-146200000D03*
D11*
X202750000Y-124100000D03*
X207750000Y-119100000D03*
X207750000Y-129100000D03*
X210250000Y-119100000D03*
X210250000Y-129100000D03*
D19*
X207750000Y-124100000D03*
D20*
X202750000Y-121600000D03*
X202750000Y-126600000D03*
X202750000Y-129100000D03*
X202750000Y-119100000D03*
D21*
X137650000Y-122700000D03*
X139550000Y-122700000D03*
X138600000Y-120700000D03*
D18*
X91500000Y-146200000D03*
D16*
X177600000Y-132600000D03*
X177600000Y-128600000D03*
X181600000Y-132600000D03*
X181600000Y-128600000D03*
X177600000Y-136600000D03*
X181600000Y-136600000D03*
X177600000Y-124600000D03*
X193600000Y-124600000D03*
X197600000Y-136600000D03*
X193600000Y-136600000D03*
X197600000Y-128600000D03*
X197600000Y-132600000D03*
X193600000Y-128600000D03*
X193600000Y-132600000D03*
D15*
G36*
X143273707Y-125326542D02*
G01*
X143304787Y-125331152D01*
X143335266Y-125338787D01*
X143364850Y-125349372D01*
X143393254Y-125362806D01*
X143420204Y-125378959D01*
X143445442Y-125397677D01*
X143468723Y-125418777D01*
X143489823Y-125442058D01*
X143508541Y-125467296D01*
X143524694Y-125494246D01*
X143538128Y-125522650D01*
X143548713Y-125552234D01*
X143556348Y-125582713D01*
X143560958Y-125613793D01*
X143562500Y-125645176D01*
X143562500Y-127154824D01*
X143560958Y-127186207D01*
X143556348Y-127217287D01*
X143548713Y-127247766D01*
X143538128Y-127277350D01*
X143524694Y-127305754D01*
X143508541Y-127332704D01*
X143489823Y-127357942D01*
X143468723Y-127381223D01*
X143445442Y-127402323D01*
X143420204Y-127421041D01*
X143393254Y-127437194D01*
X143364850Y-127450628D01*
X143335266Y-127461213D01*
X143304787Y-127468848D01*
X143273707Y-127473458D01*
X143242324Y-127475000D01*
X142057676Y-127475000D01*
X142026293Y-127473458D01*
X141995213Y-127468848D01*
X141964734Y-127461213D01*
X141935150Y-127450628D01*
X141906746Y-127437194D01*
X141879796Y-127421041D01*
X141854558Y-127402323D01*
X141831277Y-127381223D01*
X141810177Y-127357942D01*
X141791459Y-127332704D01*
X141775306Y-127305754D01*
X141761872Y-127277350D01*
X141751287Y-127247766D01*
X141743652Y-127217287D01*
X141739042Y-127186207D01*
X141737500Y-127154824D01*
X141737500Y-125645176D01*
X141739042Y-125613793D01*
X141743652Y-125582713D01*
X141751287Y-125552234D01*
X141761872Y-125522650D01*
X141775306Y-125494246D01*
X141791459Y-125467296D01*
X141810177Y-125442058D01*
X141831277Y-125418777D01*
X141854558Y-125397677D01*
X141879796Y-125378959D01*
X141906746Y-125362806D01*
X141935150Y-125349372D01*
X141964734Y-125338787D01*
X141995213Y-125331152D01*
X142026293Y-125326542D01*
X142057676Y-125325000D01*
X143242324Y-125325000D01*
X143273707Y-125326542D01*
G37*
G36*
X140298707Y-125326542D02*
G01*
X140329787Y-125331152D01*
X140360266Y-125338787D01*
X140389850Y-125349372D01*
X140418254Y-125362806D01*
X140445204Y-125378959D01*
X140470442Y-125397677D01*
X140493723Y-125418777D01*
X140514823Y-125442058D01*
X140533541Y-125467296D01*
X140549694Y-125494246D01*
X140563128Y-125522650D01*
X140573713Y-125552234D01*
X140581348Y-125582713D01*
X140585958Y-125613793D01*
X140587500Y-125645176D01*
X140587500Y-127154824D01*
X140585958Y-127186207D01*
X140581348Y-127217287D01*
X140573713Y-127247766D01*
X140563128Y-127277350D01*
X140549694Y-127305754D01*
X140533541Y-127332704D01*
X140514823Y-127357942D01*
X140493723Y-127381223D01*
X140470442Y-127402323D01*
X140445204Y-127421041D01*
X140418254Y-127437194D01*
X140389850Y-127450628D01*
X140360266Y-127461213D01*
X140329787Y-127468848D01*
X140298707Y-127473458D01*
X140267324Y-127475000D01*
X139082676Y-127475000D01*
X139051293Y-127473458D01*
X139020213Y-127468848D01*
X138989734Y-127461213D01*
X138960150Y-127450628D01*
X138931746Y-127437194D01*
X138904796Y-127421041D01*
X138879558Y-127402323D01*
X138856277Y-127381223D01*
X138835177Y-127357942D01*
X138816459Y-127332704D01*
X138800306Y-127305754D01*
X138786872Y-127277350D01*
X138776287Y-127247766D01*
X138768652Y-127217287D01*
X138764042Y-127186207D01*
X138762500Y-127154824D01*
X138762500Y-125645176D01*
X138764042Y-125613793D01*
X138768652Y-125582713D01*
X138776287Y-125552234D01*
X138786872Y-125522650D01*
X138800306Y-125494246D01*
X138816459Y-125467296D01*
X138835177Y-125442058D01*
X138856277Y-125418777D01*
X138879558Y-125397677D01*
X138904796Y-125378959D01*
X138931746Y-125362806D01*
X138960150Y-125349372D01*
X138989734Y-125338787D01*
X139020213Y-125331152D01*
X139051293Y-125326542D01*
X139082676Y-125325000D01*
X140267324Y-125325000D01*
X140298707Y-125326542D01*
G37*
G36*
X140286207Y-138126542D02*
G01*
X140317287Y-138131152D01*
X140347766Y-138138787D01*
X140377350Y-138149372D01*
X140405754Y-138162806D01*
X140432704Y-138178959D01*
X140457942Y-138197677D01*
X140481223Y-138218777D01*
X140502323Y-138242058D01*
X140521041Y-138267296D01*
X140537194Y-138294246D01*
X140550628Y-138322650D01*
X140561213Y-138352234D01*
X140568848Y-138382713D01*
X140573458Y-138413793D01*
X140575000Y-138445176D01*
X140575000Y-139954824D01*
X140573458Y-139986207D01*
X140568848Y-140017287D01*
X140561213Y-140047766D01*
X140550628Y-140077350D01*
X140537194Y-140105754D01*
X140521041Y-140132704D01*
X140502323Y-140157942D01*
X140481223Y-140181223D01*
X140457942Y-140202323D01*
X140432704Y-140221041D01*
X140405754Y-140237194D01*
X140377350Y-140250628D01*
X140347766Y-140261213D01*
X140317287Y-140268848D01*
X140286207Y-140273458D01*
X140254824Y-140275000D01*
X139070176Y-140275000D01*
X139038793Y-140273458D01*
X139007713Y-140268848D01*
X138977234Y-140261213D01*
X138947650Y-140250628D01*
X138919246Y-140237194D01*
X138892296Y-140221041D01*
X138867058Y-140202323D01*
X138843777Y-140181223D01*
X138822677Y-140157942D01*
X138803959Y-140132704D01*
X138787806Y-140105754D01*
X138774372Y-140077350D01*
X138763787Y-140047766D01*
X138756152Y-140017287D01*
X138751542Y-139986207D01*
X138750000Y-139954824D01*
X138750000Y-138445176D01*
X138751542Y-138413793D01*
X138756152Y-138382713D01*
X138763787Y-138352234D01*
X138774372Y-138322650D01*
X138787806Y-138294246D01*
X138803959Y-138267296D01*
X138822677Y-138242058D01*
X138843777Y-138218777D01*
X138867058Y-138197677D01*
X138892296Y-138178959D01*
X138919246Y-138162806D01*
X138947650Y-138149372D01*
X138977234Y-138138787D01*
X139007713Y-138131152D01*
X139038793Y-138126542D01*
X139070176Y-138125000D01*
X140254824Y-138125000D01*
X140286207Y-138126542D01*
G37*
G36*
X143261207Y-138126542D02*
G01*
X143292287Y-138131152D01*
X143322766Y-138138787D01*
X143352350Y-138149372D01*
X143380754Y-138162806D01*
X143407704Y-138178959D01*
X143432942Y-138197677D01*
X143456223Y-138218777D01*
X143477323Y-138242058D01*
X143496041Y-138267296D01*
X143512194Y-138294246D01*
X143525628Y-138322650D01*
X143536213Y-138352234D01*
X143543848Y-138382713D01*
X143548458Y-138413793D01*
X143550000Y-138445176D01*
X143550000Y-139954824D01*
X143548458Y-139986207D01*
X143543848Y-140017287D01*
X143536213Y-140047766D01*
X143525628Y-140077350D01*
X143512194Y-140105754D01*
X143496041Y-140132704D01*
X143477323Y-140157942D01*
X143456223Y-140181223D01*
X143432942Y-140202323D01*
X143407704Y-140221041D01*
X143380754Y-140237194D01*
X143352350Y-140250628D01*
X143322766Y-140261213D01*
X143292287Y-140268848D01*
X143261207Y-140273458D01*
X143229824Y-140275000D01*
X142045176Y-140275000D01*
X142013793Y-140273458D01*
X141982713Y-140268848D01*
X141952234Y-140261213D01*
X141922650Y-140250628D01*
X141894246Y-140237194D01*
X141867296Y-140221041D01*
X141842058Y-140202323D01*
X141818777Y-140181223D01*
X141797677Y-140157942D01*
X141778959Y-140132704D01*
X141762806Y-140105754D01*
X141749372Y-140077350D01*
X141738787Y-140047766D01*
X141731152Y-140017287D01*
X141726542Y-139986207D01*
X141725000Y-139954824D01*
X141725000Y-138445176D01*
X141726542Y-138413793D01*
X141731152Y-138382713D01*
X141738787Y-138352234D01*
X141749372Y-138322650D01*
X141762806Y-138294246D01*
X141778959Y-138267296D01*
X141797677Y-138242058D01*
X141818777Y-138218777D01*
X141842058Y-138197677D01*
X141867296Y-138178959D01*
X141894246Y-138162806D01*
X141922650Y-138149372D01*
X141952234Y-138138787D01*
X141982713Y-138131152D01*
X142013793Y-138126542D01*
X142045176Y-138125000D01*
X143229824Y-138125000D01*
X143261207Y-138126542D01*
G37*
D14*
X169625000Y-137050000D03*
X170275000Y-137050000D03*
X170925000Y-137050000D03*
X171575000Y-137050000D03*
X172225000Y-137050000D03*
X172875000Y-137050000D03*
X173525000Y-137050000D03*
X174175000Y-137050000D03*
X174175000Y-131150000D03*
X173525000Y-131150000D03*
X172875000Y-131150000D03*
X172225000Y-131150000D03*
X171575000Y-131150000D03*
X170925000Y-131150000D03*
X170275000Y-131150000D03*
X169625000Y-131150000D03*
M02*
