M48
; DRILL file {KiCad 5.1.5+dfsg1-2build2} date Thu 13 Apr 2023 11:07:53 PM
; FORMAT={-:-/ absolute / inch / decimal}
; #@! TF.CreationDate,2023-04-13T23:07:53-05:00
; #@! TF.GenerationSoftware,Kicad,Pcbnew,5.1.5+dfsg1-2build2
; #@! TF.FileFunction,Plated,1,2,PTH
FMAT,2
INCH
T1C0.0157
T2C0.0300
T3C0.0315
T4C0.0472
T5C0.0512
T6C0.1260
%
G90
G05
T1
X4.4961Y-4.0984
X4.5642Y-4.1223
X4.7694Y-4.4511
X4.8622Y-3.9685
X4.8629Y-4.4941
X4.9094Y-4.1211
X4.959Y-4.5968
X5.0591Y-3.8822
X5.0591Y-4.5463
X5.0748Y-4.6732
X5.1063Y-4.4695
X5.1575Y-4.6407
X5.2047Y-4.5197
X5.3543Y-4.6575
X5.3878Y-4.8661
X5.4055Y-4.4843
X5.4213Y-5.311
X5.4239Y-4.6916
X5.4528Y-4.5079
X5.492Y-4.6987
X5.6004Y-4.622
X5.6722Y-4.6398
X5.6732Y-4.3051
X5.6969Y-5.4547
X5.7677Y-5.4547
X5.7913Y-4.6398
X6.1417Y-5.2303
X6.1634Y-5.4528
X6.1654Y-4.6713
X6.189Y-4.5886
X6.2158Y-4.5721
X6.2165Y-5.4528
X6.2224Y-5.2303
X6.3583Y-3.9331
X6.3583Y-3.9882
X6.4567Y-3.9331
X6.5315Y-3.9331
X6.5827Y-3.9331
X6.6161Y-5.2205
X6.6772Y-5.2461
X6.6811Y-3.9331
X6.685Y-5.2992
X6.7283Y-5.2205
X6.7795Y-5.4567
X6.7815Y-5.2205
X6.7854Y-4.5512
X6.8029Y-4.6289
X6.8071Y-5.2736
X6.8209Y-4.5079
X6.8543Y-4.6555
X6.8543Y-4.5079
X6.8583Y-5.4567
X7.3071Y-4.1811
X7.311Y-4.1299
X7.372Y-4.2953
X7.3996Y-5.2264
X7.4154Y-4.5177
X7.4213Y-4.1457
X7.4232Y-5.4587
X7.435Y-4.6043
X7.4744Y-4.5846
X7.4764Y-5.4587
X7.4843Y-5.2264
X7.5197Y-4.0856
X7.5197Y-4.2953
X7.5551Y-4.2953
X7.815Y-3.9803
T2
X4.1241Y-4.0356
X4.1241Y-4.2324
X4.2225Y-4.0356
X4.2225Y-4.2324
X4.3209Y-4.0356
X4.3209Y-4.2324
X4.4193Y-4.0356
X4.4193Y-4.2324
X4.5178Y-4.0356
X4.5178Y-4.2324
X4.6162Y-4.0356
X4.6162Y-4.2324
X4.7146Y-4.0356
X4.7146Y-4.2324
X4.813Y-4.0356
X4.813Y-4.2324
X4.9115Y-4.0356
X4.9115Y-4.2324
X5.0099Y-4.0356
X5.0099Y-4.2324
X5.1083Y-4.0356
X5.1083Y-4.2324
X5.2067Y-4.0356
X5.2067Y-4.2324
X5.3052Y-4.0356
X5.3052Y-4.2324
X5.4036Y-4.0356
X5.4036Y-4.2324
X5.502Y-4.0356
X5.502Y-4.2324
X5.6004Y-4.0356
X5.6004Y-4.2324
X5.6989Y-4.0356
X5.6989Y-4.2324
X5.7973Y-4.0356
X5.7973Y-4.2324
X5.8957Y-4.0356
X5.8957Y-4.2324
X5.9941Y-4.0356
X5.9941Y-4.2324
X6.0926Y-4.0356
X6.0926Y-4.2324
X6.191Y-4.0356
X6.191Y-4.2324
X6.2894Y-4.0356
X6.2894Y-4.2324
X6.3878Y-4.0356
X6.3878Y-4.2324
X6.4863Y-4.0356
X6.4863Y-4.2324
X6.5847Y-4.0356
X6.5847Y-4.2324
X6.6831Y-4.0356
X6.6831Y-4.2324
X6.7815Y-4.0356
X6.7815Y-4.2324
X6.88Y-4.0356
X6.88Y-4.2324
X6.9784Y-4.0356
X6.9784Y-4.2324
X7.0768Y-4.0356
X7.0768Y-4.2324
X7.1752Y-4.0356
X7.1752Y-4.2324
X7.2737Y-4.0356
X7.2737Y-4.2324
X7.3721Y-4.0356
X7.3721Y-4.2324
X7.4705Y-4.0356
X7.4705Y-4.2324
X7.5689Y-4.0356
X7.5689Y-4.2324
X3.8071Y-5.0039
X3.8071Y-5.1024
X3.9055Y-5.0039
X3.9055Y-5.1024
X4.0039Y-5.0039
X4.0039Y-5.1024
X5.1768Y-4.9925
X5.1768Y-5.0925
X5.1768Y-5.1925
X5.1768Y-5.2925
T3
X3.4268Y-4.8425
X3.4268Y-5.4425
X3.5268Y-4.8425
X3.5268Y-5.4425
X3.6268Y-4.8425
X3.6268Y-5.4425
X3.7268Y-4.8425
X3.7268Y-5.4425
X3.8268Y-4.8425
X3.8268Y-5.4425
X3.9268Y-4.8425
X3.9268Y-5.4425
X4.0268Y-4.8425
X4.0268Y-5.4425
X4.1268Y-4.8425
X4.1268Y-5.4425
X4.2268Y-4.8425
X4.2268Y-5.4425
X4.3268Y-4.8425
X4.3268Y-5.4425
X4.4268Y-4.8425
X4.4268Y-5.4425
X4.5268Y-4.8425
X4.5268Y-5.4425
X4.6268Y-4.8425
X4.6268Y-5.4425
X4.7268Y-4.8425
X4.7268Y-5.4425
X4.8268Y-4.8425
X4.8268Y-5.4425
X4.9268Y-4.8425
X4.9268Y-5.4425
X5.0268Y-4.8425
X5.0268Y-5.4425
X5.1268Y-4.8425
X5.1268Y-5.4425
X5.2268Y-4.8425
X5.2268Y-5.4425
X5.3268Y-4.8425
X5.3268Y-5.4425
X5.4291Y-4.9764
X5.4291Y-5.1142
T4
X7.9823Y-4.8858
X8.1791Y-4.689
X8.1791Y-5.0827
X8.2776Y-4.689
X8.2776Y-5.0827
T5
X6.9921Y-4.9055
X6.9921Y-5.063
X6.9921Y-5.2205
X6.9921Y-5.378
X7.1496Y-5.063
X7.1496Y-5.2205
X7.1496Y-5.378
X7.622Y-4.9055
X7.622Y-5.063
X7.622Y-5.2205
X7.622Y-5.378
X7.7795Y-5.063
X7.7795Y-5.2205
X7.7795Y-5.378
X6.3622Y-4.9055
X6.3622Y-5.063
X6.3622Y-5.2205
X6.3622Y-5.378
X6.5197Y-5.063
X6.5197Y-5.2205
X6.5197Y-5.378
X5.7323Y-4.9055
X5.7323Y-5.063
X5.7323Y-5.2205
X5.7323Y-5.378
X5.8898Y-5.063
X5.8898Y-5.2205
X5.8898Y-5.378
T6
X3.6024Y-5.7559
X8.0906Y-5.7559
X8.0906Y-3.7795
X3.6024Y-4.134
X8.0906Y-4.134
X3.6024Y-3.7795
T3
G00X7.9961Y-4.689
M15
G01X7.9685Y-4.689
M16
G05
G00X7.9961Y-4.7874
M15
G01X7.9685Y-4.7874
M16
G05
G00X7.9961Y-4.9843
M15
G01X7.9685Y-4.9843
M16
G05
G00X7.9961Y-5.0827
M15
G01X7.9685Y-5.0827
M16
G05
G00X8.1791Y-4.8996
M15
G01X8.1791Y-4.872
M16
G05
T0
M30
