%FSLAX45Y45*%
G04 Gerber Fmt 4.5, Leading zero omitted, Abs format (unit mm)*
G04 Created by KiCad (PCBNEW 5.1.5+dfsg1-2build2) date 2023-04-13 23:08:09*
%MOMM*%
%LPD*%
G04 APERTURE LIST*
%TA.AperFunction,Profile*%
%ADD10C,0.150000*%
%TD*%
%ADD11C,0.200000*%
%ADD12C,0.300000*%
G04 APERTURE END LIST*
D10*
X21150000Y-15070000D02*
X21150000Y-9150000D01*
X8550000Y-15070000D02*
X8550000Y-9150000D01*
X8550000Y-9150000D02*
X21150000Y-9150000D01*
X8550000Y-15070000D02*
X21150000Y-15070000D01*
D11*
D12*
X8828928Y-15543214D02*
X8828928Y-15243214D01*
X8900357Y-15243214D01*
X8943214Y-15257500D01*
X8971786Y-15286071D01*
X8986071Y-15314643D01*
X9000357Y-15371786D01*
X9000357Y-15414643D01*
X8986071Y-15471786D01*
X8971786Y-15500357D01*
X8943214Y-15528929D01*
X8900357Y-15543214D01*
X8828928Y-15543214D01*
X9128928Y-15543214D02*
X9128928Y-15343214D01*
X9128928Y-15400357D02*
X9143214Y-15371786D01*
X9157500Y-15357500D01*
X9186071Y-15343214D01*
X9214643Y-15343214D01*
X9314643Y-15543214D02*
X9314643Y-15343214D01*
X9314643Y-15243214D02*
X9300357Y-15257500D01*
X9314643Y-15271786D01*
X9328928Y-15257500D01*
X9314643Y-15243214D01*
X9314643Y-15271786D01*
X9500357Y-15543214D02*
X9471786Y-15528929D01*
X9457500Y-15500357D01*
X9457500Y-15243214D01*
X9657500Y-15543214D02*
X9628928Y-15528929D01*
X9614643Y-15500357D01*
X9614643Y-15243214D01*
X10000357Y-15543214D02*
X10000357Y-15243214D01*
X10100357Y-15457500D01*
X10200357Y-15243214D01*
X10200357Y-15543214D01*
X10471786Y-15543214D02*
X10471786Y-15386071D01*
X10457500Y-15357500D01*
X10428928Y-15343214D01*
X10371786Y-15343214D01*
X10343214Y-15357500D01*
X10471786Y-15528929D02*
X10443214Y-15543214D01*
X10371786Y-15543214D01*
X10343214Y-15528929D01*
X10328928Y-15500357D01*
X10328928Y-15471786D01*
X10343214Y-15443214D01*
X10371786Y-15428929D01*
X10443214Y-15428929D01*
X10471786Y-15414643D01*
X10614643Y-15343214D02*
X10614643Y-15643214D01*
X10614643Y-15357500D02*
X10643214Y-15343214D01*
X10700357Y-15343214D01*
X10728928Y-15357500D01*
X10743214Y-15371786D01*
X10757500Y-15400357D01*
X10757500Y-15486071D01*
X10743214Y-15514643D01*
X10728928Y-15528929D01*
X10700357Y-15543214D01*
X10643214Y-15543214D01*
X10614643Y-15528929D01*
X10886071Y-15514643D02*
X10900357Y-15528929D01*
X10886071Y-15543214D01*
X10871786Y-15528929D01*
X10886071Y-15514643D01*
X10886071Y-15543214D01*
X10886071Y-15357500D02*
X10900357Y-15371786D01*
X10886071Y-15386071D01*
X10871786Y-15371786D01*
X10886071Y-15357500D01*
X10886071Y-15386071D01*
M02*
