  0
SECTION
  2
HEADER
  9
$ANGBASE
  50
0.0
  9
$ANGDIR
  70
1
  9
$MEASUREMENT
  70
0
  0
ENDSEC
  0
SECTION
  2
TABLES
  0
TABLE
  2
LTYPE
  70
4
  0
LTYPE
  5
40F
  2
CONTINUOUS
  70
0
  3
Solid line
  72
65
  73
0
  40
0.0
  0
LTYPE
  5
410
  2
DASHDOT
 70
0
  3
Dash Dot ____ _ ____ _
 72
65
 73
4
 40
2.0
 49
1.25
 49
-0.25
 49
0.25
 49
-0.25
  0
LTYPE
  5
411
  2
DASHED
 70
0
  3
Dashed __ __ __ __ __
 72
65
 73
2
 40
0.75
 49
0.5
 49
-0.25
  0
LTYPE
  5
43B
  2
DOTTED
 70
0
  3
Dotted .  .  .  .
 72
65
 73
2
 40
0.2
 49
0.0
 49
-0.2
  0
ENDTAB
  0
TABLE
  2
STYLE
  70
4
  0
STYLE
  2
KICAD
  70
0
  40
0
  41
1
  42
1
  50
0
  71
0
  3
isocp.shx
  0
STYLE
  2
KICADB
  70
0
  40
0
  41
1
  42
1
  50
0
  71
0
  3
isocp.shx
  0
STYLE
  2
KICADI
  70
0
  40
0
  41
1
  42
1
  50
15
  71
0
  3
isocp.shx
  0
STYLE
  2
KICADBI
  70
0
  40
0
  41
1
  42
1
  50
15
  71
0
  3
isocp.shx
  0
ENDTAB
  0
TABLE
  2
LAYER
  70
1
  0
LAYER
  2
BLACK
  70
0
  62
7
  6
CONTINUOUS
  0
ENDTAB
  0
ENDSEC
  0
SECTION
  2
ENTITIES
0
LINE
8
BLACK
6
CONTINUOUS
10
8.32692
20
-3.59941
11
8.32735
21
-3.59945
0
LINE
8
BLACK
6
CONTINUOUS
10
8.32735
20
-3.59945
11
8.32791
21
-3.59962
0
LINE
8
BLACK
6
CONTINUOUS
10
8.32791
20
-3.59962
11
8.32842
21
-3.5999
0
LINE
8
BLACK
6
CONTINUOUS
10
8.32842
20
-3.5999
11
8.32887
21
-3.60026
0
LINE
8
BLACK
6
CONTINUOUS
10
8.32887
20
-3.60026
11
8.32924
21
-3.60071
0
LINE
8
BLACK
6
CONTINUOUS
10
8.32924
20
-3.60071
11
8.32951
21
-3.60123
0
LINE
8
BLACK
6
CONTINUOUS
10
8.32951
20
-3.60123
11
8.32968
21
-3.60178
0
LINE
8
BLACK
6
CONTINUOUS
10
8.32968
20
-3.60178
11
8.32974
21
-3.60236
0
LINE
8
BLACK
6
CONTINUOUS
10
8.32974
20
-3.60236
11
8.32972
21
-3.60251
0
LINE
8
BLACK
6
CONTINUOUS
10
8.32972
20
-3.60251
11
8.32972
21
-5.93293
0
LINE
8
BLACK
6
CONTINUOUS
10
8.32972
20
-5.93293
11
8.32974
21
-5.93307
0
LINE
8
BLACK
6
CONTINUOUS
10
8.32974
20
-5.93307
11
8.32968
21
-5.93365
0
LINE
8
BLACK
6
CONTINUOUS
10
8.32968
20
-5.93365
11
8.32951
21
-5.93421
0
LINE
8
BLACK
6
CONTINUOUS
10
8.32951
20
-5.93421
11
8.32924
21
-5.93472
0
LINE
8
BLACK
6
CONTINUOUS
10
8.32924
20
-5.93472
11
8.32887
21
-5.93517
0
LINE
8
BLACK
6
CONTINUOUS
10
8.32887
20
-5.93517
11
8.32842
21
-5.93554
0
LINE
8
BLACK
6
CONTINUOUS
10
8.32842
20
-5.93554
11
8.32791
21
-5.93581
0
LINE
8
BLACK
6
CONTINUOUS
10
8.32791
20
-5.93581
11
8.32735
21
-5.93598
0
LINE
8
BLACK
6
CONTINUOUS
10
8.32735
20
-5.93598
11
8.32692
21
-5.93602
0
LINE
8
BLACK
6
CONTINUOUS
10
8.32692
20
-5.93602
11
8.32677
21
-5.93604
0
LINE
8
BLACK
6
CONTINUOUS
10
8.32677
20
-5.93604
11
8.32663
21
-5.93602
0
LINE
8
BLACK
6
CONTINUOUS
10
8.32663
20
-5.93602
11
3.36629
21
-5.93602
0
LINE
8
BLACK
6
CONTINUOUS
10
3.36629
20
-5.93602
11
3.36614
21
-5.93604
0
LINE
8
BLACK
6
CONTINUOUS
10
3.36614
20
-5.93604
11
3.36556
21
-5.93598
0
LINE
8
BLACK
6
CONTINUOUS
10
3.36556
20
-5.93598
11
3.36501
21
-5.93581
0
LINE
8
BLACK
6
CONTINUOUS
10
3.36501
20
-5.93581
11
3.36449
21
-5.93554
0
LINE
8
BLACK
6
CONTINUOUS
10
3.36449
20
-5.93554
11
3.36404
21
-5.93517
0
LINE
8
BLACK
6
CONTINUOUS
10
3.36404
20
-5.93517
11
3.36367
21
-5.93472
0
LINE
8
BLACK
6
CONTINUOUS
10
3.36367
20
-5.93472
11
3.3634
21
-5.93421
0
LINE
8
BLACK
6
CONTINUOUS
10
3.3634
20
-5.93421
11
3.36323
21
-5.93365
0
LINE
8
BLACK
6
CONTINUOUS
10
3.36323
20
-5.93365
11
3.36317
21
-5.93307
0
LINE
8
BLACK
6
CONTINUOUS
10
3.36317
20
-5.93307
11
3.36319
21
-5.93293
0
LINE
8
BLACK
6
CONTINUOUS
10
3.36319
20
-5.93293
11
3.36319
21
-3.60251
0
LINE
8
BLACK
6
CONTINUOUS
10
3.36319
20
-3.60251
11
3.36317
21
-3.60236
0
LINE
8
BLACK
6
CONTINUOUS
10
3.36317
20
-3.60236
11
3.36323
21
-3.60178
0
LINE
8
BLACK
6
CONTINUOUS
10
3.36323
20
-3.60178
11
3.3634
21
-3.60123
0
LINE
8
BLACK
6
CONTINUOUS
10
3.3634
20
-3.60123
11
3.36367
21
-3.60071
0
LINE
8
BLACK
6
CONTINUOUS
10
3.36367
20
-3.60071
11
3.36404
21
-3.60026
0
LINE
8
BLACK
6
CONTINUOUS
10
3.36404
20
-3.60026
11
3.36449
21
-3.5999
0
LINE
8
BLACK
6
CONTINUOUS
10
3.36449
20
-3.5999
11
3.36501
21
-3.59962
0
LINE
8
BLACK
6
CONTINUOUS
10
3.36501
20
-3.59962
11
3.36556
21
-3.59945
0
LINE
8
BLACK
6
CONTINUOUS
10
3.36556
20
-3.59945
11
3.366
21
-3.59941
0
LINE
8
BLACK
6
CONTINUOUS
10
3.366
20
-3.59941
11
3.36614
21
-3.5994
0
LINE
8
BLACK
6
CONTINUOUS
10
3.36614
20
-3.5994
11
3.36629
21
-3.59941
0
LINE
8
BLACK
6
CONTINUOUS
10
3.36629
20
-3.59941
11
8.32663
21
-3.59941
0
LINE
8
BLACK
6
CONTINUOUS
10
8.32663
20
-3.59941
11
8.32677
21
-3.5994
0
LINE
8
BLACK
6
CONTINUOUS
10
8.32677
20
-3.5994
11
8.32692
21
-3.59941
0
LINE
8
BLACK
6
CONTINUOUS
10
3.36909
20
-3.60531
11
3.36909
21
-5.93012
0
LINE
8
BLACK
6
CONTINUOUS
10
3.36909
20
-5.93012
11
8.32382
21
-5.93012
0
LINE
8
BLACK
6
CONTINUOUS
10
8.32382
20
-5.93012
11
8.32382
21
-3.60531
0
LINE
8
BLACK
6
CONTINUOUS
10
8.32382
20
-3.60531
11
3.36909
21
-3.60531
  0
ENDSEC
  0
EOF
