  0
SECTION
  2
HEADER
  9
$ANGBASE
  50
0.0
  9
$ANGDIR
  70
  1
  9
$MEASUREMENT
  70
0
  0
ENDSEC
  0
SECTION
  2
TABLES
  0
TABLE
  2
LTYPE
  70
1
  0
LTYPE
  2
CONTINUOUS
  70
0
  3
Solid line
  72
65
  73
0
  40
0.0
  0
ENDTAB
  0
TABLE
  2
STYLE
  70
4
  0
STYLE
  2
KICAD
  70
0
  40
0
  41
1
  42
1
  50
0
  71
0
  3
isocp.shx
  0
STYLE
  2
KICADB
  70
0
  40
0
  41
1
  42
1
  50
0
  71
0
  3
isocp.shx
  0
STYLE
  2
KICADI
  70
0
  40
0
  41
1
  42
1
  50
15
  71
0
  3
isocp.shx
  0
STYLE
  2
KICADBI
  70
0
  40
0
  41
1
  42
1
  50
15
  71
0
  3
isocp.shx
  0
ENDTAB
  0
TABLE
  2
LAYER
  70
30
  0
LAYER
  2
BLACK
  70
0
  62
7
  6
CONTINUOUS
  0
LAYER
  2
GRAY1
  70
0
  62
251
  6
CONTINUOUS
  0
LAYER
  2
GRAY2
  70
0
  62
8
  6
CONTINUOUS
  0
LAYER
  2
GRAY3
  70
0
  62
9
  6
CONTINUOUS
  0
LAYER
  2
WHITE
  70
0
  62
7
  6
CONTINUOUS
  0
LAYER
  2
LYELLOW
  70
0
  62
51
  6
CONTINUOUS
  0
LAYER
  2
BLUE1
  70
0
  62
178
  6
CONTINUOUS
  0
LAYER
  2
GREEN1
  70
0
  62
98
  6
CONTINUOUS
  0
LAYER
  2
CYAN1
  70
0
  62
138
  6
CONTINUOUS
  0
LAYER
  2
RED1
  70
0
  62
18
  6
CONTINUOUS
  0
LAYER
  2
MAGENTA1
  70
0
  62
228
  6
CONTINUOUS
  0
LAYER
  2
BROWN1
  70
0
  62
58
  6
CONTINUOUS
  0
LAYER
  2
BLUE2
  70
0
  62
5
  6
CONTINUOUS
  0
LAYER
  2
GREEN2
  70
0
  62
3
  6
CONTINUOUS
  0
LAYER
  2
CYAN2
  70
0
  62
4
  6
CONTINUOUS
  0
LAYER
  2
RED2
  70
0
  62
1
  6
CONTINUOUS
  0
LAYER
  2
MAGENTA2
  70
0
  62
6
  6
CONTINUOUS
  0
LAYER
  2
BROWN2
  70
0
  62
54
  6
CONTINUOUS
  0
LAYER
  2
BLUE3
  70
0
  62
171
  6
CONTINUOUS
  0
LAYER
  2
GREEN3
  70
0
  62
91
  6
CONTINUOUS
  0
LAYER
  2
CYAN3
  70
0
  62
131
  6
CONTINUOUS
  0
LAYER
  2
RED3
  70
0
  62
11
  6
CONTINUOUS
  0
LAYER
  2
MAGENTA3
  70
0
  62
221
  6
CONTINUOUS
  0
LAYER
  2
YELLOW3
  70
0
  62
2
  6
CONTINUOUS
  0
LAYER
  2
BLUE4
  70
0
  62
5
  6
CONTINUOUS
  0
LAYER
  2
GREEN4
  70
0
  62
3
  6
CONTINUOUS
  0
LAYER
  2
CYAN4
  70
0
  62
4
  6
CONTINUOUS
  0
LAYER
  2
RED4
  70
0
  62
1
  6
CONTINUOUS
  0
LAYER
  2
MAGENTA4
  70
0
  62
6
  6
CONTINUOUS
  0
LAYER
  2
YELLOW4
  70
0
  62
2
  6
CONTINUOUS
  0
ENDTAB
  0
ENDSEC
  0
SECTION
  2
ENTITIES
0
LINE
8
Black
10
225.206
20
-69.7261
11
225.213
21
-69.7261
0
LINE
8
Black
10
225.213
20
-69.7261
11
225.219
21
-69.7284
0
LINE
8
Black
10
225.219
20
-69.7284
11
225.226
21
-69.7295
0
LINE
8
Black
10
225.226
20
-69.7295
11
225.231
21
-69.7328
0
LINE
8
Black
10
225.231
20
-69.7328
11
225.237
21
-69.735
0
LINE
8
Black
10
225.237
20
-69.735
11
225.243
21
-69.7393
0
LINE
8
Black
10
225.243
20
-69.7393
11
225.248
21
-69.7425
0
LINE
8
Black
10
225.248
20
-69.7425
11
225.252
21
-69.7476
0
LINE
8
Black
10
225.252
20
-69.7476
11
225.257
21
-69.7518
0
LINE
8
Black
10
225.257
20
-69.7518
11
225.261
21
-69.7575
0
LINE
8
Black
10
225.261
20
-69.7575
11
225.265
21
-69.7625
0
LINE
8
Black
10
225.265
20
-69.7625
11
225.267
21
-69.7687
0
LINE
8
Black
10
225.267
20
-69.7687
11
225.27
21
-69.7743
0
LINE
8
Black
10
225.27
20
-69.7743
11
225.272
21
-69.7808
0
LINE
8
Black
10
225.272
20
-69.7808
11
225.274
21
-69.787
0
LINE
8
Black
10
225.274
20
-69.787
11
225.274
21
-69.7935
0
LINE
8
Black
10
225.274
20
-69.7935
11
225.275
21
-69.8
0
LINE
8
Black
10
225.275
20
-69.8
11
225.275
21
-126.4
0
LINE
8
Black
10
225.275
20
-126.4
11
225.274
21
-126.406
0
LINE
8
Black
10
225.274
20
-126.406
11
225.274
21
-126.413
0
LINE
8
Black
10
225.274
20
-126.413
11
225.272
21
-126.419
0
LINE
8
Black
10
225.272
20
-126.419
11
225.27
21
-126.426
0
LINE
8
Black
10
225.27
20
-126.426
11
225.267
21
-126.431
0
LINE
8
Black
10
225.267
20
-126.431
11
225.265
21
-126.438
0
LINE
8
Black
10
225.265
20
-126.438
11
225.261
21
-126.443
0
LINE
8
Black
10
225.261
20
-126.443
11
225.257
21
-126.448
0
LINE
8
Black
10
225.257
20
-126.448
11
225.252
21
-126.452
0
LINE
8
Black
10
225.252
20
-126.452
11
225.248
21
-126.457
0
LINE
8
Black
10
225.248
20
-126.457
11
225.243
21
-126.461
0
LINE
8
Black
10
225.243
20
-126.461
11
225.237
21
-126.465
0
LINE
8
Black
10
225.237
20
-126.465
11
225.231
21
-126.467
0
LINE
8
Black
10
225.231
20
-126.467
11
225.226
21
-126.47
0
LINE
8
Black
10
225.226
20
-126.47
11
225.219
21
-126.472
0
LINE
8
Black
10
225.219
20
-126.472
11
225.213
21
-126.474
0
LINE
8
Black
10
225.213
20
-126.474
11
225.206
21
-126.474
0
LINE
8
Black
10
225.206
20
-126.474
11
225.2
21
-126.475
0
LINE
8
Black
10
225.2
20
-126.475
11
70.2
21
-126.475
0
LINE
8
Black
10
70.2
20
-126.475
11
70.1935
21
-126.474
0
LINE
8
Black
10
70.1935
20
-126.474
11
70.187
21
-126.474
0
LINE
8
Black
10
70.187
20
-126.474
11
70.1808
21
-126.472
0
LINE
8
Black
10
70.1808
20
-126.472
11
70.1743
21
-126.47
0
LINE
8
Black
10
70.1743
20
-126.47
11
70.1687
21
-126.467
0
LINE
8
Black
10
70.1687
20
-126.467
11
70.1625
21
-126.465
0
LINE
8
Black
10
70.1625
20
-126.465
11
70.1575
21
-126.461
0
LINE
8
Black
10
70.1575
20
-126.461
11
70.1518
21
-126.457
0
LINE
8
Black
10
70.1518
20
-126.457
11
70.1476
21
-126.452
0
LINE
8
Black
10
70.1476
20
-126.452
11
70.1425
21
-126.448
0
LINE
8
Black
10
70.1425
20
-126.448
11
70.1393
21
-126.443
0
LINE
8
Black
10
70.1393
20
-126.443
11
70.135
21
-126.438
0
LINE
8
Black
10
70.135
20
-126.438
11
70.1328
21
-126.431
0
LINE
8
Black
10
70.1328
20
-126.431
11
70.1295
21
-126.426
0
LINE
8
Black
10
70.1295
20
-126.426
11
70.1284
21
-126.419
0
LINE
8
Black
10
70.1284
20
-126.419
11
70.1261
21
-126.413
0
LINE
8
Black
10
70.1261
20
-126.413
11
70.1261
21
-126.406
0
LINE
8
Black
10
70.1261
20
-126.406
11
70.125
21
-126.4
0
LINE
8
Black
10
70.125
20
-126.4
11
70.125
21
-69.8
0
LINE
8
Black
10
70.125
20
-69.8
11
70.1261
21
-69.7935
0
LINE
8
Black
10
70.1261
20
-69.7935
11
70.1261
21
-69.787
0
LINE
8
Black
10
70.1261
20
-69.787
11
70.1284
21
-69.7808
0
LINE
8
Black
10
70.1284
20
-69.7808
11
70.1295
21
-69.7743
0
LINE
8
Black
10
70.1295
20
-69.7743
11
70.1328
21
-69.7687
0
LINE
8
Black
10
70.1328
20
-69.7687
11
70.135
21
-69.7625
0
LINE
8
Black
10
70.135
20
-69.7625
11
70.1393
21
-69.7575
0
LINE
8
Black
10
70.1393
20
-69.7575
11
70.1425
21
-69.7518
0
LINE
8
Black
10
70.1425
20
-69.7518
11
70.1476
21
-69.7476
0
LINE
8
Black
10
70.1476
20
-69.7476
11
70.1518
21
-69.7425
0
LINE
8
Black
10
70.1518
20
-69.7425
11
70.1575
21
-69.7393
0
LINE
8
Black
10
70.1575
20
-69.7393
11
70.1625
21
-69.735
0
LINE
8
Black
10
70.1625
20
-69.735
11
70.1687
21
-69.7328
0
LINE
8
Black
10
70.1687
20
-69.7328
11
70.1743
21
-69.7295
0
LINE
8
Black
10
70.1743
20
-69.7295
11
70.1808
21
-69.7284
0
LINE
8
Black
10
70.1808
20
-69.7284
11
70.187
21
-69.7261
0
LINE
8
Black
10
70.187
20
-69.7261
11
70.1935
21
-69.7261
0
LINE
8
Black
10
70.1935
20
-69.7261
11
70.2
21
-69.725
0
LINE
8
Black
10
70.2
20
-69.725
11
225.2
21
-69.725
0
LINE
8
Black
10
225.2
20
-69.725
11
225.206
21
-69.7261
0
LINE
8
Black
10
70.275
20
-69.875
11
70.275
21
-126.325
0
LINE
8
Black
10
70.275
20
-126.325
11
225.125
21
-126.325
0
LINE
8
Black
10
225.125
20
-126.325
11
225.125
21
-69.875
0
LINE
8
Black
10
225.125
20
-69.875
11
70.275
21
-69.875
  0
ENDSEC
  0
EOF
