%FSLAX45Y45*%
G04 Gerber Fmt 4.5, Leading zero omitted, Abs format (unit mm)*
G04 Created by KiCad (PCBNEW 4.0.4-stable) date 11/18/18 17:45:24*
%MOMM*%
%LPD*%
G01*
G04 APERTURE LIST*
%ADD10C,0.127000*%
%ADD11C,0.150000*%
%ADD12C,0.200000*%
%ADD13C,0.300000*%
G04 APERTURE END LIST*
D10*
D11*
X22520000Y-6980000D02*
X22520000Y-12640000D01*
X7020000Y-6980000D02*
X22520000Y-6980000D01*
X7020000Y-12640000D02*
X7020000Y-6980000D01*
X22520000Y-12640000D02*
X7020000Y-12640000D01*
D12*
X9079135Y-10220733D02*
X9119135Y-10260733D01*
X9119135Y-10220733D02*
X9079135Y-10260733D01*
X9079135Y-10890733D02*
X9119135Y-10930733D01*
X9119135Y-10890733D02*
X9079135Y-10930733D01*
X9129000Y-8532000D02*
X9169000Y-8572000D01*
X9169000Y-8532000D02*
X9129000Y-8572000D01*
X9304135Y-9760733D02*
X9344135Y-9800733D01*
X9344135Y-9760733D02*
X9304135Y-9800733D01*
X9304135Y-10285733D02*
X9344135Y-10325733D01*
X9344135Y-10285733D02*
X9304135Y-10325733D01*
X10253000Y-8532000D02*
X10293000Y-8572000D01*
X10293000Y-8532000D02*
X10253000Y-8572000D01*
X10254135Y-11198233D02*
X10294135Y-11238233D01*
X10294135Y-11198233D02*
X10254135Y-11238233D01*
X10504135Y-10943233D02*
X10544135Y-10983233D01*
X10544135Y-10943233D02*
X10504135Y-10983233D01*
X10874135Y-9800733D02*
X10914135Y-9840733D01*
X10914135Y-9800733D02*
X10874135Y-9840733D01*
X11129135Y-10055733D02*
X11169135Y-10095733D01*
X11169135Y-10055733D02*
X11129135Y-10095733D01*
X11254135Y-8595733D02*
X11294135Y-8635733D01*
X11294135Y-8595733D02*
X11254135Y-8635733D01*
X11379135Y-10570733D02*
X11419135Y-10610733D01*
X11419135Y-10570733D02*
X11379135Y-10610733D01*
X11499135Y-9675733D02*
X11539135Y-9715733D01*
X11539135Y-9675733D02*
X11499135Y-9715733D01*
X11629135Y-10310733D02*
X11669135Y-10350733D01*
X11669135Y-10310733D02*
X11629135Y-10350733D01*
X11754135Y-9928233D02*
X11794135Y-9968233D01*
X11794135Y-9928233D02*
X11754135Y-9968233D01*
X11879135Y-10818233D02*
X11919135Y-10858233D01*
X11919135Y-10818233D02*
X11879135Y-10858233D01*
X12004135Y-10183233D02*
X12044135Y-10223233D01*
X12044135Y-10183233D02*
X12004135Y-10223233D01*
X12129135Y-11070733D02*
X12169135Y-11110733D01*
X12169135Y-11070733D02*
X12129135Y-11110733D01*
X12254135Y-10435733D02*
X12294135Y-10475733D01*
X12294135Y-10435733D02*
X12254135Y-10475733D01*
X12379135Y-10690733D02*
X12419135Y-10730733D01*
X12419135Y-10690733D02*
X12379135Y-10730733D01*
X12504135Y-11285733D02*
X12544135Y-11325733D01*
X12544135Y-11285733D02*
X12504135Y-11325733D01*
X12624135Y-9548233D02*
X12664135Y-9588233D01*
X12664135Y-9548233D02*
X12624135Y-9588233D01*
X12879135Y-7768233D02*
X12919135Y-7808233D01*
X12919135Y-7768233D02*
X12879135Y-7808233D01*
X13129135Y-9420733D02*
X13169135Y-9460733D01*
X13169135Y-9420733D02*
X13129135Y-9460733D01*
X14256635Y-8658235D02*
X14296635Y-8698235D01*
X14296635Y-8658235D02*
X14256635Y-8698235D01*
X14557302Y-8532290D02*
X14597302Y-8572290D01*
X14597302Y-8532290D02*
X14557302Y-8572290D01*
X14629135Y-9293233D02*
X14669135Y-9333233D01*
X14669135Y-9293233D02*
X14629135Y-9333233D01*
X14879135Y-10943233D02*
X14919135Y-10983233D01*
X14919135Y-10943233D02*
X14879135Y-10983233D01*
X15129135Y-11198233D02*
X15169135Y-11238233D01*
X15169135Y-11198233D02*
X15129135Y-11238233D01*
X15254135Y-7515733D02*
X15294135Y-7555733D01*
X15294135Y-7515733D02*
X15254135Y-7555733D01*
X15347286Y-8585734D02*
X15387286Y-8625734D01*
X15387286Y-8585734D02*
X15347286Y-8625734D01*
X15504135Y-7260733D02*
X15544135Y-7300733D01*
X15544135Y-7260733D02*
X15504135Y-7300733D01*
X15504135Y-9675733D02*
X15544135Y-9715733D01*
X15544135Y-9675733D02*
X15504135Y-9715733D01*
X15754135Y-7135733D02*
X15794135Y-7175733D01*
X15794135Y-7135733D02*
X15754135Y-7175733D01*
X15754135Y-9928233D02*
X15794135Y-9968233D01*
X15794135Y-9928233D02*
X15754135Y-9968233D01*
X16004135Y-7388233D02*
X16044135Y-7428233D01*
X16044135Y-7388233D02*
X16004135Y-7428233D01*
X16004135Y-10183233D02*
X16044135Y-10223233D01*
X16044135Y-10183233D02*
X16004135Y-10223233D01*
X16254135Y-7643233D02*
X16294135Y-7683233D01*
X16294135Y-7643233D02*
X16254135Y-7683233D01*
X16254135Y-10435733D02*
X16294135Y-10475733D01*
X16294135Y-10435733D02*
X16254135Y-10475733D01*
X16504135Y-10690733D02*
X16544135Y-10730733D01*
X16544135Y-10690733D02*
X16504135Y-10730733D01*
X16754135Y-11070733D02*
X16794135Y-11110733D01*
X16794135Y-11070733D02*
X16754135Y-11110733D01*
X16879135Y-9548233D02*
X16919135Y-9588233D01*
X16919135Y-9548233D02*
X16879135Y-9588233D01*
X17004135Y-10818233D02*
X17044135Y-10858233D01*
X17044135Y-10818233D02*
X17004135Y-10858233D01*
X17129135Y-9800733D02*
X17169135Y-9840733D01*
X17169135Y-9800733D02*
X17129135Y-9840733D01*
X17254135Y-10570733D02*
X17294135Y-10610733D01*
X17294135Y-10570733D02*
X17254135Y-10610733D01*
X17379135Y-10055733D02*
X17419135Y-10095733D01*
X17419135Y-10055733D02*
X17379135Y-10095733D01*
X17504135Y-10310733D02*
X17544135Y-10350733D01*
X17544135Y-10310733D02*
X17504135Y-10350733D01*
X20479135Y-7768233D02*
X20519135Y-7808233D01*
X20519135Y-7768233D02*
X20479135Y-7808233D01*
X9062235Y-8410733D02*
G75*
G03X9062235Y-8410733I-38100J0D01*
G01*
X9062235Y-8910733D02*
G75*
G03X9062235Y-8910733I-38100J0D01*
G01*
X9312235Y-8410733D02*
G75*
G03X9312235Y-8410733I-38100J0D01*
G01*
X9312235Y-8910733D02*
G75*
G03X9312235Y-8910733I-38100J0D01*
G01*
X9562235Y-8410733D02*
G75*
G03X9562235Y-8410733I-38100J0D01*
G01*
X9562235Y-8910733D02*
G75*
G03X9562235Y-8910733I-38100J0D01*
G01*
X9812235Y-8410733D02*
G75*
G03X9812235Y-8410733I-38100J0D01*
G01*
X9812235Y-8910733D02*
G75*
G03X9812235Y-8910733I-38100J0D01*
G01*
X10062235Y-8410733D02*
G75*
G03X10062235Y-8410733I-38100J0D01*
G01*
X10062235Y-8910733D02*
G75*
G03X10062235Y-8910733I-38100J0D01*
G01*
X10312235Y-8410733D02*
G75*
G03X10312235Y-8410733I-38100J0D01*
G01*
X10312235Y-8910733D02*
G75*
G03X10312235Y-8910733I-38100J0D01*
G01*
X10562235Y-8410733D02*
G75*
G03X10562235Y-8410733I-38100J0D01*
G01*
X10562235Y-8910733D02*
G75*
G03X10562235Y-8910733I-38100J0D01*
G01*
X10812235Y-8410733D02*
G75*
G03X10812235Y-8410733I-38100J0D01*
G01*
X10812235Y-8910733D02*
G75*
G03X10812235Y-8910733I-38100J0D01*
G01*
X11062235Y-8410733D02*
G75*
G03X11062235Y-8410733I-38100J0D01*
G01*
X11062235Y-8910733D02*
G75*
G03X11062235Y-8910733I-38100J0D01*
G01*
X11312235Y-8410733D02*
G75*
G03X11312235Y-8410733I-38100J0D01*
G01*
X11312235Y-8910733D02*
G75*
G03X11312235Y-8910733I-38100J0D01*
G01*
X11562235Y-8410733D02*
G75*
G03X11562235Y-8410733I-38100J0D01*
G01*
X11562235Y-8910733D02*
G75*
G03X11562235Y-8910733I-38100J0D01*
G01*
X11812235Y-8410733D02*
G75*
G03X11812235Y-8410733I-38100J0D01*
G01*
X11812235Y-8910733D02*
G75*
G03X11812235Y-8910733I-38100J0D01*
G01*
X12062235Y-8410733D02*
G75*
G03X12062235Y-8410733I-38100J0D01*
G01*
X12062235Y-8910733D02*
G75*
G03X12062235Y-8910733I-38100J0D01*
G01*
X12312235Y-8410733D02*
G75*
G03X12312235Y-8410733I-38100J0D01*
G01*
X12312235Y-8910733D02*
G75*
G03X12312235Y-8910733I-38100J0D01*
G01*
X12562235Y-8410733D02*
G75*
G03X12562235Y-8410733I-38100J0D01*
G01*
X12562235Y-8910733D02*
G75*
G03X12562235Y-8910733I-38100J0D01*
G01*
X12812235Y-8410733D02*
G75*
G03X12812235Y-8410733I-38100J0D01*
G01*
X12812235Y-8910733D02*
G75*
G03X12812235Y-8910733I-38100J0D01*
G01*
X13062235Y-8410733D02*
G75*
G03X13062235Y-8410733I-38100J0D01*
G01*
X13062235Y-8910733D02*
G75*
G03X13062235Y-8910733I-38100J0D01*
G01*
X13312235Y-8410733D02*
G75*
G03X13312235Y-8410733I-38100J0D01*
G01*
X13312235Y-8910733D02*
G75*
G03X13312235Y-8910733I-38100J0D01*
G01*
X13562235Y-8410733D02*
G75*
G03X13562235Y-8410733I-38100J0D01*
G01*
X13562235Y-8910733D02*
G75*
G03X13562235Y-8910733I-38100J0D01*
G01*
X13812235Y-8410733D02*
G75*
G03X13812235Y-8410733I-38100J0D01*
G01*
X13812235Y-8910733D02*
G75*
G03X13812235Y-8910733I-38100J0D01*
G01*
X14062235Y-8410733D02*
G75*
G03X14062235Y-8410733I-38100J0D01*
G01*
X14062235Y-8910733D02*
G75*
G03X14062235Y-8910733I-38100J0D01*
G01*
X14312235Y-8410733D02*
G75*
G03X14312235Y-8410733I-38100J0D01*
G01*
X14312235Y-8910733D02*
G75*
G03X14312235Y-8910733I-38100J0D01*
G01*
X14562235Y-8410733D02*
G75*
G03X14562235Y-8410733I-38100J0D01*
G01*
X14562235Y-8910733D02*
G75*
G03X14562235Y-8910733I-38100J0D01*
G01*
X14812235Y-8410733D02*
G75*
G03X14812235Y-8410733I-38100J0D01*
G01*
X14812235Y-8910733D02*
G75*
G03X14812235Y-8910733I-38100J0D01*
G01*
X15062235Y-8410733D02*
G75*
G03X15062235Y-8410733I-38100J0D01*
G01*
X15062235Y-8910733D02*
G75*
G03X15062235Y-8910733I-38100J0D01*
G01*
X15312235Y-8410733D02*
G75*
G03X15312235Y-8410733I-38100J0D01*
G01*
X15312235Y-8910733D02*
G75*
G03X15312235Y-8910733I-38100J0D01*
G01*
X15562235Y-8410733D02*
G75*
G03X15562235Y-8410733I-38100J0D01*
G01*
X15562235Y-8910733D02*
G75*
G03X15562235Y-8910733I-38100J0D01*
G01*
X15812235Y-8410733D02*
G75*
G03X15812235Y-8410733I-38100J0D01*
G01*
X15812235Y-8910733D02*
G75*
G03X15812235Y-8910733I-38100J0D01*
G01*
X16062235Y-8410733D02*
G75*
G03X16062235Y-8410733I-38100J0D01*
G01*
X16062235Y-8910733D02*
G75*
G03X16062235Y-8910733I-38100J0D01*
G01*
X16312235Y-8410733D02*
G75*
G03X16312235Y-8410733I-38100J0D01*
G01*
X16312235Y-8910733D02*
G75*
G03X16312235Y-8910733I-38100J0D01*
G01*
X16562235Y-8410733D02*
G75*
G03X16562235Y-8410733I-38100J0D01*
G01*
X16562235Y-8910733D02*
G75*
G03X16562235Y-8910733I-38100J0D01*
G01*
X16812235Y-8410733D02*
G75*
G03X16812235Y-8410733I-38100J0D01*
G01*
X16812235Y-8910733D02*
G75*
G03X16812235Y-8910733I-38100J0D01*
G01*
X17062235Y-8410733D02*
G75*
G03X17062235Y-8410733I-38100J0D01*
G01*
X17062235Y-8910733D02*
G75*
G03X17062235Y-8910733I-38100J0D01*
G01*
X17312235Y-8410733D02*
G75*
G03X17312235Y-8410733I-38100J0D01*
G01*
X17312235Y-8910733D02*
G75*
G03X17312235Y-8910733I-38100J0D01*
G01*
X17562235Y-8410733D02*
G75*
G03X17562235Y-8410733I-38100J0D01*
G01*
X17562235Y-8910733D02*
G75*
G03X17562235Y-8910733I-38100J0D01*
G01*
X17812235Y-8410733D02*
G75*
G03X17812235Y-8410733I-38100J0D01*
G01*
X17812235Y-8910733D02*
G75*
G03X17812235Y-8910733I-38100J0D01*
G01*
X20741735Y-11599733D02*
G75*
G03X20741735Y-11599733I-38100J0D01*
G01*
X20995735Y-11599733D02*
G75*
G03X20995735Y-11599733I-38100J0D01*
G01*
X21224335Y-8119933D02*
G75*
G03X21224335Y-8119933I-38100J0D01*
G01*
X21224335Y-8373933D02*
G75*
G03X21224335Y-8373933I-38100J0D01*
G01*
X21224335Y-8627933D02*
G75*
G03X21224335Y-8627933I-38100J0D01*
G01*
X21249735Y-11599733D02*
G75*
G03X21249735Y-11599733I-38100J0D01*
G01*
X21503735Y-11599733D02*
G75*
G03X21503735Y-11599733I-38100J0D01*
G01*
X20322635Y-7114733D02*
X20322635Y-7194733D01*
X20282635Y-7154733D02*
X20362635Y-7154733D01*
X20322635Y-7368733D02*
X20322635Y-7448733D01*
X20282635Y-7408733D02*
X20362635Y-7408733D01*
X20322635Y-7622733D02*
X20322635Y-7702733D01*
X20282635Y-7662733D02*
X20362635Y-7662733D01*
X20322635Y-7876733D02*
X20322635Y-7956733D01*
X20282635Y-7916733D02*
X20362635Y-7916733D01*
X20322635Y-8130733D02*
X20322635Y-8210733D01*
X20282635Y-8170733D02*
X20362635Y-8170733D01*
X20322635Y-8384733D02*
X20322635Y-8464733D01*
X20282635Y-8424733D02*
X20362635Y-8424733D01*
X20322635Y-8638733D02*
X20322635Y-8718733D01*
X20282635Y-8678733D02*
X20362635Y-8678733D01*
X20322635Y-8892733D02*
X20322635Y-8972733D01*
X20282635Y-8932733D02*
X20362635Y-8932733D01*
X20322635Y-9146733D02*
X20322635Y-9226733D01*
X20282635Y-9186733D02*
X20362635Y-9186733D01*
X20322635Y-9400733D02*
X20322635Y-9480733D01*
X20282635Y-9440733D02*
X20362635Y-9440733D01*
X20322635Y-9654733D02*
X20322635Y-9734733D01*
X20282635Y-9694733D02*
X20362635Y-9694733D01*
X20322635Y-9908733D02*
X20322635Y-9988733D01*
X20282635Y-9948733D02*
X20362635Y-9948733D01*
X20322635Y-10162733D02*
X20322635Y-10242733D01*
X20282635Y-10202733D02*
X20362635Y-10202733D01*
X20322635Y-10416733D02*
X20322635Y-10496733D01*
X20282635Y-10456733D02*
X20362635Y-10456733D01*
X20322635Y-10670733D02*
X20322635Y-10750733D01*
X20282635Y-10710733D02*
X20362635Y-10710733D01*
X20322635Y-10924733D02*
X20322635Y-11004733D01*
X20282635Y-10964733D02*
X20362635Y-10964733D01*
X20322635Y-11178733D02*
X20322635Y-11258733D01*
X20282635Y-11218733D02*
X20362635Y-11218733D01*
X20322635Y-11432733D02*
X20322635Y-11512733D01*
X20282635Y-11472733D02*
X20362635Y-11472733D01*
X20322635Y-11686733D02*
X20322635Y-11766733D01*
X20282635Y-11726733D02*
X20362635Y-11726733D01*
X20322635Y-11940733D02*
X20322635Y-12020733D01*
X20282635Y-11980733D02*
X20362635Y-11980733D01*
X21846635Y-7114733D02*
X21846635Y-7194733D01*
X21806635Y-7154733D02*
X21886635Y-7154733D01*
X21846635Y-7368733D02*
X21846635Y-7448733D01*
X21806635Y-7408733D02*
X21886635Y-7408733D01*
X21846635Y-7622733D02*
X21846635Y-7702733D01*
X21806635Y-7662733D02*
X21886635Y-7662733D01*
X21846635Y-7876733D02*
X21846635Y-7956733D01*
X21806635Y-7916733D02*
X21886635Y-7916733D01*
X21846635Y-8130733D02*
X21846635Y-8210733D01*
X21806635Y-8170733D02*
X21886635Y-8170733D01*
X21846635Y-8384733D02*
X21846635Y-8464733D01*
X21806635Y-8424733D02*
X21886635Y-8424733D01*
X21846635Y-8638733D02*
X21846635Y-8718733D01*
X21806635Y-8678733D02*
X21886635Y-8678733D01*
X21846635Y-8892733D02*
X21846635Y-8972733D01*
X21806635Y-8932733D02*
X21886635Y-8932733D01*
X21846635Y-9146733D02*
X21846635Y-9226733D01*
X21806635Y-9186733D02*
X21886635Y-9186733D01*
X21846635Y-9400733D02*
X21846635Y-9480733D01*
X21806635Y-9440733D02*
X21886635Y-9440733D01*
X21846635Y-9654733D02*
X21846635Y-9734733D01*
X21806635Y-9694733D02*
X21886635Y-9694733D01*
X21846635Y-9908733D02*
X21846635Y-9988733D01*
X21806635Y-9948733D02*
X21886635Y-9948733D01*
X21846635Y-10162733D02*
X21846635Y-10242733D01*
X21806635Y-10202733D02*
X21886635Y-10202733D01*
X21846635Y-10416733D02*
X21846635Y-10496733D01*
X21806635Y-10456733D02*
X21886635Y-10456733D01*
X21846635Y-10670733D02*
X21846635Y-10750733D01*
X21806635Y-10710733D02*
X21886635Y-10710733D01*
X21846635Y-10924733D02*
X21846635Y-11004733D01*
X21806635Y-10964733D02*
X21886635Y-10964733D01*
X21846635Y-11178733D02*
X21846635Y-11258733D01*
X21806635Y-11218733D02*
X21886635Y-11218733D01*
X21846635Y-11432733D02*
X21846635Y-11512733D01*
X21806635Y-11472733D02*
X21886635Y-11472733D01*
X21846635Y-11686733D02*
X21846635Y-11766733D01*
X21806635Y-11726733D02*
X21886635Y-11726733D01*
X21846635Y-11940733D02*
X21846635Y-12020733D01*
X21806635Y-11980733D02*
X21886635Y-11980733D01*
X9056491Y-7216089D02*
X9056491Y-7145378D01*
X8985779Y-7145378D01*
X8985779Y-7216089D01*
X9056491Y-7216089D01*
X9056491Y-7470089D02*
X9056491Y-7399378D01*
X8985779Y-7399378D01*
X8985779Y-7470089D01*
X9056491Y-7470089D01*
X9310491Y-7216089D02*
X9310491Y-7145378D01*
X9239779Y-7145378D01*
X9239779Y-7216089D01*
X9310491Y-7216089D01*
X9310491Y-7470089D02*
X9310491Y-7399378D01*
X9239779Y-7399378D01*
X9239779Y-7470089D01*
X9310491Y-7470089D01*
X9564491Y-7216089D02*
X9564491Y-7145378D01*
X9493779Y-7145378D01*
X9493779Y-7216089D01*
X9564491Y-7216089D01*
X9564491Y-7470089D02*
X9564491Y-7399378D01*
X9493779Y-7399378D01*
X9493779Y-7470089D01*
X9564491Y-7470089D01*
X7600000Y-8805000D02*
X7745000Y-8660000D01*
X7600000Y-8515000D01*
X7455000Y-8660000D01*
X7600000Y-8805000D01*
X19200000Y-8805000D02*
X19345000Y-8660000D01*
X19200000Y-8515000D01*
X19055000Y-8660000D01*
X19200000Y-8805000D01*
D13*
X7283928Y-13113214D02*
X7283928Y-12813214D01*
X7355357Y-12813214D01*
X7398214Y-12827500D01*
X7426786Y-12856071D01*
X7441071Y-12884643D01*
X7455357Y-12941786D01*
X7455357Y-12984643D01*
X7441071Y-13041786D01*
X7426786Y-13070357D01*
X7398214Y-13098929D01*
X7355357Y-13113214D01*
X7283928Y-13113214D01*
X7583928Y-13113214D02*
X7583928Y-12913214D01*
X7583928Y-12970357D02*
X7598214Y-12941786D01*
X7612500Y-12927500D01*
X7641071Y-12913214D01*
X7669643Y-12913214D01*
X7769643Y-13113214D02*
X7769643Y-12913214D01*
X7769643Y-12813214D02*
X7755357Y-12827500D01*
X7769643Y-12841786D01*
X7783928Y-12827500D01*
X7769643Y-12813214D01*
X7769643Y-12841786D01*
X7955357Y-13113214D02*
X7926786Y-13098929D01*
X7912500Y-13070357D01*
X7912500Y-12813214D01*
X8112500Y-13113214D02*
X8083928Y-13098929D01*
X8069643Y-13070357D01*
X8069643Y-12813214D01*
X8455357Y-13113214D02*
X8455357Y-12813214D01*
X8555357Y-13027500D01*
X8655357Y-12813214D01*
X8655357Y-13113214D01*
X8926786Y-13113214D02*
X8926786Y-12956071D01*
X8912500Y-12927500D01*
X8883929Y-12913214D01*
X8826786Y-12913214D01*
X8798214Y-12927500D01*
X8926786Y-13098929D02*
X8898214Y-13113214D01*
X8826786Y-13113214D01*
X8798214Y-13098929D01*
X8783929Y-13070357D01*
X8783929Y-13041786D01*
X8798214Y-13013214D01*
X8826786Y-12998929D01*
X8898214Y-12998929D01*
X8926786Y-12984643D01*
X9069643Y-12913214D02*
X9069643Y-13213214D01*
X9069643Y-12927500D02*
X9098214Y-12913214D01*
X9155357Y-12913214D01*
X9183929Y-12927500D01*
X9198214Y-12941786D01*
X9212500Y-12970357D01*
X9212500Y-13056071D01*
X9198214Y-13084643D01*
X9183929Y-13098929D01*
X9155357Y-13113214D01*
X9098214Y-13113214D01*
X9069643Y-13098929D01*
X9341071Y-13084643D02*
X9355357Y-13098929D01*
X9341071Y-13113214D01*
X9326786Y-13098929D01*
X9341071Y-13084643D01*
X9341071Y-13113214D01*
X9341071Y-12927500D02*
X9355357Y-12941786D01*
X9341071Y-12956071D01*
X9326786Y-12941786D01*
X9341071Y-12927500D01*
X9341071Y-12956071D01*
X6972500Y-13587500D02*
X7012500Y-13627500D01*
X7012500Y-13587500D02*
X6972500Y-13627500D01*
X7341071Y-13443214D02*
X7369643Y-13443214D01*
X7398214Y-13457500D01*
X7412500Y-13471786D01*
X7426786Y-13500357D01*
X7441071Y-13557500D01*
X7441071Y-13628929D01*
X7426786Y-13686071D01*
X7412500Y-13714643D01*
X7398214Y-13728929D01*
X7369643Y-13743214D01*
X7341071Y-13743214D01*
X7312500Y-13728929D01*
X7298214Y-13714643D01*
X7283928Y-13686071D01*
X7269643Y-13628929D01*
X7269643Y-13557500D01*
X7283928Y-13500357D01*
X7298214Y-13471786D01*
X7312500Y-13457500D01*
X7341071Y-13443214D01*
X7569643Y-13714643D02*
X7583928Y-13728929D01*
X7569643Y-13743214D01*
X7555357Y-13728929D01*
X7569643Y-13714643D01*
X7569643Y-13743214D01*
X7841071Y-13543214D02*
X7841071Y-13743214D01*
X7769643Y-13428929D02*
X7698214Y-13643214D01*
X7883928Y-13643214D01*
X8055357Y-13443214D02*
X8083928Y-13443214D01*
X8112500Y-13457500D01*
X8126786Y-13471786D01*
X8141071Y-13500357D01*
X8155357Y-13557500D01*
X8155357Y-13628929D01*
X8141071Y-13686071D01*
X8126786Y-13714643D01*
X8112500Y-13728929D01*
X8083928Y-13743214D01*
X8055357Y-13743214D01*
X8026786Y-13728929D01*
X8012500Y-13714643D01*
X7998214Y-13686071D01*
X7983928Y-13628929D01*
X7983928Y-13557500D01*
X7998214Y-13500357D01*
X8012500Y-13471786D01*
X8026786Y-13457500D01*
X8055357Y-13443214D01*
X8283928Y-13743214D02*
X8283928Y-13543214D01*
X8283928Y-13571786D02*
X8298214Y-13557500D01*
X8326786Y-13543214D01*
X8369643Y-13543214D01*
X8398214Y-13557500D01*
X8412500Y-13586071D01*
X8412500Y-13743214D01*
X8412500Y-13586071D02*
X8426786Y-13557500D01*
X8455357Y-13543214D01*
X8498214Y-13543214D01*
X8526786Y-13557500D01*
X8541071Y-13586071D01*
X8541071Y-13743214D01*
X8683929Y-13743214D02*
X8683929Y-13543214D01*
X8683929Y-13571786D02*
X8698214Y-13557500D01*
X8726786Y-13543214D01*
X8769643Y-13543214D01*
X8798214Y-13557500D01*
X8812500Y-13586071D01*
X8812500Y-13743214D01*
X8812500Y-13586071D02*
X8826786Y-13557500D01*
X8855357Y-13543214D01*
X8898214Y-13543214D01*
X8926786Y-13557500D01*
X8941071Y-13586071D01*
X8941071Y-13743214D01*
X9526786Y-13428929D02*
X9269643Y-13814643D01*
X9912500Y-13443214D02*
X9941071Y-13443214D01*
X9969643Y-13457500D01*
X9983928Y-13471786D01*
X9998214Y-13500357D01*
X10012500Y-13557500D01*
X10012500Y-13628929D01*
X9998214Y-13686071D01*
X9983928Y-13714643D01*
X9969643Y-13728929D01*
X9941071Y-13743214D01*
X9912500Y-13743214D01*
X9883928Y-13728929D01*
X9869643Y-13714643D01*
X9855357Y-13686071D01*
X9841071Y-13628929D01*
X9841071Y-13557500D01*
X9855357Y-13500357D01*
X9869643Y-13471786D01*
X9883928Y-13457500D01*
X9912500Y-13443214D01*
X10141071Y-13714643D02*
X10155357Y-13728929D01*
X10141071Y-13743214D01*
X10126786Y-13728929D01*
X10141071Y-13714643D01*
X10141071Y-13743214D01*
X10341071Y-13443214D02*
X10369643Y-13443214D01*
X10398214Y-13457500D01*
X10412500Y-13471786D01*
X10426786Y-13500357D01*
X10441071Y-13557500D01*
X10441071Y-13628929D01*
X10426786Y-13686071D01*
X10412500Y-13714643D01*
X10398214Y-13728929D01*
X10369643Y-13743214D01*
X10341071Y-13743214D01*
X10312500Y-13728929D01*
X10298214Y-13714643D01*
X10283928Y-13686071D01*
X10269643Y-13628929D01*
X10269643Y-13557500D01*
X10283928Y-13500357D01*
X10298214Y-13471786D01*
X10312500Y-13457500D01*
X10341071Y-13443214D01*
X10726786Y-13743214D02*
X10555357Y-13743214D01*
X10641071Y-13743214D02*
X10641071Y-13443214D01*
X10612500Y-13486071D01*
X10583928Y-13514643D01*
X10555357Y-13528929D01*
X10983928Y-13443214D02*
X10926786Y-13443214D01*
X10898214Y-13457500D01*
X10883928Y-13471786D01*
X10855357Y-13514643D01*
X10841071Y-13571786D01*
X10841071Y-13686071D01*
X10855357Y-13714643D01*
X10869643Y-13728929D01*
X10898214Y-13743214D01*
X10955357Y-13743214D01*
X10983928Y-13728929D01*
X10998214Y-13714643D01*
X11012500Y-13686071D01*
X11012500Y-13614643D01*
X10998214Y-13586071D01*
X10983928Y-13571786D01*
X10955357Y-13557500D01*
X10898214Y-13557500D01*
X10869643Y-13571786D01*
X10855357Y-13586071D01*
X10841071Y-13614643D01*
X11126786Y-13443214D02*
X11126786Y-13500357D01*
X11241071Y-13443214D02*
X11241071Y-13500357D01*
X11683928Y-13857500D02*
X11669643Y-13843214D01*
X11641071Y-13800357D01*
X11626785Y-13771786D01*
X11612500Y-13728929D01*
X11598214Y-13657500D01*
X11598214Y-13600357D01*
X11612500Y-13528929D01*
X11626785Y-13486071D01*
X11641071Y-13457500D01*
X11669643Y-13414643D01*
X11683928Y-13400357D01*
X11926785Y-13543214D02*
X11926785Y-13743214D01*
X11855357Y-13428929D02*
X11783928Y-13643214D01*
X11969643Y-13643214D01*
X12126785Y-13571786D02*
X12098214Y-13557500D01*
X12083928Y-13543214D01*
X12069643Y-13514643D01*
X12069643Y-13500357D01*
X12083928Y-13471786D01*
X12098214Y-13457500D01*
X12126785Y-13443214D01*
X12183928Y-13443214D01*
X12212500Y-13457500D01*
X12226785Y-13471786D01*
X12241071Y-13500357D01*
X12241071Y-13514643D01*
X12226785Y-13543214D01*
X12212500Y-13557500D01*
X12183928Y-13571786D01*
X12126785Y-13571786D01*
X12098214Y-13586071D01*
X12083928Y-13600357D01*
X12069643Y-13628929D01*
X12069643Y-13686071D01*
X12083928Y-13714643D01*
X12098214Y-13728929D01*
X12126785Y-13743214D01*
X12183928Y-13743214D01*
X12212500Y-13728929D01*
X12226785Y-13714643D01*
X12241071Y-13686071D01*
X12241071Y-13628929D01*
X12226785Y-13600357D01*
X12212500Y-13586071D01*
X12183928Y-13571786D01*
X12598214Y-13743214D02*
X12598214Y-13443214D01*
X12726785Y-13743214D02*
X12726785Y-13586071D01*
X12712500Y-13557500D01*
X12683928Y-13543214D01*
X12641071Y-13543214D01*
X12612500Y-13557500D01*
X12598214Y-13571786D01*
X12912500Y-13743214D02*
X12883928Y-13728929D01*
X12869643Y-13714643D01*
X12855357Y-13686071D01*
X12855357Y-13600357D01*
X12869643Y-13571786D01*
X12883928Y-13557500D01*
X12912500Y-13543214D01*
X12955357Y-13543214D01*
X12983928Y-13557500D01*
X12998214Y-13571786D01*
X13012500Y-13600357D01*
X13012500Y-13686071D01*
X12998214Y-13714643D01*
X12983928Y-13728929D01*
X12955357Y-13743214D01*
X12912500Y-13743214D01*
X13183928Y-13743214D02*
X13155357Y-13728929D01*
X13141071Y-13700357D01*
X13141071Y-13443214D01*
X13412500Y-13728929D02*
X13383928Y-13743214D01*
X13326786Y-13743214D01*
X13298214Y-13728929D01*
X13283928Y-13700357D01*
X13283928Y-13586071D01*
X13298214Y-13557500D01*
X13326786Y-13543214D01*
X13383928Y-13543214D01*
X13412500Y-13557500D01*
X13426786Y-13586071D01*
X13426786Y-13614643D01*
X13283928Y-13643214D01*
X13541071Y-13728929D02*
X13569643Y-13743214D01*
X13626786Y-13743214D01*
X13655357Y-13728929D01*
X13669643Y-13700357D01*
X13669643Y-13686071D01*
X13655357Y-13657500D01*
X13626786Y-13643214D01*
X13583928Y-13643214D01*
X13555357Y-13628929D01*
X13541071Y-13600357D01*
X13541071Y-13586071D01*
X13555357Y-13557500D01*
X13583928Y-13543214D01*
X13626786Y-13543214D01*
X13655357Y-13557500D01*
X13769643Y-13857500D02*
X13783928Y-13843214D01*
X13812500Y-13800357D01*
X13826786Y-13771786D01*
X13841071Y-13728929D01*
X13855357Y-13657500D01*
X13855357Y-13600357D01*
X13841071Y-13528929D01*
X13826786Y-13486071D01*
X13812500Y-13457500D01*
X13783928Y-13414643D01*
X13769643Y-13400357D01*
X7012500Y-14003500D02*
G75*
G03X7012500Y-14003500I-38100J0D01*
G01*
X7341071Y-13839214D02*
X7369643Y-13839214D01*
X7398214Y-13853500D01*
X7412500Y-13867786D01*
X7426786Y-13896357D01*
X7441071Y-13953500D01*
X7441071Y-14024929D01*
X7426786Y-14082071D01*
X7412500Y-14110643D01*
X7398214Y-14124929D01*
X7369643Y-14139214D01*
X7341071Y-14139214D01*
X7312500Y-14124929D01*
X7298214Y-14110643D01*
X7283928Y-14082071D01*
X7269643Y-14024929D01*
X7269643Y-13953500D01*
X7283928Y-13896357D01*
X7298214Y-13867786D01*
X7312500Y-13853500D01*
X7341071Y-13839214D01*
X7569643Y-14110643D02*
X7583928Y-14124929D01*
X7569643Y-14139214D01*
X7555357Y-14124929D01*
X7569643Y-14110643D01*
X7569643Y-14139214D01*
X7683928Y-13839214D02*
X7883928Y-13839214D01*
X7755357Y-14139214D01*
X8126786Y-13839214D02*
X8069643Y-13839214D01*
X8041071Y-13853500D01*
X8026786Y-13867786D01*
X7998214Y-13910643D01*
X7983928Y-13967786D01*
X7983928Y-14082071D01*
X7998214Y-14110643D01*
X8012500Y-14124929D01*
X8041071Y-14139214D01*
X8098214Y-14139214D01*
X8126786Y-14124929D01*
X8141071Y-14110643D01*
X8155357Y-14082071D01*
X8155357Y-14010643D01*
X8141071Y-13982071D01*
X8126786Y-13967786D01*
X8098214Y-13953500D01*
X8041071Y-13953500D01*
X8012500Y-13967786D01*
X7998214Y-13982071D01*
X7983928Y-14010643D01*
X8283928Y-14139214D02*
X8283928Y-13939214D01*
X8283928Y-13967786D02*
X8298214Y-13953500D01*
X8326786Y-13939214D01*
X8369643Y-13939214D01*
X8398214Y-13953500D01*
X8412500Y-13982071D01*
X8412500Y-14139214D01*
X8412500Y-13982071D02*
X8426786Y-13953500D01*
X8455357Y-13939214D01*
X8498214Y-13939214D01*
X8526786Y-13953500D01*
X8541071Y-13982071D01*
X8541071Y-14139214D01*
X8683929Y-14139214D02*
X8683929Y-13939214D01*
X8683929Y-13967786D02*
X8698214Y-13953500D01*
X8726786Y-13939214D01*
X8769643Y-13939214D01*
X8798214Y-13953500D01*
X8812500Y-13982071D01*
X8812500Y-14139214D01*
X8812500Y-13982071D02*
X8826786Y-13953500D01*
X8855357Y-13939214D01*
X8898214Y-13939214D01*
X8926786Y-13953500D01*
X8941071Y-13982071D01*
X8941071Y-14139214D01*
X9526786Y-13824929D02*
X9269643Y-14210643D01*
X9912500Y-13839214D02*
X9941071Y-13839214D01*
X9969643Y-13853500D01*
X9983928Y-13867786D01*
X9998214Y-13896357D01*
X10012500Y-13953500D01*
X10012500Y-14024929D01*
X9998214Y-14082071D01*
X9983928Y-14110643D01*
X9969643Y-14124929D01*
X9941071Y-14139214D01*
X9912500Y-14139214D01*
X9883928Y-14124929D01*
X9869643Y-14110643D01*
X9855357Y-14082071D01*
X9841071Y-14024929D01*
X9841071Y-13953500D01*
X9855357Y-13896357D01*
X9869643Y-13867786D01*
X9883928Y-13853500D01*
X9912500Y-13839214D01*
X10141071Y-14110643D02*
X10155357Y-14124929D01*
X10141071Y-14139214D01*
X10126786Y-14124929D01*
X10141071Y-14110643D01*
X10141071Y-14139214D01*
X10341071Y-13839214D02*
X10369643Y-13839214D01*
X10398214Y-13853500D01*
X10412500Y-13867786D01*
X10426786Y-13896357D01*
X10441071Y-13953500D01*
X10441071Y-14024929D01*
X10426786Y-14082071D01*
X10412500Y-14110643D01*
X10398214Y-14124929D01*
X10369643Y-14139214D01*
X10341071Y-14139214D01*
X10312500Y-14124929D01*
X10298214Y-14110643D01*
X10283928Y-14082071D01*
X10269643Y-14024929D01*
X10269643Y-13953500D01*
X10283928Y-13896357D01*
X10298214Y-13867786D01*
X10312500Y-13853500D01*
X10341071Y-13839214D01*
X10541071Y-13839214D02*
X10726786Y-13839214D01*
X10626786Y-13953500D01*
X10669643Y-13953500D01*
X10698214Y-13967786D01*
X10712500Y-13982071D01*
X10726786Y-14010643D01*
X10726786Y-14082071D01*
X10712500Y-14110643D01*
X10698214Y-14124929D01*
X10669643Y-14139214D01*
X10583928Y-14139214D01*
X10555357Y-14124929D01*
X10541071Y-14110643D01*
X10912500Y-13839214D02*
X10941071Y-13839214D01*
X10969643Y-13853500D01*
X10983928Y-13867786D01*
X10998214Y-13896357D01*
X11012500Y-13953500D01*
X11012500Y-14024929D01*
X10998214Y-14082071D01*
X10983928Y-14110643D01*
X10969643Y-14124929D01*
X10941071Y-14139214D01*
X10912500Y-14139214D01*
X10883928Y-14124929D01*
X10869643Y-14110643D01*
X10855357Y-14082071D01*
X10841071Y-14024929D01*
X10841071Y-13953500D01*
X10855357Y-13896357D01*
X10869643Y-13867786D01*
X10883928Y-13853500D01*
X10912500Y-13839214D01*
X11126786Y-13839214D02*
X11126786Y-13896357D01*
X11241071Y-13839214D02*
X11241071Y-13896357D01*
X11683928Y-14253500D02*
X11669643Y-14239214D01*
X11641071Y-14196357D01*
X11626785Y-14167786D01*
X11612500Y-14124929D01*
X11598214Y-14053500D01*
X11598214Y-13996357D01*
X11612500Y-13924929D01*
X11626785Y-13882071D01*
X11641071Y-13853500D01*
X11669643Y-13810643D01*
X11683928Y-13796357D01*
X11769643Y-13839214D02*
X11969643Y-13839214D01*
X11841071Y-14139214D01*
X12098214Y-14139214D02*
X12155357Y-14139214D01*
X12183928Y-14124929D01*
X12198214Y-14110643D01*
X12226785Y-14067786D01*
X12241071Y-14010643D01*
X12241071Y-13896357D01*
X12226785Y-13867786D01*
X12212500Y-13853500D01*
X12183928Y-13839214D01*
X12126785Y-13839214D01*
X12098214Y-13853500D01*
X12083928Y-13867786D01*
X12069643Y-13896357D01*
X12069643Y-13967786D01*
X12083928Y-13996357D01*
X12098214Y-14010643D01*
X12126785Y-14024929D01*
X12183928Y-14024929D01*
X12212500Y-14010643D01*
X12226785Y-13996357D01*
X12241071Y-13967786D01*
X12598214Y-14139214D02*
X12598214Y-13839214D01*
X12726785Y-14139214D02*
X12726785Y-13982071D01*
X12712500Y-13953500D01*
X12683928Y-13939214D01*
X12641071Y-13939214D01*
X12612500Y-13953500D01*
X12598214Y-13967786D01*
X12912500Y-14139214D02*
X12883928Y-14124929D01*
X12869643Y-14110643D01*
X12855357Y-14082071D01*
X12855357Y-13996357D01*
X12869643Y-13967786D01*
X12883928Y-13953500D01*
X12912500Y-13939214D01*
X12955357Y-13939214D01*
X12983928Y-13953500D01*
X12998214Y-13967786D01*
X13012500Y-13996357D01*
X13012500Y-14082071D01*
X12998214Y-14110643D01*
X12983928Y-14124929D01*
X12955357Y-14139214D01*
X12912500Y-14139214D01*
X13183928Y-14139214D02*
X13155357Y-14124929D01*
X13141071Y-14096357D01*
X13141071Y-13839214D01*
X13412500Y-14124929D02*
X13383928Y-14139214D01*
X13326786Y-14139214D01*
X13298214Y-14124929D01*
X13283928Y-14096357D01*
X13283928Y-13982071D01*
X13298214Y-13953500D01*
X13326786Y-13939214D01*
X13383928Y-13939214D01*
X13412500Y-13953500D01*
X13426786Y-13982071D01*
X13426786Y-14010643D01*
X13283928Y-14039214D01*
X13541071Y-14124929D02*
X13569643Y-14139214D01*
X13626786Y-14139214D01*
X13655357Y-14124929D01*
X13669643Y-14096357D01*
X13669643Y-14082071D01*
X13655357Y-14053500D01*
X13626786Y-14039214D01*
X13583928Y-14039214D01*
X13555357Y-14024929D01*
X13541071Y-13996357D01*
X13541071Y-13982071D01*
X13555357Y-13953500D01*
X13583928Y-13939214D01*
X13626786Y-13939214D01*
X13655357Y-13953500D01*
X13769643Y-14253500D02*
X13783928Y-14239214D01*
X13812500Y-14196357D01*
X13826786Y-14167786D01*
X13841071Y-14124929D01*
X13855357Y-14053500D01*
X13855357Y-13996357D01*
X13841071Y-13924929D01*
X13826786Y-13882071D01*
X13812500Y-13853500D01*
X13783928Y-13810643D01*
X13769643Y-13796357D01*
X6972500Y-14359500D02*
X6972500Y-14439500D01*
X6932500Y-14399500D02*
X7012500Y-14399500D01*
X7341071Y-14235214D02*
X7369643Y-14235214D01*
X7398214Y-14249500D01*
X7412500Y-14263786D01*
X7426786Y-14292357D01*
X7441071Y-14349500D01*
X7441071Y-14420929D01*
X7426786Y-14478071D01*
X7412500Y-14506643D01*
X7398214Y-14520929D01*
X7369643Y-14535214D01*
X7341071Y-14535214D01*
X7312500Y-14520929D01*
X7298214Y-14506643D01*
X7283928Y-14478071D01*
X7269643Y-14420929D01*
X7269643Y-14349500D01*
X7283928Y-14292357D01*
X7298214Y-14263786D01*
X7312500Y-14249500D01*
X7341071Y-14235214D01*
X7569643Y-14506643D02*
X7583928Y-14520929D01*
X7569643Y-14535214D01*
X7555357Y-14520929D01*
X7569643Y-14506643D01*
X7569643Y-14535214D01*
X7755357Y-14363786D02*
X7726786Y-14349500D01*
X7712500Y-14335214D01*
X7698214Y-14306643D01*
X7698214Y-14292357D01*
X7712500Y-14263786D01*
X7726786Y-14249500D01*
X7755357Y-14235214D01*
X7812500Y-14235214D01*
X7841071Y-14249500D01*
X7855357Y-14263786D01*
X7869643Y-14292357D01*
X7869643Y-14306643D01*
X7855357Y-14335214D01*
X7841071Y-14349500D01*
X7812500Y-14363786D01*
X7755357Y-14363786D01*
X7726786Y-14378071D01*
X7712500Y-14392357D01*
X7698214Y-14420929D01*
X7698214Y-14478071D01*
X7712500Y-14506643D01*
X7726786Y-14520929D01*
X7755357Y-14535214D01*
X7812500Y-14535214D01*
X7841071Y-14520929D01*
X7855357Y-14506643D01*
X7869643Y-14478071D01*
X7869643Y-14420929D01*
X7855357Y-14392357D01*
X7841071Y-14378071D01*
X7812500Y-14363786D01*
X8055357Y-14235214D02*
X8083928Y-14235214D01*
X8112500Y-14249500D01*
X8126786Y-14263786D01*
X8141071Y-14292357D01*
X8155357Y-14349500D01*
X8155357Y-14420929D01*
X8141071Y-14478071D01*
X8126786Y-14506643D01*
X8112500Y-14520929D01*
X8083928Y-14535214D01*
X8055357Y-14535214D01*
X8026786Y-14520929D01*
X8012500Y-14506643D01*
X7998214Y-14478071D01*
X7983928Y-14420929D01*
X7983928Y-14349500D01*
X7998214Y-14292357D01*
X8012500Y-14263786D01*
X8026786Y-14249500D01*
X8055357Y-14235214D01*
X8283928Y-14535214D02*
X8283928Y-14335214D01*
X8283928Y-14363786D02*
X8298214Y-14349500D01*
X8326786Y-14335214D01*
X8369643Y-14335214D01*
X8398214Y-14349500D01*
X8412500Y-14378071D01*
X8412500Y-14535214D01*
X8412500Y-14378071D02*
X8426786Y-14349500D01*
X8455357Y-14335214D01*
X8498214Y-14335214D01*
X8526786Y-14349500D01*
X8541071Y-14378071D01*
X8541071Y-14535214D01*
X8683929Y-14535214D02*
X8683929Y-14335214D01*
X8683929Y-14363786D02*
X8698214Y-14349500D01*
X8726786Y-14335214D01*
X8769643Y-14335214D01*
X8798214Y-14349500D01*
X8812500Y-14378071D01*
X8812500Y-14535214D01*
X8812500Y-14378071D02*
X8826786Y-14349500D01*
X8855357Y-14335214D01*
X8898214Y-14335214D01*
X8926786Y-14349500D01*
X8941071Y-14378071D01*
X8941071Y-14535214D01*
X9526786Y-14220929D02*
X9269643Y-14606643D01*
X9912500Y-14235214D02*
X9941071Y-14235214D01*
X9969643Y-14249500D01*
X9983928Y-14263786D01*
X9998214Y-14292357D01*
X10012500Y-14349500D01*
X10012500Y-14420929D01*
X9998214Y-14478071D01*
X9983928Y-14506643D01*
X9969643Y-14520929D01*
X9941071Y-14535214D01*
X9912500Y-14535214D01*
X9883928Y-14520929D01*
X9869643Y-14506643D01*
X9855357Y-14478071D01*
X9841071Y-14420929D01*
X9841071Y-14349500D01*
X9855357Y-14292357D01*
X9869643Y-14263786D01*
X9883928Y-14249500D01*
X9912500Y-14235214D01*
X10141071Y-14506643D02*
X10155357Y-14520929D01*
X10141071Y-14535214D01*
X10126786Y-14520929D01*
X10141071Y-14506643D01*
X10141071Y-14535214D01*
X10341071Y-14235214D02*
X10369643Y-14235214D01*
X10398214Y-14249500D01*
X10412500Y-14263786D01*
X10426786Y-14292357D01*
X10441071Y-14349500D01*
X10441071Y-14420929D01*
X10426786Y-14478071D01*
X10412500Y-14506643D01*
X10398214Y-14520929D01*
X10369643Y-14535214D01*
X10341071Y-14535214D01*
X10312500Y-14520929D01*
X10298214Y-14506643D01*
X10283928Y-14478071D01*
X10269643Y-14420929D01*
X10269643Y-14349500D01*
X10283928Y-14292357D01*
X10298214Y-14263786D01*
X10312500Y-14249500D01*
X10341071Y-14235214D01*
X10541071Y-14235214D02*
X10726786Y-14235214D01*
X10626786Y-14349500D01*
X10669643Y-14349500D01*
X10698214Y-14363786D01*
X10712500Y-14378071D01*
X10726786Y-14406643D01*
X10726786Y-14478071D01*
X10712500Y-14506643D01*
X10698214Y-14520929D01*
X10669643Y-14535214D01*
X10583928Y-14535214D01*
X10555357Y-14520929D01*
X10541071Y-14506643D01*
X11012500Y-14535214D02*
X10841071Y-14535214D01*
X10926786Y-14535214D02*
X10926786Y-14235214D01*
X10898214Y-14278071D01*
X10869643Y-14306643D01*
X10841071Y-14320929D01*
X11126786Y-14235214D02*
X11126786Y-14292357D01*
X11241071Y-14235214D02*
X11241071Y-14292357D01*
X11683928Y-14649500D02*
X11669643Y-14635214D01*
X11641071Y-14592357D01*
X11626785Y-14563786D01*
X11612500Y-14520929D01*
X11598214Y-14449500D01*
X11598214Y-14392357D01*
X11612500Y-14320929D01*
X11626785Y-14278071D01*
X11641071Y-14249500D01*
X11669643Y-14206643D01*
X11683928Y-14192357D01*
X11926785Y-14335214D02*
X11926785Y-14535214D01*
X11855357Y-14220929D02*
X11783928Y-14435214D01*
X11969643Y-14435214D01*
X12141071Y-14235214D02*
X12169643Y-14235214D01*
X12198214Y-14249500D01*
X12212500Y-14263786D01*
X12226785Y-14292357D01*
X12241071Y-14349500D01*
X12241071Y-14420929D01*
X12226785Y-14478071D01*
X12212500Y-14506643D01*
X12198214Y-14520929D01*
X12169643Y-14535214D01*
X12141071Y-14535214D01*
X12112500Y-14520929D01*
X12098214Y-14506643D01*
X12083928Y-14478071D01*
X12069643Y-14420929D01*
X12069643Y-14349500D01*
X12083928Y-14292357D01*
X12098214Y-14263786D01*
X12112500Y-14249500D01*
X12141071Y-14235214D01*
X12598214Y-14535214D02*
X12598214Y-14235214D01*
X12726785Y-14535214D02*
X12726785Y-14378071D01*
X12712500Y-14349500D01*
X12683928Y-14335214D01*
X12641071Y-14335214D01*
X12612500Y-14349500D01*
X12598214Y-14363786D01*
X12912500Y-14535214D02*
X12883928Y-14520929D01*
X12869643Y-14506643D01*
X12855357Y-14478071D01*
X12855357Y-14392357D01*
X12869643Y-14363786D01*
X12883928Y-14349500D01*
X12912500Y-14335214D01*
X12955357Y-14335214D01*
X12983928Y-14349500D01*
X12998214Y-14363786D01*
X13012500Y-14392357D01*
X13012500Y-14478071D01*
X12998214Y-14506643D01*
X12983928Y-14520929D01*
X12955357Y-14535214D01*
X12912500Y-14535214D01*
X13183928Y-14535214D02*
X13155357Y-14520929D01*
X13141071Y-14492357D01*
X13141071Y-14235214D01*
X13412500Y-14520929D02*
X13383928Y-14535214D01*
X13326786Y-14535214D01*
X13298214Y-14520929D01*
X13283928Y-14492357D01*
X13283928Y-14378071D01*
X13298214Y-14349500D01*
X13326786Y-14335214D01*
X13383928Y-14335214D01*
X13412500Y-14349500D01*
X13426786Y-14378071D01*
X13426786Y-14406643D01*
X13283928Y-14435214D01*
X13541071Y-14520929D02*
X13569643Y-14535214D01*
X13626786Y-14535214D01*
X13655357Y-14520929D01*
X13669643Y-14492357D01*
X13669643Y-14478071D01*
X13655357Y-14449500D01*
X13626786Y-14435214D01*
X13583928Y-14435214D01*
X13555357Y-14420929D01*
X13541071Y-14392357D01*
X13541071Y-14378071D01*
X13555357Y-14349500D01*
X13583928Y-14335214D01*
X13626786Y-14335214D01*
X13655357Y-14349500D01*
X13769643Y-14649500D02*
X13783928Y-14635214D01*
X13812500Y-14592357D01*
X13826786Y-14563786D01*
X13841071Y-14520929D01*
X13855357Y-14449500D01*
X13855357Y-14392357D01*
X13841071Y-14320929D01*
X13826786Y-14278071D01*
X13812500Y-14249500D01*
X13783928Y-14206643D01*
X13769643Y-14192357D01*
X6997856Y-14830856D02*
X6997856Y-14760144D01*
X6927144Y-14760144D01*
X6927144Y-14830856D01*
X6997856Y-14830856D01*
X7441071Y-14931214D02*
X7269643Y-14931214D01*
X7355357Y-14931214D02*
X7355357Y-14631214D01*
X7326786Y-14674071D01*
X7298214Y-14702643D01*
X7269643Y-14716929D01*
X7569643Y-14902643D02*
X7583928Y-14916929D01*
X7569643Y-14931214D01*
X7555357Y-14916929D01*
X7569643Y-14902643D01*
X7569643Y-14931214D01*
X7769643Y-14631214D02*
X7798214Y-14631214D01*
X7826786Y-14645500D01*
X7841071Y-14659786D01*
X7855357Y-14688357D01*
X7869643Y-14745500D01*
X7869643Y-14816929D01*
X7855357Y-14874071D01*
X7841071Y-14902643D01*
X7826786Y-14916929D01*
X7798214Y-14931214D01*
X7769643Y-14931214D01*
X7741071Y-14916929D01*
X7726786Y-14902643D01*
X7712500Y-14874071D01*
X7698214Y-14816929D01*
X7698214Y-14745500D01*
X7712500Y-14688357D01*
X7726786Y-14659786D01*
X7741071Y-14645500D01*
X7769643Y-14631214D01*
X8055357Y-14631214D02*
X8083928Y-14631214D01*
X8112500Y-14645500D01*
X8126786Y-14659786D01*
X8141071Y-14688357D01*
X8155357Y-14745500D01*
X8155357Y-14816929D01*
X8141071Y-14874071D01*
X8126786Y-14902643D01*
X8112500Y-14916929D01*
X8083928Y-14931214D01*
X8055357Y-14931214D01*
X8026786Y-14916929D01*
X8012500Y-14902643D01*
X7998214Y-14874071D01*
X7983928Y-14816929D01*
X7983928Y-14745500D01*
X7998214Y-14688357D01*
X8012500Y-14659786D01*
X8026786Y-14645500D01*
X8055357Y-14631214D01*
X8283928Y-14931214D02*
X8283928Y-14731214D01*
X8283928Y-14759786D02*
X8298214Y-14745500D01*
X8326786Y-14731214D01*
X8369643Y-14731214D01*
X8398214Y-14745500D01*
X8412500Y-14774071D01*
X8412500Y-14931214D01*
X8412500Y-14774071D02*
X8426786Y-14745500D01*
X8455357Y-14731214D01*
X8498214Y-14731214D01*
X8526786Y-14745500D01*
X8541071Y-14774071D01*
X8541071Y-14931214D01*
X8683929Y-14931214D02*
X8683929Y-14731214D01*
X8683929Y-14759786D02*
X8698214Y-14745500D01*
X8726786Y-14731214D01*
X8769643Y-14731214D01*
X8798214Y-14745500D01*
X8812500Y-14774071D01*
X8812500Y-14931214D01*
X8812500Y-14774071D02*
X8826786Y-14745500D01*
X8855357Y-14731214D01*
X8898214Y-14731214D01*
X8926786Y-14745500D01*
X8941071Y-14774071D01*
X8941071Y-14931214D01*
X9526786Y-14616929D02*
X9269643Y-15002643D01*
X9912500Y-14631214D02*
X9941071Y-14631214D01*
X9969643Y-14645500D01*
X9983928Y-14659786D01*
X9998214Y-14688357D01*
X10012500Y-14745500D01*
X10012500Y-14816929D01*
X9998214Y-14874071D01*
X9983928Y-14902643D01*
X9969643Y-14916929D01*
X9941071Y-14931214D01*
X9912500Y-14931214D01*
X9883928Y-14916929D01*
X9869643Y-14902643D01*
X9855357Y-14874071D01*
X9841071Y-14816929D01*
X9841071Y-14745500D01*
X9855357Y-14688357D01*
X9869643Y-14659786D01*
X9883928Y-14645500D01*
X9912500Y-14631214D01*
X10141071Y-14902643D02*
X10155357Y-14916929D01*
X10141071Y-14931214D01*
X10126786Y-14916929D01*
X10141071Y-14902643D01*
X10141071Y-14931214D01*
X10341071Y-14631214D02*
X10369643Y-14631214D01*
X10398214Y-14645500D01*
X10412500Y-14659786D01*
X10426786Y-14688357D01*
X10441071Y-14745500D01*
X10441071Y-14816929D01*
X10426786Y-14874071D01*
X10412500Y-14902643D01*
X10398214Y-14916929D01*
X10369643Y-14931214D01*
X10341071Y-14931214D01*
X10312500Y-14916929D01*
X10298214Y-14902643D01*
X10283928Y-14874071D01*
X10269643Y-14816929D01*
X10269643Y-14745500D01*
X10283928Y-14688357D01*
X10298214Y-14659786D01*
X10312500Y-14645500D01*
X10341071Y-14631214D01*
X10541071Y-14631214D02*
X10726786Y-14631214D01*
X10626786Y-14745500D01*
X10669643Y-14745500D01*
X10698214Y-14759786D01*
X10712500Y-14774071D01*
X10726786Y-14802643D01*
X10726786Y-14874071D01*
X10712500Y-14902643D01*
X10698214Y-14916929D01*
X10669643Y-14931214D01*
X10583928Y-14931214D01*
X10555357Y-14916929D01*
X10541071Y-14902643D01*
X10869643Y-14931214D02*
X10926786Y-14931214D01*
X10955357Y-14916929D01*
X10969643Y-14902643D01*
X10998214Y-14859786D01*
X11012500Y-14802643D01*
X11012500Y-14688357D01*
X10998214Y-14659786D01*
X10983928Y-14645500D01*
X10955357Y-14631214D01*
X10898214Y-14631214D01*
X10869643Y-14645500D01*
X10855357Y-14659786D01*
X10841071Y-14688357D01*
X10841071Y-14759786D01*
X10855357Y-14788357D01*
X10869643Y-14802643D01*
X10898214Y-14816929D01*
X10955357Y-14816929D01*
X10983928Y-14802643D01*
X10998214Y-14788357D01*
X11012500Y-14759786D01*
X11126786Y-14631214D02*
X11126786Y-14688357D01*
X11241071Y-14631214D02*
X11241071Y-14688357D01*
X11683928Y-15045500D02*
X11669643Y-15031214D01*
X11641071Y-14988357D01*
X11626785Y-14959786D01*
X11612500Y-14916929D01*
X11598214Y-14845500D01*
X11598214Y-14788357D01*
X11612500Y-14716929D01*
X11626785Y-14674071D01*
X11641071Y-14645500D01*
X11669643Y-14602643D01*
X11683928Y-14588357D01*
X11926785Y-14631214D02*
X11869643Y-14631214D01*
X11841071Y-14645500D01*
X11826785Y-14659786D01*
X11798214Y-14702643D01*
X11783928Y-14759786D01*
X11783928Y-14874071D01*
X11798214Y-14902643D01*
X11812500Y-14916929D01*
X11841071Y-14931214D01*
X11898214Y-14931214D01*
X11926785Y-14916929D01*
X11941071Y-14902643D01*
X11955357Y-14874071D01*
X11955357Y-14802643D01*
X11941071Y-14774071D01*
X11926785Y-14759786D01*
X11898214Y-14745500D01*
X11841071Y-14745500D01*
X11812500Y-14759786D01*
X11798214Y-14774071D01*
X11783928Y-14802643D01*
X12312500Y-14931214D02*
X12312500Y-14631214D01*
X12441071Y-14931214D02*
X12441071Y-14774071D01*
X12426785Y-14745500D01*
X12398214Y-14731214D01*
X12355357Y-14731214D01*
X12326785Y-14745500D01*
X12312500Y-14759786D01*
X12626785Y-14931214D02*
X12598214Y-14916929D01*
X12583928Y-14902643D01*
X12569643Y-14874071D01*
X12569643Y-14788357D01*
X12583928Y-14759786D01*
X12598214Y-14745500D01*
X12626785Y-14731214D01*
X12669643Y-14731214D01*
X12698214Y-14745500D01*
X12712500Y-14759786D01*
X12726785Y-14788357D01*
X12726785Y-14874071D01*
X12712500Y-14902643D01*
X12698214Y-14916929D01*
X12669643Y-14931214D01*
X12626785Y-14931214D01*
X12898214Y-14931214D02*
X12869643Y-14916929D01*
X12855357Y-14888357D01*
X12855357Y-14631214D01*
X13126786Y-14916929D02*
X13098214Y-14931214D01*
X13041071Y-14931214D01*
X13012500Y-14916929D01*
X12998214Y-14888357D01*
X12998214Y-14774071D01*
X13012500Y-14745500D01*
X13041071Y-14731214D01*
X13098214Y-14731214D01*
X13126786Y-14745500D01*
X13141071Y-14774071D01*
X13141071Y-14802643D01*
X12998214Y-14831214D01*
X13255357Y-14916929D02*
X13283928Y-14931214D01*
X13341071Y-14931214D01*
X13369643Y-14916929D01*
X13383928Y-14888357D01*
X13383928Y-14874071D01*
X13369643Y-14845500D01*
X13341071Y-14831214D01*
X13298214Y-14831214D01*
X13269643Y-14816929D01*
X13255357Y-14788357D01*
X13255357Y-14774071D01*
X13269643Y-14745500D01*
X13298214Y-14731214D01*
X13341071Y-14731214D01*
X13369643Y-14745500D01*
X13483928Y-15045500D02*
X13498214Y-15031214D01*
X13526786Y-14988357D01*
X13541071Y-14959786D01*
X13555357Y-14916929D01*
X13569643Y-14845500D01*
X13569643Y-14788357D01*
X13555357Y-14716929D01*
X13541071Y-14674071D01*
X13526786Y-14645500D01*
X13498214Y-14602643D01*
X13483928Y-14588357D01*
X6867500Y-15336500D02*
X7012500Y-15191500D01*
X6867500Y-15046500D01*
X6722500Y-15191500D01*
X6867500Y-15336500D01*
X7269643Y-15055786D02*
X7283928Y-15041500D01*
X7312500Y-15027214D01*
X7383928Y-15027214D01*
X7412500Y-15041500D01*
X7426786Y-15055786D01*
X7441071Y-15084357D01*
X7441071Y-15112929D01*
X7426786Y-15155786D01*
X7255357Y-15327214D01*
X7441071Y-15327214D01*
X7569643Y-15298643D02*
X7583928Y-15312929D01*
X7569643Y-15327214D01*
X7555357Y-15312929D01*
X7569643Y-15298643D01*
X7569643Y-15327214D01*
X7726786Y-15327214D02*
X7783928Y-15327214D01*
X7812500Y-15312929D01*
X7826786Y-15298643D01*
X7855357Y-15255786D01*
X7869643Y-15198643D01*
X7869643Y-15084357D01*
X7855357Y-15055786D01*
X7841071Y-15041500D01*
X7812500Y-15027214D01*
X7755357Y-15027214D01*
X7726786Y-15041500D01*
X7712500Y-15055786D01*
X7698214Y-15084357D01*
X7698214Y-15155786D01*
X7712500Y-15184357D01*
X7726786Y-15198643D01*
X7755357Y-15212929D01*
X7812500Y-15212929D01*
X7841071Y-15198643D01*
X7855357Y-15184357D01*
X7869643Y-15155786D01*
X8055357Y-15027214D02*
X8083928Y-15027214D01*
X8112500Y-15041500D01*
X8126786Y-15055786D01*
X8141071Y-15084357D01*
X8155357Y-15141500D01*
X8155357Y-15212929D01*
X8141071Y-15270071D01*
X8126786Y-15298643D01*
X8112500Y-15312929D01*
X8083928Y-15327214D01*
X8055357Y-15327214D01*
X8026786Y-15312929D01*
X8012500Y-15298643D01*
X7998214Y-15270071D01*
X7983928Y-15212929D01*
X7983928Y-15141500D01*
X7998214Y-15084357D01*
X8012500Y-15055786D01*
X8026786Y-15041500D01*
X8055357Y-15027214D01*
X8283928Y-15327214D02*
X8283928Y-15127214D01*
X8283928Y-15155786D02*
X8298214Y-15141500D01*
X8326786Y-15127214D01*
X8369643Y-15127214D01*
X8398214Y-15141500D01*
X8412500Y-15170071D01*
X8412500Y-15327214D01*
X8412500Y-15170071D02*
X8426786Y-15141500D01*
X8455357Y-15127214D01*
X8498214Y-15127214D01*
X8526786Y-15141500D01*
X8541071Y-15170071D01*
X8541071Y-15327214D01*
X8683929Y-15327214D02*
X8683929Y-15127214D01*
X8683929Y-15155786D02*
X8698214Y-15141500D01*
X8726786Y-15127214D01*
X8769643Y-15127214D01*
X8798214Y-15141500D01*
X8812500Y-15170071D01*
X8812500Y-15327214D01*
X8812500Y-15170071D02*
X8826786Y-15141500D01*
X8855357Y-15127214D01*
X8898214Y-15127214D01*
X8926786Y-15141500D01*
X8941071Y-15170071D01*
X8941071Y-15327214D01*
X9526786Y-15012929D02*
X9269643Y-15398643D01*
X9912500Y-15027214D02*
X9941071Y-15027214D01*
X9969643Y-15041500D01*
X9983928Y-15055786D01*
X9998214Y-15084357D01*
X10012500Y-15141500D01*
X10012500Y-15212929D01*
X9998214Y-15270071D01*
X9983928Y-15298643D01*
X9969643Y-15312929D01*
X9941071Y-15327214D01*
X9912500Y-15327214D01*
X9883928Y-15312929D01*
X9869643Y-15298643D01*
X9855357Y-15270071D01*
X9841071Y-15212929D01*
X9841071Y-15141500D01*
X9855357Y-15084357D01*
X9869643Y-15055786D01*
X9883928Y-15041500D01*
X9912500Y-15027214D01*
X10141071Y-15298643D02*
X10155357Y-15312929D01*
X10141071Y-15327214D01*
X10126786Y-15312929D01*
X10141071Y-15298643D01*
X10141071Y-15327214D01*
X10441071Y-15327214D02*
X10269643Y-15327214D01*
X10355357Y-15327214D02*
X10355357Y-15027214D01*
X10326786Y-15070071D01*
X10298214Y-15098643D01*
X10269643Y-15112929D01*
X10726786Y-15327214D02*
X10555357Y-15327214D01*
X10641071Y-15327214D02*
X10641071Y-15027214D01*
X10612500Y-15070071D01*
X10583928Y-15098643D01*
X10555357Y-15112929D01*
X10983928Y-15127214D02*
X10983928Y-15327214D01*
X10912500Y-15012929D02*
X10841071Y-15227214D01*
X11026786Y-15227214D01*
X11126786Y-15027214D02*
X11126786Y-15084357D01*
X11241071Y-15027214D02*
X11241071Y-15084357D01*
X11683928Y-15441500D02*
X11669643Y-15427214D01*
X11641071Y-15384357D01*
X11626785Y-15355786D01*
X11612500Y-15312929D01*
X11598214Y-15241500D01*
X11598214Y-15184357D01*
X11612500Y-15112929D01*
X11626785Y-15070071D01*
X11641071Y-15041500D01*
X11669643Y-14998643D01*
X11683928Y-14984357D01*
X11783928Y-15055786D02*
X11798214Y-15041500D01*
X11826785Y-15027214D01*
X11898214Y-15027214D01*
X11926785Y-15041500D01*
X11941071Y-15055786D01*
X11955357Y-15084357D01*
X11955357Y-15112929D01*
X11941071Y-15155786D01*
X11769643Y-15327214D01*
X11955357Y-15327214D01*
X12312500Y-15327214D02*
X12312500Y-15027214D01*
X12441071Y-15327214D02*
X12441071Y-15170071D01*
X12426785Y-15141500D01*
X12398214Y-15127214D01*
X12355357Y-15127214D01*
X12326785Y-15141500D01*
X12312500Y-15155786D01*
X12626785Y-15327214D02*
X12598214Y-15312929D01*
X12583928Y-15298643D01*
X12569643Y-15270071D01*
X12569643Y-15184357D01*
X12583928Y-15155786D01*
X12598214Y-15141500D01*
X12626785Y-15127214D01*
X12669643Y-15127214D01*
X12698214Y-15141500D01*
X12712500Y-15155786D01*
X12726785Y-15184357D01*
X12726785Y-15270071D01*
X12712500Y-15298643D01*
X12698214Y-15312929D01*
X12669643Y-15327214D01*
X12626785Y-15327214D01*
X12898214Y-15327214D02*
X12869643Y-15312929D01*
X12855357Y-15284357D01*
X12855357Y-15027214D01*
X13126786Y-15312929D02*
X13098214Y-15327214D01*
X13041071Y-15327214D01*
X13012500Y-15312929D01*
X12998214Y-15284357D01*
X12998214Y-15170071D01*
X13012500Y-15141500D01*
X13041071Y-15127214D01*
X13098214Y-15127214D01*
X13126786Y-15141500D01*
X13141071Y-15170071D01*
X13141071Y-15198643D01*
X12998214Y-15227214D01*
X13255357Y-15312929D02*
X13283928Y-15327214D01*
X13341071Y-15327214D01*
X13369643Y-15312929D01*
X13383928Y-15284357D01*
X13383928Y-15270071D01*
X13369643Y-15241500D01*
X13341071Y-15227214D01*
X13298214Y-15227214D01*
X13269643Y-15212929D01*
X13255357Y-15184357D01*
X13255357Y-15170071D01*
X13269643Y-15141500D01*
X13298214Y-15127214D01*
X13341071Y-15127214D01*
X13369643Y-15141500D01*
X13483928Y-15441500D02*
X13498214Y-15427214D01*
X13526786Y-15384357D01*
X13541071Y-15355786D01*
X13555357Y-15312929D01*
X13569643Y-15241500D01*
X13569643Y-15184357D01*
X13555357Y-15112929D01*
X13541071Y-15070071D01*
X13526786Y-15041500D01*
X13498214Y-14998643D01*
X13483928Y-14984357D01*
M02*
