  0
SECTION
  2
HEADER
  9
$ANGBASE
  50
0.0
  9
$ANGDIR
  70
  1
  9
$MEASUREMENT
  70
0
  0
ENDSEC
  0
SECTION
  2
TABLES
  0
TABLE
  2
LTYPE
  70
1
  0
LTYPE
  2
CONTINUOUS
  70
0
  3
Solid line
  72
65
  73
0
  40
0.0
  0
ENDTAB
  0
TABLE
  2
STYLE
  70
4
  0
STYLE
  2
KICAD
  70
0
  40
0
  41
1
  42
1
  50
0
  71
0
  3
isocp.shx
  0
STYLE
  2
KICADB
  70
0
  40
0
  41
1
  42
1
  50
0
  71
0
  3
isocp.shx
  0
STYLE
  2
KICADI
  70
0
  40
0
  41
1
  42
1
  50
15
  71
0
  3
isocp.shx
  0
STYLE
  2
KICADBI
  70
0
  40
0
  41
1
  42
1
  50
15
  71
0
  3
isocp.shx
  0
ENDTAB
  0
TABLE
  2
LAYER
  70
30
  0
LAYER
  2
BLACK
  70
0
  62
7
  6
CONTINUOUS
  0
LAYER
  2
GRAY1
  70
0
  62
251
  6
CONTINUOUS
  0
LAYER
  2
GRAY2
  70
0
  62
8
  6
CONTINUOUS
  0
LAYER
  2
GRAY3
  70
0
  62
9
  6
CONTINUOUS
  0
LAYER
  2
WHITE
  70
0
  62
7
  6
CONTINUOUS
  0
LAYER
  2
LYELLOW
  70
0
  62
51
  6
CONTINUOUS
  0
LAYER
  2
BLUE1
  70
0
  62
178
  6
CONTINUOUS
  0
LAYER
  2
GREEN1
  70
0
  62
98
  6
CONTINUOUS
  0
LAYER
  2
CYAN1
  70
0
  62
138
  6
CONTINUOUS
  0
LAYER
  2
RED1
  70
0
  62
18
  6
CONTINUOUS
  0
LAYER
  2
MAGENTA1
  70
0
  62
228
  6
CONTINUOUS
  0
LAYER
  2
BROWN1
  70
0
  62
58
  6
CONTINUOUS
  0
LAYER
  2
BLUE2
  70
0
  62
5
  6
CONTINUOUS
  0
LAYER
  2
GREEN2
  70
0
  62
3
  6
CONTINUOUS
  0
LAYER
  2
CYAN2
  70
0
  62
4
  6
CONTINUOUS
  0
LAYER
  2
RED2
  70
0
  62
1
  6
CONTINUOUS
  0
LAYER
  2
MAGENTA2
  70
0
  62
6
  6
CONTINUOUS
  0
LAYER
  2
BROWN2
  70
0
  62
54
  6
CONTINUOUS
  0
LAYER
  2
BLUE3
  70
0
  62
171
  6
CONTINUOUS
  0
LAYER
  2
GREEN3
  70
0
  62
91
  6
CONTINUOUS
  0
LAYER
  2
CYAN3
  70
0
  62
131
  6
CONTINUOUS
  0
LAYER
  2
RED3
  70
0
  62
11
  6
CONTINUOUS
  0
LAYER
  2
MAGENTA3
  70
0
  62
221
  6
CONTINUOUS
  0
LAYER
  2
YELLOW3
  70
0
  62
2
  6
CONTINUOUS
  0
LAYER
  2
BLUE4
  70
0
  62
5
  6
CONTINUOUS
  0
LAYER
  2
GREEN4
  70
0
  62
3
  6
CONTINUOUS
  0
LAYER
  2
CYAN4
  70
0
  62
4
  6
CONTINUOUS
  0
LAYER
  2
RED4
  70
0
  62
1
  6
CONTINUOUS
  0
LAYER
  2
MAGENTA4
  70
0
  62
6
  6
CONTINUOUS
  0
LAYER
  2
YELLOW4
  70
0
  62
2
  6
CONTINUOUS
  0
ENDTAB
  0
ENDSEC
  0
SECTION
  2
ENTITIES
0
LINE
8
Black
10
219.466
20
-120.807
11
217.466
21
-120.807
0
LINE
8
Black
10
217.466
20
-120.807
11
217.466
21
-118.807
0
LINE
8
Black
10
217.466
20
-118.807
11
219.466
21
-118.807
0
LINE
8
Black
10
219.466
20
-118.807
11
219.466
21
-120.807
0
LINE
8
Black
10
203.572
20
-118.868
11
203.873
21
-119.041
0
LINE
8
Black
10
203.873
20
-119.041
11
204.096
21
-119.307
0
LINE
8
Black
10
204.096
20
-119.307
11
204.215
21
-119.634
0
LINE
8
Black
10
204.215
20
-119.634
11
204.215
21
-119.981
0
LINE
8
Black
10
204.215
20
-119.981
11
204.096
21
-120.307
0
LINE
8
Black
10
204.096
20
-120.307
11
203.873
21
-120.573
0
LINE
8
Black
10
203.873
20
-120.573
11
203.572
21
-120.747
0
LINE
8
Black
10
203.572
20
-120.747
11
203.23
21
-120.807
0
LINE
8
Black
10
203.23
20
-120.807
11
203.223
21
-120.807
0
LINE
8
Black
10
203.223
20
-120.807
11
202.881
21
-120.747
0
LINE
8
Black
10
202.881
20
-120.747
11
202.58
21
-120.573
0
LINE
8
Black
10
202.58
20
-120.573
11
202.357
21
-120.307
0
LINE
8
Black
10
202.357
20
-120.307
11
202.238
21
-119.981
0
LINE
8
Black
10
202.238
20
-119.981
11
202.238
21
-119.634
0
LINE
8
Black
10
202.238
20
-119.634
11
202.357
21
-119.307
0
LINE
8
Black
10
202.357
20
-119.307
11
202.58
21
-119.041
0
LINE
8
Black
10
202.58
20
-119.041
11
202.881
21
-118.868
0
LINE
8
Black
10
202.881
20
-118.868
11
203.223
21
-118.807
0
LINE
8
Black
10
203.223
20
-118.807
11
203.23
21
-118.807
0
LINE
8
Black
10
203.23
20
-118.807
11
203.572
21
-118.868
0
LINE
8
Black
10
218.812
20
-116.328
11
219.113
21
-116.501
0
LINE
8
Black
10
219.113
20
-116.501
11
219.336
21
-116.767
0
LINE
8
Black
10
219.336
20
-116.767
11
219.455
21
-117.094
0
LINE
8
Black
10
219.455
20
-117.094
11
219.455
21
-117.441
0
LINE
8
Black
10
219.455
20
-117.441
11
219.336
21
-117.767
0
LINE
8
Black
10
219.336
20
-117.767
11
219.113
21
-118.033
0
LINE
8
Black
10
219.113
20
-118.033
11
218.812
21
-118.207
0
LINE
8
Black
10
218.812
20
-118.207
11
218.47
21
-118.267
0
LINE
8
Black
10
218.47
20
-118.267
11
218.463
21
-118.267
0
LINE
8
Black
10
218.463
20
-118.267
11
218.121
21
-118.207
0
LINE
8
Black
10
218.121
20
-118.207
11
217.82
21
-118.033
0
LINE
8
Black
10
217.82
20
-118.033
11
217.597
21
-117.767
0
LINE
8
Black
10
217.597
20
-117.767
11
217.478
21
-117.441
0
LINE
8
Black
10
217.478
20
-117.441
11
217.478
21
-117.094
0
LINE
8
Black
10
217.478
20
-117.094
11
217.597
21
-116.767
0
LINE
8
Black
10
217.597
20
-116.767
11
217.82
21
-116.501
0
LINE
8
Black
10
217.82
20
-116.501
11
218.121
21
-116.328
0
LINE
8
Black
10
218.121
20
-116.328
11
218.463
21
-116.267
0
LINE
8
Black
10
218.463
20
-116.267
11
218.47
21
-116.267
0
LINE
8
Black
10
218.47
20
-116.267
11
218.812
21
-116.328
0
LINE
8
Black
10
203.572
20
-116.328
11
203.873
21
-116.501
0
LINE
8
Black
10
203.873
20
-116.501
11
204.096
21
-116.767
0
LINE
8
Black
10
204.096
20
-116.767
11
204.215
21
-117.094
0
LINE
8
Black
10
204.215
20
-117.094
11
204.215
21
-117.441
0
LINE
8
Black
10
204.215
20
-117.441
11
204.096
21
-117.767
0
LINE
8
Black
10
204.096
20
-117.767
11
203.873
21
-118.033
0
LINE
8
Black
10
203.873
20
-118.033
11
203.572
21
-118.207
0
LINE
8
Black
10
203.572
20
-118.207
11
203.23
21
-118.267
0
LINE
8
Black
10
203.23
20
-118.267
11
203.223
21
-118.267
0
LINE
8
Black
10
203.223
20
-118.267
11
202.881
21
-118.207
0
LINE
8
Black
10
202.881
20
-118.207
11
202.58
21
-118.033
0
LINE
8
Black
10
202.58
20
-118.033
11
202.357
21
-117.767
0
LINE
8
Black
10
202.357
20
-117.767
11
202.238
21
-117.441
0
LINE
8
Black
10
202.238
20
-117.441
11
202.238
21
-117.094
0
LINE
8
Black
10
202.238
20
-117.094
11
202.357
21
-116.767
0
LINE
8
Black
10
202.357
20
-116.767
11
202.58
21
-116.501
0
LINE
8
Black
10
202.58
20
-116.501
11
202.881
21
-116.328
0
LINE
8
Black
10
202.881
20
-116.328
11
203.223
21
-116.267
0
LINE
8
Black
10
203.223
20
-116.267
11
203.23
21
-116.267
0
LINE
8
Black
10
203.23
20
-116.267
11
203.572
21
-116.328
0
LINE
8
Black
10
207.367
20
-115.09
11
207.657
21
-115.258
0
LINE
8
Black
10
207.657
20
-115.258
11
207.873
21
-115.514
0
LINE
8
Black
10
207.873
20
-115.514
11
207.987
21
-115.83
0
LINE
8
Black
10
207.987
20
-115.83
11
207.987
21
-116.165
0
LINE
8
Black
10
207.987
20
-116.165
11
207.873
21
-116.48
0
LINE
8
Black
10
207.873
20
-116.48
11
207.657
21
-116.737
0
LINE
8
Black
10
207.657
20
-116.737
11
207.367
21
-116.905
0
LINE
8
Black
10
207.367
20
-116.905
11
207.036
21
-116.963
0
LINE
8
Black
10
207.036
20
-116.963
11
206.706
21
-116.905
0
LINE
8
Black
10
206.706
20
-116.905
11
206.416
21
-116.737
0
LINE
8
Black
10
206.416
20
-116.737
11
206.2
21
-116.48
0
LINE
8
Black
10
206.2
20
-116.48
11
206.085
21
-116.165
0
LINE
8
Black
10
206.085
20
-116.165
11
206.085
21
-115.83
0
LINE
8
Black
10
206.085
20
-115.83
11
206.2
21
-115.514
0
LINE
8
Black
10
206.2
20
-115.514
11
206.416
21
-115.258
0
LINE
8
Black
10
206.416
20
-115.258
11
206.706
21
-115.09
0
LINE
8
Black
10
206.706
20
-115.09
11
207.036
21
-115.032
0
LINE
8
Black
10
207.036
20
-115.032
11
207.367
21
-115.09
0
LINE
8
Black
10
209.907
20
-115.09
11
210.197
21
-115.258
0
LINE
8
Black
10
210.197
20
-115.258
11
210.413
21
-115.514
0
LINE
8
Black
10
210.413
20
-115.514
11
210.527
21
-115.83
0
LINE
8
Black
10
210.527
20
-115.83
11
210.527
21
-116.165
0
LINE
8
Black
10
210.527
20
-116.165
11
210.413
21
-116.48
0
LINE
8
Black
10
210.413
20
-116.48
11
210.197
21
-116.737
0
LINE
8
Black
10
210.197
20
-116.737
11
209.907
21
-116.905
0
LINE
8
Black
10
209.907
20
-116.905
11
209.576
21
-116.963
0
LINE
8
Black
10
209.576
20
-116.963
11
209.246
21
-116.905
0
LINE
8
Black
10
209.246
20
-116.905
11
208.956
21
-116.737
0
LINE
8
Black
10
208.956
20
-116.737
11
208.74
21
-116.48
0
LINE
8
Black
10
208.74
20
-116.48
11
208.625
21
-116.165
0
LINE
8
Black
10
208.625
20
-116.165
11
208.625
21
-115.83
0
LINE
8
Black
10
208.625
20
-115.83
11
208.74
21
-115.514
0
LINE
8
Black
10
208.74
20
-115.514
11
208.956
21
-115.258
0
LINE
8
Black
10
208.956
20
-115.258
11
209.246
21
-115.09
0
LINE
8
Black
10
209.246
20
-115.09
11
209.576
21
-115.032
0
LINE
8
Black
10
209.576
20
-115.032
11
209.907
21
-115.09
0
LINE
8
Black
10
212.447
20
-115.09
11
212.737
21
-115.258
0
LINE
8
Black
10
212.737
20
-115.258
11
212.953
21
-115.514
0
LINE
8
Black
10
212.953
20
-115.514
11
213.067
21
-115.83
0
LINE
8
Black
10
213.067
20
-115.83
11
213.067
21
-116.165
0
LINE
8
Black
10
213.067
20
-116.165
11
212.953
21
-116.48
0
LINE
8
Black
10
212.953
20
-116.48
11
212.737
21
-116.737
0
LINE
8
Black
10
212.737
20
-116.737
11
212.447
21
-116.905
0
LINE
8
Black
10
212.447
20
-116.905
11
212.116
21
-116.963
0
LINE
8
Black
10
212.116
20
-116.963
11
211.786
21
-116.905
0
LINE
8
Black
10
211.786
20
-116.905
11
211.496
21
-116.737
0
LINE
8
Black
10
211.496
20
-116.737
11
211.28
21
-116.48
0
LINE
8
Black
10
211.28
20
-116.48
11
211.165
21
-116.165
0
LINE
8
Black
10
211.165
20
-116.165
11
211.165
21
-115.83
0
LINE
8
Black
10
211.165
20
-115.83
11
211.28
21
-115.514
0
LINE
8
Black
10
211.28
20
-115.514
11
211.496
21
-115.258
0
LINE
8
Black
10
211.496
20
-115.258
11
211.786
21
-115.09
0
LINE
8
Black
10
211.786
20
-115.09
11
212.116
21
-115.032
0
LINE
8
Black
10
212.116
20
-115.032
11
212.447
21
-115.09
0
LINE
8
Black
10
214.987
20
-115.09
11
215.277
21
-115.258
0
LINE
8
Black
10
215.277
20
-115.258
11
215.493
21
-115.514
0
LINE
8
Black
10
215.493
20
-115.514
11
215.607
21
-115.83
0
LINE
8
Black
10
215.607
20
-115.83
11
215.607
21
-116.165
0
LINE
8
Black
10
215.607
20
-116.165
11
215.493
21
-116.48
0
LINE
8
Black
10
215.493
20
-116.48
11
215.277
21
-116.737
0
LINE
8
Black
10
215.277
20
-116.737
11
214.987
21
-116.905
0
LINE
8
Black
10
214.987
20
-116.905
11
214.656
21
-116.963
0
LINE
8
Black
10
214.656
20
-116.963
11
214.326
21
-116.905
0
LINE
8
Black
10
214.326
20
-116.905
11
214.036
21
-116.737
0
LINE
8
Black
10
214.036
20
-116.737
11
213.82
21
-116.48
0
LINE
8
Black
10
213.82
20
-116.48
11
213.705
21
-116.165
0
LINE
8
Black
10
213.705
20
-116.165
11
213.705
21
-115.83
0
LINE
8
Black
10
213.705
20
-115.83
11
213.82
21
-115.514
0
LINE
8
Black
10
213.82
20
-115.514
11
214.036
21
-115.258
0
LINE
8
Black
10
214.036
20
-115.258
11
214.326
21
-115.09
0
LINE
8
Black
10
214.326
20
-115.09
11
214.656
21
-115.032
0
LINE
8
Black
10
214.656
20
-115.032
11
214.987
21
-115.09
0
LINE
8
Black
10
203.572
20
-113.788
11
203.873
21
-113.961
0
LINE
8
Black
10
203.873
20
-113.961
11
204.096
21
-114.227
0
LINE
8
Black
10
204.096
20
-114.227
11
204.215
21
-114.554
0
LINE
8
Black
10
204.215
20
-114.554
11
204.215
21
-114.901
0
LINE
8
Black
10
204.215
20
-114.901
11
204.096
21
-115.227
0
LINE
8
Black
10
204.096
20
-115.227
11
203.873
21
-115.493
0
LINE
8
Black
10
203.873
20
-115.493
11
203.572
21
-115.667
0
LINE
8
Black
10
203.572
20
-115.667
11
203.23
21
-115.727
0
LINE
8
Black
10
203.23
20
-115.727
11
203.223
21
-115.727
0
LINE
8
Black
10
203.223
20
-115.727
11
202.881
21
-115.667
0
LINE
8
Black
10
202.881
20
-115.667
11
202.58
21
-115.493
0
LINE
8
Black
10
202.58
20
-115.493
11
202.357
21
-115.227
0
LINE
8
Black
10
202.357
20
-115.227
11
202.238
21
-114.901
0
LINE
8
Black
10
202.238
20
-114.901
11
202.238
21
-114.554
0
LINE
8
Black
10
202.238
20
-114.554
11
202.357
21
-114.227
0
LINE
8
Black
10
202.357
20
-114.227
11
202.58
21
-113.961
0
LINE
8
Black
10
202.58
20
-113.961
11
202.881
21
-113.788
0
LINE
8
Black
10
202.881
20
-113.788
11
203.223
21
-113.727
0
LINE
8
Black
10
203.223
20
-113.727
11
203.23
21
-113.727
0
LINE
8
Black
10
203.23
20
-113.727
11
203.572
21
-113.788
0
LINE
8
Black
10
218.812
20
-113.788
11
219.113
21
-113.961
0
LINE
8
Black
10
219.113
20
-113.961
11
219.336
21
-114.227
0
LINE
8
Black
10
219.336
20
-114.227
11
219.455
21
-114.554
0
LINE
8
Black
10
219.455
20
-114.554
11
219.455
21
-114.901
0
LINE
8
Black
10
219.455
20
-114.901
11
219.336
21
-115.227
0
LINE
8
Black
10
219.336
20
-115.227
11
219.113
21
-115.493
0
LINE
8
Black
10
219.113
20
-115.493
11
218.812
21
-115.667
0
LINE
8
Black
10
218.812
20
-115.667
11
218.47
21
-115.727
0
LINE
8
Black
10
218.47
20
-115.727
11
218.463
21
-115.727
0
LINE
8
Black
10
218.463
20
-115.727
11
218.121
21
-115.667
0
LINE
8
Black
10
218.121
20
-115.667
11
217.82
21
-115.493
0
LINE
8
Black
10
217.82
20
-115.493
11
217.597
21
-115.227
0
LINE
8
Black
10
217.597
20
-115.227
11
217.478
21
-114.901
0
LINE
8
Black
10
217.478
20
-114.901
11
217.478
21
-114.554
0
LINE
8
Black
10
217.478
20
-114.554
11
217.597
21
-114.227
0
LINE
8
Black
10
217.597
20
-114.227
11
217.82
21
-113.961
0
LINE
8
Black
10
217.82
20
-113.961
11
218.121
21
-113.788
0
LINE
8
Black
10
218.121
20
-113.788
11
218.463
21
-113.727
0
LINE
8
Black
10
218.463
20
-113.727
11
218.47
21
-113.727
0
LINE
8
Black
10
218.47
20
-113.727
11
218.812
21
-113.788
0
LINE
8
Black
10
218.812
20
-111.248
11
219.113
21
-111.421
0
LINE
8
Black
10
219.113
20
-111.421
11
219.336
21
-111.687
0
LINE
8
Black
10
219.336
20
-111.687
11
219.455
21
-112.014
0
LINE
8
Black
10
219.455
20
-112.014
11
219.455
21
-112.361
0
LINE
8
Black
10
219.455
20
-112.361
11
219.336
21
-112.687
0
LINE
8
Black
10
219.336
20
-112.687
11
219.113
21
-112.953
0
LINE
8
Black
10
219.113
20
-112.953
11
218.812
21
-113.127
0
LINE
8
Black
10
218.812
20
-113.127
11
218.47
21
-113.187
0
LINE
8
Black
10
218.47
20
-113.187
11
218.463
21
-113.187
0
LINE
8
Black
10
218.463
20
-113.187
11
218.121
21
-113.127
0
LINE
8
Black
10
218.121
20
-113.127
11
217.82
21
-112.953
0
LINE
8
Black
10
217.82
20
-112.953
11
217.597
21
-112.687
0
LINE
8
Black
10
217.597
20
-112.687
11
217.478
21
-112.361
0
LINE
8
Black
10
217.478
20
-112.361
11
217.478
21
-112.014
0
LINE
8
Black
10
217.478
20
-112.014
11
217.597
21
-111.687
0
LINE
8
Black
10
217.597
20
-111.687
11
217.82
21
-111.421
0
LINE
8
Black
10
217.82
20
-111.421
11
218.121
21
-111.248
0
LINE
8
Black
10
218.121
20
-111.248
11
218.463
21
-111.187
0
LINE
8
Black
10
218.463
20
-111.187
11
218.47
21
-111.187
0
LINE
8
Black
10
218.47
20
-111.187
11
218.812
21
-111.248
0
LINE
8
Black
10
203.572
20
-111.248
11
203.873
21
-111.421
0
LINE
8
Black
10
203.873
20
-111.421
11
204.096
21
-111.687
0
LINE
8
Black
10
204.096
20
-111.687
11
204.215
21
-112.014
0
LINE
8
Black
10
204.215
20
-112.014
11
204.215
21
-112.361
0
LINE
8
Black
10
204.215
20
-112.361
11
204.096
21
-112.687
0
LINE
8
Black
10
204.096
20
-112.687
11
203.873
21
-112.953
0
LINE
8
Black
10
203.873
20
-112.953
11
203.572
21
-113.127
0
LINE
8
Black
10
203.572
20
-113.127
11
203.23
21
-113.187
0
LINE
8
Black
10
203.23
20
-113.187
11
203.223
21
-113.187
0
LINE
8
Black
10
203.223
20
-113.187
11
202.881
21
-113.127
0
LINE
8
Black
10
202.881
20
-113.127
11
202.58
21
-112.953
0
LINE
8
Black
10
202.58
20
-112.953
11
202.357
21
-112.687
0
LINE
8
Black
10
202.357
20
-112.687
11
202.238
21
-112.361
0
LINE
8
Black
10
202.238
20
-112.361
11
202.238
21
-112.014
0
LINE
8
Black
10
202.238
20
-112.014
11
202.357
21
-111.687
0
LINE
8
Black
10
202.357
20
-111.687
11
202.58
21
-111.421
0
LINE
8
Black
10
202.58
20
-111.421
11
202.881
21
-111.248
0
LINE
8
Black
10
202.881
20
-111.248
11
203.223
21
-111.187
0
LINE
8
Black
10
203.223
20
-111.187
11
203.23
21
-111.187
0
LINE
8
Black
10
203.23
20
-111.187
11
203.572
21
-111.248
0
LINE
8
Black
10
218.812
20
-108.708
11
219.113
21
-108.881
0
LINE
8
Black
10
219.113
20
-108.881
11
219.336
21
-109.147
0
LINE
8
Black
10
219.336
20
-109.147
11
219.455
21
-109.474
0
LINE
8
Black
10
219.455
20
-109.474
11
219.455
21
-109.821
0
LINE
8
Black
10
219.455
20
-109.821
11
219.336
21
-110.147
0
LINE
8
Black
10
219.336
20
-110.147
11
219.113
21
-110.413
0
LINE
8
Black
10
219.113
20
-110.413
11
218.812
21
-110.587
0
LINE
8
Black
10
218.812
20
-110.587
11
218.47
21
-110.647
0
LINE
8
Black
10
218.47
20
-110.647
11
218.463
21
-110.647
0
LINE
8
Black
10
218.463
20
-110.647
11
218.121
21
-110.587
0
LINE
8
Black
10
218.121
20
-110.587
11
217.82
21
-110.413
0
LINE
8
Black
10
217.82
20
-110.413
11
217.597
21
-110.147
0
LINE
8
Black
10
217.597
20
-110.147
11
217.478
21
-109.821
0
LINE
8
Black
10
217.478
20
-109.821
11
217.478
21
-109.474
0
LINE
8
Black
10
217.478
20
-109.474
11
217.597
21
-109.147
0
LINE
8
Black
10
217.597
20
-109.147
11
217.82
21
-108.881
0
LINE
8
Black
10
217.82
20
-108.881
11
218.121
21
-108.708
0
LINE
8
Black
10
218.121
20
-108.708
11
218.463
21
-108.647
0
LINE
8
Black
10
218.463
20
-108.647
11
218.47
21
-108.647
0
LINE
8
Black
10
218.47
20
-108.647
11
218.812
21
-108.708
0
LINE
8
Black
10
203.572
20
-108.708
11
203.873
21
-108.881
0
LINE
8
Black
10
203.873
20
-108.881
11
204.096
21
-109.147
0
LINE
8
Black
10
204.096
20
-109.147
11
204.215
21
-109.474
0
LINE
8
Black
10
204.215
20
-109.474
11
204.215
21
-109.821
0
LINE
8
Black
10
204.215
20
-109.821
11
204.096
21
-110.147
0
LINE
8
Black
10
204.096
20
-110.147
11
203.873
21
-110.413
0
LINE
8
Black
10
203.873
20
-110.413
11
203.572
21
-110.587
0
LINE
8
Black
10
203.572
20
-110.587
11
203.23
21
-110.647
0
LINE
8
Black
10
203.23
20
-110.647
11
203.223
21
-110.647
0
LINE
8
Black
10
203.223
20
-110.647
11
202.881
21
-110.587
0
LINE
8
Black
10
202.881
20
-110.587
11
202.58
21
-110.413
0
LINE
8
Black
10
202.58
20
-110.413
11
202.357
21
-110.147
0
LINE
8
Black
10
202.357
20
-110.147
11
202.238
21
-109.821
0
LINE
8
Black
10
202.238
20
-109.821
11
202.238
21
-109.474
0
LINE
8
Black
10
202.238
20
-109.474
11
202.357
21
-109.147
0
LINE
8
Black
10
202.357
20
-109.147
11
202.58
21
-108.881
0
LINE
8
Black
10
202.58
20
-108.881
11
202.881
21
-108.708
0
LINE
8
Black
10
202.881
20
-108.708
11
203.223
21
-108.647
0
LINE
8
Black
10
203.223
20
-108.647
11
203.23
21
-108.647
0
LINE
8
Black
10
203.23
20
-108.647
11
203.572
21
-108.708
0
LINE
8
Black
10
218.812
20
-106.168
11
219.113
21
-106.341
0
LINE
8
Black
10
219.113
20
-106.341
11
219.336
21
-106.607
0
LINE
8
Black
10
219.336
20
-106.607
11
219.455
21
-106.934
0
LINE
8
Black
10
219.455
20
-106.934
11
219.455
21
-107.281
0
LINE
8
Black
10
219.455
20
-107.281
11
219.336
21
-107.607
0
LINE
8
Black
10
219.336
20
-107.607
11
219.113
21
-107.873
0
LINE
8
Black
10
219.113
20
-107.873
11
218.812
21
-108.047
0
LINE
8
Black
10
218.812
20
-108.047
11
218.47
21
-108.107
0
LINE
8
Black
10
218.47
20
-108.107
11
218.463
21
-108.107
0
LINE
8
Black
10
218.463
20
-108.107
11
218.121
21
-108.047
0
LINE
8
Black
10
218.121
20
-108.047
11
217.82
21
-107.873
0
LINE
8
Black
10
217.82
20
-107.873
11
217.597
21
-107.607
0
LINE
8
Black
10
217.597
20
-107.607
11
217.478
21
-107.281
0
LINE
8
Black
10
217.478
20
-107.281
11
217.478
21
-106.934
0
LINE
8
Black
10
217.478
20
-106.934
11
217.597
21
-106.607
0
LINE
8
Black
10
217.597
20
-106.607
11
217.82
21
-106.341
0
LINE
8
Black
10
217.82
20
-106.341
11
218.121
21
-106.168
0
LINE
8
Black
10
218.121
20
-106.168
11
218.463
21
-106.107
0
LINE
8
Black
10
218.463
20
-106.107
11
218.47
21
-106.107
0
LINE
8
Black
10
218.47
20
-106.107
11
218.812
21
-106.168
0
LINE
8
Black
10
203.572
20
-106.168
11
203.873
21
-106.341
0
LINE
8
Black
10
203.873
20
-106.341
11
204.096
21
-106.607
0
LINE
8
Black
10
204.096
20
-106.607
11
204.215
21
-106.934
0
LINE
8
Black
10
204.215
20
-106.934
11
204.215
21
-107.281
0
LINE
8
Black
10
204.215
20
-107.281
11
204.096
21
-107.607
0
LINE
8
Black
10
204.096
20
-107.607
11
203.873
21
-107.873
0
LINE
8
Black
10
203.873
20
-107.873
11
203.572
21
-108.047
0
LINE
8
Black
10
203.572
20
-108.047
11
203.23
21
-108.107
0
LINE
8
Black
10
203.23
20
-108.107
11
203.223
21
-108.107
0
LINE
8
Black
10
203.223
20
-108.107
11
202.881
21
-108.047
0
LINE
8
Black
10
202.881
20
-108.047
11
202.58
21
-107.873
0
LINE
8
Black
10
202.58
20
-107.873
11
202.357
21
-107.607
0
LINE
8
Black
10
202.357
20
-107.607
11
202.238
21
-107.281
0
LINE
8
Black
10
202.238
20
-107.281
11
202.238
21
-106.934
0
LINE
8
Black
10
202.238
20
-106.934
11
202.357
21
-106.607
0
LINE
8
Black
10
202.357
20
-106.607
11
202.58
21
-106.341
0
LINE
8
Black
10
202.58
20
-106.341
11
202.881
21
-106.168
0
LINE
8
Black
10
202.881
20
-106.168
11
203.223
21
-106.107
0
LINE
8
Black
10
203.223
20
-106.107
11
203.23
21
-106.107
0
LINE
8
Black
10
203.23
20
-106.107
11
203.572
21
-106.168
0
LINE
8
Black
10
218.812
20
-103.628
11
219.113
21
-103.801
0
LINE
8
Black
10
219.113
20
-103.801
11
219.336
21
-104.067
0
LINE
8
Black
10
219.336
20
-104.067
11
219.455
21
-104.394
0
LINE
8
Black
10
219.455
20
-104.394
11
219.455
21
-104.741
0
LINE
8
Black
10
219.455
20
-104.741
11
219.336
21
-105.067
0
LINE
8
Black
10
219.336
20
-105.067
11
219.113
21
-105.333
0
LINE
8
Black
10
219.113
20
-105.333
11
218.812
21
-105.507
0
LINE
8
Black
10
218.812
20
-105.507
11
218.47
21
-105.567
0
LINE
8
Black
10
218.47
20
-105.567
11
218.463
21
-105.567
0
LINE
8
Black
10
218.463
20
-105.567
11
218.121
21
-105.507
0
LINE
8
Black
10
218.121
20
-105.507
11
217.82
21
-105.333
0
LINE
8
Black
10
217.82
20
-105.333
11
217.597
21
-105.067
0
LINE
8
Black
10
217.597
20
-105.067
11
217.478
21
-104.741
0
LINE
8
Black
10
217.478
20
-104.741
11
217.478
21
-104.394
0
LINE
8
Black
10
217.478
20
-104.394
11
217.597
21
-104.067
0
LINE
8
Black
10
217.597
20
-104.067
11
217.82
21
-103.801
0
LINE
8
Black
10
217.82
20
-103.801
11
218.121
21
-103.628
0
LINE
8
Black
10
218.121
20
-103.628
11
218.463
21
-103.567
0
LINE
8
Black
10
218.463
20
-103.567
11
218.47
21
-103.567
0
LINE
8
Black
10
218.47
20
-103.567
11
218.812
21
-103.628
0
LINE
8
Black
10
203.572
20
-103.628
11
203.873
21
-103.801
0
LINE
8
Black
10
203.873
20
-103.801
11
204.096
21
-104.067
0
LINE
8
Black
10
204.096
20
-104.067
11
204.215
21
-104.394
0
LINE
8
Black
10
204.215
20
-104.394
11
204.215
21
-104.741
0
LINE
8
Black
10
204.215
20
-104.741
11
204.096
21
-105.067
0
LINE
8
Black
10
204.096
20
-105.067
11
203.873
21
-105.333
0
LINE
8
Black
10
203.873
20
-105.333
11
203.572
21
-105.507
0
LINE
8
Black
10
203.572
20
-105.507
11
203.23
21
-105.567
0
LINE
8
Black
10
203.23
20
-105.567
11
203.223
21
-105.567
0
LINE
8
Black
10
203.223
20
-105.567
11
202.881
21
-105.507
0
LINE
8
Black
10
202.881
20
-105.507
11
202.58
21
-105.333
0
LINE
8
Black
10
202.58
20
-105.333
11
202.357
21
-105.067
0
LINE
8
Black
10
202.357
20
-105.067
11
202.238
21
-104.741
0
LINE
8
Black
10
202.238
20
-104.741
11
202.238
21
-104.394
0
LINE
8
Black
10
202.238
20
-104.394
11
202.357
21
-104.067
0
LINE
8
Black
10
202.357
20
-104.067
11
202.58
21
-103.801
0
LINE
8
Black
10
202.58
20
-103.801
11
202.881
21
-103.628
0
LINE
8
Black
10
202.881
20
-103.628
11
203.223
21
-103.567
0
LINE
8
Black
10
203.223
20
-103.567
11
203.23
21
-103.567
0
LINE
8
Black
10
203.23
20
-103.567
11
203.572
21
-103.628
0
LINE
8
Black
10
218.812
20
-101.088
11
219.113
21
-101.261
0
LINE
8
Black
10
219.113
20
-101.261
11
219.336
21
-101.527
0
LINE
8
Black
10
219.336
20
-101.527
11
219.455
21
-101.854
0
LINE
8
Black
10
219.455
20
-101.854
11
219.455
21
-102.201
0
LINE
8
Black
10
219.455
20
-102.201
11
219.336
21
-102.527
0
LINE
8
Black
10
219.336
20
-102.527
11
219.113
21
-102.793
0
LINE
8
Black
10
219.113
20
-102.793
11
218.812
21
-102.967
0
LINE
8
Black
10
218.812
20
-102.967
11
218.47
21
-103.027
0
LINE
8
Black
10
218.47
20
-103.027
11
218.463
21
-103.027
0
LINE
8
Black
10
218.463
20
-103.027
11
218.121
21
-102.967
0
LINE
8
Black
10
218.121
20
-102.967
11
217.82
21
-102.793
0
LINE
8
Black
10
217.82
20
-102.793
11
217.597
21
-102.527
0
LINE
8
Black
10
217.597
20
-102.527
11
217.478
21
-102.201
0
LINE
8
Black
10
217.478
20
-102.201
11
217.478
21
-101.854
0
LINE
8
Black
10
217.478
20
-101.854
11
217.597
21
-101.527
0
LINE
8
Black
10
217.597
20
-101.527
11
217.82
21
-101.261
0
LINE
8
Black
10
217.82
20
-101.261
11
218.121
21
-101.088
0
LINE
8
Black
10
218.121
20
-101.088
11
218.463
21
-101.027
0
LINE
8
Black
10
218.463
20
-101.027
11
218.47
21
-101.027
0
LINE
8
Black
10
218.47
20
-101.027
11
218.812
21
-101.088
0
LINE
8
Black
10
203.572
20
-101.088
11
203.873
21
-101.261
0
LINE
8
Black
10
203.873
20
-101.261
11
204.096
21
-101.527
0
LINE
8
Black
10
204.096
20
-101.527
11
204.215
21
-101.854
0
LINE
8
Black
10
204.215
20
-101.854
11
204.215
21
-102.201
0
LINE
8
Black
10
204.215
20
-102.201
11
204.096
21
-102.527
0
LINE
8
Black
10
204.096
20
-102.527
11
203.873
21
-102.793
0
LINE
8
Black
10
203.873
20
-102.793
11
203.572
21
-102.967
0
LINE
8
Black
10
203.572
20
-102.967
11
203.23
21
-103.027
0
LINE
8
Black
10
203.23
20
-103.027
11
203.223
21
-103.027
0
LINE
8
Black
10
203.223
20
-103.027
11
202.881
21
-102.967
0
LINE
8
Black
10
202.881
20
-102.967
11
202.58
21
-102.793
0
LINE
8
Black
10
202.58
20
-102.793
11
202.357
21
-102.527
0
LINE
8
Black
10
202.357
20
-102.527
11
202.238
21
-102.201
0
LINE
8
Black
10
202.238
20
-102.201
11
202.238
21
-101.854
0
LINE
8
Black
10
202.238
20
-101.854
11
202.357
21
-101.527
0
LINE
8
Black
10
202.357
20
-101.527
11
202.58
21
-101.261
0
LINE
8
Black
10
202.58
20
-101.261
11
202.881
21
-101.088
0
LINE
8
Black
10
202.881
20
-101.088
11
203.223
21
-101.027
0
LINE
8
Black
10
203.223
20
-101.027
11
203.23
21
-101.027
0
LINE
8
Black
10
203.23
20
-101.027
11
203.572
21
-101.088
0
LINE
8
Black
10
218.812
20
-98.5476
11
219.113
21
-98.7213
0
LINE
8
Black
10
219.113
20
-98.7213
11
219.336
21
-98.9873
0
LINE
8
Black
10
219.336
20
-98.9873
11
219.455
21
-99.3137
0
LINE
8
Black
10
219.455
20
-99.3137
11
219.455
21
-99.661
0
LINE
8
Black
10
219.455
20
-99.661
11
219.336
21
-99.9873
0
LINE
8
Black
10
219.336
20
-99.9873
11
219.113
21
-100.253
0
LINE
8
Black
10
219.113
20
-100.253
11
218.812
21
-100.427
0
LINE
8
Black
10
218.812
20
-100.427
11
218.47
21
-100.487
0
LINE
8
Black
10
218.47
20
-100.487
11
218.463
21
-100.487
0
LINE
8
Black
10
218.463
20
-100.487
11
218.121
21
-100.427
0
LINE
8
Black
10
218.121
20
-100.427
11
217.82
21
-100.253
0
LINE
8
Black
10
217.82
20
-100.253
11
217.597
21
-99.9873
0
LINE
8
Black
10
217.597
20
-99.9873
11
217.478
21
-99.661
0
LINE
8
Black
10
217.478
20
-99.661
11
217.478
21
-99.3137
0
LINE
8
Black
10
217.478
20
-99.3137
11
217.597
21
-98.9873
0
LINE
8
Black
10
217.597
20
-98.9873
11
217.82
21
-98.7213
0
LINE
8
Black
10
217.82
20
-98.7213
11
218.121
21
-98.5476
0
LINE
8
Black
10
218.121
20
-98.5476
11
218.463
21
-98.4873
0
LINE
8
Black
10
218.463
20
-98.4873
11
218.47
21
-98.4873
0
LINE
8
Black
10
218.47
20
-98.4873
11
218.812
21
-98.5476
0
LINE
8
Black
10
203.572
20
-98.5476
11
203.873
21
-98.7213
0
LINE
8
Black
10
203.873
20
-98.7213
11
204.096
21
-98.9873
0
LINE
8
Black
10
204.096
20
-98.9873
11
204.215
21
-99.3137
0
LINE
8
Black
10
204.215
20
-99.3137
11
204.215
21
-99.661
0
LINE
8
Black
10
204.215
20
-99.661
11
204.096
21
-99.9873
0
LINE
8
Black
10
204.096
20
-99.9873
11
203.873
21
-100.253
0
LINE
8
Black
10
203.873
20
-100.253
11
203.572
21
-100.427
0
LINE
8
Black
10
203.572
20
-100.427
11
203.23
21
-100.487
0
LINE
8
Black
10
203.23
20
-100.487
11
203.223
21
-100.487
0
LINE
8
Black
10
203.223
20
-100.487
11
202.881
21
-100.427
0
LINE
8
Black
10
202.881
20
-100.427
11
202.58
21
-100.253
0
LINE
8
Black
10
202.58
20
-100.253
11
202.357
21
-99.9873
0
LINE
8
Black
10
202.357
20
-99.9873
11
202.238
21
-99.661
0
LINE
8
Black
10
202.238
20
-99.661
11
202.238
21
-99.3137
0
LINE
8
Black
10
202.238
20
-99.3137
11
202.357
21
-98.9873
0
LINE
8
Black
10
202.357
20
-98.9873
11
202.58
21
-98.7213
0
LINE
8
Black
10
202.58
20
-98.7213
11
202.881
21
-98.5476
0
LINE
8
Black
10
202.881
20
-98.5476
11
203.223
21
-98.4873
0
LINE
8
Black
10
203.223
20
-98.4873
11
203.23
21
-98.4873
0
LINE
8
Black
10
203.23
20
-98.4873
11
203.572
21
-98.5476
0
LINE
8
Black
10
218.812
20
-96.0076
11
219.113
21
-96.1813
0
LINE
8
Black
10
219.113
20
-96.1813
11
219.336
21
-96.4473
0
LINE
8
Black
10
219.336
20
-96.4473
11
219.455
21
-96.7737
0
LINE
8
Black
10
219.455
20
-96.7737
11
219.455
21
-97.121
0
LINE
8
Black
10
219.455
20
-97.121
11
219.336
21
-97.4473
0
LINE
8
Black
10
219.336
20
-97.4473
11
219.113
21
-97.7134
0
LINE
8
Black
10
219.113
20
-97.7134
11
218.812
21
-97.887
0
LINE
8
Black
10
218.812
20
-97.887
11
218.47
21
-97.9473
0
LINE
8
Black
10
218.47
20
-97.9473
11
218.463
21
-97.9473
0
LINE
8
Black
10
218.463
20
-97.9473
11
218.121
21
-97.887
0
LINE
8
Black
10
218.121
20
-97.887
11
217.82
21
-97.7134
0
LINE
8
Black
10
217.82
20
-97.7134
11
217.597
21
-97.4473
0
LINE
8
Black
10
217.597
20
-97.4473
11
217.478
21
-97.121
0
LINE
8
Black
10
217.478
20
-97.121
11
217.478
21
-96.7737
0
LINE
8
Black
10
217.478
20
-96.7737
11
217.597
21
-96.4473
0
LINE
8
Black
10
217.597
20
-96.4473
11
217.82
21
-96.1813
0
LINE
8
Black
10
217.82
20
-96.1813
11
218.121
21
-96.0076
0
LINE
8
Black
10
218.121
20
-96.0076
11
218.463
21
-95.9473
0
LINE
8
Black
10
218.463
20
-95.9473
11
218.47
21
-95.9473
0
LINE
8
Black
10
218.47
20
-95.9473
11
218.812
21
-96.0076
0
LINE
8
Black
10
203.572
20
-96.0076
11
203.873
21
-96.1813
0
LINE
8
Black
10
203.873
20
-96.1813
11
204.096
21
-96.4473
0
LINE
8
Black
10
204.096
20
-96.4473
11
204.215
21
-96.7737
0
LINE
8
Black
10
204.215
20
-96.7737
11
204.215
21
-97.121
0
LINE
8
Black
10
204.215
20
-97.121
11
204.096
21
-97.4473
0
LINE
8
Black
10
204.096
20
-97.4473
11
203.873
21
-97.7134
0
LINE
8
Black
10
203.873
20
-97.7134
11
203.572
21
-97.887
0
LINE
8
Black
10
203.572
20
-97.887
11
203.23
21
-97.9473
0
LINE
8
Black
10
203.23
20
-97.9473
11
203.223
21
-97.9473
0
LINE
8
Black
10
203.223
20
-97.9473
11
202.881
21
-97.887
0
LINE
8
Black
10
202.881
20
-97.887
11
202.58
21
-97.7134
0
LINE
8
Black
10
202.58
20
-97.7134
11
202.357
21
-97.4473
0
LINE
8
Black
10
202.357
20
-97.4473
11
202.238
21
-97.121
0
LINE
8
Black
10
202.238
20
-97.121
11
202.238
21
-96.7737
0
LINE
8
Black
10
202.238
20
-96.7737
11
202.357
21
-96.4473
0
LINE
8
Black
10
202.357
20
-96.4473
11
202.58
21
-96.1813
0
LINE
8
Black
10
202.58
20
-96.1813
11
202.881
21
-96.0076
0
LINE
8
Black
10
202.881
20
-96.0076
11
203.223
21
-95.9473
0
LINE
8
Black
10
203.223
20
-95.9473
11
203.23
21
-95.9473
0
LINE
8
Black
10
203.23
20
-95.9473
11
203.572
21
-96.0076
0
LINE
8
Black
10
218.812
20
-93.4676
11
219.113
21
-93.6413
0
LINE
8
Black
10
219.113
20
-93.6413
11
219.336
21
-93.9073
0
LINE
8
Black
10
219.336
20
-93.9073
11
219.455
21
-94.2337
0
LINE
8
Black
10
219.455
20
-94.2337
11
219.455
21
-94.581
0
LINE
8
Black
10
219.455
20
-94.581
11
219.336
21
-94.9073
0
LINE
8
Black
10
219.336
20
-94.9073
11
219.113
21
-95.1734
0
LINE
8
Black
10
219.113
20
-95.1734
11
218.812
21
-95.347
0
LINE
8
Black
10
218.812
20
-95.347
11
218.47
21
-95.4073
0
LINE
8
Black
10
218.47
20
-95.4073
11
218.463
21
-95.4073
0
LINE
8
Black
10
218.463
20
-95.4073
11
218.121
21
-95.347
0
LINE
8
Black
10
218.121
20
-95.347
11
217.82
21
-95.1734
0
LINE
8
Black
10
217.82
20
-95.1734
11
217.597
21
-94.9073
0
LINE
8
Black
10
217.597
20
-94.9073
11
217.478
21
-94.581
0
LINE
8
Black
10
217.478
20
-94.581
11
217.478
21
-94.2337
0
LINE
8
Black
10
217.478
20
-94.2337
11
217.597
21
-93.9073
0
LINE
8
Black
10
217.597
20
-93.9073
11
217.82
21
-93.6413
0
LINE
8
Black
10
217.82
20
-93.6413
11
218.121
21
-93.4676
0
LINE
8
Black
10
218.121
20
-93.4676
11
218.463
21
-93.4073
0
LINE
8
Black
10
218.463
20
-93.4073
11
218.47
21
-93.4073
0
LINE
8
Black
10
218.47
20
-93.4073
11
218.812
21
-93.4676
0
LINE
8
Black
10
203.572
20
-93.4676
11
203.873
21
-93.6413
0
LINE
8
Black
10
203.873
20
-93.6413
11
204.096
21
-93.9073
0
LINE
8
Black
10
204.096
20
-93.9073
11
204.215
21
-94.2337
0
LINE
8
Black
10
204.215
20
-94.2337
11
204.215
21
-94.581
0
LINE
8
Black
10
204.215
20
-94.581
11
204.096
21
-94.9073
0
LINE
8
Black
10
204.096
20
-94.9073
11
203.873
21
-95.1734
0
LINE
8
Black
10
203.873
20
-95.1734
11
203.572
21
-95.347
0
LINE
8
Black
10
203.572
20
-95.347
11
203.23
21
-95.4073
0
LINE
8
Black
10
203.23
20
-95.4073
11
203.223
21
-95.4073
0
LINE
8
Black
10
203.223
20
-95.4073
11
202.881
21
-95.347
0
LINE
8
Black
10
202.881
20
-95.347
11
202.58
21
-95.1734
0
LINE
8
Black
10
202.58
20
-95.1734
11
202.357
21
-94.9073
0
LINE
8
Black
10
202.357
20
-94.9073
11
202.238
21
-94.581
0
LINE
8
Black
10
202.238
20
-94.581
11
202.238
21
-94.2337
0
LINE
8
Black
10
202.238
20
-94.2337
11
202.357
21
-93.9073
0
LINE
8
Black
10
202.357
20
-93.9073
11
202.58
21
-93.6413
0
LINE
8
Black
10
202.58
20
-93.6413
11
202.881
21
-93.4676
0
LINE
8
Black
10
202.881
20
-93.4676
11
203.223
21
-93.4073
0
LINE
8
Black
10
203.223
20
-93.4073
11
203.23
21
-93.4073
0
LINE
8
Black
10
203.23
20
-93.4073
11
203.572
21
-93.4676
0
LINE
8
Black
10
218.812
20
-90.9276
11
219.113
21
-91.1013
0
LINE
8
Black
10
219.113
20
-91.1013
11
219.336
21
-91.3673
0
LINE
8
Black
10
219.336
20
-91.3673
11
219.455
21
-91.6937
0
LINE
8
Black
10
219.455
20
-91.6937
11
219.455
21
-92.041
0
LINE
8
Black
10
219.455
20
-92.041
11
219.336
21
-92.3673
0
LINE
8
Black
10
219.336
20
-92.3673
11
219.113
21
-92.6334
0
LINE
8
Black
10
219.113
20
-92.6334
11
218.812
21
-92.807
0
LINE
8
Black
10
218.812
20
-92.807
11
218.47
21
-92.8673
0
LINE
8
Black
10
218.47
20
-92.8673
11
218.463
21
-92.8673
0
LINE
8
Black
10
218.463
20
-92.8673
11
218.121
21
-92.807
0
LINE
8
Black
10
218.121
20
-92.807
11
217.82
21
-92.6334
0
LINE
8
Black
10
217.82
20
-92.6334
11
217.597
21
-92.3673
0
LINE
8
Black
10
217.597
20
-92.3673
11
217.478
21
-92.041
0
LINE
8
Black
10
217.478
20
-92.041
11
217.478
21
-91.6937
0
LINE
8
Black
10
217.478
20
-91.6937
11
217.597
21
-91.3673
0
LINE
8
Black
10
217.597
20
-91.3673
11
217.82
21
-91.1013
0
LINE
8
Black
10
217.82
20
-91.1013
11
218.121
21
-90.9276
0
LINE
8
Black
10
218.121
20
-90.9276
11
218.463
21
-90.8673
0
LINE
8
Black
10
218.463
20
-90.8673
11
218.47
21
-90.8673
0
LINE
8
Black
10
218.47
20
-90.8673
11
218.812
21
-90.9276
0
LINE
8
Black
10
203.572
20
-90.9276
11
203.873
21
-91.1013
0
LINE
8
Black
10
203.873
20
-91.1013
11
204.096
21
-91.3673
0
LINE
8
Black
10
204.096
20
-91.3673
11
204.215
21
-91.6937
0
LINE
8
Black
10
204.215
20
-91.6937
11
204.215
21
-92.041
0
LINE
8
Black
10
204.215
20
-92.041
11
204.096
21
-92.3673
0
LINE
8
Black
10
204.096
20
-92.3673
11
203.873
21
-92.6334
0
LINE
8
Black
10
203.873
20
-92.6334
11
203.572
21
-92.807
0
LINE
8
Black
10
203.572
20
-92.807
11
203.23
21
-92.8673
0
LINE
8
Black
10
203.23
20
-92.8673
11
203.223
21
-92.8673
0
LINE
8
Black
10
203.223
20
-92.8673
11
202.881
21
-92.807
0
LINE
8
Black
10
202.881
20
-92.807
11
202.58
21
-92.6334
0
LINE
8
Black
10
202.58
20
-92.6334
11
202.357
21
-92.3673
0
LINE
8
Black
10
202.357
20
-92.3673
11
202.238
21
-92.041
0
LINE
8
Black
10
202.238
20
-92.041
11
202.238
21
-91.6937
0
LINE
8
Black
10
202.238
20
-91.6937
11
202.357
21
-91.3673
0
LINE
8
Black
10
202.357
20
-91.3673
11
202.58
21
-91.1013
0
LINE
8
Black
10
202.58
20
-91.1013
11
202.881
21
-90.9276
0
LINE
8
Black
10
202.881
20
-90.9276
11
203.223
21
-90.8673
0
LINE
8
Black
10
203.223
20
-90.8673
11
203.23
21
-90.8673
0
LINE
8
Black
10
203.23
20
-90.8673
11
203.572
21
-90.9276
0
LINE
8
Black
10
218.812
20
-88.3876
11
219.113
21
-88.5613
0
LINE
8
Black
10
219.113
20
-88.5613
11
219.336
21
-88.8273
0
LINE
8
Black
10
219.336
20
-88.8273
11
219.455
21
-89.1537
0
LINE
8
Black
10
219.455
20
-89.1537
11
219.455
21
-89.501
0
LINE
8
Black
10
219.455
20
-89.501
11
219.336
21
-89.8273
0
LINE
8
Black
10
219.336
20
-89.8273
11
219.113
21
-90.0934
0
LINE
8
Black
10
219.113
20
-90.0934
11
218.812
21
-90.267
0
LINE
8
Black
10
218.812
20
-90.267
11
218.47
21
-90.3273
0
LINE
8
Black
10
218.47
20
-90.3273
11
218.463
21
-90.3273
0
LINE
8
Black
10
218.463
20
-90.3273
11
218.121
21
-90.267
0
LINE
8
Black
10
218.121
20
-90.267
11
217.82
21
-90.0934
0
LINE
8
Black
10
217.82
20
-90.0934
11
217.597
21
-89.8273
0
LINE
8
Black
10
217.597
20
-89.8273
11
217.478
21
-89.501
0
LINE
8
Black
10
217.478
20
-89.501
11
217.478
21
-89.1537
0
LINE
8
Black
10
217.478
20
-89.1537
11
217.597
21
-88.8273
0
LINE
8
Black
10
217.597
20
-88.8273
11
217.82
21
-88.5613
0
LINE
8
Black
10
217.82
20
-88.5613
11
218.121
21
-88.3876
0
LINE
8
Black
10
218.121
20
-88.3876
11
218.463
21
-88.3273
0
LINE
8
Black
10
218.463
20
-88.3273
11
218.47
21
-88.3273
0
LINE
8
Black
10
218.47
20
-88.3273
11
218.812
21
-88.3876
0
LINE
8
Black
10
203.572
20
-88.3876
11
203.873
21
-88.5613
0
LINE
8
Black
10
203.873
20
-88.5613
11
204.096
21
-88.8273
0
LINE
8
Black
10
204.096
20
-88.8273
11
204.215
21
-89.1537
0
LINE
8
Black
10
204.215
20
-89.1537
11
204.215
21
-89.501
0
LINE
8
Black
10
204.215
20
-89.501
11
204.096
21
-89.8273
0
LINE
8
Black
10
204.096
20
-89.8273
11
203.873
21
-90.0934
0
LINE
8
Black
10
203.873
20
-90.0934
11
203.572
21
-90.267
0
LINE
8
Black
10
203.572
20
-90.267
11
203.23
21
-90.3273
0
LINE
8
Black
10
203.23
20
-90.3273
11
203.223
21
-90.3273
0
LINE
8
Black
10
203.223
20
-90.3273
11
202.881
21
-90.267
0
LINE
8
Black
10
202.881
20
-90.267
11
202.58
21
-90.0934
0
LINE
8
Black
10
202.58
20
-90.0934
11
202.357
21
-89.8273
0
LINE
8
Black
10
202.357
20
-89.8273
11
202.238
21
-89.501
0
LINE
8
Black
10
202.238
20
-89.501
11
202.238
21
-89.1537
0
LINE
8
Black
10
202.238
20
-89.1537
11
202.357
21
-88.8273
0
LINE
8
Black
10
202.357
20
-88.8273
11
202.58
21
-88.5613
0
LINE
8
Black
10
202.58
20
-88.5613
11
202.881
21
-88.3876
0
LINE
8
Black
10
202.881
20
-88.3876
11
203.223
21
-88.3273
0
LINE
8
Black
10
203.223
20
-88.3273
11
203.23
21
-88.3273
0
LINE
8
Black
10
203.23
20
-88.3273
11
203.572
21
-88.3876
0
LINE
8
Black
10
93.0716
20
-88.1999
11
93.3621
21
-88.3676
0
LINE
8
Black
10
93.3621
20
-88.3676
11
93.5776
21
-88.6245
0
LINE
8
Black
10
93.5776
20
-88.6245
11
93.6924
21
-88.9396
0
LINE
8
Black
10
93.6924
20
-88.9396
11
93.6924
21
-89.275
0
LINE
8
Black
10
93.6924
20
-89.275
11
93.5776
21
-89.5902
0
LINE
8
Black
10
93.5776
20
-89.5902
11
93.3621
21
-89.8471
0
LINE
8
Black
10
93.3621
20
-89.8471
11
93.0716
21
-90.0148
0
LINE
8
Black
10
93.0716
20
-90.0148
11
92.7413
21
-90.073
0
LINE
8
Black
10
92.7413
20
-90.073
11
92.4111
21
-90.0148
0
LINE
8
Black
10
92.4111
20
-90.0148
11
92.1206
21
-89.8471
0
LINE
8
Black
10
92.1206
20
-89.8471
11
91.9051
21
-89.5902
0
LINE
8
Black
10
91.9051
20
-89.5902
11
91.7903
21
-89.275
0
LINE
8
Black
10
91.7903
20
-89.275
11
91.7903
21
-88.9396
0
LINE
8
Black
10
91.7903
20
-88.9396
11
91.9051
21
-88.6245
0
LINE
8
Black
10
91.9051
20
-88.6245
11
92.1206
21
-88.3676
0
LINE
8
Black
10
92.1206
20
-88.3676
11
92.4111
21
-88.1999
0
LINE
8
Black
10
92.4111
20
-88.1999
11
92.7413
21
-88.1417
0
LINE
8
Black
10
92.7413
20
-88.1417
11
93.0716
21
-88.1999
0
LINE
8
Black
10
178.072
20
-88.1999
11
178.362
21
-88.3676
0
LINE
8
Black
10
178.362
20
-88.3676
11
178.578
21
-88.6245
0
LINE
8
Black
10
178.578
20
-88.6245
11
178.692
21
-88.9396
0
LINE
8
Black
10
178.692
20
-88.9396
11
178.692
21
-89.275
0
LINE
8
Black
10
178.692
20
-89.275
11
178.578
21
-89.5902
0
LINE
8
Black
10
178.578
20
-89.5902
11
178.362
21
-89.8471
0
LINE
8
Black
10
178.362
20
-89.8471
11
178.072
21
-90.0148
0
LINE
8
Black
10
178.072
20
-90.0148
11
177.741
21
-90.073
0
LINE
8
Black
10
177.741
20
-90.073
11
177.411
21
-90.0148
0
LINE
8
Black
10
177.411
20
-90.0148
11
177.121
21
-89.8471
0
LINE
8
Black
10
177.121
20
-89.8471
11
176.905
21
-89.5902
0
LINE
8
Black
10
176.905
20
-89.5902
11
176.79
21
-89.275
0
LINE
8
Black
10
176.79
20
-89.275
11
176.79
21
-88.9396
0
LINE
8
Black
10
176.79
20
-88.9396
11
176.905
21
-88.6245
0
LINE
8
Black
10
176.905
20
-88.6245
11
177.121
21
-88.3676
0
LINE
8
Black
10
177.121
20
-88.3676
11
177.411
21
-88.1999
0
LINE
8
Black
10
177.411
20
-88.1999
11
177.741
21
-88.1417
0
LINE
8
Black
10
177.741
20
-88.1417
11
178.072
21
-88.1999
0
LINE
8
Black
10
90.5716
20
-88.1999
11
90.8621
21
-88.3676
0
LINE
8
Black
10
90.8621
20
-88.3676
11
91.0776
21
-88.6245
0
LINE
8
Black
10
91.0776
20
-88.6245
11
91.1924
21
-88.9396
0
LINE
8
Black
10
91.1924
20
-88.9396
11
91.1924
21
-89.275
0
LINE
8
Black
10
91.1924
20
-89.275
11
91.0776
21
-89.5902
0
LINE
8
Black
10
91.0776
20
-89.5902
11
90.8621
21
-89.8471
0
LINE
8
Black
10
90.8621
20
-89.8471
11
90.5716
21
-90.0148
0
LINE
8
Black
10
90.5716
20
-90.0148
11
90.2413
21
-90.073
0
LINE
8
Black
10
90.2413
20
-90.073
11
89.9111
21
-90.0148
0
LINE
8
Black
10
89.9111
20
-90.0148
11
89.6206
21
-89.8471
0
LINE
8
Black
10
89.6206
20
-89.8471
11
89.4051
21
-89.5902
0
LINE
8
Black
10
89.4051
20
-89.5902
11
89.2903
21
-89.275
0
LINE
8
Black
10
89.2903
20
-89.275
11
89.2903
21
-88.9396
0
LINE
8
Black
10
89.2903
20
-88.9396
11
89.4051
21
-88.6245
0
LINE
8
Black
10
89.4051
20
-88.6245
11
89.6206
21
-88.3676
0
LINE
8
Black
10
89.6206
20
-88.3676
11
89.9111
21
-88.1999
0
LINE
8
Black
10
89.9111
20
-88.1999
11
90.2413
21
-88.1417
0
LINE
8
Black
10
90.2413
20
-88.1417
11
90.5716
21
-88.1999
0
LINE
8
Black
10
155.572
20
-88.1999
11
155.862
21
-88.3676
0
LINE
8
Black
10
155.862
20
-88.3676
11
156.078
21
-88.6245
0
LINE
8
Black
10
156.078
20
-88.6245
11
156.192
21
-88.9396
0
LINE
8
Black
10
156.192
20
-88.9396
11
156.192
21
-89.275
0
LINE
8
Black
10
156.192
20
-89.275
11
156.078
21
-89.5902
0
LINE
8
Black
10
156.078
20
-89.5902
11
155.862
21
-89.8471
0
LINE
8
Black
10
155.862
20
-89.8471
11
155.572
21
-90.0148
0
LINE
8
Black
10
155.572
20
-90.0148
11
155.241
21
-90.073
0
LINE
8
Black
10
155.241
20
-90.073
11
154.911
21
-90.0148
0
LINE
8
Black
10
154.911
20
-90.0148
11
154.621
21
-89.8471
0
LINE
8
Black
10
154.621
20
-89.8471
11
154.405
21
-89.5902
0
LINE
8
Black
10
154.405
20
-89.5902
11
154.29
21
-89.275
0
LINE
8
Black
10
154.29
20
-89.275
11
154.29
21
-88.9396
0
LINE
8
Black
10
154.29
20
-88.9396
11
154.405
21
-88.6245
0
LINE
8
Black
10
154.405
20
-88.6245
11
154.621
21
-88.3676
0
LINE
8
Black
10
154.621
20
-88.3676
11
154.911
21
-88.1999
0
LINE
8
Black
10
154.911
20
-88.1999
11
155.241
21
-88.1417
0
LINE
8
Black
10
155.241
20
-88.1417
11
155.572
21
-88.1999
0
LINE
8
Black
10
135.572
20
-88.1999
11
135.862
21
-88.3676
0
LINE
8
Black
10
135.862
20
-88.3676
11
136.078
21
-88.6245
0
LINE
8
Black
10
136.078
20
-88.6245
11
136.192
21
-88.9396
0
LINE
8
Black
10
136.192
20
-88.9396
11
136.192
21
-89.275
0
LINE
8
Black
10
136.192
20
-89.275
11
136.078
21
-89.5902
0
LINE
8
Black
10
136.078
20
-89.5902
11
135.862
21
-89.8471
0
LINE
8
Black
10
135.862
20
-89.8471
11
135.572
21
-90.0148
0
LINE
8
Black
10
135.572
20
-90.0148
11
135.241
21
-90.073
0
LINE
8
Black
10
135.241
20
-90.073
11
134.911
21
-90.0148
0
LINE
8
Black
10
134.911
20
-90.0148
11
134.621
21
-89.8471
0
LINE
8
Black
10
134.621
20
-89.8471
11
134.405
21
-89.5902
0
LINE
8
Black
10
134.405
20
-89.5902
11
134.29
21
-89.275
0
LINE
8
Black
10
134.29
20
-89.275
11
134.29
21
-88.9396
0
LINE
8
Black
10
134.29
20
-88.9396
11
134.405
21
-88.6245
0
LINE
8
Black
10
134.405
20
-88.6245
11
134.621
21
-88.3676
0
LINE
8
Black
10
134.621
20
-88.3676
11
134.911
21
-88.1999
0
LINE
8
Black
10
134.911
20
-88.1999
11
135.241
21
-88.1417
0
LINE
8
Black
10
135.241
20
-88.1417
11
135.572
21
-88.1999
0
LINE
8
Black
10
138.072
20
-88.1999
11
138.362
21
-88.3676
0
LINE
8
Black
10
138.362
20
-88.3676
11
138.578
21
-88.6245
0
LINE
8
Black
10
138.578
20
-88.6245
11
138.692
21
-88.9396
0
LINE
8
Black
10
138.692
20
-88.9396
11
138.692
21
-89.275
0
LINE
8
Black
10
138.692
20
-89.275
11
138.578
21
-89.5902
0
LINE
8
Black
10
138.578
20
-89.5902
11
138.362
21
-89.8471
0
LINE
8
Black
10
138.362
20
-89.8471
11
138.072
21
-90.0148
0
LINE
8
Black
10
138.072
20
-90.0148
11
137.741
21
-90.073
0
LINE
8
Black
10
137.741
20
-90.073
11
137.411
21
-90.0148
0
LINE
8
Black
10
137.411
20
-90.0148
11
137.121
21
-89.8471
0
LINE
8
Black
10
137.121
20
-89.8471
11
136.905
21
-89.5902
0
LINE
8
Black
10
136.905
20
-89.5902
11
136.79
21
-89.275
0
LINE
8
Black
10
136.79
20
-89.275
11
136.79
21
-88.9396
0
LINE
8
Black
10
136.79
20
-88.9396
11
136.905
21
-88.6245
0
LINE
8
Black
10
136.905
20
-88.6245
11
137.121
21
-88.3676
0
LINE
8
Black
10
137.121
20
-88.3676
11
137.411
21
-88.1999
0
LINE
8
Black
10
137.411
20
-88.1999
11
137.741
21
-88.1417
0
LINE
8
Black
10
137.741
20
-88.1417
11
138.072
21
-88.1999
0
LINE
8
Black
10
140.572
20
-88.1999
11
140.862
21
-88.3676
0
LINE
8
Black
10
140.862
20
-88.3676
11
141.078
21
-88.6245
0
LINE
8
Black
10
141.078
20
-88.6245
11
141.192
21
-88.9396
0
LINE
8
Black
10
141.192
20
-88.9396
11
141.192
21
-89.275
0
LINE
8
Black
10
141.192
20
-89.275
11
141.078
21
-89.5902
0
LINE
8
Black
10
141.078
20
-89.5902
11
140.862
21
-89.8471
0
LINE
8
Black
10
140.862
20
-89.8471
11
140.572
21
-90.0148
0
LINE
8
Black
10
140.572
20
-90.0148
11
140.241
21
-90.073
0
LINE
8
Black
10
140.241
20
-90.073
11
139.911
21
-90.0148
0
LINE
8
Black
10
139.911
20
-90.0148
11
139.621
21
-89.8471
0
LINE
8
Black
10
139.621
20
-89.8471
11
139.405
21
-89.5902
0
LINE
8
Black
10
139.405
20
-89.5902
11
139.29
21
-89.275
0
LINE
8
Black
10
139.29
20
-89.275
11
139.29
21
-88.9396
0
LINE
8
Black
10
139.29
20
-88.9396
11
139.405
21
-88.6245
0
LINE
8
Black
10
139.405
20
-88.6245
11
139.621
21
-88.3676
0
LINE
8
Black
10
139.621
20
-88.3676
11
139.911
21
-88.1999
0
LINE
8
Black
10
139.911
20
-88.1999
11
140.241
21
-88.1417
0
LINE
8
Black
10
140.241
20
-88.1417
11
140.572
21
-88.1999
0
LINE
8
Black
10
143.072
20
-88.1999
11
143.362
21
-88.3676
0
LINE
8
Black
10
143.362
20
-88.3676
11
143.578
21
-88.6245
0
LINE
8
Black
10
143.578
20
-88.6245
11
143.692
21
-88.9396
0
LINE
8
Black
10
143.692
20
-88.9396
11
143.692
21
-89.275
0
LINE
8
Black
10
143.692
20
-89.275
11
143.578
21
-89.5902
0
LINE
8
Black
10
143.578
20
-89.5902
11
143.362
21
-89.8471
0
LINE
8
Black
10
143.362
20
-89.8471
11
143.072
21
-90.0148
0
LINE
8
Black
10
143.072
20
-90.0148
11
142.741
21
-90.073
0
LINE
8
Black
10
142.741
20
-90.073
11
142.411
21
-90.0148
0
LINE
8
Black
10
142.411
20
-90.0148
11
142.121
21
-89.8471
0
LINE
8
Black
10
142.121
20
-89.8471
11
141.905
21
-89.5902
0
LINE
8
Black
10
141.905
20
-89.5902
11
141.79
21
-89.275
0
LINE
8
Black
10
141.79
20
-89.275
11
141.79
21
-88.9396
0
LINE
8
Black
10
141.79
20
-88.9396
11
141.905
21
-88.6245
0
LINE
8
Black
10
141.905
20
-88.6245
11
142.121
21
-88.3676
0
LINE
8
Black
10
142.121
20
-88.3676
11
142.411
21
-88.1999
0
LINE
8
Black
10
142.411
20
-88.1999
11
142.741
21
-88.1417
0
LINE
8
Black
10
142.741
20
-88.1417
11
143.072
21
-88.1999
0
LINE
8
Black
10
145.572
20
-88.1999
11
145.862
21
-88.3676
0
LINE
8
Black
10
145.862
20
-88.3676
11
146.078
21
-88.6245
0
LINE
8
Black
10
146.078
20
-88.6245
11
146.192
21
-88.9396
0
LINE
8
Black
10
146.192
20
-88.9396
11
146.192
21
-89.275
0
LINE
8
Black
10
146.192
20
-89.275
11
146.078
21
-89.5902
0
LINE
8
Black
10
146.078
20
-89.5902
11
145.862
21
-89.8471
0
LINE
8
Black
10
145.862
20
-89.8471
11
145.572
21
-90.0148
0
LINE
8
Black
10
145.572
20
-90.0148
11
145.241
21
-90.073
0
LINE
8
Black
10
145.241
20
-90.073
11
144.911
21
-90.0148
0
LINE
8
Black
10
144.911
20
-90.0148
11
144.621
21
-89.8471
0
LINE
8
Black
10
144.621
20
-89.8471
11
144.405
21
-89.5902
0
LINE
8
Black
10
144.405
20
-89.5902
11
144.29
21
-89.275
0
LINE
8
Black
10
144.29
20
-89.275
11
144.29
21
-88.9396
0
LINE
8
Black
10
144.29
20
-88.9396
11
144.405
21
-88.6245
0
LINE
8
Black
10
144.405
20
-88.6245
11
144.621
21
-88.3676
0
LINE
8
Black
10
144.621
20
-88.3676
11
144.911
21
-88.1999
0
LINE
8
Black
10
144.911
20
-88.1999
11
145.241
21
-88.1417
0
LINE
8
Black
10
145.241
20
-88.1417
11
145.572
21
-88.1999
0
LINE
8
Black
10
148.072
20
-88.1999
11
148.362
21
-88.3676
0
LINE
8
Black
10
148.362
20
-88.3676
11
148.578
21
-88.6245
0
LINE
8
Black
10
148.578
20
-88.6245
11
148.692
21
-88.9396
0
LINE
8
Black
10
148.692
20
-88.9396
11
148.692
21
-89.275
0
LINE
8
Black
10
148.692
20
-89.275
11
148.578
21
-89.5902
0
LINE
8
Black
10
148.578
20
-89.5902
11
148.362
21
-89.8471
0
LINE
8
Black
10
148.362
20
-89.8471
11
148.072
21
-90.0148
0
LINE
8
Black
10
148.072
20
-90.0148
11
147.741
21
-90.073
0
LINE
8
Black
10
147.741
20
-90.073
11
147.411
21
-90.0148
0
LINE
8
Black
10
147.411
20
-90.0148
11
147.121
21
-89.8471
0
LINE
8
Black
10
147.121
20
-89.8471
11
146.905
21
-89.5902
0
LINE
8
Black
10
146.905
20
-89.5902
11
146.79
21
-89.275
0
LINE
8
Black
10
146.79
20
-89.275
11
146.79
21
-88.9396
0
LINE
8
Black
10
146.79
20
-88.9396
11
146.905
21
-88.6245
0
LINE
8
Black
10
146.905
20
-88.6245
11
147.121
21
-88.3676
0
LINE
8
Black
10
147.121
20
-88.3676
11
147.411
21
-88.1999
0
LINE
8
Black
10
147.411
20
-88.1999
11
147.741
21
-88.1417
0
LINE
8
Black
10
147.741
20
-88.1417
11
148.072
21
-88.1999
0
LINE
8
Black
10
150.572
20
-88.1999
11
150.862
21
-88.3676
0
LINE
8
Black
10
150.862
20
-88.3676
11
151.078
21
-88.6245
0
LINE
8
Black
10
151.078
20
-88.6245
11
151.192
21
-88.9396
0
LINE
8
Black
10
151.192
20
-88.9396
11
151.192
21
-89.275
0
LINE
8
Black
10
151.192
20
-89.275
11
151.078
21
-89.5902
0
LINE
8
Black
10
151.078
20
-89.5902
11
150.862
21
-89.8471
0
LINE
8
Black
10
150.862
20
-89.8471
11
150.572
21
-90.0148
0
LINE
8
Black
10
150.572
20
-90.0148
11
150.241
21
-90.073
0
LINE
8
Black
10
150.241
20
-90.073
11
149.911
21
-90.0148
0
LINE
8
Black
10
149.911
20
-90.0148
11
149.621
21
-89.8471
0
LINE
8
Black
10
149.621
20
-89.8471
11
149.405
21
-89.5902
0
LINE
8
Black
10
149.405
20
-89.5902
11
149.29
21
-89.275
0
LINE
8
Black
10
149.29
20
-89.275
11
149.29
21
-88.9396
0
LINE
8
Black
10
149.29
20
-88.9396
11
149.405
21
-88.6245
0
LINE
8
Black
10
149.405
20
-88.6245
11
149.621
21
-88.3676
0
LINE
8
Black
10
149.621
20
-88.3676
11
149.911
21
-88.1999
0
LINE
8
Black
10
149.911
20
-88.1999
11
150.241
21
-88.1417
0
LINE
8
Black
10
150.241
20
-88.1417
11
150.572
21
-88.1999
0
LINE
8
Black
10
153.072
20
-88.1999
11
153.362
21
-88.3676
0
LINE
8
Black
10
153.362
20
-88.3676
11
153.578
21
-88.6245
0
LINE
8
Black
10
153.578
20
-88.6245
11
153.692
21
-88.9396
0
LINE
8
Black
10
153.692
20
-88.9396
11
153.692
21
-89.275
0
LINE
8
Black
10
153.692
20
-89.275
11
153.578
21
-89.5902
0
LINE
8
Black
10
153.578
20
-89.5902
11
153.362
21
-89.8471
0
LINE
8
Black
10
153.362
20
-89.8471
11
153.072
21
-90.0148
0
LINE
8
Black
10
153.072
20
-90.0148
11
152.741
21
-90.073
0
LINE
8
Black
10
152.741
20
-90.073
11
152.411
21
-90.0148
0
LINE
8
Black
10
152.411
20
-90.0148
11
152.121
21
-89.8471
0
LINE
8
Black
10
152.121
20
-89.8471
11
151.905
21
-89.5902
0
LINE
8
Black
10
151.905
20
-89.5902
11
151.79
21
-89.275
0
LINE
8
Black
10
151.79
20
-89.275
11
151.79
21
-88.9396
0
LINE
8
Black
10
151.79
20
-88.9396
11
151.905
21
-88.6245
0
LINE
8
Black
10
151.905
20
-88.6245
11
152.121
21
-88.3676
0
LINE
8
Black
10
152.121
20
-88.3676
11
152.411
21
-88.1999
0
LINE
8
Black
10
152.411
20
-88.1999
11
152.741
21
-88.1417
0
LINE
8
Black
10
152.741
20
-88.1417
11
153.072
21
-88.1999
0
LINE
8
Black
10
133.072
20
-88.1999
11
133.362
21
-88.3676
0
LINE
8
Black
10
133.362
20
-88.3676
11
133.578
21
-88.6245
0
LINE
8
Black
10
133.578
20
-88.6245
11
133.692
21
-88.9396
0
LINE
8
Black
10
133.692
20
-88.9396
11
133.692
21
-89.275
0
LINE
8
Black
10
133.692
20
-89.275
11
133.578
21
-89.5902
0
LINE
8
Black
10
133.578
20
-89.5902
11
133.362
21
-89.8471
0
LINE
8
Black
10
133.362
20
-89.8471
11
133.072
21
-90.0148
0
LINE
8
Black
10
133.072
20
-90.0148
11
132.741
21
-90.073
0
LINE
8
Black
10
132.741
20
-90.073
11
132.411
21
-90.0148
0
LINE
8
Black
10
132.411
20
-90.0148
11
132.121
21
-89.8471
0
LINE
8
Black
10
132.121
20
-89.8471
11
131.905
21
-89.5902
0
LINE
8
Black
10
131.905
20
-89.5902
11
131.79
21
-89.275
0
LINE
8
Black
10
131.79
20
-89.275
11
131.79
21
-88.9396
0
LINE
8
Black
10
131.79
20
-88.9396
11
131.905
21
-88.6245
0
LINE
8
Black
10
131.905
20
-88.6245
11
132.121
21
-88.3676
0
LINE
8
Black
10
132.121
20
-88.3676
11
132.411
21
-88.1999
0
LINE
8
Black
10
132.411
20
-88.1999
11
132.741
21
-88.1417
0
LINE
8
Black
10
132.741
20
-88.1417
11
133.072
21
-88.1999
0
LINE
8
Black
10
158.072
20
-88.1999
11
158.362
21
-88.3676
0
LINE
8
Black
10
158.362
20
-88.3676
11
158.578
21
-88.6245
0
LINE
8
Black
10
158.578
20
-88.6245
11
158.692
21
-88.9396
0
LINE
8
Black
10
158.692
20
-88.9396
11
158.692
21
-89.275
0
LINE
8
Black
10
158.692
20
-89.275
11
158.578
21
-89.5902
0
LINE
8
Black
10
158.578
20
-89.5902
11
158.362
21
-89.8471
0
LINE
8
Black
10
158.362
20
-89.8471
11
158.072
21
-90.0148
0
LINE
8
Black
10
158.072
20
-90.0148
11
157.741
21
-90.073
0
LINE
8
Black
10
157.741
20
-90.073
11
157.411
21
-90.0148
0
LINE
8
Black
10
157.411
20
-90.0148
11
157.121
21
-89.8471
0
LINE
8
Black
10
157.121
20
-89.8471
11
156.905
21
-89.5902
0
LINE
8
Black
10
156.905
20
-89.5902
11
156.79
21
-89.275
0
LINE
8
Black
10
156.79
20
-89.275
11
156.79
21
-88.9396
0
LINE
8
Black
10
156.79
20
-88.9396
11
156.905
21
-88.6245
0
LINE
8
Black
10
156.905
20
-88.6245
11
157.121
21
-88.3676
0
LINE
8
Black
10
157.121
20
-88.3676
11
157.411
21
-88.1999
0
LINE
8
Black
10
157.411
20
-88.1999
11
157.741
21
-88.1417
0
LINE
8
Black
10
157.741
20
-88.1417
11
158.072
21
-88.1999
0
LINE
8
Black
10
160.572
20
-88.1999
11
160.862
21
-88.3676
0
LINE
8
Black
10
160.862
20
-88.3676
11
161.078
21
-88.6245
0
LINE
8
Black
10
161.078
20
-88.6245
11
161.192
21
-88.9396
0
LINE
8
Black
10
161.192
20
-88.9396
11
161.192
21
-89.275
0
LINE
8
Black
10
161.192
20
-89.275
11
161.078
21
-89.5902
0
LINE
8
Black
10
161.078
20
-89.5902
11
160.862
21
-89.8471
0
LINE
8
Black
10
160.862
20
-89.8471
11
160.572
21
-90.0148
0
LINE
8
Black
10
160.572
20
-90.0148
11
160.241
21
-90.073
0
LINE
8
Black
10
160.241
20
-90.073
11
159.911
21
-90.0148
0
LINE
8
Black
10
159.911
20
-90.0148
11
159.621
21
-89.8471
0
LINE
8
Black
10
159.621
20
-89.8471
11
159.405
21
-89.5902
0
LINE
8
Black
10
159.405
20
-89.5902
11
159.29
21
-89.275
0
LINE
8
Black
10
159.29
20
-89.275
11
159.29
21
-88.9396
0
LINE
8
Black
10
159.29
20
-88.9396
11
159.405
21
-88.6245
0
LINE
8
Black
10
159.405
20
-88.6245
11
159.621
21
-88.3676
0
LINE
8
Black
10
159.621
20
-88.3676
11
159.911
21
-88.1999
0
LINE
8
Black
10
159.911
20
-88.1999
11
160.241
21
-88.1417
0
LINE
8
Black
10
160.241
20
-88.1417
11
160.572
21
-88.1999
0
LINE
8
Black
10
163.072
20
-88.1999
11
163.362
21
-88.3676
0
LINE
8
Black
10
163.362
20
-88.3676
11
163.578
21
-88.6245
0
LINE
8
Black
10
163.578
20
-88.6245
11
163.692
21
-88.9396
0
LINE
8
Black
10
163.692
20
-88.9396
11
163.692
21
-89.275
0
LINE
8
Black
10
163.692
20
-89.275
11
163.578
21
-89.5902
0
LINE
8
Black
10
163.578
20
-89.5902
11
163.362
21
-89.8471
0
LINE
8
Black
10
163.362
20
-89.8471
11
163.072
21
-90.0148
0
LINE
8
Black
10
163.072
20
-90.0148
11
162.741
21
-90.073
0
LINE
8
Black
10
162.741
20
-90.073
11
162.411
21
-90.0148
0
LINE
8
Black
10
162.411
20
-90.0148
11
162.121
21
-89.8471
0
LINE
8
Black
10
162.121
20
-89.8471
11
161.905
21
-89.5902
0
LINE
8
Black
10
161.905
20
-89.5902
11
161.79
21
-89.275
0
LINE
8
Black
10
161.79
20
-89.275
11
161.79
21
-88.9396
0
LINE
8
Black
10
161.79
20
-88.9396
11
161.905
21
-88.6245
0
LINE
8
Black
10
161.905
20
-88.6245
11
162.121
21
-88.3676
0
LINE
8
Black
10
162.121
20
-88.3676
11
162.411
21
-88.1999
0
LINE
8
Black
10
162.411
20
-88.1999
11
162.741
21
-88.1417
0
LINE
8
Black
10
162.741
20
-88.1417
11
163.072
21
-88.1999
0
LINE
8
Black
10
165.572
20
-88.1999
11
165.862
21
-88.3676
0
LINE
8
Black
10
165.862
20
-88.3676
11
166.078
21
-88.6245
0
LINE
8
Black
10
166.078
20
-88.6245
11
166.192
21
-88.9396
0
LINE
8
Black
10
166.192
20
-88.9396
11
166.192
21
-89.275
0
LINE
8
Black
10
166.192
20
-89.275
11
166.078
21
-89.5902
0
LINE
8
Black
10
166.078
20
-89.5902
11
165.862
21
-89.8471
0
LINE
8
Black
10
165.862
20
-89.8471
11
165.572
21
-90.0148
0
LINE
8
Black
10
165.572
20
-90.0148
11
165.241
21
-90.073
0
LINE
8
Black
10
165.241
20
-90.073
11
164.911
21
-90.0148
0
LINE
8
Black
10
164.911
20
-90.0148
11
164.621
21
-89.8471
0
LINE
8
Black
10
164.621
20
-89.8471
11
164.405
21
-89.5902
0
LINE
8
Black
10
164.405
20
-89.5902
11
164.29
21
-89.275
0
LINE
8
Black
10
164.29
20
-89.275
11
164.29
21
-88.9396
0
LINE
8
Black
10
164.29
20
-88.9396
11
164.405
21
-88.6245
0
LINE
8
Black
10
164.405
20
-88.6245
11
164.621
21
-88.3676
0
LINE
8
Black
10
164.621
20
-88.3676
11
164.911
21
-88.1999
0
LINE
8
Black
10
164.911
20
-88.1999
11
165.241
21
-88.1417
0
LINE
8
Black
10
165.241
20
-88.1417
11
165.572
21
-88.1999
0
LINE
8
Black
10
168.072
20
-88.1999
11
168.362
21
-88.3676
0
LINE
8
Black
10
168.362
20
-88.3676
11
168.578
21
-88.6245
0
LINE
8
Black
10
168.578
20
-88.6245
11
168.692
21
-88.9396
0
LINE
8
Black
10
168.692
20
-88.9396
11
168.692
21
-89.275
0
LINE
8
Black
10
168.692
20
-89.275
11
168.578
21
-89.5902
0
LINE
8
Black
10
168.578
20
-89.5902
11
168.362
21
-89.8471
0
LINE
8
Black
10
168.362
20
-89.8471
11
168.072
21
-90.0148
0
LINE
8
Black
10
168.072
20
-90.0148
11
167.741
21
-90.073
0
LINE
8
Black
10
167.741
20
-90.073
11
167.411
21
-90.0148
0
LINE
8
Black
10
167.411
20
-90.0148
11
167.121
21
-89.8471
0
LINE
8
Black
10
167.121
20
-89.8471
11
166.905
21
-89.5902
0
LINE
8
Black
10
166.905
20
-89.5902
11
166.79
21
-89.275
0
LINE
8
Black
10
166.79
20
-89.275
11
166.79
21
-88.9396
0
LINE
8
Black
10
166.79
20
-88.9396
11
166.905
21
-88.6245
0
LINE
8
Black
10
166.905
20
-88.6245
11
167.121
21
-88.3676
0
LINE
8
Black
10
167.121
20
-88.3676
11
167.411
21
-88.1999
0
LINE
8
Black
10
167.411
20
-88.1999
11
167.741
21
-88.1417
0
LINE
8
Black
10
167.741
20
-88.1417
11
168.072
21
-88.1999
0
LINE
8
Black
10
170.572
20
-88.1999
11
170.862
21
-88.3676
0
LINE
8
Black
10
170.862
20
-88.3676
11
171.078
21
-88.6245
0
LINE
8
Black
10
171.078
20
-88.6245
11
171.192
21
-88.9396
0
LINE
8
Black
10
171.192
20
-88.9396
11
171.192
21
-89.275
0
LINE
8
Black
10
171.192
20
-89.275
11
171.078
21
-89.5902
0
LINE
8
Black
10
171.078
20
-89.5902
11
170.862
21
-89.8471
0
LINE
8
Black
10
170.862
20
-89.8471
11
170.572
21
-90.0148
0
LINE
8
Black
10
170.572
20
-90.0148
11
170.241
21
-90.073
0
LINE
8
Black
10
170.241
20
-90.073
11
169.911
21
-90.0148
0
LINE
8
Black
10
169.911
20
-90.0148
11
169.621
21
-89.8471
0
LINE
8
Black
10
169.621
20
-89.8471
11
169.405
21
-89.5902
0
LINE
8
Black
10
169.405
20
-89.5902
11
169.29
21
-89.275
0
LINE
8
Black
10
169.29
20
-89.275
11
169.29
21
-88.9396
0
LINE
8
Black
10
169.29
20
-88.9396
11
169.405
21
-88.6245
0
LINE
8
Black
10
169.405
20
-88.6245
11
169.621
21
-88.3676
0
LINE
8
Black
10
169.621
20
-88.3676
11
169.911
21
-88.1999
0
LINE
8
Black
10
169.911
20
-88.1999
11
170.241
21
-88.1417
0
LINE
8
Black
10
170.241
20
-88.1417
11
170.572
21
-88.1999
0
LINE
8
Black
10
173.072
20
-88.1999
11
173.362
21
-88.3676
0
LINE
8
Black
10
173.362
20
-88.3676
11
173.578
21
-88.6245
0
LINE
8
Black
10
173.578
20
-88.6245
11
173.692
21
-88.9396
0
LINE
8
Black
10
173.692
20
-88.9396
11
173.692
21
-89.275
0
LINE
8
Black
10
173.692
20
-89.275
11
173.578
21
-89.5902
0
LINE
8
Black
10
173.578
20
-89.5902
11
173.362
21
-89.8471
0
LINE
8
Black
10
173.362
20
-89.8471
11
173.072
21
-90.0148
0
LINE
8
Black
10
173.072
20
-90.0148
11
172.741
21
-90.073
0
LINE
8
Black
10
172.741
20
-90.073
11
172.411
21
-90.0148
0
LINE
8
Black
10
172.411
20
-90.0148
11
172.121
21
-89.8471
0
LINE
8
Black
10
172.121
20
-89.8471
11
171.905
21
-89.5902
0
LINE
8
Black
10
171.905
20
-89.5902
11
171.79
21
-89.275
0
LINE
8
Black
10
171.79
20
-89.275
11
171.79
21
-88.9396
0
LINE
8
Black
10
171.79
20
-88.9396
11
171.905
21
-88.6245
0
LINE
8
Black
10
171.905
20
-88.6245
11
172.121
21
-88.3676
0
LINE
8
Black
10
172.121
20
-88.3676
11
172.411
21
-88.1999
0
LINE
8
Black
10
172.411
20
-88.1999
11
172.741
21
-88.1417
0
LINE
8
Black
10
172.741
20
-88.1417
11
173.072
21
-88.1999
0
LINE
8
Black
10
175.572
20
-88.1999
11
175.862
21
-88.3676
0
LINE
8
Black
10
175.862
20
-88.3676
11
176.078
21
-88.6245
0
LINE
8
Black
10
176.078
20
-88.6245
11
176.192
21
-88.9396
0
LINE
8
Black
10
176.192
20
-88.9396
11
176.192
21
-89.275
0
LINE
8
Black
10
176.192
20
-89.275
11
176.078
21
-89.5902
0
LINE
8
Black
10
176.078
20
-89.5902
11
175.862
21
-89.8471
0
LINE
8
Black
10
175.862
20
-89.8471
11
175.572
21
-90.0148
0
LINE
8
Black
10
175.572
20
-90.0148
11
175.241
21
-90.073
0
LINE
8
Black
10
175.241
20
-90.073
11
174.911
21
-90.0148
0
LINE
8
Black
10
174.911
20
-90.0148
11
174.621
21
-89.8471
0
LINE
8
Black
10
174.621
20
-89.8471
11
174.405
21
-89.5902
0
LINE
8
Black
10
174.405
20
-89.5902
11
174.29
21
-89.275
0
LINE
8
Black
10
174.29
20
-89.275
11
174.29
21
-88.9396
0
LINE
8
Black
10
174.29
20
-88.9396
11
174.405
21
-88.6245
0
LINE
8
Black
10
174.405
20
-88.6245
11
174.621
21
-88.3676
0
LINE
8
Black
10
174.621
20
-88.3676
11
174.911
21
-88.1999
0
LINE
8
Black
10
174.911
20
-88.1999
11
175.241
21
-88.1417
0
LINE
8
Black
10
175.241
20
-88.1417
11
175.572
21
-88.1999
0
LINE
8
Black
10
130.572
20
-88.1999
11
130.862
21
-88.3676
0
LINE
8
Black
10
130.862
20
-88.3676
11
131.078
21
-88.6245
0
LINE
8
Black
10
131.078
20
-88.6245
11
131.192
21
-88.9396
0
LINE
8
Black
10
131.192
20
-88.9396
11
131.192
21
-89.275
0
LINE
8
Black
10
131.192
20
-89.275
11
131.078
21
-89.5902
0
LINE
8
Black
10
131.078
20
-89.5902
11
130.862
21
-89.8471
0
LINE
8
Black
10
130.862
20
-89.8471
11
130.572
21
-90.0148
0
LINE
8
Black
10
130.572
20
-90.0148
11
130.241
21
-90.073
0
LINE
8
Black
10
130.241
20
-90.073
11
129.911
21
-90.0148
0
LINE
8
Black
10
129.911
20
-90.0148
11
129.621
21
-89.8471
0
LINE
8
Black
10
129.621
20
-89.8471
11
129.405
21
-89.5902
0
LINE
8
Black
10
129.405
20
-89.5902
11
129.29
21
-89.275
0
LINE
8
Black
10
129.29
20
-89.275
11
129.29
21
-88.9396
0
LINE
8
Black
10
129.29
20
-88.9396
11
129.405
21
-88.6245
0
LINE
8
Black
10
129.405
20
-88.6245
11
129.621
21
-88.3676
0
LINE
8
Black
10
129.621
20
-88.3676
11
129.911
21
-88.1999
0
LINE
8
Black
10
129.911
20
-88.1999
11
130.241
21
-88.1417
0
LINE
8
Black
10
130.241
20
-88.1417
11
130.572
21
-88.1999
0
LINE
8
Black
10
98.0716
20
-88.1999
11
98.3621
21
-88.3676
0
LINE
8
Black
10
98.3621
20
-88.3676
11
98.5776
21
-88.6245
0
LINE
8
Black
10
98.5776
20
-88.6245
11
98.6924
21
-88.9396
0
LINE
8
Black
10
98.6924
20
-88.9396
11
98.6924
21
-89.275
0
LINE
8
Black
10
98.6924
20
-89.275
11
98.5776
21
-89.5902
0
LINE
8
Black
10
98.5776
20
-89.5902
11
98.3621
21
-89.8471
0
LINE
8
Black
10
98.3621
20
-89.8471
11
98.0716
21
-90.0148
0
LINE
8
Black
10
98.0716
20
-90.0148
11
97.7413
21
-90.073
0
LINE
8
Black
10
97.7413
20
-90.073
11
97.4111
21
-90.0148
0
LINE
8
Black
10
97.4111
20
-90.0148
11
97.1206
21
-89.8471
0
LINE
8
Black
10
97.1206
20
-89.8471
11
96.9051
21
-89.5902
0
LINE
8
Black
10
96.9051
20
-89.5902
11
96.7903
21
-89.275
0
LINE
8
Black
10
96.7903
20
-89.275
11
96.7903
21
-88.9396
0
LINE
8
Black
10
96.7903
20
-88.9396
11
96.9051
21
-88.6245
0
LINE
8
Black
10
96.9051
20
-88.6245
11
97.1206
21
-88.3676
0
LINE
8
Black
10
97.1206
20
-88.3676
11
97.4111
21
-88.1999
0
LINE
8
Black
10
97.4111
20
-88.1999
11
97.7413
21
-88.1417
0
LINE
8
Black
10
97.7413
20
-88.1417
11
98.0716
21
-88.1999
0
LINE
8
Black
10
100.572
20
-88.1999
11
100.862
21
-88.3676
0
LINE
8
Black
10
100.862
20
-88.3676
11
101.078
21
-88.6245
0
LINE
8
Black
10
101.078
20
-88.6245
11
101.192
21
-88.9396
0
LINE
8
Black
10
101.192
20
-88.9396
11
101.192
21
-89.275
0
LINE
8
Black
10
101.192
20
-89.275
11
101.078
21
-89.5902
0
LINE
8
Black
10
101.078
20
-89.5902
11
100.862
21
-89.8471
0
LINE
8
Black
10
100.862
20
-89.8471
11
100.572
21
-90.0148
0
LINE
8
Black
10
100.572
20
-90.0148
11
100.241
21
-90.073
0
LINE
8
Black
10
100.241
20
-90.073
11
99.9111
21
-90.0148
0
LINE
8
Black
10
99.9111
20
-90.0148
11
99.6206
21
-89.8471
0
LINE
8
Black
10
99.6206
20
-89.8471
11
99.4051
21
-89.5902
0
LINE
8
Black
10
99.4051
20
-89.5902
11
99.2903
21
-89.275
0
LINE
8
Black
10
99.2903
20
-89.275
11
99.2903
21
-88.9396
0
LINE
8
Black
10
99.2903
20
-88.9396
11
99.4051
21
-88.6245
0
LINE
8
Black
10
99.4051
20
-88.6245
11
99.6206
21
-88.3676
0
LINE
8
Black
10
99.6206
20
-88.3676
11
99.9111
21
-88.1999
0
LINE
8
Black
10
99.9111
20
-88.1999
11
100.241
21
-88.1417
0
LINE
8
Black
10
100.241
20
-88.1417
11
100.572
21
-88.1999
0
LINE
8
Black
10
103.072
20
-88.1999
11
103.362
21
-88.3676
0
LINE
8
Black
10
103.362
20
-88.3676
11
103.578
21
-88.6245
0
LINE
8
Black
10
103.578
20
-88.6245
11
103.692
21
-88.9396
0
LINE
8
Black
10
103.692
20
-88.9396
11
103.692
21
-89.275
0
LINE
8
Black
10
103.692
20
-89.275
11
103.578
21
-89.5902
0
LINE
8
Black
10
103.578
20
-89.5902
11
103.362
21
-89.8471
0
LINE
8
Black
10
103.362
20
-89.8471
11
103.072
21
-90.0148
0
LINE
8
Black
10
103.072
20
-90.0148
11
102.741
21
-90.073
0
LINE
8
Black
10
102.741
20
-90.073
11
102.411
21
-90.0148
0
LINE
8
Black
10
102.411
20
-90.0148
11
102.121
21
-89.8471
0
LINE
8
Black
10
102.121
20
-89.8471
11
101.905
21
-89.5902
0
LINE
8
Black
10
101.905
20
-89.5902
11
101.79
21
-89.275
0
LINE
8
Black
10
101.79
20
-89.275
11
101.79
21
-88.9396
0
LINE
8
Black
10
101.79
20
-88.9396
11
101.905
21
-88.6245
0
LINE
8
Black
10
101.905
20
-88.6245
11
102.121
21
-88.3676
0
LINE
8
Black
10
102.121
20
-88.3676
11
102.411
21
-88.1999
0
LINE
8
Black
10
102.411
20
-88.1999
11
102.741
21
-88.1417
0
LINE
8
Black
10
102.741
20
-88.1417
11
103.072
21
-88.1999
0
LINE
8
Black
10
105.572
20
-88.1999
11
105.862
21
-88.3676
0
LINE
8
Black
10
105.862
20
-88.3676
11
106.078
21
-88.6245
0
LINE
8
Black
10
106.078
20
-88.6245
11
106.192
21
-88.9396
0
LINE
8
Black
10
106.192
20
-88.9396
11
106.192
21
-89.275
0
LINE
8
Black
10
106.192
20
-89.275
11
106.078
21
-89.5902
0
LINE
8
Black
10
106.078
20
-89.5902
11
105.862
21
-89.8471
0
LINE
8
Black
10
105.862
20
-89.8471
11
105.572
21
-90.0148
0
LINE
8
Black
10
105.572
20
-90.0148
11
105.241
21
-90.073
0
LINE
8
Black
10
105.241
20
-90.073
11
104.911
21
-90.0148
0
LINE
8
Black
10
104.911
20
-90.0148
11
104.621
21
-89.8471
0
LINE
8
Black
10
104.621
20
-89.8471
11
104.405
21
-89.5902
0
LINE
8
Black
10
104.405
20
-89.5902
11
104.29
21
-89.275
0
LINE
8
Black
10
104.29
20
-89.275
11
104.29
21
-88.9396
0
LINE
8
Black
10
104.29
20
-88.9396
11
104.405
21
-88.6245
0
LINE
8
Black
10
104.405
20
-88.6245
11
104.621
21
-88.3676
0
LINE
8
Black
10
104.621
20
-88.3676
11
104.911
21
-88.1999
0
LINE
8
Black
10
104.911
20
-88.1999
11
105.241
21
-88.1417
0
LINE
8
Black
10
105.241
20
-88.1417
11
105.572
21
-88.1999
0
LINE
8
Black
10
108.072
20
-88.1999
11
108.362
21
-88.3676
0
LINE
8
Black
10
108.362
20
-88.3676
11
108.578
21
-88.6245
0
LINE
8
Black
10
108.578
20
-88.6245
11
108.692
21
-88.9396
0
LINE
8
Black
10
108.692
20
-88.9396
11
108.692
21
-89.275
0
LINE
8
Black
10
108.692
20
-89.275
11
108.578
21
-89.5902
0
LINE
8
Black
10
108.578
20
-89.5902
11
108.362
21
-89.8471
0
LINE
8
Black
10
108.362
20
-89.8471
11
108.072
21
-90.0148
0
LINE
8
Black
10
108.072
20
-90.0148
11
107.741
21
-90.073
0
LINE
8
Black
10
107.741
20
-90.073
11
107.411
21
-90.0148
0
LINE
8
Black
10
107.411
20
-90.0148
11
107.121
21
-89.8471
0
LINE
8
Black
10
107.121
20
-89.8471
11
106.905
21
-89.5902
0
LINE
8
Black
10
106.905
20
-89.5902
11
106.79
21
-89.275
0
LINE
8
Black
10
106.79
20
-89.275
11
106.79
21
-88.9396
0
LINE
8
Black
10
106.79
20
-88.9396
11
106.905
21
-88.6245
0
LINE
8
Black
10
106.905
20
-88.6245
11
107.121
21
-88.3676
0
LINE
8
Black
10
107.121
20
-88.3676
11
107.411
21
-88.1999
0
LINE
8
Black
10
107.411
20
-88.1999
11
107.741
21
-88.1417
0
LINE
8
Black
10
107.741
20
-88.1417
11
108.072
21
-88.1999
0
LINE
8
Black
10
110.572
20
-88.1999
11
110.862
21
-88.3676
0
LINE
8
Black
10
110.862
20
-88.3676
11
111.078
21
-88.6245
0
LINE
8
Black
10
111.078
20
-88.6245
11
111.192
21
-88.9396
0
LINE
8
Black
10
111.192
20
-88.9396
11
111.192
21
-89.275
0
LINE
8
Black
10
111.192
20
-89.275
11
111.078
21
-89.5902
0
LINE
8
Black
10
111.078
20
-89.5902
11
110.862
21
-89.8471
0
LINE
8
Black
10
110.862
20
-89.8471
11
110.572
21
-90.0148
0
LINE
8
Black
10
110.572
20
-90.0148
11
110.241
21
-90.073
0
LINE
8
Black
10
110.241
20
-90.073
11
109.911
21
-90.0148
0
LINE
8
Black
10
109.911
20
-90.0148
11
109.621
21
-89.8471
0
LINE
8
Black
10
109.621
20
-89.8471
11
109.405
21
-89.5902
0
LINE
8
Black
10
109.405
20
-89.5902
11
109.29
21
-89.275
0
LINE
8
Black
10
109.29
20
-89.275
11
109.29
21
-88.9396
0
LINE
8
Black
10
109.29
20
-88.9396
11
109.405
21
-88.6245
0
LINE
8
Black
10
109.405
20
-88.6245
11
109.621
21
-88.3676
0
LINE
8
Black
10
109.621
20
-88.3676
11
109.911
21
-88.1999
0
LINE
8
Black
10
109.911
20
-88.1999
11
110.241
21
-88.1417
0
LINE
8
Black
10
110.241
20
-88.1417
11
110.572
21
-88.1999
0
LINE
8
Black
10
113.072
20
-88.1999
11
113.362
21
-88.3676
0
LINE
8
Black
10
113.362
20
-88.3676
11
113.578
21
-88.6245
0
LINE
8
Black
10
113.578
20
-88.6245
11
113.692
21
-88.9396
0
LINE
8
Black
10
113.692
20
-88.9396
11
113.692
21
-89.275
0
LINE
8
Black
10
113.692
20
-89.275
11
113.578
21
-89.5902
0
LINE
8
Black
10
113.578
20
-89.5902
11
113.362
21
-89.8471
0
LINE
8
Black
10
113.362
20
-89.8471
11
113.072
21
-90.0148
0
LINE
8
Black
10
113.072
20
-90.0148
11
112.741
21
-90.073
0
LINE
8
Black
10
112.741
20
-90.073
11
112.411
21
-90.0148
0
LINE
8
Black
10
112.411
20
-90.0148
11
112.121
21
-89.8471
0
LINE
8
Black
10
112.121
20
-89.8471
11
111.905
21
-89.5902
0
LINE
8
Black
10
111.905
20
-89.5902
11
111.79
21
-89.275
0
LINE
8
Black
10
111.79
20
-89.275
11
111.79
21
-88.9396
0
LINE
8
Black
10
111.79
20
-88.9396
11
111.905
21
-88.6245
0
LINE
8
Black
10
111.905
20
-88.6245
11
112.121
21
-88.3676
0
LINE
8
Black
10
112.121
20
-88.3676
11
112.411
21
-88.1999
0
LINE
8
Black
10
112.411
20
-88.1999
11
112.741
21
-88.1417
0
LINE
8
Black
10
112.741
20
-88.1417
11
113.072
21
-88.1999
0
LINE
8
Black
10
115.572
20
-88.1999
11
115.862
21
-88.3676
0
LINE
8
Black
10
115.862
20
-88.3676
11
116.078
21
-88.6245
0
LINE
8
Black
10
116.078
20
-88.6245
11
116.192
21
-88.9396
0
LINE
8
Black
10
116.192
20
-88.9396
11
116.192
21
-89.275
0
LINE
8
Black
10
116.192
20
-89.275
11
116.078
21
-89.5902
0
LINE
8
Black
10
116.078
20
-89.5902
11
115.862
21
-89.8471
0
LINE
8
Black
10
115.862
20
-89.8471
11
115.572
21
-90.0148
0
LINE
8
Black
10
115.572
20
-90.0148
11
115.241
21
-90.073
0
LINE
8
Black
10
115.241
20
-90.073
11
114.911
21
-90.0148
0
LINE
8
Black
10
114.911
20
-90.0148
11
114.621
21
-89.8471
0
LINE
8
Black
10
114.621
20
-89.8471
11
114.405
21
-89.5902
0
LINE
8
Black
10
114.405
20
-89.5902
11
114.29
21
-89.275
0
LINE
8
Black
10
114.29
20
-89.275
11
114.29
21
-88.9396
0
LINE
8
Black
10
114.29
20
-88.9396
11
114.405
21
-88.6245
0
LINE
8
Black
10
114.405
20
-88.6245
11
114.621
21
-88.3676
0
LINE
8
Black
10
114.621
20
-88.3676
11
114.911
21
-88.1999
0
LINE
8
Black
10
114.911
20
-88.1999
11
115.241
21
-88.1417
0
LINE
8
Black
10
115.241
20
-88.1417
11
115.572
21
-88.1999
0
LINE
8
Black
10
118.072
20
-88.1999
11
118.362
21
-88.3676
0
LINE
8
Black
10
118.362
20
-88.3676
11
118.578
21
-88.6245
0
LINE
8
Black
10
118.578
20
-88.6245
11
118.692
21
-88.9396
0
LINE
8
Black
10
118.692
20
-88.9396
11
118.692
21
-89.275
0
LINE
8
Black
10
118.692
20
-89.275
11
118.578
21
-89.5902
0
LINE
8
Black
10
118.578
20
-89.5902
11
118.362
21
-89.8471
0
LINE
8
Black
10
118.362
20
-89.8471
11
118.072
21
-90.0148
0
LINE
8
Black
10
118.072
20
-90.0148
11
117.741
21
-90.073
0
LINE
8
Black
10
117.741
20
-90.073
11
117.411
21
-90.0148
0
LINE
8
Black
10
117.411
20
-90.0148
11
117.121
21
-89.8471
0
LINE
8
Black
10
117.121
20
-89.8471
11
116.905
21
-89.5902
0
LINE
8
Black
10
116.905
20
-89.5902
11
116.79
21
-89.275
0
LINE
8
Black
10
116.79
20
-89.275
11
116.79
21
-88.9396
0
LINE
8
Black
10
116.79
20
-88.9396
11
116.905
21
-88.6245
0
LINE
8
Black
10
116.905
20
-88.6245
11
117.121
21
-88.3676
0
LINE
8
Black
10
117.121
20
-88.3676
11
117.411
21
-88.1999
0
LINE
8
Black
10
117.411
20
-88.1999
11
117.741
21
-88.1417
0
LINE
8
Black
10
117.741
20
-88.1417
11
118.072
21
-88.1999
0
LINE
8
Black
10
120.572
20
-88.1999
11
120.862
21
-88.3676
0
LINE
8
Black
10
120.862
20
-88.3676
11
121.078
21
-88.6245
0
LINE
8
Black
10
121.078
20
-88.6245
11
121.192
21
-88.9396
0
LINE
8
Black
10
121.192
20
-88.9396
11
121.192
21
-89.275
0
LINE
8
Black
10
121.192
20
-89.275
11
121.078
21
-89.5902
0
LINE
8
Black
10
121.078
20
-89.5902
11
120.862
21
-89.8471
0
LINE
8
Black
10
120.862
20
-89.8471
11
120.572
21
-90.0148
0
LINE
8
Black
10
120.572
20
-90.0148
11
120.241
21
-90.073
0
LINE
8
Black
10
120.241
20
-90.073
11
119.911
21
-90.0148
0
LINE
8
Black
10
119.911
20
-90.0148
11
119.621
21
-89.8471
0
LINE
8
Black
10
119.621
20
-89.8471
11
119.405
21
-89.5902
0
LINE
8
Black
10
119.405
20
-89.5902
11
119.29
21
-89.275
0
LINE
8
Black
10
119.29
20
-89.275
11
119.29
21
-88.9396
0
LINE
8
Black
10
119.29
20
-88.9396
11
119.405
21
-88.6245
0
LINE
8
Black
10
119.405
20
-88.6245
11
119.621
21
-88.3676
0
LINE
8
Black
10
119.621
20
-88.3676
11
119.911
21
-88.1999
0
LINE
8
Black
10
119.911
20
-88.1999
11
120.241
21
-88.1417
0
LINE
8
Black
10
120.241
20
-88.1417
11
120.572
21
-88.1999
0
LINE
8
Black
10
123.072
20
-88.1999
11
123.362
21
-88.3676
0
LINE
8
Black
10
123.362
20
-88.3676
11
123.578
21
-88.6245
0
LINE
8
Black
10
123.578
20
-88.6245
11
123.692
21
-88.9396
0
LINE
8
Black
10
123.692
20
-88.9396
11
123.692
21
-89.275
0
LINE
8
Black
10
123.692
20
-89.275
11
123.578
21
-89.5902
0
LINE
8
Black
10
123.578
20
-89.5902
11
123.362
21
-89.8471
0
LINE
8
Black
10
123.362
20
-89.8471
11
123.072
21
-90.0148
0
LINE
8
Black
10
123.072
20
-90.0148
11
122.741
21
-90.073
0
LINE
8
Black
10
122.741
20
-90.073
11
122.411
21
-90.0148
0
LINE
8
Black
10
122.411
20
-90.0148
11
122.121
21
-89.8471
0
LINE
8
Black
10
122.121
20
-89.8471
11
121.905
21
-89.5902
0
LINE
8
Black
10
121.905
20
-89.5902
11
121.79
21
-89.275
0
LINE
8
Black
10
121.79
20
-89.275
11
121.79
21
-88.9396
0
LINE
8
Black
10
121.79
20
-88.9396
11
121.905
21
-88.6245
0
LINE
8
Black
10
121.905
20
-88.6245
11
122.121
21
-88.3676
0
LINE
8
Black
10
122.121
20
-88.3676
11
122.411
21
-88.1999
0
LINE
8
Black
10
122.411
20
-88.1999
11
122.741
21
-88.1417
0
LINE
8
Black
10
122.741
20
-88.1417
11
123.072
21
-88.1999
0
LINE
8
Black
10
125.572
20
-88.1999
11
125.862
21
-88.3676
0
LINE
8
Black
10
125.862
20
-88.3676
11
126.078
21
-88.6245
0
LINE
8
Black
10
126.078
20
-88.6245
11
126.192
21
-88.9396
0
LINE
8
Black
10
126.192
20
-88.9396
11
126.192
21
-89.275
0
LINE
8
Black
10
126.192
20
-89.275
11
126.078
21
-89.5902
0
LINE
8
Black
10
126.078
20
-89.5902
11
125.862
21
-89.8471
0
LINE
8
Black
10
125.862
20
-89.8471
11
125.572
21
-90.0148
0
LINE
8
Black
10
125.572
20
-90.0148
11
125.241
21
-90.073
0
LINE
8
Black
10
125.241
20
-90.073
11
124.911
21
-90.0148
0
LINE
8
Black
10
124.911
20
-90.0148
11
124.621
21
-89.8471
0
LINE
8
Black
10
124.621
20
-89.8471
11
124.405
21
-89.5902
0
LINE
8
Black
10
124.405
20
-89.5902
11
124.29
21
-89.275
0
LINE
8
Black
10
124.29
20
-89.275
11
124.29
21
-88.9396
0
LINE
8
Black
10
124.29
20
-88.9396
11
124.405
21
-88.6245
0
LINE
8
Black
10
124.405
20
-88.6245
11
124.621
21
-88.3676
0
LINE
8
Black
10
124.621
20
-88.3676
11
124.911
21
-88.1999
0
LINE
8
Black
10
124.911
20
-88.1999
11
125.241
21
-88.1417
0
LINE
8
Black
10
125.241
20
-88.1417
11
125.572
21
-88.1999
0
LINE
8
Black
10
128.072
20
-88.1999
11
128.362
21
-88.3676
0
LINE
8
Black
10
128.362
20
-88.3676
11
128.578
21
-88.6245
0
LINE
8
Black
10
128.578
20
-88.6245
11
128.692
21
-88.9396
0
LINE
8
Black
10
128.692
20
-88.9396
11
128.692
21
-89.275
0
LINE
8
Black
10
128.692
20
-89.275
11
128.578
21
-89.5902
0
LINE
8
Black
10
128.578
20
-89.5902
11
128.362
21
-89.8471
0
LINE
8
Black
10
128.362
20
-89.8471
11
128.072
21
-90.0148
0
LINE
8
Black
10
128.072
20
-90.0148
11
127.741
21
-90.073
0
LINE
8
Black
10
127.741
20
-90.073
11
127.411
21
-90.0148
0
LINE
8
Black
10
127.411
20
-90.0148
11
127.121
21
-89.8471
0
LINE
8
Black
10
127.121
20
-89.8471
11
126.905
21
-89.5902
0
LINE
8
Black
10
126.905
20
-89.5902
11
126.79
21
-89.275
0
LINE
8
Black
10
126.79
20
-89.275
11
126.79
21
-88.9396
0
LINE
8
Black
10
126.79
20
-88.9396
11
126.905
21
-88.6245
0
LINE
8
Black
10
126.905
20
-88.6245
11
127.121
21
-88.3676
0
LINE
8
Black
10
127.121
20
-88.3676
11
127.411
21
-88.1999
0
LINE
8
Black
10
127.411
20
-88.1999
11
127.741
21
-88.1417
0
LINE
8
Black
10
127.741
20
-88.1417
11
128.072
21
-88.1999
0
LINE
8
Black
10
95.5716
20
-88.1999
11
95.8621
21
-88.3676
0
LINE
8
Black
10
95.8621
20
-88.3676
11
96.0776
21
-88.6245
0
LINE
8
Black
10
96.0776
20
-88.6245
11
96.1924
21
-88.9396
0
LINE
8
Black
10
96.1924
20
-88.9396
11
96.1924
21
-89.275
0
LINE
8
Black
10
96.1924
20
-89.275
11
96.0776
21
-89.5902
0
LINE
8
Black
10
96.0776
20
-89.5902
11
95.8621
21
-89.8471
0
LINE
8
Black
10
95.8621
20
-89.8471
11
95.5716
21
-90.0148
0
LINE
8
Black
10
95.5716
20
-90.0148
11
95.2413
21
-90.073
0
LINE
8
Black
10
95.2413
20
-90.073
11
94.9111
21
-90.0148
0
LINE
8
Black
10
94.9111
20
-90.0148
11
94.6206
21
-89.8471
0
LINE
8
Black
10
94.6206
20
-89.8471
11
94.4051
21
-89.5902
0
LINE
8
Black
10
94.4051
20
-89.5902
11
94.2903
21
-89.275
0
LINE
8
Black
10
94.2903
20
-89.275
11
94.2903
21
-88.9396
0
LINE
8
Black
10
94.2903
20
-88.9396
11
94.4051
21
-88.6245
0
LINE
8
Black
10
94.4051
20
-88.6245
11
94.6206
21
-88.3676
0
LINE
8
Black
10
94.6206
20
-88.3676
11
94.9111
21
-88.1999
0
LINE
8
Black
10
94.9111
20
-88.1999
11
95.2413
21
-88.1417
0
LINE
8
Black
10
95.2413
20
-88.1417
11
95.5716
21
-88.1999
0
LINE
8
Black
10
192.584
20
-84.9964
11
193.097
21
-85.2927
0
LINE
8
Black
10
193.097
20
-85.2927
11
193.478
21
-85.7468
0
LINE
8
Black
10
193.478
20
-85.7468
11
193.681
21
-86.3037
0
LINE
8
Black
10
193.681
20
-86.3037
11
193.681
21
-86.8963
0
LINE
8
Black
10
193.681
20
-86.8963
11
193.478
21
-87.4532
0
LINE
8
Black
10
193.478
20
-87.4532
11
193.097
21
-87.9072
0
LINE
8
Black
10
193.097
20
-87.9072
11
192.584
21
-88.2036
0
LINE
8
Black
10
192.584
20
-88.2036
11
192
21
-88.3065
0
LINE
8
Black
10
192
20
-88.3065
11
191.416
21
-88.2036
0
LINE
8
Black
10
191.416
20
-88.2036
11
190.903
21
-87.9072
0
LINE
8
Black
10
190.903
20
-87.9072
11
190.522
21
-87.4532
0
LINE
8
Black
10
190.522
20
-87.4532
11
190.319
21
-86.8963
0
LINE
8
Black
10
190.319
20
-86.8963
11
190.319
21
-86.3037
0
LINE
8
Black
10
190.319
20
-86.3037
11
190.522
21
-85.7468
0
LINE
8
Black
10
190.522
20
-85.7468
11
190.903
21
-85.2927
0
LINE
8
Black
10
190.903
20
-85.2927
11
191.416
21
-84.9964
0
LINE
8
Black
10
191.416
20
-84.9964
11
192
21
-84.8935
0
LINE
8
Black
10
192
20
-84.8935
11
192.584
21
-84.9964
0
LINE
8
Black
10
76.5837
20
-84.9964
11
77.0969
21
-85.2927
0
LINE
8
Black
10
77.0969
20
-85.2927
11
77.4779
21
-85.7468
0
LINE
8
Black
10
77.4779
20
-85.7468
11
77.6806
21
-86.3037
0
LINE
8
Black
10
77.6806
20
-86.3037
11
77.6806
21
-86.8963
0
LINE
8
Black
10
77.6806
20
-86.8963
11
77.4779
21
-87.4532
0
LINE
8
Black
10
77.4779
20
-87.4532
11
77.0969
21
-87.9072
0
LINE
8
Black
10
77.0969
20
-87.9072
11
76.5837
21
-88.2036
0
LINE
8
Black
10
76.5837
20
-88.2036
11
76
21
-88.3065
0
LINE
8
Black
10
76
20
-88.3065
11
75.4163
21
-88.2036
0
LINE
8
Black
10
75.4163
20
-88.2036
11
74.9031
21
-87.9072
0
LINE
8
Black
10
74.9031
20
-87.9072
11
74.5221
21
-87.4532
0
LINE
8
Black
10
74.5221
20
-87.4532
11
74.3194
21
-86.8963
0
LINE
8
Black
10
74.3194
20
-86.8963
11
74.3194
21
-86.3037
0
LINE
8
Black
10
74.3194
20
-86.3037
11
74.5221
21
-85.7468
0
LINE
8
Black
10
74.5221
20
-85.7468
11
74.9031
21
-85.2927
0
LINE
8
Black
10
74.9031
20
-85.2927
11
75.4163
21
-84.9964
0
LINE
8
Black
10
75.4163
20
-84.9964
11
76
21
-84.8935
0
LINE
8
Black
10
76
20
-84.8935
11
76.5837
21
-84.9964
0
LINE
8
Black
10
203.572
20
-85.8476
11
203.873
21
-86.0213
0
LINE
8
Black
10
203.873
20
-86.0213
11
204.096
21
-86.2873
0
LINE
8
Black
10
204.096
20
-86.2873
11
204.215
21
-86.6137
0
LINE
8
Black
10
204.215
20
-86.6137
11
204.215
21
-86.961
0
LINE
8
Black
10
204.215
20
-86.961
11
204.096
21
-87.2873
0
LINE
8
Black
10
204.096
20
-87.2873
11
203.873
21
-87.5534
0
LINE
8
Black
10
203.873
20
-87.5534
11
203.572
21
-87.727
0
LINE
8
Black
10
203.572
20
-87.727
11
203.23
21
-87.7873
0
LINE
8
Black
10
203.23
20
-87.7873
11
203.223
21
-87.7873
0
LINE
8
Black
10
203.223
20
-87.7873
11
202.881
21
-87.727
0
LINE
8
Black
10
202.881
20
-87.727
11
202.58
21
-87.5534
0
LINE
8
Black
10
202.58
20
-87.5534
11
202.357
21
-87.2873
0
LINE
8
Black
10
202.357
20
-87.2873
11
202.238
21
-86.961
0
LINE
8
Black
10
202.238
20
-86.961
11
202.238
21
-86.6137
0
LINE
8
Black
10
202.238
20
-86.6137
11
202.357
21
-86.2873
0
LINE
8
Black
10
202.357
20
-86.2873
11
202.58
21
-86.0213
0
LINE
8
Black
10
202.58
20
-86.0213
11
202.881
21
-85.8476
0
LINE
8
Black
10
202.881
20
-85.8476
11
203.223
21
-85.7873
0
LINE
8
Black
10
203.223
20
-85.7873
11
203.23
21
-85.7873
0
LINE
8
Black
10
203.23
20
-85.7873
11
203.572
21
-85.8476
0
LINE
8
Black
10
218.812
20
-85.8476
11
219.113
21
-86.0213
0
LINE
8
Black
10
219.113
20
-86.0213
11
219.336
21
-86.2873
0
LINE
8
Black
10
219.336
20
-86.2873
11
219.455
21
-86.6137
0
LINE
8
Black
10
219.455
20
-86.6137
11
219.455
21
-86.961
0
LINE
8
Black
10
219.455
20
-86.961
11
219.336
21
-87.2873
0
LINE
8
Black
10
219.336
20
-87.2873
11
219.113
21
-87.5534
0
LINE
8
Black
10
219.113
20
-87.5534
11
218.812
21
-87.727
0
LINE
8
Black
10
218.812
20
-87.727
11
218.47
21
-87.7873
0
LINE
8
Black
10
218.47
20
-87.7873
11
218.463
21
-87.7873
0
LINE
8
Black
10
218.463
20
-87.7873
11
218.121
21
-87.727
0
LINE
8
Black
10
218.121
20
-87.727
11
217.82
21
-87.5534
0
LINE
8
Black
10
217.82
20
-87.5534
11
217.597
21
-87.2873
0
LINE
8
Black
10
217.597
20
-87.2873
11
217.478
21
-86.961
0
LINE
8
Black
10
217.478
20
-86.961
11
217.478
21
-86.6137
0
LINE
8
Black
10
217.478
20
-86.6137
11
217.597
21
-86.2873
0
LINE
8
Black
10
217.597
20
-86.2873
11
217.82
21
-86.0213
0
LINE
8
Black
10
217.82
20
-86.0213
11
218.121
21
-85.8476
0
LINE
8
Black
10
218.121
20
-85.8476
11
218.463
21
-85.7873
0
LINE
8
Black
10
218.463
20
-85.7873
11
218.47
21
-85.7873
0
LINE
8
Black
10
218.47
20
-85.7873
11
218.812
21
-85.8476
0
LINE
8
Black
10
212.193
20
-85.3719
11
212.483
21
-85.5396
0
LINE
8
Black
10
212.483
20
-85.5396
11
212.699
21
-85.7965
0
LINE
8
Black
10
212.699
20
-85.7965
11
212.813
21
-86.1116
0
LINE
8
Black
10
212.813
20
-86.1116
11
212.813
21
-86.447
0
LINE
8
Black
10
212.813
20
-86.447
11
212.699
21
-86.7622
0
LINE
8
Black
10
212.699
20
-86.7622
11
212.483
21
-87.0191
0
LINE
8
Black
10
212.483
20
-87.0191
11
212.193
21
-87.1868
0
LINE
8
Black
10
212.193
20
-87.1868
11
211.862
21
-87.245
0
LINE
8
Black
10
211.862
20
-87.245
11
211.532
21
-87.1868
0
LINE
8
Black
10
211.532
20
-87.1868
11
211.242
21
-87.0191
0
LINE
8
Black
10
211.242
20
-87.0191
11
211.026
21
-86.7622
0
LINE
8
Black
10
211.026
20
-86.7622
11
210.911
21
-86.447
0
LINE
8
Black
10
210.911
20
-86.447
11
210.911
21
-86.1116
0
LINE
8
Black
10
210.911
20
-86.1116
11
211.026
21
-85.7965
0
LINE
8
Black
10
211.026
20
-85.7965
11
211.242
21
-85.5396
0
LINE
8
Black
10
211.242
20
-85.5396
11
211.532
21
-85.3719
0
LINE
8
Black
10
211.532
20
-85.3719
11
211.862
21
-85.3137
0
LINE
8
Black
10
211.862
20
-85.3137
11
212.193
21
-85.3719
0
LINE
8
Black
10
203.572
20
-83.3076
11
203.873
21
-83.4813
0
LINE
8
Black
10
203.873
20
-83.4813
11
204.096
21
-83.7473
0
LINE
8
Black
10
204.096
20
-83.7473
11
204.215
21
-84.0737
0
LINE
8
Black
10
204.215
20
-84.0737
11
204.215
21
-84.421
0
LINE
8
Black
10
204.215
20
-84.421
11
204.096
21
-84.7473
0
LINE
8
Black
10
204.096
20
-84.7473
11
203.873
21
-85.0134
0
LINE
8
Black
10
203.873
20
-85.0134
11
203.572
21
-85.187
0
LINE
8
Black
10
203.572
20
-85.187
11
203.23
21
-85.2473
0
LINE
8
Black
10
203.23
20
-85.2473
11
203.223
21
-85.2473
0
LINE
8
Black
10
203.223
20
-85.2473
11
202.881
21
-85.187
0
LINE
8
Black
10
202.881
20
-85.187
11
202.58
21
-85.0134
0
LINE
8
Black
10
202.58
20
-85.0134
11
202.357
21
-84.7473
0
LINE
8
Black
10
202.357
20
-84.7473
11
202.238
21
-84.421
0
LINE
8
Black
10
202.238
20
-84.421
11
202.238
21
-84.0737
0
LINE
8
Black
10
202.238
20
-84.0737
11
202.357
21
-83.7473
0
LINE
8
Black
10
202.357
20
-83.7473
11
202.58
21
-83.4813
0
LINE
8
Black
10
202.58
20
-83.4813
11
202.881
21
-83.3076
0
LINE
8
Black
10
202.881
20
-83.3076
11
203.223
21
-83.2473
0
LINE
8
Black
10
203.223
20
-83.2473
11
203.23
21
-83.2473
0
LINE
8
Black
10
203.23
20
-83.2473
11
203.572
21
-83.3076
0
LINE
8
Black
10
218.812
20
-83.3076
11
219.113
21
-83.4813
0
LINE
8
Black
10
219.113
20
-83.4813
11
219.336
21
-83.7473
0
LINE
8
Black
10
219.336
20
-83.7473
11
219.455
21
-84.0737
0
LINE
8
Black
10
219.455
20
-84.0737
11
219.455
21
-84.421
0
LINE
8
Black
10
219.455
20
-84.421
11
219.336
21
-84.7473
0
LINE
8
Black
10
219.336
20
-84.7473
11
219.113
21
-85.0134
0
LINE
8
Black
10
219.113
20
-85.0134
11
218.812
21
-85.187
0
LINE
8
Black
10
218.812
20
-85.187
11
218.47
21
-85.2473
0
LINE
8
Black
10
218.47
20
-85.2473
11
218.463
21
-85.2473
0
LINE
8
Black
10
218.463
20
-85.2473
11
218.121
21
-85.187
0
LINE
8
Black
10
218.121
20
-85.187
11
217.82
21
-85.0134
0
LINE
8
Black
10
217.82
20
-85.0134
11
217.597
21
-84.7473
0
LINE
8
Black
10
217.597
20
-84.7473
11
217.478
21
-84.421
0
LINE
8
Black
10
217.478
20
-84.421
11
217.478
21
-84.0737
0
LINE
8
Black
10
217.478
20
-84.0737
11
217.597
21
-83.7473
0
LINE
8
Black
10
217.597
20
-83.7473
11
217.82
21
-83.4813
0
LINE
8
Black
10
217.82
20
-83.4813
11
218.121
21
-83.3076
0
LINE
8
Black
10
218.121
20
-83.3076
11
218.463
21
-83.2473
0
LINE
8
Black
10
218.463
20
-83.2473
11
218.47
21
-83.2473
0
LINE
8
Black
10
218.47
20
-83.2473
11
218.812
21
-83.3076
0
LINE
8
Black
10
150.572
20
-83.1999
11
150.862
21
-83.3676
0
LINE
8
Black
10
150.862
20
-83.3676
11
151.078
21
-83.6245
0
LINE
8
Black
10
151.078
20
-83.6245
11
151.192
21
-83.9396
0
LINE
8
Black
10
151.192
20
-83.9396
11
151.192
21
-84.275
0
LINE
8
Black
10
151.192
20
-84.275
11
151.078
21
-84.5902
0
LINE
8
Black
10
151.078
20
-84.5902
11
150.862
21
-84.8471
0
LINE
8
Black
10
150.862
20
-84.8471
11
150.572
21
-85.0148
0
LINE
8
Black
10
150.572
20
-85.0148
11
150.241
21
-85.073
0
LINE
8
Black
10
150.241
20
-85.073
11
149.911
21
-85.0148
0
LINE
8
Black
10
149.911
20
-85.0148
11
149.621
21
-84.8471
0
LINE
8
Black
10
149.621
20
-84.8471
11
149.405
21
-84.5902
0
LINE
8
Black
10
149.405
20
-84.5902
11
149.29
21
-84.275
0
LINE
8
Black
10
149.29
20
-84.275
11
149.29
21
-83.9396
0
LINE
8
Black
10
149.29
20
-83.9396
11
149.405
21
-83.6245
0
LINE
8
Black
10
149.405
20
-83.6245
11
149.621
21
-83.3676
0
LINE
8
Black
10
149.621
20
-83.3676
11
149.911
21
-83.1999
0
LINE
8
Black
10
149.911
20
-83.1999
11
150.241
21
-83.1417
0
LINE
8
Black
10
150.241
20
-83.1417
11
150.572
21
-83.1999
0
LINE
8
Black
10
128.072
20
-83.1999
11
128.362
21
-83.3676
0
LINE
8
Black
10
128.362
20
-83.3676
11
128.578
21
-83.6245
0
LINE
8
Black
10
128.578
20
-83.6245
11
128.692
21
-83.9396
0
LINE
8
Black
10
128.692
20
-83.9396
11
128.692
21
-84.275
0
LINE
8
Black
10
128.692
20
-84.275
11
128.578
21
-84.5902
0
LINE
8
Black
10
128.578
20
-84.5902
11
128.362
21
-84.8471
0
LINE
8
Black
10
128.362
20
-84.8471
11
128.072
21
-85.0148
0
LINE
8
Black
10
128.072
20
-85.0148
11
127.741
21
-85.073
0
LINE
8
Black
10
127.741
20
-85.073
11
127.411
21
-85.0148
0
LINE
8
Black
10
127.411
20
-85.0148
11
127.121
21
-84.8471
0
LINE
8
Black
10
127.121
20
-84.8471
11
126.905
21
-84.5902
0
LINE
8
Black
10
126.905
20
-84.5902
11
126.79
21
-84.275
0
LINE
8
Black
10
126.79
20
-84.275
11
126.79
21
-83.9396
0
LINE
8
Black
10
126.79
20
-83.9396
11
126.905
21
-83.6245
0
LINE
8
Black
10
126.905
20
-83.6245
11
127.121
21
-83.3676
0
LINE
8
Black
10
127.121
20
-83.3676
11
127.411
21
-83.1999
0
LINE
8
Black
10
127.411
20
-83.1999
11
127.741
21
-83.1417
0
LINE
8
Black
10
127.741
20
-83.1417
11
128.072
21
-83.1999
0
LINE
8
Black
10
98.0716
20
-83.1999
11
98.3621
21
-83.3676
0
LINE
8
Black
10
98.3621
20
-83.3676
11
98.5776
21
-83.6245
0
LINE
8
Black
10
98.5776
20
-83.6245
11
98.6924
21
-83.9396
0
LINE
8
Black
10
98.6924
20
-83.9396
11
98.6924
21
-84.275
0
LINE
8
Black
10
98.6924
20
-84.275
11
98.5776
21
-84.5902
0
LINE
8
Black
10
98.5776
20
-84.5902
11
98.3621
21
-84.8471
0
LINE
8
Black
10
98.3621
20
-84.8471
11
98.0716
21
-85.0148
0
LINE
8
Black
10
98.0716
20
-85.0148
11
97.7413
21
-85.073
0
LINE
8
Black
10
97.7413
20
-85.073
11
97.4111
21
-85.0148
0
LINE
8
Black
10
97.4111
20
-85.0148
11
97.1206
21
-84.8471
0
LINE
8
Black
10
97.1206
20
-84.8471
11
96.9051
21
-84.5902
0
LINE
8
Black
10
96.9051
20
-84.5902
11
96.7903
21
-84.275
0
LINE
8
Black
10
96.7903
20
-84.275
11
96.7903
21
-83.9396
0
LINE
8
Black
10
96.7903
20
-83.9396
11
96.9051
21
-83.6245
0
LINE
8
Black
10
96.9051
20
-83.6245
11
97.1206
21
-83.3676
0
LINE
8
Black
10
97.1206
20
-83.3676
11
97.4111
21
-83.1999
0
LINE
8
Black
10
97.4111
20
-83.1999
11
97.7413
21
-83.1417
0
LINE
8
Black
10
97.7413
20
-83.1417
11
98.0716
21
-83.1999
0
LINE
8
Black
10
133.072
20
-83.1999
11
133.362
21
-83.3676
0
LINE
8
Black
10
133.362
20
-83.3676
11
133.578
21
-83.6245
0
LINE
8
Black
10
133.578
20
-83.6245
11
133.692
21
-83.9396
0
LINE
8
Black
10
133.692
20
-83.9396
11
133.692
21
-84.275
0
LINE
8
Black
10
133.692
20
-84.275
11
133.578
21
-84.5902
0
LINE
8
Black
10
133.578
20
-84.5902
11
133.362
21
-84.8471
0
LINE
8
Black
10
133.362
20
-84.8471
11
133.072
21
-85.0148
0
LINE
8
Black
10
133.072
20
-85.0148
11
132.741
21
-85.073
0
LINE
8
Black
10
132.741
20
-85.073
11
132.411
21
-85.0148
0
LINE
8
Black
10
132.411
20
-85.0148
11
132.121
21
-84.8471
0
LINE
8
Black
10
132.121
20
-84.8471
11
131.905
21
-84.5902
0
LINE
8
Black
10
131.905
20
-84.5902
11
131.79
21
-84.275
0
LINE
8
Black
10
131.79
20
-84.275
11
131.79
21
-83.9396
0
LINE
8
Black
10
131.79
20
-83.9396
11
131.905
21
-83.6245
0
LINE
8
Black
10
131.905
20
-83.6245
11
132.121
21
-83.3676
0
LINE
8
Black
10
132.121
20
-83.3676
11
132.411
21
-83.1999
0
LINE
8
Black
10
132.411
20
-83.1999
11
132.741
21
-83.1417
0
LINE
8
Black
10
132.741
20
-83.1417
11
133.072
21
-83.1999
0
LINE
8
Black
10
135.572
20
-83.1999
11
135.862
21
-83.3676
0
LINE
8
Black
10
135.862
20
-83.3676
11
136.078
21
-83.6245
0
LINE
8
Black
10
136.078
20
-83.6245
11
136.192
21
-83.9396
0
LINE
8
Black
10
136.192
20
-83.9396
11
136.192
21
-84.275
0
LINE
8
Black
10
136.192
20
-84.275
11
136.078
21
-84.5902
0
LINE
8
Black
10
136.078
20
-84.5902
11
135.862
21
-84.8471
0
LINE
8
Black
10
135.862
20
-84.8471
11
135.572
21
-85.0148
0
LINE
8
Black
10
135.572
20
-85.0148
11
135.241
21
-85.073
0
LINE
8
Black
10
135.241
20
-85.073
11
134.911
21
-85.0148
0
LINE
8
Black
10
134.911
20
-85.0148
11
134.621
21
-84.8471
0
LINE
8
Black
10
134.621
20
-84.8471
11
134.405
21
-84.5902
0
LINE
8
Black
10
134.405
20
-84.5902
11
134.29
21
-84.275
0
LINE
8
Black
10
134.29
20
-84.275
11
134.29
21
-83.9396
0
LINE
8
Black
10
134.29
20
-83.9396
11
134.405
21
-83.6245
0
LINE
8
Black
10
134.405
20
-83.6245
11
134.621
21
-83.3676
0
LINE
8
Black
10
134.621
20
-83.3676
11
134.911
21
-83.1999
0
LINE
8
Black
10
134.911
20
-83.1999
11
135.241
21
-83.1417
0
LINE
8
Black
10
135.241
20
-83.1417
11
135.572
21
-83.1999
0
LINE
8
Black
10
138.072
20
-83.1999
11
138.362
21
-83.3676
0
LINE
8
Black
10
138.362
20
-83.3676
11
138.578
21
-83.6245
0
LINE
8
Black
10
138.578
20
-83.6245
11
138.692
21
-83.9396
0
LINE
8
Black
10
138.692
20
-83.9396
11
138.692
21
-84.275
0
LINE
8
Black
10
138.692
20
-84.275
11
138.578
21
-84.5902
0
LINE
8
Black
10
138.578
20
-84.5902
11
138.362
21
-84.8471
0
LINE
8
Black
10
138.362
20
-84.8471
11
138.072
21
-85.0148
0
LINE
8
Black
10
138.072
20
-85.0148
11
137.741
21
-85.073
0
LINE
8
Black
10
137.741
20
-85.073
11
137.411
21
-85.0148
0
LINE
8
Black
10
137.411
20
-85.0148
11
137.121
21
-84.8471
0
LINE
8
Black
10
137.121
20
-84.8471
11
136.905
21
-84.5902
0
LINE
8
Black
10
136.905
20
-84.5902
11
136.79
21
-84.275
0
LINE
8
Black
10
136.79
20
-84.275
11
136.79
21
-83.9396
0
LINE
8
Black
10
136.79
20
-83.9396
11
136.905
21
-83.6245
0
LINE
8
Black
10
136.905
20
-83.6245
11
137.121
21
-83.3676
0
LINE
8
Black
10
137.121
20
-83.3676
11
137.411
21
-83.1999
0
LINE
8
Black
10
137.411
20
-83.1999
11
137.741
21
-83.1417
0
LINE
8
Black
10
137.741
20
-83.1417
11
138.072
21
-83.1999
0
LINE
8
Black
10
140.572
20
-83.1999
11
140.862
21
-83.3676
0
LINE
8
Black
10
140.862
20
-83.3676
11
141.078
21
-83.6245
0
LINE
8
Black
10
141.078
20
-83.6245
11
141.192
21
-83.9396
0
LINE
8
Black
10
141.192
20
-83.9396
11
141.192
21
-84.275
0
LINE
8
Black
10
141.192
20
-84.275
11
141.078
21
-84.5902
0
LINE
8
Black
10
141.078
20
-84.5902
11
140.862
21
-84.8471
0
LINE
8
Black
10
140.862
20
-84.8471
11
140.572
21
-85.0148
0
LINE
8
Black
10
140.572
20
-85.0148
11
140.241
21
-85.073
0
LINE
8
Black
10
140.241
20
-85.073
11
139.911
21
-85.0148
0
LINE
8
Black
10
139.911
20
-85.0148
11
139.621
21
-84.8471
0
LINE
8
Black
10
139.621
20
-84.8471
11
139.405
21
-84.5902
0
LINE
8
Black
10
139.405
20
-84.5902
11
139.29
21
-84.275
0
LINE
8
Black
10
139.29
20
-84.275
11
139.29
21
-83.9396
0
LINE
8
Black
10
139.29
20
-83.9396
11
139.405
21
-83.6245
0
LINE
8
Black
10
139.405
20
-83.6245
11
139.621
21
-83.3676
0
LINE
8
Black
10
139.621
20
-83.3676
11
139.911
21
-83.1999
0
LINE
8
Black
10
139.911
20
-83.1999
11
140.241
21
-83.1417
0
LINE
8
Black
10
140.241
20
-83.1417
11
140.572
21
-83.1999
0
LINE
8
Black
10
143.072
20
-83.1999
11
143.362
21
-83.3676
0
LINE
8
Black
10
143.362
20
-83.3676
11
143.578
21
-83.6245
0
LINE
8
Black
10
143.578
20
-83.6245
11
143.692
21
-83.9396
0
LINE
8
Black
10
143.692
20
-83.9396
11
143.692
21
-84.275
0
LINE
8
Black
10
143.692
20
-84.275
11
143.578
21
-84.5902
0
LINE
8
Black
10
143.578
20
-84.5902
11
143.362
21
-84.8471
0
LINE
8
Black
10
143.362
20
-84.8471
11
143.072
21
-85.0148
0
LINE
8
Black
10
143.072
20
-85.0148
11
142.741
21
-85.073
0
LINE
8
Black
10
142.741
20
-85.073
11
142.411
21
-85.0148
0
LINE
8
Black
10
142.411
20
-85.0148
11
142.121
21
-84.8471
0
LINE
8
Black
10
142.121
20
-84.8471
11
141.905
21
-84.5902
0
LINE
8
Black
10
141.905
20
-84.5902
11
141.79
21
-84.275
0
LINE
8
Black
10
141.79
20
-84.275
11
141.79
21
-83.9396
0
LINE
8
Black
10
141.79
20
-83.9396
11
141.905
21
-83.6245
0
LINE
8
Black
10
141.905
20
-83.6245
11
142.121
21
-83.3676
0
LINE
8
Black
10
142.121
20
-83.3676
11
142.411
21
-83.1999
0
LINE
8
Black
10
142.411
20
-83.1999
11
142.741
21
-83.1417
0
LINE
8
Black
10
142.741
20
-83.1417
11
143.072
21
-83.1999
0
LINE
8
Black
10
145.572
20
-83.1999
11
145.862
21
-83.3676
0
LINE
8
Black
10
145.862
20
-83.3676
11
146.078
21
-83.6245
0
LINE
8
Black
10
146.078
20
-83.6245
11
146.192
21
-83.9396
0
LINE
8
Black
10
146.192
20
-83.9396
11
146.192
21
-84.275
0
LINE
8
Black
10
146.192
20
-84.275
11
146.078
21
-84.5902
0
LINE
8
Black
10
146.078
20
-84.5902
11
145.862
21
-84.8471
0
LINE
8
Black
10
145.862
20
-84.8471
11
145.572
21
-85.0148
0
LINE
8
Black
10
145.572
20
-85.0148
11
145.241
21
-85.073
0
LINE
8
Black
10
145.241
20
-85.073
11
144.911
21
-85.0148
0
LINE
8
Black
10
144.911
20
-85.0148
11
144.621
21
-84.8471
0
LINE
8
Black
10
144.621
20
-84.8471
11
144.405
21
-84.5902
0
LINE
8
Black
10
144.405
20
-84.5902
11
144.29
21
-84.275
0
LINE
8
Black
10
144.29
20
-84.275
11
144.29
21
-83.9396
0
LINE
8
Black
10
144.29
20
-83.9396
11
144.405
21
-83.6245
0
LINE
8
Black
10
144.405
20
-83.6245
11
144.621
21
-83.3676
0
LINE
8
Black
10
144.621
20
-83.3676
11
144.911
21
-83.1999
0
LINE
8
Black
10
144.911
20
-83.1999
11
145.241
21
-83.1417
0
LINE
8
Black
10
145.241
20
-83.1417
11
145.572
21
-83.1999
0
LINE
8
Black
10
148.072
20
-83.1999
11
148.362
21
-83.3676
0
LINE
8
Black
10
148.362
20
-83.3676
11
148.578
21
-83.6245
0
LINE
8
Black
10
148.578
20
-83.6245
11
148.692
21
-83.9396
0
LINE
8
Black
10
148.692
20
-83.9396
11
148.692
21
-84.275
0
LINE
8
Black
10
148.692
20
-84.275
11
148.578
21
-84.5902
0
LINE
8
Black
10
148.578
20
-84.5902
11
148.362
21
-84.8471
0
LINE
8
Black
10
148.362
20
-84.8471
11
148.072
21
-85.0148
0
LINE
8
Black
10
148.072
20
-85.0148
11
147.741
21
-85.073
0
LINE
8
Black
10
147.741
20
-85.073
11
147.411
21
-85.0148
0
LINE
8
Black
10
147.411
20
-85.0148
11
147.121
21
-84.8471
0
LINE
8
Black
10
147.121
20
-84.8471
11
146.905
21
-84.5902
0
LINE
8
Black
10
146.905
20
-84.5902
11
146.79
21
-84.275
0
LINE
8
Black
10
146.79
20
-84.275
11
146.79
21
-83.9396
0
LINE
8
Black
10
146.79
20
-83.9396
11
146.905
21
-83.6245
0
LINE
8
Black
10
146.905
20
-83.6245
11
147.121
21
-83.3676
0
LINE
8
Black
10
147.121
20
-83.3676
11
147.411
21
-83.1999
0
LINE
8
Black
10
147.411
20
-83.1999
11
147.741
21
-83.1417
0
LINE
8
Black
10
147.741
20
-83.1417
11
148.072
21
-83.1999
0
LINE
8
Black
10
130.572
20
-83.1999
11
130.862
21
-83.3676
0
LINE
8
Black
10
130.862
20
-83.3676
11
131.078
21
-83.6245
0
LINE
8
Black
10
131.078
20
-83.6245
11
131.192
21
-83.9396
0
LINE
8
Black
10
131.192
20
-83.9396
11
131.192
21
-84.275
0
LINE
8
Black
10
131.192
20
-84.275
11
131.078
21
-84.5902
0
LINE
8
Black
10
131.078
20
-84.5902
11
130.862
21
-84.8471
0
LINE
8
Black
10
130.862
20
-84.8471
11
130.572
21
-85.0148
0
LINE
8
Black
10
130.572
20
-85.0148
11
130.241
21
-85.073
0
LINE
8
Black
10
130.241
20
-85.073
11
129.911
21
-85.0148
0
LINE
8
Black
10
129.911
20
-85.0148
11
129.621
21
-84.8471
0
LINE
8
Black
10
129.621
20
-84.8471
11
129.405
21
-84.5902
0
LINE
8
Black
10
129.405
20
-84.5902
11
129.29
21
-84.275
0
LINE
8
Black
10
129.29
20
-84.275
11
129.29
21
-83.9396
0
LINE
8
Black
10
129.29
20
-83.9396
11
129.405
21
-83.6245
0
LINE
8
Black
10
129.405
20
-83.6245
11
129.621
21
-83.3676
0
LINE
8
Black
10
129.621
20
-83.3676
11
129.911
21
-83.1999
0
LINE
8
Black
10
129.911
20
-83.1999
11
130.241
21
-83.1417
0
LINE
8
Black
10
130.241
20
-83.1417
11
130.572
21
-83.1999
0
LINE
8
Black
10
153.072
20
-83.1999
11
153.362
21
-83.3676
0
LINE
8
Black
10
153.362
20
-83.3676
11
153.578
21
-83.6245
0
LINE
8
Black
10
153.578
20
-83.6245
11
153.692
21
-83.9396
0
LINE
8
Black
10
153.692
20
-83.9396
11
153.692
21
-84.275
0
LINE
8
Black
10
153.692
20
-84.275
11
153.578
21
-84.5902
0
LINE
8
Black
10
153.578
20
-84.5902
11
153.362
21
-84.8471
0
LINE
8
Black
10
153.362
20
-84.8471
11
153.072
21
-85.0148
0
LINE
8
Black
10
153.072
20
-85.0148
11
152.741
21
-85.073
0
LINE
8
Black
10
152.741
20
-85.073
11
152.411
21
-85.0148
0
LINE
8
Black
10
152.411
20
-85.0148
11
152.121
21
-84.8471
0
LINE
8
Black
10
152.121
20
-84.8471
11
151.905
21
-84.5902
0
LINE
8
Black
10
151.905
20
-84.5902
11
151.79
21
-84.275
0
LINE
8
Black
10
151.79
20
-84.275
11
151.79
21
-83.9396
0
LINE
8
Black
10
151.79
20
-83.9396
11
151.905
21
-83.6245
0
LINE
8
Black
10
151.905
20
-83.6245
11
152.121
21
-83.3676
0
LINE
8
Black
10
152.121
20
-83.3676
11
152.411
21
-83.1999
0
LINE
8
Black
10
152.411
20
-83.1999
11
152.741
21
-83.1417
0
LINE
8
Black
10
152.741
20
-83.1417
11
153.072
21
-83.1999
0
LINE
8
Black
10
155.572
20
-83.1999
11
155.862
21
-83.3676
0
LINE
8
Black
10
155.862
20
-83.3676
11
156.078
21
-83.6245
0
LINE
8
Black
10
156.078
20
-83.6245
11
156.192
21
-83.9396
0
LINE
8
Black
10
156.192
20
-83.9396
11
156.192
21
-84.275
0
LINE
8
Black
10
156.192
20
-84.275
11
156.078
21
-84.5902
0
LINE
8
Black
10
156.078
20
-84.5902
11
155.862
21
-84.8471
0
LINE
8
Black
10
155.862
20
-84.8471
11
155.572
21
-85.0148
0
LINE
8
Black
10
155.572
20
-85.0148
11
155.241
21
-85.073
0
LINE
8
Black
10
155.241
20
-85.073
11
154.911
21
-85.0148
0
LINE
8
Black
10
154.911
20
-85.0148
11
154.621
21
-84.8471
0
LINE
8
Black
10
154.621
20
-84.8471
11
154.405
21
-84.5902
0
LINE
8
Black
10
154.405
20
-84.5902
11
154.29
21
-84.275
0
LINE
8
Black
10
154.29
20
-84.275
11
154.29
21
-83.9396
0
LINE
8
Black
10
154.29
20
-83.9396
11
154.405
21
-83.6245
0
LINE
8
Black
10
154.405
20
-83.6245
11
154.621
21
-83.3676
0
LINE
8
Black
10
154.621
20
-83.3676
11
154.911
21
-83.1999
0
LINE
8
Black
10
154.911
20
-83.1999
11
155.241
21
-83.1417
0
LINE
8
Black
10
155.241
20
-83.1417
11
155.572
21
-83.1999
0
LINE
8
Black
10
158.072
20
-83.1999
11
158.362
21
-83.3676
0
LINE
8
Black
10
158.362
20
-83.3676
11
158.578
21
-83.6245
0
LINE
8
Black
10
158.578
20
-83.6245
11
158.692
21
-83.9396
0
LINE
8
Black
10
158.692
20
-83.9396
11
158.692
21
-84.275
0
LINE
8
Black
10
158.692
20
-84.275
11
158.578
21
-84.5902
0
LINE
8
Black
10
158.578
20
-84.5902
11
158.362
21
-84.8471
0
LINE
8
Black
10
158.362
20
-84.8471
11
158.072
21
-85.0148
0
LINE
8
Black
10
158.072
20
-85.0148
11
157.741
21
-85.073
0
LINE
8
Black
10
157.741
20
-85.073
11
157.411
21
-85.0148
0
LINE
8
Black
10
157.411
20
-85.0148
11
157.121
21
-84.8471
0
LINE
8
Black
10
157.121
20
-84.8471
11
156.905
21
-84.5902
0
LINE
8
Black
10
156.905
20
-84.5902
11
156.79
21
-84.275
0
LINE
8
Black
10
156.79
20
-84.275
11
156.79
21
-83.9396
0
LINE
8
Black
10
156.79
20
-83.9396
11
156.905
21
-83.6245
0
LINE
8
Black
10
156.905
20
-83.6245
11
157.121
21
-83.3676
0
LINE
8
Black
10
157.121
20
-83.3676
11
157.411
21
-83.1999
0
LINE
8
Black
10
157.411
20
-83.1999
11
157.741
21
-83.1417
0
LINE
8
Black
10
157.741
20
-83.1417
11
158.072
21
-83.1999
0
LINE
8
Black
10
160.572
20
-83.1999
11
160.862
21
-83.3676
0
LINE
8
Black
10
160.862
20
-83.3676
11
161.078
21
-83.6245
0
LINE
8
Black
10
161.078
20
-83.6245
11
161.192
21
-83.9396
0
LINE
8
Black
10
161.192
20
-83.9396
11
161.192
21
-84.275
0
LINE
8
Black
10
161.192
20
-84.275
11
161.078
21
-84.5902
0
LINE
8
Black
10
161.078
20
-84.5902
11
160.862
21
-84.8471
0
LINE
8
Black
10
160.862
20
-84.8471
11
160.572
21
-85.0148
0
LINE
8
Black
10
160.572
20
-85.0148
11
160.241
21
-85.073
0
LINE
8
Black
10
160.241
20
-85.073
11
159.911
21
-85.0148
0
LINE
8
Black
10
159.911
20
-85.0148
11
159.621
21
-84.8471
0
LINE
8
Black
10
159.621
20
-84.8471
11
159.405
21
-84.5902
0
LINE
8
Black
10
159.405
20
-84.5902
11
159.29
21
-84.275
0
LINE
8
Black
10
159.29
20
-84.275
11
159.29
21
-83.9396
0
LINE
8
Black
10
159.29
20
-83.9396
11
159.405
21
-83.6245
0
LINE
8
Black
10
159.405
20
-83.6245
11
159.621
21
-83.3676
0
LINE
8
Black
10
159.621
20
-83.3676
11
159.911
21
-83.1999
0
LINE
8
Black
10
159.911
20
-83.1999
11
160.241
21
-83.1417
0
LINE
8
Black
10
160.241
20
-83.1417
11
160.572
21
-83.1999
0
LINE
8
Black
10
163.072
20
-83.1999
11
163.362
21
-83.3676
0
LINE
8
Black
10
163.362
20
-83.3676
11
163.578
21
-83.6245
0
LINE
8
Black
10
163.578
20
-83.6245
11
163.692
21
-83.9396
0
LINE
8
Black
10
163.692
20
-83.9396
11
163.692
21
-84.275
0
LINE
8
Black
10
163.692
20
-84.275
11
163.578
21
-84.5902
0
LINE
8
Black
10
163.578
20
-84.5902
11
163.362
21
-84.8471
0
LINE
8
Black
10
163.362
20
-84.8471
11
163.072
21
-85.0148
0
LINE
8
Black
10
163.072
20
-85.0148
11
162.741
21
-85.073
0
LINE
8
Black
10
162.741
20
-85.073
11
162.411
21
-85.0148
0
LINE
8
Black
10
162.411
20
-85.0148
11
162.121
21
-84.8471
0
LINE
8
Black
10
162.121
20
-84.8471
11
161.905
21
-84.5902
0
LINE
8
Black
10
161.905
20
-84.5902
11
161.79
21
-84.275
0
LINE
8
Black
10
161.79
20
-84.275
11
161.79
21
-83.9396
0
LINE
8
Black
10
161.79
20
-83.9396
11
161.905
21
-83.6245
0
LINE
8
Black
10
161.905
20
-83.6245
11
162.121
21
-83.3676
0
LINE
8
Black
10
162.121
20
-83.3676
11
162.411
21
-83.1999
0
LINE
8
Black
10
162.411
20
-83.1999
11
162.741
21
-83.1417
0
LINE
8
Black
10
162.741
20
-83.1417
11
163.072
21
-83.1999
0
LINE
8
Black
10
165.572
20
-83.1999
11
165.862
21
-83.3676
0
LINE
8
Black
10
165.862
20
-83.3676
11
166.078
21
-83.6245
0
LINE
8
Black
10
166.078
20
-83.6245
11
166.192
21
-83.9396
0
LINE
8
Black
10
166.192
20
-83.9396
11
166.192
21
-84.275
0
LINE
8
Black
10
166.192
20
-84.275
11
166.078
21
-84.5902
0
LINE
8
Black
10
166.078
20
-84.5902
11
165.862
21
-84.8471
0
LINE
8
Black
10
165.862
20
-84.8471
11
165.572
21
-85.0148
0
LINE
8
Black
10
165.572
20
-85.0148
11
165.241
21
-85.073
0
LINE
8
Black
10
165.241
20
-85.073
11
164.911
21
-85.0148
0
LINE
8
Black
10
164.911
20
-85.0148
11
164.621
21
-84.8471
0
LINE
8
Black
10
164.621
20
-84.8471
11
164.405
21
-84.5902
0
LINE
8
Black
10
164.405
20
-84.5902
11
164.29
21
-84.275
0
LINE
8
Black
10
164.29
20
-84.275
11
164.29
21
-83.9396
0
LINE
8
Black
10
164.29
20
-83.9396
11
164.405
21
-83.6245
0
LINE
8
Black
10
164.405
20
-83.6245
11
164.621
21
-83.3676
0
LINE
8
Black
10
164.621
20
-83.3676
11
164.911
21
-83.1999
0
LINE
8
Black
10
164.911
20
-83.1999
11
165.241
21
-83.1417
0
LINE
8
Black
10
165.241
20
-83.1417
11
165.572
21
-83.1999
0
LINE
8
Black
10
168.072
20
-83.1999
11
168.362
21
-83.3676
0
LINE
8
Black
10
168.362
20
-83.3676
11
168.578
21
-83.6245
0
LINE
8
Black
10
168.578
20
-83.6245
11
168.692
21
-83.9396
0
LINE
8
Black
10
168.692
20
-83.9396
11
168.692
21
-84.275
0
LINE
8
Black
10
168.692
20
-84.275
11
168.578
21
-84.5902
0
LINE
8
Black
10
168.578
20
-84.5902
11
168.362
21
-84.8471
0
LINE
8
Black
10
168.362
20
-84.8471
11
168.072
21
-85.0148
0
LINE
8
Black
10
168.072
20
-85.0148
11
167.741
21
-85.073
0
LINE
8
Black
10
167.741
20
-85.073
11
167.411
21
-85.0148
0
LINE
8
Black
10
167.411
20
-85.0148
11
167.121
21
-84.8471
0
LINE
8
Black
10
167.121
20
-84.8471
11
166.905
21
-84.5902
0
LINE
8
Black
10
166.905
20
-84.5902
11
166.79
21
-84.275
0
LINE
8
Black
10
166.79
20
-84.275
11
166.79
21
-83.9396
0
LINE
8
Black
10
166.79
20
-83.9396
11
166.905
21
-83.6245
0
LINE
8
Black
10
166.905
20
-83.6245
11
167.121
21
-83.3676
0
LINE
8
Black
10
167.121
20
-83.3676
11
167.411
21
-83.1999
0
LINE
8
Black
10
167.411
20
-83.1999
11
167.741
21
-83.1417
0
LINE
8
Black
10
167.741
20
-83.1417
11
168.072
21
-83.1999
0
LINE
8
Black
10
170.572
20
-83.1999
11
170.862
21
-83.3676
0
LINE
8
Black
10
170.862
20
-83.3676
11
171.078
21
-83.6245
0
LINE
8
Black
10
171.078
20
-83.6245
11
171.192
21
-83.9396
0
LINE
8
Black
10
171.192
20
-83.9396
11
171.192
21
-84.275
0
LINE
8
Black
10
171.192
20
-84.275
11
171.078
21
-84.5902
0
LINE
8
Black
10
171.078
20
-84.5902
11
170.862
21
-84.8471
0
LINE
8
Black
10
170.862
20
-84.8471
11
170.572
21
-85.0148
0
LINE
8
Black
10
170.572
20
-85.0148
11
170.241
21
-85.073
0
LINE
8
Black
10
170.241
20
-85.073
11
169.911
21
-85.0148
0
LINE
8
Black
10
169.911
20
-85.0148
11
169.621
21
-84.8471
0
LINE
8
Black
10
169.621
20
-84.8471
11
169.405
21
-84.5902
0
LINE
8
Black
10
169.405
20
-84.5902
11
169.29
21
-84.275
0
LINE
8
Black
10
169.29
20
-84.275
11
169.29
21
-83.9396
0
LINE
8
Black
10
169.29
20
-83.9396
11
169.405
21
-83.6245
0
LINE
8
Black
10
169.405
20
-83.6245
11
169.621
21
-83.3676
0
LINE
8
Black
10
169.621
20
-83.3676
11
169.911
21
-83.1999
0
LINE
8
Black
10
169.911
20
-83.1999
11
170.241
21
-83.1417
0
LINE
8
Black
10
170.241
20
-83.1417
11
170.572
21
-83.1999
0
LINE
8
Black
10
173.072
20
-83.1999
11
173.362
21
-83.3676
0
LINE
8
Black
10
173.362
20
-83.3676
11
173.578
21
-83.6245
0
LINE
8
Black
10
173.578
20
-83.6245
11
173.692
21
-83.9396
0
LINE
8
Black
10
173.692
20
-83.9396
11
173.692
21
-84.275
0
LINE
8
Black
10
173.692
20
-84.275
11
173.578
21
-84.5902
0
LINE
8
Black
10
173.578
20
-84.5902
11
173.362
21
-84.8471
0
LINE
8
Black
10
173.362
20
-84.8471
11
173.072
21
-85.0148
0
LINE
8
Black
10
173.072
20
-85.0148
11
172.741
21
-85.073
0
LINE
8
Black
10
172.741
20
-85.073
11
172.411
21
-85.0148
0
LINE
8
Black
10
172.411
20
-85.0148
11
172.121
21
-84.8471
0
LINE
8
Black
10
172.121
20
-84.8471
11
171.905
21
-84.5902
0
LINE
8
Black
10
171.905
20
-84.5902
11
171.79
21
-84.275
0
LINE
8
Black
10
171.79
20
-84.275
11
171.79
21
-83.9396
0
LINE
8
Black
10
171.79
20
-83.9396
11
171.905
21
-83.6245
0
LINE
8
Black
10
171.905
20
-83.6245
11
172.121
21
-83.3676
0
LINE
8
Black
10
172.121
20
-83.3676
11
172.411
21
-83.1999
0
LINE
8
Black
10
172.411
20
-83.1999
11
172.741
21
-83.1417
0
LINE
8
Black
10
172.741
20
-83.1417
11
173.072
21
-83.1999
0
LINE
8
Black
10
175.572
20
-83.1999
11
175.862
21
-83.3676
0
LINE
8
Black
10
175.862
20
-83.3676
11
176.078
21
-83.6245
0
LINE
8
Black
10
176.078
20
-83.6245
11
176.192
21
-83.9396
0
LINE
8
Black
10
176.192
20
-83.9396
11
176.192
21
-84.275
0
LINE
8
Black
10
176.192
20
-84.275
11
176.078
21
-84.5902
0
LINE
8
Black
10
176.078
20
-84.5902
11
175.862
21
-84.8471
0
LINE
8
Black
10
175.862
20
-84.8471
11
175.572
21
-85.0148
0
LINE
8
Black
10
175.572
20
-85.0148
11
175.241
21
-85.073
0
LINE
8
Black
10
175.241
20
-85.073
11
174.911
21
-85.0148
0
LINE
8
Black
10
174.911
20
-85.0148
11
174.621
21
-84.8471
0
LINE
8
Black
10
174.621
20
-84.8471
11
174.405
21
-84.5902
0
LINE
8
Black
10
174.405
20
-84.5902
11
174.29
21
-84.275
0
LINE
8
Black
10
174.29
20
-84.275
11
174.29
21
-83.9396
0
LINE
8
Black
10
174.29
20
-83.9396
11
174.405
21
-83.6245
0
LINE
8
Black
10
174.405
20
-83.6245
11
174.621
21
-83.3676
0
LINE
8
Black
10
174.621
20
-83.3676
11
174.911
21
-83.1999
0
LINE
8
Black
10
174.911
20
-83.1999
11
175.241
21
-83.1417
0
LINE
8
Black
10
175.241
20
-83.1417
11
175.572
21
-83.1999
0
LINE
8
Black
10
178.072
20
-83.1999
11
178.362
21
-83.3676
0
LINE
8
Black
10
178.362
20
-83.3676
11
178.578
21
-83.6245
0
LINE
8
Black
10
178.578
20
-83.6245
11
178.692
21
-83.9396
0
LINE
8
Black
10
178.692
20
-83.9396
11
178.692
21
-84.275
0
LINE
8
Black
10
178.692
20
-84.275
11
178.578
21
-84.5902
0
LINE
8
Black
10
178.578
20
-84.5902
11
178.362
21
-84.8471
0
LINE
8
Black
10
178.362
20
-84.8471
11
178.072
21
-85.0148
0
LINE
8
Black
10
178.072
20
-85.0148
11
177.741
21
-85.073
0
LINE
8
Black
10
177.741
20
-85.073
11
177.411
21
-85.0148
0
LINE
8
Black
10
177.411
20
-85.0148
11
177.121
21
-84.8471
0
LINE
8
Black
10
177.121
20
-84.8471
11
176.905
21
-84.5902
0
LINE
8
Black
10
176.905
20
-84.5902
11
176.79
21
-84.275
0
LINE
8
Black
10
176.79
20
-84.275
11
176.79
21
-83.9396
0
LINE
8
Black
10
176.79
20
-83.9396
11
176.905
21
-83.6245
0
LINE
8
Black
10
176.905
20
-83.6245
11
177.121
21
-83.3676
0
LINE
8
Black
10
177.121
20
-83.3676
11
177.411
21
-83.1999
0
LINE
8
Black
10
177.411
20
-83.1999
11
177.741
21
-83.1417
0
LINE
8
Black
10
177.741
20
-83.1417
11
178.072
21
-83.1999
0
LINE
8
Black
10
123.072
20
-83.1999
11
123.362
21
-83.3676
0
LINE
8
Black
10
123.362
20
-83.3676
11
123.578
21
-83.6245
0
LINE
8
Black
10
123.578
20
-83.6245
11
123.692
21
-83.9396
0
LINE
8
Black
10
123.692
20
-83.9396
11
123.692
21
-84.275
0
LINE
8
Black
10
123.692
20
-84.275
11
123.578
21
-84.5902
0
LINE
8
Black
10
123.578
20
-84.5902
11
123.362
21
-84.8471
0
LINE
8
Black
10
123.362
20
-84.8471
11
123.072
21
-85.0148
0
LINE
8
Black
10
123.072
20
-85.0148
11
122.741
21
-85.073
0
LINE
8
Black
10
122.741
20
-85.073
11
122.411
21
-85.0148
0
LINE
8
Black
10
122.411
20
-85.0148
11
122.121
21
-84.8471
0
LINE
8
Black
10
122.121
20
-84.8471
11
121.905
21
-84.5902
0
LINE
8
Black
10
121.905
20
-84.5902
11
121.79
21
-84.275
0
LINE
8
Black
10
121.79
20
-84.275
11
121.79
21
-83.9396
0
LINE
8
Black
10
121.79
20
-83.9396
11
121.905
21
-83.6245
0
LINE
8
Black
10
121.905
20
-83.6245
11
122.121
21
-83.3676
0
LINE
8
Black
10
122.121
20
-83.3676
11
122.411
21
-83.1999
0
LINE
8
Black
10
122.411
20
-83.1999
11
122.741
21
-83.1417
0
LINE
8
Black
10
122.741
20
-83.1417
11
123.072
21
-83.1999
0
LINE
8
Black
10
95.5716
20
-83.1999
11
95.8621
21
-83.3676
0
LINE
8
Black
10
95.8621
20
-83.3676
11
96.0776
21
-83.6245
0
LINE
8
Black
10
96.0776
20
-83.6245
11
96.1924
21
-83.9396
0
LINE
8
Black
10
96.1924
20
-83.9396
11
96.1924
21
-84.275
0
LINE
8
Black
10
96.1924
20
-84.275
11
96.0776
21
-84.5902
0
LINE
8
Black
10
96.0776
20
-84.5902
11
95.8621
21
-84.8471
0
LINE
8
Black
10
95.8621
20
-84.8471
11
95.5716
21
-85.0148
0
LINE
8
Black
10
95.5716
20
-85.0148
11
95.2413
21
-85.073
0
LINE
8
Black
10
95.2413
20
-85.073
11
94.9111
21
-85.0148
0
LINE
8
Black
10
94.9111
20
-85.0148
11
94.6206
21
-84.8471
0
LINE
8
Black
10
94.6206
20
-84.8471
11
94.4051
21
-84.5902
0
LINE
8
Black
10
94.4051
20
-84.5902
11
94.2903
21
-84.275
0
LINE
8
Black
10
94.2903
20
-84.275
11
94.2903
21
-83.9396
0
LINE
8
Black
10
94.2903
20
-83.9396
11
94.4051
21
-83.6245
0
LINE
8
Black
10
94.4051
20
-83.6245
11
94.6206
21
-83.3676
0
LINE
8
Black
10
94.6206
20
-83.3676
11
94.9111
21
-83.1999
0
LINE
8
Black
10
94.9111
20
-83.1999
11
95.2413
21
-83.1417
0
LINE
8
Black
10
95.2413
20
-83.1417
11
95.5716
21
-83.1999
0
LINE
8
Black
10
93.0716
20
-83.1999
11
93.3621
21
-83.3676
0
LINE
8
Black
10
93.3621
20
-83.3676
11
93.5776
21
-83.6245
0
LINE
8
Black
10
93.5776
20
-83.6245
11
93.6924
21
-83.9396
0
LINE
8
Black
10
93.6924
20
-83.9396
11
93.6924
21
-84.275
0
LINE
8
Black
10
93.6924
20
-84.275
11
93.5776
21
-84.5902
0
LINE
8
Black
10
93.5776
20
-84.5902
11
93.3621
21
-84.8471
0
LINE
8
Black
10
93.3621
20
-84.8471
11
93.0716
21
-85.0148
0
LINE
8
Black
10
93.0716
20
-85.0148
11
92.7413
21
-85.073
0
LINE
8
Black
10
92.7413
20
-85.073
11
92.4111
21
-85.0148
0
LINE
8
Black
10
92.4111
20
-85.0148
11
92.1206
21
-84.8471
0
LINE
8
Black
10
92.1206
20
-84.8471
11
91.9051
21
-84.5902
0
LINE
8
Black
10
91.9051
20
-84.5902
11
91.7903
21
-84.275
0
LINE
8
Black
10
91.7903
20
-84.275
11
91.7903
21
-83.9396
0
LINE
8
Black
10
91.7903
20
-83.9396
11
91.9051
21
-83.6245
0
LINE
8
Black
10
91.9051
20
-83.6245
11
92.1206
21
-83.3676
0
LINE
8
Black
10
92.1206
20
-83.3676
11
92.4111
21
-83.1999
0
LINE
8
Black
10
92.4111
20
-83.1999
11
92.7413
21
-83.1417
0
LINE
8
Black
10
92.7413
20
-83.1417
11
93.0716
21
-83.1999
0
LINE
8
Black
10
90.5716
20
-83.1999
11
90.8621
21
-83.3676
0
LINE
8
Black
10
90.8621
20
-83.3676
11
91.0776
21
-83.6245
0
LINE
8
Black
10
91.0776
20
-83.6245
11
91.1924
21
-83.9396
0
LINE
8
Black
10
91.1924
20
-83.9396
11
91.1924
21
-84.275
0
LINE
8
Black
10
91.1924
20
-84.275
11
91.0776
21
-84.5902
0
LINE
8
Black
10
91.0776
20
-84.5902
11
90.8621
21
-84.8471
0
LINE
8
Black
10
90.8621
20
-84.8471
11
90.5716
21
-85.0148
0
LINE
8
Black
10
90.5716
20
-85.0148
11
90.2413
21
-85.073
0
LINE
8
Black
10
90.2413
20
-85.073
11
89.9111
21
-85.0148
0
LINE
8
Black
10
89.9111
20
-85.0148
11
89.6206
21
-84.8471
0
LINE
8
Black
10
89.6206
20
-84.8471
11
89.4051
21
-84.5902
0
LINE
8
Black
10
89.4051
20
-84.5902
11
89.2903
21
-84.275
0
LINE
8
Black
10
89.2903
20
-84.275
11
89.2903
21
-83.9396
0
LINE
8
Black
10
89.2903
20
-83.9396
11
89.4051
21
-83.6245
0
LINE
8
Black
10
89.4051
20
-83.6245
11
89.6206
21
-83.3676
0
LINE
8
Black
10
89.6206
20
-83.3676
11
89.9111
21
-83.1999
0
LINE
8
Black
10
89.9111
20
-83.1999
11
90.2413
21
-83.1417
0
LINE
8
Black
10
90.2413
20
-83.1417
11
90.5716
21
-83.1999
0
LINE
8
Black
10
100.572
20
-83.1999
11
100.862
21
-83.3676
0
LINE
8
Black
10
100.862
20
-83.3676
11
101.078
21
-83.6245
0
LINE
8
Black
10
101.078
20
-83.6245
11
101.192
21
-83.9396
0
LINE
8
Black
10
101.192
20
-83.9396
11
101.192
21
-84.275
0
LINE
8
Black
10
101.192
20
-84.275
11
101.078
21
-84.5902
0
LINE
8
Black
10
101.078
20
-84.5902
11
100.862
21
-84.8471
0
LINE
8
Black
10
100.862
20
-84.8471
11
100.572
21
-85.0148
0
LINE
8
Black
10
100.572
20
-85.0148
11
100.241
21
-85.073
0
LINE
8
Black
10
100.241
20
-85.073
11
99.9111
21
-85.0148
0
LINE
8
Black
10
99.9111
20
-85.0148
11
99.6206
21
-84.8471
0
LINE
8
Black
10
99.6206
20
-84.8471
11
99.4051
21
-84.5902
0
LINE
8
Black
10
99.4051
20
-84.5902
11
99.2903
21
-84.275
0
LINE
8
Black
10
99.2903
20
-84.275
11
99.2903
21
-83.9396
0
LINE
8
Black
10
99.2903
20
-83.9396
11
99.4051
21
-83.6245
0
LINE
8
Black
10
99.4051
20
-83.6245
11
99.6206
21
-83.3676
0
LINE
8
Black
10
99.6206
20
-83.3676
11
99.9111
21
-83.1999
0
LINE
8
Black
10
99.9111
20
-83.1999
11
100.241
21
-83.1417
0
LINE
8
Black
10
100.241
20
-83.1417
11
100.572
21
-83.1999
0
LINE
8
Black
10
103.072
20
-83.1999
11
103.362
21
-83.3676
0
LINE
8
Black
10
103.362
20
-83.3676
11
103.578
21
-83.6245
0
LINE
8
Black
10
103.578
20
-83.6245
11
103.692
21
-83.9396
0
LINE
8
Black
10
103.692
20
-83.9396
11
103.692
21
-84.275
0
LINE
8
Black
10
103.692
20
-84.275
11
103.578
21
-84.5902
0
LINE
8
Black
10
103.578
20
-84.5902
11
103.362
21
-84.8471
0
LINE
8
Black
10
103.362
20
-84.8471
11
103.072
21
-85.0148
0
LINE
8
Black
10
103.072
20
-85.0148
11
102.741
21
-85.073
0
LINE
8
Black
10
102.741
20
-85.073
11
102.411
21
-85.0148
0
LINE
8
Black
10
102.411
20
-85.0148
11
102.121
21
-84.8471
0
LINE
8
Black
10
102.121
20
-84.8471
11
101.905
21
-84.5902
0
LINE
8
Black
10
101.905
20
-84.5902
11
101.79
21
-84.275
0
LINE
8
Black
10
101.79
20
-84.275
11
101.79
21
-83.9396
0
LINE
8
Black
10
101.79
20
-83.9396
11
101.905
21
-83.6245
0
LINE
8
Black
10
101.905
20
-83.6245
11
102.121
21
-83.3676
0
LINE
8
Black
10
102.121
20
-83.3676
11
102.411
21
-83.1999
0
LINE
8
Black
10
102.411
20
-83.1999
11
102.741
21
-83.1417
0
LINE
8
Black
10
102.741
20
-83.1417
11
103.072
21
-83.1999
0
LINE
8
Black
10
105.572
20
-83.1999
11
105.862
21
-83.3676
0
LINE
8
Black
10
105.862
20
-83.3676
11
106.078
21
-83.6245
0
LINE
8
Black
10
106.078
20
-83.6245
11
106.192
21
-83.9396
0
LINE
8
Black
10
106.192
20
-83.9396
11
106.192
21
-84.275
0
LINE
8
Black
10
106.192
20
-84.275
11
106.078
21
-84.5902
0
LINE
8
Black
10
106.078
20
-84.5902
11
105.862
21
-84.8471
0
LINE
8
Black
10
105.862
20
-84.8471
11
105.572
21
-85.0148
0
LINE
8
Black
10
105.572
20
-85.0148
11
105.241
21
-85.073
0
LINE
8
Black
10
105.241
20
-85.073
11
104.911
21
-85.0148
0
LINE
8
Black
10
104.911
20
-85.0148
11
104.621
21
-84.8471
0
LINE
8
Black
10
104.621
20
-84.8471
11
104.405
21
-84.5902
0
LINE
8
Black
10
104.405
20
-84.5902
11
104.29
21
-84.275
0
LINE
8
Black
10
104.29
20
-84.275
11
104.29
21
-83.9396
0
LINE
8
Black
10
104.29
20
-83.9396
11
104.405
21
-83.6245
0
LINE
8
Black
10
104.405
20
-83.6245
11
104.621
21
-83.3676
0
LINE
8
Black
10
104.621
20
-83.3676
11
104.911
21
-83.1999
0
LINE
8
Black
10
104.911
20
-83.1999
11
105.241
21
-83.1417
0
LINE
8
Black
10
105.241
20
-83.1417
11
105.572
21
-83.1999
0
LINE
8
Black
10
108.072
20
-83.1999
11
108.362
21
-83.3676
0
LINE
8
Black
10
108.362
20
-83.3676
11
108.578
21
-83.6245
0
LINE
8
Black
10
108.578
20
-83.6245
11
108.692
21
-83.9396
0
LINE
8
Black
10
108.692
20
-83.9396
11
108.692
21
-84.275
0
LINE
8
Black
10
108.692
20
-84.275
11
108.578
21
-84.5902
0
LINE
8
Black
10
108.578
20
-84.5902
11
108.362
21
-84.8471
0
LINE
8
Black
10
108.362
20
-84.8471
11
108.072
21
-85.0148
0
LINE
8
Black
10
108.072
20
-85.0148
11
107.741
21
-85.073
0
LINE
8
Black
10
107.741
20
-85.073
11
107.411
21
-85.0148
0
LINE
8
Black
10
107.411
20
-85.0148
11
107.121
21
-84.8471
0
LINE
8
Black
10
107.121
20
-84.8471
11
106.905
21
-84.5902
0
LINE
8
Black
10
106.905
20
-84.5902
11
106.79
21
-84.275
0
LINE
8
Black
10
106.79
20
-84.275
11
106.79
21
-83.9396
0
LINE
8
Black
10
106.79
20
-83.9396
11
106.905
21
-83.6245
0
LINE
8
Black
10
106.905
20
-83.6245
11
107.121
21
-83.3676
0
LINE
8
Black
10
107.121
20
-83.3676
11
107.411
21
-83.1999
0
LINE
8
Black
10
107.411
20
-83.1999
11
107.741
21
-83.1417
0
LINE
8
Black
10
107.741
20
-83.1417
11
108.072
21
-83.1999
0
LINE
8
Black
10
110.572
20
-83.1999
11
110.862
21
-83.3676
0
LINE
8
Black
10
110.862
20
-83.3676
11
111.078
21
-83.6245
0
LINE
8
Black
10
111.078
20
-83.6245
11
111.192
21
-83.9396
0
LINE
8
Black
10
111.192
20
-83.9396
11
111.192
21
-84.275
0
LINE
8
Black
10
111.192
20
-84.275
11
111.078
21
-84.5902
0
LINE
8
Black
10
111.078
20
-84.5902
11
110.862
21
-84.8471
0
LINE
8
Black
10
110.862
20
-84.8471
11
110.572
21
-85.0148
0
LINE
8
Black
10
110.572
20
-85.0148
11
110.241
21
-85.073
0
LINE
8
Black
10
110.241
20
-85.073
11
109.911
21
-85.0148
0
LINE
8
Black
10
109.911
20
-85.0148
11
109.621
21
-84.8471
0
LINE
8
Black
10
109.621
20
-84.8471
11
109.405
21
-84.5902
0
LINE
8
Black
10
109.405
20
-84.5902
11
109.29
21
-84.275
0
LINE
8
Black
10
109.29
20
-84.275
11
109.29
21
-83.9396
0
LINE
8
Black
10
109.29
20
-83.9396
11
109.405
21
-83.6245
0
LINE
8
Black
10
109.405
20
-83.6245
11
109.621
21
-83.3676
0
LINE
8
Black
10
109.621
20
-83.3676
11
109.911
21
-83.1999
0
LINE
8
Black
10
109.911
20
-83.1999
11
110.241
21
-83.1417
0
LINE
8
Black
10
110.241
20
-83.1417
11
110.572
21
-83.1999
0
LINE
8
Black
10
125.572
20
-83.1999
11
125.862
21
-83.3676
0
LINE
8
Black
10
125.862
20
-83.3676
11
126.078
21
-83.6245
0
LINE
8
Black
10
126.078
20
-83.6245
11
126.192
21
-83.9396
0
LINE
8
Black
10
126.192
20
-83.9396
11
126.192
21
-84.275
0
LINE
8
Black
10
126.192
20
-84.275
11
126.078
21
-84.5902
0
LINE
8
Black
10
126.078
20
-84.5902
11
125.862
21
-84.8471
0
LINE
8
Black
10
125.862
20
-84.8471
11
125.572
21
-85.0148
0
LINE
8
Black
10
125.572
20
-85.0148
11
125.241
21
-85.073
0
LINE
8
Black
10
125.241
20
-85.073
11
124.911
21
-85.0148
0
LINE
8
Black
10
124.911
20
-85.0148
11
124.621
21
-84.8471
0
LINE
8
Black
10
124.621
20
-84.8471
11
124.405
21
-84.5902
0
LINE
8
Black
10
124.405
20
-84.5902
11
124.29
21
-84.275
0
LINE
8
Black
10
124.29
20
-84.275
11
124.29
21
-83.9396
0
LINE
8
Black
10
124.29
20
-83.9396
11
124.405
21
-83.6245
0
LINE
8
Black
10
124.405
20
-83.6245
11
124.621
21
-83.3676
0
LINE
8
Black
10
124.621
20
-83.3676
11
124.911
21
-83.1999
0
LINE
8
Black
10
124.911
20
-83.1999
11
125.241
21
-83.1417
0
LINE
8
Black
10
125.241
20
-83.1417
11
125.572
21
-83.1999
0
LINE
8
Black
10
120.572
20
-83.1999
11
120.862
21
-83.3676
0
LINE
8
Black
10
120.862
20
-83.3676
11
121.078
21
-83.6245
0
LINE
8
Black
10
121.078
20
-83.6245
11
121.192
21
-83.9396
0
LINE
8
Black
10
121.192
20
-83.9396
11
121.192
21
-84.275
0
LINE
8
Black
10
121.192
20
-84.275
11
121.078
21
-84.5902
0
LINE
8
Black
10
121.078
20
-84.5902
11
120.862
21
-84.8471
0
LINE
8
Black
10
120.862
20
-84.8471
11
120.572
21
-85.0148
0
LINE
8
Black
10
120.572
20
-85.0148
11
120.241
21
-85.073
0
LINE
8
Black
10
120.241
20
-85.073
11
119.911
21
-85.0148
0
LINE
8
Black
10
119.911
20
-85.0148
11
119.621
21
-84.8471
0
LINE
8
Black
10
119.621
20
-84.8471
11
119.405
21
-84.5902
0
LINE
8
Black
10
119.405
20
-84.5902
11
119.29
21
-84.275
0
LINE
8
Black
10
119.29
20
-84.275
11
119.29
21
-83.9396
0
LINE
8
Black
10
119.29
20
-83.9396
11
119.405
21
-83.6245
0
LINE
8
Black
10
119.405
20
-83.6245
11
119.621
21
-83.3676
0
LINE
8
Black
10
119.621
20
-83.3676
11
119.911
21
-83.1999
0
LINE
8
Black
10
119.911
20
-83.1999
11
120.241
21
-83.1417
0
LINE
8
Black
10
120.241
20
-83.1417
11
120.572
21
-83.1999
0
LINE
8
Black
10
118.072
20
-83.1999
11
118.362
21
-83.3676
0
LINE
8
Black
10
118.362
20
-83.3676
11
118.578
21
-83.6245
0
LINE
8
Black
10
118.578
20
-83.6245
11
118.692
21
-83.9396
0
LINE
8
Black
10
118.692
20
-83.9396
11
118.692
21
-84.275
0
LINE
8
Black
10
118.692
20
-84.275
11
118.578
21
-84.5902
0
LINE
8
Black
10
118.578
20
-84.5902
11
118.362
21
-84.8471
0
LINE
8
Black
10
118.362
20
-84.8471
11
118.072
21
-85.0148
0
LINE
8
Black
10
118.072
20
-85.0148
11
117.741
21
-85.073
0
LINE
8
Black
10
117.741
20
-85.073
11
117.411
21
-85.0148
0
LINE
8
Black
10
117.411
20
-85.0148
11
117.121
21
-84.8471
0
LINE
8
Black
10
117.121
20
-84.8471
11
116.905
21
-84.5902
0
LINE
8
Black
10
116.905
20
-84.5902
11
116.79
21
-84.275
0
LINE
8
Black
10
116.79
20
-84.275
11
116.79
21
-83.9396
0
LINE
8
Black
10
116.79
20
-83.9396
11
116.905
21
-83.6245
0
LINE
8
Black
10
116.905
20
-83.6245
11
117.121
21
-83.3676
0
LINE
8
Black
10
117.121
20
-83.3676
11
117.411
21
-83.1999
0
LINE
8
Black
10
117.411
20
-83.1999
11
117.741
21
-83.1417
0
LINE
8
Black
10
117.741
20
-83.1417
11
118.072
21
-83.1999
0
LINE
8
Black
10
115.572
20
-83.1999
11
115.862
21
-83.3676
0
LINE
8
Black
10
115.862
20
-83.3676
11
116.078
21
-83.6245
0
LINE
8
Black
10
116.078
20
-83.6245
11
116.192
21
-83.9396
0
LINE
8
Black
10
116.192
20
-83.9396
11
116.192
21
-84.275
0
LINE
8
Black
10
116.192
20
-84.275
11
116.078
21
-84.5902
0
LINE
8
Black
10
116.078
20
-84.5902
11
115.862
21
-84.8471
0
LINE
8
Black
10
115.862
20
-84.8471
11
115.572
21
-85.0148
0
LINE
8
Black
10
115.572
20
-85.0148
11
115.241
21
-85.073
0
LINE
8
Black
10
115.241
20
-85.073
11
114.911
21
-85.0148
0
LINE
8
Black
10
114.911
20
-85.0148
11
114.621
21
-84.8471
0
LINE
8
Black
10
114.621
20
-84.8471
11
114.405
21
-84.5902
0
LINE
8
Black
10
114.405
20
-84.5902
11
114.29
21
-84.275
0
LINE
8
Black
10
114.29
20
-84.275
11
114.29
21
-83.9396
0
LINE
8
Black
10
114.29
20
-83.9396
11
114.405
21
-83.6245
0
LINE
8
Black
10
114.405
20
-83.6245
11
114.621
21
-83.3676
0
LINE
8
Black
10
114.621
20
-83.3676
11
114.911
21
-83.1999
0
LINE
8
Black
10
114.911
20
-83.1999
11
115.241
21
-83.1417
0
LINE
8
Black
10
115.241
20
-83.1417
11
115.572
21
-83.1999
0
LINE
8
Black
10
113.072
20
-83.1999
11
113.362
21
-83.3676
0
LINE
8
Black
10
113.362
20
-83.3676
11
113.578
21
-83.6245
0
LINE
8
Black
10
113.578
20
-83.6245
11
113.692
21
-83.9396
0
LINE
8
Black
10
113.692
20
-83.9396
11
113.692
21
-84.275
0
LINE
8
Black
10
113.692
20
-84.275
11
113.578
21
-84.5902
0
LINE
8
Black
10
113.578
20
-84.5902
11
113.362
21
-84.8471
0
LINE
8
Black
10
113.362
20
-84.8471
11
113.072
21
-85.0148
0
LINE
8
Black
10
113.072
20
-85.0148
11
112.741
21
-85.073
0
LINE
8
Black
10
112.741
20
-85.073
11
112.411
21
-85.0148
0
LINE
8
Black
10
112.411
20
-85.0148
11
112.121
21
-84.8471
0
LINE
8
Black
10
112.121
20
-84.8471
11
111.905
21
-84.5902
0
LINE
8
Black
10
111.905
20
-84.5902
11
111.79
21
-84.275
0
LINE
8
Black
10
111.79
20
-84.275
11
111.79
21
-83.9396
0
LINE
8
Black
10
111.79
20
-83.9396
11
111.905
21
-83.6245
0
LINE
8
Black
10
111.905
20
-83.6245
11
112.121
21
-83.3676
0
LINE
8
Black
10
112.121
20
-83.3676
11
112.411
21
-83.1999
0
LINE
8
Black
10
112.411
20
-83.1999
11
112.741
21
-83.1417
0
LINE
8
Black
10
112.741
20
-83.1417
11
113.072
21
-83.1999
0
LINE
8
Black
10
212.193
20
-82.8319
11
212.483
21
-82.9996
0
LINE
8
Black
10
212.483
20
-82.9996
11
212.699
21
-83.2565
0
LINE
8
Black
10
212.699
20
-83.2565
11
212.813
21
-83.5716
0
LINE
8
Black
10
212.813
20
-83.5716
11
212.813
21
-83.907
0
LINE
8
Black
10
212.813
20
-83.907
11
212.699
21
-84.2222
0
LINE
8
Black
10
212.699
20
-84.2222
11
212.483
21
-84.4791
0
LINE
8
Black
10
212.483
20
-84.4791
11
212.193
21
-84.6468
0
LINE
8
Black
10
212.193
20
-84.6468
11
211.862
21
-84.705
0
LINE
8
Black
10
211.862
20
-84.705
11
211.532
21
-84.6468
0
LINE
8
Black
10
211.532
20
-84.6468
11
211.242
21
-84.4791
0
LINE
8
Black
10
211.242
20
-84.4791
11
211.026
21
-84.2222
0
LINE
8
Black
10
211.026
20
-84.2222
11
210.911
21
-83.907
0
LINE
8
Black
10
210.911
20
-83.907
11
210.911
21
-83.5716
0
LINE
8
Black
10
210.911
20
-83.5716
11
211.026
21
-83.2565
0
LINE
8
Black
10
211.026
20
-83.2565
11
211.242
21
-82.9996
0
LINE
8
Black
10
211.242
20
-82.9996
11
211.532
21
-82.8319
0
LINE
8
Black
10
211.532
20
-82.8319
11
211.862
21
-82.7737
0
LINE
8
Black
10
211.862
20
-82.7737
11
212.193
21
-82.8319
0
LINE
8
Black
10
218.812
20
-80.7676
11
219.113
21
-80.9413
0
LINE
8
Black
10
219.113
20
-80.9413
11
219.336
21
-81.2073
0
LINE
8
Black
10
219.336
20
-81.2073
11
219.455
21
-81.5337
0
LINE
8
Black
10
219.455
20
-81.5337
11
219.455
21
-81.881
0
LINE
8
Black
10
219.455
20
-81.881
11
219.336
21
-82.2073
0
LINE
8
Black
10
219.336
20
-82.2073
11
219.113
21
-82.4734
0
LINE
8
Black
10
219.113
20
-82.4734
11
218.812
21
-82.647
0
LINE
8
Black
10
218.812
20
-82.647
11
218.47
21
-82.7073
0
LINE
8
Black
10
218.47
20
-82.7073
11
218.463
21
-82.7073
0
LINE
8
Black
10
218.463
20
-82.7073
11
218.121
21
-82.647
0
LINE
8
Black
10
218.121
20
-82.647
11
217.82
21
-82.4734
0
LINE
8
Black
10
217.82
20
-82.4734
11
217.597
21
-82.2073
0
LINE
8
Black
10
217.597
20
-82.2073
11
217.478
21
-81.881
0
LINE
8
Black
10
217.478
20
-81.881
11
217.478
21
-81.5337
0
LINE
8
Black
10
217.478
20
-81.5337
11
217.597
21
-81.2073
0
LINE
8
Black
10
217.597
20
-81.2073
11
217.82
21
-80.9413
0
LINE
8
Black
10
217.82
20
-80.9413
11
218.121
21
-80.7676
0
LINE
8
Black
10
218.121
20
-80.7676
11
218.463
21
-80.7073
0
LINE
8
Black
10
218.463
20
-80.7073
11
218.47
21
-80.7073
0
LINE
8
Black
10
218.47
20
-80.7073
11
218.812
21
-80.7676
0
LINE
8
Black
10
203.572
20
-80.7676
11
203.873
21
-80.9413
0
LINE
8
Black
10
203.873
20
-80.9413
11
204.096
21
-81.2073
0
LINE
8
Black
10
204.096
20
-81.2073
11
204.215
21
-81.5337
0
LINE
8
Black
10
204.215
20
-81.5337
11
204.215
21
-81.881
0
LINE
8
Black
10
204.215
20
-81.881
11
204.096
21
-82.2073
0
LINE
8
Black
10
204.096
20
-82.2073
11
203.873
21
-82.4734
0
LINE
8
Black
10
203.873
20
-82.4734
11
203.572
21
-82.647
0
LINE
8
Black
10
203.572
20
-82.647
11
203.23
21
-82.7073
0
LINE
8
Black
10
203.23
20
-82.7073
11
203.223
21
-82.7073
0
LINE
8
Black
10
203.223
20
-82.7073
11
202.881
21
-82.647
0
LINE
8
Black
10
202.881
20
-82.647
11
202.58
21
-82.4734
0
LINE
8
Black
10
202.58
20
-82.4734
11
202.357
21
-82.2073
0
LINE
8
Black
10
202.357
20
-82.2073
11
202.238
21
-81.881
0
LINE
8
Black
10
202.238
20
-81.881
11
202.238
21
-81.5337
0
LINE
8
Black
10
202.238
20
-81.5337
11
202.357
21
-81.2073
0
LINE
8
Black
10
202.357
20
-81.2073
11
202.58
21
-80.9413
0
LINE
8
Black
10
202.58
20
-80.9413
11
202.881
21
-80.7676
0
LINE
8
Black
10
202.881
20
-80.7676
11
203.223
21
-80.7073
0
LINE
8
Black
10
203.223
20
-80.7073
11
203.23
21
-80.7073
0
LINE
8
Black
10
203.23
20
-80.7073
11
203.572
21
-80.7676
0
LINE
8
Black
10
212.193
20
-80.2919
11
212.483
21
-80.4596
0
LINE
8
Black
10
212.483
20
-80.4596
11
212.699
21
-80.7165
0
LINE
8
Black
10
212.699
20
-80.7165
11
212.813
21
-81.0316
0
LINE
8
Black
10
212.813
20
-81.0316
11
212.813
21
-81.367
0
LINE
8
Black
10
212.813
20
-81.367
11
212.699
21
-81.6822
0
LINE
8
Black
10
212.699
20
-81.6822
11
212.483
21
-81.9391
0
LINE
8
Black
10
212.483
20
-81.9391
11
212.193
21
-82.1068
0
LINE
8
Black
10
212.193
20
-82.1068
11
211.862
21
-82.165
0
LINE
8
Black
10
211.862
20
-82.165
11
211.532
21
-82.1068
0
LINE
8
Black
10
211.532
20
-82.1068
11
211.242
21
-81.9391
0
LINE
8
Black
10
211.242
20
-81.9391
11
211.026
21
-81.6822
0
LINE
8
Black
10
211.026
20
-81.6822
11
210.911
21
-81.367
0
LINE
8
Black
10
210.911
20
-81.367
11
210.911
21
-81.0316
0
LINE
8
Black
10
210.911
20
-81.0316
11
211.026
21
-80.7165
0
LINE
8
Black
10
211.026
20
-80.7165
11
211.242
21
-80.4596
0
LINE
8
Black
10
211.242
20
-80.4596
11
211.532
21
-80.2919
0
LINE
8
Black
10
211.532
20
-80.2919
11
211.862
21
-80.2337
0
LINE
8
Black
10
211.862
20
-80.2337
11
212.193
21
-80.2919
0
LINE
8
Black
10
218.812
20
-78.2276
11
219.113
21
-78.4013
0
LINE
8
Black
10
219.113
20
-78.4013
11
219.336
21
-78.6673
0
LINE
8
Black
10
219.336
20
-78.6673
11
219.455
21
-78.9937
0
LINE
8
Black
10
219.455
20
-78.9937
11
219.455
21
-79.341
0
LINE
8
Black
10
219.455
20
-79.341
11
219.336
21
-79.6673
0
LINE
8
Black
10
219.336
20
-79.6673
11
219.113
21
-79.9334
0
LINE
8
Black
10
219.113
20
-79.9334
11
218.812
21
-80.107
0
LINE
8
Black
10
218.812
20
-80.107
11
218.47
21
-80.1673
0
LINE
8
Black
10
218.47
20
-80.1673
11
218.463
21
-80.1673
0
LINE
8
Black
10
218.463
20
-80.1673
11
218.121
21
-80.107
0
LINE
8
Black
10
218.121
20
-80.107
11
217.82
21
-79.9334
0
LINE
8
Black
10
217.82
20
-79.9334
11
217.597
21
-79.6673
0
LINE
8
Black
10
217.597
20
-79.6673
11
217.478
21
-79.341
0
LINE
8
Black
10
217.478
20
-79.341
11
217.478
21
-78.9937
0
LINE
8
Black
10
217.478
20
-78.9937
11
217.597
21
-78.6673
0
LINE
8
Black
10
217.597
20
-78.6673
11
217.82
21
-78.4013
0
LINE
8
Black
10
217.82
20
-78.4013
11
218.121
21
-78.2276
0
LINE
8
Black
10
218.121
20
-78.2276
11
218.463
21
-78.1673
0
LINE
8
Black
10
218.463
20
-78.1673
11
218.47
21
-78.1673
0
LINE
8
Black
10
218.47
20
-78.1673
11
218.812
21
-78.2276
0
LINE
8
Black
10
203.572
20
-78.2276
11
203.873
21
-78.4013
0
LINE
8
Black
10
203.873
20
-78.4013
11
204.096
21
-78.6673
0
LINE
8
Black
10
204.096
20
-78.6673
11
204.215
21
-78.9937
0
LINE
8
Black
10
204.215
20
-78.9937
11
204.215
21
-79.341
0
LINE
8
Black
10
204.215
20
-79.341
11
204.096
21
-79.6673
0
LINE
8
Black
10
204.096
20
-79.6673
11
203.873
21
-79.9334
0
LINE
8
Black
10
203.873
20
-79.9334
11
203.572
21
-80.107
0
LINE
8
Black
10
203.572
20
-80.107
11
203.23
21
-80.1673
0
LINE
8
Black
10
203.23
20
-80.1673
11
203.223
21
-80.1673
0
LINE
8
Black
10
203.223
20
-80.1673
11
202.881
21
-80.107
0
LINE
8
Black
10
202.881
20
-80.107
11
202.58
21
-79.9334
0
LINE
8
Black
10
202.58
20
-79.9334
11
202.357
21
-79.6673
0
LINE
8
Black
10
202.357
20
-79.6673
11
202.238
21
-79.341
0
LINE
8
Black
10
202.238
20
-79.341
11
202.238
21
-78.9937
0
LINE
8
Black
10
202.238
20
-78.9937
11
202.357
21
-78.6673
0
LINE
8
Black
10
202.357
20
-78.6673
11
202.58
21
-78.4013
0
LINE
8
Black
10
202.58
20
-78.4013
11
202.881
21
-78.2276
0
LINE
8
Black
10
202.881
20
-78.2276
11
203.223
21
-78.1673
0
LINE
8
Black
10
203.223
20
-78.1673
11
203.23
21
-78.1673
0
LINE
8
Black
10
203.23
20
-78.1673
11
203.572
21
-78.2276
0
LINE
8
Black
10
218.812
20
-75.6876
11
219.113
21
-75.8613
0
LINE
8
Black
10
219.113
20
-75.8613
11
219.336
21
-76.1273
0
LINE
8
Black
10
219.336
20
-76.1273
11
219.455
21
-76.4537
0
LINE
8
Black
10
219.455
20
-76.4537
11
219.455
21
-76.801
0
LINE
8
Black
10
219.455
20
-76.801
11
219.336
21
-77.1273
0
LINE
8
Black
10
219.336
20
-77.1273
11
219.113
21
-77.3934
0
LINE
8
Black
10
219.113
20
-77.3934
11
218.812
21
-77.567
0
LINE
8
Black
10
218.812
20
-77.567
11
218.47
21
-77.6273
0
LINE
8
Black
10
218.47
20
-77.6273
11
218.463
21
-77.6273
0
LINE
8
Black
10
218.463
20
-77.6273
11
218.121
21
-77.567
0
LINE
8
Black
10
218.121
20
-77.567
11
217.82
21
-77.3934
0
LINE
8
Black
10
217.82
20
-77.3934
11
217.597
21
-77.1273
0
LINE
8
Black
10
217.597
20
-77.1273
11
217.478
21
-76.801
0
LINE
8
Black
10
217.478
20
-76.801
11
217.478
21
-76.4537
0
LINE
8
Black
10
217.478
20
-76.4537
11
217.597
21
-76.1273
0
LINE
8
Black
10
217.597
20
-76.1273
11
217.82
21
-75.8613
0
LINE
8
Black
10
217.82
20
-75.8613
11
218.121
21
-75.6876
0
LINE
8
Black
10
218.121
20
-75.6876
11
218.463
21
-75.6273
0
LINE
8
Black
10
218.463
20
-75.6273
11
218.47
21
-75.6273
0
LINE
8
Black
10
218.47
20
-75.6273
11
218.812
21
-75.6876
0
LINE
8
Black
10
203.572
20
-75.6876
11
203.873
21
-75.8613
0
LINE
8
Black
10
203.873
20
-75.8613
11
204.096
21
-76.1273
0
LINE
8
Black
10
204.096
20
-76.1273
11
204.215
21
-76.4537
0
LINE
8
Black
10
204.215
20
-76.4537
11
204.215
21
-76.801
0
LINE
8
Black
10
204.215
20
-76.801
11
204.096
21
-77.1273
0
LINE
8
Black
10
204.096
20
-77.1273
11
203.873
21
-77.3934
0
LINE
8
Black
10
203.873
20
-77.3934
11
203.572
21
-77.567
0
LINE
8
Black
10
203.572
20
-77.567
11
203.23
21
-77.6273
0
LINE
8
Black
10
203.23
20
-77.6273
11
203.223
21
-77.6273
0
LINE
8
Black
10
203.223
20
-77.6273
11
202.881
21
-77.567
0
LINE
8
Black
10
202.881
20
-77.567
11
202.58
21
-77.3934
0
LINE
8
Black
10
202.58
20
-77.3934
11
202.357
21
-77.1273
0
LINE
8
Black
10
202.357
20
-77.1273
11
202.238
21
-76.801
0
LINE
8
Black
10
202.238
20
-76.801
11
202.238
21
-76.4537
0
LINE
8
Black
10
202.238
20
-76.4537
11
202.357
21
-76.1273
0
LINE
8
Black
10
202.357
20
-76.1273
11
202.58
21
-75.8613
0
LINE
8
Black
10
202.58
20
-75.8613
11
202.881
21
-75.6876
0
LINE
8
Black
10
202.881
20
-75.6876
11
203.223
21
-75.6273
0
LINE
8
Black
10
203.223
20
-75.6273
11
203.23
21
-75.6273
0
LINE
8
Black
10
203.23
20
-75.6273
11
203.572
21
-75.6876
0
LINE
8
Black
10
90.7364
20
-73.434
11
91.0157
21
-73.6684
0
LINE
8
Black
10
91.0157
20
-73.6684
11
91.198
21
-73.9842
0
LINE
8
Black
10
91.198
20
-73.9842
11
91.2613
21
-74.3433
0
LINE
8
Black
10
91.2613
20
-74.3433
11
91.2613
21
-74.3513
0
LINE
8
Black
10
91.2613
20
-74.3513
11
91.198
21
-74.7105
0
LINE
8
Black
10
91.198
20
-74.7105
11
91.0157
21
-75.0263
0
LINE
8
Black
10
91.0157
20
-75.0263
11
90.7364
21
-75.2607
0
LINE
8
Black
10
90.7364
20
-75.2607
11
90.3937
21
-75.3854
0
LINE
8
Black
10
90.3937
20
-75.3854
11
90.029
21
-75.3854
0
LINE
8
Black
10
90.029
20
-75.3854
11
89.6863
21
-75.2607
0
LINE
8
Black
10
89.6863
20
-75.2607
11
89.407
21
-75.0263
0
LINE
8
Black
10
89.407
20
-75.0263
11
89.2247
21
-74.7105
0
LINE
8
Black
10
89.2247
20
-74.7105
11
89.1613
21
-74.3513
0
LINE
8
Black
10
89.1613
20
-74.3513
11
89.1613
21
-74.3433
0
LINE
8
Black
10
89.1613
20
-74.3433
11
89.2247
21
-73.9842
0
LINE
8
Black
10
89.2247
20
-73.9842
11
89.407
21
-73.6684
0
LINE
8
Black
10
89.407
20
-73.6684
11
89.6863
21
-73.434
0
LINE
8
Black
10
89.6863
20
-73.434
11
90.029
21
-73.3093
0
LINE
8
Black
10
90.029
20
-73.3093
11
90.3937
21
-73.3093
0
LINE
8
Black
10
90.3937
20
-73.3093
11
90.7364
21
-73.434
0
LINE
8
Black
10
93.2763
20
-73.434
11
93.5557
21
-73.6684
0
LINE
8
Black
10
93.5557
20
-73.6684
11
93.738
21
-73.9842
0
LINE
8
Black
10
93.738
20
-73.9842
11
93.8013
21
-74.3433
0
LINE
8
Black
10
93.8013
20
-74.3433
11
93.8013
21
-74.3513
0
LINE
8
Black
10
93.8013
20
-74.3513
11
93.738
21
-74.7105
0
LINE
8
Black
10
93.738
20
-74.7105
11
93.5557
21
-75.0263
0
LINE
8
Black
10
93.5557
20
-75.0263
11
93.2763
21
-75.2607
0
LINE
8
Black
10
93.2763
20
-75.2607
11
92.9337
21
-75.3854
0
LINE
8
Black
10
92.9337
20
-75.3854
11
92.569
21
-75.3854
0
LINE
8
Black
10
92.569
20
-75.3854
11
92.2263
21
-75.2607
0
LINE
8
Black
10
92.2263
20
-75.2607
11
91.947
21
-75.0263
0
LINE
8
Black
10
91.947
20
-75.0263
11
91.7647
21
-74.7105
0
LINE
8
Black
10
91.7647
20
-74.7105
11
91.7013
21
-74.3513
0
LINE
8
Black
10
91.7013
20
-74.3513
11
91.7013
21
-74.3433
0
LINE
8
Black
10
91.7013
20
-74.3433
11
91.7647
21
-73.9842
0
LINE
8
Black
10
91.7647
20
-73.9842
11
91.947
21
-73.6684
0
LINE
8
Black
10
91.947
20
-73.6684
11
92.2263
21
-73.434
0
LINE
8
Black
10
92.2263
20
-73.434
11
92.569
21
-73.3093
0
LINE
8
Black
10
92.569
20
-73.3093
11
92.9337
21
-73.3093
0
LINE
8
Black
10
92.9337
20
-73.3093
11
93.2763
21
-73.434
0
LINE
8
Black
10
95.8163
20
-73.434
11
96.0957
21
-73.6684
0
LINE
8
Black
10
96.0957
20
-73.6684
11
96.278
21
-73.9842
0
LINE
8
Black
10
96.278
20
-73.9842
11
96.3413
21
-74.3433
0
LINE
8
Black
10
96.3413
20
-74.3433
11
96.3413
21
-74.3513
0
LINE
8
Black
10
96.3413
20
-74.3513
11
96.278
21
-74.7105
0
LINE
8
Black
10
96.278
20
-74.7105
11
96.0957
21
-75.0263
0
LINE
8
Black
10
96.0957
20
-75.0263
11
95.8163
21
-75.2607
0
LINE
8
Black
10
95.8163
20
-75.2607
11
95.4737
21
-75.3854
0
LINE
8
Black
10
95.4737
20
-75.3854
11
95.109
21
-75.3854
0
LINE
8
Black
10
95.109
20
-75.3854
11
94.7664
21
-75.2607
0
LINE
8
Black
10
94.7664
20
-75.2607
11
94.487
21
-75.0263
0
LINE
8
Black
10
94.487
20
-75.0263
11
94.3047
21
-74.7105
0
LINE
8
Black
10
94.3047
20
-74.7105
11
94.2413
21
-74.3513
0
LINE
8
Black
10
94.2413
20
-74.3513
11
94.2413
21
-74.3433
0
LINE
8
Black
10
94.2413
20
-74.3433
11
94.3047
21
-73.9842
0
LINE
8
Black
10
94.3047
20
-73.9842
11
94.487
21
-73.6684
0
LINE
8
Black
10
94.487
20
-73.6684
11
94.7664
21
-73.434
0
LINE
8
Black
10
94.7664
20
-73.434
11
95.109
21
-73.3093
0
LINE
8
Black
10
95.109
20
-73.3093
11
95.4737
21
-73.3093
0
LINE
8
Black
10
95.4737
20
-73.3093
11
95.8163
21
-73.434
0
LINE
8
Black
10
218.812
20
-73.1476
11
219.113
21
-73.3213
0
LINE
8
Black
10
219.113
20
-73.3213
11
219.336
21
-73.5873
0
LINE
8
Black
10
219.336
20
-73.5873
11
219.455
21
-73.9137
0
LINE
8
Black
10
219.455
20
-73.9137
11
219.455
21
-74.261
0
LINE
8
Black
10
219.455
20
-74.261
11
219.336
21
-74.5873
0
LINE
8
Black
10
219.336
20
-74.5873
11
219.113
21
-74.8534
0
LINE
8
Black
10
219.113
20
-74.8534
11
218.812
21
-75.027
0
LINE
8
Black
10
218.812
20
-75.027
11
218.47
21
-75.0873
0
LINE
8
Black
10
218.47
20
-75.0873
11
218.463
21
-75.0873
0
LINE
8
Black
10
218.463
20
-75.0873
11
218.121
21
-75.027
0
LINE
8
Black
10
218.121
20
-75.027
11
217.82
21
-74.8534
0
LINE
8
Black
10
217.82
20
-74.8534
11
217.597
21
-74.5873
0
LINE
8
Black
10
217.597
20
-74.5873
11
217.478
21
-74.261
0
LINE
8
Black
10
217.478
20
-74.261
11
217.478
21
-73.9137
0
LINE
8
Black
10
217.478
20
-73.9137
11
217.597
21
-73.5873
0
LINE
8
Black
10
217.597
20
-73.5873
11
217.82
21
-73.3213
0
LINE
8
Black
10
217.82
20
-73.3213
11
218.121
21
-73.1476
0
LINE
8
Black
10
218.121
20
-73.1476
11
218.463
21
-73.0873
0
LINE
8
Black
10
218.463
20
-73.0873
11
218.47
21
-73.0873
0
LINE
8
Black
10
218.47
20
-73.0873
11
218.812
21
-73.1476
0
LINE
8
Black
10
203.572
20
-73.1476
11
203.873
21
-73.3213
0
LINE
8
Black
10
203.873
20
-73.3213
11
204.096
21
-73.5873
0
LINE
8
Black
10
204.096
20
-73.5873
11
204.215
21
-73.9137
0
LINE
8
Black
10
204.215
20
-73.9137
11
204.215
21
-74.261
0
LINE
8
Black
10
204.215
20
-74.261
11
204.096
21
-74.5873
0
LINE
8
Black
10
204.096
20
-74.5873
11
203.873
21
-74.8534
0
LINE
8
Black
10
203.873
20
-74.8534
11
203.572
21
-75.027
0
LINE
8
Black
10
203.572
20
-75.027
11
203.23
21
-75.0873
0
LINE
8
Black
10
203.23
20
-75.0873
11
203.223
21
-75.0873
0
LINE
8
Black
10
203.223
20
-75.0873
11
202.881
21
-75.027
0
LINE
8
Black
10
202.881
20
-75.027
11
202.58
21
-74.8534
0
LINE
8
Black
10
202.58
20
-74.8534
11
202.357
21
-74.5873
0
LINE
8
Black
10
202.357
20
-74.5873
11
202.238
21
-74.261
0
LINE
8
Black
10
202.238
20
-74.261
11
202.238
21
-73.9137
0
LINE
8
Black
10
202.238
20
-73.9137
11
202.357
21
-73.5873
0
LINE
8
Black
10
202.357
20
-73.5873
11
202.58
21
-73.3213
0
LINE
8
Black
10
202.58
20
-73.3213
11
202.881
21
-73.1476
0
LINE
8
Black
10
202.881
20
-73.1476
11
203.223
21
-73.0873
0
LINE
8
Black
10
203.223
20
-73.0873
11
203.23
21
-73.0873
0
LINE
8
Black
10
203.23
20
-73.0873
11
203.572
21
-73.1476
0
LINE
8
Black
10
96.3413
20
-72.8573
11
94.2413
21
-72.8573
0
LINE
8
Black
10
94.2413
20
-72.8573
11
94.2413
21
-70.7573
0
LINE
8
Black
10
94.2413
20
-70.7573
11
96.3413
21
-70.7573
0
LINE
8
Black
10
96.3413
20
-70.7573
11
96.3413
21
-72.8573
0
LINE
8
Black
10
90.7364
20
-70.894
11
91.0157
21
-71.1284
0
LINE
8
Black
10
91.0157
20
-71.1284
11
91.198
21
-71.4442
0
LINE
8
Black
10
91.198
20
-71.4442
11
91.2613
21
-71.8033
0
LINE
8
Black
10
91.2613
20
-71.8033
11
91.2613
21
-71.8113
0
LINE
8
Black
10
91.2613
20
-71.8113
11
91.198
21
-72.1705
0
LINE
8
Black
10
91.198
20
-72.1705
11
91.0157
21
-72.4863
0
LINE
8
Black
10
91.0157
20
-72.4863
11
90.7364
21
-72.7207
0
LINE
8
Black
10
90.7364
20
-72.7207
11
90.3937
21
-72.8454
0
LINE
8
Black
10
90.3937
20
-72.8454
11
90.029
21
-72.8454
0
LINE
8
Black
10
90.029
20
-72.8454
11
89.6863
21
-72.7207
0
LINE
8
Black
10
89.6863
20
-72.7207
11
89.407
21
-72.4863
0
LINE
8
Black
10
89.407
20
-72.4863
11
89.2247
21
-72.1705
0
LINE
8
Black
10
89.2247
20
-72.1705
11
89.1613
21
-71.8113
0
LINE
8
Black
10
89.1613
20
-71.8113
11
89.1613
21
-71.8033
0
LINE
8
Black
10
89.1613
20
-71.8033
11
89.2247
21
-71.4442
0
LINE
8
Black
10
89.2247
20
-71.4442
11
89.407
21
-71.1284
0
LINE
8
Black
10
89.407
20
-71.1284
11
89.6863
21
-70.894
0
LINE
8
Black
10
89.6863
20
-70.894
11
90.029
21
-70.7693
0
LINE
8
Black
10
90.029
20
-70.7693
11
90.3937
21
-70.7693
0
LINE
8
Black
10
90.3937
20
-70.7693
11
90.7364
21
-70.894
0
LINE
8
Black
10
93.2763
20
-70.894
11
93.5557
21
-71.1284
0
LINE
8
Black
10
93.5557
20
-71.1284
11
93.738
21
-71.4442
0
LINE
8
Black
10
93.738
20
-71.4442
11
93.8013
21
-71.8033
0
LINE
8
Black
10
93.8013
20
-71.8033
11
93.8013
21
-71.8113
0
LINE
8
Black
10
93.8013
20
-71.8113
11
93.738
21
-72.1705
0
LINE
8
Black
10
93.738
20
-72.1705
11
93.5557
21
-72.4863
0
LINE
8
Black
10
93.5557
20
-72.4863
11
93.2763
21
-72.7207
0
LINE
8
Black
10
93.2763
20
-72.7207
11
92.9337
21
-72.8454
0
LINE
8
Black
10
92.9337
20
-72.8454
11
92.569
21
-72.8454
0
LINE
8
Black
10
92.569
20
-72.8454
11
92.2263
21
-72.7207
0
LINE
8
Black
10
92.2263
20
-72.7207
11
91.947
21
-72.4863
0
LINE
8
Black
10
91.947
20
-72.4863
11
91.7647
21
-72.1705
0
LINE
8
Black
10
91.7647
20
-72.1705
11
91.7013
21
-71.8113
0
LINE
8
Black
10
91.7013
20
-71.8113
11
91.7013
21
-71.8033
0
LINE
8
Black
10
91.7013
20
-71.8033
11
91.7647
21
-71.4442
0
LINE
8
Black
10
91.7647
20
-71.4442
11
91.947
21
-71.1284
0
LINE
8
Black
10
91.947
20
-71.1284
11
92.2263
21
-70.894
0
LINE
8
Black
10
92.2263
20
-70.894
11
92.569
21
-70.7693
0
LINE
8
Black
10
92.569
20
-70.7693
11
92.9337
21
-70.7693
0
LINE
8
Black
10
92.9337
20
-70.7693
11
93.2763
21
-70.894
0
LINE
8
Black
10
218.812
20
-70.6076
11
219.113
21
-70.7813
0
LINE
8
Black
10
219.113
20
-70.7813
11
219.336
21
-71.0473
0
LINE
8
Black
10
219.336
20
-71.0473
11
219.455
21
-71.3737
0
LINE
8
Black
10
219.455
20
-71.3737
11
219.455
21
-71.721
0
LINE
8
Black
10
219.455
20
-71.721
11
219.336
21
-72.0473
0
LINE
8
Black
10
219.336
20
-72.0473
11
219.113
21
-72.3134
0
LINE
8
Black
10
219.113
20
-72.3134
11
218.812
21
-72.487
0
LINE
8
Black
10
218.812
20
-72.487
11
218.47
21
-72.5473
0
LINE
8
Black
10
218.47
20
-72.5473
11
218.463
21
-72.5473
0
LINE
8
Black
10
218.463
20
-72.5473
11
218.121
21
-72.487
0
LINE
8
Black
10
218.121
20
-72.487
11
217.82
21
-72.3134
0
LINE
8
Black
10
217.82
20
-72.3134
11
217.597
21
-72.0473
0
LINE
8
Black
10
217.597
20
-72.0473
11
217.478
21
-71.721
0
LINE
8
Black
10
217.478
20
-71.721
11
217.478
21
-71.3737
0
LINE
8
Black
10
217.478
20
-71.3737
11
217.597
21
-71.0473
0
LINE
8
Black
10
217.597
20
-71.0473
11
217.82
21
-70.7813
0
LINE
8
Black
10
217.82
20
-70.7813
11
218.121
21
-70.6076
0
LINE
8
Black
10
218.121
20
-70.6076
11
218.463
21
-70.5473
0
LINE
8
Black
10
218.463
20
-70.5473
11
218.47
21
-70.5473
0
LINE
8
Black
10
218.47
20
-70.5473
11
218.812
21
-70.6076
0
LINE
8
Black
10
203.572
20
-70.6076
11
203.873
21
-70.7813
0
LINE
8
Black
10
203.873
20
-70.7813
11
204.096
21
-71.0473
0
LINE
8
Black
10
204.096
20
-71.0473
11
204.215
21
-71.3737
0
LINE
8
Black
10
204.215
20
-71.3737
11
204.215
21
-71.721
0
LINE
8
Black
10
204.215
20
-71.721
11
204.096
21
-72.0473
0
LINE
8
Black
10
204.096
20
-72.0473
11
203.873
21
-72.3134
0
LINE
8
Black
10
203.873
20
-72.3134
11
203.572
21
-72.487
0
LINE
8
Black
10
203.572
20
-72.487
11
203.23
21
-72.5473
0
LINE
8
Black
10
203.23
20
-72.5473
11
203.223
21
-72.5473
0
LINE
8
Black
10
203.223
20
-72.5473
11
202.881
21
-72.487
0
LINE
8
Black
10
202.881
20
-72.487
11
202.58
21
-72.3134
0
LINE
8
Black
10
202.58
20
-72.3134
11
202.357
21
-72.0473
0
LINE
8
Black
10
202.357
20
-72.0473
11
202.238
21
-71.721
0
LINE
8
Black
10
202.238
20
-71.721
11
202.238
21
-71.3737
0
LINE
8
Black
10
202.238
20
-71.3737
11
202.357
21
-71.0473
0
LINE
8
Black
10
202.357
20
-71.0473
11
202.58
21
-70.7813
0
LINE
8
Black
10
202.58
20
-70.7813
11
202.881
21
-70.6076
0
LINE
8
Black
10
202.881
20
-70.6076
11
203.223
21
-70.5473
0
LINE
8
Black
10
203.223
20
-70.5473
11
203.23
21
-70.5473
0
LINE
8
Black
10
203.23
20
-70.5473
11
203.572
21
-70.6076
0
LINE
8
Black
10
225.206
20
-69.7261
11
225.213
21
-69.7261
0
LINE
8
Black
10
225.213
20
-69.7261
11
225.219
21
-69.7284
0
LINE
8
Black
10
225.219
20
-69.7284
11
225.226
21
-69.7295
0
LINE
8
Black
10
225.226
20
-69.7295
11
225.231
21
-69.7328
0
LINE
8
Black
10
225.231
20
-69.7328
11
225.237
21
-69.735
0
LINE
8
Black
10
225.237
20
-69.735
11
225.243
21
-69.7393
0
LINE
8
Black
10
225.243
20
-69.7393
11
225.248
21
-69.7425
0
LINE
8
Black
10
225.248
20
-69.7425
11
225.252
21
-69.7476
0
LINE
8
Black
10
225.252
20
-69.7476
11
225.257
21
-69.7518
0
LINE
8
Black
10
225.257
20
-69.7518
11
225.261
21
-69.7575
0
LINE
8
Black
10
225.261
20
-69.7575
11
225.265
21
-69.7625
0
LINE
8
Black
10
225.265
20
-69.7625
11
225.267
21
-69.7687
0
LINE
8
Black
10
225.267
20
-69.7687
11
225.27
21
-69.7743
0
LINE
8
Black
10
225.27
20
-69.7743
11
225.272
21
-69.7808
0
LINE
8
Black
10
225.272
20
-69.7808
11
225.274
21
-69.787
0
LINE
8
Black
10
225.274
20
-69.787
11
225.274
21
-69.7935
0
LINE
8
Black
10
225.274
20
-69.7935
11
225.275
21
-69.8
0
LINE
8
Black
10
225.275
20
-69.8
11
225.275
21
-126.4
0
LINE
8
Black
10
225.275
20
-126.4
11
225.274
21
-126.406
0
LINE
8
Black
10
225.274
20
-126.406
11
225.274
21
-126.413
0
LINE
8
Black
10
225.274
20
-126.413
11
225.272
21
-126.419
0
LINE
8
Black
10
225.272
20
-126.419
11
225.27
21
-126.426
0
LINE
8
Black
10
225.27
20
-126.426
11
225.267
21
-126.431
0
LINE
8
Black
10
225.267
20
-126.431
11
225.265
21
-126.438
0
LINE
8
Black
10
225.265
20
-126.438
11
225.261
21
-126.443
0
LINE
8
Black
10
225.261
20
-126.443
11
225.257
21
-126.448
0
LINE
8
Black
10
225.257
20
-126.448
11
225.252
21
-126.452
0
LINE
8
Black
10
225.252
20
-126.452
11
225.248
21
-126.457
0
LINE
8
Black
10
225.248
20
-126.457
11
225.243
21
-126.461
0
LINE
8
Black
10
225.243
20
-126.461
11
225.237
21
-126.465
0
LINE
8
Black
10
225.237
20
-126.465
11
225.231
21
-126.467
0
LINE
8
Black
10
225.231
20
-126.467
11
225.226
21
-126.47
0
LINE
8
Black
10
225.226
20
-126.47
11
225.219
21
-126.472
0
LINE
8
Black
10
225.219
20
-126.472
11
225.213
21
-126.474
0
LINE
8
Black
10
225.213
20
-126.474
11
225.206
21
-126.474
0
LINE
8
Black
10
225.206
20
-126.474
11
225.2
21
-126.475
0
LINE
8
Black
10
225.2
20
-126.475
11
70.2
21
-126.475
0
LINE
8
Black
10
70.2
20
-126.475
11
70.1935
21
-126.474
0
LINE
8
Black
10
70.1935
20
-126.474
11
70.187
21
-126.474
0
LINE
8
Black
10
70.187
20
-126.474
11
70.1808
21
-126.472
0
LINE
8
Black
10
70.1808
20
-126.472
11
70.1743
21
-126.47
0
LINE
8
Black
10
70.1743
20
-126.47
11
70.1687
21
-126.467
0
LINE
8
Black
10
70.1687
20
-126.467
11
70.1625
21
-126.465
0
LINE
8
Black
10
70.1625
20
-126.465
11
70.1575
21
-126.461
0
LINE
8
Black
10
70.1575
20
-126.461
11
70.1518
21
-126.457
0
LINE
8
Black
10
70.1518
20
-126.457
11
70.1476
21
-126.452
0
LINE
8
Black
10
70.1476
20
-126.452
11
70.1425
21
-126.448
0
LINE
8
Black
10
70.1425
20
-126.448
11
70.1393
21
-126.443
0
LINE
8
Black
10
70.1393
20
-126.443
11
70.135
21
-126.438
0
LINE
8
Black
10
70.135
20
-126.438
11
70.1328
21
-126.431
0
LINE
8
Black
10
70.1328
20
-126.431
11
70.1295
21
-126.426
0
LINE
8
Black
10
70.1295
20
-126.426
11
70.1284
21
-126.419
0
LINE
8
Black
10
70.1284
20
-126.419
11
70.1261
21
-126.413
0
LINE
8
Black
10
70.1261
20
-126.413
11
70.1261
21
-126.406
0
LINE
8
Black
10
70.1261
20
-126.406
11
70.125
21
-126.4
0
LINE
8
Black
10
70.125
20
-126.4
11
70.125
21
-69.8
0
LINE
8
Black
10
70.125
20
-69.8
11
70.1261
21
-69.7935
0
LINE
8
Black
10
70.1261
20
-69.7935
11
70.1261
21
-69.787
0
LINE
8
Black
10
70.1261
20
-69.787
11
70.1284
21
-69.7808
0
LINE
8
Black
10
70.1284
20
-69.7808
11
70.1295
21
-69.7743
0
LINE
8
Black
10
70.1295
20
-69.7743
11
70.1328
21
-69.7687
0
LINE
8
Black
10
70.1328
20
-69.7687
11
70.135
21
-69.7625
0
LINE
8
Black
10
70.135
20
-69.7625
11
70.1393
21
-69.7575
0
LINE
8
Black
10
70.1393
20
-69.7575
11
70.1425
21
-69.7518
0
LINE
8
Black
10
70.1425
20
-69.7518
11
70.1476
21
-69.7476
0
LINE
8
Black
10
70.1476
20
-69.7476
11
70.1518
21
-69.7425
0
LINE
8
Black
10
70.1518
20
-69.7425
11
70.1575
21
-69.7393
0
LINE
8
Black
10
70.1575
20
-69.7393
11
70.1625
21
-69.735
0
LINE
8
Black
10
70.1625
20
-69.735
11
70.1687
21
-69.7328
0
LINE
8
Black
10
70.1687
20
-69.7328
11
70.1743
21
-69.7295
0
LINE
8
Black
10
70.1743
20
-69.7295
11
70.1808
21
-69.7284
0
LINE
8
Black
10
70.1808
20
-69.7284
11
70.187
21
-69.7261
0
LINE
8
Black
10
70.187
20
-69.7261
11
70.1935
21
-69.7261
0
LINE
8
Black
10
70.1935
20
-69.7261
11
70.2
21
-69.725
0
LINE
8
Black
10
70.2
20
-69.725
11
225.2
21
-69.725
0
LINE
8
Black
10
225.2
20
-69.725
11
225.206
21
-69.7261
0
LINE
8
Black
10
70.275
20
-69.875
11
70.275
21
-126.325
0
LINE
8
Black
10
70.275
20
-126.325
11
225.125
21
-126.325
0
LINE
8
Black
10
225.125
20
-126.325
11
225.125
21
-69.875
0
LINE
8
Black
10
225.125
20
-69.875
11
70.275
21
-69.875
  0
ENDSEC
  0
EOF
