M48
;DRILL file {KiCad 4.0.4-stable} date 11/18/18 17:45:22
;FORMAT={-:-/ absolute / metric / decimal}
FMAT,2
METRIC,TZ
T1C0.400
T2C0.762
T3C0.800
T4C1.000
T5C2.900
%
G90
G05
M71
T1
X90.991Y-102.407
X90.991Y-109.107
X91.49Y-85.52
X93.241Y-97.807
X93.241Y-103.057
X102.73Y-85.52
X102.741Y-112.182
X105.241Y-109.632
X108.941Y-98.207
X111.491Y-100.757
X112.741Y-86.157
X113.991Y-105.907
X115.191Y-96.957
X116.491Y-103.307
X117.741Y-99.482
X118.991Y-108.382
X120.241Y-102.032
X121.491Y-110.907
X122.741Y-104.557
X123.991Y-107.107
X125.241Y-113.057
X126.441Y-95.682
X128.991Y-77.882
X131.491Y-94.407
X142.766Y-86.782
X145.773Y-85.523
X146.491Y-93.132
X148.991Y-109.632
X151.491Y-112.182
X152.741Y-75.357
X153.673Y-86.057
X155.241Y-72.807
X155.241Y-96.957
X157.741Y-71.557
X157.741Y-99.482
X160.241Y-74.082
X160.241Y-102.032
X162.741Y-76.632
X162.741Y-104.557
X165.241Y-107.107
X167.741Y-110.907
X168.991Y-95.682
X170.241Y-108.382
X171.491Y-98.207
X172.741Y-105.907
X173.991Y-100.757
X175.241Y-103.307
X204.991Y-77.882
T2
X90.241Y-84.107
X90.241Y-89.107
X92.741Y-84.107
X92.741Y-89.107
X95.241Y-84.107
X95.241Y-89.107
X97.741Y-84.107
X97.741Y-89.107
X100.241Y-84.107
X100.241Y-89.107
X102.741Y-84.107
X102.741Y-89.107
X105.241Y-84.107
X105.241Y-89.107
X107.741Y-84.107
X107.741Y-89.107
X110.241Y-84.107
X110.241Y-89.107
X112.741Y-84.107
X112.741Y-89.107
X115.241Y-84.107
X115.241Y-89.107
X117.741Y-84.107
X117.741Y-89.107
X120.241Y-84.107
X120.241Y-89.107
X122.741Y-84.107
X122.741Y-89.107
X125.241Y-84.107
X125.241Y-89.107
X127.741Y-84.107
X127.741Y-89.107
X130.241Y-84.107
X130.241Y-89.107
X132.741Y-84.107
X132.741Y-89.107
X135.241Y-84.107
X135.241Y-89.107
X137.741Y-84.107
X137.741Y-89.107
X140.241Y-84.107
X140.241Y-89.107
X142.741Y-84.107
X142.741Y-89.107
X145.241Y-84.107
X145.241Y-89.107
X147.741Y-84.107
X147.741Y-89.107
X150.241Y-84.107
X150.241Y-89.107
X152.741Y-84.107
X152.741Y-89.107
X155.241Y-84.107
X155.241Y-89.107
X157.741Y-84.107
X157.741Y-89.107
X160.241Y-84.107
X160.241Y-89.107
X162.741Y-84.107
X162.741Y-89.107
X165.241Y-84.107
X165.241Y-89.107
X167.741Y-84.107
X167.741Y-89.107
X170.241Y-84.107
X170.241Y-89.107
X172.741Y-84.107
X172.741Y-89.107
X175.241Y-84.107
X175.241Y-89.107
X177.741Y-84.107
X177.741Y-89.107
X207.036Y-115.997
X209.576Y-115.997
X211.862Y-81.199
X211.862Y-83.739
X211.862Y-86.279
X212.116Y-115.997
X214.656Y-115.997
T3
X203.226Y-71.547
X203.226Y-74.087
X203.226Y-76.627
X203.226Y-79.167
X203.226Y-81.707
X203.226Y-84.247
X203.226Y-86.787
X203.226Y-89.327
X203.226Y-91.867
X203.226Y-94.407
X203.226Y-96.947
X203.226Y-99.487
X203.226Y-102.027
X203.226Y-104.567
X203.226Y-107.107
X203.226Y-109.647
X203.226Y-112.187
X203.226Y-114.727
X203.226Y-117.267
X203.226Y-119.807
X218.466Y-71.547
X218.466Y-74.087
X218.466Y-76.627
X218.466Y-79.167
X218.466Y-81.707
X218.466Y-84.247
X218.466Y-86.787
X218.466Y-89.327
X218.466Y-91.867
X218.466Y-94.407
X218.466Y-96.947
X218.466Y-99.487
X218.466Y-102.027
X218.466Y-104.567
X218.466Y-107.107
X218.466Y-109.647
X218.466Y-112.187
X218.466Y-114.727
X218.466Y-117.267
X218.466Y-119.807
T4
X90.211Y-71.807
X90.211Y-74.347
X92.751Y-71.807
X92.751Y-74.347
X95.291Y-71.807
X95.291Y-74.347
T5
X76.Y-86.6
X192.Y-86.6
T0
M30
