  0
SECTION
  2
HEADER
  9
$ANGBASE
  50
0.0
  9
$ANGDIR
  70
  1
  9
$MEASUREMENT
  70
0
  0
ENDSEC
  0
SECTION
  2
TABLES
  0
TABLE
  2
LTYPE
  70
1
  0
LTYPE
  2
CONTINUOUS
  70
0
  3
Solid line
  72
65
  73
0
  40
0.0
  0
ENDTAB
  0
TABLE
  2
STYLE
  70
4
  0
STYLE
  2
KICAD
  70
0
  40
0
  41
1
  42
1
  50
0
  71
0
  3
isocp.shx
  0
STYLE
  2
KICADB
  70
0
  40
0
  41
1
  42
1
  50
0
  71
0
  3
isocp.shx
  0
STYLE
  2
KICADI
  70
0
  40
0
  41
1
  42
1
  50
15
  71
0
  3
isocp.shx
  0
STYLE
  2
KICADBI
  70
0
  40
0
  41
1
  42
1
  50
15
  71
0
  3
isocp.shx
  0
ENDTAB
  0
TABLE
  2
LAYER
  70
30
  0
LAYER
  2
BLACK
  70
0
  62
7
  6
CONTINUOUS
  0
LAYER
  2
GRAY1
  70
0
  62
251
  6
CONTINUOUS
  0
LAYER
  2
GRAY2
  70
0
  62
8
  6
CONTINUOUS
  0
LAYER
  2
GRAY3
  70
0
  62
9
  6
CONTINUOUS
  0
LAYER
  2
WHITE
  70
0
  62
7
  6
CONTINUOUS
  0
LAYER
  2
LYELLOW
  70
0
  62
51
  6
CONTINUOUS
  0
LAYER
  2
BLUE1
  70
0
  62
178
  6
CONTINUOUS
  0
LAYER
  2
GREEN1
  70
0
  62
98
  6
CONTINUOUS
  0
LAYER
  2
CYAN1
  70
0
  62
138
  6
CONTINUOUS
  0
LAYER
  2
RED1
  70
0
  62
18
  6
CONTINUOUS
  0
LAYER
  2
MAGENTA1
  70
0
  62
228
  6
CONTINUOUS
  0
LAYER
  2
BROWN1
  70
0
  62
58
  6
CONTINUOUS
  0
LAYER
  2
BLUE2
  70
0
  62
5
  6
CONTINUOUS
  0
LAYER
  2
GREEN2
  70
0
  62
3
  6
CONTINUOUS
  0
LAYER
  2
CYAN2
  70
0
  62
4
  6
CONTINUOUS
  0
LAYER
  2
RED2
  70
0
  62
1
  6
CONTINUOUS
  0
LAYER
  2
MAGENTA2
  70
0
  62
6
  6
CONTINUOUS
  0
LAYER
  2
BROWN2
  70
0
  62
54
  6
CONTINUOUS
  0
LAYER
  2
BLUE3
  70
0
  62
171
  6
CONTINUOUS
  0
LAYER
  2
GREEN3
  70
0
  62
91
  6
CONTINUOUS
  0
LAYER
  2
CYAN3
  70
0
  62
131
  6
CONTINUOUS
  0
LAYER
  2
RED3
  70
0
  62
11
  6
CONTINUOUS
  0
LAYER
  2
MAGENTA3
  70
0
  62
221
  6
CONTINUOUS
  0
LAYER
  2
YELLOW3
  70
0
  62
2
  6
CONTINUOUS
  0
LAYER
  2
BLUE4
  70
0
  62
5
  6
CONTINUOUS
  0
LAYER
  2
GREEN4
  70
0
  62
3
  6
CONTINUOUS
  0
LAYER
  2
CYAN4
  70
0
  62
4
  6
CONTINUOUS
  0
LAYER
  2
RED4
  70
0
  62
1
  6
CONTINUOUS
  0
LAYER
  2
MAGENTA4
  70
0
  62
6
  6
CONTINUOUS
  0
LAYER
  2
YELLOW4
  70
0
  62
2
  6
CONTINUOUS
  0
ENDTAB
  0
ENDSEC
  0
SECTION
  2
ENTITIES
0
LINE
8
Black
10
211.506
20
-91.4261
11
211.513
21
-91.4261
0
LINE
8
Black
10
211.513
20
-91.4261
11
211.519
21
-91.4284
0
LINE
8
Black
10
211.519
20
-91.4284
11
211.526
21
-91.4295
0
LINE
8
Black
10
211.526
20
-91.4295
11
211.531
21
-91.4328
0
LINE
8
Black
10
211.531
20
-91.4328
11
211.537
21
-91.435
0
LINE
8
Black
10
211.537
20
-91.435
11
211.543
21
-91.4393
0
LINE
8
Black
10
211.543
20
-91.4393
11
211.548
21
-91.4425
0
LINE
8
Black
10
211.548
20
-91.4425
11
211.552
21
-91.4476
0
LINE
8
Black
10
211.552
20
-91.4476
11
211.557
21
-91.4518
0
LINE
8
Black
10
211.557
20
-91.4518
11
211.561
21
-91.4575
0
LINE
8
Black
10
211.561
20
-91.4575
11
211.565
21
-91.4625
0
LINE
8
Black
10
211.565
20
-91.4625
11
211.567
21
-91.4687
0
LINE
8
Black
10
211.567
20
-91.4687
11
211.57
21
-91.4743
0
LINE
8
Black
10
211.57
20
-91.4743
11
211.572
21
-91.4808
0
LINE
8
Black
10
211.572
20
-91.4808
11
211.574
21
-91.487
0
LINE
8
Black
10
211.574
20
-91.487
11
211.574
21
-91.4935
0
LINE
8
Black
10
211.574
20
-91.4935
11
211.575
21
-91.5
0
LINE
8
Black
10
211.575
20
-91.5
11
211.575
21
-150.7
0
LINE
8
Black
10
211.575
20
-150.7
11
211.574
21
-150.706
0
LINE
8
Black
10
211.574
20
-150.706
11
211.574
21
-150.713
0
LINE
8
Black
10
211.574
20
-150.713
11
211.572
21
-150.719
0
LINE
8
Black
10
211.572
20
-150.719
11
211.57
21
-150.726
0
LINE
8
Black
10
211.57
20
-150.726
11
211.567
21
-150.731
0
LINE
8
Black
10
211.567
20
-150.731
11
211.565
21
-150.737
0
LINE
8
Black
10
211.565
20
-150.737
11
211.561
21
-150.743
0
LINE
8
Black
10
211.561
20
-150.743
11
211.557
21
-150.748
0
LINE
8
Black
10
211.557
20
-150.748
11
211.552
21
-150.752
0
LINE
8
Black
10
211.552
20
-150.752
11
211.548
21
-150.757
0
LINE
8
Black
10
211.548
20
-150.757
11
211.543
21
-150.761
0
LINE
8
Black
10
211.543
20
-150.761
11
211.537
21
-150.765
0
LINE
8
Black
10
211.537
20
-150.765
11
211.531
21
-150.767
0
LINE
8
Black
10
211.531
20
-150.767
11
211.526
21
-150.77
0
LINE
8
Black
10
211.526
20
-150.77
11
211.519
21
-150.772
0
LINE
8
Black
10
211.519
20
-150.772
11
211.513
21
-150.774
0
LINE
8
Black
10
211.513
20
-150.774
11
211.506
21
-150.774
0
LINE
8
Black
10
211.506
20
-150.774
11
211.5
21
-150.775
0
LINE
8
Black
10
211.5
20
-150.775
11
85.5
21
-150.775
0
LINE
8
Black
10
85.5
20
-150.775
11
85.4935
21
-150.774
0
LINE
8
Black
10
85.4935
20
-150.774
11
85.487
21
-150.774
0
LINE
8
Black
10
85.487
20
-150.774
11
85.4808
21
-150.772
0
LINE
8
Black
10
85.4808
20
-150.772
11
85.4743
21
-150.77
0
LINE
8
Black
10
85.4743
20
-150.77
11
85.4687
21
-150.767
0
LINE
8
Black
10
85.4687
20
-150.767
11
85.4625
21
-150.765
0
LINE
8
Black
10
85.4625
20
-150.765
11
85.4575
21
-150.761
0
LINE
8
Black
10
85.4575
20
-150.761
11
85.4518
21
-150.757
0
LINE
8
Black
10
85.4518
20
-150.757
11
85.4476
21
-150.752
0
LINE
8
Black
10
85.4476
20
-150.752
11
85.4425
21
-150.748
0
LINE
8
Black
10
85.4425
20
-150.748
11
85.4393
21
-150.743
0
LINE
8
Black
10
85.4393
20
-150.743
11
85.435
21
-150.737
0
LINE
8
Black
10
85.435
20
-150.737
11
85.4328
21
-150.731
0
LINE
8
Black
10
85.4328
20
-150.731
11
85.4295
21
-150.726
0
LINE
8
Black
10
85.4295
20
-150.726
11
85.4284
21
-150.719
0
LINE
8
Black
10
85.4284
20
-150.719
11
85.4261
21
-150.713
0
LINE
8
Black
10
85.4261
20
-150.713
11
85.4261
21
-150.706
0
LINE
8
Black
10
85.4261
20
-150.706
11
85.425
21
-150.7
0
LINE
8
Black
10
85.425
20
-150.7
11
85.425
21
-91.5
0
LINE
8
Black
10
85.425
20
-91.5
11
85.4261
21
-91.4935
0
LINE
8
Black
10
85.4261
20
-91.4935
11
85.4261
21
-91.487
0
LINE
8
Black
10
85.4261
20
-91.487
11
85.4284
21
-91.4808
0
LINE
8
Black
10
85.4284
20
-91.4808
11
85.4295
21
-91.4743
0
LINE
8
Black
10
85.4295
20
-91.4743
11
85.4328
21
-91.4687
0
LINE
8
Black
10
85.4328
20
-91.4687
11
85.435
21
-91.4625
0
LINE
8
Black
10
85.435
20
-91.4625
11
85.4393
21
-91.4575
0
LINE
8
Black
10
85.4393
20
-91.4575
11
85.4425
21
-91.4518
0
LINE
8
Black
10
85.4425
20
-91.4518
11
85.4476
21
-91.4476
0
LINE
8
Black
10
85.4476
20
-91.4476
11
85.4518
21
-91.4425
0
LINE
8
Black
10
85.4518
20
-91.4425
11
85.4575
21
-91.4393
0
LINE
8
Black
10
85.4575
20
-91.4393
11
85.4625
21
-91.435
0
LINE
8
Black
10
85.4625
20
-91.435
11
85.4687
21
-91.4328
0
LINE
8
Black
10
85.4687
20
-91.4328
11
85.4743
21
-91.4295
0
LINE
8
Black
10
85.4743
20
-91.4295
11
85.4808
21
-91.4284
0
LINE
8
Black
10
85.4808
20
-91.4284
11
85.487
21
-91.4261
0
LINE
8
Black
10
85.487
20
-91.4261
11
85.4935
21
-91.4261
0
LINE
8
Black
10
85.4935
20
-91.4261
11
85.5
21
-91.425
0
LINE
8
Black
10
85.5
20
-91.425
11
211.5
21
-91.425
0
LINE
8
Black
10
211.5
20
-91.425
11
211.506
21
-91.4261
0
LINE
8
Black
10
85.575
20
-91.575
11
85.575
21
-150.625
0
LINE
8
Black
10
85.575
20
-150.625
11
211.425
21
-150.625
0
LINE
8
Black
10
211.425
20
-150.625
11
211.425
21
-91.575
0
LINE
8
Black
10
211.425
20
-91.575
11
85.575
21
-91.575
  0
ENDSEC
  0
EOF
