%FSLAX45Y45*%
G04 Gerber Fmt 4.5, Leading zero omitted, Abs format (unit mm)*
G04 Created by KiCad (PCBNEW 4.0.4-stable) date 12/28/18 13:00:24*
%MOMM*%
%LPD*%
G01*
G04 APERTURE LIST*
%ADD10C,0.127000*%
%ADD11C,0.150000*%
%ADD12C,0.200000*%
%ADD13C,0.300000*%
G04 APERTURE END LIST*
D10*
D11*
X21150000Y-15070000D02*
X21150000Y-9150000D01*
X8550000Y-15070000D02*
X8550000Y-9150000D01*
X8550000Y-9150000D02*
X21150000Y-9150000D01*
X8550000Y-15070000D02*
X21150000Y-15070000D01*
D12*
X9065000Y-13042500D02*
X9105000Y-13082500D01*
X9105000Y-13042500D02*
X9065000Y-13082500D01*
X11400000Y-10390000D02*
X11440000Y-10430000D01*
X11440000Y-10390000D02*
X11400000Y-10430000D01*
X11573159Y-10450701D02*
X11613159Y-10490701D01*
X11613159Y-10450701D02*
X11573159Y-10490701D01*
X12094195Y-11285805D02*
X12134195Y-11325805D01*
X12134195Y-11285805D02*
X12094195Y-11325805D01*
X12330000Y-10060000D02*
X12370000Y-10100000D01*
X12370000Y-10060000D02*
X12330000Y-10100000D01*
X12331694Y-11395002D02*
X12371694Y-11435002D01*
X12371694Y-11395002D02*
X12331694Y-11435002D01*
X12450000Y-10447497D02*
X12490000Y-10487497D01*
X12490000Y-10447497D02*
X12450000Y-10487497D01*
X12575805Y-11655805D02*
X12615805Y-11695805D01*
X12615805Y-11655805D02*
X12575805Y-11695805D01*
X12830000Y-9840770D02*
X12870000Y-9880770D01*
X12870000Y-9840770D02*
X12830000Y-9880770D01*
X12830213Y-11527499D02*
X12870213Y-11567499D01*
X12870213Y-11527499D02*
X12830213Y-11567499D01*
X12910000Y-11852501D02*
X12950000Y-11892501D01*
X12950000Y-11852501D02*
X12910000Y-11892501D01*
X12950000Y-11332501D02*
X12990000Y-11372501D01*
X12990000Y-11332501D02*
X12950000Y-11372501D01*
X13080000Y-11780000D02*
X13120000Y-11820000D01*
X13120000Y-11780000D02*
X13080000Y-11820000D01*
X13200000Y-11460000D02*
X13240000Y-11500000D01*
X13240000Y-11460000D02*
X13200000Y-11500000D01*
X13580000Y-11810000D02*
X13620000Y-11850000D01*
X13620000Y-11810000D02*
X13580000Y-11850000D01*
X13700000Y-11592496D02*
X13740000Y-11632496D01*
X13740000Y-11592496D02*
X13700000Y-11632496D01*
X13830000Y-11717498D02*
X13870000Y-11757498D01*
X13870000Y-11717498D02*
X13830000Y-11757498D01*
X14630000Y-12025001D02*
X14670000Y-12065001D01*
X14670000Y-12025001D02*
X14630000Y-12065001D01*
X14852501Y-13170000D02*
X14892501Y-13210000D01*
X14892501Y-13170000D02*
X14852501Y-13210000D01*
X14920000Y-12910000D02*
X14960000Y-12950000D01*
X14960000Y-12910000D02*
X14920000Y-12950000D01*
X16130000Y-9970000D02*
X16170000Y-10010000D01*
X16170000Y-9970000D02*
X16130000Y-10010000D01*
X16130000Y-10110000D02*
X16170000Y-10150000D01*
X16170000Y-10110000D02*
X16130000Y-10150000D01*
X16380000Y-9969999D02*
X16420000Y-10009999D01*
X16420000Y-9969999D02*
X16380000Y-10009999D01*
X16570000Y-9970000D02*
X16610000Y-10010000D01*
X16610000Y-9970000D02*
X16570000Y-10010000D01*
X16700000Y-9970000D02*
X16740000Y-10010000D01*
X16740000Y-9970000D02*
X16700000Y-10010000D01*
X16950000Y-9970000D02*
X16990000Y-10010000D01*
X16990000Y-9970000D02*
X16950000Y-10010000D01*
X18830000Y-10510000D02*
X18870000Y-10550000D01*
X18870000Y-10510000D02*
X18830000Y-10550000D01*
X18830000Y-10860000D02*
X18870000Y-10900000D01*
X18870000Y-10860000D02*
X18830000Y-10900000D01*
X19080000Y-10357500D02*
X19120000Y-10397500D01*
X19120000Y-10357500D02*
X19080000Y-10397500D01*
X19080000Y-10890000D02*
X19120000Y-10930000D01*
X19120000Y-10890000D02*
X19080000Y-10930000D01*
X19830000Y-10090000D02*
X19870000Y-10130000D01*
X19870000Y-10090000D02*
X19830000Y-10130000D01*
X9708100Y-12710000D02*
G75*
G03X9708100Y-12710000I-38100J0D01*
G01*
X9708100Y-12960000D02*
G75*
G03X9708100Y-12960000I-38100J0D01*
G01*
X9958100Y-12710000D02*
G75*
G03X9958100Y-12710000I-38100J0D01*
G01*
X9958100Y-12960000D02*
G75*
G03X9958100Y-12960000I-38100J0D01*
G01*
X10208100Y-12710000D02*
G75*
G03X10208100Y-12710000I-38100J0D01*
G01*
X10208100Y-12960000D02*
G75*
G03X10208100Y-12960000I-38100J0D01*
G01*
X10513210Y-10250360D02*
G75*
G03X10513210Y-10250360I-38100J0D01*
G01*
X10513210Y-10750360D02*
G75*
G03X10513210Y-10750360I-38100J0D01*
G01*
X10763210Y-10250360D02*
G75*
G03X10763210Y-10250360I-38100J0D01*
G01*
X10763210Y-10750360D02*
G75*
G03X10763210Y-10750360I-38100J0D01*
G01*
X11013210Y-10250360D02*
G75*
G03X11013210Y-10250360I-38100J0D01*
G01*
X11013210Y-10750360D02*
G75*
G03X11013210Y-10750360I-38100J0D01*
G01*
X11263210Y-10250360D02*
G75*
G03X11263210Y-10250360I-38100J0D01*
G01*
X11263210Y-10750360D02*
G75*
G03X11263210Y-10750360I-38100J0D01*
G01*
X11513210Y-10250360D02*
G75*
G03X11513210Y-10250360I-38100J0D01*
G01*
X11513210Y-10750360D02*
G75*
G03X11513210Y-10750360I-38100J0D01*
G01*
X11763210Y-10250360D02*
G75*
G03X11763210Y-10250360I-38100J0D01*
G01*
X11763210Y-10750360D02*
G75*
G03X11763210Y-10750360I-38100J0D01*
G01*
X12013210Y-10250360D02*
G75*
G03X12013210Y-10250360I-38100J0D01*
G01*
X12013210Y-10750360D02*
G75*
G03X12013210Y-10750360I-38100J0D01*
G01*
X12263210Y-10250360D02*
G75*
G03X12263210Y-10250360I-38100J0D01*
G01*
X12263210Y-10750360D02*
G75*
G03X12263210Y-10750360I-38100J0D01*
G01*
X12513210Y-10250360D02*
G75*
G03X12513210Y-10250360I-38100J0D01*
G01*
X12513210Y-10750360D02*
G75*
G03X12513210Y-10750360I-38100J0D01*
G01*
X12763210Y-10250360D02*
G75*
G03X12763210Y-10250360I-38100J0D01*
G01*
X12763210Y-10750360D02*
G75*
G03X12763210Y-10750360I-38100J0D01*
G01*
X13013210Y-10250360D02*
G75*
G03X13013210Y-10250360I-38100J0D01*
G01*
X13013210Y-10750360D02*
G75*
G03X13013210Y-10750360I-38100J0D01*
G01*
X13187100Y-12681000D02*
G75*
G03X13187100Y-12681000I-38100J0D01*
G01*
X13187100Y-12935000D02*
G75*
G03X13187100Y-12935000I-38100J0D01*
G01*
X13187100Y-13189000D02*
G75*
G03X13187100Y-13189000I-38100J0D01*
G01*
X13187100Y-13443000D02*
G75*
G03X13187100Y-13443000I-38100J0D01*
G01*
X13263210Y-10250360D02*
G75*
G03X13263210Y-10250360I-38100J0D01*
G01*
X13263210Y-10750360D02*
G75*
G03X13263210Y-10750360I-38100J0D01*
G01*
X13513210Y-10250360D02*
G75*
G03X13513210Y-10250360I-38100J0D01*
G01*
X13513210Y-10750360D02*
G75*
G03X13513210Y-10750360I-38100J0D01*
G01*
X13763210Y-10250360D02*
G75*
G03X13763210Y-10250360I-38100J0D01*
G01*
X13763210Y-10750360D02*
G75*
G03X13763210Y-10750360I-38100J0D01*
G01*
X14013210Y-10250360D02*
G75*
G03X14013210Y-10250360I-38100J0D01*
G01*
X14013210Y-10750360D02*
G75*
G03X14013210Y-10750360I-38100J0D01*
G01*
X14263210Y-10250360D02*
G75*
G03X14263210Y-10250360I-38100J0D01*
G01*
X14263210Y-10750360D02*
G75*
G03X14263210Y-10750360I-38100J0D01*
G01*
X14513210Y-10250360D02*
G75*
G03X14513210Y-10250360I-38100J0D01*
G01*
X14513210Y-10750360D02*
G75*
G03X14513210Y-10750360I-38100J0D01*
G01*
X14763210Y-10250360D02*
G75*
G03X14763210Y-10250360I-38100J0D01*
G01*
X14763210Y-10750360D02*
G75*
G03X14763210Y-10750360I-38100J0D01*
G01*
X15013210Y-10250360D02*
G75*
G03X15013210Y-10250360I-38100J0D01*
G01*
X15013210Y-10750360D02*
G75*
G03X15013210Y-10750360I-38100J0D01*
G01*
X15263210Y-10250360D02*
G75*
G03X15263210Y-10250360I-38100J0D01*
G01*
X15263210Y-10750360D02*
G75*
G03X15263210Y-10750360I-38100J0D01*
G01*
X15513210Y-10250360D02*
G75*
G03X15513210Y-10250360I-38100J0D01*
G01*
X15513210Y-10750360D02*
G75*
G03X15513210Y-10750360I-38100J0D01*
G01*
X15763210Y-10250360D02*
G75*
G03X15763210Y-10250360I-38100J0D01*
G01*
X15763210Y-10750360D02*
G75*
G03X15763210Y-10750360I-38100J0D01*
G01*
X16013210Y-10250360D02*
G75*
G03X16013210Y-10250360I-38100J0D01*
G01*
X16013210Y-10750360D02*
G75*
G03X16013210Y-10750360I-38100J0D01*
G01*
X16263210Y-10250360D02*
G75*
G03X16263210Y-10250360I-38100J0D01*
G01*
X16263210Y-10750360D02*
G75*
G03X16263210Y-10750360I-38100J0D01*
G01*
X16513210Y-10250360D02*
G75*
G03X16513210Y-10250360I-38100J0D01*
G01*
X16513210Y-10750360D02*
G75*
G03X16513210Y-10750360I-38100J0D01*
G01*
X16763210Y-10250360D02*
G75*
G03X16763210Y-10250360I-38100J0D01*
G01*
X16763210Y-10750360D02*
G75*
G03X16763210Y-10750360I-38100J0D01*
G01*
X17013210Y-10250360D02*
G75*
G03X17013210Y-10250360I-38100J0D01*
G01*
X17013210Y-10750360D02*
G75*
G03X17013210Y-10750360I-38100J0D01*
G01*
X17263210Y-10250360D02*
G75*
G03X17263210Y-10250360I-38100J0D01*
G01*
X17263210Y-10750360D02*
G75*
G03X17263210Y-10750360I-38100J0D01*
G01*
X17513210Y-10250360D02*
G75*
G03X17513210Y-10250360I-38100J0D01*
G01*
X17513210Y-10750360D02*
G75*
G03X17513210Y-10750360I-38100J0D01*
G01*
X17763210Y-10250360D02*
G75*
G03X17763210Y-10250360I-38100J0D01*
G01*
X17763210Y-10750360D02*
G75*
G03X17763210Y-10750360I-38100J0D01*
G01*
X18013210Y-10250360D02*
G75*
G03X18013210Y-10250360I-38100J0D01*
G01*
X18013210Y-10750360D02*
G75*
G03X18013210Y-10750360I-38100J0D01*
G01*
X18263210Y-10250360D02*
G75*
G03X18263210Y-10250360I-38100J0D01*
G01*
X18263210Y-10750360D02*
G75*
G03X18263210Y-10750360I-38100J0D01*
G01*
X18513210Y-10250360D02*
G75*
G03X18513210Y-10250360I-38100J0D01*
G01*
X18513210Y-10750360D02*
G75*
G03X18513210Y-10750360I-38100J0D01*
G01*
X18763210Y-10250360D02*
G75*
G03X18763210Y-10250360I-38100J0D01*
G01*
X18763210Y-10750360D02*
G75*
G03X18763210Y-10750360I-38100J0D01*
G01*
X19013210Y-10250360D02*
G75*
G03X19013210Y-10250360I-38100J0D01*
G01*
X19013210Y-10750360D02*
G75*
G03X19013210Y-10750360I-38100J0D01*
G01*
X19263210Y-10250360D02*
G75*
G03X19263210Y-10250360I-38100J0D01*
G01*
X19263210Y-10750360D02*
G75*
G03X19263210Y-10750360I-38100J0D01*
G01*
X8704000Y-12260000D02*
X8704000Y-12340000D01*
X8664000Y-12300000D02*
X8744000Y-12300000D01*
X8704000Y-13784000D02*
X8704000Y-13864000D01*
X8664000Y-13824000D02*
X8744000Y-13824000D01*
X8958000Y-12260000D02*
X8958000Y-12340000D01*
X8918000Y-12300000D02*
X8998000Y-12300000D01*
X8958000Y-13784000D02*
X8958000Y-13864000D01*
X8918000Y-13824000D02*
X8998000Y-13824000D01*
X9212000Y-12260000D02*
X9212000Y-12340000D01*
X9172000Y-12300000D02*
X9252000Y-12300000D01*
X9212000Y-13784000D02*
X9212000Y-13864000D01*
X9172000Y-13824000D02*
X9252000Y-13824000D01*
X9466000Y-12260000D02*
X9466000Y-12340000D01*
X9426000Y-12300000D02*
X9506000Y-12300000D01*
X9466000Y-13784000D02*
X9466000Y-13864000D01*
X9426000Y-13824000D02*
X9506000Y-13824000D01*
X9720000Y-12260000D02*
X9720000Y-12340000D01*
X9680000Y-12300000D02*
X9760000Y-12300000D01*
X9720000Y-13784000D02*
X9720000Y-13864000D01*
X9680000Y-13824000D02*
X9760000Y-13824000D01*
X9974000Y-12260000D02*
X9974000Y-12340000D01*
X9934000Y-12300000D02*
X10014000Y-12300000D01*
X9974000Y-13784000D02*
X9974000Y-13864000D01*
X9934000Y-13824000D02*
X10014000Y-13824000D01*
X10228000Y-12260000D02*
X10228000Y-12340000D01*
X10188000Y-12300000D02*
X10268000Y-12300000D01*
X10228000Y-13784000D02*
X10228000Y-13864000D01*
X10188000Y-13824000D02*
X10268000Y-13824000D01*
X10482000Y-12260000D02*
X10482000Y-12340000D01*
X10442000Y-12300000D02*
X10522000Y-12300000D01*
X10482000Y-13784000D02*
X10482000Y-13864000D01*
X10442000Y-13824000D02*
X10522000Y-13824000D01*
X10736000Y-12260000D02*
X10736000Y-12340000D01*
X10696000Y-12300000D02*
X10776000Y-12300000D01*
X10736000Y-13784000D02*
X10736000Y-13864000D01*
X10696000Y-13824000D02*
X10776000Y-13824000D01*
X10990000Y-12260000D02*
X10990000Y-12340000D01*
X10950000Y-12300000D02*
X11030000Y-12300000D01*
X10990000Y-13784000D02*
X10990000Y-13864000D01*
X10950000Y-13824000D02*
X11030000Y-13824000D01*
X11244000Y-12260000D02*
X11244000Y-12340000D01*
X11204000Y-12300000D02*
X11284000Y-12300000D01*
X11244000Y-13784000D02*
X11244000Y-13864000D01*
X11204000Y-13824000D02*
X11284000Y-13824000D01*
X11498000Y-12260000D02*
X11498000Y-12340000D01*
X11458000Y-12300000D02*
X11538000Y-12300000D01*
X11498000Y-13784000D02*
X11498000Y-13864000D01*
X11458000Y-13824000D02*
X11538000Y-13824000D01*
X11752000Y-12260000D02*
X11752000Y-12340000D01*
X11712000Y-12300000D02*
X11792000Y-12300000D01*
X11752000Y-13784000D02*
X11752000Y-13864000D01*
X11712000Y-13824000D02*
X11792000Y-13824000D01*
X12006000Y-12260000D02*
X12006000Y-12340000D01*
X11966000Y-12300000D02*
X12046000Y-12300000D01*
X12006000Y-13784000D02*
X12006000Y-13864000D01*
X11966000Y-13824000D02*
X12046000Y-13824000D01*
X12260000Y-12260000D02*
X12260000Y-12340000D01*
X12220000Y-12300000D02*
X12300000Y-12300000D01*
X12260000Y-13784000D02*
X12260000Y-13864000D01*
X12220000Y-13824000D02*
X12300000Y-13824000D01*
X12514000Y-12260000D02*
X12514000Y-12340000D01*
X12474000Y-12300000D02*
X12554000Y-12300000D01*
X12514000Y-13784000D02*
X12514000Y-13864000D01*
X12474000Y-13824000D02*
X12554000Y-13824000D01*
X12768000Y-12260000D02*
X12768000Y-12340000D01*
X12728000Y-12300000D02*
X12808000Y-12300000D01*
X12768000Y-13784000D02*
X12768000Y-13864000D01*
X12728000Y-13824000D02*
X12808000Y-13824000D01*
X13022000Y-12260000D02*
X13022000Y-12340000D01*
X12982000Y-12300000D02*
X13062000Y-12300000D01*
X13022000Y-13784000D02*
X13022000Y-13864000D01*
X12982000Y-13824000D02*
X13062000Y-13824000D01*
X13276000Y-12260000D02*
X13276000Y-12340000D01*
X13236000Y-12300000D02*
X13316000Y-12300000D01*
X13276000Y-13784000D02*
X13276000Y-13864000D01*
X13236000Y-13824000D02*
X13316000Y-13824000D01*
X13530000Y-12260000D02*
X13530000Y-12340000D01*
X13490000Y-12300000D02*
X13570000Y-12300000D01*
X13530000Y-13784000D02*
X13530000Y-13864000D01*
X13490000Y-13824000D02*
X13570000Y-13824000D01*
X20280000Y-12060000D02*
X20280000Y-12140000D01*
X20240000Y-12100000D02*
X20320000Y-12100000D01*
X20315000Y-12070000D02*
X20245000Y-12070000D01*
X20315000Y-12130000D02*
X20245000Y-12130000D01*
X20245000Y-12070000D02*
G75*
G03X20245000Y-12130000I0J-30000D01*
G01*
X20315000Y-12130000D02*
G75*
G03X20315000Y-12070000I0J30000D01*
G01*
X20280000Y-12310000D02*
X20280000Y-12390000D01*
X20240000Y-12350000D02*
X20320000Y-12350000D01*
X20315000Y-12320000D02*
X20245000Y-12320000D01*
X20315000Y-12380000D02*
X20245000Y-12380000D01*
X20245000Y-12320000D02*
G75*
G03X20245000Y-12380000I0J-30000D01*
G01*
X20315000Y-12380000D02*
G75*
G03X20315000Y-12320000I0J30000D01*
G01*
X20280000Y-12810000D02*
X20280000Y-12890000D01*
X20240000Y-12850000D02*
X20320000Y-12850000D01*
X20315000Y-12820000D02*
X20245000Y-12820000D01*
X20315000Y-12880000D02*
X20245000Y-12880000D01*
X20245000Y-12820000D02*
G75*
G03X20245000Y-12880000I0J-30000D01*
G01*
X20315000Y-12880000D02*
G75*
G03X20315000Y-12820000I0J30000D01*
G01*
X20280000Y-13060000D02*
X20280000Y-13140000D01*
X20240000Y-13100000D02*
X20320000Y-13100000D01*
X20315000Y-13070000D02*
X20245000Y-13070000D01*
X20315000Y-13130000D02*
X20245000Y-13130000D01*
X20245000Y-13070000D02*
G75*
G03X20245000Y-13130000I0J-30000D01*
G01*
X20315000Y-13130000D02*
G75*
G03X20315000Y-13070000I0J30000D01*
G01*
X20780000Y-12560000D02*
X20780000Y-12640000D01*
X20740000Y-12600000D02*
X20820000Y-12600000D01*
X20810000Y-12635000D02*
X20810000Y-12565000D01*
X20750000Y-12635000D02*
X20750000Y-12565000D01*
X20810000Y-12565000D02*
G75*
G03X20750000Y-12565000I-30000J0D01*
G01*
X20750000Y-12635000D02*
G75*
G03X20810000Y-12635000I30000J0D01*
G01*
X20322427Y-12642427D02*
X20322427Y-12557573D01*
X20237573Y-12557573D01*
X20237573Y-12642427D01*
X20322427Y-12642427D01*
X20822427Y-12142427D02*
X20822427Y-12057573D01*
X20737573Y-12057573D01*
X20737573Y-12142427D01*
X20822427Y-12142427D01*
X20822427Y-13142427D02*
X20822427Y-13057573D01*
X20737573Y-13057573D01*
X20737573Y-13142427D01*
X20822427Y-13142427D01*
X21072427Y-12142427D02*
X21072427Y-12057573D01*
X20987573Y-12057573D01*
X20987573Y-12142427D01*
X21072427Y-12142427D01*
X21072427Y-13142427D02*
X21072427Y-13057573D01*
X20987573Y-13057573D01*
X20987573Y-13142427D01*
X21072427Y-13142427D01*
X9150000Y-9760000D02*
X9310000Y-9600000D01*
X9150000Y-9440000D01*
X8990000Y-9600000D01*
X9150000Y-9760000D01*
X9150000Y-14780000D02*
X9310000Y-14620000D01*
X9150000Y-14460000D01*
X8990000Y-14620000D01*
X9150000Y-14780000D01*
X9150110Y-10660360D02*
X9310110Y-10500360D01*
X9150110Y-10340360D01*
X8990110Y-10500360D01*
X9150110Y-10660360D01*
X20550000Y-9760000D02*
X20710000Y-9600000D01*
X20550000Y-9440000D01*
X20390000Y-9600000D01*
X20550000Y-9760000D01*
X20550000Y-14780000D02*
X20710000Y-14620000D01*
X20550000Y-14460000D01*
X20390000Y-14620000D01*
X20550000Y-14780000D01*
X20550110Y-10660360D02*
X20710110Y-10500360D01*
X20550110Y-10340360D01*
X20390110Y-10500360D01*
X20550110Y-10660360D01*
D13*
X8813929Y-15543214D02*
X8813929Y-15243214D01*
X8885357Y-15243214D01*
X8928214Y-15257500D01*
X8956786Y-15286071D01*
X8971071Y-15314643D01*
X8985357Y-15371786D01*
X8985357Y-15414643D01*
X8971071Y-15471786D01*
X8956786Y-15500357D01*
X8928214Y-15528929D01*
X8885357Y-15543214D01*
X8813929Y-15543214D01*
X9113929Y-15543214D02*
X9113929Y-15343214D01*
X9113929Y-15400357D02*
X9128214Y-15371786D01*
X9142500Y-15357500D01*
X9171071Y-15343214D01*
X9199643Y-15343214D01*
X9299643Y-15543214D02*
X9299643Y-15343214D01*
X9299643Y-15243214D02*
X9285357Y-15257500D01*
X9299643Y-15271786D01*
X9313929Y-15257500D01*
X9299643Y-15243214D01*
X9299643Y-15271786D01*
X9485357Y-15543214D02*
X9456786Y-15528929D01*
X9442500Y-15500357D01*
X9442500Y-15243214D01*
X9642500Y-15543214D02*
X9613929Y-15528929D01*
X9599643Y-15500357D01*
X9599643Y-15243214D01*
X9985357Y-15543214D02*
X9985357Y-15243214D01*
X10085357Y-15457500D01*
X10185357Y-15243214D01*
X10185357Y-15543214D01*
X10456786Y-15543214D02*
X10456786Y-15386071D01*
X10442500Y-15357500D01*
X10413929Y-15343214D01*
X10356786Y-15343214D01*
X10328214Y-15357500D01*
X10456786Y-15528929D02*
X10428214Y-15543214D01*
X10356786Y-15543214D01*
X10328214Y-15528929D01*
X10313929Y-15500357D01*
X10313929Y-15471786D01*
X10328214Y-15443214D01*
X10356786Y-15428929D01*
X10428214Y-15428929D01*
X10456786Y-15414643D01*
X10599643Y-15343214D02*
X10599643Y-15643214D01*
X10599643Y-15357500D02*
X10628214Y-15343214D01*
X10685357Y-15343214D01*
X10713929Y-15357500D01*
X10728214Y-15371786D01*
X10742500Y-15400357D01*
X10742500Y-15486071D01*
X10728214Y-15514643D01*
X10713929Y-15528929D01*
X10685357Y-15543214D01*
X10628214Y-15543214D01*
X10599643Y-15528929D01*
X10871071Y-15514643D02*
X10885357Y-15528929D01*
X10871071Y-15543214D01*
X10856786Y-15528929D01*
X10871071Y-15514643D01*
X10871071Y-15543214D01*
X10871071Y-15357500D02*
X10885357Y-15371786D01*
X10871071Y-15386071D01*
X10856786Y-15371786D01*
X10871071Y-15357500D01*
X10871071Y-15386071D01*
X8502500Y-16017500D02*
X8542500Y-16057500D01*
X8542500Y-16017500D02*
X8502500Y-16057500D01*
X8871071Y-15873214D02*
X8899643Y-15873214D01*
X8928214Y-15887500D01*
X8942500Y-15901786D01*
X8956786Y-15930357D01*
X8971071Y-15987500D01*
X8971071Y-16058929D01*
X8956786Y-16116071D01*
X8942500Y-16144643D01*
X8928214Y-16158929D01*
X8899643Y-16173214D01*
X8871071Y-16173214D01*
X8842500Y-16158929D01*
X8828214Y-16144643D01*
X8813929Y-16116071D01*
X8799643Y-16058929D01*
X8799643Y-15987500D01*
X8813929Y-15930357D01*
X8828214Y-15901786D01*
X8842500Y-15887500D01*
X8871071Y-15873214D01*
X9099643Y-16144643D02*
X9113929Y-16158929D01*
X9099643Y-16173214D01*
X9085357Y-16158929D01*
X9099643Y-16144643D01*
X9099643Y-16173214D01*
X9371071Y-15973214D02*
X9371071Y-16173214D01*
X9299643Y-15858929D02*
X9228214Y-16073214D01*
X9413928Y-16073214D01*
X9585357Y-15873214D02*
X9613929Y-15873214D01*
X9642500Y-15887500D01*
X9656786Y-15901786D01*
X9671071Y-15930357D01*
X9685357Y-15987500D01*
X9685357Y-16058929D01*
X9671071Y-16116071D01*
X9656786Y-16144643D01*
X9642500Y-16158929D01*
X9613929Y-16173214D01*
X9585357Y-16173214D01*
X9556786Y-16158929D01*
X9542500Y-16144643D01*
X9528214Y-16116071D01*
X9513929Y-16058929D01*
X9513929Y-15987500D01*
X9528214Y-15930357D01*
X9542500Y-15901786D01*
X9556786Y-15887500D01*
X9585357Y-15873214D01*
X9813929Y-16173214D02*
X9813929Y-15973214D01*
X9813929Y-16001786D02*
X9828214Y-15987500D01*
X9856786Y-15973214D01*
X9899643Y-15973214D01*
X9928214Y-15987500D01*
X9942500Y-16016071D01*
X9942500Y-16173214D01*
X9942500Y-16016071D02*
X9956786Y-15987500D01*
X9985357Y-15973214D01*
X10028214Y-15973214D01*
X10056786Y-15987500D01*
X10071071Y-16016071D01*
X10071071Y-16173214D01*
X10213929Y-16173214D02*
X10213929Y-15973214D01*
X10213929Y-16001786D02*
X10228214Y-15987500D01*
X10256786Y-15973214D01*
X10299643Y-15973214D01*
X10328214Y-15987500D01*
X10342500Y-16016071D01*
X10342500Y-16173214D01*
X10342500Y-16016071D02*
X10356786Y-15987500D01*
X10385357Y-15973214D01*
X10428214Y-15973214D01*
X10456786Y-15987500D01*
X10471071Y-16016071D01*
X10471071Y-16173214D01*
X11056786Y-15858929D02*
X10799643Y-16244643D01*
X11442500Y-15873214D02*
X11471071Y-15873214D01*
X11499643Y-15887500D01*
X11513928Y-15901786D01*
X11528214Y-15930357D01*
X11542500Y-15987500D01*
X11542500Y-16058929D01*
X11528214Y-16116071D01*
X11513928Y-16144643D01*
X11499643Y-16158929D01*
X11471071Y-16173214D01*
X11442500Y-16173214D01*
X11413928Y-16158929D01*
X11399643Y-16144643D01*
X11385357Y-16116071D01*
X11371071Y-16058929D01*
X11371071Y-15987500D01*
X11385357Y-15930357D01*
X11399643Y-15901786D01*
X11413928Y-15887500D01*
X11442500Y-15873214D01*
X11671071Y-16144643D02*
X11685357Y-16158929D01*
X11671071Y-16173214D01*
X11656786Y-16158929D01*
X11671071Y-16144643D01*
X11671071Y-16173214D01*
X11871071Y-15873214D02*
X11899643Y-15873214D01*
X11928214Y-15887500D01*
X11942500Y-15901786D01*
X11956785Y-15930357D01*
X11971071Y-15987500D01*
X11971071Y-16058929D01*
X11956785Y-16116071D01*
X11942500Y-16144643D01*
X11928214Y-16158929D01*
X11899643Y-16173214D01*
X11871071Y-16173214D01*
X11842500Y-16158929D01*
X11828214Y-16144643D01*
X11813928Y-16116071D01*
X11799643Y-16058929D01*
X11799643Y-15987500D01*
X11813928Y-15930357D01*
X11828214Y-15901786D01*
X11842500Y-15887500D01*
X11871071Y-15873214D01*
X12256785Y-16173214D02*
X12085357Y-16173214D01*
X12171071Y-16173214D02*
X12171071Y-15873214D01*
X12142500Y-15916071D01*
X12113928Y-15944643D01*
X12085357Y-15958929D01*
X12513928Y-15873214D02*
X12456785Y-15873214D01*
X12428214Y-15887500D01*
X12413928Y-15901786D01*
X12385357Y-15944643D01*
X12371071Y-16001786D01*
X12371071Y-16116071D01*
X12385357Y-16144643D01*
X12399643Y-16158929D01*
X12428214Y-16173214D01*
X12485357Y-16173214D01*
X12513928Y-16158929D01*
X12528214Y-16144643D01*
X12542500Y-16116071D01*
X12542500Y-16044643D01*
X12528214Y-16016071D01*
X12513928Y-16001786D01*
X12485357Y-15987500D01*
X12428214Y-15987500D01*
X12399643Y-16001786D01*
X12385357Y-16016071D01*
X12371071Y-16044643D01*
X12656786Y-15873214D02*
X12656786Y-15930357D01*
X12771071Y-15873214D02*
X12771071Y-15930357D01*
X13213928Y-16287500D02*
X13199643Y-16273214D01*
X13171071Y-16230357D01*
X13156785Y-16201786D01*
X13142500Y-16158929D01*
X13128214Y-16087500D01*
X13128214Y-16030357D01*
X13142500Y-15958929D01*
X13156785Y-15916071D01*
X13171071Y-15887500D01*
X13199643Y-15844643D01*
X13213928Y-15830357D01*
X13299643Y-15873214D02*
X13485357Y-15873214D01*
X13385357Y-15987500D01*
X13428214Y-15987500D01*
X13456785Y-16001786D01*
X13471071Y-16016071D01*
X13485357Y-16044643D01*
X13485357Y-16116071D01*
X13471071Y-16144643D01*
X13456785Y-16158929D01*
X13428214Y-16173214D01*
X13342500Y-16173214D01*
X13313928Y-16158929D01*
X13299643Y-16144643D01*
X13771071Y-16173214D02*
X13599643Y-16173214D01*
X13685357Y-16173214D02*
X13685357Y-15873214D01*
X13656785Y-15916071D01*
X13628214Y-15944643D01*
X13599643Y-15958929D01*
X14128214Y-16173214D02*
X14128214Y-15873214D01*
X14256785Y-16173214D02*
X14256785Y-16016071D01*
X14242500Y-15987500D01*
X14213928Y-15973214D01*
X14171071Y-15973214D01*
X14142500Y-15987500D01*
X14128214Y-16001786D01*
X14442500Y-16173214D02*
X14413928Y-16158929D01*
X14399643Y-16144643D01*
X14385357Y-16116071D01*
X14385357Y-16030357D01*
X14399643Y-16001786D01*
X14413928Y-15987500D01*
X14442500Y-15973214D01*
X14485357Y-15973214D01*
X14513928Y-15987500D01*
X14528214Y-16001786D01*
X14542500Y-16030357D01*
X14542500Y-16116071D01*
X14528214Y-16144643D01*
X14513928Y-16158929D01*
X14485357Y-16173214D01*
X14442500Y-16173214D01*
X14713928Y-16173214D02*
X14685357Y-16158929D01*
X14671071Y-16130357D01*
X14671071Y-15873214D01*
X14942500Y-16158929D02*
X14913928Y-16173214D01*
X14856786Y-16173214D01*
X14828214Y-16158929D01*
X14813928Y-16130357D01*
X14813928Y-16016071D01*
X14828214Y-15987500D01*
X14856786Y-15973214D01*
X14913928Y-15973214D01*
X14942500Y-15987500D01*
X14956786Y-16016071D01*
X14956786Y-16044643D01*
X14813928Y-16073214D01*
X15071071Y-16158929D02*
X15099643Y-16173214D01*
X15156786Y-16173214D01*
X15185357Y-16158929D01*
X15199643Y-16130357D01*
X15199643Y-16116071D01*
X15185357Y-16087500D01*
X15156786Y-16073214D01*
X15113928Y-16073214D01*
X15085357Y-16058929D01*
X15071071Y-16030357D01*
X15071071Y-16016071D01*
X15085357Y-15987500D01*
X15113928Y-15973214D01*
X15156786Y-15973214D01*
X15185357Y-15987500D01*
X15299643Y-16287500D02*
X15313928Y-16273214D01*
X15342500Y-16230357D01*
X15356786Y-16201786D01*
X15371071Y-16158929D01*
X15385357Y-16087500D01*
X15385357Y-16030357D01*
X15371071Y-15958929D01*
X15356786Y-15916071D01*
X15342500Y-15887500D01*
X15313928Y-15844643D01*
X15299643Y-15830357D01*
X8542500Y-16433500D02*
G75*
G03X8542500Y-16433500I-38100J0D01*
G01*
X8871071Y-16269214D02*
X8899643Y-16269214D01*
X8928214Y-16283500D01*
X8942500Y-16297786D01*
X8956786Y-16326357D01*
X8971071Y-16383500D01*
X8971071Y-16454929D01*
X8956786Y-16512071D01*
X8942500Y-16540643D01*
X8928214Y-16554929D01*
X8899643Y-16569214D01*
X8871071Y-16569214D01*
X8842500Y-16554929D01*
X8828214Y-16540643D01*
X8813929Y-16512071D01*
X8799643Y-16454929D01*
X8799643Y-16383500D01*
X8813929Y-16326357D01*
X8828214Y-16297786D01*
X8842500Y-16283500D01*
X8871071Y-16269214D01*
X9099643Y-16540643D02*
X9113929Y-16554929D01*
X9099643Y-16569214D01*
X9085357Y-16554929D01*
X9099643Y-16540643D01*
X9099643Y-16569214D01*
X9213928Y-16269214D02*
X9413928Y-16269214D01*
X9285357Y-16569214D01*
X9656786Y-16269214D02*
X9599643Y-16269214D01*
X9571071Y-16283500D01*
X9556786Y-16297786D01*
X9528214Y-16340643D01*
X9513929Y-16397786D01*
X9513929Y-16512071D01*
X9528214Y-16540643D01*
X9542500Y-16554929D01*
X9571071Y-16569214D01*
X9628214Y-16569214D01*
X9656786Y-16554929D01*
X9671071Y-16540643D01*
X9685357Y-16512071D01*
X9685357Y-16440643D01*
X9671071Y-16412071D01*
X9656786Y-16397786D01*
X9628214Y-16383500D01*
X9571071Y-16383500D01*
X9542500Y-16397786D01*
X9528214Y-16412071D01*
X9513929Y-16440643D01*
X9813929Y-16569214D02*
X9813929Y-16369214D01*
X9813929Y-16397786D02*
X9828214Y-16383500D01*
X9856786Y-16369214D01*
X9899643Y-16369214D01*
X9928214Y-16383500D01*
X9942500Y-16412071D01*
X9942500Y-16569214D01*
X9942500Y-16412071D02*
X9956786Y-16383500D01*
X9985357Y-16369214D01*
X10028214Y-16369214D01*
X10056786Y-16383500D01*
X10071071Y-16412071D01*
X10071071Y-16569214D01*
X10213929Y-16569214D02*
X10213929Y-16369214D01*
X10213929Y-16397786D02*
X10228214Y-16383500D01*
X10256786Y-16369214D01*
X10299643Y-16369214D01*
X10328214Y-16383500D01*
X10342500Y-16412071D01*
X10342500Y-16569214D01*
X10342500Y-16412071D02*
X10356786Y-16383500D01*
X10385357Y-16369214D01*
X10428214Y-16369214D01*
X10456786Y-16383500D01*
X10471071Y-16412071D01*
X10471071Y-16569214D01*
X11056786Y-16254929D02*
X10799643Y-16640643D01*
X11442500Y-16269214D02*
X11471071Y-16269214D01*
X11499643Y-16283500D01*
X11513928Y-16297786D01*
X11528214Y-16326357D01*
X11542500Y-16383500D01*
X11542500Y-16454929D01*
X11528214Y-16512071D01*
X11513928Y-16540643D01*
X11499643Y-16554929D01*
X11471071Y-16569214D01*
X11442500Y-16569214D01*
X11413928Y-16554929D01*
X11399643Y-16540643D01*
X11385357Y-16512071D01*
X11371071Y-16454929D01*
X11371071Y-16383500D01*
X11385357Y-16326357D01*
X11399643Y-16297786D01*
X11413928Y-16283500D01*
X11442500Y-16269214D01*
X11671071Y-16540643D02*
X11685357Y-16554929D01*
X11671071Y-16569214D01*
X11656786Y-16554929D01*
X11671071Y-16540643D01*
X11671071Y-16569214D01*
X11871071Y-16269214D02*
X11899643Y-16269214D01*
X11928214Y-16283500D01*
X11942500Y-16297786D01*
X11956785Y-16326357D01*
X11971071Y-16383500D01*
X11971071Y-16454929D01*
X11956785Y-16512071D01*
X11942500Y-16540643D01*
X11928214Y-16554929D01*
X11899643Y-16569214D01*
X11871071Y-16569214D01*
X11842500Y-16554929D01*
X11828214Y-16540643D01*
X11813928Y-16512071D01*
X11799643Y-16454929D01*
X11799643Y-16383500D01*
X11813928Y-16326357D01*
X11828214Y-16297786D01*
X11842500Y-16283500D01*
X11871071Y-16269214D01*
X12071071Y-16269214D02*
X12256785Y-16269214D01*
X12156785Y-16383500D01*
X12199643Y-16383500D01*
X12228214Y-16397786D01*
X12242500Y-16412071D01*
X12256785Y-16440643D01*
X12256785Y-16512071D01*
X12242500Y-16540643D01*
X12228214Y-16554929D01*
X12199643Y-16569214D01*
X12113928Y-16569214D01*
X12085357Y-16554929D01*
X12071071Y-16540643D01*
X12442500Y-16269214D02*
X12471071Y-16269214D01*
X12499643Y-16283500D01*
X12513928Y-16297786D01*
X12528214Y-16326357D01*
X12542500Y-16383500D01*
X12542500Y-16454929D01*
X12528214Y-16512071D01*
X12513928Y-16540643D01*
X12499643Y-16554929D01*
X12471071Y-16569214D01*
X12442500Y-16569214D01*
X12413928Y-16554929D01*
X12399643Y-16540643D01*
X12385357Y-16512071D01*
X12371071Y-16454929D01*
X12371071Y-16383500D01*
X12385357Y-16326357D01*
X12399643Y-16297786D01*
X12413928Y-16283500D01*
X12442500Y-16269214D01*
X12656786Y-16269214D02*
X12656786Y-16326357D01*
X12771071Y-16269214D02*
X12771071Y-16326357D01*
X13213928Y-16683500D02*
X13199643Y-16669214D01*
X13171071Y-16626357D01*
X13156785Y-16597786D01*
X13142500Y-16554929D01*
X13128214Y-16483500D01*
X13128214Y-16426357D01*
X13142500Y-16354929D01*
X13156785Y-16312071D01*
X13171071Y-16283500D01*
X13199643Y-16240643D01*
X13213928Y-16226357D01*
X13371071Y-16397786D02*
X13342500Y-16383500D01*
X13328214Y-16369214D01*
X13313928Y-16340643D01*
X13313928Y-16326357D01*
X13328214Y-16297786D01*
X13342500Y-16283500D01*
X13371071Y-16269214D01*
X13428214Y-16269214D01*
X13456785Y-16283500D01*
X13471071Y-16297786D01*
X13485357Y-16326357D01*
X13485357Y-16340643D01*
X13471071Y-16369214D01*
X13456785Y-16383500D01*
X13428214Y-16397786D01*
X13371071Y-16397786D01*
X13342500Y-16412071D01*
X13328214Y-16426357D01*
X13313928Y-16454929D01*
X13313928Y-16512071D01*
X13328214Y-16540643D01*
X13342500Y-16554929D01*
X13371071Y-16569214D01*
X13428214Y-16569214D01*
X13456785Y-16554929D01*
X13471071Y-16540643D01*
X13485357Y-16512071D01*
X13485357Y-16454929D01*
X13471071Y-16426357D01*
X13456785Y-16412071D01*
X13428214Y-16397786D01*
X13599643Y-16297786D02*
X13613928Y-16283500D01*
X13642500Y-16269214D01*
X13713928Y-16269214D01*
X13742500Y-16283500D01*
X13756785Y-16297786D01*
X13771071Y-16326357D01*
X13771071Y-16354929D01*
X13756785Y-16397786D01*
X13585357Y-16569214D01*
X13771071Y-16569214D01*
X14128214Y-16569214D02*
X14128214Y-16269214D01*
X14256785Y-16569214D02*
X14256785Y-16412071D01*
X14242500Y-16383500D01*
X14213928Y-16369214D01*
X14171071Y-16369214D01*
X14142500Y-16383500D01*
X14128214Y-16397786D01*
X14442500Y-16569214D02*
X14413928Y-16554929D01*
X14399643Y-16540643D01*
X14385357Y-16512071D01*
X14385357Y-16426357D01*
X14399643Y-16397786D01*
X14413928Y-16383500D01*
X14442500Y-16369214D01*
X14485357Y-16369214D01*
X14513928Y-16383500D01*
X14528214Y-16397786D01*
X14542500Y-16426357D01*
X14542500Y-16512071D01*
X14528214Y-16540643D01*
X14513928Y-16554929D01*
X14485357Y-16569214D01*
X14442500Y-16569214D01*
X14713928Y-16569214D02*
X14685357Y-16554929D01*
X14671071Y-16526357D01*
X14671071Y-16269214D01*
X14942500Y-16554929D02*
X14913928Y-16569214D01*
X14856786Y-16569214D01*
X14828214Y-16554929D01*
X14813928Y-16526357D01*
X14813928Y-16412071D01*
X14828214Y-16383500D01*
X14856786Y-16369214D01*
X14913928Y-16369214D01*
X14942500Y-16383500D01*
X14956786Y-16412071D01*
X14956786Y-16440643D01*
X14813928Y-16469214D01*
X15071071Y-16554929D02*
X15099643Y-16569214D01*
X15156786Y-16569214D01*
X15185357Y-16554929D01*
X15199643Y-16526357D01*
X15199643Y-16512071D01*
X15185357Y-16483500D01*
X15156786Y-16469214D01*
X15113928Y-16469214D01*
X15085357Y-16454929D01*
X15071071Y-16426357D01*
X15071071Y-16412071D01*
X15085357Y-16383500D01*
X15113928Y-16369214D01*
X15156786Y-16369214D01*
X15185357Y-16383500D01*
X15299643Y-16683500D02*
X15313928Y-16669214D01*
X15342500Y-16626357D01*
X15356786Y-16597786D01*
X15371071Y-16554929D01*
X15385357Y-16483500D01*
X15385357Y-16426357D01*
X15371071Y-16354929D01*
X15356786Y-16312071D01*
X15342500Y-16283500D01*
X15313928Y-16240643D01*
X15299643Y-16226357D01*
X8502500Y-16789500D02*
X8502500Y-16869500D01*
X8462500Y-16829500D02*
X8542500Y-16829500D01*
X8871071Y-16665214D02*
X8899643Y-16665214D01*
X8928214Y-16679500D01*
X8942500Y-16693786D01*
X8956786Y-16722357D01*
X8971071Y-16779500D01*
X8971071Y-16850929D01*
X8956786Y-16908072D01*
X8942500Y-16936643D01*
X8928214Y-16950929D01*
X8899643Y-16965214D01*
X8871071Y-16965214D01*
X8842500Y-16950929D01*
X8828214Y-16936643D01*
X8813929Y-16908072D01*
X8799643Y-16850929D01*
X8799643Y-16779500D01*
X8813929Y-16722357D01*
X8828214Y-16693786D01*
X8842500Y-16679500D01*
X8871071Y-16665214D01*
X9099643Y-16936643D02*
X9113929Y-16950929D01*
X9099643Y-16965214D01*
X9085357Y-16950929D01*
X9099643Y-16936643D01*
X9099643Y-16965214D01*
X9285357Y-16793786D02*
X9256786Y-16779500D01*
X9242500Y-16765214D01*
X9228214Y-16736643D01*
X9228214Y-16722357D01*
X9242500Y-16693786D01*
X9256786Y-16679500D01*
X9285357Y-16665214D01*
X9342500Y-16665214D01*
X9371071Y-16679500D01*
X9385357Y-16693786D01*
X9399643Y-16722357D01*
X9399643Y-16736643D01*
X9385357Y-16765214D01*
X9371071Y-16779500D01*
X9342500Y-16793786D01*
X9285357Y-16793786D01*
X9256786Y-16808072D01*
X9242500Y-16822357D01*
X9228214Y-16850929D01*
X9228214Y-16908072D01*
X9242500Y-16936643D01*
X9256786Y-16950929D01*
X9285357Y-16965214D01*
X9342500Y-16965214D01*
X9371071Y-16950929D01*
X9385357Y-16936643D01*
X9399643Y-16908072D01*
X9399643Y-16850929D01*
X9385357Y-16822357D01*
X9371071Y-16808072D01*
X9342500Y-16793786D01*
X9585357Y-16665214D02*
X9613929Y-16665214D01*
X9642500Y-16679500D01*
X9656786Y-16693786D01*
X9671071Y-16722357D01*
X9685357Y-16779500D01*
X9685357Y-16850929D01*
X9671071Y-16908072D01*
X9656786Y-16936643D01*
X9642500Y-16950929D01*
X9613929Y-16965214D01*
X9585357Y-16965214D01*
X9556786Y-16950929D01*
X9542500Y-16936643D01*
X9528214Y-16908072D01*
X9513929Y-16850929D01*
X9513929Y-16779500D01*
X9528214Y-16722357D01*
X9542500Y-16693786D01*
X9556786Y-16679500D01*
X9585357Y-16665214D01*
X9813929Y-16965214D02*
X9813929Y-16765214D01*
X9813929Y-16793786D02*
X9828214Y-16779500D01*
X9856786Y-16765214D01*
X9899643Y-16765214D01*
X9928214Y-16779500D01*
X9942500Y-16808072D01*
X9942500Y-16965214D01*
X9942500Y-16808072D02*
X9956786Y-16779500D01*
X9985357Y-16765214D01*
X10028214Y-16765214D01*
X10056786Y-16779500D01*
X10071071Y-16808072D01*
X10071071Y-16965214D01*
X10213929Y-16965214D02*
X10213929Y-16765214D01*
X10213929Y-16793786D02*
X10228214Y-16779500D01*
X10256786Y-16765214D01*
X10299643Y-16765214D01*
X10328214Y-16779500D01*
X10342500Y-16808072D01*
X10342500Y-16965214D01*
X10342500Y-16808072D02*
X10356786Y-16779500D01*
X10385357Y-16765214D01*
X10428214Y-16765214D01*
X10456786Y-16779500D01*
X10471071Y-16808072D01*
X10471071Y-16965214D01*
X11056786Y-16650929D02*
X10799643Y-17036643D01*
X11442500Y-16665214D02*
X11471071Y-16665214D01*
X11499643Y-16679500D01*
X11513928Y-16693786D01*
X11528214Y-16722357D01*
X11542500Y-16779500D01*
X11542500Y-16850929D01*
X11528214Y-16908072D01*
X11513928Y-16936643D01*
X11499643Y-16950929D01*
X11471071Y-16965214D01*
X11442500Y-16965214D01*
X11413928Y-16950929D01*
X11399643Y-16936643D01*
X11385357Y-16908072D01*
X11371071Y-16850929D01*
X11371071Y-16779500D01*
X11385357Y-16722357D01*
X11399643Y-16693786D01*
X11413928Y-16679500D01*
X11442500Y-16665214D01*
X11671071Y-16936643D02*
X11685357Y-16950929D01*
X11671071Y-16965214D01*
X11656786Y-16950929D01*
X11671071Y-16936643D01*
X11671071Y-16965214D01*
X11871071Y-16665214D02*
X11899643Y-16665214D01*
X11928214Y-16679500D01*
X11942500Y-16693786D01*
X11956785Y-16722357D01*
X11971071Y-16779500D01*
X11971071Y-16850929D01*
X11956785Y-16908072D01*
X11942500Y-16936643D01*
X11928214Y-16950929D01*
X11899643Y-16965214D01*
X11871071Y-16965214D01*
X11842500Y-16950929D01*
X11828214Y-16936643D01*
X11813928Y-16908072D01*
X11799643Y-16850929D01*
X11799643Y-16779500D01*
X11813928Y-16722357D01*
X11828214Y-16693786D01*
X11842500Y-16679500D01*
X11871071Y-16665214D01*
X12071071Y-16665214D02*
X12256785Y-16665214D01*
X12156785Y-16779500D01*
X12199643Y-16779500D01*
X12228214Y-16793786D01*
X12242500Y-16808072D01*
X12256785Y-16836643D01*
X12256785Y-16908072D01*
X12242500Y-16936643D01*
X12228214Y-16950929D01*
X12199643Y-16965214D01*
X12113928Y-16965214D01*
X12085357Y-16950929D01*
X12071071Y-16936643D01*
X12542500Y-16965214D02*
X12371071Y-16965214D01*
X12456785Y-16965214D02*
X12456785Y-16665214D01*
X12428214Y-16708071D01*
X12399643Y-16736643D01*
X12371071Y-16750929D01*
X12656786Y-16665214D02*
X12656786Y-16722357D01*
X12771071Y-16665214D02*
X12771071Y-16722357D01*
X13213928Y-17079500D02*
X13199643Y-17065214D01*
X13171071Y-17022357D01*
X13156785Y-16993786D01*
X13142500Y-16950929D01*
X13128214Y-16879500D01*
X13128214Y-16822357D01*
X13142500Y-16750929D01*
X13156785Y-16708071D01*
X13171071Y-16679500D01*
X13199643Y-16636643D01*
X13213928Y-16622357D01*
X13456785Y-16765214D02*
X13456785Y-16965214D01*
X13385357Y-16650929D02*
X13313928Y-16865214D01*
X13499643Y-16865214D01*
X13671071Y-16665214D02*
X13699643Y-16665214D01*
X13728214Y-16679500D01*
X13742500Y-16693786D01*
X13756785Y-16722357D01*
X13771071Y-16779500D01*
X13771071Y-16850929D01*
X13756785Y-16908072D01*
X13742500Y-16936643D01*
X13728214Y-16950929D01*
X13699643Y-16965214D01*
X13671071Y-16965214D01*
X13642500Y-16950929D01*
X13628214Y-16936643D01*
X13613928Y-16908072D01*
X13599643Y-16850929D01*
X13599643Y-16779500D01*
X13613928Y-16722357D01*
X13628214Y-16693786D01*
X13642500Y-16679500D01*
X13671071Y-16665214D01*
X14128214Y-16965214D02*
X14128214Y-16665214D01*
X14256785Y-16965214D02*
X14256785Y-16808072D01*
X14242500Y-16779500D01*
X14213928Y-16765214D01*
X14171071Y-16765214D01*
X14142500Y-16779500D01*
X14128214Y-16793786D01*
X14442500Y-16965214D02*
X14413928Y-16950929D01*
X14399643Y-16936643D01*
X14385357Y-16908072D01*
X14385357Y-16822357D01*
X14399643Y-16793786D01*
X14413928Y-16779500D01*
X14442500Y-16765214D01*
X14485357Y-16765214D01*
X14513928Y-16779500D01*
X14528214Y-16793786D01*
X14542500Y-16822357D01*
X14542500Y-16908072D01*
X14528214Y-16936643D01*
X14513928Y-16950929D01*
X14485357Y-16965214D01*
X14442500Y-16965214D01*
X14713928Y-16965214D02*
X14685357Y-16950929D01*
X14671071Y-16922357D01*
X14671071Y-16665214D01*
X14942500Y-16950929D02*
X14913928Y-16965214D01*
X14856786Y-16965214D01*
X14828214Y-16950929D01*
X14813928Y-16922357D01*
X14813928Y-16808072D01*
X14828214Y-16779500D01*
X14856786Y-16765214D01*
X14913928Y-16765214D01*
X14942500Y-16779500D01*
X14956786Y-16808072D01*
X14956786Y-16836643D01*
X14813928Y-16865214D01*
X15071071Y-16950929D02*
X15099643Y-16965214D01*
X15156786Y-16965214D01*
X15185357Y-16950929D01*
X15199643Y-16922357D01*
X15199643Y-16908072D01*
X15185357Y-16879500D01*
X15156786Y-16865214D01*
X15113928Y-16865214D01*
X15085357Y-16850929D01*
X15071071Y-16822357D01*
X15071071Y-16808072D01*
X15085357Y-16779500D01*
X15113928Y-16765214D01*
X15156786Y-16765214D01*
X15185357Y-16779500D01*
X15556786Y-16850929D02*
X15785357Y-16850929D01*
X15671071Y-16965214D02*
X15671071Y-16736643D01*
X16299643Y-16665214D02*
X16156786Y-16665214D01*
X16142500Y-16808072D01*
X16156786Y-16793786D01*
X16185357Y-16779500D01*
X16256786Y-16779500D01*
X16285357Y-16793786D01*
X16299643Y-16808072D01*
X16313928Y-16836643D01*
X16313928Y-16908072D01*
X16299643Y-16936643D01*
X16285357Y-16950929D01*
X16256786Y-16965214D01*
X16185357Y-16965214D01*
X16156786Y-16950929D01*
X16142500Y-16936643D01*
X16656786Y-16950929D02*
X16685357Y-16965214D01*
X16742500Y-16965214D01*
X16771071Y-16950929D01*
X16785357Y-16922357D01*
X16785357Y-16908072D01*
X16771071Y-16879500D01*
X16742500Y-16865214D01*
X16699643Y-16865214D01*
X16671071Y-16850929D01*
X16656786Y-16822357D01*
X16656786Y-16808072D01*
X16671071Y-16779500D01*
X16699643Y-16765214D01*
X16742500Y-16765214D01*
X16771071Y-16779500D01*
X16956786Y-16965214D02*
X16928214Y-16950929D01*
X16913928Y-16922357D01*
X16913928Y-16665214D01*
X17113928Y-16965214D02*
X17085357Y-16950929D01*
X17071071Y-16936643D01*
X17056786Y-16908072D01*
X17056786Y-16822357D01*
X17071071Y-16793786D01*
X17085357Y-16779500D01*
X17113928Y-16765214D01*
X17156786Y-16765214D01*
X17185357Y-16779500D01*
X17199643Y-16793786D01*
X17213928Y-16822357D01*
X17213928Y-16908072D01*
X17199643Y-16936643D01*
X17185357Y-16950929D01*
X17156786Y-16965214D01*
X17113928Y-16965214D01*
X17299643Y-16765214D02*
X17413928Y-16765214D01*
X17342500Y-16665214D02*
X17342500Y-16922357D01*
X17356786Y-16950929D01*
X17385357Y-16965214D01*
X17413928Y-16965214D01*
X17499643Y-16950929D02*
X17528214Y-16965214D01*
X17585357Y-16965214D01*
X17613929Y-16950929D01*
X17628214Y-16922357D01*
X17628214Y-16908072D01*
X17613929Y-16879500D01*
X17585357Y-16865214D01*
X17542500Y-16865214D01*
X17513929Y-16850929D01*
X17499643Y-16822357D01*
X17499643Y-16808072D01*
X17513929Y-16779500D01*
X17542500Y-16765214D01*
X17585357Y-16765214D01*
X17613929Y-16779500D01*
X17728214Y-17079500D02*
X17742500Y-17065214D01*
X17771071Y-17022357D01*
X17785357Y-16993786D01*
X17799643Y-16950929D01*
X17813928Y-16879500D01*
X17813928Y-16822357D01*
X17799643Y-16750929D01*
X17785357Y-16708071D01*
X17771071Y-16679500D01*
X17742500Y-16636643D01*
X17728214Y-16622357D01*
X8524927Y-17267927D02*
X8524927Y-17183073D01*
X8440073Y-17183073D01*
X8440073Y-17267927D01*
X8524927Y-17267927D01*
X8971071Y-17361214D02*
X8799643Y-17361214D01*
X8885357Y-17361214D02*
X8885357Y-17061214D01*
X8856786Y-17104072D01*
X8828214Y-17132643D01*
X8799643Y-17146929D01*
X9099643Y-17332643D02*
X9113929Y-17346929D01*
X9099643Y-17361214D01*
X9085357Y-17346929D01*
X9099643Y-17332643D01*
X9099643Y-17361214D01*
X9228214Y-17089786D02*
X9242500Y-17075500D01*
X9271071Y-17061214D01*
X9342500Y-17061214D01*
X9371071Y-17075500D01*
X9385357Y-17089786D01*
X9399643Y-17118357D01*
X9399643Y-17146929D01*
X9385357Y-17189786D01*
X9213928Y-17361214D01*
X9399643Y-17361214D01*
X9585357Y-17061214D02*
X9613929Y-17061214D01*
X9642500Y-17075500D01*
X9656786Y-17089786D01*
X9671071Y-17118357D01*
X9685357Y-17175500D01*
X9685357Y-17246929D01*
X9671071Y-17304072D01*
X9656786Y-17332643D01*
X9642500Y-17346929D01*
X9613929Y-17361214D01*
X9585357Y-17361214D01*
X9556786Y-17346929D01*
X9542500Y-17332643D01*
X9528214Y-17304072D01*
X9513929Y-17246929D01*
X9513929Y-17175500D01*
X9528214Y-17118357D01*
X9542500Y-17089786D01*
X9556786Y-17075500D01*
X9585357Y-17061214D01*
X9813929Y-17361214D02*
X9813929Y-17161214D01*
X9813929Y-17189786D02*
X9828214Y-17175500D01*
X9856786Y-17161214D01*
X9899643Y-17161214D01*
X9928214Y-17175500D01*
X9942500Y-17204072D01*
X9942500Y-17361214D01*
X9942500Y-17204072D02*
X9956786Y-17175500D01*
X9985357Y-17161214D01*
X10028214Y-17161214D01*
X10056786Y-17175500D01*
X10071071Y-17204072D01*
X10071071Y-17361214D01*
X10213929Y-17361214D02*
X10213929Y-17161214D01*
X10213929Y-17189786D02*
X10228214Y-17175500D01*
X10256786Y-17161214D01*
X10299643Y-17161214D01*
X10328214Y-17175500D01*
X10342500Y-17204072D01*
X10342500Y-17361214D01*
X10342500Y-17204072D02*
X10356786Y-17175500D01*
X10385357Y-17161214D01*
X10428214Y-17161214D01*
X10456786Y-17175500D01*
X10471071Y-17204072D01*
X10471071Y-17361214D01*
X11056786Y-17046929D02*
X10799643Y-17432643D01*
X11442500Y-17061214D02*
X11471071Y-17061214D01*
X11499643Y-17075500D01*
X11513928Y-17089786D01*
X11528214Y-17118357D01*
X11542500Y-17175500D01*
X11542500Y-17246929D01*
X11528214Y-17304072D01*
X11513928Y-17332643D01*
X11499643Y-17346929D01*
X11471071Y-17361214D01*
X11442500Y-17361214D01*
X11413928Y-17346929D01*
X11399643Y-17332643D01*
X11385357Y-17304072D01*
X11371071Y-17246929D01*
X11371071Y-17175500D01*
X11385357Y-17118357D01*
X11399643Y-17089786D01*
X11413928Y-17075500D01*
X11442500Y-17061214D01*
X11671071Y-17332643D02*
X11685357Y-17346929D01*
X11671071Y-17361214D01*
X11656786Y-17346929D01*
X11671071Y-17332643D01*
X11671071Y-17361214D01*
X11871071Y-17061214D02*
X11899643Y-17061214D01*
X11928214Y-17075500D01*
X11942500Y-17089786D01*
X11956785Y-17118357D01*
X11971071Y-17175500D01*
X11971071Y-17246929D01*
X11956785Y-17304072D01*
X11942500Y-17332643D01*
X11928214Y-17346929D01*
X11899643Y-17361214D01*
X11871071Y-17361214D01*
X11842500Y-17346929D01*
X11828214Y-17332643D01*
X11813928Y-17304072D01*
X11799643Y-17246929D01*
X11799643Y-17175500D01*
X11813928Y-17118357D01*
X11828214Y-17089786D01*
X11842500Y-17075500D01*
X11871071Y-17061214D01*
X12228214Y-17161214D02*
X12228214Y-17361214D01*
X12156785Y-17046929D02*
X12085357Y-17261214D01*
X12271071Y-17261214D01*
X12356785Y-17061214D02*
X12556785Y-17061214D01*
X12428214Y-17361214D01*
X12656786Y-17061214D02*
X12656786Y-17118357D01*
X12771071Y-17061214D02*
X12771071Y-17118357D01*
X13213928Y-17475500D02*
X13199643Y-17461214D01*
X13171071Y-17418357D01*
X13156785Y-17389786D01*
X13142500Y-17346929D01*
X13128214Y-17275500D01*
X13128214Y-17218357D01*
X13142500Y-17146929D01*
X13156785Y-17104072D01*
X13171071Y-17075500D01*
X13199643Y-17032643D01*
X13213928Y-17018357D01*
X13471071Y-17061214D02*
X13328214Y-17061214D01*
X13313928Y-17204072D01*
X13328214Y-17189786D01*
X13356785Y-17175500D01*
X13428214Y-17175500D01*
X13456785Y-17189786D01*
X13471071Y-17204072D01*
X13485357Y-17232643D01*
X13485357Y-17304072D01*
X13471071Y-17332643D01*
X13456785Y-17346929D01*
X13428214Y-17361214D01*
X13356785Y-17361214D01*
X13328214Y-17346929D01*
X13313928Y-17332643D01*
X13842500Y-17361214D02*
X13842500Y-17061214D01*
X13971071Y-17361214D02*
X13971071Y-17204072D01*
X13956785Y-17175500D01*
X13928214Y-17161214D01*
X13885357Y-17161214D01*
X13856785Y-17175500D01*
X13842500Y-17189786D01*
X14156785Y-17361214D02*
X14128214Y-17346929D01*
X14113928Y-17332643D01*
X14099643Y-17304072D01*
X14099643Y-17218357D01*
X14113928Y-17189786D01*
X14128214Y-17175500D01*
X14156785Y-17161214D01*
X14199643Y-17161214D01*
X14228214Y-17175500D01*
X14242500Y-17189786D01*
X14256785Y-17218357D01*
X14256785Y-17304072D01*
X14242500Y-17332643D01*
X14228214Y-17346929D01*
X14199643Y-17361214D01*
X14156785Y-17361214D01*
X14428214Y-17361214D02*
X14399643Y-17346929D01*
X14385357Y-17318357D01*
X14385357Y-17061214D01*
X14656786Y-17346929D02*
X14628214Y-17361214D01*
X14571071Y-17361214D01*
X14542500Y-17346929D01*
X14528214Y-17318357D01*
X14528214Y-17204072D01*
X14542500Y-17175500D01*
X14571071Y-17161214D01*
X14628214Y-17161214D01*
X14656786Y-17175500D01*
X14671071Y-17204072D01*
X14671071Y-17232643D01*
X14528214Y-17261214D01*
X14785357Y-17346929D02*
X14813928Y-17361214D01*
X14871071Y-17361214D01*
X14899643Y-17346929D01*
X14913928Y-17318357D01*
X14913928Y-17304072D01*
X14899643Y-17275500D01*
X14871071Y-17261214D01*
X14828214Y-17261214D01*
X14799643Y-17246929D01*
X14785357Y-17218357D01*
X14785357Y-17204072D01*
X14799643Y-17175500D01*
X14828214Y-17161214D01*
X14871071Y-17161214D01*
X14899643Y-17175500D01*
X15013928Y-17475500D02*
X15028214Y-17461214D01*
X15056786Y-17418357D01*
X15071071Y-17389786D01*
X15085357Y-17346929D01*
X15099643Y-17275500D01*
X15099643Y-17218357D01*
X15085357Y-17146929D01*
X15071071Y-17104072D01*
X15056786Y-17075500D01*
X15028214Y-17032643D01*
X15013928Y-17018357D01*
X8382500Y-17781500D02*
X8542500Y-17621500D01*
X8382500Y-17461500D01*
X8222500Y-17621500D01*
X8382500Y-17781500D01*
X8785357Y-17457214D02*
X8971071Y-17457214D01*
X8871071Y-17571500D01*
X8913929Y-17571500D01*
X8942500Y-17585786D01*
X8956786Y-17600072D01*
X8971071Y-17628643D01*
X8971071Y-17700072D01*
X8956786Y-17728643D01*
X8942500Y-17742929D01*
X8913929Y-17757214D01*
X8828214Y-17757214D01*
X8799643Y-17742929D01*
X8785357Y-17728643D01*
X9099643Y-17728643D02*
X9113929Y-17742929D01*
X9099643Y-17757214D01*
X9085357Y-17742929D01*
X9099643Y-17728643D01*
X9099643Y-17757214D01*
X9228214Y-17485786D02*
X9242500Y-17471500D01*
X9271071Y-17457214D01*
X9342500Y-17457214D01*
X9371071Y-17471500D01*
X9385357Y-17485786D01*
X9399643Y-17514357D01*
X9399643Y-17542929D01*
X9385357Y-17585786D01*
X9213928Y-17757214D01*
X9399643Y-17757214D01*
X9585357Y-17457214D02*
X9613929Y-17457214D01*
X9642500Y-17471500D01*
X9656786Y-17485786D01*
X9671071Y-17514357D01*
X9685357Y-17571500D01*
X9685357Y-17642929D01*
X9671071Y-17700072D01*
X9656786Y-17728643D01*
X9642500Y-17742929D01*
X9613929Y-17757214D01*
X9585357Y-17757214D01*
X9556786Y-17742929D01*
X9542500Y-17728643D01*
X9528214Y-17700072D01*
X9513929Y-17642929D01*
X9513929Y-17571500D01*
X9528214Y-17514357D01*
X9542500Y-17485786D01*
X9556786Y-17471500D01*
X9585357Y-17457214D01*
X9813929Y-17757214D02*
X9813929Y-17557214D01*
X9813929Y-17585786D02*
X9828214Y-17571500D01*
X9856786Y-17557214D01*
X9899643Y-17557214D01*
X9928214Y-17571500D01*
X9942500Y-17600072D01*
X9942500Y-17757214D01*
X9942500Y-17600072D02*
X9956786Y-17571500D01*
X9985357Y-17557214D01*
X10028214Y-17557214D01*
X10056786Y-17571500D01*
X10071071Y-17600072D01*
X10071071Y-17757214D01*
X10213929Y-17757214D02*
X10213929Y-17557214D01*
X10213929Y-17585786D02*
X10228214Y-17571500D01*
X10256786Y-17557214D01*
X10299643Y-17557214D01*
X10328214Y-17571500D01*
X10342500Y-17600072D01*
X10342500Y-17757214D01*
X10342500Y-17600072D02*
X10356786Y-17571500D01*
X10385357Y-17557214D01*
X10428214Y-17557214D01*
X10456786Y-17571500D01*
X10471071Y-17600072D01*
X10471071Y-17757214D01*
X11056786Y-17442929D02*
X10799643Y-17828643D01*
X11442500Y-17457214D02*
X11471071Y-17457214D01*
X11499643Y-17471500D01*
X11513928Y-17485786D01*
X11528214Y-17514357D01*
X11542500Y-17571500D01*
X11542500Y-17642929D01*
X11528214Y-17700072D01*
X11513928Y-17728643D01*
X11499643Y-17742929D01*
X11471071Y-17757214D01*
X11442500Y-17757214D01*
X11413928Y-17742929D01*
X11399643Y-17728643D01*
X11385357Y-17700072D01*
X11371071Y-17642929D01*
X11371071Y-17571500D01*
X11385357Y-17514357D01*
X11399643Y-17485786D01*
X11413928Y-17471500D01*
X11442500Y-17457214D01*
X11671071Y-17728643D02*
X11685357Y-17742929D01*
X11671071Y-17757214D01*
X11656786Y-17742929D01*
X11671071Y-17728643D01*
X11671071Y-17757214D01*
X11971071Y-17757214D02*
X11799643Y-17757214D01*
X11885357Y-17757214D02*
X11885357Y-17457214D01*
X11856785Y-17500072D01*
X11828214Y-17528643D01*
X11799643Y-17542929D01*
X12085357Y-17485786D02*
X12099643Y-17471500D01*
X12128214Y-17457214D01*
X12199643Y-17457214D01*
X12228214Y-17471500D01*
X12242500Y-17485786D01*
X12256785Y-17514357D01*
X12256785Y-17542929D01*
X12242500Y-17585786D01*
X12071071Y-17757214D01*
X12256785Y-17757214D01*
X12513928Y-17457214D02*
X12456785Y-17457214D01*
X12428214Y-17471500D01*
X12413928Y-17485786D01*
X12385357Y-17528643D01*
X12371071Y-17585786D01*
X12371071Y-17700072D01*
X12385357Y-17728643D01*
X12399643Y-17742929D01*
X12428214Y-17757214D01*
X12485357Y-17757214D01*
X12513928Y-17742929D01*
X12528214Y-17728643D01*
X12542500Y-17700072D01*
X12542500Y-17628643D01*
X12528214Y-17600072D01*
X12513928Y-17585786D01*
X12485357Y-17571500D01*
X12428214Y-17571500D01*
X12399643Y-17585786D01*
X12385357Y-17600072D01*
X12371071Y-17628643D01*
X12656786Y-17457214D02*
X12656786Y-17514357D01*
X12771071Y-17457214D02*
X12771071Y-17514357D01*
X13213928Y-17871500D02*
X13199643Y-17857214D01*
X13171071Y-17814357D01*
X13156785Y-17785786D01*
X13142500Y-17742929D01*
X13128214Y-17671500D01*
X13128214Y-17614357D01*
X13142500Y-17542929D01*
X13156785Y-17500072D01*
X13171071Y-17471500D01*
X13199643Y-17428643D01*
X13213928Y-17414357D01*
X13456785Y-17457214D02*
X13399643Y-17457214D01*
X13371071Y-17471500D01*
X13356785Y-17485786D01*
X13328214Y-17528643D01*
X13313928Y-17585786D01*
X13313928Y-17700072D01*
X13328214Y-17728643D01*
X13342500Y-17742929D01*
X13371071Y-17757214D01*
X13428214Y-17757214D01*
X13456785Y-17742929D01*
X13471071Y-17728643D01*
X13485357Y-17700072D01*
X13485357Y-17628643D01*
X13471071Y-17600072D01*
X13456785Y-17585786D01*
X13428214Y-17571500D01*
X13371071Y-17571500D01*
X13342500Y-17585786D01*
X13328214Y-17600072D01*
X13313928Y-17628643D01*
X13842500Y-17757214D02*
X13842500Y-17457214D01*
X13971071Y-17757214D02*
X13971071Y-17600072D01*
X13956785Y-17571500D01*
X13928214Y-17557214D01*
X13885357Y-17557214D01*
X13856785Y-17571500D01*
X13842500Y-17585786D01*
X14156785Y-17757214D02*
X14128214Y-17742929D01*
X14113928Y-17728643D01*
X14099643Y-17700072D01*
X14099643Y-17614357D01*
X14113928Y-17585786D01*
X14128214Y-17571500D01*
X14156785Y-17557214D01*
X14199643Y-17557214D01*
X14228214Y-17571500D01*
X14242500Y-17585786D01*
X14256785Y-17614357D01*
X14256785Y-17700072D01*
X14242500Y-17728643D01*
X14228214Y-17742929D01*
X14199643Y-17757214D01*
X14156785Y-17757214D01*
X14428214Y-17757214D02*
X14399643Y-17742929D01*
X14385357Y-17714357D01*
X14385357Y-17457214D01*
X14656786Y-17742929D02*
X14628214Y-17757214D01*
X14571071Y-17757214D01*
X14542500Y-17742929D01*
X14528214Y-17714357D01*
X14528214Y-17600072D01*
X14542500Y-17571500D01*
X14571071Y-17557214D01*
X14628214Y-17557214D01*
X14656786Y-17571500D01*
X14671071Y-17600072D01*
X14671071Y-17628643D01*
X14528214Y-17657214D01*
X14785357Y-17742929D02*
X14813928Y-17757214D01*
X14871071Y-17757214D01*
X14899643Y-17742929D01*
X14913928Y-17714357D01*
X14913928Y-17700072D01*
X14899643Y-17671500D01*
X14871071Y-17657214D01*
X14828214Y-17657214D01*
X14799643Y-17642929D01*
X14785357Y-17614357D01*
X14785357Y-17600072D01*
X14799643Y-17571500D01*
X14828214Y-17557214D01*
X14871071Y-17557214D01*
X14899643Y-17571500D01*
X15013928Y-17871500D02*
X15028214Y-17857214D01*
X15056786Y-17814357D01*
X15071071Y-17785786D01*
X15085357Y-17742929D01*
X15099643Y-17671500D01*
X15099643Y-17614357D01*
X15085357Y-17542929D01*
X15071071Y-17500072D01*
X15056786Y-17471500D01*
X15028214Y-17428643D01*
X15013928Y-17414357D01*
M02*
