M48
;DRILL file {KiCad 4.0.4-stable} date 12/28/18 13:00:23
;FORMAT={-:-/ absolute / metric / decimal}
FMAT,2
METRIC,TZ
T1C0.400
T2C0.762
T3C0.800
T4C1.200
T5C3.200
%
G90
G05
M71
T1
X90.85Y-130.625
X114.2Y-104.1
X115.932Y-104.707
X121.142Y-113.058
X123.5Y-100.8
X123.517Y-114.15
X124.7Y-104.675
X125.958Y-116.758
X128.5Y-98.608
X128.502Y-115.475
X129.3Y-118.725
X129.7Y-113.525
X131.Y-118.
X132.2Y-114.8
X136.Y-118.3
X137.2Y-116.125
X138.5Y-117.375
X146.5Y-120.45
X148.725Y-131.9
X149.4Y-129.3
X161.5Y-99.9
X161.5Y-101.3
X164.Y-99.9
X165.9Y-99.9
X167.2Y-99.9
X169.7Y-99.9
X188.5Y-105.3
X188.5Y-108.8
X191.Y-103.775
X191.Y-109.1
X198.5Y-101.1
T2
X96.7Y-127.1
X96.7Y-129.6
X99.2Y-127.1
X99.2Y-129.6
X101.7Y-127.1
X101.7Y-129.6
X104.751Y-102.504
X104.751Y-107.504
X107.251Y-102.504
X107.251Y-107.504
X109.751Y-102.504
X109.751Y-107.504
X112.251Y-102.504
X112.251Y-107.504
X114.751Y-102.504
X114.751Y-107.504
X117.251Y-102.504
X117.251Y-107.504
X119.751Y-102.504
X119.751Y-107.504
X122.251Y-102.504
X122.251Y-107.504
X124.751Y-102.504
X124.751Y-107.504
X127.251Y-102.504
X127.251Y-107.504
X129.751Y-102.504
X129.751Y-107.504
X131.49Y-126.81
X131.49Y-129.35
X131.49Y-131.89
X131.49Y-134.43
X132.251Y-102.504
X132.251Y-107.504
X134.751Y-102.504
X134.751Y-107.504
X137.251Y-102.504
X137.251Y-107.504
X139.751Y-102.504
X139.751Y-107.504
X142.251Y-102.504
X142.251Y-107.504
X144.751Y-102.504
X144.751Y-107.504
X147.251Y-102.504
X147.251Y-107.504
X149.751Y-102.504
X149.751Y-107.504
X152.251Y-102.504
X152.251Y-107.504
X154.751Y-102.504
X154.751Y-107.504
X157.251Y-102.504
X157.251Y-107.504
X159.751Y-102.504
X159.751Y-107.504
X162.251Y-102.504
X162.251Y-107.504
X164.751Y-102.504
X164.751Y-107.504
X167.251Y-102.504
X167.251Y-107.504
X169.751Y-102.504
X169.751Y-107.504
X172.251Y-102.504
X172.251Y-107.504
X174.751Y-102.504
X174.751Y-107.504
X177.251Y-102.504
X177.251Y-107.504
X179.751Y-102.504
X179.751Y-107.504
X182.251Y-102.504
X182.251Y-107.504
X184.751Y-102.504
X184.751Y-107.504
X187.251Y-102.504
X187.251Y-107.504
X189.751Y-102.504
X189.751Y-107.504
X192.251Y-102.504
X192.251Y-107.504
T3
X87.04Y-123.
X87.04Y-138.24
X89.58Y-123.
X89.58Y-138.24
X92.12Y-123.
X92.12Y-138.24
X94.66Y-123.
X94.66Y-138.24
X97.2Y-123.
X97.2Y-138.24
X99.74Y-123.
X99.74Y-138.24
X102.28Y-123.
X102.28Y-138.24
X104.82Y-123.
X104.82Y-138.24
X107.36Y-123.
X107.36Y-138.24
X109.9Y-123.
X109.9Y-138.24
X112.44Y-123.
X112.44Y-138.24
X114.98Y-123.
X114.98Y-138.24
X117.52Y-123.
X117.52Y-138.24
X120.06Y-123.
X120.06Y-138.24
X122.6Y-123.
X122.6Y-138.24
X125.14Y-123.
X125.14Y-138.24
X127.68Y-123.
X127.68Y-138.24
X130.22Y-123.
X130.22Y-138.24
X132.76Y-123.
X132.76Y-138.24
X135.3Y-123.
X135.3Y-138.24
T4
X202.8Y-126.
X207.8Y-121.
X207.8Y-131.
X210.3Y-121.
X210.3Y-131.
T5
X91.5Y-96.
X91.5Y-146.2
X91.501Y-105.004
X205.5Y-96.
X205.5Y-146.2
X205.501Y-105.004
T3
X203.15Y-121.G85X202.45Y-121.
G05
X203.15Y-123.5G85X202.45Y-123.5
G05
X203.15Y-128.5G85X202.45Y-128.5
G05
X203.15Y-131.G85X202.45Y-131.
G05
X207.8Y-126.35G85X207.8Y-125.65
G05
T0
M30
