G04 #@! TF.FileFunction,Soldermask,Bot*
%FSLAX46Y46*%
G04 Gerber Fmt 4.6, Leading zero omitted, Abs format (unit mm)*
G04 Created by KiCad (PCBNEW 4.0.4-stable) date 12/28/18 13:00:29*
%MOMM*%
%LPD*%
G01*
G04 APERTURE LIST*
%ADD10C,0.100000*%
%ADD11C,0.150000*%
%ADD12C,4.400000*%
%ADD13C,1.924000*%
%ADD14R,2.000000X2.000000*%
%ADD15O,2.000000X2.000000*%
%ADD16R,1.900000X2.600000*%
%ADD17R,2.600000X1.900000*%
G04 APERTURE END LIST*
D10*
D11*
X211500000Y-150700000D02*
X211500000Y-91500000D01*
X85500000Y-150700000D02*
X85500000Y-91500000D01*
X85500000Y-91500000D02*
X211500000Y-91500000D01*
X85500000Y-150700000D02*
X211500000Y-150700000D01*
D12*
X91501100Y-105003600D03*
D13*
X192251100Y-107503600D03*
X189751100Y-107503600D03*
X187251100Y-107503600D03*
X184751100Y-107503600D03*
X182251100Y-107503600D03*
X179751100Y-107503600D03*
X177251100Y-107503600D03*
X174751100Y-107503600D03*
X172251100Y-107503600D03*
X169751100Y-107503600D03*
X167251100Y-107503600D03*
X164751100Y-107503600D03*
X162251100Y-107503600D03*
X159751100Y-107503600D03*
X157251100Y-107503600D03*
X154751100Y-107503600D03*
X152251100Y-107503600D03*
X149751100Y-107503600D03*
X147251100Y-107503600D03*
X144751100Y-107503600D03*
X142251100Y-107503600D03*
X139751100Y-107503600D03*
X137251100Y-107503600D03*
X134751100Y-107503600D03*
X132251100Y-107503600D03*
X129751100Y-107503600D03*
X127251100Y-107503600D03*
X124751100Y-107503600D03*
X122251100Y-107503600D03*
X119751100Y-107503600D03*
X117251100Y-107503600D03*
X114751100Y-107503600D03*
X112251100Y-107503600D03*
X109751100Y-107503600D03*
X107251100Y-107503600D03*
X104751100Y-107503600D03*
X192251100Y-102503600D03*
X189751100Y-102503600D03*
X187251100Y-102503600D03*
X184751100Y-102503600D03*
X182251100Y-102503600D03*
X179751100Y-102503600D03*
X177251100Y-102503600D03*
X174751100Y-102503600D03*
X172251100Y-102503600D03*
X169751100Y-102503600D03*
X167251100Y-102503600D03*
X164751100Y-102503600D03*
X162251100Y-102503600D03*
X159751100Y-102503600D03*
X157251100Y-102503600D03*
X154751100Y-102503600D03*
X152251100Y-102503600D03*
X149751100Y-102503600D03*
X147251100Y-102503600D03*
X144751100Y-102503600D03*
X142251100Y-102503600D03*
X139751100Y-102503600D03*
X137251100Y-102503600D03*
X134751100Y-102503600D03*
X132251100Y-102503600D03*
X129751100Y-102503600D03*
X127251100Y-102503600D03*
X124751100Y-102503600D03*
X122251100Y-102503600D03*
X119751100Y-102503600D03*
X117251100Y-102503600D03*
X114751100Y-102503600D03*
X112251100Y-102503600D03*
X109751100Y-102503600D03*
X107251100Y-102503600D03*
X104751100Y-102503600D03*
D12*
X205501100Y-105003600D03*
X205500000Y-96000000D03*
X91500000Y-96000000D03*
D13*
X96700000Y-127100000D03*
X99200000Y-127100000D03*
X101700000Y-127100000D03*
D14*
X135300000Y-123000000D03*
D15*
X87040000Y-138240000D03*
X132760000Y-123000000D03*
X89580000Y-138240000D03*
X130220000Y-123000000D03*
X92120000Y-138240000D03*
X127680000Y-123000000D03*
X94660000Y-138240000D03*
X125140000Y-123000000D03*
X97200000Y-138240000D03*
X122600000Y-123000000D03*
X99740000Y-138240000D03*
X120060000Y-123000000D03*
X102280000Y-138240000D03*
X117520000Y-123000000D03*
X104820000Y-138240000D03*
X114980000Y-123000000D03*
X107360000Y-138240000D03*
X112440000Y-123000000D03*
X109900000Y-138240000D03*
X109900000Y-123000000D03*
X112440000Y-138240000D03*
X107360000Y-123000000D03*
X114980000Y-138240000D03*
X104820000Y-123000000D03*
X117520000Y-138240000D03*
X102280000Y-123000000D03*
X120060000Y-138240000D03*
X99740000Y-123000000D03*
X122600000Y-138240000D03*
X97200000Y-123000000D03*
X125140000Y-138240000D03*
X94660000Y-123000000D03*
X127680000Y-138240000D03*
X92120000Y-123000000D03*
X130220000Y-138240000D03*
X89580000Y-123000000D03*
X132760000Y-138240000D03*
X87040000Y-123000000D03*
X135300000Y-138240000D03*
D13*
X131490000Y-134430000D03*
X131490000Y-131890000D03*
X131490000Y-129350000D03*
X131490000Y-126810000D03*
X101700000Y-129600000D03*
X99200000Y-129600000D03*
X96700000Y-129600000D03*
D12*
X205500000Y-146200000D03*
D13*
X202800000Y-126000000D03*
X207800000Y-121000000D03*
X207800000Y-131000000D03*
X210300000Y-121000000D03*
X210300000Y-131000000D03*
D16*
X207800000Y-126000000D03*
D17*
X202800000Y-123500000D03*
X202800000Y-128500000D03*
X202800000Y-131000000D03*
X202800000Y-121000000D03*
D12*
X91500000Y-146200000D03*
M02*
