  0
SECTION
  2
HEADER
  9
$ANGBASE
  50
0.0
  9
$ANGDIR
  70
  1
  9
$MEASUREMENT
  70
0
  0
ENDSEC
  0
SECTION
  2
TABLES
  0
TABLE
  2
LTYPE
  70
1
  0
LTYPE
  2
CONTINUOUS
  70
0
  3
Solid line
  72
65
  73
0
  40
0.0
  0
ENDTAB
  0
TABLE
  2
STYLE
  70
4
  0
STYLE
  2
KICAD
  70
0
  40
0
  41
1
  42
1
  50
0
  71
0
  3
isocp.shx
  0
STYLE
  2
KICADB
  70
0
  40
0
  41
1
  42
1
  50
0
  71
0
  3
isocp.shx
  0
STYLE
  2
KICADI
  70
0
  40
0
  41
1
  42
1
  50
15
  71
0
  3
isocp.shx
  0
STYLE
  2
KICADBI
  70
0
  40
0
  41
1
  42
1
  50
15
  71
0
  3
isocp.shx
  0
ENDTAB
  0
TABLE
  2
LAYER
  70
30
  0
LAYER
  2
BLACK
  70
0
  62
7
  6
CONTINUOUS
  0
LAYER
  2
GRAY1
  70
0
  62
251
  6
CONTINUOUS
  0
LAYER
  2
GRAY2
  70
0
  62
8
  6
CONTINUOUS
  0
LAYER
  2
GRAY3
  70
0
  62
9
  6
CONTINUOUS
  0
LAYER
  2
WHITE
  70
0
  62
7
  6
CONTINUOUS
  0
LAYER
  2
LYELLOW
  70
0
  62
51
  6
CONTINUOUS
  0
LAYER
  2
BLUE1
  70
0
  62
178
  6
CONTINUOUS
  0
LAYER
  2
GREEN1
  70
0
  62
98
  6
CONTINUOUS
  0
LAYER
  2
CYAN1
  70
0
  62
138
  6
CONTINUOUS
  0
LAYER
  2
RED1
  70
0
  62
18
  6
CONTINUOUS
  0
LAYER
  2
MAGENTA1
  70
0
  62
228
  6
CONTINUOUS
  0
LAYER
  2
BROWN1
  70
0
  62
58
  6
CONTINUOUS
  0
LAYER
  2
BLUE2
  70
0
  62
5
  6
CONTINUOUS
  0
LAYER
  2
GREEN2
  70
0
  62
3
  6
CONTINUOUS
  0
LAYER
  2
CYAN2
  70
0
  62
4
  6
CONTINUOUS
  0
LAYER
  2
RED2
  70
0
  62
1
  6
CONTINUOUS
  0
LAYER
  2
MAGENTA2
  70
0
  62
6
  6
CONTINUOUS
  0
LAYER
  2
BROWN2
  70
0
  62
54
  6
CONTINUOUS
  0
LAYER
  2
BLUE3
  70
0
  62
171
  6
CONTINUOUS
  0
LAYER
  2
GREEN3
  70
0
  62
91
  6
CONTINUOUS
  0
LAYER
  2
CYAN3
  70
0
  62
131
  6
CONTINUOUS
  0
LAYER
  2
RED3
  70
0
  62
11
  6
CONTINUOUS
  0
LAYER
  2
MAGENTA3
  70
0
  62
221
  6
CONTINUOUS
  0
LAYER
  2
YELLOW3
  70
0
  62
2
  6
CONTINUOUS
  0
LAYER
  2
BLUE4
  70
0
  62
5
  6
CONTINUOUS
  0
LAYER
  2
GREEN4
  70
0
  62
3
  6
CONTINUOUS
  0
LAYER
  2
CYAN4
  70
0
  62
4
  6
CONTINUOUS
  0
LAYER
  2
RED4
  70
0
  62
1
  6
CONTINUOUS
  0
LAYER
  2
MAGENTA4
  70
0
  62
6
  6
CONTINUOUS
  0
LAYER
  2
YELLOW4
  70
0
  62
2
  6
CONTINUOUS
  0
ENDTAB
  0
ENDSEC
  0
SECTION
  2
ENTITIES
0
LINE
8
Black
10
92.2553
20
-144.125
11
92.9195
21
-144.508
0
LINE
8
Black
10
92.9195
20
-144.508
11
93.4125
21
-145.096
0
LINE
8
Black
10
93.4125
20
-145.096
11
93.6749
21
-145.817
0
LINE
8
Black
10
93.6749
20
-145.817
11
93.6749
21
-146.583
0
LINE
8
Black
10
93.6749
20
-146.583
11
93.4125
21
-147.304
0
LINE
8
Black
10
93.4125
20
-147.304
11
92.9195
21
-147.892
0
LINE
8
Black
10
92.9195
20
-147.892
11
92.2553
21
-148.275
0
LINE
8
Black
10
92.2553
20
-148.275
11
91.5
21
-148.408
0
LINE
8
Black
10
91.5
20
-148.408
11
90.7447
21
-148.275
0
LINE
8
Black
10
90.7447
20
-148.275
11
90.0805
21
-147.892
0
LINE
8
Black
10
90.0805
20
-147.892
11
89.5875
21
-147.304
0
LINE
8
Black
10
89.5875
20
-147.304
11
89.3251
21
-146.583
0
LINE
8
Black
10
89.3251
20
-146.583
11
89.3251
21
-145.817
0
LINE
8
Black
10
89.3251
20
-145.817
11
89.5875
21
-145.096
0
LINE
8
Black
10
89.5875
20
-145.096
11
90.0805
21
-144.508
0
LINE
8
Black
10
90.0805
20
-144.508
11
90.7447
21
-144.125
0
LINE
8
Black
10
90.7447
20
-144.125
11
91.5
21
-143.992
0
LINE
8
Black
10
91.5
20
-143.992
11
92.2553
21
-144.125
0
LINE
8
Black
10
206.255
20
-144.125
11
206.92
21
-144.508
0
LINE
8
Black
10
206.92
20
-144.508
11
207.413
21
-145.096
0
LINE
8
Black
10
207.413
20
-145.096
11
207.675
21
-145.817
0
LINE
8
Black
10
207.675
20
-145.817
11
207.675
21
-146.583
0
LINE
8
Black
10
207.675
20
-146.583
11
207.413
21
-147.304
0
LINE
8
Black
10
207.413
20
-147.304
11
206.92
21
-147.892
0
LINE
8
Black
10
206.92
20
-147.892
11
206.255
21
-148.275
0
LINE
8
Black
10
206.255
20
-148.275
11
205.5
21
-148.408
0
LINE
8
Black
10
205.5
20
-148.408
11
204.745
21
-148.275
0
LINE
8
Black
10
204.745
20
-148.275
11
204.08
21
-147.892
0
LINE
8
Black
10
204.08
20
-147.892
11
203.587
21
-147.304
0
LINE
8
Black
10
203.587
20
-147.304
11
203.325
21
-146.583
0
LINE
8
Black
10
203.325
20
-146.583
11
203.325
21
-145.817
0
LINE
8
Black
10
203.325
20
-145.817
11
203.587
21
-145.096
0
LINE
8
Black
10
203.587
20
-145.096
11
204.08
21
-144.508
0
LINE
8
Black
10
204.08
20
-144.508
11
204.745
21
-144.125
0
LINE
8
Black
10
204.745
20
-144.125
11
205.5
21
-143.992
0
LINE
8
Black
10
205.5
20
-143.992
11
206.255
21
-144.125
0
LINE
8
Black
10
135.8
20
-137.37
11
136.066
21
-137.593
0
LINE
8
Black
10
136.066
20
-137.593
11
136.24
21
-137.894
0
LINE
8
Black
10
136.24
20
-137.894
11
136.3
21
-138.236
0
LINE
8
Black
10
136.3
20
-138.236
11
136.3
21
-138.244
0
LINE
8
Black
10
136.3
20
-138.244
11
136.24
21
-138.586
0
LINE
8
Black
10
136.24
20
-138.586
11
136.066
21
-138.887
0
LINE
8
Black
10
136.066
20
-138.887
11
135.8
21
-139.11
0
LINE
8
Black
10
135.8
20
-139.11
11
135.474
21
-139.229
0
LINE
8
Black
10
135.474
20
-139.229
11
135.126
21
-139.229
0
LINE
8
Black
10
135.126
20
-139.229
11
134.8
21
-139.11
0
LINE
8
Black
10
134.8
20
-139.11
11
134.534
21
-138.887
0
LINE
8
Black
10
134.534
20
-138.887
11
134.36
21
-138.586
0
LINE
8
Black
10
134.36
20
-138.586
11
134.3
21
-138.244
0
LINE
8
Black
10
134.3
20
-138.244
11
134.3
21
-138.236
0
LINE
8
Black
10
134.3
20
-138.236
11
134.36
21
-137.894
0
LINE
8
Black
10
134.36
20
-137.894
11
134.534
21
-137.593
0
LINE
8
Black
10
134.534
20
-137.593
11
134.8
21
-137.37
0
LINE
8
Black
10
134.8
20
-137.37
11
135.126
21
-137.251
0
LINE
8
Black
10
135.126
20
-137.251
11
135.474
21
-137.251
0
LINE
8
Black
10
135.474
20
-137.251
11
135.8
21
-137.37
0
LINE
8
Black
10
118.02
20
-137.37
11
118.286
21
-137.593
0
LINE
8
Black
10
118.286
20
-137.593
11
118.46
21
-137.894
0
LINE
8
Black
10
118.46
20
-137.894
11
118.52
21
-138.236
0
LINE
8
Black
10
118.52
20
-138.236
11
118.52
21
-138.244
0
LINE
8
Black
10
118.52
20
-138.244
11
118.46
21
-138.586
0
LINE
8
Black
10
118.46
20
-138.586
11
118.286
21
-138.887
0
LINE
8
Black
10
118.286
20
-138.887
11
118.02
21
-139.11
0
LINE
8
Black
10
118.02
20
-139.11
11
117.694
21
-139.229
0
LINE
8
Black
10
117.694
20
-139.229
11
117.346
21
-139.229
0
LINE
8
Black
10
117.346
20
-139.229
11
117.02
21
-139.11
0
LINE
8
Black
10
117.02
20
-139.11
11
116.754
21
-138.887
0
LINE
8
Black
10
116.754
20
-138.887
11
116.58
21
-138.586
0
LINE
8
Black
10
116.58
20
-138.586
11
116.52
21
-138.244
0
LINE
8
Black
10
116.52
20
-138.244
11
116.52
21
-138.236
0
LINE
8
Black
10
116.52
20
-138.236
11
116.58
21
-137.894
0
LINE
8
Black
10
116.58
20
-137.894
11
116.754
21
-137.593
0
LINE
8
Black
10
116.754
20
-137.593
11
117.02
21
-137.37
0
LINE
8
Black
10
117.02
20
-137.37
11
117.346
21
-137.251
0
LINE
8
Black
10
117.346
20
-137.251
11
117.694
21
-137.251
0
LINE
8
Black
10
117.694
20
-137.251
11
118.02
21
-137.37
0
LINE
8
Black
10
100.24
20
-137.37
11
100.506
21
-137.593
0
LINE
8
Black
10
100.506
20
-137.593
11
100.68
21
-137.894
0
LINE
8
Black
10
100.68
20
-137.894
11
100.74
21
-138.236
0
LINE
8
Black
10
100.74
20
-138.236
11
100.74
21
-138.244
0
LINE
8
Black
10
100.74
20
-138.244
11
100.68
21
-138.586
0
LINE
8
Black
10
100.68
20
-138.586
11
100.506
21
-138.887
0
LINE
8
Black
10
100.506
20
-138.887
11
100.24
21
-139.11
0
LINE
8
Black
10
100.24
20
-139.11
11
99.9136
21
-139.229
0
LINE
8
Black
10
99.9136
20
-139.229
11
99.5664
21
-139.229
0
LINE
8
Black
10
99.5664
20
-139.229
11
99.24
21
-139.11
0
LINE
8
Black
10
99.24
20
-139.11
11
98.974
21
-138.887
0
LINE
8
Black
10
98.974
20
-138.887
11
98.8003
21
-138.586
0
LINE
8
Black
10
98.8003
20
-138.586
11
98.74
21
-138.244
0
LINE
8
Black
10
98.74
20
-138.244
11
98.74
21
-138.236
0
LINE
8
Black
10
98.74
20
-138.236
11
98.8003
21
-137.894
0
LINE
8
Black
10
98.8003
20
-137.894
11
98.974
21
-137.593
0
LINE
8
Black
10
98.974
20
-137.593
11
99.24
21
-137.37
0
LINE
8
Black
10
99.24
20
-137.37
11
99.5664
21
-137.251
0
LINE
8
Black
10
99.5664
20
-137.251
11
99.9136
21
-137.251
0
LINE
8
Black
10
99.9136
20
-137.251
11
100.24
21
-137.37
0
LINE
8
Black
10
133.26
20
-137.37
11
133.526
21
-137.593
0
LINE
8
Black
10
133.526
20
-137.593
11
133.7
21
-137.894
0
LINE
8
Black
10
133.7
20
-137.894
11
133.76
21
-138.236
0
LINE
8
Black
10
133.76
20
-138.236
11
133.76
21
-138.244
0
LINE
8
Black
10
133.76
20
-138.244
11
133.7
21
-138.586
0
LINE
8
Black
10
133.7
20
-138.586
11
133.526
21
-138.887
0
LINE
8
Black
10
133.526
20
-138.887
11
133.26
21
-139.11
0
LINE
8
Black
10
133.26
20
-139.11
11
132.934
21
-139.229
0
LINE
8
Black
10
132.934
20
-139.229
11
132.586
21
-139.229
0
LINE
8
Black
10
132.586
20
-139.229
11
132.26
21
-139.11
0
LINE
8
Black
10
132.26
20
-139.11
11
131.994
21
-138.887
0
LINE
8
Black
10
131.994
20
-138.887
11
131.82
21
-138.586
0
LINE
8
Black
10
131.82
20
-138.586
11
131.76
21
-138.244
0
LINE
8
Black
10
131.76
20
-138.244
11
131.76
21
-138.236
0
LINE
8
Black
10
131.76
20
-138.236
11
131.82
21
-137.894
0
LINE
8
Black
10
131.82
20
-137.894
11
131.994
21
-137.593
0
LINE
8
Black
10
131.994
20
-137.593
11
132.26
21
-137.37
0
LINE
8
Black
10
132.26
20
-137.37
11
132.586
21
-137.251
0
LINE
8
Black
10
132.586
20
-137.251
11
132.934
21
-137.251
0
LINE
8
Black
10
132.934
20
-137.251
11
133.26
21
-137.37
0
LINE
8
Black
10
102.78
20
-137.37
11
103.046
21
-137.593
0
LINE
8
Black
10
103.046
20
-137.593
11
103.22
21
-137.894
0
LINE
8
Black
10
103.22
20
-137.894
11
103.28
21
-138.236
0
LINE
8
Black
10
103.28
20
-138.236
11
103.28
21
-138.244
0
LINE
8
Black
10
103.28
20
-138.244
11
103.22
21
-138.586
0
LINE
8
Black
10
103.22
20
-138.586
11
103.046
21
-138.887
0
LINE
8
Black
10
103.046
20
-138.887
11
102.78
21
-139.11
0
LINE
8
Black
10
102.78
20
-139.11
11
102.454
21
-139.229
0
LINE
8
Black
10
102.454
20
-139.229
11
102.106
21
-139.229
0
LINE
8
Black
10
102.106
20
-139.229
11
101.78
21
-139.11
0
LINE
8
Black
10
101.78
20
-139.11
11
101.514
21
-138.887
0
LINE
8
Black
10
101.514
20
-138.887
11
101.34
21
-138.586
0
LINE
8
Black
10
101.34
20
-138.586
11
101.28
21
-138.244
0
LINE
8
Black
10
101.28
20
-138.244
11
101.28
21
-138.236
0
LINE
8
Black
10
101.28
20
-138.236
11
101.34
21
-137.894
0
LINE
8
Black
10
101.34
20
-137.894
11
101.514
21
-137.593
0
LINE
8
Black
10
101.514
20
-137.593
11
101.78
21
-137.37
0
LINE
8
Black
10
101.78
20
-137.37
11
102.106
21
-137.251
0
LINE
8
Black
10
102.106
20
-137.251
11
102.454
21
-137.251
0
LINE
8
Black
10
102.454
20
-137.251
11
102.78
21
-137.37
0
LINE
8
Black
10
130.72
20
-137.37
11
130.986
21
-137.593
0
LINE
8
Black
10
130.986
20
-137.593
11
131.16
21
-137.894
0
LINE
8
Black
10
131.16
20
-137.894
11
131.22
21
-138.236
0
LINE
8
Black
10
131.22
20
-138.236
11
131.22
21
-138.244
0
LINE
8
Black
10
131.22
20
-138.244
11
131.16
21
-138.586
0
LINE
8
Black
10
131.16
20
-138.586
11
130.986
21
-138.887
0
LINE
8
Black
10
130.986
20
-138.887
11
130.72
21
-139.11
0
LINE
8
Black
10
130.72
20
-139.11
11
130.394
21
-139.229
0
LINE
8
Black
10
130.394
20
-139.229
11
130.046
21
-139.229
0
LINE
8
Black
10
130.046
20
-139.229
11
129.72
21
-139.11
0
LINE
8
Black
10
129.72
20
-139.11
11
129.454
21
-138.887
0
LINE
8
Black
10
129.454
20
-138.887
11
129.28
21
-138.586
0
LINE
8
Black
10
129.28
20
-138.586
11
129.22
21
-138.244
0
LINE
8
Black
10
129.22
20
-138.244
11
129.22
21
-138.236
0
LINE
8
Black
10
129.22
20
-138.236
11
129.28
21
-137.894
0
LINE
8
Black
10
129.28
20
-137.894
11
129.454
21
-137.593
0
LINE
8
Black
10
129.454
20
-137.593
11
129.72
21
-137.37
0
LINE
8
Black
10
129.72
20
-137.37
11
130.046
21
-137.251
0
LINE
8
Black
10
130.046
20
-137.251
11
130.394
21
-137.251
0
LINE
8
Black
10
130.394
20
-137.251
11
130.72
21
-137.37
0
LINE
8
Black
10
105.32
20
-137.37
11
105.586
21
-137.593
0
LINE
8
Black
10
105.586
20
-137.593
11
105.76
21
-137.894
0
LINE
8
Black
10
105.76
20
-137.894
11
105.82
21
-138.236
0
LINE
8
Black
10
105.82
20
-138.236
11
105.82
21
-138.244
0
LINE
8
Black
10
105.82
20
-138.244
11
105.76
21
-138.586
0
LINE
8
Black
10
105.76
20
-138.586
11
105.586
21
-138.887
0
LINE
8
Black
10
105.586
20
-138.887
11
105.32
21
-139.11
0
LINE
8
Black
10
105.32
20
-139.11
11
104.994
21
-139.229
0
LINE
8
Black
10
104.994
20
-139.229
11
104.646
21
-139.229
0
LINE
8
Black
10
104.646
20
-139.229
11
104.32
21
-139.11
0
LINE
8
Black
10
104.32
20
-139.11
11
104.054
21
-138.887
0
LINE
8
Black
10
104.054
20
-138.887
11
103.88
21
-138.586
0
LINE
8
Black
10
103.88
20
-138.586
11
103.82
21
-138.244
0
LINE
8
Black
10
103.82
20
-138.244
11
103.82
21
-138.236
0
LINE
8
Black
10
103.82
20
-138.236
11
103.88
21
-137.894
0
LINE
8
Black
10
103.88
20
-137.894
11
104.054
21
-137.593
0
LINE
8
Black
10
104.054
20
-137.593
11
104.32
21
-137.37
0
LINE
8
Black
10
104.32
20
-137.37
11
104.646
21
-137.251
0
LINE
8
Black
10
104.646
20
-137.251
11
104.994
21
-137.251
0
LINE
8
Black
10
104.994
20
-137.251
11
105.32
21
-137.37
0
LINE
8
Black
10
128.18
20
-137.37
11
128.446
21
-137.593
0
LINE
8
Black
10
128.446
20
-137.593
11
128.62
21
-137.894
0
LINE
8
Black
10
128.62
20
-137.894
11
128.68
21
-138.236
0
LINE
8
Black
10
128.68
20
-138.236
11
128.68
21
-138.244
0
LINE
8
Black
10
128.68
20
-138.244
11
128.62
21
-138.586
0
LINE
8
Black
10
128.62
20
-138.586
11
128.446
21
-138.887
0
LINE
8
Black
10
128.446
20
-138.887
11
128.18
21
-139.11
0
LINE
8
Black
10
128.18
20
-139.11
11
127.854
21
-139.229
0
LINE
8
Black
10
127.854
20
-139.229
11
127.506
21
-139.229
0
LINE
8
Black
10
127.506
20
-139.229
11
127.18
21
-139.11
0
LINE
8
Black
10
127.18
20
-139.11
11
126.914
21
-138.887
0
LINE
8
Black
10
126.914
20
-138.887
11
126.74
21
-138.586
0
LINE
8
Black
10
126.74
20
-138.586
11
126.68
21
-138.244
0
LINE
8
Black
10
126.68
20
-138.244
11
126.68
21
-138.236
0
LINE
8
Black
10
126.68
20
-138.236
11
126.74
21
-137.894
0
LINE
8
Black
10
126.74
20
-137.894
11
126.914
21
-137.593
0
LINE
8
Black
10
126.914
20
-137.593
11
127.18
21
-137.37
0
LINE
8
Black
10
127.18
20
-137.37
11
127.506
21
-137.251
0
LINE
8
Black
10
127.506
20
-137.251
11
127.854
21
-137.251
0
LINE
8
Black
10
127.854
20
-137.251
11
128.18
21
-137.37
0
LINE
8
Black
10
107.86
20
-137.37
11
108.126
21
-137.593
0
LINE
8
Black
10
108.126
20
-137.593
11
108.3
21
-137.894
0
LINE
8
Black
10
108.3
20
-137.894
11
108.36
21
-138.236
0
LINE
8
Black
10
108.36
20
-138.236
11
108.36
21
-138.244
0
LINE
8
Black
10
108.36
20
-138.244
11
108.3
21
-138.586
0
LINE
8
Black
10
108.3
20
-138.586
11
108.126
21
-138.887
0
LINE
8
Black
10
108.126
20
-138.887
11
107.86
21
-139.11
0
LINE
8
Black
10
107.86
20
-139.11
11
107.534
21
-139.229
0
LINE
8
Black
10
107.534
20
-139.229
11
107.186
21
-139.229
0
LINE
8
Black
10
107.186
20
-139.229
11
106.86
21
-139.11
0
LINE
8
Black
10
106.86
20
-139.11
11
106.594
21
-138.887
0
LINE
8
Black
10
106.594
20
-138.887
11
106.42
21
-138.586
0
LINE
8
Black
10
106.42
20
-138.586
11
106.36
21
-138.244
0
LINE
8
Black
10
106.36
20
-138.244
11
106.36
21
-138.236
0
LINE
8
Black
10
106.36
20
-138.236
11
106.42
21
-137.894
0
LINE
8
Black
10
106.42
20
-137.894
11
106.594
21
-137.593
0
LINE
8
Black
10
106.594
20
-137.593
11
106.86
21
-137.37
0
LINE
8
Black
10
106.86
20
-137.37
11
107.186
21
-137.251
0
LINE
8
Black
10
107.186
20
-137.251
11
107.534
21
-137.251
0
LINE
8
Black
10
107.534
20
-137.251
11
107.86
21
-137.37
0
LINE
8
Black
10
125.64
20
-137.37
11
125.906
21
-137.593
0
LINE
8
Black
10
125.906
20
-137.593
11
126.08
21
-137.894
0
LINE
8
Black
10
126.08
20
-137.894
11
126.14
21
-138.236
0
LINE
8
Black
10
126.14
20
-138.236
11
126.14
21
-138.244
0
LINE
8
Black
10
126.14
20
-138.244
11
126.08
21
-138.586
0
LINE
8
Black
10
126.08
20
-138.586
11
125.906
21
-138.887
0
LINE
8
Black
10
125.906
20
-138.887
11
125.64
21
-139.11
0
LINE
8
Black
10
125.64
20
-139.11
11
125.314
21
-139.229
0
LINE
8
Black
10
125.314
20
-139.229
11
124.966
21
-139.229
0
LINE
8
Black
10
124.966
20
-139.229
11
124.64
21
-139.11
0
LINE
8
Black
10
124.64
20
-139.11
11
124.374
21
-138.887
0
LINE
8
Black
10
124.374
20
-138.887
11
124.2
21
-138.586
0
LINE
8
Black
10
124.2
20
-138.586
11
124.14
21
-138.244
0
LINE
8
Black
10
124.14
20
-138.244
11
124.14
21
-138.236
0
LINE
8
Black
10
124.14
20
-138.236
11
124.2
21
-137.894
0
LINE
8
Black
10
124.2
20
-137.894
11
124.374
21
-137.593
0
LINE
8
Black
10
124.374
20
-137.593
11
124.64
21
-137.37
0
LINE
8
Black
10
124.64
20
-137.37
11
124.966
21
-137.251
0
LINE
8
Black
10
124.966
20
-137.251
11
125.314
21
-137.251
0
LINE
8
Black
10
125.314
20
-137.251
11
125.64
21
-137.37
0
LINE
8
Black
10
110.4
20
-137.37
11
110.666
21
-137.593
0
LINE
8
Black
10
110.666
20
-137.593
11
110.84
21
-137.894
0
LINE
8
Black
10
110.84
20
-137.894
11
110.9
21
-138.236
0
LINE
8
Black
10
110.9
20
-138.236
11
110.9
21
-138.244
0
LINE
8
Black
10
110.9
20
-138.244
11
110.84
21
-138.586
0
LINE
8
Black
10
110.84
20
-138.586
11
110.666
21
-138.887
0
LINE
8
Black
10
110.666
20
-138.887
11
110.4
21
-139.11
0
LINE
8
Black
10
110.4
20
-139.11
11
110.074
21
-139.229
0
LINE
8
Black
10
110.074
20
-139.229
11
109.726
21
-139.229
0
LINE
8
Black
10
109.726
20
-139.229
11
109.4
21
-139.11
0
LINE
8
Black
10
109.4
20
-139.11
11
109.134
21
-138.887
0
LINE
8
Black
10
109.134
20
-138.887
11
108.96
21
-138.586
0
LINE
8
Black
10
108.96
20
-138.586
11
108.9
21
-138.244
0
LINE
8
Black
10
108.9
20
-138.244
11
108.9
21
-138.236
0
LINE
8
Black
10
108.9
20
-138.236
11
108.96
21
-137.894
0
LINE
8
Black
10
108.96
20
-137.894
11
109.134
21
-137.593
0
LINE
8
Black
10
109.134
20
-137.593
11
109.4
21
-137.37
0
LINE
8
Black
10
109.4
20
-137.37
11
109.726
21
-137.251
0
LINE
8
Black
10
109.726
20
-137.251
11
110.074
21
-137.251
0
LINE
8
Black
10
110.074
20
-137.251
11
110.4
21
-137.37
0
LINE
8
Black
10
123.1
20
-137.37
11
123.366
21
-137.593
0
LINE
8
Black
10
123.366
20
-137.593
11
123.54
21
-137.894
0
LINE
8
Black
10
123.54
20
-137.894
11
123.6
21
-138.236
0
LINE
8
Black
10
123.6
20
-138.236
11
123.6
21
-138.244
0
LINE
8
Black
10
123.6
20
-138.244
11
123.54
21
-138.586
0
LINE
8
Black
10
123.54
20
-138.586
11
123.366
21
-138.887
0
LINE
8
Black
10
123.366
20
-138.887
11
123.1
21
-139.11
0
LINE
8
Black
10
123.1
20
-139.11
11
122.774
21
-139.229
0
LINE
8
Black
10
122.774
20
-139.229
11
122.426
21
-139.229
0
LINE
8
Black
10
122.426
20
-139.229
11
122.1
21
-139.11
0
LINE
8
Black
10
122.1
20
-139.11
11
121.834
21
-138.887
0
LINE
8
Black
10
121.834
20
-138.887
11
121.66
21
-138.586
0
LINE
8
Black
10
121.66
20
-138.586
11
121.6
21
-138.244
0
LINE
8
Black
10
121.6
20
-138.244
11
121.6
21
-138.236
0
LINE
8
Black
10
121.6
20
-138.236
11
121.66
21
-137.894
0
LINE
8
Black
10
121.66
20
-137.894
11
121.834
21
-137.593
0
LINE
8
Black
10
121.834
20
-137.593
11
122.1
21
-137.37
0
LINE
8
Black
10
122.1
20
-137.37
11
122.426
21
-137.251
0
LINE
8
Black
10
122.426
20
-137.251
11
122.774
21
-137.251
0
LINE
8
Black
10
122.774
20
-137.251
11
123.1
21
-137.37
0
LINE
8
Black
10
112.94
20
-137.37
11
113.206
21
-137.593
0
LINE
8
Black
10
113.206
20
-137.593
11
113.38
21
-137.894
0
LINE
8
Black
10
113.38
20
-137.894
11
113.44
21
-138.236
0
LINE
8
Black
10
113.44
20
-138.236
11
113.44
21
-138.244
0
LINE
8
Black
10
113.44
20
-138.244
11
113.38
21
-138.586
0
LINE
8
Black
10
113.38
20
-138.586
11
113.206
21
-138.887
0
LINE
8
Black
10
113.206
20
-138.887
11
112.94
21
-139.11
0
LINE
8
Black
10
112.94
20
-139.11
11
112.614
21
-139.229
0
LINE
8
Black
10
112.614
20
-139.229
11
112.266
21
-139.229
0
LINE
8
Black
10
112.266
20
-139.229
11
111.94
21
-139.11
0
LINE
8
Black
10
111.94
20
-139.11
11
111.674
21
-138.887
0
LINE
8
Black
10
111.674
20
-138.887
11
111.5
21
-138.586
0
LINE
8
Black
10
111.5
20
-138.586
11
111.44
21
-138.244
0
LINE
8
Black
10
111.44
20
-138.244
11
111.44
21
-138.236
0
LINE
8
Black
10
111.44
20
-138.236
11
111.5
21
-137.894
0
LINE
8
Black
10
111.5
20
-137.894
11
111.674
21
-137.593
0
LINE
8
Black
10
111.674
20
-137.593
11
111.94
21
-137.37
0
LINE
8
Black
10
111.94
20
-137.37
11
112.266
21
-137.251
0
LINE
8
Black
10
112.266
20
-137.251
11
112.614
21
-137.251
0
LINE
8
Black
10
112.614
20
-137.251
11
112.94
21
-137.37
0
LINE
8
Black
10
120.56
20
-137.37
11
120.826
21
-137.593
0
LINE
8
Black
10
120.826
20
-137.593
11
121
21
-137.894
0
LINE
8
Black
10
121
20
-137.894
11
121.06
21
-138.236
0
LINE
8
Black
10
121.06
20
-138.236
11
121.06
21
-138.244
0
LINE
8
Black
10
121.06
20
-138.244
11
121
21
-138.586
0
LINE
8
Black
10
121
20
-138.586
11
120.826
21
-138.887
0
LINE
8
Black
10
120.826
20
-138.887
11
120.56
21
-139.11
0
LINE
8
Black
10
120.56
20
-139.11
11
120.234
21
-139.229
0
LINE
8
Black
10
120.234
20
-139.229
11
119.886
21
-139.229
0
LINE
8
Black
10
119.886
20
-139.229
11
119.56
21
-139.11
0
LINE
8
Black
10
119.56
20
-139.11
11
119.294
21
-138.887
0
LINE
8
Black
10
119.294
20
-138.887
11
119.12
21
-138.586
0
LINE
8
Black
10
119.12
20
-138.586
11
119.06
21
-138.244
0
LINE
8
Black
10
119.06
20
-138.244
11
119.06
21
-138.236
0
LINE
8
Black
10
119.06
20
-138.236
11
119.12
21
-137.894
0
LINE
8
Black
10
119.12
20
-137.894
11
119.294
21
-137.593
0
LINE
8
Black
10
119.294
20
-137.593
11
119.56
21
-137.37
0
LINE
8
Black
10
119.56
20
-137.37
11
119.886
21
-137.251
0
LINE
8
Black
10
119.886
20
-137.251
11
120.234
21
-137.251
0
LINE
8
Black
10
120.234
20
-137.251
11
120.56
21
-137.37
0
LINE
8
Black
10
115.48
20
-137.37
11
115.746
21
-137.593
0
LINE
8
Black
10
115.746
20
-137.593
11
115.92
21
-137.894
0
LINE
8
Black
10
115.92
20
-137.894
11
115.98
21
-138.236
0
LINE
8
Black
10
115.98
20
-138.236
11
115.98
21
-138.244
0
LINE
8
Black
10
115.98
20
-138.244
11
115.92
21
-138.586
0
LINE
8
Black
10
115.92
20
-138.586
11
115.746
21
-138.887
0
LINE
8
Black
10
115.746
20
-138.887
11
115.48
21
-139.11
0
LINE
8
Black
10
115.48
20
-139.11
11
115.154
21
-139.229
0
LINE
8
Black
10
115.154
20
-139.229
11
114.806
21
-139.229
0
LINE
8
Black
10
114.806
20
-139.229
11
114.48
21
-139.11
0
LINE
8
Black
10
114.48
20
-139.11
11
114.214
21
-138.887
0
LINE
8
Black
10
114.214
20
-138.887
11
114.04
21
-138.586
0
LINE
8
Black
10
114.04
20
-138.586
11
113.98
21
-138.244
0
LINE
8
Black
10
113.98
20
-138.244
11
113.98
21
-138.236
0
LINE
8
Black
10
113.98
20
-138.236
11
114.04
21
-137.894
0
LINE
8
Black
10
114.04
20
-137.894
11
114.214
21
-137.593
0
LINE
8
Black
10
114.214
20
-137.593
11
114.48
21
-137.37
0
LINE
8
Black
10
114.48
20
-137.37
11
114.806
21
-137.251
0
LINE
8
Black
10
114.806
20
-137.251
11
115.154
21
-137.251
0
LINE
8
Black
10
115.154
20
-137.251
11
115.48
21
-137.37
0
LINE
8
Black
10
97.7
20
-137.37
11
97.966
21
-137.593
0
LINE
8
Black
10
97.966
20
-137.593
11
98.1397
21
-137.894
0
LINE
8
Black
10
98.1397
20
-137.894
11
98.2
21
-138.236
0
LINE
8
Black
10
98.2
20
-138.236
11
98.2
21
-138.244
0
LINE
8
Black
10
98.2
20
-138.244
11
98.1397
21
-138.586
0
LINE
8
Black
10
98.1397
20
-138.586
11
97.966
21
-138.887
0
LINE
8
Black
10
97.966
20
-138.887
11
97.7
21
-139.11
0
LINE
8
Black
10
97.7
20
-139.11
11
97.3736
21
-139.229
0
LINE
8
Black
10
97.3736
20
-139.229
11
97.0264
21
-139.229
0
LINE
8
Black
10
97.0264
20
-139.229
11
96.7
21
-139.11
0
LINE
8
Black
10
96.7
20
-139.11
11
96.434
21
-138.887
0
LINE
8
Black
10
96.434
20
-138.887
11
96.2603
21
-138.586
0
LINE
8
Black
10
96.2603
20
-138.586
11
96.2
21
-138.244
0
LINE
8
Black
10
96.2
20
-138.244
11
96.2
21
-138.236
0
LINE
8
Black
10
96.2
20
-138.236
11
96.2603
21
-137.894
0
LINE
8
Black
10
96.2603
20
-137.894
11
96.434
21
-137.593
0
LINE
8
Black
10
96.434
20
-137.593
11
96.7
21
-137.37
0
LINE
8
Black
10
96.7
20
-137.37
11
97.0264
21
-137.251
0
LINE
8
Black
10
97.0264
20
-137.251
11
97.3736
21
-137.251
0
LINE
8
Black
10
97.3736
20
-137.251
11
97.7
21
-137.37
0
LINE
8
Black
10
87.54
20
-137.37
11
87.806
21
-137.593
0
LINE
8
Black
10
87.806
20
-137.593
11
87.9797
21
-137.894
0
LINE
8
Black
10
87.9797
20
-137.894
11
88.04
21
-138.236
0
LINE
8
Black
10
88.04
20
-138.236
11
88.04
21
-138.244
0
LINE
8
Black
10
88.04
20
-138.244
11
87.9797
21
-138.586
0
LINE
8
Black
10
87.9797
20
-138.586
11
87.806
21
-138.887
0
LINE
8
Black
10
87.806
20
-138.887
11
87.54
21
-139.11
0
LINE
8
Black
10
87.54
20
-139.11
11
87.2136
21
-139.229
0
LINE
8
Black
10
87.2136
20
-139.229
11
86.8664
21
-139.229
0
LINE
8
Black
10
86.8664
20
-139.229
11
86.54
21
-139.11
0
LINE
8
Black
10
86.54
20
-139.11
11
86.274
21
-138.887
0
LINE
8
Black
10
86.274
20
-138.887
11
86.1003
21
-138.586
0
LINE
8
Black
10
86.1003
20
-138.586
11
86.04
21
-138.244
0
LINE
8
Black
10
86.04
20
-138.244
11
86.04
21
-138.236
0
LINE
8
Black
10
86.04
20
-138.236
11
86.1003
21
-137.894
0
LINE
8
Black
10
86.1003
20
-137.894
11
86.274
21
-137.593
0
LINE
8
Black
10
86.274
20
-137.593
11
86.54
21
-137.37
0
LINE
8
Black
10
86.54
20
-137.37
11
86.8664
21
-137.251
0
LINE
8
Black
10
86.8664
20
-137.251
11
87.2136
21
-137.251
0
LINE
8
Black
10
87.2136
20
-137.251
11
87.54
21
-137.37
0
LINE
8
Black
10
90.08
20
-137.37
11
90.346
21
-137.593
0
LINE
8
Black
10
90.346
20
-137.593
11
90.5197
21
-137.894
0
LINE
8
Black
10
90.5197
20
-137.894
11
90.58
21
-138.236
0
LINE
8
Black
10
90.58
20
-138.236
11
90.58
21
-138.244
0
LINE
8
Black
10
90.58
20
-138.244
11
90.5197
21
-138.586
0
LINE
8
Black
10
90.5197
20
-138.586
11
90.346
21
-138.887
0
LINE
8
Black
10
90.346
20
-138.887
11
90.08
21
-139.11
0
LINE
8
Black
10
90.08
20
-139.11
11
89.7536
21
-139.229
0
LINE
8
Black
10
89.7536
20
-139.229
11
89.4064
21
-139.229
0
LINE
8
Black
10
89.4064
20
-139.229
11
89.08
21
-139.11
0
LINE
8
Black
10
89.08
20
-139.11
11
88.814
21
-138.887
0
LINE
8
Black
10
88.814
20
-138.887
11
88.6403
21
-138.586
0
LINE
8
Black
10
88.6403
20
-138.586
11
88.58
21
-138.244
0
LINE
8
Black
10
88.58
20
-138.244
11
88.58
21
-138.236
0
LINE
8
Black
10
88.58
20
-138.236
11
88.6403
21
-137.894
0
LINE
8
Black
10
88.6403
20
-137.894
11
88.814
21
-137.593
0
LINE
8
Black
10
88.814
20
-137.593
11
89.08
21
-137.37
0
LINE
8
Black
10
89.08
20
-137.37
11
89.4064
21
-137.251
0
LINE
8
Black
10
89.4064
20
-137.251
11
89.7536
21
-137.251
0
LINE
8
Black
10
89.7536
20
-137.251
11
90.08
21
-137.37
0
LINE
8
Black
10
95.16
20
-137.37
11
95.426
21
-137.593
0
LINE
8
Black
10
95.426
20
-137.593
11
95.5997
21
-137.894
0
LINE
8
Black
10
95.5997
20
-137.894
11
95.66
21
-138.236
0
LINE
8
Black
10
95.66
20
-138.236
11
95.66
21
-138.244
0
LINE
8
Black
10
95.66
20
-138.244
11
95.5997
21
-138.586
0
LINE
8
Black
10
95.5997
20
-138.586
11
95.426
21
-138.887
0
LINE
8
Black
10
95.426
20
-138.887
11
95.16
21
-139.11
0
LINE
8
Black
10
95.16
20
-139.11
11
94.8336
21
-139.229
0
LINE
8
Black
10
94.8336
20
-139.229
11
94.4864
21
-139.229
0
LINE
8
Black
10
94.4864
20
-139.229
11
94.16
21
-139.11
0
LINE
8
Black
10
94.16
20
-139.11
11
93.894
21
-138.887
0
LINE
8
Black
10
93.894
20
-138.887
11
93.7203
21
-138.586
0
LINE
8
Black
10
93.7203
20
-138.586
11
93.66
21
-138.244
0
LINE
8
Black
10
93.66
20
-138.244
11
93.66
21
-138.236
0
LINE
8
Black
10
93.66
20
-138.236
11
93.7203
21
-137.894
0
LINE
8
Black
10
93.7203
20
-137.894
11
93.894
21
-137.593
0
LINE
8
Black
10
93.894
20
-137.593
11
94.16
21
-137.37
0
LINE
8
Black
10
94.16
20
-137.37
11
94.4864
21
-137.251
0
LINE
8
Black
10
94.4864
20
-137.251
11
94.8336
21
-137.251
0
LINE
8
Black
10
94.8336
20
-137.251
11
95.16
21
-137.37
0
LINE
8
Black
10
92.62
20
-137.37
11
92.886
21
-137.593
0
LINE
8
Black
10
92.886
20
-137.593
11
93.0597
21
-137.894
0
LINE
8
Black
10
93.0597
20
-137.894
11
93.12
21
-138.236
0
LINE
8
Black
10
93.12
20
-138.236
11
93.12
21
-138.244
0
LINE
8
Black
10
93.12
20
-138.244
11
93.0597
21
-138.586
0
LINE
8
Black
10
93.0597
20
-138.586
11
92.886
21
-138.887
0
LINE
8
Black
10
92.886
20
-138.887
11
92.62
21
-139.11
0
LINE
8
Black
10
92.62
20
-139.11
11
92.2936
21
-139.229
0
LINE
8
Black
10
92.2936
20
-139.229
11
91.9464
21
-139.229
0
LINE
8
Black
10
91.9464
20
-139.229
11
91.62
21
-139.11
0
LINE
8
Black
10
91.62
20
-139.11
11
91.354
21
-138.887
0
LINE
8
Black
10
91.354
20
-138.887
11
91.1803
21
-138.586
0
LINE
8
Black
10
91.1803
20
-138.586
11
91.12
21
-138.244
0
LINE
8
Black
10
91.12
20
-138.244
11
91.12
21
-138.236
0
LINE
8
Black
10
91.12
20
-138.236
11
91.1803
21
-137.894
0
LINE
8
Black
10
91.1803
20
-137.894
11
91.354
21
-137.593
0
LINE
8
Black
10
91.354
20
-137.593
11
91.62
21
-137.37
0
LINE
8
Black
10
91.62
20
-137.37
11
91.9464
21
-137.251
0
LINE
8
Black
10
91.9464
20
-137.251
11
92.2936
21
-137.251
0
LINE
8
Black
10
92.2936
20
-137.251
11
92.62
21
-137.37
0
LINE
8
Black
10
131.82
20
-133.523
11
132.111
21
-133.69
0
LINE
8
Black
10
132.111
20
-133.69
11
132.326
21
-133.947
0
LINE
8
Black
10
132.326
20
-133.947
11
132.441
21
-134.262
0
LINE
8
Black
10
132.441
20
-134.262
11
132.441
21
-134.598
0
LINE
8
Black
10
132.441
20
-134.598
11
132.326
21
-134.913
0
LINE
8
Black
10
132.326
20
-134.913
11
132.111
21
-135.17
0
LINE
8
Black
10
132.111
20
-135.17
11
131.82
21
-135.337
0
LINE
8
Black
10
131.82
20
-135.337
11
131.49
21
-135.396
0
LINE
8
Black
10
131.49
20
-135.396
11
131.16
21
-135.337
0
LINE
8
Black
10
131.16
20
-135.337
11
130.869
21
-135.17
0
LINE
8
Black
10
130.869
20
-135.17
11
130.654
21
-134.913
0
LINE
8
Black
10
130.654
20
-134.913
11
130.539
21
-134.598
0
LINE
8
Black
10
130.539
20
-134.598
11
130.539
21
-134.262
0
LINE
8
Black
10
130.539
20
-134.262
11
130.654
21
-133.947
0
LINE
8
Black
10
130.654
20
-133.947
11
130.869
21
-133.69
0
LINE
8
Black
10
130.869
20
-133.69
11
131.16
21
-133.523
0
LINE
8
Black
10
131.16
20
-133.523
11
131.49
21
-133.464
0
LINE
8
Black
10
131.49
20
-133.464
11
131.82
21
-133.523
0
LINE
8
Black
10
131.82
20
-130.983
11
132.111
21
-131.15
0
LINE
8
Black
10
132.111
20
-131.15
11
132.326
21
-131.407
0
LINE
8
Black
10
132.326
20
-131.407
11
132.441
21
-131.722
0
LINE
8
Black
10
132.441
20
-131.722
11
132.441
21
-132.058
0
LINE
8
Black
10
132.441
20
-132.058
11
132.326
21
-132.373
0
LINE
8
Black
10
132.326
20
-132.373
11
132.111
21
-132.63
0
LINE
8
Black
10
132.111
20
-132.63
11
131.82
21
-132.797
0
LINE
8
Black
10
131.82
20
-132.797
11
131.49
21
-132.856
0
LINE
8
Black
10
131.49
20
-132.856
11
131.16
21
-132.797
0
LINE
8
Black
10
131.16
20
-132.797
11
130.869
21
-132.63
0
LINE
8
Black
10
130.869
20
-132.63
11
130.654
21
-132.373
0
LINE
8
Black
10
130.654
20
-132.373
11
130.539
21
-132.058
0
LINE
8
Black
10
130.539
20
-132.058
11
130.539
21
-131.722
0
LINE
8
Black
10
130.539
20
-131.722
11
130.654
21
-131.407
0
LINE
8
Black
10
130.654
20
-131.407
11
130.869
21
-131.15
0
LINE
8
Black
10
130.869
20
-131.15
11
131.16
21
-130.983
0
LINE
8
Black
10
131.16
20
-130.983
11
131.49
21
-130.924
0
LINE
8
Black
10
131.49
20
-130.924
11
131.82
21
-130.983
0
LINE
8
Black
10
208.13
20
-130.093
11
208.421
21
-130.26
0
LINE
8
Black
10
208.421
20
-130.26
11
208.636
21
-130.517
0
LINE
8
Black
10
208.636
20
-130.517
11
208.751
21
-130.832
0
LINE
8
Black
10
208.751
20
-130.832
11
208.751
21
-131.168
0
LINE
8
Black
10
208.751
20
-131.168
11
208.636
21
-131.483
0
LINE
8
Black
10
208.636
20
-131.483
11
208.421
21
-131.74
0
LINE
8
Black
10
208.421
20
-131.74
11
208.13
21
-131.907
0
LINE
8
Black
10
208.13
20
-131.907
11
207.8
21
-131.966
0
LINE
8
Black
10
207.8
20
-131.966
11
207.47
21
-131.907
0
LINE
8
Black
10
207.47
20
-131.907
11
207.179
21
-131.74
0
LINE
8
Black
10
207.179
20
-131.74
11
206.964
21
-131.483
0
LINE
8
Black
10
206.964
20
-131.483
11
206.849
21
-131.168
0
LINE
8
Black
10
206.849
20
-131.168
11
206.849
21
-130.832
0
LINE
8
Black
10
206.849
20
-130.832
11
206.964
21
-130.517
0
LINE
8
Black
10
206.964
20
-130.517
11
207.179
21
-130.26
0
LINE
8
Black
10
207.179
20
-130.26
11
207.47
21
-130.093
0
LINE
8
Black
10
207.47
20
-130.093
11
207.8
21
-130.034
0
LINE
8
Black
10
207.8
20
-130.034
11
208.13
21
-130.093
0
LINE
8
Black
10
210.63
20
-130.093
11
210.921
21
-130.26
0
LINE
8
Black
10
210.921
20
-130.26
11
211.136
21
-130.517
0
LINE
8
Black
10
211.136
20
-130.517
11
211.251
21
-130.832
0
LINE
8
Black
10
211.251
20
-130.832
11
211.251
21
-131.168
0
LINE
8
Black
10
211.251
20
-131.168
11
211.136
21
-131.483
0
LINE
8
Black
10
211.136
20
-131.483
11
210.921
21
-131.74
0
LINE
8
Black
10
210.921
20
-131.74
11
210.63
21
-131.907
0
LINE
8
Black
10
210.63
20
-131.907
11
210.3
21
-131.966
0
LINE
8
Black
10
210.3
20
-131.966
11
209.97
21
-131.907
0
LINE
8
Black
10
209.97
20
-131.907
11
209.679
21
-131.74
0
LINE
8
Black
10
209.679
20
-131.74
11
209.464
21
-131.483
0
LINE
8
Black
10
209.464
20
-131.483
11
209.349
21
-131.168
0
LINE
8
Black
10
209.349
20
-131.168
11
209.349
21
-130.832
0
LINE
8
Black
10
209.349
20
-130.832
11
209.464
21
-130.517
0
LINE
8
Black
10
209.464
20
-130.517
11
209.679
21
-130.26
0
LINE
8
Black
10
209.679
20
-130.26
11
209.97
21
-130.093
0
LINE
8
Black
10
209.97
20
-130.093
11
210.3
21
-130.034
0
LINE
8
Black
10
210.3
20
-130.034
11
210.63
21
-130.093
0
LINE
8
Black
10
204.1
20
-131.95
11
201.5
21
-131.95
0
LINE
8
Black
10
201.5
20
-131.95
11
201.5
21
-130.05
0
LINE
8
Black
10
201.5
20
-130.05
11
204.1
21
-130.05
0
LINE
8
Black
10
204.1
20
-130.05
11
204.1
21
-131.95
0
LINE
8
Black
10
97.0303
20
-128.693
11
97.3207
21
-128.86
0
LINE
8
Black
10
97.3207
20
-128.86
11
97.5363
21
-129.117
0
LINE
8
Black
10
97.5363
20
-129.117
11
97.651
21
-129.432
0
LINE
8
Black
10
97.651
20
-129.432
11
97.651
21
-129.768
0
LINE
8
Black
10
97.651
20
-129.768
11
97.5363
21
-130.083
0
LINE
8
Black
10
97.5363
20
-130.083
11
97.3207
21
-130.34
0
LINE
8
Black
10
97.3207
20
-130.34
11
97.0303
21
-130.507
0
LINE
8
Black
10
97.0303
20
-130.507
11
96.7
21
-130.566
0
LINE
8
Black
10
96.7
20
-130.566
11
96.3697
21
-130.507
0
LINE
8
Black
10
96.3697
20
-130.507
11
96.0793
21
-130.34
0
LINE
8
Black
10
96.0793
20
-130.34
11
95.8637
21
-130.083
0
LINE
8
Black
10
95.8637
20
-130.083
11
95.749
21
-129.768
0
LINE
8
Black
10
95.749
20
-129.768
11
95.749
21
-129.432
0
LINE
8
Black
10
95.749
20
-129.432
11
95.8637
21
-129.117
0
LINE
8
Black
10
95.8637
20
-129.117
11
96.0793
21
-128.86
0
LINE
8
Black
10
96.0793
20
-128.86
11
96.3697
21
-128.693
0
LINE
8
Black
10
96.3697
20
-128.693
11
96.7
21
-128.634
0
LINE
8
Black
10
96.7
20
-128.634
11
97.0303
21
-128.693
0
LINE
8
Black
10
99.5303
20
-128.693
11
99.8207
21
-128.86
0
LINE
8
Black
10
99.8207
20
-128.86
11
100.036
21
-129.117
0
LINE
8
Black
10
100.036
20
-129.117
11
100.151
21
-129.432
0
LINE
8
Black
10
100.151
20
-129.432
11
100.151
21
-129.768
0
LINE
8
Black
10
100.151
20
-129.768
11
100.036
21
-130.083
0
LINE
8
Black
10
100.036
20
-130.083
11
99.8207
21
-130.34
0
LINE
8
Black
10
99.8207
20
-130.34
11
99.5303
21
-130.507
0
LINE
8
Black
10
99.5303
20
-130.507
11
99.2
21
-130.566
0
LINE
8
Black
10
99.2
20
-130.566
11
98.8697
21
-130.507
0
LINE
8
Black
10
98.8697
20
-130.507
11
98.5793
21
-130.34
0
LINE
8
Black
10
98.5793
20
-130.34
11
98.3637
21
-130.083
0
LINE
8
Black
10
98.3637
20
-130.083
11
98.249
21
-129.768
0
LINE
8
Black
10
98.249
20
-129.768
11
98.249
21
-129.432
0
LINE
8
Black
10
98.249
20
-129.432
11
98.3637
21
-129.117
0
LINE
8
Black
10
98.3637
20
-129.117
11
98.5793
21
-128.86
0
LINE
8
Black
10
98.5793
20
-128.86
11
98.8697
21
-128.693
0
LINE
8
Black
10
98.8697
20
-128.693
11
99.2
21
-128.634
0
LINE
8
Black
10
99.2
20
-128.634
11
99.5303
21
-128.693
0
LINE
8
Black
10
102.03
20
-128.693
11
102.321
21
-128.86
0
LINE
8
Black
10
102.321
20
-128.86
11
102.536
21
-129.117
0
LINE
8
Black
10
102.536
20
-129.117
11
102.651
21
-129.432
0
LINE
8
Black
10
102.651
20
-129.432
11
102.651
21
-129.768
0
LINE
8
Black
10
102.651
20
-129.768
11
102.536
21
-130.083
0
LINE
8
Black
10
102.536
20
-130.083
11
102.321
21
-130.34
0
LINE
8
Black
10
102.321
20
-130.34
11
102.03
21
-130.507
0
LINE
8
Black
10
102.03
20
-130.507
11
101.7
21
-130.566
0
LINE
8
Black
10
101.7
20
-130.566
11
101.37
21
-130.507
0
LINE
8
Black
10
101.37
20
-130.507
11
101.079
21
-130.34
0
LINE
8
Black
10
101.079
20
-130.34
11
100.864
21
-130.083
0
LINE
8
Black
10
100.864
20
-130.083
11
100.749
21
-129.768
0
LINE
8
Black
10
100.749
20
-129.768
11
100.749
21
-129.432
0
LINE
8
Black
10
100.749
20
-129.432
11
100.864
21
-129.117
0
LINE
8
Black
10
100.864
20
-129.117
11
101.079
21
-128.86
0
LINE
8
Black
10
101.079
20
-128.86
11
101.37
21
-128.693
0
LINE
8
Black
10
101.37
20
-128.693
11
101.7
21
-128.634
0
LINE
8
Black
10
101.7
20
-128.634
11
102.03
21
-128.693
0
LINE
8
Black
10
131.82
20
-128.443
11
132.111
21
-128.61
0
LINE
8
Black
10
132.111
20
-128.61
11
132.326
21
-128.867
0
LINE
8
Black
10
132.326
20
-128.867
11
132.441
21
-129.182
0
LINE
8
Black
10
132.441
20
-129.182
11
132.441
21
-129.518
0
LINE
8
Black
10
132.441
20
-129.518
11
132.326
21
-129.833
0
LINE
8
Black
10
132.326
20
-129.833
11
132.111
21
-130.09
0
LINE
8
Black
10
132.111
20
-130.09
11
131.82
21
-130.257
0
LINE
8
Black
10
131.82
20
-130.257
11
131.49
21
-130.316
0
LINE
8
Black
10
131.49
20
-130.316
11
131.16
21
-130.257
0
LINE
8
Black
10
131.16
20
-130.257
11
130.869
21
-130.09
0
LINE
8
Black
10
130.869
20
-130.09
11
130.654
21
-129.833
0
LINE
8
Black
10
130.654
20
-129.833
11
130.539
21
-129.518
0
LINE
8
Black
10
130.539
20
-129.518
11
130.539
21
-129.182
0
LINE
8
Black
10
130.539
20
-129.182
11
130.654
21
-128.867
0
LINE
8
Black
10
130.654
20
-128.867
11
130.869
21
-128.61
0
LINE
8
Black
10
130.869
20
-128.61
11
131.16
21
-128.443
0
LINE
8
Black
10
131.16
20
-128.443
11
131.49
21
-128.384
0
LINE
8
Black
10
131.49
20
-128.384
11
131.82
21
-128.443
0
LINE
8
Black
10
204.1
20
-129.45
11
201.5
21
-129.45
0
LINE
8
Black
10
201.5
20
-129.45
11
201.5
21
-127.55
0
LINE
8
Black
10
201.5
20
-127.55
11
204.1
21
-127.55
0
LINE
8
Black
10
204.1
20
-127.55
11
204.1
21
-129.45
0
LINE
8
Black
10
102.03
20
-126.193
11
102.321
21
-126.36
0
LINE
8
Black
10
102.321
20
-126.36
11
102.536
21
-126.617
0
LINE
8
Black
10
102.536
20
-126.617
11
102.651
21
-126.932
0
LINE
8
Black
10
102.651
20
-126.932
11
102.651
21
-127.268
0
LINE
8
Black
10
102.651
20
-127.268
11
102.536
21
-127.583
0
LINE
8
Black
10
102.536
20
-127.583
11
102.321
21
-127.84
0
LINE
8
Black
10
102.321
20
-127.84
11
102.03
21
-128.007
0
LINE
8
Black
10
102.03
20
-128.007
11
101.7
21
-128.066
0
LINE
8
Black
10
101.7
20
-128.066
11
101.37
21
-128.007
0
LINE
8
Black
10
101.37
20
-128.007
11
101.079
21
-127.84
0
LINE
8
Black
10
101.079
20
-127.84
11
100.864
21
-127.583
0
LINE
8
Black
10
100.864
20
-127.583
11
100.749
21
-127.268
0
LINE
8
Black
10
100.749
20
-127.268
11
100.749
21
-126.932
0
LINE
8
Black
10
100.749
20
-126.932
11
100.864
21
-126.617
0
LINE
8
Black
10
100.864
20
-126.617
11
101.079
21
-126.36
0
LINE
8
Black
10
101.079
20
-126.36
11
101.37
21
-126.193
0
LINE
8
Black
10
101.37
20
-126.193
11
101.7
21
-126.134
0
LINE
8
Black
10
101.7
20
-126.134
11
102.03
21
-126.193
0
LINE
8
Black
10
99.5303
20
-126.193
11
99.8207
21
-126.36
0
LINE
8
Black
10
99.8207
20
-126.36
11
100.036
21
-126.617
0
LINE
8
Black
10
100.036
20
-126.617
11
100.151
21
-126.932
0
LINE
8
Black
10
100.151
20
-126.932
11
100.151
21
-127.268
0
LINE
8
Black
10
100.151
20
-127.268
11
100.036
21
-127.583
0
LINE
8
Black
10
100.036
20
-127.583
11
99.8207
21
-127.84
0
LINE
8
Black
10
99.8207
20
-127.84
11
99.5303
21
-128.007
0
LINE
8
Black
10
99.5303
20
-128.007
11
99.2
21
-128.066
0
LINE
8
Black
10
99.2
20
-128.066
11
98.8697
21
-128.007
0
LINE
8
Black
10
98.8697
20
-128.007
11
98.5793
21
-127.84
0
LINE
8
Black
10
98.5793
20
-127.84
11
98.3637
21
-127.583
0
LINE
8
Black
10
98.3637
20
-127.583
11
98.249
21
-127.268
0
LINE
8
Black
10
98.249
20
-127.268
11
98.249
21
-126.932
0
LINE
8
Black
10
98.249
20
-126.932
11
98.3637
21
-126.617
0
LINE
8
Black
10
98.3637
20
-126.617
11
98.5793
21
-126.36
0
LINE
8
Black
10
98.5793
20
-126.36
11
98.8697
21
-126.193
0
LINE
8
Black
10
98.8697
20
-126.193
11
99.2
21
-126.134
0
LINE
8
Black
10
99.2
20
-126.134
11
99.5303
21
-126.193
0
LINE
8
Black
10
97.0303
20
-126.193
11
97.3207
21
-126.36
0
LINE
8
Black
10
97.3207
20
-126.36
11
97.5363
21
-126.617
0
LINE
8
Black
10
97.5363
20
-126.617
11
97.651
21
-126.932
0
LINE
8
Black
10
97.651
20
-126.932
11
97.651
21
-127.268
0
LINE
8
Black
10
97.651
20
-127.268
11
97.5363
21
-127.583
0
LINE
8
Black
10
97.5363
20
-127.583
11
97.3207
21
-127.84
0
LINE
8
Black
10
97.3207
20
-127.84
11
97.0303
21
-128.007
0
LINE
8
Black
10
97.0303
20
-128.007
11
96.7
21
-128.066
0
LINE
8
Black
10
96.7
20
-128.066
11
96.3697
21
-128.007
0
LINE
8
Black
10
96.3697
20
-128.007
11
96.0793
21
-127.84
0
LINE
8
Black
10
96.0793
20
-127.84
11
95.8637
21
-127.583
0
LINE
8
Black
10
95.8637
20
-127.583
11
95.749
21
-127.268
0
LINE
8
Black
10
95.749
20
-127.268
11
95.749
21
-126.932
0
LINE
8
Black
10
95.749
20
-126.932
11
95.8637
21
-126.617
0
LINE
8
Black
10
95.8637
20
-126.617
11
96.0793
21
-126.36
0
LINE
8
Black
10
96.0793
20
-126.36
11
96.3697
21
-126.193
0
LINE
8
Black
10
96.3697
20
-126.193
11
96.7
21
-126.134
0
LINE
8
Black
10
96.7
20
-126.134
11
97.0303
21
-126.193
0
LINE
8
Black
10
131.82
20
-125.903
11
132.111
21
-126.07
0
LINE
8
Black
10
132.111
20
-126.07
11
132.326
21
-126.327
0
LINE
8
Black
10
132.326
20
-126.327
11
132.441
21
-126.642
0
LINE
8
Black
10
132.441
20
-126.642
11
132.441
21
-126.978
0
LINE
8
Black
10
132.441
20
-126.978
11
132.326
21
-127.293
0
LINE
8
Black
10
132.326
20
-127.293
11
132.111
21
-127.55
0
LINE
8
Black
10
132.111
20
-127.55
11
131.82
21
-127.717
0
LINE
8
Black
10
131.82
20
-127.717
11
131.49
21
-127.776
0
LINE
8
Black
10
131.49
20
-127.776
11
131.16
21
-127.717
0
LINE
8
Black
10
131.16
20
-127.717
11
130.869
21
-127.55
0
LINE
8
Black
10
130.869
20
-127.55
11
130.654
21
-127.293
0
LINE
8
Black
10
130.654
20
-127.293
11
130.539
21
-126.978
0
LINE
8
Black
10
130.539
20
-126.978
11
130.539
21
-126.642
0
LINE
8
Black
10
130.539
20
-126.642
11
130.654
21
-126.327
0
LINE
8
Black
10
130.654
20
-126.327
11
130.869
21
-126.07
0
LINE
8
Black
10
130.869
20
-126.07
11
131.16
21
-125.903
0
LINE
8
Black
10
131.16
20
-125.903
11
131.49
21
-125.844
0
LINE
8
Black
10
131.49
20
-125.844
11
131.82
21
-125.903
0
LINE
8
Black
10
208.75
20
-127.3
11
206.85
21
-127.3
0
LINE
8
Black
10
206.85
20
-127.3
11
206.85
21
-124.7
0
LINE
8
Black
10
206.85
20
-124.7
11
208.75
21
-124.7
0
LINE
8
Black
10
208.75
20
-124.7
11
208.75
21
-127.3
0
LINE
8
Black
10
203.13
20
-125.093
11
203.421
21
-125.26
0
LINE
8
Black
10
203.421
20
-125.26
11
203.636
21
-125.517
0
LINE
8
Black
10
203.636
20
-125.517
11
203.751
21
-125.832
0
LINE
8
Black
10
203.751
20
-125.832
11
203.751
21
-126.168
0
LINE
8
Black
10
203.751
20
-126.168
11
203.636
21
-126.483
0
LINE
8
Black
10
203.636
20
-126.483
11
203.421
21
-126.74
0
LINE
8
Black
10
203.421
20
-126.74
11
203.13
21
-126.907
0
LINE
8
Black
10
203.13
20
-126.907
11
202.8
21
-126.966
0
LINE
8
Black
10
202.8
20
-126.966
11
202.47
21
-126.907
0
LINE
8
Black
10
202.47
20
-126.907
11
202.179
21
-126.74
0
LINE
8
Black
10
202.179
20
-126.74
11
201.964
21
-126.483
0
LINE
8
Black
10
201.964
20
-126.483
11
201.849
21
-126.168
0
LINE
8
Black
10
201.849
20
-126.168
11
201.849
21
-125.832
0
LINE
8
Black
10
201.849
20
-125.832
11
201.964
21
-125.517
0
LINE
8
Black
10
201.964
20
-125.517
11
202.179
21
-125.26
0
LINE
8
Black
10
202.179
20
-125.26
11
202.47
21
-125.093
0
LINE
8
Black
10
202.47
20
-125.093
11
202.8
21
-125.034
0
LINE
8
Black
10
202.8
20
-125.034
11
203.13
21
-125.093
0
LINE
8
Black
10
204.1
20
-124.45
11
201.5
21
-124.45
0
LINE
8
Black
10
201.5
20
-124.45
11
201.5
21
-122.55
0
LINE
8
Black
10
201.5
20
-122.55
11
204.1
21
-122.55
0
LINE
8
Black
10
204.1
20
-122.55
11
204.1
21
-124.45
0
LINE
8
Black
10
136.3
20
-124
11
134.3
21
-124
0
LINE
8
Black
10
134.3
20
-124
11
134.3
21
-122
0
LINE
8
Black
10
134.3
20
-122
11
136.3
21
-122
0
LINE
8
Black
10
136.3
20
-122
11
136.3
21
-124
0
LINE
8
Black
10
102.78
20
-122.13
11
103.046
21
-122.353
0
LINE
8
Black
10
103.046
20
-122.353
11
103.22
21
-122.654
0
LINE
8
Black
10
103.22
20
-122.654
11
103.28
21
-122.996
0
LINE
8
Black
10
103.28
20
-122.996
11
103.28
21
-123.004
0
LINE
8
Black
10
103.28
20
-123.004
11
103.22
21
-123.346
0
LINE
8
Black
10
103.22
20
-123.346
11
103.046
21
-123.647
0
LINE
8
Black
10
103.046
20
-123.647
11
102.78
21
-123.87
0
LINE
8
Black
10
102.78
20
-123.87
11
102.454
21
-123.989
0
LINE
8
Black
10
102.454
20
-123.989
11
102.106
21
-123.989
0
LINE
8
Black
10
102.106
20
-123.989
11
101.78
21
-123.87
0
LINE
8
Black
10
101.78
20
-123.87
11
101.514
21
-123.647
0
LINE
8
Black
10
101.514
20
-123.647
11
101.34
21
-123.346
0
LINE
8
Black
10
101.34
20
-123.346
11
101.28
21
-123.004
0
LINE
8
Black
10
101.28
20
-123.004
11
101.28
21
-122.996
0
LINE
8
Black
10
101.28
20
-122.996
11
101.34
21
-122.654
0
LINE
8
Black
10
101.34
20
-122.654
11
101.514
21
-122.353
0
LINE
8
Black
10
101.514
20
-122.353
11
101.78
21
-122.13
0
LINE
8
Black
10
101.78
20
-122.13
11
102.106
21
-122.011
0
LINE
8
Black
10
102.106
20
-122.011
11
102.454
21
-122.011
0
LINE
8
Black
10
102.454
20
-122.011
11
102.78
21
-122.13
0
LINE
8
Black
10
133.26
20
-122.13
11
133.526
21
-122.353
0
LINE
8
Black
10
133.526
20
-122.353
11
133.7
21
-122.654
0
LINE
8
Black
10
133.7
20
-122.654
11
133.76
21
-122.996
0
LINE
8
Black
10
133.76
20
-122.996
11
133.76
21
-123.004
0
LINE
8
Black
10
133.76
20
-123.004
11
133.7
21
-123.346
0
LINE
8
Black
10
133.7
20
-123.346
11
133.526
21
-123.647
0
LINE
8
Black
10
133.526
20
-123.647
11
133.26
21
-123.87
0
LINE
8
Black
10
133.26
20
-123.87
11
132.934
21
-123.989
0
LINE
8
Black
10
132.934
20
-123.989
11
132.586
21
-123.989
0
LINE
8
Black
10
132.586
20
-123.989
11
132.26
21
-123.87
0
LINE
8
Black
10
132.26
20
-123.87
11
131.994
21
-123.647
0
LINE
8
Black
10
131.994
20
-123.647
11
131.82
21
-123.346
0
LINE
8
Black
10
131.82
20
-123.346
11
131.76
21
-123.004
0
LINE
8
Black
10
131.76
20
-123.004
11
131.76
21
-122.996
0
LINE
8
Black
10
131.76
20
-122.996
11
131.82
21
-122.654
0
LINE
8
Black
10
131.82
20
-122.654
11
131.994
21
-122.353
0
LINE
8
Black
10
131.994
20
-122.353
11
132.26
21
-122.13
0
LINE
8
Black
10
132.26
20
-122.13
11
132.586
21
-122.011
0
LINE
8
Black
10
132.586
20
-122.011
11
132.934
21
-122.011
0
LINE
8
Black
10
132.934
20
-122.011
11
133.26
21
-122.13
0
LINE
8
Black
10
130.72
20
-122.13
11
130.986
21
-122.353
0
LINE
8
Black
10
130.986
20
-122.353
11
131.16
21
-122.654
0
LINE
8
Black
10
131.16
20
-122.654
11
131.22
21
-122.996
0
LINE
8
Black
10
131.22
20
-122.996
11
131.22
21
-123.004
0
LINE
8
Black
10
131.22
20
-123.004
11
131.16
21
-123.346
0
LINE
8
Black
10
131.16
20
-123.346
11
130.986
21
-123.647
0
LINE
8
Black
10
130.986
20
-123.647
11
130.72
21
-123.87
0
LINE
8
Black
10
130.72
20
-123.87
11
130.394
21
-123.989
0
LINE
8
Black
10
130.394
20
-123.989
11
130.046
21
-123.989
0
LINE
8
Black
10
130.046
20
-123.989
11
129.72
21
-123.87
0
LINE
8
Black
10
129.72
20
-123.87
11
129.454
21
-123.647
0
LINE
8
Black
10
129.454
20
-123.647
11
129.28
21
-123.346
0
LINE
8
Black
10
129.28
20
-123.346
11
129.22
21
-123.004
0
LINE
8
Black
10
129.22
20
-123.004
11
129.22
21
-122.996
0
LINE
8
Black
10
129.22
20
-122.996
11
129.28
21
-122.654
0
LINE
8
Black
10
129.28
20
-122.654
11
129.454
21
-122.353
0
LINE
8
Black
10
129.454
20
-122.353
11
129.72
21
-122.13
0
LINE
8
Black
10
129.72
20
-122.13
11
130.046
21
-122.011
0
LINE
8
Black
10
130.046
20
-122.011
11
130.394
21
-122.011
0
LINE
8
Black
10
130.394
20
-122.011
11
130.72
21
-122.13
0
LINE
8
Black
10
128.18
20
-122.13
11
128.446
21
-122.353
0
LINE
8
Black
10
128.446
20
-122.353
11
128.62
21
-122.654
0
LINE
8
Black
10
128.62
20
-122.654
11
128.68
21
-122.996
0
LINE
8
Black
10
128.68
20
-122.996
11
128.68
21
-123.004
0
LINE
8
Black
10
128.68
20
-123.004
11
128.62
21
-123.346
0
LINE
8
Black
10
128.62
20
-123.346
11
128.446
21
-123.647
0
LINE
8
Black
10
128.446
20
-123.647
11
128.18
21
-123.87
0
LINE
8
Black
10
128.18
20
-123.87
11
127.854
21
-123.989
0
LINE
8
Black
10
127.854
20
-123.989
11
127.506
21
-123.989
0
LINE
8
Black
10
127.506
20
-123.989
11
127.18
21
-123.87
0
LINE
8
Black
10
127.18
20
-123.87
11
126.914
21
-123.647
0
LINE
8
Black
10
126.914
20
-123.647
11
126.74
21
-123.346
0
LINE
8
Black
10
126.74
20
-123.346
11
126.68
21
-123.004
0
LINE
8
Black
10
126.68
20
-123.004
11
126.68
21
-122.996
0
LINE
8
Black
10
126.68
20
-122.996
11
126.74
21
-122.654
0
LINE
8
Black
10
126.74
20
-122.654
11
126.914
21
-122.353
0
LINE
8
Black
10
126.914
20
-122.353
11
127.18
21
-122.13
0
LINE
8
Black
10
127.18
20
-122.13
11
127.506
21
-122.011
0
LINE
8
Black
10
127.506
20
-122.011
11
127.854
21
-122.011
0
LINE
8
Black
10
127.854
20
-122.011
11
128.18
21
-122.13
0
LINE
8
Black
10
125.64
20
-122.13
11
125.906
21
-122.353
0
LINE
8
Black
10
125.906
20
-122.353
11
126.08
21
-122.654
0
LINE
8
Black
10
126.08
20
-122.654
11
126.14
21
-122.996
0
LINE
8
Black
10
126.14
20
-122.996
11
126.14
21
-123.004
0
LINE
8
Black
10
126.14
20
-123.004
11
126.08
21
-123.346
0
LINE
8
Black
10
126.08
20
-123.346
11
125.906
21
-123.647
0
LINE
8
Black
10
125.906
20
-123.647
11
125.64
21
-123.87
0
LINE
8
Black
10
125.64
20
-123.87
11
125.314
21
-123.989
0
LINE
8
Black
10
125.314
20
-123.989
11
124.966
21
-123.989
0
LINE
8
Black
10
124.966
20
-123.989
11
124.64
21
-123.87
0
LINE
8
Black
10
124.64
20
-123.87
11
124.374
21
-123.647
0
LINE
8
Black
10
124.374
20
-123.647
11
124.2
21
-123.346
0
LINE
8
Black
10
124.2
20
-123.346
11
124.14
21
-123.004
0
LINE
8
Black
10
124.14
20
-123.004
11
124.14
21
-122.996
0
LINE
8
Black
10
124.14
20
-122.996
11
124.2
21
-122.654
0
LINE
8
Black
10
124.2
20
-122.654
11
124.374
21
-122.353
0
LINE
8
Black
10
124.374
20
-122.353
11
124.64
21
-122.13
0
LINE
8
Black
10
124.64
20
-122.13
11
124.966
21
-122.011
0
LINE
8
Black
10
124.966
20
-122.011
11
125.314
21
-122.011
0
LINE
8
Black
10
125.314
20
-122.011
11
125.64
21
-122.13
0
LINE
8
Black
10
123.1
20
-122.13
11
123.366
21
-122.353
0
LINE
8
Black
10
123.366
20
-122.353
11
123.54
21
-122.654
0
LINE
8
Black
10
123.54
20
-122.654
11
123.6
21
-122.996
0
LINE
8
Black
10
123.6
20
-122.996
11
123.6
21
-123.004
0
LINE
8
Black
10
123.6
20
-123.004
11
123.54
21
-123.346
0
LINE
8
Black
10
123.54
20
-123.346
11
123.366
21
-123.647
0
LINE
8
Black
10
123.366
20
-123.647
11
123.1
21
-123.87
0
LINE
8
Black
10
123.1
20
-123.87
11
122.774
21
-123.989
0
LINE
8
Black
10
122.774
20
-123.989
11
122.426
21
-123.989
0
LINE
8
Black
10
122.426
20
-123.989
11
122.1
21
-123.87
0
LINE
8
Black
10
122.1
20
-123.87
11
121.834
21
-123.647
0
LINE
8
Black
10
121.834
20
-123.647
11
121.66
21
-123.346
0
LINE
8
Black
10
121.66
20
-123.346
11
121.6
21
-123.004
0
LINE
8
Black
10
121.6
20
-123.004
11
121.6
21
-122.996
0
LINE
8
Black
10
121.6
20
-122.996
11
121.66
21
-122.654
0
LINE
8
Black
10
121.66
20
-122.654
11
121.834
21
-122.353
0
LINE
8
Black
10
121.834
20
-122.353
11
122.1
21
-122.13
0
LINE
8
Black
10
122.1
20
-122.13
11
122.426
21
-122.011
0
LINE
8
Black
10
122.426
20
-122.011
11
122.774
21
-122.011
0
LINE
8
Black
10
122.774
20
-122.011
11
123.1
21
-122.13
0
LINE
8
Black
10
87.54
20
-122.13
11
87.806
21
-122.353
0
LINE
8
Black
10
87.806
20
-122.353
11
87.9797
21
-122.654
0
LINE
8
Black
10
87.9797
20
-122.654
11
88.04
21
-122.996
0
LINE
8
Black
10
88.04
20
-122.996
11
88.04
21
-123.004
0
LINE
8
Black
10
88.04
20
-123.004
11
87.9797
21
-123.346
0
LINE
8
Black
10
87.9797
20
-123.346
11
87.806
21
-123.647
0
LINE
8
Black
10
87.806
20
-123.647
11
87.54
21
-123.87
0
LINE
8
Black
10
87.54
20
-123.87
11
87.2136
21
-123.989
0
LINE
8
Black
10
87.2136
20
-123.989
11
86.8664
21
-123.989
0
LINE
8
Black
10
86.8664
20
-123.989
11
86.54
21
-123.87
0
LINE
8
Black
10
86.54
20
-123.87
11
86.274
21
-123.647
0
LINE
8
Black
10
86.274
20
-123.647
11
86.1003
21
-123.346
0
LINE
8
Black
10
86.1003
20
-123.346
11
86.04
21
-123.004
0
LINE
8
Black
10
86.04
20
-123.004
11
86.04
21
-122.996
0
LINE
8
Black
10
86.04
20
-122.996
11
86.1003
21
-122.654
0
LINE
8
Black
10
86.1003
20
-122.654
11
86.274
21
-122.353
0
LINE
8
Black
10
86.274
20
-122.353
11
86.54
21
-122.13
0
LINE
8
Black
10
86.54
20
-122.13
11
86.8664
21
-122.011
0
LINE
8
Black
10
86.8664
20
-122.011
11
87.2136
21
-122.011
0
LINE
8
Black
10
87.2136
20
-122.011
11
87.54
21
-122.13
0
LINE
8
Black
10
120.56
20
-122.13
11
120.826
21
-122.353
0
LINE
8
Black
10
120.826
20
-122.353
11
121
21
-122.654
0
LINE
8
Black
10
121
20
-122.654
11
121.06
21
-122.996
0
LINE
8
Black
10
121.06
20
-122.996
11
121.06
21
-123.004
0
LINE
8
Black
10
121.06
20
-123.004
11
121
21
-123.346
0
LINE
8
Black
10
121
20
-123.346
11
120.826
21
-123.647
0
LINE
8
Black
10
120.826
20
-123.647
11
120.56
21
-123.87
0
LINE
8
Black
10
120.56
20
-123.87
11
120.234
21
-123.989
0
LINE
8
Black
10
120.234
20
-123.989
11
119.886
21
-123.989
0
LINE
8
Black
10
119.886
20
-123.989
11
119.56
21
-123.87
0
LINE
8
Black
10
119.56
20
-123.87
11
119.294
21
-123.647
0
LINE
8
Black
10
119.294
20
-123.647
11
119.12
21
-123.346
0
LINE
8
Black
10
119.12
20
-123.346
11
119.06
21
-123.004
0
LINE
8
Black
10
119.06
20
-123.004
11
119.06
21
-122.996
0
LINE
8
Black
10
119.06
20
-122.996
11
119.12
21
-122.654
0
LINE
8
Black
10
119.12
20
-122.654
11
119.294
21
-122.353
0
LINE
8
Black
10
119.294
20
-122.353
11
119.56
21
-122.13
0
LINE
8
Black
10
119.56
20
-122.13
11
119.886
21
-122.011
0
LINE
8
Black
10
119.886
20
-122.011
11
120.234
21
-122.011
0
LINE
8
Black
10
120.234
20
-122.011
11
120.56
21
-122.13
0
LINE
8
Black
10
90.08
20
-122.13
11
90.346
21
-122.353
0
LINE
8
Black
10
90.346
20
-122.353
11
90.5197
21
-122.654
0
LINE
8
Black
10
90.5197
20
-122.654
11
90.58
21
-122.996
0
LINE
8
Black
10
90.58
20
-122.996
11
90.58
21
-123.004
0
LINE
8
Black
10
90.58
20
-123.004
11
90.5197
21
-123.346
0
LINE
8
Black
10
90.5197
20
-123.346
11
90.346
21
-123.647
0
LINE
8
Black
10
90.346
20
-123.647
11
90.08
21
-123.87
0
LINE
8
Black
10
90.08
20
-123.87
11
89.7536
21
-123.989
0
LINE
8
Black
10
89.7536
20
-123.989
11
89.4064
21
-123.989
0
LINE
8
Black
10
89.4064
20
-123.989
11
89.08
21
-123.87
0
LINE
8
Black
10
89.08
20
-123.87
11
88.814
21
-123.647
0
LINE
8
Black
10
88.814
20
-123.647
11
88.6403
21
-123.346
0
LINE
8
Black
10
88.6403
20
-123.346
11
88.58
21
-123.004
0
LINE
8
Black
10
88.58
20
-123.004
11
88.58
21
-122.996
0
LINE
8
Black
10
88.58
20
-122.996
11
88.6403
21
-122.654
0
LINE
8
Black
10
88.6403
20
-122.654
11
88.814
21
-122.353
0
LINE
8
Black
10
88.814
20
-122.353
11
89.08
21
-122.13
0
LINE
8
Black
10
89.08
20
-122.13
11
89.4064
21
-122.011
0
LINE
8
Black
10
89.4064
20
-122.011
11
89.7536
21
-122.011
0
LINE
8
Black
10
89.7536
20
-122.011
11
90.08
21
-122.13
0
LINE
8
Black
10
118.02
20
-122.13
11
118.286
21
-122.353
0
LINE
8
Black
10
118.286
20
-122.353
11
118.46
21
-122.654
0
LINE
8
Black
10
118.46
20
-122.654
11
118.52
21
-122.996
0
LINE
8
Black
10
118.52
20
-122.996
11
118.52
21
-123.004
0
LINE
8
Black
10
118.52
20
-123.004
11
118.46
21
-123.346
0
LINE
8
Black
10
118.46
20
-123.346
11
118.286
21
-123.647
0
LINE
8
Black
10
118.286
20
-123.647
11
118.02
21
-123.87
0
LINE
8
Black
10
118.02
20
-123.87
11
117.694
21
-123.989
0
LINE
8
Black
10
117.694
20
-123.989
11
117.346
21
-123.989
0
LINE
8
Black
10
117.346
20
-123.989
11
117.02
21
-123.87
0
LINE
8
Black
10
117.02
20
-123.87
11
116.754
21
-123.647
0
LINE
8
Black
10
116.754
20
-123.647
11
116.58
21
-123.346
0
LINE
8
Black
10
116.58
20
-123.346
11
116.52
21
-123.004
0
LINE
8
Black
10
116.52
20
-123.004
11
116.52
21
-122.996
0
LINE
8
Black
10
116.52
20
-122.996
11
116.58
21
-122.654
0
LINE
8
Black
10
116.58
20
-122.654
11
116.754
21
-122.353
0
LINE
8
Black
10
116.754
20
-122.353
11
117.02
21
-122.13
0
LINE
8
Black
10
117.02
20
-122.13
11
117.346
21
-122.011
0
LINE
8
Black
10
117.346
20
-122.011
11
117.694
21
-122.011
0
LINE
8
Black
10
117.694
20
-122.011
11
118.02
21
-122.13
0
LINE
8
Black
10
92.62
20
-122.13
11
92.886
21
-122.353
0
LINE
8
Black
10
92.886
20
-122.353
11
93.0597
21
-122.654
0
LINE
8
Black
10
93.0597
20
-122.654
11
93.12
21
-122.996
0
LINE
8
Black
10
93.12
20
-122.996
11
93.12
21
-123.004
0
LINE
8
Black
10
93.12
20
-123.004
11
93.0597
21
-123.346
0
LINE
8
Black
10
93.0597
20
-123.346
11
92.886
21
-123.647
0
LINE
8
Black
10
92.886
20
-123.647
11
92.62
21
-123.87
0
LINE
8
Black
10
92.62
20
-123.87
11
92.2936
21
-123.989
0
LINE
8
Black
10
92.2936
20
-123.989
11
91.9464
21
-123.989
0
LINE
8
Black
10
91.9464
20
-123.989
11
91.62
21
-123.87
0
LINE
8
Black
10
91.62
20
-123.87
11
91.354
21
-123.647
0
LINE
8
Black
10
91.354
20
-123.647
11
91.1803
21
-123.346
0
LINE
8
Black
10
91.1803
20
-123.346
11
91.12
21
-123.004
0
LINE
8
Black
10
91.12
20
-123.004
11
91.12
21
-122.996
0
LINE
8
Black
10
91.12
20
-122.996
11
91.1803
21
-122.654
0
LINE
8
Black
10
91.1803
20
-122.654
11
91.354
21
-122.353
0
LINE
8
Black
10
91.354
20
-122.353
11
91.62
21
-122.13
0
LINE
8
Black
10
91.62
20
-122.13
11
91.9464
21
-122.011
0
LINE
8
Black
10
91.9464
20
-122.011
11
92.2936
21
-122.011
0
LINE
8
Black
10
92.2936
20
-122.011
11
92.62
21
-122.13
0
LINE
8
Black
10
115.48
20
-122.13
11
115.746
21
-122.353
0
LINE
8
Black
10
115.746
20
-122.353
11
115.92
21
-122.654
0
LINE
8
Black
10
115.92
20
-122.654
11
115.98
21
-122.996
0
LINE
8
Black
10
115.98
20
-122.996
11
115.98
21
-123.004
0
LINE
8
Black
10
115.98
20
-123.004
11
115.92
21
-123.346
0
LINE
8
Black
10
115.92
20
-123.346
11
115.746
21
-123.647
0
LINE
8
Black
10
115.746
20
-123.647
11
115.48
21
-123.87
0
LINE
8
Black
10
115.48
20
-123.87
11
115.154
21
-123.989
0
LINE
8
Black
10
115.154
20
-123.989
11
114.806
21
-123.989
0
LINE
8
Black
10
114.806
20
-123.989
11
114.48
21
-123.87
0
LINE
8
Black
10
114.48
20
-123.87
11
114.214
21
-123.647
0
LINE
8
Black
10
114.214
20
-123.647
11
114.04
21
-123.346
0
LINE
8
Black
10
114.04
20
-123.346
11
113.98
21
-123.004
0
LINE
8
Black
10
113.98
20
-123.004
11
113.98
21
-122.996
0
LINE
8
Black
10
113.98
20
-122.996
11
114.04
21
-122.654
0
LINE
8
Black
10
114.04
20
-122.654
11
114.214
21
-122.353
0
LINE
8
Black
10
114.214
20
-122.353
11
114.48
21
-122.13
0
LINE
8
Black
10
114.48
20
-122.13
11
114.806
21
-122.011
0
LINE
8
Black
10
114.806
20
-122.011
11
115.154
21
-122.011
0
LINE
8
Black
10
115.154
20
-122.011
11
115.48
21
-122.13
0
LINE
8
Black
10
95.16
20
-122.13
11
95.426
21
-122.353
0
LINE
8
Black
10
95.426
20
-122.353
11
95.5997
21
-122.654
0
LINE
8
Black
10
95.5997
20
-122.654
11
95.66
21
-122.996
0
LINE
8
Black
10
95.66
20
-122.996
11
95.66
21
-123.004
0
LINE
8
Black
10
95.66
20
-123.004
11
95.5997
21
-123.346
0
LINE
8
Black
10
95.5997
20
-123.346
11
95.426
21
-123.647
0
LINE
8
Black
10
95.426
20
-123.647
11
95.16
21
-123.87
0
LINE
8
Black
10
95.16
20
-123.87
11
94.8336
21
-123.989
0
LINE
8
Black
10
94.8336
20
-123.989
11
94.4864
21
-123.989
0
LINE
8
Black
10
94.4864
20
-123.989
11
94.16
21
-123.87
0
LINE
8
Black
10
94.16
20
-123.87
11
93.894
21
-123.647
0
LINE
8
Black
10
93.894
20
-123.647
11
93.7203
21
-123.346
0
LINE
8
Black
10
93.7203
20
-123.346
11
93.66
21
-123.004
0
LINE
8
Black
10
93.66
20
-123.004
11
93.66
21
-122.996
0
LINE
8
Black
10
93.66
20
-122.996
11
93.7203
21
-122.654
0
LINE
8
Black
10
93.7203
20
-122.654
11
93.894
21
-122.353
0
LINE
8
Black
10
93.894
20
-122.353
11
94.16
21
-122.13
0
LINE
8
Black
10
94.16
20
-122.13
11
94.4864
21
-122.011
0
LINE
8
Black
10
94.4864
20
-122.011
11
94.8336
21
-122.011
0
LINE
8
Black
10
94.8336
20
-122.011
11
95.16
21
-122.13
0
LINE
8
Black
10
112.94
20
-122.13
11
113.206
21
-122.353
0
LINE
8
Black
10
113.206
20
-122.353
11
113.38
21
-122.654
0
LINE
8
Black
10
113.38
20
-122.654
11
113.44
21
-122.996
0
LINE
8
Black
10
113.44
20
-122.996
11
113.44
21
-123.004
0
LINE
8
Black
10
113.44
20
-123.004
11
113.38
21
-123.346
0
LINE
8
Black
10
113.38
20
-123.346
11
113.206
21
-123.647
0
LINE
8
Black
10
113.206
20
-123.647
11
112.94
21
-123.87
0
LINE
8
Black
10
112.94
20
-123.87
11
112.614
21
-123.989
0
LINE
8
Black
10
112.614
20
-123.989
11
112.266
21
-123.989
0
LINE
8
Black
10
112.266
20
-123.989
11
111.94
21
-123.87
0
LINE
8
Black
10
111.94
20
-123.87
11
111.674
21
-123.647
0
LINE
8
Black
10
111.674
20
-123.647
11
111.5
21
-123.346
0
LINE
8
Black
10
111.5
20
-123.346
11
111.44
21
-123.004
0
LINE
8
Black
10
111.44
20
-123.004
11
111.44
21
-122.996
0
LINE
8
Black
10
111.44
20
-122.996
11
111.5
21
-122.654
0
LINE
8
Black
10
111.5
20
-122.654
11
111.674
21
-122.353
0
LINE
8
Black
10
111.674
20
-122.353
11
111.94
21
-122.13
0
LINE
8
Black
10
111.94
20
-122.13
11
112.266
21
-122.011
0
LINE
8
Black
10
112.266
20
-122.011
11
112.614
21
-122.011
0
LINE
8
Black
10
112.614
20
-122.011
11
112.94
21
-122.13
0
LINE
8
Black
10
97.7
20
-122.13
11
97.966
21
-122.353
0
LINE
8
Black
10
97.966
20
-122.353
11
98.1397
21
-122.654
0
LINE
8
Black
10
98.1397
20
-122.654
11
98.2
21
-122.996
0
LINE
8
Black
10
98.2
20
-122.996
11
98.2
21
-123.004
0
LINE
8
Black
10
98.2
20
-123.004
11
98.1397
21
-123.346
0
LINE
8
Black
10
98.1397
20
-123.346
11
97.966
21
-123.647
0
LINE
8
Black
10
97.966
20
-123.647
11
97.7
21
-123.87
0
LINE
8
Black
10
97.7
20
-123.87
11
97.3736
21
-123.989
0
LINE
8
Black
10
97.3736
20
-123.989
11
97.0264
21
-123.989
0
LINE
8
Black
10
97.0264
20
-123.989
11
96.7
21
-123.87
0
LINE
8
Black
10
96.7
20
-123.87
11
96.434
21
-123.647
0
LINE
8
Black
10
96.434
20
-123.647
11
96.2603
21
-123.346
0
LINE
8
Black
10
96.2603
20
-123.346
11
96.2
21
-123.004
0
LINE
8
Black
10
96.2
20
-123.004
11
96.2
21
-122.996
0
LINE
8
Black
10
96.2
20
-122.996
11
96.2603
21
-122.654
0
LINE
8
Black
10
96.2603
20
-122.654
11
96.434
21
-122.353
0
LINE
8
Black
10
96.434
20
-122.353
11
96.7
21
-122.13
0
LINE
8
Black
10
96.7
20
-122.13
11
97.0264
21
-122.011
0
LINE
8
Black
10
97.0264
20
-122.011
11
97.3736
21
-122.011
0
LINE
8
Black
10
97.3736
20
-122.011
11
97.7
21
-122.13
0
LINE
8
Black
10
110.4
20
-122.13
11
110.666
21
-122.353
0
LINE
8
Black
10
110.666
20
-122.353
11
110.84
21
-122.654
0
LINE
8
Black
10
110.84
20
-122.654
11
110.9
21
-122.996
0
LINE
8
Black
10
110.9
20
-122.996
11
110.9
21
-123.004
0
LINE
8
Black
10
110.9
20
-123.004
11
110.84
21
-123.346
0
LINE
8
Black
10
110.84
20
-123.346
11
110.666
21
-123.647
0
LINE
8
Black
10
110.666
20
-123.647
11
110.4
21
-123.87
0
LINE
8
Black
10
110.4
20
-123.87
11
110.074
21
-123.989
0
LINE
8
Black
10
110.074
20
-123.989
11
109.726
21
-123.989
0
LINE
8
Black
10
109.726
20
-123.989
11
109.4
21
-123.87
0
LINE
8
Black
10
109.4
20
-123.87
11
109.134
21
-123.647
0
LINE
8
Black
10
109.134
20
-123.647
11
108.96
21
-123.346
0
LINE
8
Black
10
108.96
20
-123.346
11
108.9
21
-123.004
0
LINE
8
Black
10
108.9
20
-123.004
11
108.9
21
-122.996
0
LINE
8
Black
10
108.9
20
-122.996
11
108.96
21
-122.654
0
LINE
8
Black
10
108.96
20
-122.654
11
109.134
21
-122.353
0
LINE
8
Black
10
109.134
20
-122.353
11
109.4
21
-122.13
0
LINE
8
Black
10
109.4
20
-122.13
11
109.726
21
-122.011
0
LINE
8
Black
10
109.726
20
-122.011
11
110.074
21
-122.011
0
LINE
8
Black
10
110.074
20
-122.011
11
110.4
21
-122.13
0
LINE
8
Black
10
100.24
20
-122.13
11
100.506
21
-122.353
0
LINE
8
Black
10
100.506
20
-122.353
11
100.68
21
-122.654
0
LINE
8
Black
10
100.68
20
-122.654
11
100.74
21
-122.996
0
LINE
8
Black
10
100.74
20
-122.996
11
100.74
21
-123.004
0
LINE
8
Black
10
100.74
20
-123.004
11
100.68
21
-123.346
0
LINE
8
Black
10
100.68
20
-123.346
11
100.506
21
-123.647
0
LINE
8
Black
10
100.506
20
-123.647
11
100.24
21
-123.87
0
LINE
8
Black
10
100.24
20
-123.87
11
99.9136
21
-123.989
0
LINE
8
Black
10
99.9136
20
-123.989
11
99.5664
21
-123.989
0
LINE
8
Black
10
99.5664
20
-123.989
11
99.24
21
-123.87
0
LINE
8
Black
10
99.24
20
-123.87
11
98.974
21
-123.647
0
LINE
8
Black
10
98.974
20
-123.647
11
98.8003
21
-123.346
0
LINE
8
Black
10
98.8003
20
-123.346
11
98.74
21
-123.004
0
LINE
8
Black
10
98.74
20
-123.004
11
98.74
21
-122.996
0
LINE
8
Black
10
98.74
20
-122.996
11
98.8003
21
-122.654
0
LINE
8
Black
10
98.8003
20
-122.654
11
98.974
21
-122.353
0
LINE
8
Black
10
98.974
20
-122.353
11
99.24
21
-122.13
0
LINE
8
Black
10
99.24
20
-122.13
11
99.5664
21
-122.011
0
LINE
8
Black
10
99.5664
20
-122.011
11
99.9136
21
-122.011
0
LINE
8
Black
10
99.9136
20
-122.011
11
100.24
21
-122.13
0
LINE
8
Black
10
107.86
20
-122.13
11
108.126
21
-122.353
0
LINE
8
Black
10
108.126
20
-122.353
11
108.3
21
-122.654
0
LINE
8
Black
10
108.3
20
-122.654
11
108.36
21
-122.996
0
LINE
8
Black
10
108.36
20
-122.996
11
108.36
21
-123.004
0
LINE
8
Black
10
108.36
20
-123.004
11
108.3
21
-123.346
0
LINE
8
Black
10
108.3
20
-123.346
11
108.126
21
-123.647
0
LINE
8
Black
10
108.126
20
-123.647
11
107.86
21
-123.87
0
LINE
8
Black
10
107.86
20
-123.87
11
107.534
21
-123.989
0
LINE
8
Black
10
107.534
20
-123.989
11
107.186
21
-123.989
0
LINE
8
Black
10
107.186
20
-123.989
11
106.86
21
-123.87
0
LINE
8
Black
10
106.86
20
-123.87
11
106.594
21
-123.647
0
LINE
8
Black
10
106.594
20
-123.647
11
106.42
21
-123.346
0
LINE
8
Black
10
106.42
20
-123.346
11
106.36
21
-123.004
0
LINE
8
Black
10
106.36
20
-123.004
11
106.36
21
-122.996
0
LINE
8
Black
10
106.36
20
-122.996
11
106.42
21
-122.654
0
LINE
8
Black
10
106.42
20
-122.654
11
106.594
21
-122.353
0
LINE
8
Black
10
106.594
20
-122.353
11
106.86
21
-122.13
0
LINE
8
Black
10
106.86
20
-122.13
11
107.186
21
-122.011
0
LINE
8
Black
10
107.186
20
-122.011
11
107.534
21
-122.011
0
LINE
8
Black
10
107.534
20
-122.011
11
107.86
21
-122.13
0
LINE
8
Black
10
105.32
20
-122.13
11
105.586
21
-122.353
0
LINE
8
Black
10
105.586
20
-122.353
11
105.76
21
-122.654
0
LINE
8
Black
10
105.76
20
-122.654
11
105.82
21
-122.996
0
LINE
8
Black
10
105.82
20
-122.996
11
105.82
21
-123.004
0
LINE
8
Black
10
105.82
20
-123.004
11
105.76
21
-123.346
0
LINE
8
Black
10
105.76
20
-123.346
11
105.586
21
-123.647
0
LINE
8
Black
10
105.586
20
-123.647
11
105.32
21
-123.87
0
LINE
8
Black
10
105.32
20
-123.87
11
104.994
21
-123.989
0
LINE
8
Black
10
104.994
20
-123.989
11
104.646
21
-123.989
0
LINE
8
Black
10
104.646
20
-123.989
11
104.32
21
-123.87
0
LINE
8
Black
10
104.32
20
-123.87
11
104.054
21
-123.647
0
LINE
8
Black
10
104.054
20
-123.647
11
103.88
21
-123.346
0
LINE
8
Black
10
103.88
20
-123.346
11
103.82
21
-123.004
0
LINE
8
Black
10
103.82
20
-123.004
11
103.82
21
-122.996
0
LINE
8
Black
10
103.82
20
-122.996
11
103.88
21
-122.654
0
LINE
8
Black
10
103.88
20
-122.654
11
104.054
21
-122.353
0
LINE
8
Black
10
104.054
20
-122.353
11
104.32
21
-122.13
0
LINE
8
Black
10
104.32
20
-122.13
11
104.646
21
-122.011
0
LINE
8
Black
10
104.646
20
-122.011
11
104.994
21
-122.011
0
LINE
8
Black
10
104.994
20
-122.011
11
105.32
21
-122.13
0
LINE
8
Black
10
208.13
20
-120.093
11
208.421
21
-120.26
0
LINE
8
Black
10
208.421
20
-120.26
11
208.636
21
-120.517
0
LINE
8
Black
10
208.636
20
-120.517
11
208.751
21
-120.832
0
LINE
8
Black
10
208.751
20
-120.832
11
208.751
21
-121.168
0
LINE
8
Black
10
208.751
20
-121.168
11
208.636
21
-121.483
0
LINE
8
Black
10
208.636
20
-121.483
11
208.421
21
-121.74
0
LINE
8
Black
10
208.421
20
-121.74
11
208.13
21
-121.907
0
LINE
8
Black
10
208.13
20
-121.907
11
207.8
21
-121.966
0
LINE
8
Black
10
207.8
20
-121.966
11
207.47
21
-121.907
0
LINE
8
Black
10
207.47
20
-121.907
11
207.179
21
-121.74
0
LINE
8
Black
10
207.179
20
-121.74
11
206.964
21
-121.483
0
LINE
8
Black
10
206.964
20
-121.483
11
206.849
21
-121.168
0
LINE
8
Black
10
206.849
20
-121.168
11
206.849
21
-120.832
0
LINE
8
Black
10
206.849
20
-120.832
11
206.964
21
-120.517
0
LINE
8
Black
10
206.964
20
-120.517
11
207.179
21
-120.26
0
LINE
8
Black
10
207.179
20
-120.26
11
207.47
21
-120.093
0
LINE
8
Black
10
207.47
20
-120.093
11
207.8
21
-120.034
0
LINE
8
Black
10
207.8
20
-120.034
11
208.13
21
-120.093
0
LINE
8
Black
10
210.63
20
-120.093
11
210.921
21
-120.26
0
LINE
8
Black
10
210.921
20
-120.26
11
211.136
21
-120.517
0
LINE
8
Black
10
211.136
20
-120.517
11
211.251
21
-120.832
0
LINE
8
Black
10
211.251
20
-120.832
11
211.251
21
-121.168
0
LINE
8
Black
10
211.251
20
-121.168
11
211.136
21
-121.483
0
LINE
8
Black
10
211.136
20
-121.483
11
210.921
21
-121.74
0
LINE
8
Black
10
210.921
20
-121.74
11
210.63
21
-121.907
0
LINE
8
Black
10
210.63
20
-121.907
11
210.3
21
-121.966
0
LINE
8
Black
10
210.3
20
-121.966
11
209.97
21
-121.907
0
LINE
8
Black
10
209.97
20
-121.907
11
209.679
21
-121.74
0
LINE
8
Black
10
209.679
20
-121.74
11
209.464
21
-121.483
0
LINE
8
Black
10
209.464
20
-121.483
11
209.349
21
-121.168
0
LINE
8
Black
10
209.349
20
-121.168
11
209.349
21
-120.832
0
LINE
8
Black
10
209.349
20
-120.832
11
209.464
21
-120.517
0
LINE
8
Black
10
209.464
20
-120.517
11
209.679
21
-120.26
0
LINE
8
Black
10
209.679
20
-120.26
11
209.97
21
-120.093
0
LINE
8
Black
10
209.97
20
-120.093
11
210.3
21
-120.034
0
LINE
8
Black
10
210.3
20
-120.034
11
210.63
21
-120.093
0
LINE
8
Black
10
204.1
20
-121.95
11
201.5
21
-121.95
0
LINE
8
Black
10
201.5
20
-121.95
11
201.5
21
-120.05
0
LINE
8
Black
10
201.5
20
-120.05
11
204.1
21
-120.05
0
LINE
8
Black
10
204.1
20
-120.05
11
204.1
21
-121.95
0
LINE
8
Black
10
192.581
20
-106.596
11
192.872
21
-106.764
0
LINE
8
Black
10
192.872
20
-106.764
11
193.087
21
-107.021
0
LINE
8
Black
10
193.087
20
-107.021
11
193.202
21
-107.336
0
LINE
8
Black
10
193.202
20
-107.336
11
193.202
21
-107.671
0
LINE
8
Black
10
193.202
20
-107.671
11
193.087
21
-107.986
0
LINE
8
Black
10
193.087
20
-107.986
11
192.872
21
-108.243
0
LINE
8
Black
10
192.872
20
-108.243
11
192.581
21
-108.411
0
LINE
8
Black
10
192.581
20
-108.411
11
192.251
21
-108.469
0
LINE
8
Black
10
192.251
20
-108.469
11
191.921
21
-108.411
0
LINE
8
Black
10
191.921
20
-108.411
11
191.63
21
-108.243
0
LINE
8
Black
10
191.63
20
-108.243
11
191.415
21
-107.986
0
LINE
8
Black
10
191.415
20
-107.986
11
191.3
21
-107.671
0
LINE
8
Black
10
191.3
20
-107.671
11
191.3
21
-107.336
0
LINE
8
Black
10
191.3
20
-107.336
11
191.415
21
-107.021
0
LINE
8
Black
10
191.415
20
-107.021
11
191.63
21
-106.764
0
LINE
8
Black
10
191.63
20
-106.764
11
191.921
21
-106.596
0
LINE
8
Black
10
191.921
20
-106.596
11
192.251
21
-106.538
0
LINE
8
Black
10
192.251
20
-106.538
11
192.581
21
-106.596
0
LINE
8
Black
10
125.081
20
-106.596
11
125.372
21
-106.764
0
LINE
8
Black
10
125.372
20
-106.764
11
125.587
21
-107.021
0
LINE
8
Black
10
125.587
20
-107.021
11
125.702
21
-107.336
0
LINE
8
Black
10
125.702
20
-107.336
11
125.702
21
-107.671
0
LINE
8
Black
10
125.702
20
-107.671
11
125.587
21
-107.986
0
LINE
8
Black
10
125.587
20
-107.986
11
125.372
21
-108.243
0
LINE
8
Black
10
125.372
20
-108.243
11
125.081
21
-108.411
0
LINE
8
Black
10
125.081
20
-108.411
11
124.751
21
-108.469
0
LINE
8
Black
10
124.751
20
-108.469
11
124.421
21
-108.411
0
LINE
8
Black
10
124.421
20
-108.411
11
124.13
21
-108.243
0
LINE
8
Black
10
124.13
20
-108.243
11
123.915
21
-107.986
0
LINE
8
Black
10
123.915
20
-107.986
11
123.8
21
-107.671
0
LINE
8
Black
10
123.8
20
-107.671
11
123.8
21
-107.336
0
LINE
8
Black
10
123.8
20
-107.336
11
123.915
21
-107.021
0
LINE
8
Black
10
123.915
20
-107.021
11
124.13
21
-106.764
0
LINE
8
Black
10
124.13
20
-106.764
11
124.421
21
-106.596
0
LINE
8
Black
10
124.421
20
-106.596
11
124.751
21
-106.538
0
LINE
8
Black
10
124.751
20
-106.538
11
125.081
21
-106.596
0
LINE
8
Black
10
147.581
20
-106.596
11
147.872
21
-106.764
0
LINE
8
Black
10
147.872
20
-106.764
11
148.087
21
-107.021
0
LINE
8
Black
10
148.087
20
-107.021
11
148.202
21
-107.336
0
LINE
8
Black
10
148.202
20
-107.336
11
148.202
21
-107.671
0
LINE
8
Black
10
148.202
20
-107.671
11
148.087
21
-107.986
0
LINE
8
Black
10
148.087
20
-107.986
11
147.872
21
-108.243
0
LINE
8
Black
10
147.872
20
-108.243
11
147.581
21
-108.411
0
LINE
8
Black
10
147.581
20
-108.411
11
147.251
21
-108.469
0
LINE
8
Black
10
147.251
20
-108.469
11
146.921
21
-108.411
0
LINE
8
Black
10
146.921
20
-108.411
11
146.63
21
-108.243
0
LINE
8
Black
10
146.63
20
-108.243
11
146.415
21
-107.986
0
LINE
8
Black
10
146.415
20
-107.986
11
146.3
21
-107.671
0
LINE
8
Black
10
146.3
20
-107.671
11
146.3
21
-107.336
0
LINE
8
Black
10
146.3
20
-107.336
11
146.415
21
-107.021
0
LINE
8
Black
10
146.415
20
-107.021
11
146.63
21
-106.764
0
LINE
8
Black
10
146.63
20
-106.764
11
146.921
21
-106.596
0
LINE
8
Black
10
146.921
20
-106.596
11
147.251
21
-106.538
0
LINE
8
Black
10
147.251
20
-106.538
11
147.581
21
-106.596
0
LINE
8
Black
10
145.081
20
-106.596
11
145.372
21
-106.764
0
LINE
8
Black
10
145.372
20
-106.764
11
145.587
21
-107.021
0
LINE
8
Black
10
145.587
20
-107.021
11
145.702
21
-107.336
0
LINE
8
Black
10
145.702
20
-107.336
11
145.702
21
-107.671
0
LINE
8
Black
10
145.702
20
-107.671
11
145.587
21
-107.986
0
LINE
8
Black
10
145.587
20
-107.986
11
145.372
21
-108.243
0
LINE
8
Black
10
145.372
20
-108.243
11
145.081
21
-108.411
0
LINE
8
Black
10
145.081
20
-108.411
11
144.751
21
-108.469
0
LINE
8
Black
10
144.751
20
-108.469
11
144.421
21
-108.411
0
LINE
8
Black
10
144.421
20
-108.411
11
144.13
21
-108.243
0
LINE
8
Black
10
144.13
20
-108.243
11
143.915
21
-107.986
0
LINE
8
Black
10
143.915
20
-107.986
11
143.8
21
-107.671
0
LINE
8
Black
10
143.8
20
-107.671
11
143.8
21
-107.336
0
LINE
8
Black
10
143.8
20
-107.336
11
143.915
21
-107.021
0
LINE
8
Black
10
143.915
20
-107.021
11
144.13
21
-106.764
0
LINE
8
Black
10
144.13
20
-106.764
11
144.421
21
-106.596
0
LINE
8
Black
10
144.421
20
-106.596
11
144.751
21
-106.538
0
LINE
8
Black
10
144.751
20
-106.538
11
145.081
21
-106.596
0
LINE
8
Black
10
142.581
20
-106.596
11
142.872
21
-106.764
0
LINE
8
Black
10
142.872
20
-106.764
11
143.087
21
-107.021
0
LINE
8
Black
10
143.087
20
-107.021
11
143.202
21
-107.336
0
LINE
8
Black
10
143.202
20
-107.336
11
143.202
21
-107.671
0
LINE
8
Black
10
143.202
20
-107.671
11
143.087
21
-107.986
0
LINE
8
Black
10
143.087
20
-107.986
11
142.872
21
-108.243
0
LINE
8
Black
10
142.872
20
-108.243
11
142.581
21
-108.411
0
LINE
8
Black
10
142.581
20
-108.411
11
142.251
21
-108.469
0
LINE
8
Black
10
142.251
20
-108.469
11
141.921
21
-108.411
0
LINE
8
Black
10
141.921
20
-108.411
11
141.63
21
-108.243
0
LINE
8
Black
10
141.63
20
-108.243
11
141.415
21
-107.986
0
LINE
8
Black
10
141.415
20
-107.986
11
141.3
21
-107.671
0
LINE
8
Black
10
141.3
20
-107.671
11
141.3
21
-107.336
0
LINE
8
Black
10
141.3
20
-107.336
11
141.415
21
-107.021
0
LINE
8
Black
10
141.415
20
-107.021
11
141.63
21
-106.764
0
LINE
8
Black
10
141.63
20
-106.764
11
141.921
21
-106.596
0
LINE
8
Black
10
141.921
20
-106.596
11
142.251
21
-106.538
0
LINE
8
Black
10
142.251
20
-106.538
11
142.581
21
-106.596
0
LINE
8
Black
10
140.081
20
-106.596
11
140.372
21
-106.764
0
LINE
8
Black
10
140.372
20
-106.764
11
140.587
21
-107.021
0
LINE
8
Black
10
140.587
20
-107.021
11
140.702
21
-107.336
0
LINE
8
Black
10
140.702
20
-107.336
11
140.702
21
-107.671
0
LINE
8
Black
10
140.702
20
-107.671
11
140.587
21
-107.986
0
LINE
8
Black
10
140.587
20
-107.986
11
140.372
21
-108.243
0
LINE
8
Black
10
140.372
20
-108.243
11
140.081
21
-108.411
0
LINE
8
Black
10
140.081
20
-108.411
11
139.751
21
-108.469
0
LINE
8
Black
10
139.751
20
-108.469
11
139.421
21
-108.411
0
LINE
8
Black
10
139.421
20
-108.411
11
139.13
21
-108.243
0
LINE
8
Black
10
139.13
20
-108.243
11
138.915
21
-107.986
0
LINE
8
Black
10
138.915
20
-107.986
11
138.8
21
-107.671
0
LINE
8
Black
10
138.8
20
-107.671
11
138.8
21
-107.336
0
LINE
8
Black
10
138.8
20
-107.336
11
138.915
21
-107.021
0
LINE
8
Black
10
138.915
20
-107.021
11
139.13
21
-106.764
0
LINE
8
Black
10
139.13
20
-106.764
11
139.421
21
-106.596
0
LINE
8
Black
10
139.421
20
-106.596
11
139.751
21
-106.538
0
LINE
8
Black
10
139.751
20
-106.538
11
140.081
21
-106.596
0
LINE
8
Black
10
137.581
20
-106.596
11
137.872
21
-106.764
0
LINE
8
Black
10
137.872
20
-106.764
11
138.087
21
-107.021
0
LINE
8
Black
10
138.087
20
-107.021
11
138.202
21
-107.336
0
LINE
8
Black
10
138.202
20
-107.336
11
138.202
21
-107.671
0
LINE
8
Black
10
138.202
20
-107.671
11
138.087
21
-107.986
0
LINE
8
Black
10
138.087
20
-107.986
11
137.872
21
-108.243
0
LINE
8
Black
10
137.872
20
-108.243
11
137.581
21
-108.411
0
LINE
8
Black
10
137.581
20
-108.411
11
137.251
21
-108.469
0
LINE
8
Black
10
137.251
20
-108.469
11
136.921
21
-108.411
0
LINE
8
Black
10
136.921
20
-108.411
11
136.63
21
-108.243
0
LINE
8
Black
10
136.63
20
-108.243
11
136.415
21
-107.986
0
LINE
8
Black
10
136.415
20
-107.986
11
136.3
21
-107.671
0
LINE
8
Black
10
136.3
20
-107.671
11
136.3
21
-107.336
0
LINE
8
Black
10
136.3
20
-107.336
11
136.415
21
-107.021
0
LINE
8
Black
10
136.415
20
-107.021
11
136.63
21
-106.764
0
LINE
8
Black
10
136.63
20
-106.764
11
136.921
21
-106.596
0
LINE
8
Black
10
136.921
20
-106.596
11
137.251
21
-106.538
0
LINE
8
Black
10
137.251
20
-106.538
11
137.581
21
-106.596
0
LINE
8
Black
10
135.081
20
-106.596
11
135.372
21
-106.764
0
LINE
8
Black
10
135.372
20
-106.764
11
135.587
21
-107.021
0
LINE
8
Black
10
135.587
20
-107.021
11
135.702
21
-107.336
0
LINE
8
Black
10
135.702
20
-107.336
11
135.702
21
-107.671
0
LINE
8
Black
10
135.702
20
-107.671
11
135.587
21
-107.986
0
LINE
8
Black
10
135.587
20
-107.986
11
135.372
21
-108.243
0
LINE
8
Black
10
135.372
20
-108.243
11
135.081
21
-108.411
0
LINE
8
Black
10
135.081
20
-108.411
11
134.751
21
-108.469
0
LINE
8
Black
10
134.751
20
-108.469
11
134.421
21
-108.411
0
LINE
8
Black
10
134.421
20
-108.411
11
134.13
21
-108.243
0
LINE
8
Black
10
134.13
20
-108.243
11
133.915
21
-107.986
0
LINE
8
Black
10
133.915
20
-107.986
11
133.8
21
-107.671
0
LINE
8
Black
10
133.8
20
-107.671
11
133.8
21
-107.336
0
LINE
8
Black
10
133.8
20
-107.336
11
133.915
21
-107.021
0
LINE
8
Black
10
133.915
20
-107.021
11
134.13
21
-106.764
0
LINE
8
Black
10
134.13
20
-106.764
11
134.421
21
-106.596
0
LINE
8
Black
10
134.421
20
-106.596
11
134.751
21
-106.538
0
LINE
8
Black
10
134.751
20
-106.538
11
135.081
21
-106.596
0
LINE
8
Black
10
132.581
20
-106.596
11
132.872
21
-106.764
0
LINE
8
Black
10
132.872
20
-106.764
11
133.087
21
-107.021
0
LINE
8
Black
10
133.087
20
-107.021
11
133.202
21
-107.336
0
LINE
8
Black
10
133.202
20
-107.336
11
133.202
21
-107.671
0
LINE
8
Black
10
133.202
20
-107.671
11
133.087
21
-107.986
0
LINE
8
Black
10
133.087
20
-107.986
11
132.872
21
-108.243
0
LINE
8
Black
10
132.872
20
-108.243
11
132.581
21
-108.411
0
LINE
8
Black
10
132.581
20
-108.411
11
132.251
21
-108.469
0
LINE
8
Black
10
132.251
20
-108.469
11
131.921
21
-108.411
0
LINE
8
Black
10
131.921
20
-108.411
11
131.63
21
-108.243
0
LINE
8
Black
10
131.63
20
-108.243
11
131.415
21
-107.986
0
LINE
8
Black
10
131.415
20
-107.986
11
131.3
21
-107.671
0
LINE
8
Black
10
131.3
20
-107.671
11
131.3
21
-107.336
0
LINE
8
Black
10
131.3
20
-107.336
11
131.415
21
-107.021
0
LINE
8
Black
10
131.415
20
-107.021
11
131.63
21
-106.764
0
LINE
8
Black
10
131.63
20
-106.764
11
131.921
21
-106.596
0
LINE
8
Black
10
131.921
20
-106.596
11
132.251
21
-106.538
0
LINE
8
Black
10
132.251
20
-106.538
11
132.581
21
-106.596
0
LINE
8
Black
10
130.081
20
-106.596
11
130.372
21
-106.764
0
LINE
8
Black
10
130.372
20
-106.764
11
130.587
21
-107.021
0
LINE
8
Black
10
130.587
20
-107.021
11
130.702
21
-107.336
0
LINE
8
Black
10
130.702
20
-107.336
11
130.702
21
-107.671
0
LINE
8
Black
10
130.702
20
-107.671
11
130.587
21
-107.986
0
LINE
8
Black
10
130.587
20
-107.986
11
130.372
21
-108.243
0
LINE
8
Black
10
130.372
20
-108.243
11
130.081
21
-108.411
0
LINE
8
Black
10
130.081
20
-108.411
11
129.751
21
-108.469
0
LINE
8
Black
10
129.751
20
-108.469
11
129.421
21
-108.411
0
LINE
8
Black
10
129.421
20
-108.411
11
129.13
21
-108.243
0
LINE
8
Black
10
129.13
20
-108.243
11
128.915
21
-107.986
0
LINE
8
Black
10
128.915
20
-107.986
11
128.8
21
-107.671
0
LINE
8
Black
10
128.8
20
-107.671
11
128.8
21
-107.336
0
LINE
8
Black
10
128.8
20
-107.336
11
128.915
21
-107.021
0
LINE
8
Black
10
128.915
20
-107.021
11
129.13
21
-106.764
0
LINE
8
Black
10
129.13
20
-106.764
11
129.421
21
-106.596
0
LINE
8
Black
10
129.421
20
-106.596
11
129.751
21
-106.538
0
LINE
8
Black
10
129.751
20
-106.538
11
130.081
21
-106.596
0
LINE
8
Black
10
127.581
20
-106.596
11
127.872
21
-106.764
0
LINE
8
Black
10
127.872
20
-106.764
11
128.087
21
-107.021
0
LINE
8
Black
10
128.087
20
-107.021
11
128.202
21
-107.336
0
LINE
8
Black
10
128.202
20
-107.336
11
128.202
21
-107.671
0
LINE
8
Black
10
128.202
20
-107.671
11
128.087
21
-107.986
0
LINE
8
Black
10
128.087
20
-107.986
11
127.872
21
-108.243
0
LINE
8
Black
10
127.872
20
-108.243
11
127.581
21
-108.411
0
LINE
8
Black
10
127.581
20
-108.411
11
127.251
21
-108.469
0
LINE
8
Black
10
127.251
20
-108.469
11
126.921
21
-108.411
0
LINE
8
Black
10
126.921
20
-108.411
11
126.63
21
-108.243
0
LINE
8
Black
10
126.63
20
-108.243
11
126.415
21
-107.986
0
LINE
8
Black
10
126.415
20
-107.986
11
126.3
21
-107.671
0
LINE
8
Black
10
126.3
20
-107.671
11
126.3
21
-107.336
0
LINE
8
Black
10
126.3
20
-107.336
11
126.415
21
-107.021
0
LINE
8
Black
10
126.415
20
-107.021
11
126.63
21
-106.764
0
LINE
8
Black
10
126.63
20
-106.764
11
126.921
21
-106.596
0
LINE
8
Black
10
126.921
20
-106.596
11
127.251
21
-106.538
0
LINE
8
Black
10
127.251
20
-106.538
11
127.581
21
-106.596
0
LINE
8
Black
10
150.081
20
-106.596
11
150.372
21
-106.764
0
LINE
8
Black
10
150.372
20
-106.764
11
150.587
21
-107.021
0
LINE
8
Black
10
150.587
20
-107.021
11
150.702
21
-107.336
0
LINE
8
Black
10
150.702
20
-107.336
11
150.702
21
-107.671
0
LINE
8
Black
10
150.702
20
-107.671
11
150.587
21
-107.986
0
LINE
8
Black
10
150.587
20
-107.986
11
150.372
21
-108.243
0
LINE
8
Black
10
150.372
20
-108.243
11
150.081
21
-108.411
0
LINE
8
Black
10
150.081
20
-108.411
11
149.751
21
-108.469
0
LINE
8
Black
10
149.751
20
-108.469
11
149.421
21
-108.411
0
LINE
8
Black
10
149.421
20
-108.411
11
149.13
21
-108.243
0
LINE
8
Black
10
149.13
20
-108.243
11
148.915
21
-107.986
0
LINE
8
Black
10
148.915
20
-107.986
11
148.8
21
-107.671
0
LINE
8
Black
10
148.8
20
-107.671
11
148.8
21
-107.336
0
LINE
8
Black
10
148.8
20
-107.336
11
148.915
21
-107.021
0
LINE
8
Black
10
148.915
20
-107.021
11
149.13
21
-106.764
0
LINE
8
Black
10
149.13
20
-106.764
11
149.421
21
-106.596
0
LINE
8
Black
10
149.421
20
-106.596
11
149.751
21
-106.538
0
LINE
8
Black
10
149.751
20
-106.538
11
150.081
21
-106.596
0
LINE
8
Black
10
122.581
20
-106.596
11
122.872
21
-106.764
0
LINE
8
Black
10
122.872
20
-106.764
11
123.087
21
-107.021
0
LINE
8
Black
10
123.087
20
-107.021
11
123.202
21
-107.336
0
LINE
8
Black
10
123.202
20
-107.336
11
123.202
21
-107.671
0
LINE
8
Black
10
123.202
20
-107.671
11
123.087
21
-107.986
0
LINE
8
Black
10
123.087
20
-107.986
11
122.872
21
-108.243
0
LINE
8
Black
10
122.872
20
-108.243
11
122.581
21
-108.411
0
LINE
8
Black
10
122.581
20
-108.411
11
122.251
21
-108.469
0
LINE
8
Black
10
122.251
20
-108.469
11
121.921
21
-108.411
0
LINE
8
Black
10
121.921
20
-108.411
11
121.63
21
-108.243
0
LINE
8
Black
10
121.63
20
-108.243
11
121.415
21
-107.986
0
LINE
8
Black
10
121.415
20
-107.986
11
121.3
21
-107.671
0
LINE
8
Black
10
121.3
20
-107.671
11
121.3
21
-107.336
0
LINE
8
Black
10
121.3
20
-107.336
11
121.415
21
-107.021
0
LINE
8
Black
10
121.415
20
-107.021
11
121.63
21
-106.764
0
LINE
8
Black
10
121.63
20
-106.764
11
121.921
21
-106.596
0
LINE
8
Black
10
121.921
20
-106.596
11
122.251
21
-106.538
0
LINE
8
Black
10
122.251
20
-106.538
11
122.581
21
-106.596
0
LINE
8
Black
10
120.081
20
-106.596
11
120.372
21
-106.764
0
LINE
8
Black
10
120.372
20
-106.764
11
120.587
21
-107.021
0
LINE
8
Black
10
120.587
20
-107.021
11
120.702
21
-107.336
0
LINE
8
Black
10
120.702
20
-107.336
11
120.702
21
-107.671
0
LINE
8
Black
10
120.702
20
-107.671
11
120.587
21
-107.986
0
LINE
8
Black
10
120.587
20
-107.986
11
120.372
21
-108.243
0
LINE
8
Black
10
120.372
20
-108.243
11
120.081
21
-108.411
0
LINE
8
Black
10
120.081
20
-108.411
11
119.751
21
-108.469
0
LINE
8
Black
10
119.751
20
-108.469
11
119.421
21
-108.411
0
LINE
8
Black
10
119.421
20
-108.411
11
119.13
21
-108.243
0
LINE
8
Black
10
119.13
20
-108.243
11
118.915
21
-107.986
0
LINE
8
Black
10
118.915
20
-107.986
11
118.8
21
-107.671
0
LINE
8
Black
10
118.8
20
-107.671
11
118.8
21
-107.336
0
LINE
8
Black
10
118.8
20
-107.336
11
118.915
21
-107.021
0
LINE
8
Black
10
118.915
20
-107.021
11
119.13
21
-106.764
0
LINE
8
Black
10
119.13
20
-106.764
11
119.421
21
-106.596
0
LINE
8
Black
10
119.421
20
-106.596
11
119.751
21
-106.538
0
LINE
8
Black
10
119.751
20
-106.538
11
120.081
21
-106.596
0
LINE
8
Black
10
117.581
20
-106.596
11
117.872
21
-106.764
0
LINE
8
Black
10
117.872
20
-106.764
11
118.087
21
-107.021
0
LINE
8
Black
10
118.087
20
-107.021
11
118.202
21
-107.336
0
LINE
8
Black
10
118.202
20
-107.336
11
118.202
21
-107.671
0
LINE
8
Black
10
118.202
20
-107.671
11
118.087
21
-107.986
0
LINE
8
Black
10
118.087
20
-107.986
11
117.872
21
-108.243
0
LINE
8
Black
10
117.872
20
-108.243
11
117.581
21
-108.411
0
LINE
8
Black
10
117.581
20
-108.411
11
117.251
21
-108.469
0
LINE
8
Black
10
117.251
20
-108.469
11
116.921
21
-108.411
0
LINE
8
Black
10
116.921
20
-108.411
11
116.63
21
-108.243
0
LINE
8
Black
10
116.63
20
-108.243
11
116.415
21
-107.986
0
LINE
8
Black
10
116.415
20
-107.986
11
116.3
21
-107.671
0
LINE
8
Black
10
116.3
20
-107.671
11
116.3
21
-107.336
0
LINE
8
Black
10
116.3
20
-107.336
11
116.415
21
-107.021
0
LINE
8
Black
10
116.415
20
-107.021
11
116.63
21
-106.764
0
LINE
8
Black
10
116.63
20
-106.764
11
116.921
21
-106.596
0
LINE
8
Black
10
116.921
20
-106.596
11
117.251
21
-106.538
0
LINE
8
Black
10
117.251
20
-106.538
11
117.581
21
-106.596
0
LINE
8
Black
10
115.081
20
-106.596
11
115.372
21
-106.764
0
LINE
8
Black
10
115.372
20
-106.764
11
115.587
21
-107.021
0
LINE
8
Black
10
115.587
20
-107.021
11
115.702
21
-107.336
0
LINE
8
Black
10
115.702
20
-107.336
11
115.702
21
-107.671
0
LINE
8
Black
10
115.702
20
-107.671
11
115.587
21
-107.986
0
LINE
8
Black
10
115.587
20
-107.986
11
115.372
21
-108.243
0
LINE
8
Black
10
115.372
20
-108.243
11
115.081
21
-108.411
0
LINE
8
Black
10
115.081
20
-108.411
11
114.751
21
-108.469
0
LINE
8
Black
10
114.751
20
-108.469
11
114.421
21
-108.411
0
LINE
8
Black
10
114.421
20
-108.411
11
114.13
21
-108.243
0
LINE
8
Black
10
114.13
20
-108.243
11
113.915
21
-107.986
0
LINE
8
Black
10
113.915
20
-107.986
11
113.8
21
-107.671
0
LINE
8
Black
10
113.8
20
-107.671
11
113.8
21
-107.336
0
LINE
8
Black
10
113.8
20
-107.336
11
113.915
21
-107.021
0
LINE
8
Black
10
113.915
20
-107.021
11
114.13
21
-106.764
0
LINE
8
Black
10
114.13
20
-106.764
11
114.421
21
-106.596
0
LINE
8
Black
10
114.421
20
-106.596
11
114.751
21
-106.538
0
LINE
8
Black
10
114.751
20
-106.538
11
115.081
21
-106.596
0
LINE
8
Black
10
112.581
20
-106.596
11
112.872
21
-106.764
0
LINE
8
Black
10
112.872
20
-106.764
11
113.087
21
-107.021
0
LINE
8
Black
10
113.087
20
-107.021
11
113.202
21
-107.336
0
LINE
8
Black
10
113.202
20
-107.336
11
113.202
21
-107.671
0
LINE
8
Black
10
113.202
20
-107.671
11
113.087
21
-107.986
0
LINE
8
Black
10
113.087
20
-107.986
11
112.872
21
-108.243
0
LINE
8
Black
10
112.872
20
-108.243
11
112.581
21
-108.411
0
LINE
8
Black
10
112.581
20
-108.411
11
112.251
21
-108.469
0
LINE
8
Black
10
112.251
20
-108.469
11
111.921
21
-108.411
0
LINE
8
Black
10
111.921
20
-108.411
11
111.63
21
-108.243
0
LINE
8
Black
10
111.63
20
-108.243
11
111.415
21
-107.986
0
LINE
8
Black
10
111.415
20
-107.986
11
111.3
21
-107.671
0
LINE
8
Black
10
111.3
20
-107.671
11
111.3
21
-107.336
0
LINE
8
Black
10
111.3
20
-107.336
11
111.415
21
-107.021
0
LINE
8
Black
10
111.415
20
-107.021
11
111.63
21
-106.764
0
LINE
8
Black
10
111.63
20
-106.764
11
111.921
21
-106.596
0
LINE
8
Black
10
111.921
20
-106.596
11
112.251
21
-106.538
0
LINE
8
Black
10
112.251
20
-106.538
11
112.581
21
-106.596
0
LINE
8
Black
10
110.081
20
-106.596
11
110.372
21
-106.764
0
LINE
8
Black
10
110.372
20
-106.764
11
110.587
21
-107.021
0
LINE
8
Black
10
110.587
20
-107.021
11
110.702
21
-107.336
0
LINE
8
Black
10
110.702
20
-107.336
11
110.702
21
-107.671
0
LINE
8
Black
10
110.702
20
-107.671
11
110.587
21
-107.986
0
LINE
8
Black
10
110.587
20
-107.986
11
110.372
21
-108.243
0
LINE
8
Black
10
110.372
20
-108.243
11
110.081
21
-108.411
0
LINE
8
Black
10
110.081
20
-108.411
11
109.751
21
-108.469
0
LINE
8
Black
10
109.751
20
-108.469
11
109.421
21
-108.411
0
LINE
8
Black
10
109.421
20
-108.411
11
109.13
21
-108.243
0
LINE
8
Black
10
109.13
20
-108.243
11
108.915
21
-107.986
0
LINE
8
Black
10
108.915
20
-107.986
11
108.8
21
-107.671
0
LINE
8
Black
10
108.8
20
-107.671
11
108.8
21
-107.336
0
LINE
8
Black
10
108.8
20
-107.336
11
108.915
21
-107.021
0
LINE
8
Black
10
108.915
20
-107.021
11
109.13
21
-106.764
0
LINE
8
Black
10
109.13
20
-106.764
11
109.421
21
-106.596
0
LINE
8
Black
10
109.421
20
-106.596
11
109.751
21
-106.538
0
LINE
8
Black
10
109.751
20
-106.538
11
110.081
21
-106.596
0
LINE
8
Black
10
107.581
20
-106.596
11
107.872
21
-106.764
0
LINE
8
Black
10
107.872
20
-106.764
11
108.087
21
-107.021
0
LINE
8
Black
10
108.087
20
-107.021
11
108.202
21
-107.336
0
LINE
8
Black
10
108.202
20
-107.336
11
108.202
21
-107.671
0
LINE
8
Black
10
108.202
20
-107.671
11
108.087
21
-107.986
0
LINE
8
Black
10
108.087
20
-107.986
11
107.872
21
-108.243
0
LINE
8
Black
10
107.872
20
-108.243
11
107.581
21
-108.411
0
LINE
8
Black
10
107.581
20
-108.411
11
107.251
21
-108.469
0
LINE
8
Black
10
107.251
20
-108.469
11
106.921
21
-108.411
0
LINE
8
Black
10
106.921
20
-108.411
11
106.63
21
-108.243
0
LINE
8
Black
10
106.63
20
-108.243
11
106.415
21
-107.986
0
LINE
8
Black
10
106.415
20
-107.986
11
106.3
21
-107.671
0
LINE
8
Black
10
106.3
20
-107.671
11
106.3
21
-107.336
0
LINE
8
Black
10
106.3
20
-107.336
11
106.415
21
-107.021
0
LINE
8
Black
10
106.415
20
-107.021
11
106.63
21
-106.764
0
LINE
8
Black
10
106.63
20
-106.764
11
106.921
21
-106.596
0
LINE
8
Black
10
106.921
20
-106.596
11
107.251
21
-106.538
0
LINE
8
Black
10
107.251
20
-106.538
11
107.581
21
-106.596
0
LINE
8
Black
10
105.081
20
-106.596
11
105.372
21
-106.764
0
LINE
8
Black
10
105.372
20
-106.764
11
105.587
21
-107.021
0
LINE
8
Black
10
105.587
20
-107.021
11
105.702
21
-107.336
0
LINE
8
Black
10
105.702
20
-107.336
11
105.702
21
-107.671
0
LINE
8
Black
10
105.702
20
-107.671
11
105.587
21
-107.986
0
LINE
8
Black
10
105.587
20
-107.986
11
105.372
21
-108.243
0
LINE
8
Black
10
105.372
20
-108.243
11
105.081
21
-108.411
0
LINE
8
Black
10
105.081
20
-108.411
11
104.751
21
-108.469
0
LINE
8
Black
10
104.751
20
-108.469
11
104.421
21
-108.411
0
LINE
8
Black
10
104.421
20
-108.411
11
104.13
21
-108.243
0
LINE
8
Black
10
104.13
20
-108.243
11
103.915
21
-107.986
0
LINE
8
Black
10
103.915
20
-107.986
11
103.8
21
-107.671
0
LINE
8
Black
10
103.8
20
-107.671
11
103.8
21
-107.336
0
LINE
8
Black
10
103.8
20
-107.336
11
103.915
21
-107.021
0
LINE
8
Black
10
103.915
20
-107.021
11
104.13
21
-106.764
0
LINE
8
Black
10
104.13
20
-106.764
11
104.421
21
-106.596
0
LINE
8
Black
10
104.421
20
-106.596
11
104.751
21
-106.538
0
LINE
8
Black
10
104.751
20
-106.538
11
105.081
21
-106.596
0
LINE
8
Black
10
170.081
20
-106.596
11
170.372
21
-106.764
0
LINE
8
Black
10
170.372
20
-106.764
11
170.587
21
-107.021
0
LINE
8
Black
10
170.587
20
-107.021
11
170.702
21
-107.336
0
LINE
8
Black
10
170.702
20
-107.336
11
170.702
21
-107.671
0
LINE
8
Black
10
170.702
20
-107.671
11
170.587
21
-107.986
0
LINE
8
Black
10
170.587
20
-107.986
11
170.372
21
-108.243
0
LINE
8
Black
10
170.372
20
-108.243
11
170.081
21
-108.411
0
LINE
8
Black
10
170.081
20
-108.411
11
169.751
21
-108.469
0
LINE
8
Black
10
169.751
20
-108.469
11
169.421
21
-108.411
0
LINE
8
Black
10
169.421
20
-108.411
11
169.13
21
-108.243
0
LINE
8
Black
10
169.13
20
-108.243
11
168.915
21
-107.986
0
LINE
8
Black
10
168.915
20
-107.986
11
168.8
21
-107.671
0
LINE
8
Black
10
168.8
20
-107.671
11
168.8
21
-107.336
0
LINE
8
Black
10
168.8
20
-107.336
11
168.915
21
-107.021
0
LINE
8
Black
10
168.915
20
-107.021
11
169.13
21
-106.764
0
LINE
8
Black
10
169.13
20
-106.764
11
169.421
21
-106.596
0
LINE
8
Black
10
169.421
20
-106.596
11
169.751
21
-106.538
0
LINE
8
Black
10
169.751
20
-106.538
11
170.081
21
-106.596
0
LINE
8
Black
10
187.581
20
-106.596
11
187.872
21
-106.764
0
LINE
8
Black
10
187.872
20
-106.764
11
188.087
21
-107.021
0
LINE
8
Black
10
188.087
20
-107.021
11
188.202
21
-107.336
0
LINE
8
Black
10
188.202
20
-107.336
11
188.202
21
-107.671
0
LINE
8
Black
10
188.202
20
-107.671
11
188.087
21
-107.986
0
LINE
8
Black
10
188.087
20
-107.986
11
187.872
21
-108.243
0
LINE
8
Black
10
187.872
20
-108.243
11
187.581
21
-108.411
0
LINE
8
Black
10
187.581
20
-108.411
11
187.251
21
-108.469
0
LINE
8
Black
10
187.251
20
-108.469
11
186.921
21
-108.411
0
LINE
8
Black
10
186.921
20
-108.411
11
186.63
21
-108.243
0
LINE
8
Black
10
186.63
20
-108.243
11
186.415
21
-107.986
0
LINE
8
Black
10
186.415
20
-107.986
11
186.3
21
-107.671
0
LINE
8
Black
10
186.3
20
-107.671
11
186.3
21
-107.336
0
LINE
8
Black
10
186.3
20
-107.336
11
186.415
21
-107.021
0
LINE
8
Black
10
186.415
20
-107.021
11
186.63
21
-106.764
0
LINE
8
Black
10
186.63
20
-106.764
11
186.921
21
-106.596
0
LINE
8
Black
10
186.921
20
-106.596
11
187.251
21
-106.538
0
LINE
8
Black
10
187.251
20
-106.538
11
187.581
21
-106.596
0
LINE
8
Black
10
185.081
20
-106.596
11
185.372
21
-106.764
0
LINE
8
Black
10
185.372
20
-106.764
11
185.587
21
-107.021
0
LINE
8
Black
10
185.587
20
-107.021
11
185.702
21
-107.336
0
LINE
8
Black
10
185.702
20
-107.336
11
185.702
21
-107.671
0
LINE
8
Black
10
185.702
20
-107.671
11
185.587
21
-107.986
0
LINE
8
Black
10
185.587
20
-107.986
11
185.372
21
-108.243
0
LINE
8
Black
10
185.372
20
-108.243
11
185.081
21
-108.411
0
LINE
8
Black
10
185.081
20
-108.411
11
184.751
21
-108.469
0
LINE
8
Black
10
184.751
20
-108.469
11
184.421
21
-108.411
0
LINE
8
Black
10
184.421
20
-108.411
11
184.13
21
-108.243
0
LINE
8
Black
10
184.13
20
-108.243
11
183.915
21
-107.986
0
LINE
8
Black
10
183.915
20
-107.986
11
183.8
21
-107.671
0
LINE
8
Black
10
183.8
20
-107.671
11
183.8
21
-107.336
0
LINE
8
Black
10
183.8
20
-107.336
11
183.915
21
-107.021
0
LINE
8
Black
10
183.915
20
-107.021
11
184.13
21
-106.764
0
LINE
8
Black
10
184.13
20
-106.764
11
184.421
21
-106.596
0
LINE
8
Black
10
184.421
20
-106.596
11
184.751
21
-106.538
0
LINE
8
Black
10
184.751
20
-106.538
11
185.081
21
-106.596
0
LINE
8
Black
10
182.581
20
-106.596
11
182.872
21
-106.764
0
LINE
8
Black
10
182.872
20
-106.764
11
183.087
21
-107.021
0
LINE
8
Black
10
183.087
20
-107.021
11
183.202
21
-107.336
0
LINE
8
Black
10
183.202
20
-107.336
11
183.202
21
-107.671
0
LINE
8
Black
10
183.202
20
-107.671
11
183.087
21
-107.986
0
LINE
8
Black
10
183.087
20
-107.986
11
182.872
21
-108.243
0
LINE
8
Black
10
182.872
20
-108.243
11
182.581
21
-108.411
0
LINE
8
Black
10
182.581
20
-108.411
11
182.251
21
-108.469
0
LINE
8
Black
10
182.251
20
-108.469
11
181.921
21
-108.411
0
LINE
8
Black
10
181.921
20
-108.411
11
181.63
21
-108.243
0
LINE
8
Black
10
181.63
20
-108.243
11
181.415
21
-107.986
0
LINE
8
Black
10
181.415
20
-107.986
11
181.3
21
-107.671
0
LINE
8
Black
10
181.3
20
-107.671
11
181.3
21
-107.336
0
LINE
8
Black
10
181.3
20
-107.336
11
181.415
21
-107.021
0
LINE
8
Black
10
181.415
20
-107.021
11
181.63
21
-106.764
0
LINE
8
Black
10
181.63
20
-106.764
11
181.921
21
-106.596
0
LINE
8
Black
10
181.921
20
-106.596
11
182.251
21
-106.538
0
LINE
8
Black
10
182.251
20
-106.538
11
182.581
21
-106.596
0
LINE
8
Black
10
180.081
20
-106.596
11
180.372
21
-106.764
0
LINE
8
Black
10
180.372
20
-106.764
11
180.587
21
-107.021
0
LINE
8
Black
10
180.587
20
-107.021
11
180.702
21
-107.336
0
LINE
8
Black
10
180.702
20
-107.336
11
180.702
21
-107.671
0
LINE
8
Black
10
180.702
20
-107.671
11
180.587
21
-107.986
0
LINE
8
Black
10
180.587
20
-107.986
11
180.372
21
-108.243
0
LINE
8
Black
10
180.372
20
-108.243
11
180.081
21
-108.411
0
LINE
8
Black
10
180.081
20
-108.411
11
179.751
21
-108.469
0
LINE
8
Black
10
179.751
20
-108.469
11
179.421
21
-108.411
0
LINE
8
Black
10
179.421
20
-108.411
11
179.13
21
-108.243
0
LINE
8
Black
10
179.13
20
-108.243
11
178.915
21
-107.986
0
LINE
8
Black
10
178.915
20
-107.986
11
178.8
21
-107.671
0
LINE
8
Black
10
178.8
20
-107.671
11
178.8
21
-107.336
0
LINE
8
Black
10
178.8
20
-107.336
11
178.915
21
-107.021
0
LINE
8
Black
10
178.915
20
-107.021
11
179.13
21
-106.764
0
LINE
8
Black
10
179.13
20
-106.764
11
179.421
21
-106.596
0
LINE
8
Black
10
179.421
20
-106.596
11
179.751
21
-106.538
0
LINE
8
Black
10
179.751
20
-106.538
11
180.081
21
-106.596
0
LINE
8
Black
10
177.581
20
-106.596
11
177.872
21
-106.764
0
LINE
8
Black
10
177.872
20
-106.764
11
178.087
21
-107.021
0
LINE
8
Black
10
178.087
20
-107.021
11
178.202
21
-107.336
0
LINE
8
Black
10
178.202
20
-107.336
11
178.202
21
-107.671
0
LINE
8
Black
10
178.202
20
-107.671
11
178.087
21
-107.986
0
LINE
8
Black
10
178.087
20
-107.986
11
177.872
21
-108.243
0
LINE
8
Black
10
177.872
20
-108.243
11
177.581
21
-108.411
0
LINE
8
Black
10
177.581
20
-108.411
11
177.251
21
-108.469
0
LINE
8
Black
10
177.251
20
-108.469
11
176.921
21
-108.411
0
LINE
8
Black
10
176.921
20
-108.411
11
176.63
21
-108.243
0
LINE
8
Black
10
176.63
20
-108.243
11
176.415
21
-107.986
0
LINE
8
Black
10
176.415
20
-107.986
11
176.3
21
-107.671
0
LINE
8
Black
10
176.3
20
-107.671
11
176.3
21
-107.336
0
LINE
8
Black
10
176.3
20
-107.336
11
176.415
21
-107.021
0
LINE
8
Black
10
176.415
20
-107.021
11
176.63
21
-106.764
0
LINE
8
Black
10
176.63
20
-106.764
11
176.921
21
-106.596
0
LINE
8
Black
10
176.921
20
-106.596
11
177.251
21
-106.538
0
LINE
8
Black
10
177.251
20
-106.538
11
177.581
21
-106.596
0
LINE
8
Black
10
175.081
20
-106.596
11
175.372
21
-106.764
0
LINE
8
Black
10
175.372
20
-106.764
11
175.587
21
-107.021
0
LINE
8
Black
10
175.587
20
-107.021
11
175.702
21
-107.336
0
LINE
8
Black
10
175.702
20
-107.336
11
175.702
21
-107.671
0
LINE
8
Black
10
175.702
20
-107.671
11
175.587
21
-107.986
0
LINE
8
Black
10
175.587
20
-107.986
11
175.372
21
-108.243
0
LINE
8
Black
10
175.372
20
-108.243
11
175.081
21
-108.411
0
LINE
8
Black
10
175.081
20
-108.411
11
174.751
21
-108.469
0
LINE
8
Black
10
174.751
20
-108.469
11
174.421
21
-108.411
0
LINE
8
Black
10
174.421
20
-108.411
11
174.13
21
-108.243
0
LINE
8
Black
10
174.13
20
-108.243
11
173.915
21
-107.986
0
LINE
8
Black
10
173.915
20
-107.986
11
173.8
21
-107.671
0
LINE
8
Black
10
173.8
20
-107.671
11
173.8
21
-107.336
0
LINE
8
Black
10
173.8
20
-107.336
11
173.915
21
-107.021
0
LINE
8
Black
10
173.915
20
-107.021
11
174.13
21
-106.764
0
LINE
8
Black
10
174.13
20
-106.764
11
174.421
21
-106.596
0
LINE
8
Black
10
174.421
20
-106.596
11
174.751
21
-106.538
0
LINE
8
Black
10
174.751
20
-106.538
11
175.081
21
-106.596
0
LINE
8
Black
10
172.581
20
-106.596
11
172.872
21
-106.764
0
LINE
8
Black
10
172.872
20
-106.764
11
173.087
21
-107.021
0
LINE
8
Black
10
173.087
20
-107.021
11
173.202
21
-107.336
0
LINE
8
Black
10
173.202
20
-107.336
11
173.202
21
-107.671
0
LINE
8
Black
10
173.202
20
-107.671
11
173.087
21
-107.986
0
LINE
8
Black
10
173.087
20
-107.986
11
172.872
21
-108.243
0
LINE
8
Black
10
172.872
20
-108.243
11
172.581
21
-108.411
0
LINE
8
Black
10
172.581
20
-108.411
11
172.251
21
-108.469
0
LINE
8
Black
10
172.251
20
-108.469
11
171.921
21
-108.411
0
LINE
8
Black
10
171.921
20
-108.411
11
171.63
21
-108.243
0
LINE
8
Black
10
171.63
20
-108.243
11
171.415
21
-107.986
0
LINE
8
Black
10
171.415
20
-107.986
11
171.3
21
-107.671
0
LINE
8
Black
10
171.3
20
-107.671
11
171.3
21
-107.336
0
LINE
8
Black
10
171.3
20
-107.336
11
171.415
21
-107.021
0
LINE
8
Black
10
171.415
20
-107.021
11
171.63
21
-106.764
0
LINE
8
Black
10
171.63
20
-106.764
11
171.921
21
-106.596
0
LINE
8
Black
10
171.921
20
-106.596
11
172.251
21
-106.538
0
LINE
8
Black
10
172.251
20
-106.538
11
172.581
21
-106.596
0
LINE
8
Black
10
190.081
20
-106.596
11
190.372
21
-106.764
0
LINE
8
Black
10
190.372
20
-106.764
11
190.587
21
-107.021
0
LINE
8
Black
10
190.587
20
-107.021
11
190.702
21
-107.336
0
LINE
8
Black
10
190.702
20
-107.336
11
190.702
21
-107.671
0
LINE
8
Black
10
190.702
20
-107.671
11
190.587
21
-107.986
0
LINE
8
Black
10
190.587
20
-107.986
11
190.372
21
-108.243
0
LINE
8
Black
10
190.372
20
-108.243
11
190.081
21
-108.411
0
LINE
8
Black
10
190.081
20
-108.411
11
189.751
21
-108.469
0
LINE
8
Black
10
189.751
20
-108.469
11
189.421
21
-108.411
0
LINE
8
Black
10
189.421
20
-108.411
11
189.13
21
-108.243
0
LINE
8
Black
10
189.13
20
-108.243
11
188.915
21
-107.986
0
LINE
8
Black
10
188.915
20
-107.986
11
188.8
21
-107.671
0
LINE
8
Black
10
188.8
20
-107.671
11
188.8
21
-107.336
0
LINE
8
Black
10
188.8
20
-107.336
11
188.915
21
-107.021
0
LINE
8
Black
10
188.915
20
-107.021
11
189.13
21
-106.764
0
LINE
8
Black
10
189.13
20
-106.764
11
189.421
21
-106.596
0
LINE
8
Black
10
189.421
20
-106.596
11
189.751
21
-106.538
0
LINE
8
Black
10
189.751
20
-106.538
11
190.081
21
-106.596
0
LINE
8
Black
10
167.581
20
-106.596
11
167.872
21
-106.764
0
LINE
8
Black
10
167.872
20
-106.764
11
168.087
21
-107.021
0
LINE
8
Black
10
168.087
20
-107.021
11
168.202
21
-107.336
0
LINE
8
Black
10
168.202
20
-107.336
11
168.202
21
-107.671
0
LINE
8
Black
10
168.202
20
-107.671
11
168.087
21
-107.986
0
LINE
8
Black
10
168.087
20
-107.986
11
167.872
21
-108.243
0
LINE
8
Black
10
167.872
20
-108.243
11
167.581
21
-108.411
0
LINE
8
Black
10
167.581
20
-108.411
11
167.251
21
-108.469
0
LINE
8
Black
10
167.251
20
-108.469
11
166.921
21
-108.411
0
LINE
8
Black
10
166.921
20
-108.411
11
166.63
21
-108.243
0
LINE
8
Black
10
166.63
20
-108.243
11
166.415
21
-107.986
0
LINE
8
Black
10
166.415
20
-107.986
11
166.3
21
-107.671
0
LINE
8
Black
10
166.3
20
-107.671
11
166.3
21
-107.336
0
LINE
8
Black
10
166.3
20
-107.336
11
166.415
21
-107.021
0
LINE
8
Black
10
166.415
20
-107.021
11
166.63
21
-106.764
0
LINE
8
Black
10
166.63
20
-106.764
11
166.921
21
-106.596
0
LINE
8
Black
10
166.921
20
-106.596
11
167.251
21
-106.538
0
LINE
8
Black
10
167.251
20
-106.538
11
167.581
21
-106.596
0
LINE
8
Black
10
165.081
20
-106.596
11
165.372
21
-106.764
0
LINE
8
Black
10
165.372
20
-106.764
11
165.587
21
-107.021
0
LINE
8
Black
10
165.587
20
-107.021
11
165.702
21
-107.336
0
LINE
8
Black
10
165.702
20
-107.336
11
165.702
21
-107.671
0
LINE
8
Black
10
165.702
20
-107.671
11
165.587
21
-107.986
0
LINE
8
Black
10
165.587
20
-107.986
11
165.372
21
-108.243
0
LINE
8
Black
10
165.372
20
-108.243
11
165.081
21
-108.411
0
LINE
8
Black
10
165.081
20
-108.411
11
164.751
21
-108.469
0
LINE
8
Black
10
164.751
20
-108.469
11
164.421
21
-108.411
0
LINE
8
Black
10
164.421
20
-108.411
11
164.13
21
-108.243
0
LINE
8
Black
10
164.13
20
-108.243
11
163.915
21
-107.986
0
LINE
8
Black
10
163.915
20
-107.986
11
163.8
21
-107.671
0
LINE
8
Black
10
163.8
20
-107.671
11
163.8
21
-107.336
0
LINE
8
Black
10
163.8
20
-107.336
11
163.915
21
-107.021
0
LINE
8
Black
10
163.915
20
-107.021
11
164.13
21
-106.764
0
LINE
8
Black
10
164.13
20
-106.764
11
164.421
21
-106.596
0
LINE
8
Black
10
164.421
20
-106.596
11
164.751
21
-106.538
0
LINE
8
Black
10
164.751
20
-106.538
11
165.081
21
-106.596
0
LINE
8
Black
10
162.581
20
-106.596
11
162.872
21
-106.764
0
LINE
8
Black
10
162.872
20
-106.764
11
163.087
21
-107.021
0
LINE
8
Black
10
163.087
20
-107.021
11
163.202
21
-107.336
0
LINE
8
Black
10
163.202
20
-107.336
11
163.202
21
-107.671
0
LINE
8
Black
10
163.202
20
-107.671
11
163.087
21
-107.986
0
LINE
8
Black
10
163.087
20
-107.986
11
162.872
21
-108.243
0
LINE
8
Black
10
162.872
20
-108.243
11
162.581
21
-108.411
0
LINE
8
Black
10
162.581
20
-108.411
11
162.251
21
-108.469
0
LINE
8
Black
10
162.251
20
-108.469
11
161.921
21
-108.411
0
LINE
8
Black
10
161.921
20
-108.411
11
161.63
21
-108.243
0
LINE
8
Black
10
161.63
20
-108.243
11
161.415
21
-107.986
0
LINE
8
Black
10
161.415
20
-107.986
11
161.3
21
-107.671
0
LINE
8
Black
10
161.3
20
-107.671
11
161.3
21
-107.336
0
LINE
8
Black
10
161.3
20
-107.336
11
161.415
21
-107.021
0
LINE
8
Black
10
161.415
20
-107.021
11
161.63
21
-106.764
0
LINE
8
Black
10
161.63
20
-106.764
11
161.921
21
-106.596
0
LINE
8
Black
10
161.921
20
-106.596
11
162.251
21
-106.538
0
LINE
8
Black
10
162.251
20
-106.538
11
162.581
21
-106.596
0
LINE
8
Black
10
160.081
20
-106.596
11
160.372
21
-106.764
0
LINE
8
Black
10
160.372
20
-106.764
11
160.587
21
-107.021
0
LINE
8
Black
10
160.587
20
-107.021
11
160.702
21
-107.336
0
LINE
8
Black
10
160.702
20
-107.336
11
160.702
21
-107.671
0
LINE
8
Black
10
160.702
20
-107.671
11
160.587
21
-107.986
0
LINE
8
Black
10
160.587
20
-107.986
11
160.372
21
-108.243
0
LINE
8
Black
10
160.372
20
-108.243
11
160.081
21
-108.411
0
LINE
8
Black
10
160.081
20
-108.411
11
159.751
21
-108.469
0
LINE
8
Black
10
159.751
20
-108.469
11
159.421
21
-108.411
0
LINE
8
Black
10
159.421
20
-108.411
11
159.13
21
-108.243
0
LINE
8
Black
10
159.13
20
-108.243
11
158.915
21
-107.986
0
LINE
8
Black
10
158.915
20
-107.986
11
158.8
21
-107.671
0
LINE
8
Black
10
158.8
20
-107.671
11
158.8
21
-107.336
0
LINE
8
Black
10
158.8
20
-107.336
11
158.915
21
-107.021
0
LINE
8
Black
10
158.915
20
-107.021
11
159.13
21
-106.764
0
LINE
8
Black
10
159.13
20
-106.764
11
159.421
21
-106.596
0
LINE
8
Black
10
159.421
20
-106.596
11
159.751
21
-106.538
0
LINE
8
Black
10
159.751
20
-106.538
11
160.081
21
-106.596
0
LINE
8
Black
10
157.581
20
-106.596
11
157.872
21
-106.764
0
LINE
8
Black
10
157.872
20
-106.764
11
158.087
21
-107.021
0
LINE
8
Black
10
158.087
20
-107.021
11
158.202
21
-107.336
0
LINE
8
Black
10
158.202
20
-107.336
11
158.202
21
-107.671
0
LINE
8
Black
10
158.202
20
-107.671
11
158.087
21
-107.986
0
LINE
8
Black
10
158.087
20
-107.986
11
157.872
21
-108.243
0
LINE
8
Black
10
157.872
20
-108.243
11
157.581
21
-108.411
0
LINE
8
Black
10
157.581
20
-108.411
11
157.251
21
-108.469
0
LINE
8
Black
10
157.251
20
-108.469
11
156.921
21
-108.411
0
LINE
8
Black
10
156.921
20
-108.411
11
156.63
21
-108.243
0
LINE
8
Black
10
156.63
20
-108.243
11
156.415
21
-107.986
0
LINE
8
Black
10
156.415
20
-107.986
11
156.3
21
-107.671
0
LINE
8
Black
10
156.3
20
-107.671
11
156.3
21
-107.336
0
LINE
8
Black
10
156.3
20
-107.336
11
156.415
21
-107.021
0
LINE
8
Black
10
156.415
20
-107.021
11
156.63
21
-106.764
0
LINE
8
Black
10
156.63
20
-106.764
11
156.921
21
-106.596
0
LINE
8
Black
10
156.921
20
-106.596
11
157.251
21
-106.538
0
LINE
8
Black
10
157.251
20
-106.538
11
157.581
21
-106.596
0
LINE
8
Black
10
155.081
20
-106.596
11
155.372
21
-106.764
0
LINE
8
Black
10
155.372
20
-106.764
11
155.587
21
-107.021
0
LINE
8
Black
10
155.587
20
-107.021
11
155.702
21
-107.336
0
LINE
8
Black
10
155.702
20
-107.336
11
155.702
21
-107.671
0
LINE
8
Black
10
155.702
20
-107.671
11
155.587
21
-107.986
0
LINE
8
Black
10
155.587
20
-107.986
11
155.372
21
-108.243
0
LINE
8
Black
10
155.372
20
-108.243
11
155.081
21
-108.411
0
LINE
8
Black
10
155.081
20
-108.411
11
154.751
21
-108.469
0
LINE
8
Black
10
154.751
20
-108.469
11
154.421
21
-108.411
0
LINE
8
Black
10
154.421
20
-108.411
11
154.13
21
-108.243
0
LINE
8
Black
10
154.13
20
-108.243
11
153.915
21
-107.986
0
LINE
8
Black
10
153.915
20
-107.986
11
153.8
21
-107.671
0
LINE
8
Black
10
153.8
20
-107.671
11
153.8
21
-107.336
0
LINE
8
Black
10
153.8
20
-107.336
11
153.915
21
-107.021
0
LINE
8
Black
10
153.915
20
-107.021
11
154.13
21
-106.764
0
LINE
8
Black
10
154.13
20
-106.764
11
154.421
21
-106.596
0
LINE
8
Black
10
154.421
20
-106.596
11
154.751
21
-106.538
0
LINE
8
Black
10
154.751
20
-106.538
11
155.081
21
-106.596
0
LINE
8
Black
10
152.581
20
-106.596
11
152.872
21
-106.764
0
LINE
8
Black
10
152.872
20
-106.764
11
153.087
21
-107.021
0
LINE
8
Black
10
153.087
20
-107.021
11
153.202
21
-107.336
0
LINE
8
Black
10
153.202
20
-107.336
11
153.202
21
-107.671
0
LINE
8
Black
10
153.202
20
-107.671
11
153.087
21
-107.986
0
LINE
8
Black
10
153.087
20
-107.986
11
152.872
21
-108.243
0
LINE
8
Black
10
152.872
20
-108.243
11
152.581
21
-108.411
0
LINE
8
Black
10
152.581
20
-108.411
11
152.251
21
-108.469
0
LINE
8
Black
10
152.251
20
-108.469
11
151.921
21
-108.411
0
LINE
8
Black
10
151.921
20
-108.411
11
151.63
21
-108.243
0
LINE
8
Black
10
151.63
20
-108.243
11
151.415
21
-107.986
0
LINE
8
Black
10
151.415
20
-107.986
11
151.3
21
-107.671
0
LINE
8
Black
10
151.3
20
-107.671
11
151.3
21
-107.336
0
LINE
8
Black
10
151.3
20
-107.336
11
151.415
21
-107.021
0
LINE
8
Black
10
151.415
20
-107.021
11
151.63
21
-106.764
0
LINE
8
Black
10
151.63
20
-106.764
11
151.921
21
-106.596
0
LINE
8
Black
10
151.921
20
-106.596
11
152.251
21
-106.538
0
LINE
8
Black
10
152.251
20
-106.538
11
152.581
21
-106.596
0
LINE
8
Black
10
92.2564
20
-102.928
11
92.9206
21
-103.312
0
LINE
8
Black
10
92.9206
20
-103.312
11
93.4136
21
-103.899
0
LINE
8
Black
10
93.4136
20
-103.899
11
93.676
21
-104.62
0
LINE
8
Black
10
93.676
20
-104.62
11
93.676
21
-105.387
0
LINE
8
Black
10
93.676
20
-105.387
11
93.4136
21
-106.108
0
LINE
8
Black
10
93.4136
20
-106.108
11
92.9206
21
-106.695
0
LINE
8
Black
10
92.9206
20
-106.695
11
92.2564
21
-107.079
0
LINE
8
Black
10
92.2564
20
-107.079
11
91.5011
21
-107.212
0
LINE
8
Black
10
91.5011
20
-107.212
11
90.7458
21
-107.079
0
LINE
8
Black
10
90.7458
20
-107.079
11
90.0816
21
-106.695
0
LINE
8
Black
10
90.0816
20
-106.695
11
89.5886
21
-106.108
0
LINE
8
Black
10
89.5886
20
-106.108
11
89.3262
21
-105.387
0
LINE
8
Black
10
89.3262
20
-105.387
11
89.3262
21
-104.62
0
LINE
8
Black
10
89.3262
20
-104.62
11
89.5886
21
-103.899
0
LINE
8
Black
10
89.5886
20
-103.899
11
90.0816
21
-103.312
0
LINE
8
Black
10
90.0816
20
-103.312
11
90.7458
21
-102.928
0
LINE
8
Black
10
90.7458
20
-102.928
11
91.5011
21
-102.795
0
LINE
8
Black
10
91.5011
20
-102.795
11
92.2564
21
-102.928
0
LINE
8
Black
10
206.256
20
-102.928
11
206.921
21
-103.312
0
LINE
8
Black
10
206.921
20
-103.312
11
207.414
21
-103.899
0
LINE
8
Black
10
207.414
20
-103.899
11
207.676
21
-104.62
0
LINE
8
Black
10
207.676
20
-104.62
11
207.676
21
-105.387
0
LINE
8
Black
10
207.676
20
-105.387
11
207.414
21
-106.108
0
LINE
8
Black
10
207.414
20
-106.108
11
206.921
21
-106.695
0
LINE
8
Black
10
206.921
20
-106.695
11
206.256
21
-107.079
0
LINE
8
Black
10
206.256
20
-107.079
11
205.501
21
-107.212
0
LINE
8
Black
10
205.501
20
-107.212
11
204.746
21
-107.079
0
LINE
8
Black
10
204.746
20
-107.079
11
204.082
21
-106.695
0
LINE
8
Black
10
204.082
20
-106.695
11
203.589
21
-106.108
0
LINE
8
Black
10
203.589
20
-106.108
11
203.326
21
-105.387
0
LINE
8
Black
10
203.326
20
-105.387
11
203.326
21
-104.62
0
LINE
8
Black
10
203.326
20
-104.62
11
203.589
21
-103.899
0
LINE
8
Black
10
203.589
20
-103.899
11
204.082
21
-103.312
0
LINE
8
Black
10
204.082
20
-103.312
11
204.746
21
-102.928
0
LINE
8
Black
10
204.746
20
-102.928
11
205.501
21
-102.795
0
LINE
8
Black
10
205.501
20
-102.795
11
206.256
21
-102.928
0
LINE
8
Black
10
190.081
20
-101.596
11
190.372
21
-101.764
0
LINE
8
Black
10
190.372
20
-101.764
11
190.587
21
-102.021
0
LINE
8
Black
10
190.587
20
-102.021
11
190.702
21
-102.336
0
LINE
8
Black
10
190.702
20
-102.336
11
190.702
21
-102.671
0
LINE
8
Black
10
190.702
20
-102.671
11
190.587
21
-102.986
0
LINE
8
Black
10
190.587
20
-102.986
11
190.372
21
-103.243
0
LINE
8
Black
10
190.372
20
-103.243
11
190.081
21
-103.411
0
LINE
8
Black
10
190.081
20
-103.411
11
189.751
21
-103.469
0
LINE
8
Black
10
189.751
20
-103.469
11
189.421
21
-103.411
0
LINE
8
Black
10
189.421
20
-103.411
11
189.13
21
-103.243
0
LINE
8
Black
10
189.13
20
-103.243
11
188.915
21
-102.986
0
LINE
8
Black
10
188.915
20
-102.986
11
188.8
21
-102.671
0
LINE
8
Black
10
188.8
20
-102.671
11
188.8
21
-102.336
0
LINE
8
Black
10
188.8
20
-102.336
11
188.915
21
-102.021
0
LINE
8
Black
10
188.915
20
-102.021
11
189.13
21
-101.764
0
LINE
8
Black
10
189.13
20
-101.764
11
189.421
21
-101.596
0
LINE
8
Black
10
189.421
20
-101.596
11
189.751
21
-101.538
0
LINE
8
Black
10
189.751
20
-101.538
11
190.081
21
-101.596
0
LINE
8
Black
10
105.081
20
-101.596
11
105.372
21
-101.764
0
LINE
8
Black
10
105.372
20
-101.764
11
105.587
21
-102.021
0
LINE
8
Black
10
105.587
20
-102.021
11
105.702
21
-102.336
0
LINE
8
Black
10
105.702
20
-102.336
11
105.702
21
-102.671
0
LINE
8
Black
10
105.702
20
-102.671
11
105.587
21
-102.986
0
LINE
8
Black
10
105.587
20
-102.986
11
105.372
21
-103.243
0
LINE
8
Black
10
105.372
20
-103.243
11
105.081
21
-103.411
0
LINE
8
Black
10
105.081
20
-103.411
11
104.751
21
-103.469
0
LINE
8
Black
10
104.751
20
-103.469
11
104.421
21
-103.411
0
LINE
8
Black
10
104.421
20
-103.411
11
104.13
21
-103.243
0
LINE
8
Black
10
104.13
20
-103.243
11
103.915
21
-102.986
0
LINE
8
Black
10
103.915
20
-102.986
11
103.8
21
-102.671
0
LINE
8
Black
10
103.8
20
-102.671
11
103.8
21
-102.336
0
LINE
8
Black
10
103.8
20
-102.336
11
103.915
21
-102.021
0
LINE
8
Black
10
103.915
20
-102.021
11
104.13
21
-101.764
0
LINE
8
Black
10
104.13
20
-101.764
11
104.421
21
-101.596
0
LINE
8
Black
10
104.421
20
-101.596
11
104.751
21
-101.538
0
LINE
8
Black
10
104.751
20
-101.538
11
105.081
21
-101.596
0
LINE
8
Black
10
192.581
20
-101.596
11
192.872
21
-101.764
0
LINE
8
Black
10
192.872
20
-101.764
11
193.087
21
-102.021
0
LINE
8
Black
10
193.087
20
-102.021
11
193.202
21
-102.336
0
LINE
8
Black
10
193.202
20
-102.336
11
193.202
21
-102.671
0
LINE
8
Black
10
193.202
20
-102.671
11
193.087
21
-102.986
0
LINE
8
Black
10
193.087
20
-102.986
11
192.872
21
-103.243
0
LINE
8
Black
10
192.872
20
-103.243
11
192.581
21
-103.411
0
LINE
8
Black
10
192.581
20
-103.411
11
192.251
21
-103.469
0
LINE
8
Black
10
192.251
20
-103.469
11
191.921
21
-103.411
0
LINE
8
Black
10
191.921
20
-103.411
11
191.63
21
-103.243
0
LINE
8
Black
10
191.63
20
-103.243
11
191.415
21
-102.986
0
LINE
8
Black
10
191.415
20
-102.986
11
191.3
21
-102.671
0
LINE
8
Black
10
191.3
20
-102.671
11
191.3
21
-102.336
0
LINE
8
Black
10
191.3
20
-102.336
11
191.415
21
-102.021
0
LINE
8
Black
10
191.415
20
-102.021
11
191.63
21
-101.764
0
LINE
8
Black
10
191.63
20
-101.764
11
191.921
21
-101.596
0
LINE
8
Black
10
191.921
20
-101.596
11
192.251
21
-101.538
0
LINE
8
Black
10
192.251
20
-101.538
11
192.581
21
-101.596
0
LINE
8
Black
10
145.081
20
-101.596
11
145.372
21
-101.764
0
LINE
8
Black
10
145.372
20
-101.764
11
145.587
21
-102.021
0
LINE
8
Black
10
145.587
20
-102.021
11
145.702
21
-102.336
0
LINE
8
Black
10
145.702
20
-102.336
11
145.702
21
-102.671
0
LINE
8
Black
10
145.702
20
-102.671
11
145.587
21
-102.986
0
LINE
8
Black
10
145.587
20
-102.986
11
145.372
21
-103.243
0
LINE
8
Black
10
145.372
20
-103.243
11
145.081
21
-103.411
0
LINE
8
Black
10
145.081
20
-103.411
11
144.751
21
-103.469
0
LINE
8
Black
10
144.751
20
-103.469
11
144.421
21
-103.411
0
LINE
8
Black
10
144.421
20
-103.411
11
144.13
21
-103.243
0
LINE
8
Black
10
144.13
20
-103.243
11
143.915
21
-102.986
0
LINE
8
Black
10
143.915
20
-102.986
11
143.8
21
-102.671
0
LINE
8
Black
10
143.8
20
-102.671
11
143.8
21
-102.336
0
LINE
8
Black
10
143.8
20
-102.336
11
143.915
21
-102.021
0
LINE
8
Black
10
143.915
20
-102.021
11
144.13
21
-101.764
0
LINE
8
Black
10
144.13
20
-101.764
11
144.421
21
-101.596
0
LINE
8
Black
10
144.421
20
-101.596
11
144.751
21
-101.538
0
LINE
8
Black
10
144.751
20
-101.538
11
145.081
21
-101.596
0
LINE
8
Black
10
142.581
20
-101.596
11
142.872
21
-101.764
0
LINE
8
Black
10
142.872
20
-101.764
11
143.087
21
-102.021
0
LINE
8
Black
10
143.087
20
-102.021
11
143.202
21
-102.336
0
LINE
8
Black
10
143.202
20
-102.336
11
143.202
21
-102.671
0
LINE
8
Black
10
143.202
20
-102.671
11
143.087
21
-102.986
0
LINE
8
Black
10
143.087
20
-102.986
11
142.872
21
-103.243
0
LINE
8
Black
10
142.872
20
-103.243
11
142.581
21
-103.411
0
LINE
8
Black
10
142.581
20
-103.411
11
142.251
21
-103.469
0
LINE
8
Black
10
142.251
20
-103.469
11
141.921
21
-103.411
0
LINE
8
Black
10
141.921
20
-103.411
11
141.63
21
-103.243
0
LINE
8
Black
10
141.63
20
-103.243
11
141.415
21
-102.986
0
LINE
8
Black
10
141.415
20
-102.986
11
141.3
21
-102.671
0
LINE
8
Black
10
141.3
20
-102.671
11
141.3
21
-102.336
0
LINE
8
Black
10
141.3
20
-102.336
11
141.415
21
-102.021
0
LINE
8
Black
10
141.415
20
-102.021
11
141.63
21
-101.764
0
LINE
8
Black
10
141.63
20
-101.764
11
141.921
21
-101.596
0
LINE
8
Black
10
141.921
20
-101.596
11
142.251
21
-101.538
0
LINE
8
Black
10
142.251
20
-101.538
11
142.581
21
-101.596
0
LINE
8
Black
10
140.081
20
-101.596
11
140.372
21
-101.764
0
LINE
8
Black
10
140.372
20
-101.764
11
140.587
21
-102.021
0
LINE
8
Black
10
140.587
20
-102.021
11
140.702
21
-102.336
0
LINE
8
Black
10
140.702
20
-102.336
11
140.702
21
-102.671
0
LINE
8
Black
10
140.702
20
-102.671
11
140.587
21
-102.986
0
LINE
8
Black
10
140.587
20
-102.986
11
140.372
21
-103.243
0
LINE
8
Black
10
140.372
20
-103.243
11
140.081
21
-103.411
0
LINE
8
Black
10
140.081
20
-103.411
11
139.751
21
-103.469
0
LINE
8
Black
10
139.751
20
-103.469
11
139.421
21
-103.411
0
LINE
8
Black
10
139.421
20
-103.411
11
139.13
21
-103.243
0
LINE
8
Black
10
139.13
20
-103.243
11
138.915
21
-102.986
0
LINE
8
Black
10
138.915
20
-102.986
11
138.8
21
-102.671
0
LINE
8
Black
10
138.8
20
-102.671
11
138.8
21
-102.336
0
LINE
8
Black
10
138.8
20
-102.336
11
138.915
21
-102.021
0
LINE
8
Black
10
138.915
20
-102.021
11
139.13
21
-101.764
0
LINE
8
Black
10
139.13
20
-101.764
11
139.421
21
-101.596
0
LINE
8
Black
10
139.421
20
-101.596
11
139.751
21
-101.538
0
LINE
8
Black
10
139.751
20
-101.538
11
140.081
21
-101.596
0
LINE
8
Black
10
137.581
20
-101.596
11
137.872
21
-101.764
0
LINE
8
Black
10
137.872
20
-101.764
11
138.087
21
-102.021
0
LINE
8
Black
10
138.087
20
-102.021
11
138.202
21
-102.336
0
LINE
8
Black
10
138.202
20
-102.336
11
138.202
21
-102.671
0
LINE
8
Black
10
138.202
20
-102.671
11
138.087
21
-102.986
0
LINE
8
Black
10
138.087
20
-102.986
11
137.872
21
-103.243
0
LINE
8
Black
10
137.872
20
-103.243
11
137.581
21
-103.411
0
LINE
8
Black
10
137.581
20
-103.411
11
137.251
21
-103.469
0
LINE
8
Black
10
137.251
20
-103.469
11
136.921
21
-103.411
0
LINE
8
Black
10
136.921
20
-103.411
11
136.63
21
-103.243
0
LINE
8
Black
10
136.63
20
-103.243
11
136.415
21
-102.986
0
LINE
8
Black
10
136.415
20
-102.986
11
136.3
21
-102.671
0
LINE
8
Black
10
136.3
20
-102.671
11
136.3
21
-102.336
0
LINE
8
Black
10
136.3
20
-102.336
11
136.415
21
-102.021
0
LINE
8
Black
10
136.415
20
-102.021
11
136.63
21
-101.764
0
LINE
8
Black
10
136.63
20
-101.764
11
136.921
21
-101.596
0
LINE
8
Black
10
136.921
20
-101.596
11
137.251
21
-101.538
0
LINE
8
Black
10
137.251
20
-101.538
11
137.581
21
-101.596
0
LINE
8
Black
10
135.081
20
-101.596
11
135.372
21
-101.764
0
LINE
8
Black
10
135.372
20
-101.764
11
135.587
21
-102.021
0
LINE
8
Black
10
135.587
20
-102.021
11
135.702
21
-102.336
0
LINE
8
Black
10
135.702
20
-102.336
11
135.702
21
-102.671
0
LINE
8
Black
10
135.702
20
-102.671
11
135.587
21
-102.986
0
LINE
8
Black
10
135.587
20
-102.986
11
135.372
21
-103.243
0
LINE
8
Black
10
135.372
20
-103.243
11
135.081
21
-103.411
0
LINE
8
Black
10
135.081
20
-103.411
11
134.751
21
-103.469
0
LINE
8
Black
10
134.751
20
-103.469
11
134.421
21
-103.411
0
LINE
8
Black
10
134.421
20
-103.411
11
134.13
21
-103.243
0
LINE
8
Black
10
134.13
20
-103.243
11
133.915
21
-102.986
0
LINE
8
Black
10
133.915
20
-102.986
11
133.8
21
-102.671
0
LINE
8
Black
10
133.8
20
-102.671
11
133.8
21
-102.336
0
LINE
8
Black
10
133.8
20
-102.336
11
133.915
21
-102.021
0
LINE
8
Black
10
133.915
20
-102.021
11
134.13
21
-101.764
0
LINE
8
Black
10
134.13
20
-101.764
11
134.421
21
-101.596
0
LINE
8
Black
10
134.421
20
-101.596
11
134.751
21
-101.538
0
LINE
8
Black
10
134.751
20
-101.538
11
135.081
21
-101.596
0
LINE
8
Black
10
132.581
20
-101.596
11
132.872
21
-101.764
0
LINE
8
Black
10
132.872
20
-101.764
11
133.087
21
-102.021
0
LINE
8
Black
10
133.087
20
-102.021
11
133.202
21
-102.336
0
LINE
8
Black
10
133.202
20
-102.336
11
133.202
21
-102.671
0
LINE
8
Black
10
133.202
20
-102.671
11
133.087
21
-102.986
0
LINE
8
Black
10
133.087
20
-102.986
11
132.872
21
-103.243
0
LINE
8
Black
10
132.872
20
-103.243
11
132.581
21
-103.411
0
LINE
8
Black
10
132.581
20
-103.411
11
132.251
21
-103.469
0
LINE
8
Black
10
132.251
20
-103.469
11
131.921
21
-103.411
0
LINE
8
Black
10
131.921
20
-103.411
11
131.63
21
-103.243
0
LINE
8
Black
10
131.63
20
-103.243
11
131.415
21
-102.986
0
LINE
8
Black
10
131.415
20
-102.986
11
131.3
21
-102.671
0
LINE
8
Black
10
131.3
20
-102.671
11
131.3
21
-102.336
0
LINE
8
Black
10
131.3
20
-102.336
11
131.415
21
-102.021
0
LINE
8
Black
10
131.415
20
-102.021
11
131.63
21
-101.764
0
LINE
8
Black
10
131.63
20
-101.764
11
131.921
21
-101.596
0
LINE
8
Black
10
131.921
20
-101.596
11
132.251
21
-101.538
0
LINE
8
Black
10
132.251
20
-101.538
11
132.581
21
-101.596
0
LINE
8
Black
10
130.081
20
-101.596
11
130.372
21
-101.764
0
LINE
8
Black
10
130.372
20
-101.764
11
130.587
21
-102.021
0
LINE
8
Black
10
130.587
20
-102.021
11
130.702
21
-102.336
0
LINE
8
Black
10
130.702
20
-102.336
11
130.702
21
-102.671
0
LINE
8
Black
10
130.702
20
-102.671
11
130.587
21
-102.986
0
LINE
8
Black
10
130.587
20
-102.986
11
130.372
21
-103.243
0
LINE
8
Black
10
130.372
20
-103.243
11
130.081
21
-103.411
0
LINE
8
Black
10
130.081
20
-103.411
11
129.751
21
-103.469
0
LINE
8
Black
10
129.751
20
-103.469
11
129.421
21
-103.411
0
LINE
8
Black
10
129.421
20
-103.411
11
129.13
21
-103.243
0
LINE
8
Black
10
129.13
20
-103.243
11
128.915
21
-102.986
0
LINE
8
Black
10
128.915
20
-102.986
11
128.8
21
-102.671
0
LINE
8
Black
10
128.8
20
-102.671
11
128.8
21
-102.336
0
LINE
8
Black
10
128.8
20
-102.336
11
128.915
21
-102.021
0
LINE
8
Black
10
128.915
20
-102.021
11
129.13
21
-101.764
0
LINE
8
Black
10
129.13
20
-101.764
11
129.421
21
-101.596
0
LINE
8
Black
10
129.421
20
-101.596
11
129.751
21
-101.538
0
LINE
8
Black
10
129.751
20
-101.538
11
130.081
21
-101.596
0
LINE
8
Black
10
147.581
20
-101.596
11
147.872
21
-101.764
0
LINE
8
Black
10
147.872
20
-101.764
11
148.087
21
-102.021
0
LINE
8
Black
10
148.087
20
-102.021
11
148.202
21
-102.336
0
LINE
8
Black
10
148.202
20
-102.336
11
148.202
21
-102.671
0
LINE
8
Black
10
148.202
20
-102.671
11
148.087
21
-102.986
0
LINE
8
Black
10
148.087
20
-102.986
11
147.872
21
-103.243
0
LINE
8
Black
10
147.872
20
-103.243
11
147.581
21
-103.411
0
LINE
8
Black
10
147.581
20
-103.411
11
147.251
21
-103.469
0
LINE
8
Black
10
147.251
20
-103.469
11
146.921
21
-103.411
0
LINE
8
Black
10
146.921
20
-103.411
11
146.63
21
-103.243
0
LINE
8
Black
10
146.63
20
-103.243
11
146.415
21
-102.986
0
LINE
8
Black
10
146.415
20
-102.986
11
146.3
21
-102.671
0
LINE
8
Black
10
146.3
20
-102.671
11
146.3
21
-102.336
0
LINE
8
Black
10
146.3
20
-102.336
11
146.415
21
-102.021
0
LINE
8
Black
10
146.415
20
-102.021
11
146.63
21
-101.764
0
LINE
8
Black
10
146.63
20
-101.764
11
146.921
21
-101.596
0
LINE
8
Black
10
146.921
20
-101.596
11
147.251
21
-101.538
0
LINE
8
Black
10
147.251
20
-101.538
11
147.581
21
-101.596
0
LINE
8
Black
10
107.581
20
-101.596
11
107.872
21
-101.764
0
LINE
8
Black
10
107.872
20
-101.764
11
108.087
21
-102.021
0
LINE
8
Black
10
108.087
20
-102.021
11
108.202
21
-102.336
0
LINE
8
Black
10
108.202
20
-102.336
11
108.202
21
-102.671
0
LINE
8
Black
10
108.202
20
-102.671
11
108.087
21
-102.986
0
LINE
8
Black
10
108.087
20
-102.986
11
107.872
21
-103.243
0
LINE
8
Black
10
107.872
20
-103.243
11
107.581
21
-103.411
0
LINE
8
Black
10
107.581
20
-103.411
11
107.251
21
-103.469
0
LINE
8
Black
10
107.251
20
-103.469
11
106.921
21
-103.411
0
LINE
8
Black
10
106.921
20
-103.411
11
106.63
21
-103.243
0
LINE
8
Black
10
106.63
20
-103.243
11
106.415
21
-102.986
0
LINE
8
Black
10
106.415
20
-102.986
11
106.3
21
-102.671
0
LINE
8
Black
10
106.3
20
-102.671
11
106.3
21
-102.336
0
LINE
8
Black
10
106.3
20
-102.336
11
106.415
21
-102.021
0
LINE
8
Black
10
106.415
20
-102.021
11
106.63
21
-101.764
0
LINE
8
Black
10
106.63
20
-101.764
11
106.921
21
-101.596
0
LINE
8
Black
10
106.921
20
-101.596
11
107.251
21
-101.538
0
LINE
8
Black
10
107.251
20
-101.538
11
107.581
21
-101.596
0
LINE
8
Black
10
110.081
20
-101.596
11
110.372
21
-101.764
0
LINE
8
Black
10
110.372
20
-101.764
11
110.587
21
-102.021
0
LINE
8
Black
10
110.587
20
-102.021
11
110.702
21
-102.336
0
LINE
8
Black
10
110.702
20
-102.336
11
110.702
21
-102.671
0
LINE
8
Black
10
110.702
20
-102.671
11
110.587
21
-102.986
0
LINE
8
Black
10
110.587
20
-102.986
11
110.372
21
-103.243
0
LINE
8
Black
10
110.372
20
-103.243
11
110.081
21
-103.411
0
LINE
8
Black
10
110.081
20
-103.411
11
109.751
21
-103.469
0
LINE
8
Black
10
109.751
20
-103.469
11
109.421
21
-103.411
0
LINE
8
Black
10
109.421
20
-103.411
11
109.13
21
-103.243
0
LINE
8
Black
10
109.13
20
-103.243
11
108.915
21
-102.986
0
LINE
8
Black
10
108.915
20
-102.986
11
108.8
21
-102.671
0
LINE
8
Black
10
108.8
20
-102.671
11
108.8
21
-102.336
0
LINE
8
Black
10
108.8
20
-102.336
11
108.915
21
-102.021
0
LINE
8
Black
10
108.915
20
-102.021
11
109.13
21
-101.764
0
LINE
8
Black
10
109.13
20
-101.764
11
109.421
21
-101.596
0
LINE
8
Black
10
109.421
20
-101.596
11
109.751
21
-101.538
0
LINE
8
Black
10
109.751
20
-101.538
11
110.081
21
-101.596
0
LINE
8
Black
10
112.581
20
-101.596
11
112.872
21
-101.764
0
LINE
8
Black
10
112.872
20
-101.764
11
113.087
21
-102.021
0
LINE
8
Black
10
113.087
20
-102.021
11
113.202
21
-102.336
0
LINE
8
Black
10
113.202
20
-102.336
11
113.202
21
-102.671
0
LINE
8
Black
10
113.202
20
-102.671
11
113.087
21
-102.986
0
LINE
8
Black
10
113.087
20
-102.986
11
112.872
21
-103.243
0
LINE
8
Black
10
112.872
20
-103.243
11
112.581
21
-103.411
0
LINE
8
Black
10
112.581
20
-103.411
11
112.251
21
-103.469
0
LINE
8
Black
10
112.251
20
-103.469
11
111.921
21
-103.411
0
LINE
8
Black
10
111.921
20
-103.411
11
111.63
21
-103.243
0
LINE
8
Black
10
111.63
20
-103.243
11
111.415
21
-102.986
0
LINE
8
Black
10
111.415
20
-102.986
11
111.3
21
-102.671
0
LINE
8
Black
10
111.3
20
-102.671
11
111.3
21
-102.336
0
LINE
8
Black
10
111.3
20
-102.336
11
111.415
21
-102.021
0
LINE
8
Black
10
111.415
20
-102.021
11
111.63
21
-101.764
0
LINE
8
Black
10
111.63
20
-101.764
11
111.921
21
-101.596
0
LINE
8
Black
10
111.921
20
-101.596
11
112.251
21
-101.538
0
LINE
8
Black
10
112.251
20
-101.538
11
112.581
21
-101.596
0
LINE
8
Black
10
115.081
20
-101.596
11
115.372
21
-101.764
0
LINE
8
Black
10
115.372
20
-101.764
11
115.587
21
-102.021
0
LINE
8
Black
10
115.587
20
-102.021
11
115.702
21
-102.336
0
LINE
8
Black
10
115.702
20
-102.336
11
115.702
21
-102.671
0
LINE
8
Black
10
115.702
20
-102.671
11
115.587
21
-102.986
0
LINE
8
Black
10
115.587
20
-102.986
11
115.372
21
-103.243
0
LINE
8
Black
10
115.372
20
-103.243
11
115.081
21
-103.411
0
LINE
8
Black
10
115.081
20
-103.411
11
114.751
21
-103.469
0
LINE
8
Black
10
114.751
20
-103.469
11
114.421
21
-103.411
0
LINE
8
Black
10
114.421
20
-103.411
11
114.13
21
-103.243
0
LINE
8
Black
10
114.13
20
-103.243
11
113.915
21
-102.986
0
LINE
8
Black
10
113.915
20
-102.986
11
113.8
21
-102.671
0
LINE
8
Black
10
113.8
20
-102.671
11
113.8
21
-102.336
0
LINE
8
Black
10
113.8
20
-102.336
11
113.915
21
-102.021
0
LINE
8
Black
10
113.915
20
-102.021
11
114.13
21
-101.764
0
LINE
8
Black
10
114.13
20
-101.764
11
114.421
21
-101.596
0
LINE
8
Black
10
114.421
20
-101.596
11
114.751
21
-101.538
0
LINE
8
Black
10
114.751
20
-101.538
11
115.081
21
-101.596
0
LINE
8
Black
10
117.581
20
-101.596
11
117.872
21
-101.764
0
LINE
8
Black
10
117.872
20
-101.764
11
118.087
21
-102.021
0
LINE
8
Black
10
118.087
20
-102.021
11
118.202
21
-102.336
0
LINE
8
Black
10
118.202
20
-102.336
11
118.202
21
-102.671
0
LINE
8
Black
10
118.202
20
-102.671
11
118.087
21
-102.986
0
LINE
8
Black
10
118.087
20
-102.986
11
117.872
21
-103.243
0
LINE
8
Black
10
117.872
20
-103.243
11
117.581
21
-103.411
0
LINE
8
Black
10
117.581
20
-103.411
11
117.251
21
-103.469
0
LINE
8
Black
10
117.251
20
-103.469
11
116.921
21
-103.411
0
LINE
8
Black
10
116.921
20
-103.411
11
116.63
21
-103.243
0
LINE
8
Black
10
116.63
20
-103.243
11
116.415
21
-102.986
0
LINE
8
Black
10
116.415
20
-102.986
11
116.3
21
-102.671
0
LINE
8
Black
10
116.3
20
-102.671
11
116.3
21
-102.336
0
LINE
8
Black
10
116.3
20
-102.336
11
116.415
21
-102.021
0
LINE
8
Black
10
116.415
20
-102.021
11
116.63
21
-101.764
0
LINE
8
Black
10
116.63
20
-101.764
11
116.921
21
-101.596
0
LINE
8
Black
10
116.921
20
-101.596
11
117.251
21
-101.538
0
LINE
8
Black
10
117.251
20
-101.538
11
117.581
21
-101.596
0
LINE
8
Black
10
120.081
20
-101.596
11
120.372
21
-101.764
0
LINE
8
Black
10
120.372
20
-101.764
11
120.587
21
-102.021
0
LINE
8
Black
10
120.587
20
-102.021
11
120.702
21
-102.336
0
LINE
8
Black
10
120.702
20
-102.336
11
120.702
21
-102.671
0
LINE
8
Black
10
120.702
20
-102.671
11
120.587
21
-102.986
0
LINE
8
Black
10
120.587
20
-102.986
11
120.372
21
-103.243
0
LINE
8
Black
10
120.372
20
-103.243
11
120.081
21
-103.411
0
LINE
8
Black
10
120.081
20
-103.411
11
119.751
21
-103.469
0
LINE
8
Black
10
119.751
20
-103.469
11
119.421
21
-103.411
0
LINE
8
Black
10
119.421
20
-103.411
11
119.13
21
-103.243
0
LINE
8
Black
10
119.13
20
-103.243
11
118.915
21
-102.986
0
LINE
8
Black
10
118.915
20
-102.986
11
118.8
21
-102.671
0
LINE
8
Black
10
118.8
20
-102.671
11
118.8
21
-102.336
0
LINE
8
Black
10
118.8
20
-102.336
11
118.915
21
-102.021
0
LINE
8
Black
10
118.915
20
-102.021
11
119.13
21
-101.764
0
LINE
8
Black
10
119.13
20
-101.764
11
119.421
21
-101.596
0
LINE
8
Black
10
119.421
20
-101.596
11
119.751
21
-101.538
0
LINE
8
Black
10
119.751
20
-101.538
11
120.081
21
-101.596
0
LINE
8
Black
10
122.581
20
-101.596
11
122.872
21
-101.764
0
LINE
8
Black
10
122.872
20
-101.764
11
123.087
21
-102.021
0
LINE
8
Black
10
123.087
20
-102.021
11
123.202
21
-102.336
0
LINE
8
Black
10
123.202
20
-102.336
11
123.202
21
-102.671
0
LINE
8
Black
10
123.202
20
-102.671
11
123.087
21
-102.986
0
LINE
8
Black
10
123.087
20
-102.986
11
122.872
21
-103.243
0
LINE
8
Black
10
122.872
20
-103.243
11
122.581
21
-103.411
0
LINE
8
Black
10
122.581
20
-103.411
11
122.251
21
-103.469
0
LINE
8
Black
10
122.251
20
-103.469
11
121.921
21
-103.411
0
LINE
8
Black
10
121.921
20
-103.411
11
121.63
21
-103.243
0
LINE
8
Black
10
121.63
20
-103.243
11
121.415
21
-102.986
0
LINE
8
Black
10
121.415
20
-102.986
11
121.3
21
-102.671
0
LINE
8
Black
10
121.3
20
-102.671
11
121.3
21
-102.336
0
LINE
8
Black
10
121.3
20
-102.336
11
121.415
21
-102.021
0
LINE
8
Black
10
121.415
20
-102.021
11
121.63
21
-101.764
0
LINE
8
Black
10
121.63
20
-101.764
11
121.921
21
-101.596
0
LINE
8
Black
10
121.921
20
-101.596
11
122.251
21
-101.538
0
LINE
8
Black
10
122.251
20
-101.538
11
122.581
21
-101.596
0
LINE
8
Black
10
125.081
20
-101.596
11
125.372
21
-101.764
0
LINE
8
Black
10
125.372
20
-101.764
11
125.587
21
-102.021
0
LINE
8
Black
10
125.587
20
-102.021
11
125.702
21
-102.336
0
LINE
8
Black
10
125.702
20
-102.336
11
125.702
21
-102.671
0
LINE
8
Black
10
125.702
20
-102.671
11
125.587
21
-102.986
0
LINE
8
Black
10
125.587
20
-102.986
11
125.372
21
-103.243
0
LINE
8
Black
10
125.372
20
-103.243
11
125.081
21
-103.411
0
LINE
8
Black
10
125.081
20
-103.411
11
124.751
21
-103.469
0
LINE
8
Black
10
124.751
20
-103.469
11
124.421
21
-103.411
0
LINE
8
Black
10
124.421
20
-103.411
11
124.13
21
-103.243
0
LINE
8
Black
10
124.13
20
-103.243
11
123.915
21
-102.986
0
LINE
8
Black
10
123.915
20
-102.986
11
123.8
21
-102.671
0
LINE
8
Black
10
123.8
20
-102.671
11
123.8
21
-102.336
0
LINE
8
Black
10
123.8
20
-102.336
11
123.915
21
-102.021
0
LINE
8
Black
10
123.915
20
-102.021
11
124.13
21
-101.764
0
LINE
8
Black
10
124.13
20
-101.764
11
124.421
21
-101.596
0
LINE
8
Black
10
124.421
20
-101.596
11
124.751
21
-101.538
0
LINE
8
Black
10
124.751
20
-101.538
11
125.081
21
-101.596
0
LINE
8
Black
10
152.581
20
-101.596
11
152.872
21
-101.764
0
LINE
8
Black
10
152.872
20
-101.764
11
153.087
21
-102.021
0
LINE
8
Black
10
153.087
20
-102.021
11
153.202
21
-102.336
0
LINE
8
Black
10
153.202
20
-102.336
11
153.202
21
-102.671
0
LINE
8
Black
10
153.202
20
-102.671
11
153.087
21
-102.986
0
LINE
8
Black
10
153.087
20
-102.986
11
152.872
21
-103.243
0
LINE
8
Black
10
152.872
20
-103.243
11
152.581
21
-103.411
0
LINE
8
Black
10
152.581
20
-103.411
11
152.251
21
-103.469
0
LINE
8
Black
10
152.251
20
-103.469
11
151.921
21
-103.411
0
LINE
8
Black
10
151.921
20
-103.411
11
151.63
21
-103.243
0
LINE
8
Black
10
151.63
20
-103.243
11
151.415
21
-102.986
0
LINE
8
Black
10
151.415
20
-102.986
11
151.3
21
-102.671
0
LINE
8
Black
10
151.3
20
-102.671
11
151.3
21
-102.336
0
LINE
8
Black
10
151.3
20
-102.336
11
151.415
21
-102.021
0
LINE
8
Black
10
151.415
20
-102.021
11
151.63
21
-101.764
0
LINE
8
Black
10
151.63
20
-101.764
11
151.921
21
-101.596
0
LINE
8
Black
10
151.921
20
-101.596
11
152.251
21
-101.538
0
LINE
8
Black
10
152.251
20
-101.538
11
152.581
21
-101.596
0
LINE
8
Black
10
127.581
20
-101.596
11
127.872
21
-101.764
0
LINE
8
Black
10
127.872
20
-101.764
11
128.087
21
-102.021
0
LINE
8
Black
10
128.087
20
-102.021
11
128.202
21
-102.336
0
LINE
8
Black
10
128.202
20
-102.336
11
128.202
21
-102.671
0
LINE
8
Black
10
128.202
20
-102.671
11
128.087
21
-102.986
0
LINE
8
Black
10
128.087
20
-102.986
11
127.872
21
-103.243
0
LINE
8
Black
10
127.872
20
-103.243
11
127.581
21
-103.411
0
LINE
8
Black
10
127.581
20
-103.411
11
127.251
21
-103.469
0
LINE
8
Black
10
127.251
20
-103.469
11
126.921
21
-103.411
0
LINE
8
Black
10
126.921
20
-103.411
11
126.63
21
-103.243
0
LINE
8
Black
10
126.63
20
-103.243
11
126.415
21
-102.986
0
LINE
8
Black
10
126.415
20
-102.986
11
126.3
21
-102.671
0
LINE
8
Black
10
126.3
20
-102.671
11
126.3
21
-102.336
0
LINE
8
Black
10
126.3
20
-102.336
11
126.415
21
-102.021
0
LINE
8
Black
10
126.415
20
-102.021
11
126.63
21
-101.764
0
LINE
8
Black
10
126.63
20
-101.764
11
126.921
21
-101.596
0
LINE
8
Black
10
126.921
20
-101.596
11
127.251
21
-101.538
0
LINE
8
Black
10
127.251
20
-101.538
11
127.581
21
-101.596
0
LINE
8
Black
10
187.581
20
-101.596
11
187.872
21
-101.764
0
LINE
8
Black
10
187.872
20
-101.764
11
188.087
21
-102.021
0
LINE
8
Black
10
188.087
20
-102.021
11
188.202
21
-102.336
0
LINE
8
Black
10
188.202
20
-102.336
11
188.202
21
-102.671
0
LINE
8
Black
10
188.202
20
-102.671
11
188.087
21
-102.986
0
LINE
8
Black
10
188.087
20
-102.986
11
187.872
21
-103.243
0
LINE
8
Black
10
187.872
20
-103.243
11
187.581
21
-103.411
0
LINE
8
Black
10
187.581
20
-103.411
11
187.251
21
-103.469
0
LINE
8
Black
10
187.251
20
-103.469
11
186.921
21
-103.411
0
LINE
8
Black
10
186.921
20
-103.411
11
186.63
21
-103.243
0
LINE
8
Black
10
186.63
20
-103.243
11
186.415
21
-102.986
0
LINE
8
Black
10
186.415
20
-102.986
11
186.3
21
-102.671
0
LINE
8
Black
10
186.3
20
-102.671
11
186.3
21
-102.336
0
LINE
8
Black
10
186.3
20
-102.336
11
186.415
21
-102.021
0
LINE
8
Black
10
186.415
20
-102.021
11
186.63
21
-101.764
0
LINE
8
Black
10
186.63
20
-101.764
11
186.921
21
-101.596
0
LINE
8
Black
10
186.921
20
-101.596
11
187.251
21
-101.538
0
LINE
8
Black
10
187.251
20
-101.538
11
187.581
21
-101.596
0
LINE
8
Black
10
185.081
20
-101.596
11
185.372
21
-101.764
0
LINE
8
Black
10
185.372
20
-101.764
11
185.587
21
-102.021
0
LINE
8
Black
10
185.587
20
-102.021
11
185.702
21
-102.336
0
LINE
8
Black
10
185.702
20
-102.336
11
185.702
21
-102.671
0
LINE
8
Black
10
185.702
20
-102.671
11
185.587
21
-102.986
0
LINE
8
Black
10
185.587
20
-102.986
11
185.372
21
-103.243
0
LINE
8
Black
10
185.372
20
-103.243
11
185.081
21
-103.411
0
LINE
8
Black
10
185.081
20
-103.411
11
184.751
21
-103.469
0
LINE
8
Black
10
184.751
20
-103.469
11
184.421
21
-103.411
0
LINE
8
Black
10
184.421
20
-103.411
11
184.13
21
-103.243
0
LINE
8
Black
10
184.13
20
-103.243
11
183.915
21
-102.986
0
LINE
8
Black
10
183.915
20
-102.986
11
183.8
21
-102.671
0
LINE
8
Black
10
183.8
20
-102.671
11
183.8
21
-102.336
0
LINE
8
Black
10
183.8
20
-102.336
11
183.915
21
-102.021
0
LINE
8
Black
10
183.915
20
-102.021
11
184.13
21
-101.764
0
LINE
8
Black
10
184.13
20
-101.764
11
184.421
21
-101.596
0
LINE
8
Black
10
184.421
20
-101.596
11
184.751
21
-101.538
0
LINE
8
Black
10
184.751
20
-101.538
11
185.081
21
-101.596
0
LINE
8
Black
10
182.581
20
-101.596
11
182.872
21
-101.764
0
LINE
8
Black
10
182.872
20
-101.764
11
183.087
21
-102.021
0
LINE
8
Black
10
183.087
20
-102.021
11
183.202
21
-102.336
0
LINE
8
Black
10
183.202
20
-102.336
11
183.202
21
-102.671
0
LINE
8
Black
10
183.202
20
-102.671
11
183.087
21
-102.986
0
LINE
8
Black
10
183.087
20
-102.986
11
182.872
21
-103.243
0
LINE
8
Black
10
182.872
20
-103.243
11
182.581
21
-103.411
0
LINE
8
Black
10
182.581
20
-103.411
11
182.251
21
-103.469
0
LINE
8
Black
10
182.251
20
-103.469
11
181.921
21
-103.411
0
LINE
8
Black
10
181.921
20
-103.411
11
181.63
21
-103.243
0
LINE
8
Black
10
181.63
20
-103.243
11
181.415
21
-102.986
0
LINE
8
Black
10
181.415
20
-102.986
11
181.3
21
-102.671
0
LINE
8
Black
10
181.3
20
-102.671
11
181.3
21
-102.336
0
LINE
8
Black
10
181.3
20
-102.336
11
181.415
21
-102.021
0
LINE
8
Black
10
181.415
20
-102.021
11
181.63
21
-101.764
0
LINE
8
Black
10
181.63
20
-101.764
11
181.921
21
-101.596
0
LINE
8
Black
10
181.921
20
-101.596
11
182.251
21
-101.538
0
LINE
8
Black
10
182.251
20
-101.538
11
182.581
21
-101.596
0
LINE
8
Black
10
180.081
20
-101.596
11
180.372
21
-101.764
0
LINE
8
Black
10
180.372
20
-101.764
11
180.587
21
-102.021
0
LINE
8
Black
10
180.587
20
-102.021
11
180.702
21
-102.336
0
LINE
8
Black
10
180.702
20
-102.336
11
180.702
21
-102.671
0
LINE
8
Black
10
180.702
20
-102.671
11
180.587
21
-102.986
0
LINE
8
Black
10
180.587
20
-102.986
11
180.372
21
-103.243
0
LINE
8
Black
10
180.372
20
-103.243
11
180.081
21
-103.411
0
LINE
8
Black
10
180.081
20
-103.411
11
179.751
21
-103.469
0
LINE
8
Black
10
179.751
20
-103.469
11
179.421
21
-103.411
0
LINE
8
Black
10
179.421
20
-103.411
11
179.13
21
-103.243
0
LINE
8
Black
10
179.13
20
-103.243
11
178.915
21
-102.986
0
LINE
8
Black
10
178.915
20
-102.986
11
178.8
21
-102.671
0
LINE
8
Black
10
178.8
20
-102.671
11
178.8
21
-102.336
0
LINE
8
Black
10
178.8
20
-102.336
11
178.915
21
-102.021
0
LINE
8
Black
10
178.915
20
-102.021
11
179.13
21
-101.764
0
LINE
8
Black
10
179.13
20
-101.764
11
179.421
21
-101.596
0
LINE
8
Black
10
179.421
20
-101.596
11
179.751
21
-101.538
0
LINE
8
Black
10
179.751
20
-101.538
11
180.081
21
-101.596
0
LINE
8
Black
10
177.581
20
-101.596
11
177.872
21
-101.764
0
LINE
8
Black
10
177.872
20
-101.764
11
178.087
21
-102.021
0
LINE
8
Black
10
178.087
20
-102.021
11
178.202
21
-102.336
0
LINE
8
Black
10
178.202
20
-102.336
11
178.202
21
-102.671
0
LINE
8
Black
10
178.202
20
-102.671
11
178.087
21
-102.986
0
LINE
8
Black
10
178.087
20
-102.986
11
177.872
21
-103.243
0
LINE
8
Black
10
177.872
20
-103.243
11
177.581
21
-103.411
0
LINE
8
Black
10
177.581
20
-103.411
11
177.251
21
-103.469
0
LINE
8
Black
10
177.251
20
-103.469
11
176.921
21
-103.411
0
LINE
8
Black
10
176.921
20
-103.411
11
176.63
21
-103.243
0
LINE
8
Black
10
176.63
20
-103.243
11
176.415
21
-102.986
0
LINE
8
Black
10
176.415
20
-102.986
11
176.3
21
-102.671
0
LINE
8
Black
10
176.3
20
-102.671
11
176.3
21
-102.336
0
LINE
8
Black
10
176.3
20
-102.336
11
176.415
21
-102.021
0
LINE
8
Black
10
176.415
20
-102.021
11
176.63
21
-101.764
0
LINE
8
Black
10
176.63
20
-101.764
11
176.921
21
-101.596
0
LINE
8
Black
10
176.921
20
-101.596
11
177.251
21
-101.538
0
LINE
8
Black
10
177.251
20
-101.538
11
177.581
21
-101.596
0
LINE
8
Black
10
175.081
20
-101.596
11
175.372
21
-101.764
0
LINE
8
Black
10
175.372
20
-101.764
11
175.587
21
-102.021
0
LINE
8
Black
10
175.587
20
-102.021
11
175.702
21
-102.336
0
LINE
8
Black
10
175.702
20
-102.336
11
175.702
21
-102.671
0
LINE
8
Black
10
175.702
20
-102.671
11
175.587
21
-102.986
0
LINE
8
Black
10
175.587
20
-102.986
11
175.372
21
-103.243
0
LINE
8
Black
10
175.372
20
-103.243
11
175.081
21
-103.411
0
LINE
8
Black
10
175.081
20
-103.411
11
174.751
21
-103.469
0
LINE
8
Black
10
174.751
20
-103.469
11
174.421
21
-103.411
0
LINE
8
Black
10
174.421
20
-103.411
11
174.13
21
-103.243
0
LINE
8
Black
10
174.13
20
-103.243
11
173.915
21
-102.986
0
LINE
8
Black
10
173.915
20
-102.986
11
173.8
21
-102.671
0
LINE
8
Black
10
173.8
20
-102.671
11
173.8
21
-102.336
0
LINE
8
Black
10
173.8
20
-102.336
11
173.915
21
-102.021
0
LINE
8
Black
10
173.915
20
-102.021
11
174.13
21
-101.764
0
LINE
8
Black
10
174.13
20
-101.764
11
174.421
21
-101.596
0
LINE
8
Black
10
174.421
20
-101.596
11
174.751
21
-101.538
0
LINE
8
Black
10
174.751
20
-101.538
11
175.081
21
-101.596
0
LINE
8
Black
10
172.581
20
-101.596
11
172.872
21
-101.764
0
LINE
8
Black
10
172.872
20
-101.764
11
173.087
21
-102.021
0
LINE
8
Black
10
173.087
20
-102.021
11
173.202
21
-102.336
0
LINE
8
Black
10
173.202
20
-102.336
11
173.202
21
-102.671
0
LINE
8
Black
10
173.202
20
-102.671
11
173.087
21
-102.986
0
LINE
8
Black
10
173.087
20
-102.986
11
172.872
21
-103.243
0
LINE
8
Black
10
172.872
20
-103.243
11
172.581
21
-103.411
0
LINE
8
Black
10
172.581
20
-103.411
11
172.251
21
-103.469
0
LINE
8
Black
10
172.251
20
-103.469
11
171.921
21
-103.411
0
LINE
8
Black
10
171.921
20
-103.411
11
171.63
21
-103.243
0
LINE
8
Black
10
171.63
20
-103.243
11
171.415
21
-102.986
0
LINE
8
Black
10
171.415
20
-102.986
11
171.3
21
-102.671
0
LINE
8
Black
10
171.3
20
-102.671
11
171.3
21
-102.336
0
LINE
8
Black
10
171.3
20
-102.336
11
171.415
21
-102.021
0
LINE
8
Black
10
171.415
20
-102.021
11
171.63
21
-101.764
0
LINE
8
Black
10
171.63
20
-101.764
11
171.921
21
-101.596
0
LINE
8
Black
10
171.921
20
-101.596
11
172.251
21
-101.538
0
LINE
8
Black
10
172.251
20
-101.538
11
172.581
21
-101.596
0
LINE
8
Black
10
170.081
20
-101.596
11
170.372
21
-101.764
0
LINE
8
Black
10
170.372
20
-101.764
11
170.587
21
-102.021
0
LINE
8
Black
10
170.587
20
-102.021
11
170.702
21
-102.336
0
LINE
8
Black
10
170.702
20
-102.336
11
170.702
21
-102.671
0
LINE
8
Black
10
170.702
20
-102.671
11
170.587
21
-102.986
0
LINE
8
Black
10
170.587
20
-102.986
11
170.372
21
-103.243
0
LINE
8
Black
10
170.372
20
-103.243
11
170.081
21
-103.411
0
LINE
8
Black
10
170.081
20
-103.411
11
169.751
21
-103.469
0
LINE
8
Black
10
169.751
20
-103.469
11
169.421
21
-103.411
0
LINE
8
Black
10
169.421
20
-103.411
11
169.13
21
-103.243
0
LINE
8
Black
10
169.13
20
-103.243
11
168.915
21
-102.986
0
LINE
8
Black
10
168.915
20
-102.986
11
168.8
21
-102.671
0
LINE
8
Black
10
168.8
20
-102.671
11
168.8
21
-102.336
0
LINE
8
Black
10
168.8
20
-102.336
11
168.915
21
-102.021
0
LINE
8
Black
10
168.915
20
-102.021
11
169.13
21
-101.764
0
LINE
8
Black
10
169.13
20
-101.764
11
169.421
21
-101.596
0
LINE
8
Black
10
169.421
20
-101.596
11
169.751
21
-101.538
0
LINE
8
Black
10
169.751
20
-101.538
11
170.081
21
-101.596
0
LINE
8
Black
10
167.581
20
-101.596
11
167.872
21
-101.764
0
LINE
8
Black
10
167.872
20
-101.764
11
168.087
21
-102.021
0
LINE
8
Black
10
168.087
20
-102.021
11
168.202
21
-102.336
0
LINE
8
Black
10
168.202
20
-102.336
11
168.202
21
-102.671
0
LINE
8
Black
10
168.202
20
-102.671
11
168.087
21
-102.986
0
LINE
8
Black
10
168.087
20
-102.986
11
167.872
21
-103.243
0
LINE
8
Black
10
167.872
20
-103.243
11
167.581
21
-103.411
0
LINE
8
Black
10
167.581
20
-103.411
11
167.251
21
-103.469
0
LINE
8
Black
10
167.251
20
-103.469
11
166.921
21
-103.411
0
LINE
8
Black
10
166.921
20
-103.411
11
166.63
21
-103.243
0
LINE
8
Black
10
166.63
20
-103.243
11
166.415
21
-102.986
0
LINE
8
Black
10
166.415
20
-102.986
11
166.3
21
-102.671
0
LINE
8
Black
10
166.3
20
-102.671
11
166.3
21
-102.336
0
LINE
8
Black
10
166.3
20
-102.336
11
166.415
21
-102.021
0
LINE
8
Black
10
166.415
20
-102.021
11
166.63
21
-101.764
0
LINE
8
Black
10
166.63
20
-101.764
11
166.921
21
-101.596
0
LINE
8
Black
10
166.921
20
-101.596
11
167.251
21
-101.538
0
LINE
8
Black
10
167.251
20
-101.538
11
167.581
21
-101.596
0
LINE
8
Black
10
165.081
20
-101.596
11
165.372
21
-101.764
0
LINE
8
Black
10
165.372
20
-101.764
11
165.587
21
-102.021
0
LINE
8
Black
10
165.587
20
-102.021
11
165.702
21
-102.336
0
LINE
8
Black
10
165.702
20
-102.336
11
165.702
21
-102.671
0
LINE
8
Black
10
165.702
20
-102.671
11
165.587
21
-102.986
0
LINE
8
Black
10
165.587
20
-102.986
11
165.372
21
-103.243
0
LINE
8
Black
10
165.372
20
-103.243
11
165.081
21
-103.411
0
LINE
8
Black
10
165.081
20
-103.411
11
164.751
21
-103.469
0
LINE
8
Black
10
164.751
20
-103.469
11
164.421
21
-103.411
0
LINE
8
Black
10
164.421
20
-103.411
11
164.13
21
-103.243
0
LINE
8
Black
10
164.13
20
-103.243
11
163.915
21
-102.986
0
LINE
8
Black
10
163.915
20
-102.986
11
163.8
21
-102.671
0
LINE
8
Black
10
163.8
20
-102.671
11
163.8
21
-102.336
0
LINE
8
Black
10
163.8
20
-102.336
11
163.915
21
-102.021
0
LINE
8
Black
10
163.915
20
-102.021
11
164.13
21
-101.764
0
LINE
8
Black
10
164.13
20
-101.764
11
164.421
21
-101.596
0
LINE
8
Black
10
164.421
20
-101.596
11
164.751
21
-101.538
0
LINE
8
Black
10
164.751
20
-101.538
11
165.081
21
-101.596
0
LINE
8
Black
10
162.581
20
-101.596
11
162.872
21
-101.764
0
LINE
8
Black
10
162.872
20
-101.764
11
163.087
21
-102.021
0
LINE
8
Black
10
163.087
20
-102.021
11
163.202
21
-102.336
0
LINE
8
Black
10
163.202
20
-102.336
11
163.202
21
-102.671
0
LINE
8
Black
10
163.202
20
-102.671
11
163.087
21
-102.986
0
LINE
8
Black
10
163.087
20
-102.986
11
162.872
21
-103.243
0
LINE
8
Black
10
162.872
20
-103.243
11
162.581
21
-103.411
0
LINE
8
Black
10
162.581
20
-103.411
11
162.251
21
-103.469
0
LINE
8
Black
10
162.251
20
-103.469
11
161.921
21
-103.411
0
LINE
8
Black
10
161.921
20
-103.411
11
161.63
21
-103.243
0
LINE
8
Black
10
161.63
20
-103.243
11
161.415
21
-102.986
0
LINE
8
Black
10
161.415
20
-102.986
11
161.3
21
-102.671
0
LINE
8
Black
10
161.3
20
-102.671
11
161.3
21
-102.336
0
LINE
8
Black
10
161.3
20
-102.336
11
161.415
21
-102.021
0
LINE
8
Black
10
161.415
20
-102.021
11
161.63
21
-101.764
0
LINE
8
Black
10
161.63
20
-101.764
11
161.921
21
-101.596
0
LINE
8
Black
10
161.921
20
-101.596
11
162.251
21
-101.538
0
LINE
8
Black
10
162.251
20
-101.538
11
162.581
21
-101.596
0
LINE
8
Black
10
160.081
20
-101.596
11
160.372
21
-101.764
0
LINE
8
Black
10
160.372
20
-101.764
11
160.587
21
-102.021
0
LINE
8
Black
10
160.587
20
-102.021
11
160.702
21
-102.336
0
LINE
8
Black
10
160.702
20
-102.336
11
160.702
21
-102.671
0
LINE
8
Black
10
160.702
20
-102.671
11
160.587
21
-102.986
0
LINE
8
Black
10
160.587
20
-102.986
11
160.372
21
-103.243
0
LINE
8
Black
10
160.372
20
-103.243
11
160.081
21
-103.411
0
LINE
8
Black
10
160.081
20
-103.411
11
159.751
21
-103.469
0
LINE
8
Black
10
159.751
20
-103.469
11
159.421
21
-103.411
0
LINE
8
Black
10
159.421
20
-103.411
11
159.13
21
-103.243
0
LINE
8
Black
10
159.13
20
-103.243
11
158.915
21
-102.986
0
LINE
8
Black
10
158.915
20
-102.986
11
158.8
21
-102.671
0
LINE
8
Black
10
158.8
20
-102.671
11
158.8
21
-102.336
0
LINE
8
Black
10
158.8
20
-102.336
11
158.915
21
-102.021
0
LINE
8
Black
10
158.915
20
-102.021
11
159.13
21
-101.764
0
LINE
8
Black
10
159.13
20
-101.764
11
159.421
21
-101.596
0
LINE
8
Black
10
159.421
20
-101.596
11
159.751
21
-101.538
0
LINE
8
Black
10
159.751
20
-101.538
11
160.081
21
-101.596
0
LINE
8
Black
10
157.581
20
-101.596
11
157.872
21
-101.764
0
LINE
8
Black
10
157.872
20
-101.764
11
158.087
21
-102.021
0
LINE
8
Black
10
158.087
20
-102.021
11
158.202
21
-102.336
0
LINE
8
Black
10
158.202
20
-102.336
11
158.202
21
-102.671
0
LINE
8
Black
10
158.202
20
-102.671
11
158.087
21
-102.986
0
LINE
8
Black
10
158.087
20
-102.986
11
157.872
21
-103.243
0
LINE
8
Black
10
157.872
20
-103.243
11
157.581
21
-103.411
0
LINE
8
Black
10
157.581
20
-103.411
11
157.251
21
-103.469
0
LINE
8
Black
10
157.251
20
-103.469
11
156.921
21
-103.411
0
LINE
8
Black
10
156.921
20
-103.411
11
156.63
21
-103.243
0
LINE
8
Black
10
156.63
20
-103.243
11
156.415
21
-102.986
0
LINE
8
Black
10
156.415
20
-102.986
11
156.3
21
-102.671
0
LINE
8
Black
10
156.3
20
-102.671
11
156.3
21
-102.336
0
LINE
8
Black
10
156.3
20
-102.336
11
156.415
21
-102.021
0
LINE
8
Black
10
156.415
20
-102.021
11
156.63
21
-101.764
0
LINE
8
Black
10
156.63
20
-101.764
11
156.921
21
-101.596
0
LINE
8
Black
10
156.921
20
-101.596
11
157.251
21
-101.538
0
LINE
8
Black
10
157.251
20
-101.538
11
157.581
21
-101.596
0
LINE
8
Black
10
155.081
20
-101.596
11
155.372
21
-101.764
0
LINE
8
Black
10
155.372
20
-101.764
11
155.587
21
-102.021
0
LINE
8
Black
10
155.587
20
-102.021
11
155.702
21
-102.336
0
LINE
8
Black
10
155.702
20
-102.336
11
155.702
21
-102.671
0
LINE
8
Black
10
155.702
20
-102.671
11
155.587
21
-102.986
0
LINE
8
Black
10
155.587
20
-102.986
11
155.372
21
-103.243
0
LINE
8
Black
10
155.372
20
-103.243
11
155.081
21
-103.411
0
LINE
8
Black
10
155.081
20
-103.411
11
154.751
21
-103.469
0
LINE
8
Black
10
154.751
20
-103.469
11
154.421
21
-103.411
0
LINE
8
Black
10
154.421
20
-103.411
11
154.13
21
-103.243
0
LINE
8
Black
10
154.13
20
-103.243
11
153.915
21
-102.986
0
LINE
8
Black
10
153.915
20
-102.986
11
153.8
21
-102.671
0
LINE
8
Black
10
153.8
20
-102.671
11
153.8
21
-102.336
0
LINE
8
Black
10
153.8
20
-102.336
11
153.915
21
-102.021
0
LINE
8
Black
10
153.915
20
-102.021
11
154.13
21
-101.764
0
LINE
8
Black
10
154.13
20
-101.764
11
154.421
21
-101.596
0
LINE
8
Black
10
154.421
20
-101.596
11
154.751
21
-101.538
0
LINE
8
Black
10
154.751
20
-101.538
11
155.081
21
-101.596
0
LINE
8
Black
10
150.081
20
-101.596
11
150.372
21
-101.764
0
LINE
8
Black
10
150.372
20
-101.764
11
150.587
21
-102.021
0
LINE
8
Black
10
150.587
20
-102.021
11
150.702
21
-102.336
0
LINE
8
Black
10
150.702
20
-102.336
11
150.702
21
-102.671
0
LINE
8
Black
10
150.702
20
-102.671
11
150.587
21
-102.986
0
LINE
8
Black
10
150.587
20
-102.986
11
150.372
21
-103.243
0
LINE
8
Black
10
150.372
20
-103.243
11
150.081
21
-103.411
0
LINE
8
Black
10
150.081
20
-103.411
11
149.751
21
-103.469
0
LINE
8
Black
10
149.751
20
-103.469
11
149.421
21
-103.411
0
LINE
8
Black
10
149.421
20
-103.411
11
149.13
21
-103.243
0
LINE
8
Black
10
149.13
20
-103.243
11
148.915
21
-102.986
0
LINE
8
Black
10
148.915
20
-102.986
11
148.8
21
-102.671
0
LINE
8
Black
10
148.8
20
-102.671
11
148.8
21
-102.336
0
LINE
8
Black
10
148.8
20
-102.336
11
148.915
21
-102.021
0
LINE
8
Black
10
148.915
20
-102.021
11
149.13
21
-101.764
0
LINE
8
Black
10
149.13
20
-101.764
11
149.421
21
-101.596
0
LINE
8
Black
10
149.421
20
-101.596
11
149.751
21
-101.538
0
LINE
8
Black
10
149.751
20
-101.538
11
150.081
21
-101.596
0
LINE
8
Black
10
206.255
20
-93.9248
11
206.92
21
-94.3083
0
LINE
8
Black
10
206.92
20
-94.3083
11
207.413
21
-94.8958
0
LINE
8
Black
10
207.413
20
-94.8958
11
207.675
21
-95.6165
0
LINE
8
Black
10
207.675
20
-95.6165
11
207.675
21
-96.3835
0
LINE
8
Black
10
207.675
20
-96.3835
11
207.413
21
-97.1042
0
LINE
8
Black
10
207.413
20
-97.1042
11
206.92
21
-97.6917
0
LINE
8
Black
10
206.92
20
-97.6917
11
206.255
21
-98.0752
0
LINE
8
Black
10
206.255
20
-98.0752
11
205.5
21
-98.2084
0
LINE
8
Black
10
205.5
20
-98.2084
11
204.745
21
-98.0752
0
LINE
8
Black
10
204.745
20
-98.0752
11
204.08
21
-97.6917
0
LINE
8
Black
10
204.08
20
-97.6917
11
203.587
21
-97.1042
0
LINE
8
Black
10
203.587
20
-97.1042
11
203.325
21
-96.3835
0
LINE
8
Black
10
203.325
20
-96.3835
11
203.325
21
-95.6165
0
LINE
8
Black
10
203.325
20
-95.6165
11
203.587
21
-94.8958
0
LINE
8
Black
10
203.587
20
-94.8958
11
204.08
21
-94.3083
0
LINE
8
Black
10
204.08
20
-94.3083
11
204.745
21
-93.9248
0
LINE
8
Black
10
204.745
20
-93.9248
11
205.5
21
-93.7916
0
LINE
8
Black
10
205.5
20
-93.7916
11
206.255
21
-93.9248
0
LINE
8
Black
10
92.2553
20
-93.9248
11
92.9195
21
-94.3083
0
LINE
8
Black
10
92.9195
20
-94.3083
11
93.4125
21
-94.8958
0
LINE
8
Black
10
93.4125
20
-94.8958
11
93.6749
21
-95.6165
0
LINE
8
Black
10
93.6749
20
-95.6165
11
93.6749
21
-96.3835
0
LINE
8
Black
10
93.6749
20
-96.3835
11
93.4125
21
-97.1042
0
LINE
8
Black
10
93.4125
20
-97.1042
11
92.9195
21
-97.6917
0
LINE
8
Black
10
92.9195
20
-97.6917
11
92.2553
21
-98.0752
0
LINE
8
Black
10
92.2553
20
-98.0752
11
91.5
21
-98.2084
0
LINE
8
Black
10
91.5
20
-98.2084
11
90.7447
21
-98.0752
0
LINE
8
Black
10
90.7447
20
-98.0752
11
90.0805
21
-97.6917
0
LINE
8
Black
10
90.0805
20
-97.6917
11
89.5875
21
-97.1042
0
LINE
8
Black
10
89.5875
20
-97.1042
11
89.3251
21
-96.3835
0
LINE
8
Black
10
89.3251
20
-96.3835
11
89.3251
21
-95.6165
0
LINE
8
Black
10
89.3251
20
-95.6165
11
89.5875
21
-94.8958
0
LINE
8
Black
10
89.5875
20
-94.8958
11
90.0805
21
-94.3083
0
LINE
8
Black
10
90.0805
20
-94.3083
11
90.7447
21
-93.9248
0
LINE
8
Black
10
90.7447
20
-93.9248
11
91.5
21
-93.7916
0
LINE
8
Black
10
91.5
20
-93.7916
11
92.2553
21
-93.9248
0
LINE
8
Black
10
211.506
20
-91.4261
11
211.513
21
-91.4261
0
LINE
8
Black
10
211.513
20
-91.4261
11
211.519
21
-91.4284
0
LINE
8
Black
10
211.519
20
-91.4284
11
211.526
21
-91.4295
0
LINE
8
Black
10
211.526
20
-91.4295
11
211.531
21
-91.4328
0
LINE
8
Black
10
211.531
20
-91.4328
11
211.537
21
-91.435
0
LINE
8
Black
10
211.537
20
-91.435
11
211.543
21
-91.4393
0
LINE
8
Black
10
211.543
20
-91.4393
11
211.548
21
-91.4425
0
LINE
8
Black
10
211.548
20
-91.4425
11
211.552
21
-91.4476
0
LINE
8
Black
10
211.552
20
-91.4476
11
211.557
21
-91.4518
0
LINE
8
Black
10
211.557
20
-91.4518
11
211.561
21
-91.4575
0
LINE
8
Black
10
211.561
20
-91.4575
11
211.565
21
-91.4625
0
LINE
8
Black
10
211.565
20
-91.4625
11
211.567
21
-91.4687
0
LINE
8
Black
10
211.567
20
-91.4687
11
211.57
21
-91.4743
0
LINE
8
Black
10
211.57
20
-91.4743
11
211.572
21
-91.4808
0
LINE
8
Black
10
211.572
20
-91.4808
11
211.574
21
-91.487
0
LINE
8
Black
10
211.574
20
-91.487
11
211.574
21
-91.4935
0
LINE
8
Black
10
211.574
20
-91.4935
11
211.575
21
-91.5
0
LINE
8
Black
10
211.575
20
-91.5
11
211.575
21
-150.7
0
LINE
8
Black
10
211.575
20
-150.7
11
211.574
21
-150.706
0
LINE
8
Black
10
211.574
20
-150.706
11
211.574
21
-150.713
0
LINE
8
Black
10
211.574
20
-150.713
11
211.572
21
-150.719
0
LINE
8
Black
10
211.572
20
-150.719
11
211.57
21
-150.726
0
LINE
8
Black
10
211.57
20
-150.726
11
211.567
21
-150.731
0
LINE
8
Black
10
211.567
20
-150.731
11
211.565
21
-150.737
0
LINE
8
Black
10
211.565
20
-150.737
11
211.561
21
-150.743
0
LINE
8
Black
10
211.561
20
-150.743
11
211.557
21
-150.748
0
LINE
8
Black
10
211.557
20
-150.748
11
211.552
21
-150.752
0
LINE
8
Black
10
211.552
20
-150.752
11
211.548
21
-150.757
0
LINE
8
Black
10
211.548
20
-150.757
11
211.543
21
-150.761
0
LINE
8
Black
10
211.543
20
-150.761
11
211.537
21
-150.765
0
LINE
8
Black
10
211.537
20
-150.765
11
211.531
21
-150.767
0
LINE
8
Black
10
211.531
20
-150.767
11
211.526
21
-150.77
0
LINE
8
Black
10
211.526
20
-150.77
11
211.519
21
-150.772
0
LINE
8
Black
10
211.519
20
-150.772
11
211.513
21
-150.774
0
LINE
8
Black
10
211.513
20
-150.774
11
211.506
21
-150.774
0
LINE
8
Black
10
211.506
20
-150.774
11
211.5
21
-150.775
0
LINE
8
Black
10
211.5
20
-150.775
11
85.5
21
-150.775
0
LINE
8
Black
10
85.5
20
-150.775
11
85.4935
21
-150.774
0
LINE
8
Black
10
85.4935
20
-150.774
11
85.487
21
-150.774
0
LINE
8
Black
10
85.487
20
-150.774
11
85.4808
21
-150.772
0
LINE
8
Black
10
85.4808
20
-150.772
11
85.4743
21
-150.77
0
LINE
8
Black
10
85.4743
20
-150.77
11
85.4687
21
-150.767
0
LINE
8
Black
10
85.4687
20
-150.767
11
85.4625
21
-150.765
0
LINE
8
Black
10
85.4625
20
-150.765
11
85.4575
21
-150.761
0
LINE
8
Black
10
85.4575
20
-150.761
11
85.4518
21
-150.757
0
LINE
8
Black
10
85.4518
20
-150.757
11
85.4476
21
-150.752
0
LINE
8
Black
10
85.4476
20
-150.752
11
85.4425
21
-150.748
0
LINE
8
Black
10
85.4425
20
-150.748
11
85.4393
21
-150.743
0
LINE
8
Black
10
85.4393
20
-150.743
11
85.435
21
-150.737
0
LINE
8
Black
10
85.435
20
-150.737
11
85.4328
21
-150.731
0
LINE
8
Black
10
85.4328
20
-150.731
11
85.4295
21
-150.726
0
LINE
8
Black
10
85.4295
20
-150.726
11
85.4284
21
-150.719
0
LINE
8
Black
10
85.4284
20
-150.719
11
85.4261
21
-150.713
0
LINE
8
Black
10
85.4261
20
-150.713
11
85.4261
21
-150.706
0
LINE
8
Black
10
85.4261
20
-150.706
11
85.425
21
-150.7
0
LINE
8
Black
10
85.425
20
-150.7
11
85.425
21
-91.5
0
LINE
8
Black
10
85.425
20
-91.5
11
85.4261
21
-91.4935
0
LINE
8
Black
10
85.4261
20
-91.4935
11
85.4261
21
-91.487
0
LINE
8
Black
10
85.4261
20
-91.487
11
85.4284
21
-91.4808
0
LINE
8
Black
10
85.4284
20
-91.4808
11
85.4295
21
-91.4743
0
LINE
8
Black
10
85.4295
20
-91.4743
11
85.4328
21
-91.4687
0
LINE
8
Black
10
85.4328
20
-91.4687
11
85.435
21
-91.4625
0
LINE
8
Black
10
85.435
20
-91.4625
11
85.4393
21
-91.4575
0
LINE
8
Black
10
85.4393
20
-91.4575
11
85.4425
21
-91.4518
0
LINE
8
Black
10
85.4425
20
-91.4518
11
85.4476
21
-91.4476
0
LINE
8
Black
10
85.4476
20
-91.4476
11
85.4518
21
-91.4425
0
LINE
8
Black
10
85.4518
20
-91.4425
11
85.4575
21
-91.4393
0
LINE
8
Black
10
85.4575
20
-91.4393
11
85.4625
21
-91.435
0
LINE
8
Black
10
85.4625
20
-91.435
11
85.4687
21
-91.4328
0
LINE
8
Black
10
85.4687
20
-91.4328
11
85.4743
21
-91.4295
0
LINE
8
Black
10
85.4743
20
-91.4295
11
85.4808
21
-91.4284
0
LINE
8
Black
10
85.4808
20
-91.4284
11
85.487
21
-91.4261
0
LINE
8
Black
10
85.487
20
-91.4261
11
85.4935
21
-91.4261
0
LINE
8
Black
10
85.4935
20
-91.4261
11
85.5
21
-91.425
0
LINE
8
Black
10
85.5
20
-91.425
11
211.5
21
-91.425
0
LINE
8
Black
10
211.5
20
-91.425
11
211.506
21
-91.4261
0
LINE
8
Black
10
85.575
20
-91.575
11
85.575
21
-150.625
0
LINE
8
Black
10
85.575
20
-150.625
11
211.425
21
-150.625
0
LINE
8
Black
10
211.425
20
-150.625
11
211.425
21
-91.575
0
LINE
8
Black
10
211.425
20
-91.575
11
85.575
21
-91.575
  0
ENDSEC
  0
EOF
