  0
SECTION
  2
HEADER
  9
$ANGBASE
  50
0.0
  9
$ANGDIR
  70
1
  9
$MEASUREMENT
  70
0
  0
ENDSEC
  0
SECTION
  2
TABLES
  0
TABLE
  2
LTYPE
  70
4
  0
LTYPE
  5
40F
  2
CONTINUOUS
  70
0
  3
Solid line
  72
65
  73
0
  40
0.0
  0
LTYPE
  5
410
  2
DASHDOT
 70
0
  3
Dash Dot ____ _ ____ _
 72
65
 73
4
 40
2.0
 49
1.25
 49
-0.25
 49
0.25
 49
-0.25
  0
LTYPE
  5
411
  2
DASHED
 70
0
  3
Dashed __ __ __ __ __
 72
65
 73
2
 40
0.75
 49
0.5
 49
-0.25
  0
LTYPE
  5
43B
  2
DOTTED
 70
0
  3
Dotted .  .  .  .
 72
65
 73
2
 40
0.2
 49
0.0
 49
-0.2
  0
ENDTAB
  0
TABLE
  2
STYLE
  70
4
  0
STYLE
  2
KICAD
  70
0
  40
0
  41
1
  42
1
  50
0
  71
0
  3
isocp.shx
  0
STYLE
  2
KICADB
  70
0
  40
0
  41
1
  42
1
  50
0
  71
0
  3
isocp.shx
  0
STYLE
  2
KICADI
  70
0
  40
0
  41
1
  42
1
  50
15
  71
0
  3
isocp.shx
  0
STYLE
  2
KICADBI
  70
0
  40
0
  41
1
  42
1
  50
15
  71
0
  3
isocp.shx
  0
ENDTAB
  0
TABLE
  2
LAYER
  70
1
  0
LAYER
  2
BLACK
  70
0
  62
7
  6
CONTINUOUS
  0
ENDTAB
  0
ENDSEC
  0
SECTION
  2
ENTITIES
0
LINE
8
BLACK
6
CONTINUOUS
10
7.54537
20
-3.37992
11
7.54566
21
-3.37995
0
LINE
8
BLACK
6
CONTINUOUS
10
7.54566
20
-3.37995
11
7.54603
21
-3.38006
0
LINE
8
BLACK
6
CONTINUOUS
10
7.54603
20
-3.38006
11
7.54637
21
-3.38025
0
LINE
8
BLACK
6
CONTINUOUS
10
7.54637
20
-3.38025
11
7.54667
21
-3.38049
0
LINE
8
BLACK
6
CONTINUOUS
10
7.54667
20
-3.38049
11
7.54692
21
-3.38079
0
LINE
8
BLACK
6
CONTINUOUS
10
7.54692
20
-3.38079
11
7.5471
21
-3.38113
0
LINE
8
BLACK
6
CONTINUOUS
10
7.5471
20
-3.38113
11
7.54722
21
-3.3815
0
LINE
8
BLACK
6
CONTINUOUS
10
7.54722
20
-3.3815
11
7.54725
21
-3.38189
0
LINE
8
BLACK
6
CONTINUOUS
10
7.54725
20
-3.38189
11
7.54724
21
-3.38199
0
LINE
8
BLACK
6
CONTINUOUS
10
7.54724
20
-3.38199
11
7.54724
21
-4.12786
0
LINE
8
BLACK
6
CONTINUOUS
10
7.54724
20
-4.12786
11
7.54725
21
-4.12795
0
LINE
8
BLACK
6
CONTINUOUS
10
7.54725
20
-4.12795
11
7.54724
21
-4.12805
0
LINE
8
BLACK
6
CONTINUOUS
10
7.54724
20
-4.12805
11
7.54722
21
-4.12834
0
LINE
8
BLACK
6
CONTINUOUS
10
7.54722
20
-4.12834
11
7.5471
21
-4.12871
0
LINE
8
BLACK
6
CONTINUOUS
10
7.5471
20
-4.12871
11
7.54692
21
-4.12905
0
LINE
8
BLACK
6
CONTINUOUS
10
7.54692
20
-4.12905
11
7.54667
21
-4.12935
0
LINE
8
BLACK
6
CONTINUOUS
10
7.54667
20
-4.12935
11
7.54637
21
-4.1296
0
LINE
8
BLACK
6
CONTINUOUS
10
7.54637
20
-4.1296
11
7.54603
21
-4.12978
0
LINE
8
BLACK
6
CONTINUOUS
10
7.54603
20
-4.12978
11
7.54566
21
-4.12989
0
LINE
8
BLACK
6
CONTINUOUS
10
7.54566
20
-4.12989
11
7.54528
21
-4.12993
0
LINE
8
BLACK
6
CONTINUOUS
10
7.54528
20
-4.12993
11
7.54518
21
-4.12992
0
LINE
8
BLACK
6
CONTINUOUS
10
7.54518
20
-4.12992
11
7.35039
21
-4.12992
0
LINE
8
BLACK
6
CONTINUOUS
10
7.35039
20
-4.12992
11
7.35039
21
-4.22441
0
LINE
8
BLACK
6
CONTINUOUS
10
7.35039
20
-4.22441
11
7.48612
21
-4.22441
0
LINE
8
BLACK
6
CONTINUOUS
10
7.48612
20
-4.22441
11
7.48622
21
-4.2244
0
LINE
8
BLACK
6
CONTINUOUS
10
7.48622
20
-4.2244
11
7.48632
21
-4.22441
0
LINE
8
BLACK
6
CONTINUOUS
10
7.48632
20
-4.22441
11
7.48661
21
-4.22444
0
LINE
8
BLACK
6
CONTINUOUS
10
7.48661
20
-4.22444
11
7.48698
21
-4.22455
0
LINE
8
BLACK
6
CONTINUOUS
10
7.48698
20
-4.22455
11
7.48732
21
-4.22473
0
LINE
8
BLACK
6
CONTINUOUS
10
7.48732
20
-4.22473
11
7.48762
21
-4.22498
0
LINE
8
BLACK
6
CONTINUOUS
10
7.48762
20
-4.22498
11
7.48787
21
-4.22528
0
LINE
8
BLACK
6
CONTINUOUS
10
7.48787
20
-4.22528
11
7.48805
21
-4.22562
0
LINE
8
BLACK
6
CONTINUOUS
10
7.48805
20
-4.22562
11
7.48816
21
-4.22599
0
LINE
8
BLACK
6
CONTINUOUS
10
7.48816
20
-4.22599
11
7.4882
21
-4.22638
0
LINE
8
BLACK
6
CONTINUOUS
10
7.4882
20
-4.22638
11
7.48819
21
-4.22647
0
LINE
8
BLACK
6
CONTINUOUS
10
7.48819
20
-4.22647
11
7.48819
21
-4.46063
0
LINE
8
BLACK
6
CONTINUOUS
10
7.48819
20
-4.46063
11
7.54518
21
-4.46063
0
LINE
8
BLACK
6
CONTINUOUS
10
7.54518
20
-4.46063
11
7.54528
21
-4.46062
0
LINE
8
BLACK
6
CONTINUOUS
10
7.54528
20
-4.46062
11
7.54537
21
-4.46063
0
LINE
8
BLACK
6
CONTINUOUS
10
7.54537
20
-4.46063
11
7.54566
21
-4.46066
0
LINE
8
BLACK
6
CONTINUOUS
10
7.54566
20
-4.46066
11
7.54603
21
-4.46077
0
LINE
8
BLACK
6
CONTINUOUS
10
7.54603
20
-4.46077
11
7.54637
21
-4.46095
0
LINE
8
BLACK
6
CONTINUOUS
10
7.54637
20
-4.46095
11
7.54667
21
-4.4612
0
LINE
8
BLACK
6
CONTINUOUS
10
7.54667
20
-4.4612
11
7.54692
21
-4.4615
0
LINE
8
BLACK
6
CONTINUOUS
10
7.54692
20
-4.4615
11
7.5471
21
-4.46184
0
LINE
8
BLACK
6
CONTINUOUS
10
7.5471
20
-4.46184
11
7.54722
21
-4.46221
0
LINE
8
BLACK
6
CONTINUOUS
10
7.54722
20
-4.46221
11
7.54725
21
-4.4626
0
LINE
8
BLACK
6
CONTINUOUS
10
7.54725
20
-4.4626
11
7.54724
21
-4.46269
0
LINE
8
BLACK
6
CONTINUOUS
10
7.54724
20
-4.46269
11
7.54724
21
-5.23022
0
LINE
8
BLACK
6
CONTINUOUS
10
7.54724
20
-5.23022
11
7.54725
21
-5.23031
0
LINE
8
BLACK
6
CONTINUOUS
10
7.54725
20
-5.23031
11
7.54724
21
-5.23041
0
LINE
8
BLACK
6
CONTINUOUS
10
7.54724
20
-5.23041
11
7.54724
21
-5.23041
0
LINE
8
BLACK
6
CONTINUOUS
10
7.54724
20
-5.23041
11
7.54722
21
-5.2307
0
LINE
8
BLACK
6
CONTINUOUS
10
7.54722
20
-5.2307
11
7.5471
21
-5.23107
0
LINE
8
BLACK
6
CONTINUOUS
10
7.5471
20
-5.23107
11
7.54692
21
-5.23141
0
LINE
8
BLACK
6
CONTINUOUS
10
7.54692
20
-5.23141
11
7.54667
21
-5.23171
0
LINE
8
BLACK
6
CONTINUOUS
10
7.54667
20
-5.23171
11
7.54637
21
-5.23196
0
LINE
8
BLACK
6
CONTINUOUS
10
7.54637
20
-5.23196
11
7.54603
21
-5.23214
0
LINE
8
BLACK
6
CONTINUOUS
10
7.54603
20
-5.23214
11
7.54566
21
-5.23225
0
LINE
8
BLACK
6
CONTINUOUS
10
7.54566
20
-5.23225
11
7.54528
21
-5.23229
0
LINE
8
BLACK
6
CONTINUOUS
10
7.54528
20
-5.23229
11
7.54518
21
-5.23228
0
LINE
8
BLACK
6
CONTINUOUS
10
7.54518
20
-5.23228
11
7.41929
21
-5.23228
0
LINE
8
BLACK
6
CONTINUOUS
10
7.41929
20
-5.23228
11
7.41929
21
-5.80108
0
LINE
8
BLACK
6
CONTINUOUS
10
7.41929
20
-5.80108
11
7.4193
21
-5.80118
0
LINE
8
BLACK
6
CONTINUOUS
10
7.4193
20
-5.80118
11
7.41929
21
-5.80128
0
LINE
8
BLACK
6
CONTINUOUS
10
7.41929
20
-5.80128
11
7.41929
21
-5.80128
0
LINE
8
BLACK
6
CONTINUOUS
10
7.41929
20
-5.80128
11
7.41926
21
-5.80157
0
LINE
8
BLACK
6
CONTINUOUS
10
7.41926
20
-5.80157
11
7.41915
21
-5.80194
0
LINE
8
BLACK
6
CONTINUOUS
10
7.41915
20
-5.80194
11
7.41897
21
-5.80228
0
LINE
8
BLACK
6
CONTINUOUS
10
7.41897
20
-5.80228
11
7.41872
21
-5.80258
0
LINE
8
BLACK
6
CONTINUOUS
10
7.41872
20
-5.80258
11
7.41842
21
-5.80283
0
LINE
8
BLACK
6
CONTINUOUS
10
7.41842
20
-5.80283
11
7.41808
21
-5.80301
0
LINE
8
BLACK
6
CONTINUOUS
10
7.41808
20
-5.80301
11
7.41771
21
-5.80312
0
LINE
8
BLACK
6
CONTINUOUS
10
7.41771
20
-5.80312
11
7.41732
21
-5.80316
0
LINE
8
BLACK
6
CONTINUOUS
10
7.41732
20
-5.80316
11
7.41723
21
-5.80315
0
LINE
8
BLACK
6
CONTINUOUS
10
7.41723
20
-5.80315
11
3.73632
21
-5.80315
0
LINE
8
BLACK
6
CONTINUOUS
10
3.73632
20
-5.80315
11
3.73622
21
-5.80316
0
LINE
8
BLACK
6
CONTINUOUS
10
3.73622
20
-5.80316
11
3.73583
21
-5.80312
0
LINE
8
BLACK
6
CONTINUOUS
10
3.73583
20
-5.80312
11
3.73546
21
-5.80301
0
LINE
8
BLACK
6
CONTINUOUS
10
3.73546
20
-5.80301
11
3.73512
21
-5.80283
0
LINE
8
BLACK
6
CONTINUOUS
10
3.73512
20
-5.80283
11
3.73482
21
-5.80258
0
LINE
8
BLACK
6
CONTINUOUS
10
3.73482
20
-5.80258
11
3.73458
21
-5.80228
0
LINE
8
BLACK
6
CONTINUOUS
10
3.73458
20
-5.80228
11
3.73439
21
-5.80194
0
LINE
8
BLACK
6
CONTINUOUS
10
3.73439
20
-5.80194
11
3.73428
21
-5.80157
0
LINE
8
BLACK
6
CONTINUOUS
10
3.73428
20
-5.80157
11
3.73424
21
-5.80118
0
LINE
8
BLACK
6
CONTINUOUS
10
3.73424
20
-5.80118
11
3.73425
21
-5.80108
0
LINE
8
BLACK
6
CONTINUOUS
10
3.73425
20
-5.80108
11
3.73425
21
-5.23228
0
LINE
8
BLACK
6
CONTINUOUS
10
3.73425
20
-5.23228
11
3.60836
21
-5.23228
0
LINE
8
BLACK
6
CONTINUOUS
10
3.60836
20
-5.23228
11
3.60827
21
-5.23229
0
LINE
8
BLACK
6
CONTINUOUS
10
3.60827
20
-5.23229
11
3.60788
21
-5.23225
0
LINE
8
BLACK
6
CONTINUOUS
10
3.60788
20
-5.23225
11
3.60751
21
-5.23214
0
LINE
8
BLACK
6
CONTINUOUS
10
3.60751
20
-5.23214
11
3.60717
21
-5.23196
0
LINE
8
BLACK
6
CONTINUOUS
10
3.60717
20
-5.23196
11
3.60687
21
-5.23171
0
LINE
8
BLACK
6
CONTINUOUS
10
3.60687
20
-5.23171
11
3.60662
21
-5.23141
0
LINE
8
BLACK
6
CONTINUOUS
10
3.60662
20
-5.23141
11
3.60644
21
-5.23107
0
LINE
8
BLACK
6
CONTINUOUS
10
3.60644
20
-5.23107
11
3.60633
21
-5.2307
0
LINE
8
BLACK
6
CONTINUOUS
10
3.60633
20
-5.2307
11
3.60629
21
-5.23031
0
LINE
8
BLACK
6
CONTINUOUS
10
3.60629
20
-5.23031
11
3.6063
21
-5.23022
0
LINE
8
BLACK
6
CONTINUOUS
10
3.6063
20
-5.23022
11
3.6063
21
-4.56112
0
LINE
8
BLACK
6
CONTINUOUS
10
3.6063
20
-4.56112
11
3.60629
21
-4.56102
0
LINE
8
BLACK
6
CONTINUOUS
10
3.60629
20
-4.56102
11
3.60633
21
-4.56064
0
LINE
8
BLACK
6
CONTINUOUS
10
3.60633
20
-4.56064
11
3.60644
21
-4.56027
0
LINE
8
BLACK
6
CONTINUOUS
10
3.60644
20
-4.56027
11
3.60662
21
-4.55992
0
LINE
8
BLACK
6
CONTINUOUS
10
3.60662
20
-4.55992
11
3.60687
21
-4.55962
0
LINE
8
BLACK
6
CONTINUOUS
10
3.60687
20
-4.55962
11
3.60717
21
-4.55938
0
LINE
8
BLACK
6
CONTINUOUS
10
3.60717
20
-4.55938
11
3.60751
21
-4.5592
0
LINE
8
BLACK
6
CONTINUOUS
10
3.60751
20
-4.5592
11
3.60788
21
-4.55908
0
LINE
8
BLACK
6
CONTINUOUS
10
3.60788
20
-4.55908
11
3.60817
21
-4.55906
0
LINE
8
BLACK
6
CONTINUOUS
10
3.60817
20
-4.55906
11
3.60827
21
-4.55905
0
LINE
8
BLACK
6
CONTINUOUS
10
3.60827
20
-4.55905
11
3.60836
21
-4.55906
0
LINE
8
BLACK
6
CONTINUOUS
10
3.60836
20
-4.55906
11
3.66535
21
-4.55906
0
LINE
8
BLACK
6
CONTINUOUS
10
3.66535
20
-4.55906
11
3.66535
21
-4.3249
0
LINE
8
BLACK
6
CONTINUOUS
10
3.66535
20
-4.3249
11
3.66534
21
-4.3248
0
LINE
8
BLACK
6
CONTINUOUS
10
3.66534
20
-4.3248
11
3.66538
21
-4.32442
0
LINE
8
BLACK
6
CONTINUOUS
10
3.66538
20
-4.32442
11
3.6655
21
-4.32405
0
LINE
8
BLACK
6
CONTINUOUS
10
3.6655
20
-4.32405
11
3.66568
21
-4.3237
0
LINE
8
BLACK
6
CONTINUOUS
10
3.66568
20
-4.3237
11
3.66592
21
-4.3234
0
LINE
8
BLACK
6
CONTINUOUS
10
3.66592
20
-4.3234
11
3.66622
21
-4.32316
0
LINE
8
BLACK
6
CONTINUOUS
10
3.66622
20
-4.32316
11
3.66657
21
-4.32298
0
LINE
8
BLACK
6
CONTINUOUS
10
3.66657
20
-4.32298
11
3.66694
21
-4.32286
0
LINE
8
BLACK
6
CONTINUOUS
10
3.66694
20
-4.32286
11
3.66723
21
-4.32283
0
LINE
8
BLACK
6
CONTINUOUS
10
3.66723
20
-4.32283
11
3.66732
21
-4.32283
0
LINE
8
BLACK
6
CONTINUOUS
10
3.66732
20
-4.32283
11
3.66742
21
-4.32283
0
LINE
8
BLACK
6
CONTINUOUS
10
3.66742
20
-4.32283
11
3.80315
21
-4.32283
0
LINE
8
BLACK
6
CONTINUOUS
10
3.80315
20
-4.32283
11
3.80315
21
-4.22835
0
LINE
8
BLACK
6
CONTINUOUS
10
3.80315
20
-4.22835
11
3.60836
21
-4.22835
0
LINE
8
BLACK
6
CONTINUOUS
10
3.60836
20
-4.22835
11
3.60827
21
-4.22836
0
LINE
8
BLACK
6
CONTINUOUS
10
3.60827
20
-4.22836
11
3.60788
21
-4.22832
0
LINE
8
BLACK
6
CONTINUOUS
10
3.60788
20
-4.22832
11
3.60751
21
-4.22821
0
LINE
8
BLACK
6
CONTINUOUS
10
3.60751
20
-4.22821
11
3.60717
21
-4.22802
0
LINE
8
BLACK
6
CONTINUOUS
10
3.60717
20
-4.22802
11
3.60687
21
-4.22778
0
LINE
8
BLACK
6
CONTINUOUS
10
3.60687
20
-4.22778
11
3.60662
21
-4.22748
0
LINE
8
BLACK
6
CONTINUOUS
10
3.60662
20
-4.22748
11
3.60644
21
-4.22713
0
LINE
8
BLACK
6
CONTINUOUS
10
3.60644
20
-4.22713
11
3.60633
21
-4.22676
0
LINE
8
BLACK
6
CONTINUOUS
10
3.60633
20
-4.22676
11
3.60629
21
-4.22638
0
LINE
8
BLACK
6
CONTINUOUS
10
3.60629
20
-4.22638
11
3.6063
21
-4.22628
0
LINE
8
BLACK
6
CONTINUOUS
10
3.6063
20
-4.22628
11
3.6063
21
-3.38199
0
LINE
8
BLACK
6
CONTINUOUS
10
3.6063
20
-3.38199
11
3.60629
21
-3.38189
0
LINE
8
BLACK
6
CONTINUOUS
10
3.60629
20
-3.38189
11
3.60633
21
-3.3815
0
LINE
8
BLACK
6
CONTINUOUS
10
3.60633
20
-3.3815
11
3.60644
21
-3.38113
0
LINE
8
BLACK
6
CONTINUOUS
10
3.60644
20
-3.38113
11
3.60662
21
-3.38079
0
LINE
8
BLACK
6
CONTINUOUS
10
3.60662
20
-3.38079
11
3.60687
21
-3.38049
0
LINE
8
BLACK
6
CONTINUOUS
10
3.60687
20
-3.38049
11
3.60717
21
-3.38025
0
LINE
8
BLACK
6
CONTINUOUS
10
3.60717
20
-3.38025
11
3.60751
21
-3.38006
0
LINE
8
BLACK
6
CONTINUOUS
10
3.60751
20
-3.38006
11
3.60788
21
-3.37995
0
LINE
8
BLACK
6
CONTINUOUS
10
3.60788
20
-3.37995
11
3.60817
21
-3.37992
0
LINE
8
BLACK
6
CONTINUOUS
10
3.60817
20
-3.37992
11
3.60827
21
-3.37991
0
LINE
8
BLACK
6
CONTINUOUS
10
3.60827
20
-3.37991
11
3.60836
21
-3.37992
0
LINE
8
BLACK
6
CONTINUOUS
10
3.60836
20
-3.37992
11
7.54518
21
-3.37992
0
LINE
8
BLACK
6
CONTINUOUS
10
7.54518
20
-3.37992
11
7.54528
21
-3.37991
0
LINE
8
BLACK
6
CONTINUOUS
10
7.54528
20
-3.37991
11
7.54537
21
-3.37992
0
LINE
8
BLACK
6
CONTINUOUS
10
3.61024
20
-3.38386
11
3.61024
21
-4.22441
0
LINE
8
BLACK
6
CONTINUOUS
10
3.61024
20
-4.22441
11
3.80502
21
-4.22441
0
LINE
8
BLACK
6
CONTINUOUS
10
3.80502
20
-4.22441
11
3.80512
21
-4.2244
0
LINE
8
BLACK
6
CONTINUOUS
10
3.80512
20
-4.2244
11
3.80521
21
-4.22441
0
LINE
8
BLACK
6
CONTINUOUS
10
3.80521
20
-4.22441
11
3.8055
21
-4.22444
0
LINE
8
BLACK
6
CONTINUOUS
10
3.8055
20
-4.22444
11
3.80588
21
-4.22455
0
LINE
8
BLACK
6
CONTINUOUS
10
3.80588
20
-4.22455
11
3.80622
21
-4.22473
0
LINE
8
BLACK
6
CONTINUOUS
10
3.80622
20
-4.22473
11
3.80652
21
-4.22498
0
LINE
8
BLACK
6
CONTINUOUS
10
3.80652
20
-4.22498
11
3.80676
21
-4.22528
0
LINE
8
BLACK
6
CONTINUOUS
10
3.80676
20
-4.22528
11
3.80695
21
-4.22562
0
LINE
8
BLACK
6
CONTINUOUS
10
3.80695
20
-4.22562
11
3.80706
21
-4.22599
0
LINE
8
BLACK
6
CONTINUOUS
10
3.80706
20
-4.22599
11
3.8071
21
-4.22638
0
LINE
8
BLACK
6
CONTINUOUS
10
3.8071
20
-4.22638
11
3.80709
21
-4.22647
0
LINE
8
BLACK
6
CONTINUOUS
10
3.80709
20
-4.22647
11
3.80709
21
-4.32471
0
LINE
8
BLACK
6
CONTINUOUS
10
3.80709
20
-4.32471
11
3.8071
21
-4.3248
0
LINE
8
BLACK
6
CONTINUOUS
10
3.8071
20
-4.3248
11
3.80706
21
-4.32519
0
LINE
8
BLACK
6
CONTINUOUS
10
3.80706
20
-4.32519
11
3.80695
21
-4.32556
0
LINE
8
BLACK
6
CONTINUOUS
10
3.80695
20
-4.32556
11
3.80676
21
-4.3259
0
LINE
8
BLACK
6
CONTINUOUS
10
3.80676
20
-4.3259
11
3.80652
21
-4.3262
0
LINE
8
BLACK
6
CONTINUOUS
10
3.80652
20
-4.3262
11
3.80622
21
-4.32645
0
LINE
8
BLACK
6
CONTINUOUS
10
3.80622
20
-4.32645
11
3.80588
21
-4.32663
0
LINE
8
BLACK
6
CONTINUOUS
10
3.80588
20
-4.32663
11
3.8055
21
-4.32674
0
LINE
8
BLACK
6
CONTINUOUS
10
3.8055
20
-4.32674
11
3.80521
21
-4.32677
0
LINE
8
BLACK
6
CONTINUOUS
10
3.80521
20
-4.32677
11
3.80512
21
-4.32678
0
LINE
8
BLACK
6
CONTINUOUS
10
3.80512
20
-4.32678
11
3.80502
21
-4.32677
0
LINE
8
BLACK
6
CONTINUOUS
10
3.80502
20
-4.32677
11
3.66929
21
-4.32677
0
LINE
8
BLACK
6
CONTINUOUS
10
3.66929
20
-4.32677
11
3.66929
21
-4.56093
0
LINE
8
BLACK
6
CONTINUOUS
10
3.66929
20
-4.56093
11
3.6693
21
-4.56102
0
LINE
8
BLACK
6
CONTINUOUS
10
3.6693
20
-4.56102
11
3.66926
21
-4.56141
0
LINE
8
BLACK
6
CONTINUOUS
10
3.66926
20
-4.56141
11
3.66915
21
-4.56178
0
LINE
8
BLACK
6
CONTINUOUS
10
3.66915
20
-4.56178
11
3.66897
21
-4.56212
0
LINE
8
BLACK
6
CONTINUOUS
10
3.66897
20
-4.56212
11
3.66872
21
-4.56242
0
LINE
8
BLACK
6
CONTINUOUS
10
3.66872
20
-4.56242
11
3.66842
21
-4.56267
0
LINE
8
BLACK
6
CONTINUOUS
10
3.66842
20
-4.56267
11
3.66808
21
-4.56285
0
LINE
8
BLACK
6
CONTINUOUS
10
3.66808
20
-4.56285
11
3.66771
21
-4.56296
0
LINE
8
BLACK
6
CONTINUOUS
10
3.66771
20
-4.56296
11
3.66742
21
-4.56299
0
LINE
8
BLACK
6
CONTINUOUS
10
3.66742
20
-4.56299
11
3.66732
21
-4.563
0
LINE
8
BLACK
6
CONTINUOUS
10
3.66732
20
-4.563
11
3.66723
21
-4.56299
0
LINE
8
BLACK
6
CONTINUOUS
10
3.66723
20
-4.56299
11
3.61024
21
-4.56299
0
LINE
8
BLACK
6
CONTINUOUS
10
3.61024
20
-4.56299
11
3.61024
21
-5.22835
0
LINE
8
BLACK
6
CONTINUOUS
10
3.61024
20
-5.22835
11
3.73612
21
-5.22835
0
LINE
8
BLACK
6
CONTINUOUS
10
3.73612
20
-5.22835
11
3.73622
21
-5.22834
0
LINE
8
BLACK
6
CONTINUOUS
10
3.73622
20
-5.22834
11
3.73632
21
-5.22835
0
LINE
8
BLACK
6
CONTINUOUS
10
3.73632
20
-5.22835
11
3.73661
21
-5.22837
0
LINE
8
BLACK
6
CONTINUOUS
10
3.73661
20
-5.22837
11
3.73698
21
-5.22849
0
LINE
8
BLACK
6
CONTINUOUS
10
3.73698
20
-5.22849
11
3.73732
21
-5.22867
0
LINE
8
BLACK
6
CONTINUOUS
10
3.73732
20
-5.22867
11
3.73762
21
-5.22892
0
LINE
8
BLACK
6
CONTINUOUS
10
3.73762
20
-5.22892
11
3.73787
21
-5.22922
0
LINE
8
BLACK
6
CONTINUOUS
10
3.73787
20
-5.22922
11
3.73805
21
-5.22956
0
LINE
8
BLACK
6
CONTINUOUS
10
3.73805
20
-5.22956
11
3.73816
21
-5.22993
0
LINE
8
BLACK
6
CONTINUOUS
10
3.73816
20
-5.22993
11
3.7382
21
-5.23031
0
LINE
8
BLACK
6
CONTINUOUS
10
3.7382
20
-5.23031
11
3.73819
21
-5.23041
0
LINE
8
BLACK
6
CONTINUOUS
10
3.73819
20
-5.23041
11
3.73819
21
-5.79921
0
LINE
8
BLACK
6
CONTINUOUS
10
3.73819
20
-5.79921
11
7.41535
21
-5.79921
0
LINE
8
BLACK
6
CONTINUOUS
10
7.41535
20
-5.79921
11
7.41535
21
-5.23041
0
LINE
8
BLACK
6
CONTINUOUS
10
7.41535
20
-5.23041
11
7.41534
21
-5.23031
0
LINE
8
BLACK
6
CONTINUOUS
10
7.41534
20
-5.23031
11
7.41538
21
-5.22993
0
LINE
8
BLACK
6
CONTINUOUS
10
7.41538
20
-5.22993
11
7.4155
21
-5.22956
0
LINE
8
BLACK
6
CONTINUOUS
10
7.4155
20
-5.22956
11
7.41568
21
-5.22922
0
LINE
8
BLACK
6
CONTINUOUS
10
7.41568
20
-5.22922
11
7.41592
21
-5.22892
0
LINE
8
BLACK
6
CONTINUOUS
10
7.41592
20
-5.22892
11
7.41622
21
-5.22867
0
LINE
8
BLACK
6
CONTINUOUS
10
7.41622
20
-5.22867
11
7.41657
21
-5.22849
0
LINE
8
BLACK
6
CONTINUOUS
10
7.41657
20
-5.22849
11
7.41694
21
-5.22837
0
LINE
8
BLACK
6
CONTINUOUS
10
7.41694
20
-5.22837
11
7.41723
21
-5.22835
0
LINE
8
BLACK
6
CONTINUOUS
10
7.41723
20
-5.22835
11
7.41732
21
-5.22834
0
LINE
8
BLACK
6
CONTINUOUS
10
7.41732
20
-5.22834
11
7.41742
21
-5.22835
0
LINE
8
BLACK
6
CONTINUOUS
10
7.41742
20
-5.22835
11
7.54331
21
-5.22835
0
LINE
8
BLACK
6
CONTINUOUS
10
7.54331
20
-5.22835
11
7.54331
21
-4.46457
0
LINE
8
BLACK
6
CONTINUOUS
10
7.54331
20
-4.46457
11
7.48632
21
-4.46457
0
LINE
8
BLACK
6
CONTINUOUS
10
7.48632
20
-4.46457
11
7.48622
21
-4.46458
0
LINE
8
BLACK
6
CONTINUOUS
10
7.48622
20
-4.46458
11
7.48612
21
-4.46457
0
LINE
8
BLACK
6
CONTINUOUS
10
7.48612
20
-4.46457
11
7.48583
21
-4.46454
0
LINE
8
BLACK
6
CONTINUOUS
10
7.48583
20
-4.46454
11
7.48546
21
-4.46443
0
LINE
8
BLACK
6
CONTINUOUS
10
7.48546
20
-4.46443
11
7.48512
21
-4.46424
0
LINE
8
BLACK
6
CONTINUOUS
10
7.48512
20
-4.46424
11
7.48482
21
-4.464
0
LINE
8
BLACK
6
CONTINUOUS
10
7.48482
20
-4.464
11
7.48458
21
-4.4637
0
LINE
8
BLACK
6
CONTINUOUS
10
7.48458
20
-4.4637
11
7.48439
21
-4.46336
0
LINE
8
BLACK
6
CONTINUOUS
10
7.48439
20
-4.46336
11
7.48428
21
-4.46298
0
LINE
8
BLACK
6
CONTINUOUS
10
7.48428
20
-4.46298
11
7.48424
21
-4.4626
0
LINE
8
BLACK
6
CONTINUOUS
10
7.48424
20
-4.4626
11
7.48425
21
-4.4625
0
LINE
8
BLACK
6
CONTINUOUS
10
7.48425
20
-4.4625
11
7.48425
21
-4.22835
0
LINE
8
BLACK
6
CONTINUOUS
10
7.48425
20
-4.22835
11
7.34852
21
-4.22835
0
LINE
8
BLACK
6
CONTINUOUS
10
7.34852
20
-4.22835
11
7.34843
21
-4.22836
0
LINE
8
BLACK
6
CONTINUOUS
10
7.34843
20
-4.22836
11
7.34833
21
-4.22835
0
LINE
8
BLACK
6
CONTINUOUS
10
7.34833
20
-4.22835
11
7.34804
21
-4.22832
0
LINE
8
BLACK
6
CONTINUOUS
10
7.34804
20
-4.22832
11
7.34767
21
-4.22821
0
LINE
8
BLACK
6
CONTINUOUS
10
7.34767
20
-4.22821
11
7.34733
21
-4.22802
0
LINE
8
BLACK
6
CONTINUOUS
10
7.34733
20
-4.22802
11
7.34703
21
-4.22778
0
LINE
8
BLACK
6
CONTINUOUS
10
7.34703
20
-4.22778
11
7.34678
21
-4.22748
0
LINE
8
BLACK
6
CONTINUOUS
10
7.34678
20
-4.22748
11
7.3466
21
-4.22713
0
LINE
8
BLACK
6
CONTINUOUS
10
7.3466
20
-4.22713
11
7.34649
21
-4.22676
0
LINE
8
BLACK
6
CONTINUOUS
10
7.34649
20
-4.22676
11
7.34645
21
-4.22638
0
LINE
8
BLACK
6
CONTINUOUS
10
7.34645
20
-4.22638
11
7.34646
21
-4.22628
0
LINE
8
BLACK
6
CONTINUOUS
10
7.34646
20
-4.22628
11
7.34646
21
-4.12805
0
LINE
8
BLACK
6
CONTINUOUS
10
7.34646
20
-4.12805
11
7.34645
21
-4.12795
0
LINE
8
BLACK
6
CONTINUOUS
10
7.34645
20
-4.12795
11
7.34649
21
-4.12757
0
LINE
8
BLACK
6
CONTINUOUS
10
7.34649
20
-4.12757
11
7.3466
21
-4.1272
0
LINE
8
BLACK
6
CONTINUOUS
10
7.3466
20
-4.1272
11
7.34678
21
-4.12685
0
LINE
8
BLACK
6
CONTINUOUS
10
7.34678
20
-4.12685
11
7.34703
21
-4.12655
0
LINE
8
BLACK
6
CONTINUOUS
10
7.34703
20
-4.12655
11
7.34733
21
-4.12631
0
LINE
8
BLACK
6
CONTINUOUS
10
7.34733
20
-4.12631
11
7.34767
21
-4.12613
0
LINE
8
BLACK
6
CONTINUOUS
10
7.34767
20
-4.12613
11
7.34804
21
-4.12601
0
LINE
8
BLACK
6
CONTINUOUS
10
7.34804
20
-4.12601
11
7.34833
21
-4.12598
0
LINE
8
BLACK
6
CONTINUOUS
10
7.34833
20
-4.12598
11
7.34843
21
-4.12597
0
LINE
8
BLACK
6
CONTINUOUS
10
7.34843
20
-4.12597
11
7.34852
21
-4.12598
0
LINE
8
BLACK
6
CONTINUOUS
10
7.34852
20
-4.12598
11
7.54331
21
-4.12598
0
LINE
8
BLACK
6
CONTINUOUS
10
7.54331
20
-4.12598
11
7.54331
21
-3.38386
0
LINE
8
BLACK
6
CONTINUOUS
10
7.54331
20
-3.38386
11
3.61024
21
-3.38386
  0
ENDSEC
  0
EOF
