M48
; DRILL file {KiCad 5.1.5+dfsg1-2build2} date Thu 13 Apr 2023 10:54:11 PM
; FORMAT={-:-/ absolute / inch / decimal}
; #@! TF.CreationDate,2023-04-13T22:54:11-05:00
; #@! TF.GenerationSoftware,Kicad,Pcbnew,5.1.5+dfsg1-2build2
; #@! TF.FileFunction,Plated,1,2,PTH
FMAT,2
INCH
T1C0.0157
T2C0.0315
%
G90
G05
T1
X3.9449Y-4.5394
X4.0315Y-5.2049
X4.0787Y-5.2049
X4.1693Y-5.2017
X4.2013Y-5.2018
X4.2333Y-5.2017
X4.2643Y-5.2008
X4.2795Y-4.7913
X4.3584Y-4.0346
X4.3584Y-4.6482
X4.3785Y-4.6264
X4.3849Y-4.0591
X4.4016Y-4.6744
X4.4016Y-4.9134
X4.4033Y-4.6103
X4.4052Y-4.0375
X4.4153Y-4.5832
X4.4213Y-3.6575
X4.4265Y-4.8898
X4.4304Y-4.0599
X4.4501Y-4.8721
X4.4603Y-5.0272
X4.4803Y-4.8898
X4.4923Y-5.028
X4.4924Y-4.563
X4.5219Y-5.0276
X4.5308Y-4.4111
X4.5354Y-4.9016
X4.5433Y-5.2165
X4.5515Y-5.0279
X4.5835Y-4.0866
X4.5945Y-5.2165
X4.5988Y-4.0548
X4.6067Y-4.6615
X4.6289Y-4.4497
X4.6417Y-5.2174
X4.6522Y-4.6721
X4.6693Y-3.9213
X4.6734Y-4.5022
X4.6745Y-4.7145
X4.6811Y-4.2835
X4.7087Y-3.9606
X4.7402Y-5.2174
X4.7441Y-4.0945
X4.7598Y-3.9055
X4.7861Y-3.6411
X4.7874Y-3.6102
X4.7875Y-3.6866
X4.7875Y-3.7515
X4.7992Y-4.9252
X4.8071Y-3.8316
X4.8071Y-3.802
X4.8386Y-5.2174
X4.8386Y-4.6892
X4.8543Y-4.4565
X4.8583Y-3.6102
X4.8679Y-4.6847
X4.8784Y-4.4738
X4.9087Y-4.0131
X4.9094Y-4.1654
X4.9252Y-3.7913
X4.9252Y-4.1122
X4.9281Y-3.6861
X4.9291Y-3.7244
X4.9314Y-3.8274
X4.9314Y-3.8867
X4.937Y-5.2174
X4.9522Y-4.4724
X4.9532Y-3.9917
X4.9653Y-4.2114
X4.9846Y-4.4727
X5.0183Y-4.1134
X5.0281Y-4.2283
X5.0315Y-5.2174
X5.0354Y-4.7126
X5.0383Y-4.036
X5.0394Y-4.815
X5.0462Y-4.1035
X5.0553Y-4.473
X5.056Y-4.563
X5.0736Y-4.189
X5.0827Y-4.626
X5.0906Y-3.6024
X5.0911Y-4.4207
X5.1031Y-4.1913
X5.1181Y-5.1693
X5.126Y-3.9173
X5.126Y-4.3898
X5.1299Y-5.2174
X5.1326Y-4.7068
X5.1381Y-3.8316
X5.1723Y-4.5154
X5.1824Y-5.1753
X5.1946Y-4.0495
X5.1969Y-3.8583
X5.2087Y-3.6142
X5.2087Y-3.6596
X5.2323Y-5.2158
X5.2471Y-4.52
X5.2677Y-4.7874
X5.2835Y-4.2835
X5.2992Y-3.8858
X5.3044Y-4.565
X5.3307Y-5.2158
X5.3346Y-4.5906
X5.3661Y-4.7953
X5.3773Y-4.6813
X5.378Y-4.1142
X5.3858Y-4.5669
X5.3896Y-4.7375
X5.3976Y-4.2047
X5.4055Y-4.3819
X5.4094Y-4.4685
X5.4173Y-3.622
X5.4259Y-4.7248
X5.4327Y-4.7703
X5.4386Y-4.6795
X5.4611Y-4.617
X5.4638Y-4.2441
X5.4646Y-4.9961
X5.4843Y-3.7835
X5.5039Y-4.823
X5.5157Y-4.5591
X5.5315Y-3.8937
X5.5512Y-5.0787
X5.5532Y-4.3721
X5.5676Y-3.9606
X5.6179Y-3.6535
X5.6614Y-5.0787
X5.6614Y-4.5727
X5.7047Y-3.7026
X5.7047Y-3.8071
X5.7047Y-3.9094
X5.7559Y-4.5224
X5.7559Y-5.0787
X5.7808Y-4.5634
X5.7835Y-4.6496
X5.7949Y-3.6381
X5.7992Y-3.6929
X5.8034Y-4.2823
X5.8035Y-4.0692
X5.8035Y-4.2137
X5.8035Y-4.2454
X5.8035Y-4.1793
X5.8071Y-4.7283
X5.8185Y-4.3078
X5.8268Y-4.0039
X5.8674Y-4.3078
X5.8858Y-4.0945
X5.8937Y-4.752
X5.9129Y-4.311
X5.9488Y-4.0906
X5.9661Y-4.3346
X5.9844Y-4.3652
X5.9864Y-4.7785
X5.9914Y-4.5668
X6.0003Y-4.3975
X6.0162Y-4.4293
X6.0197Y-5.2156
X6.032Y-4.4563
X6.0369Y-4.563
X6.074Y-4.8013
X6.0751Y-4.5354
X6.0786Y-4.252
X6.1024Y-4.2953
X6.1156Y-4.51
X6.1181Y-5.2158
X6.122Y-3.6181
X6.1457Y-3.7332
X6.17Y-4.8063
X6.1769Y-4.5121
X6.177Y-4.4815
X6.1777Y-4.5446
X6.1804Y-3.733
X6.187Y-4.7562
X6.189Y-4.3465
X6.212Y-4.0478
X6.2165Y-5.2158
X6.2283Y-3.7992
X6.2731Y-4.7729
X6.2773Y-4.5445
X6.2927Y-4.4654
X6.2928Y-4.3424
X6.303Y-4.4001
X6.3049Y-4.3705
X6.3134Y-4.2905
X6.315Y-5.2158
X6.3182Y-4.3198
X6.3382Y-4.7721
X6.3462Y-4.5109
X6.3683Y-4.3626
X6.372Y-4.6713
X6.3737Y-5.0118
X6.3956Y-4.7973
X6.3972Y-4.7288
X6.4134Y-5.2158
X6.4252Y-4.0472
X6.4252Y-4.1142
X6.4291Y-4.9961
X6.43Y-4.3697
X6.4824Y-4.9821
X6.4928Y-4.4299
X6.5024Y-4.8371
X6.5118Y-3.7323
X6.5118Y-5.2158
X6.513Y-4.3661
X6.5303Y-4.9642
X6.539Y-4.4777
X6.5566Y-4.429
X6.5746Y-4.3661
X6.5827Y-4.9488
X6.5852Y-4.6829
X6.5862Y-4.4309
X6.5866Y-3.9882
X6.5994Y-4.6202
X6.6063Y-3.5787
X6.6181Y-4.6772
X6.6181Y-5.2156
X6.6207Y-4.645
X6.6334Y-4.4394
X6.6357Y-3.7235
X6.6393Y-4.4684
X6.6417Y-4.8071
X6.6417Y-4.8425
X6.6505Y-4.7313
X6.6577Y-4.925
X6.6654Y-3.7244
X6.6732Y-4.7559
X6.6864Y-4.4856
X6.6969Y-4.7835
X6.7087Y-5.2158
X6.7425Y-3.8031
X6.7713Y-3.9446
X6.7717Y-3.9764
X6.7724Y-3.9094
X6.7835Y-5.2158
X6.8189Y-3.6102
X6.9055Y-5.2158
X7.0039Y-5.2158
X7.1106Y-5.2162
X7.2008Y-5.2158
X7.2061Y-5.1102
X7.2061Y-5.149
X7.2288Y-5.1697
X7.4016Y-4.315
X7.4016Y-4.5039
X7.4016Y-4.7008
X7.4016Y-4.9055
X7.4016Y-5.1024
T2
X3.7315Y-4.4102
X3.7315Y-4.5102
X3.7315Y-4.6102
X3.7315Y-4.7102
X4.0315Y-4.4102
X4.0315Y-4.5102
X4.0315Y-4.6102
X4.0315Y-4.7102
T0
M30
