%FSLAX45Y45*%
G04 Gerber Fmt 4.5, Leading zero omitted, Abs format (unit mm)*
G04 Created by KiCad (PCBNEW 5.1.5+dfsg1-2build2) date 2023-04-13 22:57:35*
%MOMM*%
%LPD*%
G04 APERTURE LIST*
%TA.AperFunction,Profile*%
%ADD10C,0.100000*%
%TD*%
%ADD11C,0.200000*%
%ADD12C,0.300000*%
G04 APERTURE END LIST*
D10*
X9165000Y-8590000D02*
X19165000Y-8590000D01*
X9165000Y-10735000D02*
X9165000Y-8590000D01*
X9665000Y-10735000D02*
X9165000Y-10735000D01*
X9665000Y-10985000D02*
X9665000Y-10735000D01*
X9315000Y-10985000D02*
X9665000Y-10985000D01*
X9315000Y-11585000D02*
X9315000Y-10985000D01*
X9165000Y-11585000D02*
X9315000Y-11585000D01*
X9165000Y-13285000D02*
X9165000Y-11585000D01*
X19165000Y-11335000D02*
X19165000Y-13285000D01*
X19015000Y-11335000D02*
X19165000Y-11335000D01*
X19015000Y-10735000D02*
X19015000Y-11335000D01*
X18665000Y-10735000D02*
X19015000Y-10735000D01*
X18665000Y-10485000D02*
X18665000Y-10735000D01*
X19165000Y-10485000D02*
X18665000Y-10485000D01*
X19165000Y-8590000D02*
X19165000Y-10485000D01*
X9490000Y-13285000D02*
X9165000Y-13285000D01*
X9490000Y-14735000D02*
X9490000Y-13285000D01*
X18840000Y-14735000D02*
X9490000Y-14735000D01*
X18840000Y-13285000D02*
X18840000Y-14735000D01*
X19165000Y-13285000D02*
X18840000Y-13285000D01*
D11*
D12*
X9446428Y-15205714D02*
X9446428Y-14905714D01*
X9517857Y-14905714D01*
X9560714Y-14920000D01*
X9589286Y-14948571D01*
X9603571Y-14977143D01*
X9617857Y-15034286D01*
X9617857Y-15077143D01*
X9603571Y-15134286D01*
X9589286Y-15162857D01*
X9560714Y-15191429D01*
X9517857Y-15205714D01*
X9446428Y-15205714D01*
X9746428Y-15205714D02*
X9746428Y-15005714D01*
X9746428Y-15062857D02*
X9760714Y-15034286D01*
X9775000Y-15020000D01*
X9803571Y-15005714D01*
X9832143Y-15005714D01*
X9932143Y-15205714D02*
X9932143Y-15005714D01*
X9932143Y-14905714D02*
X9917857Y-14920000D01*
X9932143Y-14934286D01*
X9946428Y-14920000D01*
X9932143Y-14905714D01*
X9932143Y-14934286D01*
X10117857Y-15205714D02*
X10089286Y-15191429D01*
X10075000Y-15162857D01*
X10075000Y-14905714D01*
X10275000Y-15205714D02*
X10246428Y-15191429D01*
X10232143Y-15162857D01*
X10232143Y-14905714D01*
X10617857Y-15205714D02*
X10617857Y-14905714D01*
X10717857Y-15120000D01*
X10817857Y-14905714D01*
X10817857Y-15205714D01*
X11089286Y-15205714D02*
X11089286Y-15048571D01*
X11075000Y-15020000D01*
X11046428Y-15005714D01*
X10989286Y-15005714D01*
X10960714Y-15020000D01*
X11089286Y-15191429D02*
X11060714Y-15205714D01*
X10989286Y-15205714D01*
X10960714Y-15191429D01*
X10946428Y-15162857D01*
X10946428Y-15134286D01*
X10960714Y-15105714D01*
X10989286Y-15091429D01*
X11060714Y-15091429D01*
X11089286Y-15077143D01*
X11232143Y-15005714D02*
X11232143Y-15305714D01*
X11232143Y-15020000D02*
X11260714Y-15005714D01*
X11317857Y-15005714D01*
X11346428Y-15020000D01*
X11360714Y-15034286D01*
X11375000Y-15062857D01*
X11375000Y-15148571D01*
X11360714Y-15177143D01*
X11346428Y-15191429D01*
X11317857Y-15205714D01*
X11260714Y-15205714D01*
X11232143Y-15191429D01*
X11503571Y-15177143D02*
X11517857Y-15191429D01*
X11503571Y-15205714D01*
X11489286Y-15191429D01*
X11503571Y-15177143D01*
X11503571Y-15205714D01*
X11503571Y-15020000D02*
X11517857Y-15034286D01*
X11503571Y-15048571D01*
X11489286Y-15034286D01*
X11503571Y-15020000D01*
X11503571Y-15048571D01*
M02*
