G04 #@! TF.GenerationSoftware,KiCad,Pcbnew,5.1.5+dfsg1-2build2*
G04 #@! TF.CreationDate,2023-04-13T22:50:13-05:00*
G04 #@! TF.ProjectId,cart,63617274-2e6b-4696-9361-645f70636258,rev?*
G04 #@! TF.SameCoordinates,Original*
G04 #@! TF.FileFunction,Profile,NP*
%FSLAX46Y46*%
G04 Gerber Fmt 4.6, Leading zero omitted, Abs format (unit mm)*
G04 Created by KiCad (PCBNEW 5.1.5+dfsg1-2build2) date 2023-04-13 22:50:13*
%MOMM*%
%LPD*%
G04 APERTURE LIST*
%ADD10C,0.100000*%
G04 APERTURE END LIST*
D10*
X91650000Y-85900000D02*
X191650000Y-85900000D01*
X91650000Y-107350000D02*
X91650000Y-85900000D01*
X96650000Y-107350000D02*
X91650000Y-107350000D01*
X96650000Y-109850000D02*
X96650000Y-107350000D01*
X93150000Y-109850000D02*
X96650000Y-109850000D01*
X93150000Y-115850000D02*
X93150000Y-109850000D01*
X91650000Y-115850000D02*
X93150000Y-115850000D01*
X91650000Y-132850000D02*
X91650000Y-115850000D01*
X191650000Y-113350000D02*
X191650000Y-132850000D01*
X190150000Y-113350000D02*
X191650000Y-113350000D01*
X190150000Y-107350000D02*
X190150000Y-113350000D01*
X186650000Y-107350000D02*
X190150000Y-107350000D01*
X186650000Y-104850000D02*
X186650000Y-107350000D01*
X191650000Y-104850000D02*
X186650000Y-104850000D01*
X191650000Y-85900000D02*
X191650000Y-104850000D01*
X94900000Y-132850000D02*
X91650000Y-132850000D01*
X94900000Y-147350000D02*
X94900000Y-132850000D01*
X188400000Y-147350000D02*
X94900000Y-147350000D01*
X188400000Y-132850000D02*
X188400000Y-147350000D01*
X191650000Y-132850000D02*
X188400000Y-132850000D01*
M02*
