G04 #@! TF.GenerationSoftware,KiCad,Pcbnew,5.1.5+dfsg1-2build2*
G04 #@! TF.CreationDate,2023-04-13T22:50:12-05:00*
G04 #@! TF.ProjectId,cart,63617274-2e6b-4696-9361-645f70636258,rev?*
G04 #@! TF.SameCoordinates,Original*
G04 #@! TF.FileFunction,Soldermask,Bot*
G04 #@! TF.FilePolarity,Negative*
%FSLAX46Y46*%
G04 Gerber Fmt 4.6, Leading zero omitted, Abs format (unit mm)*
G04 Created by KiCad (PCBNEW 5.1.5+dfsg1-2build2) date 2023-04-13 22:50:12*
%MOMM*%
%LPD*%
G04 APERTURE LIST*
%ADD10C,0.100000*%
%ADD11R,3.750000X14.000000*%
%ADD12R,2.000000X14.000000*%
%ADD13R,1.600000X1.600000*%
%ADD14O,1.600000X1.600000*%
G04 APERTURE END LIST*
D10*
X91650000Y-85900000D02*
X191650000Y-85900000D01*
X91650000Y-107350000D02*
X91650000Y-85900000D01*
X96650000Y-107350000D02*
X91650000Y-107350000D01*
X96650000Y-109850000D02*
X96650000Y-107350000D01*
X93150000Y-109850000D02*
X96650000Y-109850000D01*
X93150000Y-115850000D02*
X93150000Y-109850000D01*
X91650000Y-115850000D02*
X93150000Y-115850000D01*
X91650000Y-132850000D02*
X91650000Y-115850000D01*
X191650000Y-113350000D02*
X191650000Y-132850000D01*
X190150000Y-113350000D02*
X191650000Y-113350000D01*
X190150000Y-107350000D02*
X190150000Y-113350000D01*
X186650000Y-107350000D02*
X190150000Y-107350000D01*
X186650000Y-104850000D02*
X186650000Y-107350000D01*
X191650000Y-104850000D02*
X186650000Y-104850000D01*
X191650000Y-85900000D02*
X191650000Y-104850000D01*
X94900000Y-132850000D02*
X91650000Y-132850000D01*
X94900000Y-147350000D02*
X94900000Y-132850000D01*
X188400000Y-147350000D02*
X94900000Y-147350000D01*
X188400000Y-132850000D02*
X188400000Y-147350000D01*
X191650000Y-132850000D02*
X188400000Y-132850000D01*
D11*
X186275000Y-140100000D03*
D12*
X182900000Y-140100000D03*
X180400000Y-140100000D03*
X177900000Y-140100000D03*
X175400000Y-140100000D03*
X172900000Y-140100000D03*
X170400000Y-140100000D03*
X167900000Y-140100000D03*
X165400000Y-140100000D03*
X162900000Y-140100000D03*
X160400000Y-140100000D03*
X157900000Y-140100000D03*
X155400000Y-140100000D03*
X152900000Y-140100000D03*
X150400000Y-140100000D03*
X147900000Y-140100000D03*
X145400000Y-140100000D03*
X142900000Y-140100000D03*
X140400000Y-140100000D03*
X137900000Y-140100000D03*
X135400000Y-140100000D03*
X132900000Y-140100000D03*
X130400000Y-140100000D03*
X127900000Y-140100000D03*
X125400000Y-140100000D03*
X122900000Y-140100000D03*
X120400000Y-140100000D03*
X117900000Y-140100000D03*
X115400000Y-140100000D03*
X112900000Y-140100000D03*
X110400000Y-140100000D03*
X107900000Y-140100000D03*
X105400000Y-140100000D03*
X102900000Y-140100000D03*
X100400000Y-140100000D03*
D11*
X97025000Y-140100000D03*
D13*
X94780000Y-112020000D03*
D14*
X102400000Y-119640000D03*
X94780000Y-114560000D03*
X102400000Y-117100000D03*
X94780000Y-117100000D03*
X102400000Y-114560000D03*
X94780000Y-119640000D03*
X102400000Y-112020000D03*
M02*
