G04 #@! TF.GenerationSoftware,KiCad,Pcbnew,5.1.5+dfsg1-2build2*
G04 #@! TF.CreationDate,2023-04-13T22:50:12-05:00*
G04 #@! TF.ProjectId,cart,63617274-2e6b-4696-9361-645f70636258,rev?*
G04 #@! TF.SameCoordinates,Original*
G04 #@! TF.FileFunction,Soldermask,Top*
G04 #@! TF.FilePolarity,Negative*
%FSLAX46Y46*%
G04 Gerber Fmt 4.6, Leading zero omitted, Abs format (unit mm)*
G04 Created by KiCad (PCBNEW 5.1.5+dfsg1-2build2) date 2023-04-13 22:50:12*
%MOMM*%
%LPD*%
G04 APERTURE LIST*
%ADD10C,0.100000*%
%ADD11R,0.270000X1.100000*%
%ADD12R,1.500000X0.450000*%
%ADD13R,1.100000X0.270000*%
%ADD14R,0.450000X1.450000*%
%ADD15R,1.450000X0.450000*%
%ADD16R,3.750000X14.000000*%
%ADD17R,2.000000X14.000000*%
%ADD18R,1.600000X1.600000*%
%ADD19O,1.600000X1.600000*%
%ADD20R,0.650000X0.400000*%
%ADD21R,0.450000X1.500000*%
G04 APERTURE END LIST*
D10*
X91650000Y-85900000D02*
X191650000Y-85900000D01*
X91650000Y-107350000D02*
X91650000Y-85900000D01*
X96650000Y-107350000D02*
X91650000Y-107350000D01*
X96650000Y-109850000D02*
X96650000Y-107350000D01*
X93150000Y-109850000D02*
X96650000Y-109850000D01*
X93150000Y-115850000D02*
X93150000Y-109850000D01*
X91650000Y-115850000D02*
X93150000Y-115850000D01*
X91650000Y-132850000D02*
X91650000Y-115850000D01*
X191650000Y-113350000D02*
X191650000Y-132850000D01*
X190150000Y-113350000D02*
X191650000Y-113350000D01*
X190150000Y-107350000D02*
X190150000Y-113350000D01*
X186650000Y-107350000D02*
X190150000Y-107350000D01*
X186650000Y-104850000D02*
X186650000Y-107350000D01*
X191650000Y-104850000D02*
X186650000Y-104850000D01*
X191650000Y-85900000D02*
X191650000Y-104850000D01*
X94900000Y-132850000D02*
X91650000Y-132850000D01*
X94900000Y-147350000D02*
X94900000Y-132850000D01*
X188400000Y-147350000D02*
X94900000Y-147350000D01*
X188400000Y-132850000D02*
X188400000Y-147350000D01*
X191650000Y-132850000D02*
X188400000Y-132850000D01*
D11*
X147825000Y-92150000D03*
X147825000Y-104850000D03*
X148375000Y-92150000D03*
X148375000Y-104850000D03*
X148925000Y-92150000D03*
X148925000Y-104850000D03*
X149475000Y-92150000D03*
X149475000Y-104850000D03*
X150025000Y-92150000D03*
X150025000Y-104850000D03*
X150575000Y-92150000D03*
X150575000Y-104850000D03*
X151125000Y-92150000D03*
X151125000Y-104850000D03*
X151675000Y-92150000D03*
X151675000Y-104850000D03*
X152225000Y-92150000D03*
X152225000Y-104850000D03*
X152775000Y-92150000D03*
X152775000Y-104850000D03*
X153325000Y-92150000D03*
X153325000Y-104850000D03*
X153875000Y-92150000D03*
X153875000Y-104850000D03*
X154425000Y-92150000D03*
X154425000Y-104850000D03*
X154975000Y-92150000D03*
X154975000Y-104850000D03*
D12*
X139050000Y-101125000D03*
X139050000Y-101775000D03*
X139050000Y-102425000D03*
X139050000Y-103075000D03*
X139050000Y-103725000D03*
X139050000Y-104375000D03*
X139050000Y-105025000D03*
X139050000Y-105675000D03*
X144950000Y-105675000D03*
X144950000Y-105025000D03*
X144950000Y-104375000D03*
X144950000Y-103725000D03*
X144950000Y-103075000D03*
X144950000Y-102425000D03*
X144950000Y-101775000D03*
X144950000Y-101125000D03*
D13*
X144850000Y-115850000D03*
X158150000Y-115850000D03*
X144850000Y-115350000D03*
X158150000Y-115350000D03*
X144850000Y-114850000D03*
X158150000Y-114850000D03*
X144850000Y-114350000D03*
X158150000Y-114350000D03*
X144850000Y-113850000D03*
X158150000Y-113850000D03*
X144850000Y-113350000D03*
X158150000Y-113350000D03*
X144850000Y-112850000D03*
X158150000Y-112850000D03*
X144850000Y-112350000D03*
X158150000Y-112350000D03*
X144850000Y-111850000D03*
X158150000Y-111850000D03*
X144850000Y-111350000D03*
X158150000Y-111350000D03*
X144850000Y-110850000D03*
X158150000Y-110850000D03*
X144850000Y-110350000D03*
X158150000Y-110350000D03*
X144850000Y-109850000D03*
X158150000Y-109850000D03*
X144850000Y-109350000D03*
X158150000Y-109350000D03*
X144850000Y-108850000D03*
X158150000Y-108850000D03*
X144850000Y-108350000D03*
X158150000Y-108350000D03*
D10*
G36*
X99639703Y-113695722D02*
G01*
X99654264Y-113697882D01*
X99668543Y-113701459D01*
X99682403Y-113706418D01*
X99695710Y-113712712D01*
X99708336Y-113720280D01*
X99720159Y-113729048D01*
X99731066Y-113738934D01*
X99740952Y-113749841D01*
X99749720Y-113761664D01*
X99757288Y-113774290D01*
X99763582Y-113787597D01*
X99768541Y-113801457D01*
X99772118Y-113815736D01*
X99774278Y-113830297D01*
X99775000Y-113845000D01*
X99775000Y-114145000D01*
X99774278Y-114159703D01*
X99772118Y-114174264D01*
X99768541Y-114188543D01*
X99763582Y-114202403D01*
X99757288Y-114215710D01*
X99749720Y-114228336D01*
X99740952Y-114240159D01*
X99731066Y-114251066D01*
X99720159Y-114260952D01*
X99708336Y-114269720D01*
X99695710Y-114277288D01*
X99682403Y-114283582D01*
X99668543Y-114288541D01*
X99654264Y-114292118D01*
X99639703Y-114294278D01*
X99625000Y-114295000D01*
X97975000Y-114295000D01*
X97960297Y-114294278D01*
X97945736Y-114292118D01*
X97931457Y-114288541D01*
X97917597Y-114283582D01*
X97904290Y-114277288D01*
X97891664Y-114269720D01*
X97879841Y-114260952D01*
X97868934Y-114251066D01*
X97859048Y-114240159D01*
X97850280Y-114228336D01*
X97842712Y-114215710D01*
X97836418Y-114202403D01*
X97831459Y-114188543D01*
X97827882Y-114174264D01*
X97825722Y-114159703D01*
X97825000Y-114145000D01*
X97825000Y-113845000D01*
X97825722Y-113830297D01*
X97827882Y-113815736D01*
X97831459Y-113801457D01*
X97836418Y-113787597D01*
X97842712Y-113774290D01*
X97850280Y-113761664D01*
X97859048Y-113749841D01*
X97868934Y-113738934D01*
X97879841Y-113729048D01*
X97891664Y-113720280D01*
X97904290Y-113712712D01*
X97917597Y-113706418D01*
X97931457Y-113701459D01*
X97945736Y-113697882D01*
X97960297Y-113695722D01*
X97975000Y-113695000D01*
X99625000Y-113695000D01*
X99639703Y-113695722D01*
G37*
G36*
X99639703Y-114965722D02*
G01*
X99654264Y-114967882D01*
X99668543Y-114971459D01*
X99682403Y-114976418D01*
X99695710Y-114982712D01*
X99708336Y-114990280D01*
X99720159Y-114999048D01*
X99731066Y-115008934D01*
X99740952Y-115019841D01*
X99749720Y-115031664D01*
X99757288Y-115044290D01*
X99763582Y-115057597D01*
X99768541Y-115071457D01*
X99772118Y-115085736D01*
X99774278Y-115100297D01*
X99775000Y-115115000D01*
X99775000Y-115415000D01*
X99774278Y-115429703D01*
X99772118Y-115444264D01*
X99768541Y-115458543D01*
X99763582Y-115472403D01*
X99757288Y-115485710D01*
X99749720Y-115498336D01*
X99740952Y-115510159D01*
X99731066Y-115521066D01*
X99720159Y-115530952D01*
X99708336Y-115539720D01*
X99695710Y-115547288D01*
X99682403Y-115553582D01*
X99668543Y-115558541D01*
X99654264Y-115562118D01*
X99639703Y-115564278D01*
X99625000Y-115565000D01*
X97975000Y-115565000D01*
X97960297Y-115564278D01*
X97945736Y-115562118D01*
X97931457Y-115558541D01*
X97917597Y-115553582D01*
X97904290Y-115547288D01*
X97891664Y-115539720D01*
X97879841Y-115530952D01*
X97868934Y-115521066D01*
X97859048Y-115510159D01*
X97850280Y-115498336D01*
X97842712Y-115485710D01*
X97836418Y-115472403D01*
X97831459Y-115458543D01*
X97827882Y-115444264D01*
X97825722Y-115429703D01*
X97825000Y-115415000D01*
X97825000Y-115115000D01*
X97825722Y-115100297D01*
X97827882Y-115085736D01*
X97831459Y-115071457D01*
X97836418Y-115057597D01*
X97842712Y-115044290D01*
X97850280Y-115031664D01*
X97859048Y-115019841D01*
X97868934Y-115008934D01*
X97879841Y-114999048D01*
X97891664Y-114990280D01*
X97904290Y-114982712D01*
X97917597Y-114976418D01*
X97931457Y-114971459D01*
X97945736Y-114967882D01*
X97960297Y-114965722D01*
X97975000Y-114965000D01*
X99625000Y-114965000D01*
X99639703Y-114965722D01*
G37*
G36*
X99639703Y-116235722D02*
G01*
X99654264Y-116237882D01*
X99668543Y-116241459D01*
X99682403Y-116246418D01*
X99695710Y-116252712D01*
X99708336Y-116260280D01*
X99720159Y-116269048D01*
X99731066Y-116278934D01*
X99740952Y-116289841D01*
X99749720Y-116301664D01*
X99757288Y-116314290D01*
X99763582Y-116327597D01*
X99768541Y-116341457D01*
X99772118Y-116355736D01*
X99774278Y-116370297D01*
X99775000Y-116385000D01*
X99775000Y-116685000D01*
X99774278Y-116699703D01*
X99772118Y-116714264D01*
X99768541Y-116728543D01*
X99763582Y-116742403D01*
X99757288Y-116755710D01*
X99749720Y-116768336D01*
X99740952Y-116780159D01*
X99731066Y-116791066D01*
X99720159Y-116800952D01*
X99708336Y-116809720D01*
X99695710Y-116817288D01*
X99682403Y-116823582D01*
X99668543Y-116828541D01*
X99654264Y-116832118D01*
X99639703Y-116834278D01*
X99625000Y-116835000D01*
X97975000Y-116835000D01*
X97960297Y-116834278D01*
X97945736Y-116832118D01*
X97931457Y-116828541D01*
X97917597Y-116823582D01*
X97904290Y-116817288D01*
X97891664Y-116809720D01*
X97879841Y-116800952D01*
X97868934Y-116791066D01*
X97859048Y-116780159D01*
X97850280Y-116768336D01*
X97842712Y-116755710D01*
X97836418Y-116742403D01*
X97831459Y-116728543D01*
X97827882Y-116714264D01*
X97825722Y-116699703D01*
X97825000Y-116685000D01*
X97825000Y-116385000D01*
X97825722Y-116370297D01*
X97827882Y-116355736D01*
X97831459Y-116341457D01*
X97836418Y-116327597D01*
X97842712Y-116314290D01*
X97850280Y-116301664D01*
X97859048Y-116289841D01*
X97868934Y-116278934D01*
X97879841Y-116269048D01*
X97891664Y-116260280D01*
X97904290Y-116252712D01*
X97917597Y-116246418D01*
X97931457Y-116241459D01*
X97945736Y-116237882D01*
X97960297Y-116235722D01*
X97975000Y-116235000D01*
X99625000Y-116235000D01*
X99639703Y-116235722D01*
G37*
G36*
X99639703Y-117500722D02*
G01*
X99654264Y-117502882D01*
X99668543Y-117506459D01*
X99682403Y-117511418D01*
X99695710Y-117517712D01*
X99708336Y-117525280D01*
X99720159Y-117534048D01*
X99731066Y-117543934D01*
X99740952Y-117554841D01*
X99749720Y-117566664D01*
X99757288Y-117579290D01*
X99763582Y-117592597D01*
X99768541Y-117606457D01*
X99772118Y-117620736D01*
X99774278Y-117635297D01*
X99775000Y-117650000D01*
X99775000Y-117950000D01*
X99774278Y-117964703D01*
X99772118Y-117979264D01*
X99768541Y-117993543D01*
X99763582Y-118007403D01*
X99757288Y-118020710D01*
X99749720Y-118033336D01*
X99740952Y-118045159D01*
X99731066Y-118056066D01*
X99720159Y-118065952D01*
X99708336Y-118074720D01*
X99695710Y-118082288D01*
X99682403Y-118088582D01*
X99668543Y-118093541D01*
X99654264Y-118097118D01*
X99639703Y-118099278D01*
X99625000Y-118100000D01*
X97975000Y-118100000D01*
X97960297Y-118099278D01*
X97945736Y-118097118D01*
X97931457Y-118093541D01*
X97917597Y-118088582D01*
X97904290Y-118082288D01*
X97891664Y-118074720D01*
X97879841Y-118065952D01*
X97868934Y-118056066D01*
X97859048Y-118045159D01*
X97850280Y-118033336D01*
X97842712Y-118020710D01*
X97836418Y-118007403D01*
X97831459Y-117993543D01*
X97827882Y-117979264D01*
X97825722Y-117964703D01*
X97825000Y-117950000D01*
X97825000Y-117650000D01*
X97825722Y-117635297D01*
X97827882Y-117620736D01*
X97831459Y-117606457D01*
X97836418Y-117592597D01*
X97842712Y-117579290D01*
X97850280Y-117566664D01*
X97859048Y-117554841D01*
X97868934Y-117543934D01*
X97879841Y-117534048D01*
X97891664Y-117525280D01*
X97904290Y-117517712D01*
X97917597Y-117511418D01*
X97931457Y-117506459D01*
X97945736Y-117502882D01*
X97960297Y-117500722D01*
X97975000Y-117500000D01*
X99625000Y-117500000D01*
X99639703Y-117500722D01*
G37*
G36*
X105639703Y-117500722D02*
G01*
X105654264Y-117502882D01*
X105668543Y-117506459D01*
X105682403Y-117511418D01*
X105695710Y-117517712D01*
X105708336Y-117525280D01*
X105720159Y-117534048D01*
X105731066Y-117543934D01*
X105740952Y-117554841D01*
X105749720Y-117566664D01*
X105757288Y-117579290D01*
X105763582Y-117592597D01*
X105768541Y-117606457D01*
X105772118Y-117620736D01*
X105774278Y-117635297D01*
X105775000Y-117650000D01*
X105775000Y-117950000D01*
X105774278Y-117964703D01*
X105772118Y-117979264D01*
X105768541Y-117993543D01*
X105763582Y-118007403D01*
X105757288Y-118020710D01*
X105749720Y-118033336D01*
X105740952Y-118045159D01*
X105731066Y-118056066D01*
X105720159Y-118065952D01*
X105708336Y-118074720D01*
X105695710Y-118082288D01*
X105682403Y-118088582D01*
X105668543Y-118093541D01*
X105654264Y-118097118D01*
X105639703Y-118099278D01*
X105625000Y-118100000D01*
X103975000Y-118100000D01*
X103960297Y-118099278D01*
X103945736Y-118097118D01*
X103931457Y-118093541D01*
X103917597Y-118088582D01*
X103904290Y-118082288D01*
X103891664Y-118074720D01*
X103879841Y-118065952D01*
X103868934Y-118056066D01*
X103859048Y-118045159D01*
X103850280Y-118033336D01*
X103842712Y-118020710D01*
X103836418Y-118007403D01*
X103831459Y-117993543D01*
X103827882Y-117979264D01*
X103825722Y-117964703D01*
X103825000Y-117950000D01*
X103825000Y-117650000D01*
X103825722Y-117635297D01*
X103827882Y-117620736D01*
X103831459Y-117606457D01*
X103836418Y-117592597D01*
X103842712Y-117579290D01*
X103850280Y-117566664D01*
X103859048Y-117554841D01*
X103868934Y-117543934D01*
X103879841Y-117534048D01*
X103891664Y-117525280D01*
X103904290Y-117517712D01*
X103917597Y-117511418D01*
X103931457Y-117506459D01*
X103945736Y-117502882D01*
X103960297Y-117500722D01*
X103975000Y-117500000D01*
X105625000Y-117500000D01*
X105639703Y-117500722D01*
G37*
G36*
X105639703Y-116235722D02*
G01*
X105654264Y-116237882D01*
X105668543Y-116241459D01*
X105682403Y-116246418D01*
X105695710Y-116252712D01*
X105708336Y-116260280D01*
X105720159Y-116269048D01*
X105731066Y-116278934D01*
X105740952Y-116289841D01*
X105749720Y-116301664D01*
X105757288Y-116314290D01*
X105763582Y-116327597D01*
X105768541Y-116341457D01*
X105772118Y-116355736D01*
X105774278Y-116370297D01*
X105775000Y-116385000D01*
X105775000Y-116685000D01*
X105774278Y-116699703D01*
X105772118Y-116714264D01*
X105768541Y-116728543D01*
X105763582Y-116742403D01*
X105757288Y-116755710D01*
X105749720Y-116768336D01*
X105740952Y-116780159D01*
X105731066Y-116791066D01*
X105720159Y-116800952D01*
X105708336Y-116809720D01*
X105695710Y-116817288D01*
X105682403Y-116823582D01*
X105668543Y-116828541D01*
X105654264Y-116832118D01*
X105639703Y-116834278D01*
X105625000Y-116835000D01*
X103975000Y-116835000D01*
X103960297Y-116834278D01*
X103945736Y-116832118D01*
X103931457Y-116828541D01*
X103917597Y-116823582D01*
X103904290Y-116817288D01*
X103891664Y-116809720D01*
X103879841Y-116800952D01*
X103868934Y-116791066D01*
X103859048Y-116780159D01*
X103850280Y-116768336D01*
X103842712Y-116755710D01*
X103836418Y-116742403D01*
X103831459Y-116728543D01*
X103827882Y-116714264D01*
X103825722Y-116699703D01*
X103825000Y-116685000D01*
X103825000Y-116385000D01*
X103825722Y-116370297D01*
X103827882Y-116355736D01*
X103831459Y-116341457D01*
X103836418Y-116327597D01*
X103842712Y-116314290D01*
X103850280Y-116301664D01*
X103859048Y-116289841D01*
X103868934Y-116278934D01*
X103879841Y-116269048D01*
X103891664Y-116260280D01*
X103904290Y-116252712D01*
X103917597Y-116246418D01*
X103931457Y-116241459D01*
X103945736Y-116237882D01*
X103960297Y-116235722D01*
X103975000Y-116235000D01*
X105625000Y-116235000D01*
X105639703Y-116235722D01*
G37*
G36*
X105639703Y-114965722D02*
G01*
X105654264Y-114967882D01*
X105668543Y-114971459D01*
X105682403Y-114976418D01*
X105695710Y-114982712D01*
X105708336Y-114990280D01*
X105720159Y-114999048D01*
X105731066Y-115008934D01*
X105740952Y-115019841D01*
X105749720Y-115031664D01*
X105757288Y-115044290D01*
X105763582Y-115057597D01*
X105768541Y-115071457D01*
X105772118Y-115085736D01*
X105774278Y-115100297D01*
X105775000Y-115115000D01*
X105775000Y-115415000D01*
X105774278Y-115429703D01*
X105772118Y-115444264D01*
X105768541Y-115458543D01*
X105763582Y-115472403D01*
X105757288Y-115485710D01*
X105749720Y-115498336D01*
X105740952Y-115510159D01*
X105731066Y-115521066D01*
X105720159Y-115530952D01*
X105708336Y-115539720D01*
X105695710Y-115547288D01*
X105682403Y-115553582D01*
X105668543Y-115558541D01*
X105654264Y-115562118D01*
X105639703Y-115564278D01*
X105625000Y-115565000D01*
X103975000Y-115565000D01*
X103960297Y-115564278D01*
X103945736Y-115562118D01*
X103931457Y-115558541D01*
X103917597Y-115553582D01*
X103904290Y-115547288D01*
X103891664Y-115539720D01*
X103879841Y-115530952D01*
X103868934Y-115521066D01*
X103859048Y-115510159D01*
X103850280Y-115498336D01*
X103842712Y-115485710D01*
X103836418Y-115472403D01*
X103831459Y-115458543D01*
X103827882Y-115444264D01*
X103825722Y-115429703D01*
X103825000Y-115415000D01*
X103825000Y-115115000D01*
X103825722Y-115100297D01*
X103827882Y-115085736D01*
X103831459Y-115071457D01*
X103836418Y-115057597D01*
X103842712Y-115044290D01*
X103850280Y-115031664D01*
X103859048Y-115019841D01*
X103868934Y-115008934D01*
X103879841Y-114999048D01*
X103891664Y-114990280D01*
X103904290Y-114982712D01*
X103917597Y-114976418D01*
X103931457Y-114971459D01*
X103945736Y-114967882D01*
X103960297Y-114965722D01*
X103975000Y-114965000D01*
X105625000Y-114965000D01*
X105639703Y-114965722D01*
G37*
G36*
X105639703Y-113695722D02*
G01*
X105654264Y-113697882D01*
X105668543Y-113701459D01*
X105682403Y-113706418D01*
X105695710Y-113712712D01*
X105708336Y-113720280D01*
X105720159Y-113729048D01*
X105731066Y-113738934D01*
X105740952Y-113749841D01*
X105749720Y-113761664D01*
X105757288Y-113774290D01*
X105763582Y-113787597D01*
X105768541Y-113801457D01*
X105772118Y-113815736D01*
X105774278Y-113830297D01*
X105775000Y-113845000D01*
X105775000Y-114145000D01*
X105774278Y-114159703D01*
X105772118Y-114174264D01*
X105768541Y-114188543D01*
X105763582Y-114202403D01*
X105757288Y-114215710D01*
X105749720Y-114228336D01*
X105740952Y-114240159D01*
X105731066Y-114251066D01*
X105720159Y-114260952D01*
X105708336Y-114269720D01*
X105695710Y-114277288D01*
X105682403Y-114283582D01*
X105668543Y-114288541D01*
X105654264Y-114292118D01*
X105639703Y-114294278D01*
X105625000Y-114295000D01*
X103975000Y-114295000D01*
X103960297Y-114294278D01*
X103945736Y-114292118D01*
X103931457Y-114288541D01*
X103917597Y-114283582D01*
X103904290Y-114277288D01*
X103891664Y-114269720D01*
X103879841Y-114260952D01*
X103868934Y-114251066D01*
X103859048Y-114240159D01*
X103850280Y-114228336D01*
X103842712Y-114215710D01*
X103836418Y-114202403D01*
X103831459Y-114188543D01*
X103827882Y-114174264D01*
X103825722Y-114159703D01*
X103825000Y-114145000D01*
X103825000Y-113845000D01*
X103825722Y-113830297D01*
X103827882Y-113815736D01*
X103831459Y-113801457D01*
X103836418Y-113787597D01*
X103842712Y-113774290D01*
X103850280Y-113761664D01*
X103859048Y-113749841D01*
X103868934Y-113738934D01*
X103879841Y-113729048D01*
X103891664Y-113720280D01*
X103904290Y-113712712D01*
X103917597Y-113706418D01*
X103931457Y-113701459D01*
X103945736Y-113697882D01*
X103960297Y-113695722D01*
X103975000Y-113695000D01*
X105625000Y-113695000D01*
X105639703Y-113695722D01*
G37*
G36*
X98035779Y-121476144D02*
G01*
X98058834Y-121479563D01*
X98081443Y-121485227D01*
X98103387Y-121493079D01*
X98124457Y-121503044D01*
X98144448Y-121515026D01*
X98163168Y-121528910D01*
X98180438Y-121544562D01*
X98196090Y-121561832D01*
X98209974Y-121580552D01*
X98221956Y-121600543D01*
X98231921Y-121621613D01*
X98239773Y-121643557D01*
X98245437Y-121666166D01*
X98248856Y-121689221D01*
X98250000Y-121712500D01*
X98250000Y-122187500D01*
X98248856Y-122210779D01*
X98245437Y-122233834D01*
X98239773Y-122256443D01*
X98231921Y-122278387D01*
X98221956Y-122299457D01*
X98209974Y-122319448D01*
X98196090Y-122338168D01*
X98180438Y-122355438D01*
X98163168Y-122371090D01*
X98144448Y-122384974D01*
X98124457Y-122396956D01*
X98103387Y-122406921D01*
X98081443Y-122414773D01*
X98058834Y-122420437D01*
X98035779Y-122423856D01*
X98012500Y-122425000D01*
X97437500Y-122425000D01*
X97414221Y-122423856D01*
X97391166Y-122420437D01*
X97368557Y-122414773D01*
X97346613Y-122406921D01*
X97325543Y-122396956D01*
X97305552Y-122384974D01*
X97286832Y-122371090D01*
X97269562Y-122355438D01*
X97253910Y-122338168D01*
X97240026Y-122319448D01*
X97228044Y-122299457D01*
X97218079Y-122278387D01*
X97210227Y-122256443D01*
X97204563Y-122233834D01*
X97201144Y-122210779D01*
X97200000Y-122187500D01*
X97200000Y-121712500D01*
X97201144Y-121689221D01*
X97204563Y-121666166D01*
X97210227Y-121643557D01*
X97218079Y-121621613D01*
X97228044Y-121600543D01*
X97240026Y-121580552D01*
X97253910Y-121561832D01*
X97269562Y-121544562D01*
X97286832Y-121528910D01*
X97305552Y-121515026D01*
X97325543Y-121503044D01*
X97346613Y-121493079D01*
X97368557Y-121485227D01*
X97391166Y-121479563D01*
X97414221Y-121476144D01*
X97437500Y-121475000D01*
X98012500Y-121475000D01*
X98035779Y-121476144D01*
G37*
G36*
X99785779Y-121476144D02*
G01*
X99808834Y-121479563D01*
X99831443Y-121485227D01*
X99853387Y-121493079D01*
X99874457Y-121503044D01*
X99894448Y-121515026D01*
X99913168Y-121528910D01*
X99930438Y-121544562D01*
X99946090Y-121561832D01*
X99959974Y-121580552D01*
X99971956Y-121600543D01*
X99981921Y-121621613D01*
X99989773Y-121643557D01*
X99995437Y-121666166D01*
X99998856Y-121689221D01*
X100000000Y-121712500D01*
X100000000Y-122187500D01*
X99998856Y-122210779D01*
X99995437Y-122233834D01*
X99989773Y-122256443D01*
X99981921Y-122278387D01*
X99971956Y-122299457D01*
X99959974Y-122319448D01*
X99946090Y-122338168D01*
X99930438Y-122355438D01*
X99913168Y-122371090D01*
X99894448Y-122384974D01*
X99874457Y-122396956D01*
X99853387Y-122406921D01*
X99831443Y-122414773D01*
X99808834Y-122420437D01*
X99785779Y-122423856D01*
X99762500Y-122425000D01*
X99187500Y-122425000D01*
X99164221Y-122423856D01*
X99141166Y-122420437D01*
X99118557Y-122414773D01*
X99096613Y-122406921D01*
X99075543Y-122396956D01*
X99055552Y-122384974D01*
X99036832Y-122371090D01*
X99019562Y-122355438D01*
X99003910Y-122338168D01*
X98990026Y-122319448D01*
X98978044Y-122299457D01*
X98968079Y-122278387D01*
X98960227Y-122256443D01*
X98954563Y-122233834D01*
X98951144Y-122210779D01*
X98950000Y-122187500D01*
X98950000Y-121712500D01*
X98951144Y-121689221D01*
X98954563Y-121666166D01*
X98960227Y-121643557D01*
X98968079Y-121621613D01*
X98978044Y-121600543D01*
X98990026Y-121580552D01*
X99003910Y-121561832D01*
X99019562Y-121544562D01*
X99036832Y-121528910D01*
X99055552Y-121515026D01*
X99075543Y-121503044D01*
X99096613Y-121493079D01*
X99118557Y-121485227D01*
X99141166Y-121479563D01*
X99164221Y-121476144D01*
X99187500Y-121475000D01*
X99762500Y-121475000D01*
X99785779Y-121476144D01*
G37*
G36*
X120985779Y-125426144D02*
G01*
X121008834Y-125429563D01*
X121031443Y-125435227D01*
X121053387Y-125443079D01*
X121074457Y-125453044D01*
X121094448Y-125465026D01*
X121113168Y-125478910D01*
X121130438Y-125494562D01*
X121146090Y-125511832D01*
X121159974Y-125530552D01*
X121171956Y-125550543D01*
X121181921Y-125571613D01*
X121189773Y-125593557D01*
X121195437Y-125616166D01*
X121198856Y-125639221D01*
X121200000Y-125662500D01*
X121200000Y-126137500D01*
X121198856Y-126160779D01*
X121195437Y-126183834D01*
X121189773Y-126206443D01*
X121181921Y-126228387D01*
X121171956Y-126249457D01*
X121159974Y-126269448D01*
X121146090Y-126288168D01*
X121130438Y-126305438D01*
X121113168Y-126321090D01*
X121094448Y-126334974D01*
X121074457Y-126346956D01*
X121053387Y-126356921D01*
X121031443Y-126364773D01*
X121008834Y-126370437D01*
X120985779Y-126373856D01*
X120962500Y-126375000D01*
X120387500Y-126375000D01*
X120364221Y-126373856D01*
X120341166Y-126370437D01*
X120318557Y-126364773D01*
X120296613Y-126356921D01*
X120275543Y-126346956D01*
X120255552Y-126334974D01*
X120236832Y-126321090D01*
X120219562Y-126305438D01*
X120203910Y-126288168D01*
X120190026Y-126269448D01*
X120178044Y-126249457D01*
X120168079Y-126228387D01*
X120160227Y-126206443D01*
X120154563Y-126183834D01*
X120151144Y-126160779D01*
X120150000Y-126137500D01*
X120150000Y-125662500D01*
X120151144Y-125639221D01*
X120154563Y-125616166D01*
X120160227Y-125593557D01*
X120168079Y-125571613D01*
X120178044Y-125550543D01*
X120190026Y-125530552D01*
X120203910Y-125511832D01*
X120219562Y-125494562D01*
X120236832Y-125478910D01*
X120255552Y-125465026D01*
X120275543Y-125453044D01*
X120296613Y-125443079D01*
X120318557Y-125435227D01*
X120341166Y-125429563D01*
X120364221Y-125426144D01*
X120387500Y-125425000D01*
X120962500Y-125425000D01*
X120985779Y-125426144D01*
G37*
G36*
X119235779Y-125426144D02*
G01*
X119258834Y-125429563D01*
X119281443Y-125435227D01*
X119303387Y-125443079D01*
X119324457Y-125453044D01*
X119344448Y-125465026D01*
X119363168Y-125478910D01*
X119380438Y-125494562D01*
X119396090Y-125511832D01*
X119409974Y-125530552D01*
X119421956Y-125550543D01*
X119431921Y-125571613D01*
X119439773Y-125593557D01*
X119445437Y-125616166D01*
X119448856Y-125639221D01*
X119450000Y-125662500D01*
X119450000Y-126137500D01*
X119448856Y-126160779D01*
X119445437Y-126183834D01*
X119439773Y-126206443D01*
X119431921Y-126228387D01*
X119421956Y-126249457D01*
X119409974Y-126269448D01*
X119396090Y-126288168D01*
X119380438Y-126305438D01*
X119363168Y-126321090D01*
X119344448Y-126334974D01*
X119324457Y-126346956D01*
X119303387Y-126356921D01*
X119281443Y-126364773D01*
X119258834Y-126370437D01*
X119235779Y-126373856D01*
X119212500Y-126375000D01*
X118637500Y-126375000D01*
X118614221Y-126373856D01*
X118591166Y-126370437D01*
X118568557Y-126364773D01*
X118546613Y-126356921D01*
X118525543Y-126346956D01*
X118505552Y-126334974D01*
X118486832Y-126321090D01*
X118469562Y-126305438D01*
X118453910Y-126288168D01*
X118440026Y-126269448D01*
X118428044Y-126249457D01*
X118418079Y-126228387D01*
X118410227Y-126206443D01*
X118404563Y-126183834D01*
X118401144Y-126160779D01*
X118400000Y-126137500D01*
X118400000Y-125662500D01*
X118401144Y-125639221D01*
X118404563Y-125616166D01*
X118410227Y-125593557D01*
X118418079Y-125571613D01*
X118428044Y-125550543D01*
X118440026Y-125530552D01*
X118453910Y-125511832D01*
X118469562Y-125494562D01*
X118486832Y-125478910D01*
X118505552Y-125465026D01*
X118525543Y-125453044D01*
X118546613Y-125443079D01*
X118568557Y-125435227D01*
X118591166Y-125429563D01*
X118614221Y-125426144D01*
X118637500Y-125425000D01*
X119212500Y-125425000D01*
X119235779Y-125426144D01*
G37*
D14*
X111175000Y-119950000D03*
X111825000Y-119950000D03*
X112475000Y-119950000D03*
X113125000Y-119950000D03*
X113775000Y-119950000D03*
X114425000Y-119950000D03*
X115075000Y-119950000D03*
X115725000Y-119950000D03*
X116375000Y-119950000D03*
X117025000Y-119950000D03*
X117025000Y-125850000D03*
X116375000Y-125850000D03*
X115725000Y-125850000D03*
X115075000Y-125850000D03*
X114425000Y-125850000D03*
X113775000Y-125850000D03*
X113125000Y-125850000D03*
X112475000Y-125850000D03*
X111825000Y-125850000D03*
X111175000Y-125850000D03*
D12*
X140950000Y-117925000D03*
X140950000Y-118575000D03*
X140950000Y-119225000D03*
X140950000Y-119875000D03*
X140950000Y-120525000D03*
X140950000Y-121175000D03*
X140950000Y-121825000D03*
X140950000Y-122475000D03*
X135050000Y-122475000D03*
X135050000Y-121825000D03*
X135050000Y-121175000D03*
X135050000Y-120525000D03*
X135050000Y-119875000D03*
X135050000Y-119225000D03*
X135050000Y-118575000D03*
X135050000Y-117925000D03*
D15*
X129150000Y-125525000D03*
X129150000Y-124875000D03*
X129150000Y-124225000D03*
X129150000Y-123575000D03*
X129150000Y-122925000D03*
X129150000Y-122275000D03*
X129150000Y-121625000D03*
X129150000Y-120975000D03*
X129150000Y-120325000D03*
X129150000Y-119675000D03*
X123250000Y-119675000D03*
X123250000Y-120325000D03*
X123250000Y-120975000D03*
X123250000Y-121625000D03*
X123250000Y-122275000D03*
X123250000Y-122925000D03*
X123250000Y-123575000D03*
X123250000Y-124225000D03*
X123250000Y-124875000D03*
X123250000Y-125525000D03*
D14*
X138750000Y-114750000D03*
X138100000Y-114750000D03*
X137450000Y-114750000D03*
X136800000Y-114750000D03*
X136150000Y-114750000D03*
X135500000Y-114750000D03*
X134850000Y-114750000D03*
X134850000Y-108850000D03*
X135500000Y-108850000D03*
X136150000Y-108850000D03*
X136800000Y-108850000D03*
X137450000Y-108850000D03*
X138100000Y-108850000D03*
X138750000Y-108850000D03*
D11*
X118250000Y-114550000D03*
X118250000Y-101250000D03*
X117750000Y-114550000D03*
X117750000Y-101250000D03*
X117250000Y-114550000D03*
X117250000Y-101250000D03*
X116750000Y-114550000D03*
X116750000Y-101250000D03*
X116250000Y-114550000D03*
X116250000Y-101250000D03*
X115750000Y-114550000D03*
X115750000Y-101250000D03*
X115250000Y-114550000D03*
X115250000Y-101250000D03*
X114750000Y-114550000D03*
X114750000Y-101250000D03*
X114250000Y-114550000D03*
X114250000Y-101250000D03*
X113750000Y-114550000D03*
X113750000Y-101250000D03*
X113250000Y-114550000D03*
X113250000Y-101250000D03*
X112750000Y-114550000D03*
X112750000Y-101250000D03*
X112250000Y-114550000D03*
X112250000Y-101250000D03*
X111750000Y-114550000D03*
X111750000Y-101250000D03*
X111250000Y-114550000D03*
X111250000Y-101250000D03*
X110750000Y-114550000D03*
X110750000Y-101250000D03*
D16*
X186275000Y-140100000D03*
D17*
X182900000Y-140100000D03*
X180400000Y-140100000D03*
X177900000Y-140100000D03*
X175400000Y-140100000D03*
X172900000Y-140100000D03*
X170400000Y-140100000D03*
X167900000Y-140100000D03*
X165400000Y-140100000D03*
X162900000Y-140100000D03*
X160400000Y-140100000D03*
X157900000Y-140100000D03*
X155400000Y-140100000D03*
X152900000Y-140100000D03*
X150400000Y-140100000D03*
X147900000Y-140100000D03*
X145400000Y-140100000D03*
X142900000Y-140100000D03*
X140400000Y-140100000D03*
X137900000Y-140100000D03*
X135400000Y-140100000D03*
X132900000Y-140100000D03*
X130400000Y-140100000D03*
X127900000Y-140100000D03*
X125400000Y-140100000D03*
X122900000Y-140100000D03*
X120400000Y-140100000D03*
X117900000Y-140100000D03*
X115400000Y-140100000D03*
X112900000Y-140100000D03*
X110400000Y-140100000D03*
X107900000Y-140100000D03*
X105400000Y-140100000D03*
X102900000Y-140100000D03*
X100400000Y-140100000D03*
D16*
X97025000Y-140100000D03*
D10*
G36*
X144910779Y-118026144D02*
G01*
X144933834Y-118029563D01*
X144956443Y-118035227D01*
X144978387Y-118043079D01*
X144999457Y-118053044D01*
X145019448Y-118065026D01*
X145038168Y-118078910D01*
X145055438Y-118094562D01*
X145071090Y-118111832D01*
X145084974Y-118130552D01*
X145096956Y-118150543D01*
X145106921Y-118171613D01*
X145114773Y-118193557D01*
X145120437Y-118216166D01*
X145123856Y-118239221D01*
X145125000Y-118262500D01*
X145125000Y-118737500D01*
X145123856Y-118760779D01*
X145120437Y-118783834D01*
X145114773Y-118806443D01*
X145106921Y-118828387D01*
X145096956Y-118849457D01*
X145084974Y-118869448D01*
X145071090Y-118888168D01*
X145055438Y-118905438D01*
X145038168Y-118921090D01*
X145019448Y-118934974D01*
X144999457Y-118946956D01*
X144978387Y-118956921D01*
X144956443Y-118964773D01*
X144933834Y-118970437D01*
X144910779Y-118973856D01*
X144887500Y-118975000D01*
X144312500Y-118975000D01*
X144289221Y-118973856D01*
X144266166Y-118970437D01*
X144243557Y-118964773D01*
X144221613Y-118956921D01*
X144200543Y-118946956D01*
X144180552Y-118934974D01*
X144161832Y-118921090D01*
X144144562Y-118905438D01*
X144128910Y-118888168D01*
X144115026Y-118869448D01*
X144103044Y-118849457D01*
X144093079Y-118828387D01*
X144085227Y-118806443D01*
X144079563Y-118783834D01*
X144076144Y-118760779D01*
X144075000Y-118737500D01*
X144075000Y-118262500D01*
X144076144Y-118239221D01*
X144079563Y-118216166D01*
X144085227Y-118193557D01*
X144093079Y-118171613D01*
X144103044Y-118150543D01*
X144115026Y-118130552D01*
X144128910Y-118111832D01*
X144144562Y-118094562D01*
X144161832Y-118078910D01*
X144180552Y-118065026D01*
X144200543Y-118053044D01*
X144221613Y-118043079D01*
X144243557Y-118035227D01*
X144266166Y-118029563D01*
X144289221Y-118026144D01*
X144312500Y-118025000D01*
X144887500Y-118025000D01*
X144910779Y-118026144D01*
G37*
G36*
X143160779Y-118026144D02*
G01*
X143183834Y-118029563D01*
X143206443Y-118035227D01*
X143228387Y-118043079D01*
X143249457Y-118053044D01*
X143269448Y-118065026D01*
X143288168Y-118078910D01*
X143305438Y-118094562D01*
X143321090Y-118111832D01*
X143334974Y-118130552D01*
X143346956Y-118150543D01*
X143356921Y-118171613D01*
X143364773Y-118193557D01*
X143370437Y-118216166D01*
X143373856Y-118239221D01*
X143375000Y-118262500D01*
X143375000Y-118737500D01*
X143373856Y-118760779D01*
X143370437Y-118783834D01*
X143364773Y-118806443D01*
X143356921Y-118828387D01*
X143346956Y-118849457D01*
X143334974Y-118869448D01*
X143321090Y-118888168D01*
X143305438Y-118905438D01*
X143288168Y-118921090D01*
X143269448Y-118934974D01*
X143249457Y-118946956D01*
X143228387Y-118956921D01*
X143206443Y-118964773D01*
X143183834Y-118970437D01*
X143160779Y-118973856D01*
X143137500Y-118975000D01*
X142562500Y-118975000D01*
X142539221Y-118973856D01*
X142516166Y-118970437D01*
X142493557Y-118964773D01*
X142471613Y-118956921D01*
X142450543Y-118946956D01*
X142430552Y-118934974D01*
X142411832Y-118921090D01*
X142394562Y-118905438D01*
X142378910Y-118888168D01*
X142365026Y-118869448D01*
X142353044Y-118849457D01*
X142343079Y-118828387D01*
X142335227Y-118806443D01*
X142329563Y-118783834D01*
X142326144Y-118760779D01*
X142325000Y-118737500D01*
X142325000Y-118262500D01*
X142326144Y-118239221D01*
X142329563Y-118216166D01*
X142335227Y-118193557D01*
X142343079Y-118171613D01*
X142353044Y-118150543D01*
X142365026Y-118130552D01*
X142378910Y-118111832D01*
X142394562Y-118094562D01*
X142411832Y-118078910D01*
X142430552Y-118065026D01*
X142450543Y-118053044D01*
X142471613Y-118043079D01*
X142493557Y-118035227D01*
X142516166Y-118029563D01*
X142539221Y-118026144D01*
X142562500Y-118025000D01*
X143137500Y-118025000D01*
X143160779Y-118026144D01*
G37*
G36*
X120010779Y-97726144D02*
G01*
X120033834Y-97729563D01*
X120056443Y-97735227D01*
X120078387Y-97743079D01*
X120099457Y-97753044D01*
X120119448Y-97765026D01*
X120138168Y-97778910D01*
X120155438Y-97794562D01*
X120171090Y-97811832D01*
X120184974Y-97830552D01*
X120196956Y-97850543D01*
X120206921Y-97871613D01*
X120214773Y-97893557D01*
X120220437Y-97916166D01*
X120223856Y-97939221D01*
X120225000Y-97962500D01*
X120225000Y-98437500D01*
X120223856Y-98460779D01*
X120220437Y-98483834D01*
X120214773Y-98506443D01*
X120206921Y-98528387D01*
X120196956Y-98549457D01*
X120184974Y-98569448D01*
X120171090Y-98588168D01*
X120155438Y-98605438D01*
X120138168Y-98621090D01*
X120119448Y-98634974D01*
X120099457Y-98646956D01*
X120078387Y-98656921D01*
X120056443Y-98664773D01*
X120033834Y-98670437D01*
X120010779Y-98673856D01*
X119987500Y-98675000D01*
X119412500Y-98675000D01*
X119389221Y-98673856D01*
X119366166Y-98670437D01*
X119343557Y-98664773D01*
X119321613Y-98656921D01*
X119300543Y-98646956D01*
X119280552Y-98634974D01*
X119261832Y-98621090D01*
X119244562Y-98605438D01*
X119228910Y-98588168D01*
X119215026Y-98569448D01*
X119203044Y-98549457D01*
X119193079Y-98528387D01*
X119185227Y-98506443D01*
X119179563Y-98483834D01*
X119176144Y-98460779D01*
X119175000Y-98437500D01*
X119175000Y-97962500D01*
X119176144Y-97939221D01*
X119179563Y-97916166D01*
X119185227Y-97893557D01*
X119193079Y-97871613D01*
X119203044Y-97850543D01*
X119215026Y-97830552D01*
X119228910Y-97811832D01*
X119244562Y-97794562D01*
X119261832Y-97778910D01*
X119280552Y-97765026D01*
X119300543Y-97753044D01*
X119321613Y-97743079D01*
X119343557Y-97735227D01*
X119366166Y-97729563D01*
X119389221Y-97726144D01*
X119412500Y-97725000D01*
X119987500Y-97725000D01*
X120010779Y-97726144D01*
G37*
G36*
X121760779Y-97726144D02*
G01*
X121783834Y-97729563D01*
X121806443Y-97735227D01*
X121828387Y-97743079D01*
X121849457Y-97753044D01*
X121869448Y-97765026D01*
X121888168Y-97778910D01*
X121905438Y-97794562D01*
X121921090Y-97811832D01*
X121934974Y-97830552D01*
X121946956Y-97850543D01*
X121956921Y-97871613D01*
X121964773Y-97893557D01*
X121970437Y-97916166D01*
X121973856Y-97939221D01*
X121975000Y-97962500D01*
X121975000Y-98437500D01*
X121973856Y-98460779D01*
X121970437Y-98483834D01*
X121964773Y-98506443D01*
X121956921Y-98528387D01*
X121946956Y-98549457D01*
X121934974Y-98569448D01*
X121921090Y-98588168D01*
X121905438Y-98605438D01*
X121888168Y-98621090D01*
X121869448Y-98634974D01*
X121849457Y-98646956D01*
X121828387Y-98656921D01*
X121806443Y-98664773D01*
X121783834Y-98670437D01*
X121760779Y-98673856D01*
X121737500Y-98675000D01*
X121162500Y-98675000D01*
X121139221Y-98673856D01*
X121116166Y-98670437D01*
X121093557Y-98664773D01*
X121071613Y-98656921D01*
X121050543Y-98646956D01*
X121030552Y-98634974D01*
X121011832Y-98621090D01*
X120994562Y-98605438D01*
X120978910Y-98588168D01*
X120965026Y-98569448D01*
X120953044Y-98549457D01*
X120943079Y-98528387D01*
X120935227Y-98506443D01*
X120929563Y-98483834D01*
X120926144Y-98460779D01*
X120925000Y-98437500D01*
X120925000Y-97962500D01*
X120926144Y-97939221D01*
X120929563Y-97916166D01*
X120935227Y-97893557D01*
X120943079Y-97871613D01*
X120953044Y-97850543D01*
X120965026Y-97830552D01*
X120978910Y-97811832D01*
X120994562Y-97794562D01*
X121011832Y-97778910D01*
X121030552Y-97765026D01*
X121050543Y-97753044D01*
X121071613Y-97743079D01*
X121093557Y-97735227D01*
X121116166Y-97729563D01*
X121139221Y-97726144D01*
X121162500Y-97725000D01*
X121737500Y-97725000D01*
X121760779Y-97726144D01*
G37*
G36*
X173460779Y-92226144D02*
G01*
X173483834Y-92229563D01*
X173506443Y-92235227D01*
X173528387Y-92243079D01*
X173549457Y-92253044D01*
X173569448Y-92265026D01*
X173588168Y-92278910D01*
X173605438Y-92294562D01*
X173621090Y-92311832D01*
X173634974Y-92330552D01*
X173646956Y-92350543D01*
X173656921Y-92371613D01*
X173664773Y-92393557D01*
X173670437Y-92416166D01*
X173673856Y-92439221D01*
X173675000Y-92462500D01*
X173675000Y-93037500D01*
X173673856Y-93060779D01*
X173670437Y-93083834D01*
X173664773Y-93106443D01*
X173656921Y-93128387D01*
X173646956Y-93149457D01*
X173634974Y-93169448D01*
X173621090Y-93188168D01*
X173605438Y-93205438D01*
X173588168Y-93221090D01*
X173569448Y-93234974D01*
X173549457Y-93246956D01*
X173528387Y-93256921D01*
X173506443Y-93264773D01*
X173483834Y-93270437D01*
X173460779Y-93273856D01*
X173437500Y-93275000D01*
X172962500Y-93275000D01*
X172939221Y-93273856D01*
X172916166Y-93270437D01*
X172893557Y-93264773D01*
X172871613Y-93256921D01*
X172850543Y-93246956D01*
X172830552Y-93234974D01*
X172811832Y-93221090D01*
X172794562Y-93205438D01*
X172778910Y-93188168D01*
X172765026Y-93169448D01*
X172753044Y-93149457D01*
X172743079Y-93128387D01*
X172735227Y-93106443D01*
X172729563Y-93083834D01*
X172726144Y-93060779D01*
X172725000Y-93037500D01*
X172725000Y-92462500D01*
X172726144Y-92439221D01*
X172729563Y-92416166D01*
X172735227Y-92393557D01*
X172743079Y-92371613D01*
X172753044Y-92350543D01*
X172765026Y-92330552D01*
X172778910Y-92311832D01*
X172794562Y-92294562D01*
X172811832Y-92278910D01*
X172830552Y-92265026D01*
X172850543Y-92253044D01*
X172871613Y-92243079D01*
X172893557Y-92235227D01*
X172916166Y-92229563D01*
X172939221Y-92226144D01*
X172962500Y-92225000D01*
X173437500Y-92225000D01*
X173460779Y-92226144D01*
G37*
G36*
X173460779Y-93976144D02*
G01*
X173483834Y-93979563D01*
X173506443Y-93985227D01*
X173528387Y-93993079D01*
X173549457Y-94003044D01*
X173569448Y-94015026D01*
X173588168Y-94028910D01*
X173605438Y-94044562D01*
X173621090Y-94061832D01*
X173634974Y-94080552D01*
X173646956Y-94100543D01*
X173656921Y-94121613D01*
X173664773Y-94143557D01*
X173670437Y-94166166D01*
X173673856Y-94189221D01*
X173675000Y-94212500D01*
X173675000Y-94787500D01*
X173673856Y-94810779D01*
X173670437Y-94833834D01*
X173664773Y-94856443D01*
X173656921Y-94878387D01*
X173646956Y-94899457D01*
X173634974Y-94919448D01*
X173621090Y-94938168D01*
X173605438Y-94955438D01*
X173588168Y-94971090D01*
X173569448Y-94984974D01*
X173549457Y-94996956D01*
X173528387Y-95006921D01*
X173506443Y-95014773D01*
X173483834Y-95020437D01*
X173460779Y-95023856D01*
X173437500Y-95025000D01*
X172962500Y-95025000D01*
X172939221Y-95023856D01*
X172916166Y-95020437D01*
X172893557Y-95014773D01*
X172871613Y-95006921D01*
X172850543Y-94996956D01*
X172830552Y-94984974D01*
X172811832Y-94971090D01*
X172794562Y-94955438D01*
X172778910Y-94938168D01*
X172765026Y-94919448D01*
X172753044Y-94899457D01*
X172743079Y-94878387D01*
X172735227Y-94856443D01*
X172729563Y-94833834D01*
X172726144Y-94810779D01*
X172725000Y-94787500D01*
X172725000Y-94212500D01*
X172726144Y-94189221D01*
X172729563Y-94166166D01*
X172735227Y-94143557D01*
X172743079Y-94121613D01*
X172753044Y-94100543D01*
X172765026Y-94080552D01*
X172778910Y-94061832D01*
X172794562Y-94044562D01*
X172811832Y-94028910D01*
X172830552Y-94015026D01*
X172850543Y-94003044D01*
X172871613Y-93993079D01*
X172893557Y-93985227D01*
X172916166Y-93979563D01*
X172939221Y-93976144D01*
X172962500Y-93975000D01*
X173437500Y-93975000D01*
X173460779Y-93976144D01*
G37*
G36*
X168060779Y-91426144D02*
G01*
X168083834Y-91429563D01*
X168106443Y-91435227D01*
X168128387Y-91443079D01*
X168149457Y-91453044D01*
X168169448Y-91465026D01*
X168188168Y-91478910D01*
X168205438Y-91494562D01*
X168221090Y-91511832D01*
X168234974Y-91530552D01*
X168246956Y-91550543D01*
X168256921Y-91571613D01*
X168264773Y-91593557D01*
X168270437Y-91616166D01*
X168273856Y-91639221D01*
X168275000Y-91662500D01*
X168275000Y-92137500D01*
X168273856Y-92160779D01*
X168270437Y-92183834D01*
X168264773Y-92206443D01*
X168256921Y-92228387D01*
X168246956Y-92249457D01*
X168234974Y-92269448D01*
X168221090Y-92288168D01*
X168205438Y-92305438D01*
X168188168Y-92321090D01*
X168169448Y-92334974D01*
X168149457Y-92346956D01*
X168128387Y-92356921D01*
X168106443Y-92364773D01*
X168083834Y-92370437D01*
X168060779Y-92373856D01*
X168037500Y-92375000D01*
X167462500Y-92375000D01*
X167439221Y-92373856D01*
X167416166Y-92370437D01*
X167393557Y-92364773D01*
X167371613Y-92356921D01*
X167350543Y-92346956D01*
X167330552Y-92334974D01*
X167311832Y-92321090D01*
X167294562Y-92305438D01*
X167278910Y-92288168D01*
X167265026Y-92269448D01*
X167253044Y-92249457D01*
X167243079Y-92228387D01*
X167235227Y-92206443D01*
X167229563Y-92183834D01*
X167226144Y-92160779D01*
X167225000Y-92137500D01*
X167225000Y-91662500D01*
X167226144Y-91639221D01*
X167229563Y-91616166D01*
X167235227Y-91593557D01*
X167243079Y-91571613D01*
X167253044Y-91550543D01*
X167265026Y-91530552D01*
X167278910Y-91511832D01*
X167294562Y-91494562D01*
X167311832Y-91478910D01*
X167330552Y-91465026D01*
X167350543Y-91453044D01*
X167371613Y-91443079D01*
X167393557Y-91435227D01*
X167416166Y-91429563D01*
X167439221Y-91426144D01*
X167462500Y-91425000D01*
X168037500Y-91425000D01*
X168060779Y-91426144D01*
G37*
G36*
X166310779Y-91426144D02*
G01*
X166333834Y-91429563D01*
X166356443Y-91435227D01*
X166378387Y-91443079D01*
X166399457Y-91453044D01*
X166419448Y-91465026D01*
X166438168Y-91478910D01*
X166455438Y-91494562D01*
X166471090Y-91511832D01*
X166484974Y-91530552D01*
X166496956Y-91550543D01*
X166506921Y-91571613D01*
X166514773Y-91593557D01*
X166520437Y-91616166D01*
X166523856Y-91639221D01*
X166525000Y-91662500D01*
X166525000Y-92137500D01*
X166523856Y-92160779D01*
X166520437Y-92183834D01*
X166514773Y-92206443D01*
X166506921Y-92228387D01*
X166496956Y-92249457D01*
X166484974Y-92269448D01*
X166471090Y-92288168D01*
X166455438Y-92305438D01*
X166438168Y-92321090D01*
X166419448Y-92334974D01*
X166399457Y-92346956D01*
X166378387Y-92356921D01*
X166356443Y-92364773D01*
X166333834Y-92370437D01*
X166310779Y-92373856D01*
X166287500Y-92375000D01*
X165712500Y-92375000D01*
X165689221Y-92373856D01*
X165666166Y-92370437D01*
X165643557Y-92364773D01*
X165621613Y-92356921D01*
X165600543Y-92346956D01*
X165580552Y-92334974D01*
X165561832Y-92321090D01*
X165544562Y-92305438D01*
X165528910Y-92288168D01*
X165515026Y-92269448D01*
X165503044Y-92249457D01*
X165493079Y-92228387D01*
X165485227Y-92206443D01*
X165479563Y-92183834D01*
X165476144Y-92160779D01*
X165475000Y-92137500D01*
X165475000Y-91662500D01*
X165476144Y-91639221D01*
X165479563Y-91616166D01*
X165485227Y-91593557D01*
X165493079Y-91571613D01*
X165503044Y-91550543D01*
X165515026Y-91530552D01*
X165528910Y-91511832D01*
X165544562Y-91494562D01*
X165561832Y-91478910D01*
X165580552Y-91465026D01*
X165600543Y-91453044D01*
X165621613Y-91443079D01*
X165643557Y-91435227D01*
X165666166Y-91429563D01*
X165689221Y-91426144D01*
X165712500Y-91425000D01*
X166287500Y-91425000D01*
X166310779Y-91426144D01*
G37*
G36*
X166985779Y-115026144D02*
G01*
X167008834Y-115029563D01*
X167031443Y-115035227D01*
X167053387Y-115043079D01*
X167074457Y-115053044D01*
X167094448Y-115065026D01*
X167113168Y-115078910D01*
X167130438Y-115094562D01*
X167146090Y-115111832D01*
X167159974Y-115130552D01*
X167171956Y-115150543D01*
X167181921Y-115171613D01*
X167189773Y-115193557D01*
X167195437Y-115216166D01*
X167198856Y-115239221D01*
X167200000Y-115262500D01*
X167200000Y-115737500D01*
X167198856Y-115760779D01*
X167195437Y-115783834D01*
X167189773Y-115806443D01*
X167181921Y-115828387D01*
X167171956Y-115849457D01*
X167159974Y-115869448D01*
X167146090Y-115888168D01*
X167130438Y-115905438D01*
X167113168Y-115921090D01*
X167094448Y-115934974D01*
X167074457Y-115946956D01*
X167053387Y-115956921D01*
X167031443Y-115964773D01*
X167008834Y-115970437D01*
X166985779Y-115973856D01*
X166962500Y-115975000D01*
X166387500Y-115975000D01*
X166364221Y-115973856D01*
X166341166Y-115970437D01*
X166318557Y-115964773D01*
X166296613Y-115956921D01*
X166275543Y-115946956D01*
X166255552Y-115934974D01*
X166236832Y-115921090D01*
X166219562Y-115905438D01*
X166203910Y-115888168D01*
X166190026Y-115869448D01*
X166178044Y-115849457D01*
X166168079Y-115828387D01*
X166160227Y-115806443D01*
X166154563Y-115783834D01*
X166151144Y-115760779D01*
X166150000Y-115737500D01*
X166150000Y-115262500D01*
X166151144Y-115239221D01*
X166154563Y-115216166D01*
X166160227Y-115193557D01*
X166168079Y-115171613D01*
X166178044Y-115150543D01*
X166190026Y-115130552D01*
X166203910Y-115111832D01*
X166219562Y-115094562D01*
X166236832Y-115078910D01*
X166255552Y-115065026D01*
X166275543Y-115053044D01*
X166296613Y-115043079D01*
X166318557Y-115035227D01*
X166341166Y-115029563D01*
X166364221Y-115026144D01*
X166387500Y-115025000D01*
X166962500Y-115025000D01*
X166985779Y-115026144D01*
G37*
G36*
X165235779Y-115026144D02*
G01*
X165258834Y-115029563D01*
X165281443Y-115035227D01*
X165303387Y-115043079D01*
X165324457Y-115053044D01*
X165344448Y-115065026D01*
X165363168Y-115078910D01*
X165380438Y-115094562D01*
X165396090Y-115111832D01*
X165409974Y-115130552D01*
X165421956Y-115150543D01*
X165431921Y-115171613D01*
X165439773Y-115193557D01*
X165445437Y-115216166D01*
X165448856Y-115239221D01*
X165450000Y-115262500D01*
X165450000Y-115737500D01*
X165448856Y-115760779D01*
X165445437Y-115783834D01*
X165439773Y-115806443D01*
X165431921Y-115828387D01*
X165421956Y-115849457D01*
X165409974Y-115869448D01*
X165396090Y-115888168D01*
X165380438Y-115905438D01*
X165363168Y-115921090D01*
X165344448Y-115934974D01*
X165324457Y-115946956D01*
X165303387Y-115956921D01*
X165281443Y-115964773D01*
X165258834Y-115970437D01*
X165235779Y-115973856D01*
X165212500Y-115975000D01*
X164637500Y-115975000D01*
X164614221Y-115973856D01*
X164591166Y-115970437D01*
X164568557Y-115964773D01*
X164546613Y-115956921D01*
X164525543Y-115946956D01*
X164505552Y-115934974D01*
X164486832Y-115921090D01*
X164469562Y-115905438D01*
X164453910Y-115888168D01*
X164440026Y-115869448D01*
X164428044Y-115849457D01*
X164418079Y-115828387D01*
X164410227Y-115806443D01*
X164404563Y-115783834D01*
X164401144Y-115760779D01*
X164400000Y-115737500D01*
X164400000Y-115262500D01*
X164401144Y-115239221D01*
X164404563Y-115216166D01*
X164410227Y-115193557D01*
X164418079Y-115171613D01*
X164428044Y-115150543D01*
X164440026Y-115130552D01*
X164453910Y-115111832D01*
X164469562Y-115094562D01*
X164486832Y-115078910D01*
X164505552Y-115065026D01*
X164525543Y-115053044D01*
X164546613Y-115043079D01*
X164568557Y-115035227D01*
X164591166Y-115029563D01*
X164614221Y-115026144D01*
X164637500Y-115025000D01*
X165212500Y-115025000D01*
X165235779Y-115026144D01*
G37*
G36*
X140710779Y-91526144D02*
G01*
X140733834Y-91529563D01*
X140756443Y-91535227D01*
X140778387Y-91543079D01*
X140799457Y-91553044D01*
X140819448Y-91565026D01*
X140838168Y-91578910D01*
X140855438Y-91594562D01*
X140871090Y-91611832D01*
X140884974Y-91630552D01*
X140896956Y-91650543D01*
X140906921Y-91671613D01*
X140914773Y-91693557D01*
X140920437Y-91716166D01*
X140923856Y-91739221D01*
X140925000Y-91762500D01*
X140925000Y-92237500D01*
X140923856Y-92260779D01*
X140920437Y-92283834D01*
X140914773Y-92306443D01*
X140906921Y-92328387D01*
X140896956Y-92349457D01*
X140884974Y-92369448D01*
X140871090Y-92388168D01*
X140855438Y-92405438D01*
X140838168Y-92421090D01*
X140819448Y-92434974D01*
X140799457Y-92446956D01*
X140778387Y-92456921D01*
X140756443Y-92464773D01*
X140733834Y-92470437D01*
X140710779Y-92473856D01*
X140687500Y-92475000D01*
X140112500Y-92475000D01*
X140089221Y-92473856D01*
X140066166Y-92470437D01*
X140043557Y-92464773D01*
X140021613Y-92456921D01*
X140000543Y-92446956D01*
X139980552Y-92434974D01*
X139961832Y-92421090D01*
X139944562Y-92405438D01*
X139928910Y-92388168D01*
X139915026Y-92369448D01*
X139903044Y-92349457D01*
X139893079Y-92328387D01*
X139885227Y-92306443D01*
X139879563Y-92283834D01*
X139876144Y-92260779D01*
X139875000Y-92237500D01*
X139875000Y-91762500D01*
X139876144Y-91739221D01*
X139879563Y-91716166D01*
X139885227Y-91693557D01*
X139893079Y-91671613D01*
X139903044Y-91650543D01*
X139915026Y-91630552D01*
X139928910Y-91611832D01*
X139944562Y-91594562D01*
X139961832Y-91578910D01*
X139980552Y-91565026D01*
X140000543Y-91553044D01*
X140021613Y-91543079D01*
X140043557Y-91535227D01*
X140066166Y-91529563D01*
X140089221Y-91526144D01*
X140112500Y-91525000D01*
X140687500Y-91525000D01*
X140710779Y-91526144D01*
G37*
G36*
X138960779Y-91526144D02*
G01*
X138983834Y-91529563D01*
X139006443Y-91535227D01*
X139028387Y-91543079D01*
X139049457Y-91553044D01*
X139069448Y-91565026D01*
X139088168Y-91578910D01*
X139105438Y-91594562D01*
X139121090Y-91611832D01*
X139134974Y-91630552D01*
X139146956Y-91650543D01*
X139156921Y-91671613D01*
X139164773Y-91693557D01*
X139170437Y-91716166D01*
X139173856Y-91739221D01*
X139175000Y-91762500D01*
X139175000Y-92237500D01*
X139173856Y-92260779D01*
X139170437Y-92283834D01*
X139164773Y-92306443D01*
X139156921Y-92328387D01*
X139146956Y-92349457D01*
X139134974Y-92369448D01*
X139121090Y-92388168D01*
X139105438Y-92405438D01*
X139088168Y-92421090D01*
X139069448Y-92434974D01*
X139049457Y-92446956D01*
X139028387Y-92456921D01*
X139006443Y-92464773D01*
X138983834Y-92470437D01*
X138960779Y-92473856D01*
X138937500Y-92475000D01*
X138362500Y-92475000D01*
X138339221Y-92473856D01*
X138316166Y-92470437D01*
X138293557Y-92464773D01*
X138271613Y-92456921D01*
X138250543Y-92446956D01*
X138230552Y-92434974D01*
X138211832Y-92421090D01*
X138194562Y-92405438D01*
X138178910Y-92388168D01*
X138165026Y-92369448D01*
X138153044Y-92349457D01*
X138143079Y-92328387D01*
X138135227Y-92306443D01*
X138129563Y-92283834D01*
X138126144Y-92260779D01*
X138125000Y-92237500D01*
X138125000Y-91762500D01*
X138126144Y-91739221D01*
X138129563Y-91716166D01*
X138135227Y-91693557D01*
X138143079Y-91671613D01*
X138153044Y-91650543D01*
X138165026Y-91630552D01*
X138178910Y-91611832D01*
X138194562Y-91594562D01*
X138211832Y-91578910D01*
X138230552Y-91565026D01*
X138250543Y-91553044D01*
X138271613Y-91543079D01*
X138293557Y-91535227D01*
X138316166Y-91529563D01*
X138339221Y-91526144D01*
X138362500Y-91525000D01*
X138937500Y-91525000D01*
X138960779Y-91526144D01*
G37*
G36*
X121760779Y-103501144D02*
G01*
X121783834Y-103504563D01*
X121806443Y-103510227D01*
X121828387Y-103518079D01*
X121849457Y-103528044D01*
X121869448Y-103540026D01*
X121888168Y-103553910D01*
X121905438Y-103569562D01*
X121921090Y-103586832D01*
X121934974Y-103605552D01*
X121946956Y-103625543D01*
X121956921Y-103646613D01*
X121964773Y-103668557D01*
X121970437Y-103691166D01*
X121973856Y-103714221D01*
X121975000Y-103737500D01*
X121975000Y-104312500D01*
X121973856Y-104335779D01*
X121970437Y-104358834D01*
X121964773Y-104381443D01*
X121956921Y-104403387D01*
X121946956Y-104424457D01*
X121934974Y-104444448D01*
X121921090Y-104463168D01*
X121905438Y-104480438D01*
X121888168Y-104496090D01*
X121869448Y-104509974D01*
X121849457Y-104521956D01*
X121828387Y-104531921D01*
X121806443Y-104539773D01*
X121783834Y-104545437D01*
X121760779Y-104548856D01*
X121737500Y-104550000D01*
X121262500Y-104550000D01*
X121239221Y-104548856D01*
X121216166Y-104545437D01*
X121193557Y-104539773D01*
X121171613Y-104531921D01*
X121150543Y-104521956D01*
X121130552Y-104509974D01*
X121111832Y-104496090D01*
X121094562Y-104480438D01*
X121078910Y-104463168D01*
X121065026Y-104444448D01*
X121053044Y-104424457D01*
X121043079Y-104403387D01*
X121035227Y-104381443D01*
X121029563Y-104358834D01*
X121026144Y-104335779D01*
X121025000Y-104312500D01*
X121025000Y-103737500D01*
X121026144Y-103714221D01*
X121029563Y-103691166D01*
X121035227Y-103668557D01*
X121043079Y-103646613D01*
X121053044Y-103625543D01*
X121065026Y-103605552D01*
X121078910Y-103586832D01*
X121094562Y-103569562D01*
X121111832Y-103553910D01*
X121130552Y-103540026D01*
X121150543Y-103528044D01*
X121171613Y-103518079D01*
X121193557Y-103510227D01*
X121216166Y-103504563D01*
X121239221Y-103501144D01*
X121262500Y-103500000D01*
X121737500Y-103500000D01*
X121760779Y-103501144D01*
G37*
G36*
X121760779Y-105251144D02*
G01*
X121783834Y-105254563D01*
X121806443Y-105260227D01*
X121828387Y-105268079D01*
X121849457Y-105278044D01*
X121869448Y-105290026D01*
X121888168Y-105303910D01*
X121905438Y-105319562D01*
X121921090Y-105336832D01*
X121934974Y-105355552D01*
X121946956Y-105375543D01*
X121956921Y-105396613D01*
X121964773Y-105418557D01*
X121970437Y-105441166D01*
X121973856Y-105464221D01*
X121975000Y-105487500D01*
X121975000Y-106062500D01*
X121973856Y-106085779D01*
X121970437Y-106108834D01*
X121964773Y-106131443D01*
X121956921Y-106153387D01*
X121946956Y-106174457D01*
X121934974Y-106194448D01*
X121921090Y-106213168D01*
X121905438Y-106230438D01*
X121888168Y-106246090D01*
X121869448Y-106259974D01*
X121849457Y-106271956D01*
X121828387Y-106281921D01*
X121806443Y-106289773D01*
X121783834Y-106295437D01*
X121760779Y-106298856D01*
X121737500Y-106300000D01*
X121262500Y-106300000D01*
X121239221Y-106298856D01*
X121216166Y-106295437D01*
X121193557Y-106289773D01*
X121171613Y-106281921D01*
X121150543Y-106271956D01*
X121130552Y-106259974D01*
X121111832Y-106246090D01*
X121094562Y-106230438D01*
X121078910Y-106213168D01*
X121065026Y-106194448D01*
X121053044Y-106174457D01*
X121043079Y-106153387D01*
X121035227Y-106131443D01*
X121029563Y-106108834D01*
X121026144Y-106085779D01*
X121025000Y-106062500D01*
X121025000Y-105487500D01*
X121026144Y-105464221D01*
X121029563Y-105441166D01*
X121035227Y-105418557D01*
X121043079Y-105396613D01*
X121053044Y-105375543D01*
X121065026Y-105355552D01*
X121078910Y-105336832D01*
X121094562Y-105319562D01*
X121111832Y-105303910D01*
X121130552Y-105290026D01*
X121150543Y-105278044D01*
X121171613Y-105268079D01*
X121193557Y-105260227D01*
X121216166Y-105254563D01*
X121239221Y-105251144D01*
X121262500Y-105250000D01*
X121737500Y-105250000D01*
X121760779Y-105251144D01*
G37*
G36*
X154860779Y-116726144D02*
G01*
X154883834Y-116729563D01*
X154906443Y-116735227D01*
X154928387Y-116743079D01*
X154949457Y-116753044D01*
X154969448Y-116765026D01*
X154988168Y-116778910D01*
X155005438Y-116794562D01*
X155021090Y-116811832D01*
X155034974Y-116830552D01*
X155046956Y-116850543D01*
X155056921Y-116871613D01*
X155064773Y-116893557D01*
X155070437Y-116916166D01*
X155073856Y-116939221D01*
X155075000Y-116962500D01*
X155075000Y-117537500D01*
X155073856Y-117560779D01*
X155070437Y-117583834D01*
X155064773Y-117606443D01*
X155056921Y-117628387D01*
X155046956Y-117649457D01*
X155034974Y-117669448D01*
X155021090Y-117688168D01*
X155005438Y-117705438D01*
X154988168Y-117721090D01*
X154969448Y-117734974D01*
X154949457Y-117746956D01*
X154928387Y-117756921D01*
X154906443Y-117764773D01*
X154883834Y-117770437D01*
X154860779Y-117773856D01*
X154837500Y-117775000D01*
X154362500Y-117775000D01*
X154339221Y-117773856D01*
X154316166Y-117770437D01*
X154293557Y-117764773D01*
X154271613Y-117756921D01*
X154250543Y-117746956D01*
X154230552Y-117734974D01*
X154211832Y-117721090D01*
X154194562Y-117705438D01*
X154178910Y-117688168D01*
X154165026Y-117669448D01*
X154153044Y-117649457D01*
X154143079Y-117628387D01*
X154135227Y-117606443D01*
X154129563Y-117583834D01*
X154126144Y-117560779D01*
X154125000Y-117537500D01*
X154125000Y-116962500D01*
X154126144Y-116939221D01*
X154129563Y-116916166D01*
X154135227Y-116893557D01*
X154143079Y-116871613D01*
X154153044Y-116850543D01*
X154165026Y-116830552D01*
X154178910Y-116811832D01*
X154194562Y-116794562D01*
X154211832Y-116778910D01*
X154230552Y-116765026D01*
X154250543Y-116753044D01*
X154271613Y-116743079D01*
X154293557Y-116735227D01*
X154316166Y-116729563D01*
X154339221Y-116726144D01*
X154362500Y-116725000D01*
X154837500Y-116725000D01*
X154860779Y-116726144D01*
G37*
G36*
X154860779Y-118476144D02*
G01*
X154883834Y-118479563D01*
X154906443Y-118485227D01*
X154928387Y-118493079D01*
X154949457Y-118503044D01*
X154969448Y-118515026D01*
X154988168Y-118528910D01*
X155005438Y-118544562D01*
X155021090Y-118561832D01*
X155034974Y-118580552D01*
X155046956Y-118600543D01*
X155056921Y-118621613D01*
X155064773Y-118643557D01*
X155070437Y-118666166D01*
X155073856Y-118689221D01*
X155075000Y-118712500D01*
X155075000Y-119287500D01*
X155073856Y-119310779D01*
X155070437Y-119333834D01*
X155064773Y-119356443D01*
X155056921Y-119378387D01*
X155046956Y-119399457D01*
X155034974Y-119419448D01*
X155021090Y-119438168D01*
X155005438Y-119455438D01*
X154988168Y-119471090D01*
X154969448Y-119484974D01*
X154949457Y-119496956D01*
X154928387Y-119506921D01*
X154906443Y-119514773D01*
X154883834Y-119520437D01*
X154860779Y-119523856D01*
X154837500Y-119525000D01*
X154362500Y-119525000D01*
X154339221Y-119523856D01*
X154316166Y-119520437D01*
X154293557Y-119514773D01*
X154271613Y-119506921D01*
X154250543Y-119496956D01*
X154230552Y-119484974D01*
X154211832Y-119471090D01*
X154194562Y-119455438D01*
X154178910Y-119438168D01*
X154165026Y-119419448D01*
X154153044Y-119399457D01*
X154143079Y-119378387D01*
X154135227Y-119356443D01*
X154129563Y-119333834D01*
X154126144Y-119310779D01*
X154125000Y-119287500D01*
X154125000Y-118712500D01*
X154126144Y-118689221D01*
X154129563Y-118666166D01*
X154135227Y-118643557D01*
X154143079Y-118621613D01*
X154153044Y-118600543D01*
X154165026Y-118580552D01*
X154178910Y-118561832D01*
X154194562Y-118544562D01*
X154211832Y-118528910D01*
X154230552Y-118515026D01*
X154250543Y-118503044D01*
X154271613Y-118493079D01*
X154293557Y-118485227D01*
X154316166Y-118479563D01*
X154339221Y-118476144D01*
X154362500Y-118475000D01*
X154837500Y-118475000D01*
X154860779Y-118476144D01*
G37*
G36*
X164260779Y-102276144D02*
G01*
X164283834Y-102279563D01*
X164306443Y-102285227D01*
X164328387Y-102293079D01*
X164349457Y-102303044D01*
X164369448Y-102315026D01*
X164388168Y-102328910D01*
X164405438Y-102344562D01*
X164421090Y-102361832D01*
X164434974Y-102380552D01*
X164446956Y-102400543D01*
X164456921Y-102421613D01*
X164464773Y-102443557D01*
X164470437Y-102466166D01*
X164473856Y-102489221D01*
X164475000Y-102512500D01*
X164475000Y-103087500D01*
X164473856Y-103110779D01*
X164470437Y-103133834D01*
X164464773Y-103156443D01*
X164456921Y-103178387D01*
X164446956Y-103199457D01*
X164434974Y-103219448D01*
X164421090Y-103238168D01*
X164405438Y-103255438D01*
X164388168Y-103271090D01*
X164369448Y-103284974D01*
X164349457Y-103296956D01*
X164328387Y-103306921D01*
X164306443Y-103314773D01*
X164283834Y-103320437D01*
X164260779Y-103323856D01*
X164237500Y-103325000D01*
X163762500Y-103325000D01*
X163739221Y-103323856D01*
X163716166Y-103320437D01*
X163693557Y-103314773D01*
X163671613Y-103306921D01*
X163650543Y-103296956D01*
X163630552Y-103284974D01*
X163611832Y-103271090D01*
X163594562Y-103255438D01*
X163578910Y-103238168D01*
X163565026Y-103219448D01*
X163553044Y-103199457D01*
X163543079Y-103178387D01*
X163535227Y-103156443D01*
X163529563Y-103133834D01*
X163526144Y-103110779D01*
X163525000Y-103087500D01*
X163525000Y-102512500D01*
X163526144Y-102489221D01*
X163529563Y-102466166D01*
X163535227Y-102443557D01*
X163543079Y-102421613D01*
X163553044Y-102400543D01*
X163565026Y-102380552D01*
X163578910Y-102361832D01*
X163594562Y-102344562D01*
X163611832Y-102328910D01*
X163630552Y-102315026D01*
X163650543Y-102303044D01*
X163671613Y-102293079D01*
X163693557Y-102285227D01*
X163716166Y-102279563D01*
X163739221Y-102276144D01*
X163762500Y-102275000D01*
X164237500Y-102275000D01*
X164260779Y-102276144D01*
G37*
G36*
X164260779Y-104026144D02*
G01*
X164283834Y-104029563D01*
X164306443Y-104035227D01*
X164328387Y-104043079D01*
X164349457Y-104053044D01*
X164369448Y-104065026D01*
X164388168Y-104078910D01*
X164405438Y-104094562D01*
X164421090Y-104111832D01*
X164434974Y-104130552D01*
X164446956Y-104150543D01*
X164456921Y-104171613D01*
X164464773Y-104193557D01*
X164470437Y-104216166D01*
X164473856Y-104239221D01*
X164475000Y-104262500D01*
X164475000Y-104837500D01*
X164473856Y-104860779D01*
X164470437Y-104883834D01*
X164464773Y-104906443D01*
X164456921Y-104928387D01*
X164446956Y-104949457D01*
X164434974Y-104969448D01*
X164421090Y-104988168D01*
X164405438Y-105005438D01*
X164388168Y-105021090D01*
X164369448Y-105034974D01*
X164349457Y-105046956D01*
X164328387Y-105056921D01*
X164306443Y-105064773D01*
X164283834Y-105070437D01*
X164260779Y-105073856D01*
X164237500Y-105075000D01*
X163762500Y-105075000D01*
X163739221Y-105073856D01*
X163716166Y-105070437D01*
X163693557Y-105064773D01*
X163671613Y-105056921D01*
X163650543Y-105046956D01*
X163630552Y-105034974D01*
X163611832Y-105021090D01*
X163594562Y-105005438D01*
X163578910Y-104988168D01*
X163565026Y-104969448D01*
X163553044Y-104949457D01*
X163543079Y-104928387D01*
X163535227Y-104906443D01*
X163529563Y-104883834D01*
X163526144Y-104860779D01*
X163525000Y-104837500D01*
X163525000Y-104262500D01*
X163526144Y-104239221D01*
X163529563Y-104216166D01*
X163535227Y-104193557D01*
X163543079Y-104171613D01*
X163553044Y-104150543D01*
X163565026Y-104130552D01*
X163578910Y-104111832D01*
X163594562Y-104094562D01*
X163611832Y-104078910D01*
X163630552Y-104065026D01*
X163650543Y-104053044D01*
X163671613Y-104043079D01*
X163693557Y-104035227D01*
X163716166Y-104029563D01*
X163739221Y-104026144D01*
X163762500Y-104025000D01*
X164237500Y-104025000D01*
X164260779Y-104026144D01*
G37*
G36*
X96724504Y-126601204D02*
G01*
X96748773Y-126604804D01*
X96772571Y-126610765D01*
X96795671Y-126619030D01*
X96817849Y-126629520D01*
X96838893Y-126642133D01*
X96858598Y-126656747D01*
X96876777Y-126673223D01*
X96893253Y-126691402D01*
X96907867Y-126711107D01*
X96920480Y-126732151D01*
X96930970Y-126754329D01*
X96939235Y-126777429D01*
X96945196Y-126801227D01*
X96948796Y-126825496D01*
X96950000Y-126850000D01*
X96950000Y-128950000D01*
X96948796Y-128974504D01*
X96945196Y-128998773D01*
X96939235Y-129022571D01*
X96930970Y-129045671D01*
X96920480Y-129067849D01*
X96907867Y-129088893D01*
X96893253Y-129108598D01*
X96876777Y-129126777D01*
X96858598Y-129143253D01*
X96838893Y-129157867D01*
X96817849Y-129170480D01*
X96795671Y-129180970D01*
X96772571Y-129189235D01*
X96748773Y-129195196D01*
X96724504Y-129198796D01*
X96700000Y-129200000D01*
X95600000Y-129200000D01*
X95575496Y-129198796D01*
X95551227Y-129195196D01*
X95527429Y-129189235D01*
X95504329Y-129180970D01*
X95482151Y-129170480D01*
X95461107Y-129157867D01*
X95441402Y-129143253D01*
X95423223Y-129126777D01*
X95406747Y-129108598D01*
X95392133Y-129088893D01*
X95379520Y-129067849D01*
X95369030Y-129045671D01*
X95360765Y-129022571D01*
X95354804Y-128998773D01*
X95351204Y-128974504D01*
X95350000Y-128950000D01*
X95350000Y-126850000D01*
X95351204Y-126825496D01*
X95354804Y-126801227D01*
X95360765Y-126777429D01*
X95369030Y-126754329D01*
X95379520Y-126732151D01*
X95392133Y-126711107D01*
X95406747Y-126691402D01*
X95423223Y-126673223D01*
X95441402Y-126656747D01*
X95461107Y-126642133D01*
X95482151Y-126629520D01*
X95504329Y-126619030D01*
X95527429Y-126610765D01*
X95551227Y-126604804D01*
X95575496Y-126601204D01*
X95600000Y-126600000D01*
X96700000Y-126600000D01*
X96724504Y-126601204D01*
G37*
G36*
X96724504Y-123001204D02*
G01*
X96748773Y-123004804D01*
X96772571Y-123010765D01*
X96795671Y-123019030D01*
X96817849Y-123029520D01*
X96838893Y-123042133D01*
X96858598Y-123056747D01*
X96876777Y-123073223D01*
X96893253Y-123091402D01*
X96907867Y-123111107D01*
X96920480Y-123132151D01*
X96930970Y-123154329D01*
X96939235Y-123177429D01*
X96945196Y-123201227D01*
X96948796Y-123225496D01*
X96950000Y-123250000D01*
X96950000Y-125350000D01*
X96948796Y-125374504D01*
X96945196Y-125398773D01*
X96939235Y-125422571D01*
X96930970Y-125445671D01*
X96920480Y-125467849D01*
X96907867Y-125488893D01*
X96893253Y-125508598D01*
X96876777Y-125526777D01*
X96858598Y-125543253D01*
X96838893Y-125557867D01*
X96817849Y-125570480D01*
X96795671Y-125580970D01*
X96772571Y-125589235D01*
X96748773Y-125595196D01*
X96724504Y-125598796D01*
X96700000Y-125600000D01*
X95600000Y-125600000D01*
X95575496Y-125598796D01*
X95551227Y-125595196D01*
X95527429Y-125589235D01*
X95504329Y-125580970D01*
X95482151Y-125570480D01*
X95461107Y-125557867D01*
X95441402Y-125543253D01*
X95423223Y-125526777D01*
X95406747Y-125508598D01*
X95392133Y-125488893D01*
X95379520Y-125467849D01*
X95369030Y-125445671D01*
X95360765Y-125422571D01*
X95354804Y-125398773D01*
X95351204Y-125374504D01*
X95350000Y-125350000D01*
X95350000Y-123250000D01*
X95351204Y-123225496D01*
X95354804Y-123201227D01*
X95360765Y-123177429D01*
X95369030Y-123154329D01*
X95379520Y-123132151D01*
X95392133Y-123111107D01*
X95406747Y-123091402D01*
X95423223Y-123073223D01*
X95441402Y-123056747D01*
X95461107Y-123042133D01*
X95482151Y-123029520D01*
X95504329Y-123019030D01*
X95527429Y-123010765D01*
X95551227Y-123004804D01*
X95575496Y-123001204D01*
X95600000Y-123000000D01*
X96700000Y-123000000D01*
X96724504Y-123001204D01*
G37*
G36*
X117810779Y-99126144D02*
G01*
X117833834Y-99129563D01*
X117856443Y-99135227D01*
X117878387Y-99143079D01*
X117899457Y-99153044D01*
X117919448Y-99165026D01*
X117938168Y-99178910D01*
X117955438Y-99194562D01*
X117971090Y-99211832D01*
X117984974Y-99230552D01*
X117996956Y-99250543D01*
X118006921Y-99271613D01*
X118014773Y-99293557D01*
X118020437Y-99316166D01*
X118023856Y-99339221D01*
X118025000Y-99362500D01*
X118025000Y-99837500D01*
X118023856Y-99860779D01*
X118020437Y-99883834D01*
X118014773Y-99906443D01*
X118006921Y-99928387D01*
X117996956Y-99949457D01*
X117984974Y-99969448D01*
X117971090Y-99988168D01*
X117955438Y-100005438D01*
X117938168Y-100021090D01*
X117919448Y-100034974D01*
X117899457Y-100046956D01*
X117878387Y-100056921D01*
X117856443Y-100064773D01*
X117833834Y-100070437D01*
X117810779Y-100073856D01*
X117787500Y-100075000D01*
X117212500Y-100075000D01*
X117189221Y-100073856D01*
X117166166Y-100070437D01*
X117143557Y-100064773D01*
X117121613Y-100056921D01*
X117100543Y-100046956D01*
X117080552Y-100034974D01*
X117061832Y-100021090D01*
X117044562Y-100005438D01*
X117028910Y-99988168D01*
X117015026Y-99969448D01*
X117003044Y-99949457D01*
X116993079Y-99928387D01*
X116985227Y-99906443D01*
X116979563Y-99883834D01*
X116976144Y-99860779D01*
X116975000Y-99837500D01*
X116975000Y-99362500D01*
X116976144Y-99339221D01*
X116979563Y-99316166D01*
X116985227Y-99293557D01*
X116993079Y-99271613D01*
X117003044Y-99250543D01*
X117015026Y-99230552D01*
X117028910Y-99211832D01*
X117044562Y-99194562D01*
X117061832Y-99178910D01*
X117080552Y-99165026D01*
X117100543Y-99153044D01*
X117121613Y-99143079D01*
X117143557Y-99135227D01*
X117166166Y-99129563D01*
X117189221Y-99126144D01*
X117212500Y-99125000D01*
X117787500Y-99125000D01*
X117810779Y-99126144D01*
G37*
G36*
X116060779Y-99126144D02*
G01*
X116083834Y-99129563D01*
X116106443Y-99135227D01*
X116128387Y-99143079D01*
X116149457Y-99153044D01*
X116169448Y-99165026D01*
X116188168Y-99178910D01*
X116205438Y-99194562D01*
X116221090Y-99211832D01*
X116234974Y-99230552D01*
X116246956Y-99250543D01*
X116256921Y-99271613D01*
X116264773Y-99293557D01*
X116270437Y-99316166D01*
X116273856Y-99339221D01*
X116275000Y-99362500D01*
X116275000Y-99837500D01*
X116273856Y-99860779D01*
X116270437Y-99883834D01*
X116264773Y-99906443D01*
X116256921Y-99928387D01*
X116246956Y-99949457D01*
X116234974Y-99969448D01*
X116221090Y-99988168D01*
X116205438Y-100005438D01*
X116188168Y-100021090D01*
X116169448Y-100034974D01*
X116149457Y-100046956D01*
X116128387Y-100056921D01*
X116106443Y-100064773D01*
X116083834Y-100070437D01*
X116060779Y-100073856D01*
X116037500Y-100075000D01*
X115462500Y-100075000D01*
X115439221Y-100073856D01*
X115416166Y-100070437D01*
X115393557Y-100064773D01*
X115371613Y-100056921D01*
X115350543Y-100046956D01*
X115330552Y-100034974D01*
X115311832Y-100021090D01*
X115294562Y-100005438D01*
X115278910Y-99988168D01*
X115265026Y-99969448D01*
X115253044Y-99949457D01*
X115243079Y-99928387D01*
X115235227Y-99906443D01*
X115229563Y-99883834D01*
X115226144Y-99860779D01*
X115225000Y-99837500D01*
X115225000Y-99362500D01*
X115226144Y-99339221D01*
X115229563Y-99316166D01*
X115235227Y-99293557D01*
X115243079Y-99271613D01*
X115253044Y-99250543D01*
X115265026Y-99230552D01*
X115278910Y-99211832D01*
X115294562Y-99194562D01*
X115311832Y-99178910D01*
X115330552Y-99165026D01*
X115350543Y-99153044D01*
X115371613Y-99143079D01*
X115393557Y-99135227D01*
X115416166Y-99129563D01*
X115439221Y-99126144D01*
X115462500Y-99125000D01*
X116037500Y-99125000D01*
X116060779Y-99126144D01*
G37*
G36*
X109410779Y-91326144D02*
G01*
X109433834Y-91329563D01*
X109456443Y-91335227D01*
X109478387Y-91343079D01*
X109499457Y-91353044D01*
X109519448Y-91365026D01*
X109538168Y-91378910D01*
X109555438Y-91394562D01*
X109571090Y-91411832D01*
X109584974Y-91430552D01*
X109596956Y-91450543D01*
X109606921Y-91471613D01*
X109614773Y-91493557D01*
X109620437Y-91516166D01*
X109623856Y-91539221D01*
X109625000Y-91562500D01*
X109625000Y-92037500D01*
X109623856Y-92060779D01*
X109620437Y-92083834D01*
X109614773Y-92106443D01*
X109606921Y-92128387D01*
X109596956Y-92149457D01*
X109584974Y-92169448D01*
X109571090Y-92188168D01*
X109555438Y-92205438D01*
X109538168Y-92221090D01*
X109519448Y-92234974D01*
X109499457Y-92246956D01*
X109478387Y-92256921D01*
X109456443Y-92264773D01*
X109433834Y-92270437D01*
X109410779Y-92273856D01*
X109387500Y-92275000D01*
X108812500Y-92275000D01*
X108789221Y-92273856D01*
X108766166Y-92270437D01*
X108743557Y-92264773D01*
X108721613Y-92256921D01*
X108700543Y-92246956D01*
X108680552Y-92234974D01*
X108661832Y-92221090D01*
X108644562Y-92205438D01*
X108628910Y-92188168D01*
X108615026Y-92169448D01*
X108603044Y-92149457D01*
X108593079Y-92128387D01*
X108585227Y-92106443D01*
X108579563Y-92083834D01*
X108576144Y-92060779D01*
X108575000Y-92037500D01*
X108575000Y-91562500D01*
X108576144Y-91539221D01*
X108579563Y-91516166D01*
X108585227Y-91493557D01*
X108593079Y-91471613D01*
X108603044Y-91450543D01*
X108615026Y-91430552D01*
X108628910Y-91411832D01*
X108644562Y-91394562D01*
X108661832Y-91378910D01*
X108680552Y-91365026D01*
X108700543Y-91353044D01*
X108721613Y-91343079D01*
X108743557Y-91335227D01*
X108766166Y-91329563D01*
X108789221Y-91326144D01*
X108812500Y-91325000D01*
X109387500Y-91325000D01*
X109410779Y-91326144D01*
G37*
G36*
X111160779Y-91326144D02*
G01*
X111183834Y-91329563D01*
X111206443Y-91335227D01*
X111228387Y-91343079D01*
X111249457Y-91353044D01*
X111269448Y-91365026D01*
X111288168Y-91378910D01*
X111305438Y-91394562D01*
X111321090Y-91411832D01*
X111334974Y-91430552D01*
X111346956Y-91450543D01*
X111356921Y-91471613D01*
X111364773Y-91493557D01*
X111370437Y-91516166D01*
X111373856Y-91539221D01*
X111375000Y-91562500D01*
X111375000Y-92037500D01*
X111373856Y-92060779D01*
X111370437Y-92083834D01*
X111364773Y-92106443D01*
X111356921Y-92128387D01*
X111346956Y-92149457D01*
X111334974Y-92169448D01*
X111321090Y-92188168D01*
X111305438Y-92205438D01*
X111288168Y-92221090D01*
X111269448Y-92234974D01*
X111249457Y-92246956D01*
X111228387Y-92256921D01*
X111206443Y-92264773D01*
X111183834Y-92270437D01*
X111160779Y-92273856D01*
X111137500Y-92275000D01*
X110562500Y-92275000D01*
X110539221Y-92273856D01*
X110516166Y-92270437D01*
X110493557Y-92264773D01*
X110471613Y-92256921D01*
X110450543Y-92246956D01*
X110430552Y-92234974D01*
X110411832Y-92221090D01*
X110394562Y-92205438D01*
X110378910Y-92188168D01*
X110365026Y-92169448D01*
X110353044Y-92149457D01*
X110343079Y-92128387D01*
X110335227Y-92106443D01*
X110329563Y-92083834D01*
X110326144Y-92060779D01*
X110325000Y-92037500D01*
X110325000Y-91562500D01*
X110326144Y-91539221D01*
X110329563Y-91516166D01*
X110335227Y-91493557D01*
X110343079Y-91471613D01*
X110353044Y-91450543D01*
X110365026Y-91430552D01*
X110378910Y-91411832D01*
X110394562Y-91394562D01*
X110411832Y-91378910D01*
X110430552Y-91365026D01*
X110450543Y-91353044D01*
X110471613Y-91343079D01*
X110493557Y-91335227D01*
X110516166Y-91329563D01*
X110539221Y-91326144D01*
X110562500Y-91325000D01*
X111137500Y-91325000D01*
X111160779Y-91326144D01*
G37*
G36*
X122010779Y-108326144D02*
G01*
X122033834Y-108329563D01*
X122056443Y-108335227D01*
X122078387Y-108343079D01*
X122099457Y-108353044D01*
X122119448Y-108365026D01*
X122138168Y-108378910D01*
X122155438Y-108394562D01*
X122171090Y-108411832D01*
X122184974Y-108430552D01*
X122196956Y-108450543D01*
X122206921Y-108471613D01*
X122214773Y-108493557D01*
X122220437Y-108516166D01*
X122223856Y-108539221D01*
X122225000Y-108562500D01*
X122225000Y-109037500D01*
X122223856Y-109060779D01*
X122220437Y-109083834D01*
X122214773Y-109106443D01*
X122206921Y-109128387D01*
X122196956Y-109149457D01*
X122184974Y-109169448D01*
X122171090Y-109188168D01*
X122155438Y-109205438D01*
X122138168Y-109221090D01*
X122119448Y-109234974D01*
X122099457Y-109246956D01*
X122078387Y-109256921D01*
X122056443Y-109264773D01*
X122033834Y-109270437D01*
X122010779Y-109273856D01*
X121987500Y-109275000D01*
X121412500Y-109275000D01*
X121389221Y-109273856D01*
X121366166Y-109270437D01*
X121343557Y-109264773D01*
X121321613Y-109256921D01*
X121300543Y-109246956D01*
X121280552Y-109234974D01*
X121261832Y-109221090D01*
X121244562Y-109205438D01*
X121228910Y-109188168D01*
X121215026Y-109169448D01*
X121203044Y-109149457D01*
X121193079Y-109128387D01*
X121185227Y-109106443D01*
X121179563Y-109083834D01*
X121176144Y-109060779D01*
X121175000Y-109037500D01*
X121175000Y-108562500D01*
X121176144Y-108539221D01*
X121179563Y-108516166D01*
X121185227Y-108493557D01*
X121193079Y-108471613D01*
X121203044Y-108450543D01*
X121215026Y-108430552D01*
X121228910Y-108411832D01*
X121244562Y-108394562D01*
X121261832Y-108378910D01*
X121280552Y-108365026D01*
X121300543Y-108353044D01*
X121321613Y-108343079D01*
X121343557Y-108335227D01*
X121366166Y-108329563D01*
X121389221Y-108326144D01*
X121412500Y-108325000D01*
X121987500Y-108325000D01*
X122010779Y-108326144D01*
G37*
G36*
X120260779Y-108326144D02*
G01*
X120283834Y-108329563D01*
X120306443Y-108335227D01*
X120328387Y-108343079D01*
X120349457Y-108353044D01*
X120369448Y-108365026D01*
X120388168Y-108378910D01*
X120405438Y-108394562D01*
X120421090Y-108411832D01*
X120434974Y-108430552D01*
X120446956Y-108450543D01*
X120456921Y-108471613D01*
X120464773Y-108493557D01*
X120470437Y-108516166D01*
X120473856Y-108539221D01*
X120475000Y-108562500D01*
X120475000Y-109037500D01*
X120473856Y-109060779D01*
X120470437Y-109083834D01*
X120464773Y-109106443D01*
X120456921Y-109128387D01*
X120446956Y-109149457D01*
X120434974Y-109169448D01*
X120421090Y-109188168D01*
X120405438Y-109205438D01*
X120388168Y-109221090D01*
X120369448Y-109234974D01*
X120349457Y-109246956D01*
X120328387Y-109256921D01*
X120306443Y-109264773D01*
X120283834Y-109270437D01*
X120260779Y-109273856D01*
X120237500Y-109275000D01*
X119662500Y-109275000D01*
X119639221Y-109273856D01*
X119616166Y-109270437D01*
X119593557Y-109264773D01*
X119571613Y-109256921D01*
X119550543Y-109246956D01*
X119530552Y-109234974D01*
X119511832Y-109221090D01*
X119494562Y-109205438D01*
X119478910Y-109188168D01*
X119465026Y-109169448D01*
X119453044Y-109149457D01*
X119443079Y-109128387D01*
X119435227Y-109106443D01*
X119429563Y-109083834D01*
X119426144Y-109060779D01*
X119425000Y-109037500D01*
X119425000Y-108562500D01*
X119426144Y-108539221D01*
X119429563Y-108516166D01*
X119435227Y-108493557D01*
X119443079Y-108471613D01*
X119453044Y-108450543D01*
X119465026Y-108430552D01*
X119478910Y-108411832D01*
X119494562Y-108394562D01*
X119511832Y-108378910D01*
X119530552Y-108365026D01*
X119550543Y-108353044D01*
X119571613Y-108343079D01*
X119593557Y-108335227D01*
X119616166Y-108329563D01*
X119639221Y-108326144D01*
X119662500Y-108325000D01*
X120237500Y-108325000D01*
X120260779Y-108326144D01*
G37*
G36*
X133960779Y-106551144D02*
G01*
X133983834Y-106554563D01*
X134006443Y-106560227D01*
X134028387Y-106568079D01*
X134049457Y-106578044D01*
X134069448Y-106590026D01*
X134088168Y-106603910D01*
X134105438Y-106619562D01*
X134121090Y-106636832D01*
X134134974Y-106655552D01*
X134146956Y-106675543D01*
X134156921Y-106696613D01*
X134164773Y-106718557D01*
X134170437Y-106741166D01*
X134173856Y-106764221D01*
X134175000Y-106787500D01*
X134175000Y-107362500D01*
X134173856Y-107385779D01*
X134170437Y-107408834D01*
X134164773Y-107431443D01*
X134156921Y-107453387D01*
X134146956Y-107474457D01*
X134134974Y-107494448D01*
X134121090Y-107513168D01*
X134105438Y-107530438D01*
X134088168Y-107546090D01*
X134069448Y-107559974D01*
X134049457Y-107571956D01*
X134028387Y-107581921D01*
X134006443Y-107589773D01*
X133983834Y-107595437D01*
X133960779Y-107598856D01*
X133937500Y-107600000D01*
X133462500Y-107600000D01*
X133439221Y-107598856D01*
X133416166Y-107595437D01*
X133393557Y-107589773D01*
X133371613Y-107581921D01*
X133350543Y-107571956D01*
X133330552Y-107559974D01*
X133311832Y-107546090D01*
X133294562Y-107530438D01*
X133278910Y-107513168D01*
X133265026Y-107494448D01*
X133253044Y-107474457D01*
X133243079Y-107453387D01*
X133235227Y-107431443D01*
X133229563Y-107408834D01*
X133226144Y-107385779D01*
X133225000Y-107362500D01*
X133225000Y-106787500D01*
X133226144Y-106764221D01*
X133229563Y-106741166D01*
X133235227Y-106718557D01*
X133243079Y-106696613D01*
X133253044Y-106675543D01*
X133265026Y-106655552D01*
X133278910Y-106636832D01*
X133294562Y-106619562D01*
X133311832Y-106603910D01*
X133330552Y-106590026D01*
X133350543Y-106578044D01*
X133371613Y-106568079D01*
X133393557Y-106560227D01*
X133416166Y-106554563D01*
X133439221Y-106551144D01*
X133462500Y-106550000D01*
X133937500Y-106550000D01*
X133960779Y-106551144D01*
G37*
G36*
X133960779Y-104801144D02*
G01*
X133983834Y-104804563D01*
X134006443Y-104810227D01*
X134028387Y-104818079D01*
X134049457Y-104828044D01*
X134069448Y-104840026D01*
X134088168Y-104853910D01*
X134105438Y-104869562D01*
X134121090Y-104886832D01*
X134134974Y-104905552D01*
X134146956Y-104925543D01*
X134156921Y-104946613D01*
X134164773Y-104968557D01*
X134170437Y-104991166D01*
X134173856Y-105014221D01*
X134175000Y-105037500D01*
X134175000Y-105612500D01*
X134173856Y-105635779D01*
X134170437Y-105658834D01*
X134164773Y-105681443D01*
X134156921Y-105703387D01*
X134146956Y-105724457D01*
X134134974Y-105744448D01*
X134121090Y-105763168D01*
X134105438Y-105780438D01*
X134088168Y-105796090D01*
X134069448Y-105809974D01*
X134049457Y-105821956D01*
X134028387Y-105831921D01*
X134006443Y-105839773D01*
X133983834Y-105845437D01*
X133960779Y-105848856D01*
X133937500Y-105850000D01*
X133462500Y-105850000D01*
X133439221Y-105848856D01*
X133416166Y-105845437D01*
X133393557Y-105839773D01*
X133371613Y-105831921D01*
X133350543Y-105821956D01*
X133330552Y-105809974D01*
X133311832Y-105796090D01*
X133294562Y-105780438D01*
X133278910Y-105763168D01*
X133265026Y-105744448D01*
X133253044Y-105724457D01*
X133243079Y-105703387D01*
X133235227Y-105681443D01*
X133229563Y-105658834D01*
X133226144Y-105635779D01*
X133225000Y-105612500D01*
X133225000Y-105037500D01*
X133226144Y-105014221D01*
X133229563Y-104991166D01*
X133235227Y-104968557D01*
X133243079Y-104946613D01*
X133253044Y-104925543D01*
X133265026Y-104905552D01*
X133278910Y-104886832D01*
X133294562Y-104869562D01*
X133311832Y-104853910D01*
X133330552Y-104840026D01*
X133350543Y-104828044D01*
X133371613Y-104818079D01*
X133393557Y-104810227D01*
X133416166Y-104804563D01*
X133439221Y-104801144D01*
X133462500Y-104800000D01*
X133937500Y-104800000D01*
X133960779Y-104801144D01*
G37*
G36*
X135610779Y-104826144D02*
G01*
X135633834Y-104829563D01*
X135656443Y-104835227D01*
X135678387Y-104843079D01*
X135699457Y-104853044D01*
X135719448Y-104865026D01*
X135738168Y-104878910D01*
X135755438Y-104894562D01*
X135771090Y-104911832D01*
X135784974Y-104930552D01*
X135796956Y-104950543D01*
X135806921Y-104971613D01*
X135814773Y-104993557D01*
X135820437Y-105016166D01*
X135823856Y-105039221D01*
X135825000Y-105062500D01*
X135825000Y-105537500D01*
X135823856Y-105560779D01*
X135820437Y-105583834D01*
X135814773Y-105606443D01*
X135806921Y-105628387D01*
X135796956Y-105649457D01*
X135784974Y-105669448D01*
X135771090Y-105688168D01*
X135755438Y-105705438D01*
X135738168Y-105721090D01*
X135719448Y-105734974D01*
X135699457Y-105746956D01*
X135678387Y-105756921D01*
X135656443Y-105764773D01*
X135633834Y-105770437D01*
X135610779Y-105773856D01*
X135587500Y-105775000D01*
X135012500Y-105775000D01*
X134989221Y-105773856D01*
X134966166Y-105770437D01*
X134943557Y-105764773D01*
X134921613Y-105756921D01*
X134900543Y-105746956D01*
X134880552Y-105734974D01*
X134861832Y-105721090D01*
X134844562Y-105705438D01*
X134828910Y-105688168D01*
X134815026Y-105669448D01*
X134803044Y-105649457D01*
X134793079Y-105628387D01*
X134785227Y-105606443D01*
X134779563Y-105583834D01*
X134776144Y-105560779D01*
X134775000Y-105537500D01*
X134775000Y-105062500D01*
X134776144Y-105039221D01*
X134779563Y-105016166D01*
X134785227Y-104993557D01*
X134793079Y-104971613D01*
X134803044Y-104950543D01*
X134815026Y-104930552D01*
X134828910Y-104911832D01*
X134844562Y-104894562D01*
X134861832Y-104878910D01*
X134880552Y-104865026D01*
X134900543Y-104853044D01*
X134921613Y-104843079D01*
X134943557Y-104835227D01*
X134966166Y-104829563D01*
X134989221Y-104826144D01*
X135012500Y-104825000D01*
X135587500Y-104825000D01*
X135610779Y-104826144D01*
G37*
G36*
X137360779Y-104826144D02*
G01*
X137383834Y-104829563D01*
X137406443Y-104835227D01*
X137428387Y-104843079D01*
X137449457Y-104853044D01*
X137469448Y-104865026D01*
X137488168Y-104878910D01*
X137505438Y-104894562D01*
X137521090Y-104911832D01*
X137534974Y-104930552D01*
X137546956Y-104950543D01*
X137556921Y-104971613D01*
X137564773Y-104993557D01*
X137570437Y-105016166D01*
X137573856Y-105039221D01*
X137575000Y-105062500D01*
X137575000Y-105537500D01*
X137573856Y-105560779D01*
X137570437Y-105583834D01*
X137564773Y-105606443D01*
X137556921Y-105628387D01*
X137546956Y-105649457D01*
X137534974Y-105669448D01*
X137521090Y-105688168D01*
X137505438Y-105705438D01*
X137488168Y-105721090D01*
X137469448Y-105734974D01*
X137449457Y-105746956D01*
X137428387Y-105756921D01*
X137406443Y-105764773D01*
X137383834Y-105770437D01*
X137360779Y-105773856D01*
X137337500Y-105775000D01*
X136762500Y-105775000D01*
X136739221Y-105773856D01*
X136716166Y-105770437D01*
X136693557Y-105764773D01*
X136671613Y-105756921D01*
X136650543Y-105746956D01*
X136630552Y-105734974D01*
X136611832Y-105721090D01*
X136594562Y-105705438D01*
X136578910Y-105688168D01*
X136565026Y-105669448D01*
X136553044Y-105649457D01*
X136543079Y-105628387D01*
X136535227Y-105606443D01*
X136529563Y-105583834D01*
X136526144Y-105560779D01*
X136525000Y-105537500D01*
X136525000Y-105062500D01*
X136526144Y-105039221D01*
X136529563Y-105016166D01*
X136535227Y-104993557D01*
X136543079Y-104971613D01*
X136553044Y-104950543D01*
X136565026Y-104930552D01*
X136578910Y-104911832D01*
X136594562Y-104894562D01*
X136611832Y-104878910D01*
X136630552Y-104865026D01*
X136650543Y-104853044D01*
X136671613Y-104843079D01*
X136693557Y-104835227D01*
X136716166Y-104829563D01*
X136739221Y-104826144D01*
X136762500Y-104825000D01*
X137337500Y-104825000D01*
X137360779Y-104826144D01*
G37*
G36*
X109960779Y-119426144D02*
G01*
X109983834Y-119429563D01*
X110006443Y-119435227D01*
X110028387Y-119443079D01*
X110049457Y-119453044D01*
X110069448Y-119465026D01*
X110088168Y-119478910D01*
X110105438Y-119494562D01*
X110121090Y-119511832D01*
X110134974Y-119530552D01*
X110146956Y-119550543D01*
X110156921Y-119571613D01*
X110164773Y-119593557D01*
X110170437Y-119616166D01*
X110173856Y-119639221D01*
X110175000Y-119662500D01*
X110175000Y-120237500D01*
X110173856Y-120260779D01*
X110170437Y-120283834D01*
X110164773Y-120306443D01*
X110156921Y-120328387D01*
X110146956Y-120349457D01*
X110134974Y-120369448D01*
X110121090Y-120388168D01*
X110105438Y-120405438D01*
X110088168Y-120421090D01*
X110069448Y-120434974D01*
X110049457Y-120446956D01*
X110028387Y-120456921D01*
X110006443Y-120464773D01*
X109983834Y-120470437D01*
X109960779Y-120473856D01*
X109937500Y-120475000D01*
X109462500Y-120475000D01*
X109439221Y-120473856D01*
X109416166Y-120470437D01*
X109393557Y-120464773D01*
X109371613Y-120456921D01*
X109350543Y-120446956D01*
X109330552Y-120434974D01*
X109311832Y-120421090D01*
X109294562Y-120405438D01*
X109278910Y-120388168D01*
X109265026Y-120369448D01*
X109253044Y-120349457D01*
X109243079Y-120328387D01*
X109235227Y-120306443D01*
X109229563Y-120283834D01*
X109226144Y-120260779D01*
X109225000Y-120237500D01*
X109225000Y-119662500D01*
X109226144Y-119639221D01*
X109229563Y-119616166D01*
X109235227Y-119593557D01*
X109243079Y-119571613D01*
X109253044Y-119550543D01*
X109265026Y-119530552D01*
X109278910Y-119511832D01*
X109294562Y-119494562D01*
X109311832Y-119478910D01*
X109330552Y-119465026D01*
X109350543Y-119453044D01*
X109371613Y-119443079D01*
X109393557Y-119435227D01*
X109416166Y-119429563D01*
X109439221Y-119426144D01*
X109462500Y-119425000D01*
X109937500Y-119425000D01*
X109960779Y-119426144D01*
G37*
G36*
X109960779Y-121176144D02*
G01*
X109983834Y-121179563D01*
X110006443Y-121185227D01*
X110028387Y-121193079D01*
X110049457Y-121203044D01*
X110069448Y-121215026D01*
X110088168Y-121228910D01*
X110105438Y-121244562D01*
X110121090Y-121261832D01*
X110134974Y-121280552D01*
X110146956Y-121300543D01*
X110156921Y-121321613D01*
X110164773Y-121343557D01*
X110170437Y-121366166D01*
X110173856Y-121389221D01*
X110175000Y-121412500D01*
X110175000Y-121987500D01*
X110173856Y-122010779D01*
X110170437Y-122033834D01*
X110164773Y-122056443D01*
X110156921Y-122078387D01*
X110146956Y-122099457D01*
X110134974Y-122119448D01*
X110121090Y-122138168D01*
X110105438Y-122155438D01*
X110088168Y-122171090D01*
X110069448Y-122184974D01*
X110049457Y-122196956D01*
X110028387Y-122206921D01*
X110006443Y-122214773D01*
X109983834Y-122220437D01*
X109960779Y-122223856D01*
X109937500Y-122225000D01*
X109462500Y-122225000D01*
X109439221Y-122223856D01*
X109416166Y-122220437D01*
X109393557Y-122214773D01*
X109371613Y-122206921D01*
X109350543Y-122196956D01*
X109330552Y-122184974D01*
X109311832Y-122171090D01*
X109294562Y-122155438D01*
X109278910Y-122138168D01*
X109265026Y-122119448D01*
X109253044Y-122099457D01*
X109243079Y-122078387D01*
X109235227Y-122056443D01*
X109229563Y-122033834D01*
X109226144Y-122010779D01*
X109225000Y-121987500D01*
X109225000Y-121412500D01*
X109226144Y-121389221D01*
X109229563Y-121366166D01*
X109235227Y-121343557D01*
X109243079Y-121321613D01*
X109253044Y-121300543D01*
X109265026Y-121280552D01*
X109278910Y-121261832D01*
X109294562Y-121244562D01*
X109311832Y-121228910D01*
X109330552Y-121215026D01*
X109350543Y-121203044D01*
X109371613Y-121193079D01*
X109393557Y-121185227D01*
X109416166Y-121179563D01*
X109439221Y-121176144D01*
X109462500Y-121175000D01*
X109937500Y-121175000D01*
X109960779Y-121176144D01*
G37*
D18*
X94780000Y-112020000D03*
D19*
X102400000Y-119640000D03*
X94780000Y-114560000D03*
X102400000Y-117100000D03*
X94780000Y-117100000D03*
X102400000Y-114560000D03*
X94780000Y-119640000D03*
X102400000Y-112020000D03*
D15*
X158150000Y-92050000D03*
X158150000Y-92700000D03*
X158150000Y-93350000D03*
X158150000Y-94000000D03*
X158150000Y-94650000D03*
X158150000Y-95300000D03*
X158150000Y-95950000D03*
X164050000Y-95950000D03*
X164050000Y-95300000D03*
X164050000Y-94650000D03*
X164050000Y-94000000D03*
X164050000Y-93350000D03*
X164050000Y-92700000D03*
X164050000Y-92050000D03*
X164050000Y-116975000D03*
X164050000Y-117625000D03*
X164050000Y-118275000D03*
X164050000Y-118925000D03*
X164050000Y-119575000D03*
X164050000Y-120225000D03*
X164050000Y-120875000D03*
X164050000Y-121525000D03*
X164050000Y-122175000D03*
X164050000Y-122825000D03*
X158150000Y-122825000D03*
X158150000Y-122175000D03*
X158150000Y-121525000D03*
X158150000Y-120875000D03*
X158150000Y-120225000D03*
X158150000Y-119575000D03*
X158150000Y-118925000D03*
X158150000Y-118275000D03*
X158150000Y-117625000D03*
X158150000Y-116975000D03*
D12*
X134550000Y-93525000D03*
X134550000Y-94175000D03*
X134550000Y-94825000D03*
X134550000Y-95475000D03*
X134550000Y-96125000D03*
X134550000Y-96775000D03*
X134550000Y-97425000D03*
X134550000Y-98075000D03*
X140450000Y-98075000D03*
X140450000Y-97425000D03*
X140450000Y-96775000D03*
X140450000Y-96125000D03*
X140450000Y-95475000D03*
X140450000Y-94825000D03*
X140450000Y-94175000D03*
X140450000Y-93525000D03*
D15*
X129350000Y-98025000D03*
X129350000Y-97375000D03*
X129350000Y-96725000D03*
X129350000Y-96075000D03*
X129350000Y-95425000D03*
X129350000Y-94775000D03*
X129350000Y-94125000D03*
X129350000Y-93475000D03*
X129350000Y-92825000D03*
X129350000Y-92175000D03*
X123450000Y-92175000D03*
X123450000Y-92825000D03*
X123450000Y-93475000D03*
X123450000Y-94125000D03*
X123450000Y-94775000D03*
X123450000Y-95425000D03*
X123450000Y-96075000D03*
X123450000Y-96725000D03*
X123450000Y-97375000D03*
X123450000Y-98025000D03*
D12*
X173250000Y-96025000D03*
X173250000Y-96675000D03*
X173250000Y-97325000D03*
X173250000Y-97975000D03*
X173250000Y-98625000D03*
X173250000Y-99275000D03*
X173250000Y-99925000D03*
X173250000Y-100575000D03*
X167350000Y-100575000D03*
X167350000Y-99925000D03*
X167350000Y-99275000D03*
X167350000Y-98625000D03*
X167350000Y-97975000D03*
X167350000Y-97325000D03*
X167350000Y-96675000D03*
X167350000Y-96025000D03*
D20*
X133350000Y-116650000D03*
X133350000Y-115350000D03*
X133350000Y-116000000D03*
X131450000Y-115350000D03*
X131450000Y-116650000D03*
D21*
X116875000Y-97650000D03*
X116225000Y-97650000D03*
X115575000Y-97650000D03*
X114925000Y-97650000D03*
X114275000Y-97650000D03*
X113625000Y-97650000D03*
X112975000Y-97650000D03*
X112325000Y-97650000D03*
X112325000Y-91750000D03*
X112975000Y-91750000D03*
X113625000Y-91750000D03*
X114275000Y-91750000D03*
X114925000Y-91750000D03*
X115575000Y-91750000D03*
X116225000Y-91750000D03*
X116875000Y-91750000D03*
D14*
X123275000Y-114650000D03*
X123925000Y-114650000D03*
X124575000Y-114650000D03*
X125225000Y-114650000D03*
X125875000Y-114650000D03*
X126525000Y-114650000D03*
X127175000Y-114650000D03*
X127825000Y-114650000D03*
X128475000Y-114650000D03*
X129125000Y-114650000D03*
X129125000Y-108750000D03*
X128475000Y-108750000D03*
X127825000Y-108750000D03*
X127175000Y-108750000D03*
X126525000Y-108750000D03*
X125875000Y-108750000D03*
X125225000Y-108750000D03*
X124575000Y-108750000D03*
X123925000Y-108750000D03*
X123275000Y-108750000D03*
D12*
X129350000Y-105775000D03*
X129350000Y-105125000D03*
X129350000Y-104475000D03*
X129350000Y-103825000D03*
X129350000Y-103175000D03*
X129350000Y-102525000D03*
X129350000Y-101875000D03*
X129350000Y-101225000D03*
X123450000Y-101225000D03*
X123450000Y-101875000D03*
X123450000Y-102525000D03*
X123450000Y-103175000D03*
X123450000Y-103825000D03*
X123450000Y-104475000D03*
X123450000Y-105125000D03*
X123450000Y-105775000D03*
M02*
