G04 #@! TF.GenerationSoftware,KiCad,Pcbnew,5.1.5+dfsg1-2build2*
G04 #@! TF.CreationDate,2023-04-13T22:50:11-05:00*
G04 #@! TF.ProjectId,cart,63617274-2e6b-4696-9361-645f70636258,rev?*
G04 #@! TF.SameCoordinates,Original*
G04 #@! TF.FileFunction,Copper,L2,Bot*
G04 #@! TF.FilePolarity,Positive*
%FSLAX46Y46*%
G04 Gerber Fmt 4.6, Leading zero omitted, Abs format (unit mm)*
G04 Created by KiCad (PCBNEW 5.1.5+dfsg1-2build2) date 2023-04-13 22:50:11*
%MOMM*%
%LPD*%
G04 APERTURE LIST*
%ADD10C,0.100000*%
%ADD11R,3.750000X14.000000*%
%ADD12R,2.000000X14.000000*%
%ADD13R,1.600000X1.600000*%
%ADD14O,1.600000X1.600000*%
%ADD15C,0.600000*%
%ADD16C,3.700000*%
%ADD17C,0.500000*%
%ADD18C,0.800000*%
%ADD19C,0.400000*%
%ADD20C,2.000000*%
%ADD21C,3.000000*%
%ADD22C,0.250000*%
%ADD23C,0.254000*%
G04 APERTURE END LIST*
D10*
X91650000Y-85900000D02*
X191650000Y-85900000D01*
X91650000Y-107350000D02*
X91650000Y-85900000D01*
X96650000Y-107350000D02*
X91650000Y-107350000D01*
X96650000Y-109850000D02*
X96650000Y-107350000D01*
X93150000Y-109850000D02*
X96650000Y-109850000D01*
X93150000Y-115850000D02*
X93150000Y-109850000D01*
X91650000Y-115850000D02*
X93150000Y-115850000D01*
X91650000Y-132850000D02*
X91650000Y-115850000D01*
X191650000Y-113350000D02*
X191650000Y-132850000D01*
X190150000Y-113350000D02*
X191650000Y-113350000D01*
X190150000Y-107350000D02*
X190150000Y-113350000D01*
X186650000Y-107350000D02*
X190150000Y-107350000D01*
X186650000Y-104850000D02*
X186650000Y-107350000D01*
X191650000Y-104850000D02*
X186650000Y-104850000D01*
X191650000Y-85900000D02*
X191650000Y-104850000D01*
X94900000Y-132850000D02*
X91650000Y-132850000D01*
X94900000Y-147350000D02*
X94900000Y-132850000D01*
X188400000Y-147350000D02*
X94900000Y-147350000D01*
X188400000Y-132850000D02*
X188400000Y-147350000D01*
X191650000Y-132850000D02*
X188400000Y-132850000D01*
D11*
X186275000Y-140100000D03*
D12*
X182900000Y-140100000D03*
X180400000Y-140100000D03*
X177900000Y-140100000D03*
X175400000Y-140100000D03*
X172900000Y-140100000D03*
X170400000Y-140100000D03*
X167900000Y-140100000D03*
X165400000Y-140100000D03*
X162900000Y-140100000D03*
X160400000Y-140100000D03*
X157900000Y-140100000D03*
X155400000Y-140100000D03*
X152900000Y-140100000D03*
X150400000Y-140100000D03*
X147900000Y-140100000D03*
X145400000Y-140100000D03*
X142900000Y-140100000D03*
X140400000Y-140100000D03*
X137900000Y-140100000D03*
X135400000Y-140100000D03*
X132900000Y-140100000D03*
X130400000Y-140100000D03*
X127900000Y-140100000D03*
X125400000Y-140100000D03*
X122900000Y-140100000D03*
X120400000Y-140100000D03*
X117900000Y-140100000D03*
X115400000Y-140100000D03*
X112900000Y-140100000D03*
X110400000Y-140100000D03*
X107900000Y-140100000D03*
X105400000Y-140100000D03*
X102900000Y-140100000D03*
X100400000Y-140100000D03*
D11*
X97025000Y-140100000D03*
D13*
X94780000Y-112020000D03*
D14*
X102400000Y-119640000D03*
X94780000Y-114560000D03*
X102400000Y-117100000D03*
X94780000Y-117100000D03*
X102400000Y-114560000D03*
X94780000Y-119640000D03*
X102400000Y-112020000D03*
D15*
X144900000Y-99300000D03*
X144900000Y-96700000D03*
X144900000Y-94045662D03*
X143800000Y-129000000D03*
X146200000Y-129000000D03*
X141000000Y-129000000D03*
X143800004Y-116147590D03*
X137100000Y-106800000D03*
X130200000Y-99500000D03*
X130200000Y-111500000D03*
X163200000Y-102800000D03*
X157785695Y-102814306D03*
X188000000Y-109600000D03*
X188000000Y-129600000D03*
X188000000Y-119400000D03*
X188000000Y-124600000D03*
X188000000Y-114400000D03*
X129300000Y-91500000D03*
X137400000Y-113500000D03*
X115200000Y-124500000D03*
X134600000Y-98699996D03*
X158200000Y-96500000D03*
X167300000Y-101300000D03*
X136300012Y-121800000D03*
X127899994Y-119700000D03*
X118900000Y-108800000D03*
X120500000Y-104000000D03*
X118600000Y-99600000D03*
X108700000Y-121700000D03*
X167800000Y-90900000D03*
X173200000Y-91700000D03*
X137600000Y-92000000D03*
X120900000Y-99200000D03*
X112300000Y-92900006D03*
X132000000Y-98000000D03*
X134200006Y-108800000D03*
X136600000Y-104500010D03*
X141052410Y-111052356D03*
X133277410Y-114808291D03*
X131941709Y-102858291D03*
X163200000Y-104500000D03*
X115082771Y-112041217D03*
X114107360Y-115900000D03*
X169835356Y-113935356D03*
X140100000Y-115800000D03*
X139300000Y-96100000D03*
X155500002Y-91899992D03*
X129100000Y-117500000D03*
X151100000Y-103900004D03*
X168700000Y-122999994D03*
X180608291Y-132491709D03*
X154999998Y-109100000D03*
X182900233Y-132482232D03*
X161193436Y-114576854D03*
X168700000Y-122100000D03*
X163322057Y-110990900D03*
X168488865Y-112761254D03*
X153212946Y-113190426D03*
X177900000Y-132482232D03*
X159442769Y-115430291D03*
X169106237Y-125093759D03*
X152810535Y-112505250D03*
X128000000Y-122299996D03*
X130507889Y-97322590D03*
X175400000Y-132482232D03*
X156914117Y-115432627D03*
X167200000Y-125700000D03*
X152408124Y-111697599D03*
X161755735Y-110810254D03*
X168922590Y-120176251D03*
X152004755Y-110875495D03*
X151537956Y-110100000D03*
X160481317Y-109722328D03*
X169500000Y-120800000D03*
X150187033Y-109500000D03*
X160359633Y-108979821D03*
X157200000Y-110400000D03*
X168639017Y-113498531D03*
X149032222Y-109419036D03*
X165870217Y-126091547D03*
X160989335Y-121210665D03*
X172300000Y-132482232D03*
X155336478Y-114554960D03*
X147790374Y-109418466D03*
X149500000Y-104000000D03*
X148000000Y-101699992D03*
X170400000Y-132482232D03*
X159337944Y-121230413D03*
X154308306Y-115200126D03*
X164653766Y-126546234D03*
X155400000Y-132482232D03*
X147500000Y-120100000D03*
X147407614Y-108770686D03*
X168100000Y-132477410D03*
X157148742Y-120808270D03*
X153337044Y-115900000D03*
X163300000Y-126900000D03*
X157900000Y-132482232D03*
X147408801Y-107832446D03*
X149700002Y-120700000D03*
X165400000Y-132482232D03*
X156718987Y-122081013D03*
X152182232Y-115997590D03*
X161892782Y-127298788D03*
X160400000Y-132482232D03*
X147408801Y-107028698D03*
X152054801Y-121374562D03*
X162900000Y-132482232D03*
X147408803Y-106154914D03*
X154280168Y-121951972D03*
X102400000Y-132204827D03*
X100200000Y-115299996D03*
X103600000Y-132204827D03*
X134731789Y-115951628D03*
X135400000Y-132482232D03*
X132300000Y-92954811D03*
X121900000Y-125100000D03*
X129619414Y-106457985D03*
X118703168Y-114356085D03*
X137300000Y-111300000D03*
X116420179Y-103800000D03*
X116808291Y-102991709D03*
X130300000Y-132521190D03*
X115400000Y-132500000D03*
X110702410Y-118063150D03*
X112532221Y-103122590D03*
X127800000Y-132521190D03*
X111212812Y-117510326D03*
X117900000Y-132521190D03*
X111377410Y-103100000D03*
X125400000Y-132521190D03*
X111844268Y-117101197D03*
X120400000Y-132521190D03*
X112147731Y-116412696D03*
X122900000Y-132521190D03*
X132900000Y-132482232D03*
X136584486Y-118904821D03*
X138141709Y-118858291D03*
X111800000Y-124800018D03*
X108313634Y-132100689D03*
X112432016Y-124202066D03*
X107526059Y-132122590D03*
X113033671Y-123750253D03*
X106713029Y-132126143D03*
X113799996Y-124200000D03*
X105900000Y-132122590D03*
X156981544Y-94818347D03*
X165400000Y-94800000D03*
X165429279Y-110900000D03*
X147408801Y-103357223D03*
X161847948Y-118652052D03*
X156893700Y-114606494D03*
X162447626Y-121852374D03*
X156897034Y-113831046D03*
X135500000Y-116599996D03*
X125100000Y-104449947D03*
X118733134Y-119747590D03*
X123300000Y-113194287D03*
X133800000Y-121600000D03*
X137817230Y-120011161D03*
X118165792Y-118670840D03*
X121600000Y-91700000D03*
X129314424Y-112285560D03*
X128869256Y-106399790D03*
X117010981Y-118402771D03*
X183611313Y-131311103D03*
X167288404Y-112543731D03*
X111800000Y-118730193D03*
X116700000Y-132500010D03*
X115608889Y-127708293D03*
X114856525Y-127699801D03*
X114104218Y-127712352D03*
X113291715Y-127691703D03*
X172018410Y-99300000D03*
X123400000Y-91700000D03*
X132300000Y-91800000D03*
X142695188Y-92800000D03*
X165161372Y-122863300D03*
X162489657Y-120110343D03*
X136896877Y-120331985D03*
X137989595Y-121165972D03*
X160095891Y-111762360D03*
X168100000Y-118800006D03*
X159833681Y-113422043D03*
X167262998Y-118946418D03*
X160143466Y-111011454D03*
X168165502Y-117982085D03*
X159837499Y-110296261D03*
X167624971Y-117353622D03*
X140500000Y-98900000D03*
X141416582Y-100600000D03*
X166993752Y-110900000D03*
X154397590Y-108000000D03*
X152900000Y-132477410D03*
X146900000Y-118100000D03*
X146200000Y-114870179D03*
X168547938Y-94577374D03*
X138711324Y-117272590D03*
X146831391Y-115909988D03*
X156100012Y-94822590D03*
X183033903Y-130784088D03*
X122900874Y-119106508D03*
X164917920Y-112518905D03*
X130000000Y-131300000D03*
X136800000Y-115999994D03*
X124700000Y-105800000D03*
X122100000Y-97322590D03*
X128422590Y-115900000D03*
X139799998Y-122503304D03*
X147191707Y-92408289D03*
X171991237Y-100192180D03*
X138779803Y-107800000D03*
X138799998Y-126899998D03*
X147300000Y-93800000D03*
X172000000Y-101000000D03*
X119600000Y-100599998D03*
X125257231Y-98722590D03*
X125257231Y-97216372D03*
X117574999Y-113022590D03*
X125099996Y-96300000D03*
X124679821Y-101931543D03*
X125200000Y-94600000D03*
X128173393Y-104229357D03*
X127971642Y-102513651D03*
X125172614Y-93627386D03*
X171259634Y-96600000D03*
X169300000Y-94600000D03*
X126609942Y-113606640D03*
X121602053Y-93639309D03*
X125785164Y-113598445D03*
X121602410Y-95287054D03*
X122100366Y-96570179D03*
X123910807Y-113633648D03*
X127714445Y-107400000D03*
X127464456Y-104481412D03*
X126117768Y-106969178D03*
X125812008Y-101387992D03*
X128403665Y-113615032D03*
X121567916Y-92484498D03*
X111893055Y-102552064D03*
X110702410Y-102479007D03*
X131633797Y-131451941D03*
X183033903Y-129800000D03*
X123644336Y-118990804D03*
X166537464Y-112496700D03*
X131377410Y-114690180D03*
X170100000Y-121500000D03*
X166090290Y-113733564D03*
X130366984Y-119552660D03*
D16*
X144900000Y-99300000D02*
X144900000Y-96700000D01*
X144900000Y-94045662D02*
X144900000Y-96700000D01*
X143800000Y-119300002D02*
X143799998Y-119300000D01*
X143800000Y-129000000D02*
X143800000Y-119300002D01*
X143800000Y-129000000D02*
X146200000Y-129000000D01*
X143800000Y-129000000D02*
X141000000Y-129000000D01*
X144900000Y-99300000D02*
X143800004Y-100399996D01*
X143799998Y-116147596D02*
X143800004Y-116147590D01*
X143799998Y-119300000D02*
X143799998Y-116147596D01*
X143800000Y-115700000D02*
X143800004Y-116147590D01*
X143800004Y-100399996D02*
X143800000Y-115700000D01*
D17*
X143352414Y-115700000D02*
X143800000Y-115700000D01*
D18*
X139800000Y-107600000D02*
X139000000Y-106800000D01*
X139800000Y-112147586D02*
X139800000Y-107600000D01*
X139000000Y-106800000D02*
X137100000Y-106800000D01*
X143352414Y-115700000D02*
X139800000Y-112147586D01*
D17*
X163200000Y-102800000D02*
X157800001Y-102800000D01*
X157800001Y-102800000D02*
X157785695Y-102814306D01*
D19*
X130271816Y-111428184D02*
X130200000Y-111500000D01*
X130271816Y-99571816D02*
X130271816Y-111428184D01*
X130200000Y-99500000D02*
X130271816Y-99571816D01*
D20*
X94780000Y-130455000D02*
X96150000Y-131825000D01*
X96150000Y-131825000D02*
X96150000Y-133600000D01*
X94780000Y-128855000D02*
X94780000Y-130455000D01*
X94780000Y-121300000D02*
X94780000Y-128855000D01*
X94780000Y-119640000D02*
X94780000Y-121300000D01*
D21*
X97025000Y-140100000D02*
X97025000Y-130100000D01*
D22*
X188000000Y-119400000D02*
X188000000Y-124600000D01*
X188000000Y-124600000D02*
X188000000Y-129600000D01*
X188000000Y-109600000D02*
X188000000Y-114400000D01*
X188000000Y-114400000D02*
X188000000Y-119400000D01*
X175212061Y-129512055D02*
X177628637Y-129512055D01*
X168700000Y-122999994D02*
X175212061Y-129512055D01*
X180308292Y-132191710D02*
X180608291Y-132491709D01*
X177628637Y-129512055D02*
X180308292Y-132191710D01*
X168700000Y-122999994D02*
X160150476Y-114450470D01*
X156754556Y-109100000D02*
X155424262Y-109100000D01*
X158802411Y-111147855D02*
X156754556Y-109100000D01*
X155424262Y-109100000D02*
X154999998Y-109100000D01*
X160150476Y-114450470D02*
X159386460Y-114450470D01*
X158802411Y-113866421D02*
X158802411Y-111147855D01*
X159386460Y-114450470D02*
X158802411Y-113866421D01*
X168700000Y-122083418D02*
X168700000Y-122100000D01*
X161193436Y-114576854D02*
X168700000Y-122083418D01*
X168999999Y-122399999D02*
X168700000Y-122100000D01*
X175709644Y-129109644D02*
X168999999Y-122399999D01*
X179527645Y-129109644D02*
X175709644Y-129109644D01*
X182900233Y-132482232D02*
X179527645Y-129109644D01*
X163322057Y-110990900D02*
X164233568Y-111902411D01*
X164233568Y-111902411D02*
X167630022Y-111902411D01*
X167630022Y-111902411D02*
X168188866Y-112461255D01*
X168188866Y-112461255D02*
X168488865Y-112761254D01*
X153212946Y-113250212D02*
X153212946Y-113190426D01*
X154885707Y-114922973D02*
X153212946Y-113250212D01*
X154885707Y-115923620D02*
X154885707Y-114922973D01*
X172900000Y-133937913D02*
X154885707Y-115923620D01*
X172900000Y-140100000D02*
X172900000Y-133937913D01*
X175820179Y-130402411D02*
X174414889Y-130402411D01*
X174414889Y-130402411D02*
X169406236Y-125393758D01*
X177900000Y-132482232D02*
X175820179Y-130402411D01*
X169406236Y-125393758D02*
X169106237Y-125093759D01*
X159442769Y-115430291D02*
X169106237Y-125093759D01*
X170400000Y-140100000D02*
X169800000Y-139500000D01*
X152510536Y-112805249D02*
X152810535Y-112505250D01*
X152510536Y-114218938D02*
X152510536Y-112805249D01*
X170400000Y-134100000D02*
X169700000Y-133400000D01*
X153914445Y-116623496D02*
X153914445Y-115622847D01*
X169700000Y-133400000D02*
X169700000Y-132409051D01*
X169700000Y-132409051D02*
X153914445Y-116623496D01*
X170400000Y-140100000D02*
X170400000Y-134100000D01*
X153914445Y-115622847D02*
X152510536Y-114218938D01*
X167181490Y-125700000D02*
X167200000Y-125700000D01*
X167499999Y-125999999D02*
X167200000Y-125700000D01*
X172707233Y-131207233D02*
X167499999Y-125999999D01*
X174125001Y-131207233D02*
X172707233Y-131207233D01*
X156914117Y-115432627D02*
X167181490Y-125700000D01*
X175400000Y-132482232D02*
X174125001Y-131207233D01*
X130800000Y-97614701D02*
X130507889Y-97322590D01*
X130800000Y-118265097D02*
X130800000Y-97614701D01*
X128000000Y-121065097D02*
X130800000Y-118265097D01*
X128000000Y-122299996D02*
X128000000Y-121065097D01*
X167900000Y-140100000D02*
X167700000Y-139900000D01*
X167300000Y-131845444D02*
X152759634Y-117305078D01*
X152759634Y-117305078D02*
X152759634Y-115720436D01*
X152108125Y-115068927D02*
X152108125Y-111997598D01*
X167900000Y-140100000D02*
X167900000Y-134100000D01*
X167300000Y-133500000D02*
X167300000Y-131845444D01*
X152759634Y-115720436D02*
X152108125Y-115068927D01*
X167900000Y-134100000D02*
X167300000Y-133500000D01*
X152108125Y-111997598D02*
X152408124Y-111697599D01*
X168922590Y-119751987D02*
X168922590Y-120176251D01*
X168922590Y-117822590D02*
X168922590Y-119751987D01*
X165800000Y-114700000D02*
X168922590Y-117822590D01*
X165645481Y-114700000D02*
X165800000Y-114700000D01*
X161755735Y-110810254D02*
X165645481Y-114700000D01*
X151604822Y-111275428D02*
X151704756Y-111175494D01*
X165400000Y-134100000D02*
X164700000Y-133400000D01*
X151704756Y-111175494D02*
X152004755Y-110875495D01*
X161315381Y-127531963D02*
X151604822Y-117821404D01*
X164700000Y-133400000D02*
X164700000Y-130960560D01*
X151604822Y-117821404D02*
X151604822Y-111275428D01*
X161315381Y-127575941D02*
X161315381Y-127531963D01*
X164700000Y-130960560D02*
X161315381Y-127575941D01*
X165400000Y-140100000D02*
X165400000Y-134100000D01*
X151237957Y-110399999D02*
X151537956Y-110100000D01*
X151202411Y-110435545D02*
X151237957Y-110399999D01*
X151202411Y-118032066D02*
X151202411Y-110435545D01*
X163600000Y-130429655D02*
X151202411Y-118032066D01*
X163600000Y-133400000D02*
X163600000Y-130429655D01*
X162900000Y-134100000D02*
X163600000Y-133400000D01*
X162900000Y-140100000D02*
X162900000Y-134100000D01*
X169500000Y-117830905D02*
X169500000Y-120375736D01*
X162622630Y-111108055D02*
X165812164Y-114297589D01*
X161622112Y-109722328D02*
X162622630Y-110722846D01*
X162622630Y-110722846D02*
X162622630Y-111108055D01*
X160481317Y-109722328D02*
X161622112Y-109722328D01*
X165812164Y-114297589D02*
X165966684Y-114297589D01*
X169500000Y-120375736D02*
X169500000Y-120800000D01*
X165966684Y-114297589D02*
X169500000Y-117830905D01*
X150187033Y-109924264D02*
X150187033Y-109500000D01*
X150187033Y-118690211D02*
X150187033Y-109924264D01*
X161100000Y-129603178D02*
X150187033Y-118690211D01*
X161100000Y-133400000D02*
X161100000Y-129603178D01*
X160400000Y-134100000D02*
X161100000Y-133400000D01*
X160400000Y-140100000D02*
X160400000Y-134100000D01*
X168068106Y-111500000D02*
X169069861Y-112501755D01*
X169069861Y-112501755D02*
X169069861Y-113067687D01*
X162148820Y-108979821D02*
X164668999Y-111500000D01*
X164668999Y-111500000D02*
X168068106Y-111500000D01*
X160359633Y-108979821D02*
X162148820Y-108979821D01*
X169069861Y-113067687D02*
X168939016Y-113198532D01*
X168939016Y-113198532D02*
X168639017Y-113498531D01*
X158400000Y-111600000D02*
X157200000Y-110400000D01*
X159195906Y-114852881D02*
X158400000Y-114056975D01*
X158400000Y-114056975D02*
X158400000Y-111600000D01*
X159719913Y-114852881D02*
X159195906Y-114852881D01*
X174867032Y-130000000D02*
X159719913Y-114852881D01*
X177200000Y-130000000D02*
X174867032Y-130000000D01*
X180400000Y-133200000D02*
X177200000Y-130000000D01*
X180400000Y-140100000D02*
X180400000Y-133200000D01*
X149032222Y-109843300D02*
X149032222Y-109419036D01*
X149032222Y-119206537D02*
X149032222Y-109843300D01*
X158600000Y-133400000D02*
X158600000Y-128774315D01*
X158600000Y-128774315D02*
X149032222Y-119206537D01*
X157900000Y-134100000D02*
X158600000Y-133400000D01*
X157900000Y-140100000D02*
X157900000Y-134100000D01*
X165870217Y-126091547D02*
X165570218Y-125791548D01*
X165570218Y-125791548D02*
X160989335Y-121210665D01*
X165870217Y-126091547D02*
X172260902Y-132482232D01*
X172260902Y-132482232D02*
X172300000Y-132482232D01*
X160989335Y-121210665D02*
X155336478Y-115557808D01*
X155336478Y-115557808D02*
X155336478Y-114554960D01*
X148042777Y-109940276D02*
X147790374Y-109687873D01*
X156100000Y-127945453D02*
X148042777Y-119888230D01*
X148042777Y-119888230D02*
X148042777Y-109940276D01*
X156100000Y-133400000D02*
X156100000Y-127945453D01*
X155400000Y-134100000D02*
X156100000Y-133400000D01*
X147790374Y-109687873D02*
X147790374Y-109418466D01*
X155400000Y-140100000D02*
X155400000Y-134100000D01*
X149500000Y-104000000D02*
X148000000Y-102500000D01*
X148000000Y-102500000D02*
X148000000Y-101699992D01*
X154316856Y-116209325D02*
X154316856Y-115208676D01*
X154316856Y-115208676D02*
X154308306Y-115200126D01*
X159337944Y-121230413D02*
X154316856Y-116209325D01*
X164653766Y-126735998D02*
X164653766Y-126546234D01*
X170400000Y-132482232D02*
X164653766Y-126735998D01*
X159637944Y-121530412D02*
X164353767Y-126246235D01*
X164353767Y-126246235D02*
X164653766Y-126546234D01*
X159337944Y-121230413D02*
X159637944Y-121530412D01*
X155400000Y-132482232D02*
X155400000Y-128000000D01*
X155400000Y-128000000D02*
X147799999Y-120399999D01*
X147799999Y-120399999D02*
X147500000Y-120100000D01*
X147212972Y-108965328D02*
X147407614Y-108770686D01*
X147212972Y-109695620D02*
X147212972Y-108965328D01*
X147500000Y-120100000D02*
X147500000Y-109982648D01*
X147500000Y-109982648D02*
X147212972Y-109695620D01*
X157148742Y-120808270D02*
X153337044Y-116996572D01*
X153337044Y-116996572D02*
X153337044Y-115900000D01*
X157148742Y-120808270D02*
X163240472Y-126900000D01*
X163240472Y-126900000D02*
X163300000Y-126900000D01*
X163599999Y-127199999D02*
X163300000Y-126900000D01*
X168100000Y-131700000D02*
X163599999Y-127199999D01*
X168100000Y-132477410D02*
X168100000Y-131700000D01*
X157900000Y-132482232D02*
X157900000Y-128899998D01*
X157900000Y-128899998D02*
X150000001Y-120999999D01*
X150000001Y-120999999D02*
X149700002Y-120700000D01*
X149400003Y-120400001D02*
X149700002Y-120700000D01*
X147408801Y-107832446D02*
X148454812Y-108878457D01*
X148454812Y-108878457D02*
X148454812Y-119454810D01*
X148454812Y-119454810D02*
X149400003Y-120400001D01*
X152182232Y-117544258D02*
X152182232Y-115997590D01*
X156718987Y-122081013D02*
X152182232Y-117544258D01*
X165400000Y-130806006D02*
X162192781Y-127598787D01*
X165400000Y-132482232D02*
X165400000Y-130806006D01*
X162192781Y-127598787D02*
X161892782Y-127298788D01*
X161892782Y-127254808D02*
X161892782Y-127298788D01*
X156718987Y-122081013D02*
X161892782Y-127254808D01*
X160400000Y-132482232D02*
X160400000Y-129719761D01*
X160400000Y-129719761D02*
X152354800Y-121674561D01*
X152354800Y-121674561D02*
X152054801Y-121374562D01*
X147833065Y-107028698D02*
X149609623Y-108805256D01*
X149609623Y-109696189D02*
X149600000Y-109705812D01*
X151754802Y-121074563D02*
X152054801Y-121374562D01*
X149609623Y-108805256D02*
X149609623Y-109696189D01*
X147408801Y-107028698D02*
X147833065Y-107028698D01*
X149600000Y-109705812D02*
X149600000Y-118919761D01*
X149600000Y-118919761D02*
X151754802Y-121074563D01*
X162900000Y-130571804D02*
X154580167Y-122251971D01*
X162900000Y-132482232D02*
X162900000Y-130571804D01*
X154580167Y-122251971D02*
X154280168Y-121951972D01*
X153980169Y-121651973D02*
X154280168Y-121951972D01*
X150800000Y-109121847D02*
X150800000Y-118471804D01*
X147833067Y-106154914D02*
X150800000Y-109121847D01*
X147408803Y-106154914D02*
X147833067Y-106154914D01*
X150800000Y-118471804D02*
X153980169Y-121651973D01*
X102400000Y-119640000D02*
X102400000Y-132204827D01*
X100400000Y-115499996D02*
X100200000Y-115299996D01*
X100400000Y-140100000D02*
X100400000Y-115499996D01*
X103600000Y-118300000D02*
X103600000Y-132204827D01*
X102400000Y-117100000D02*
X103600000Y-118300000D01*
X101000000Y-132000000D02*
X102900000Y-133900000D01*
X101000000Y-115960000D02*
X101000000Y-132000000D01*
X102900000Y-133900000D02*
X102900000Y-140100000D01*
X102400000Y-114560000D02*
X101000000Y-115960000D01*
X132300000Y-92954811D02*
X129619414Y-95635397D01*
X129619414Y-95635397D02*
X129619414Y-106033721D01*
X129619414Y-106033721D02*
X129619414Y-106457985D01*
X118707007Y-114356085D02*
X118703168Y-114356085D01*
X121900000Y-125100000D02*
X121900000Y-117549078D01*
X121900000Y-117549078D02*
X118707007Y-114356085D01*
X138262385Y-115400000D02*
X140747579Y-117885194D01*
X135283417Y-115400000D02*
X138262385Y-115400000D01*
X134731789Y-115951628D02*
X135283417Y-115400000D01*
X135400000Y-127730906D02*
X135400000Y-132057968D01*
X140747579Y-117885194D02*
X140747579Y-122383327D01*
X140747579Y-122383327D02*
X135400000Y-127730906D01*
X135400000Y-132057968D02*
X135400000Y-132482232D01*
X137599999Y-111599999D02*
X137300000Y-111300000D01*
X141149990Y-115149990D02*
X137599999Y-111599999D01*
X141149990Y-122550010D02*
X141149990Y-115149990D01*
X137900000Y-125800000D02*
X141149990Y-122550010D01*
X137900000Y-140100000D02*
X137900000Y-125800000D01*
X116420179Y-104224264D02*
X116420179Y-103800000D01*
X116420179Y-113620179D02*
X116420179Y-104224264D01*
X117733495Y-114933495D02*
X116420179Y-113620179D01*
X118715322Y-114933495D02*
X117733495Y-114933495D01*
X121322599Y-125292379D02*
X121322599Y-117540772D01*
X121337887Y-125307667D02*
X121322599Y-125292379D01*
X121337887Y-125402664D02*
X121337887Y-125307667D01*
X121322599Y-117540772D02*
X118715322Y-114933495D01*
X127835223Y-131900000D02*
X121337887Y-125402664D01*
X128400000Y-131900000D02*
X127835223Y-131900000D01*
X130400000Y-133900000D02*
X128400000Y-131900000D01*
X130400000Y-140100000D02*
X130400000Y-133900000D01*
X130221190Y-132521190D02*
X130300000Y-132521190D01*
X122302411Y-124602411D02*
X130221190Y-132521190D01*
X118900021Y-113700000D02*
X122302411Y-117102390D01*
X117300000Y-113700000D02*
X118900021Y-113700000D01*
X122302411Y-117102390D02*
X122302411Y-124602411D01*
X116997589Y-113397589D02*
X117300000Y-113700000D01*
X116997589Y-103181007D02*
X116997589Y-113397589D01*
X116808291Y-102991709D02*
X116997589Y-103181007D01*
X116885534Y-127914466D02*
X115400000Y-129400000D01*
X116885534Y-121016439D02*
X116885534Y-127914466D01*
X116502411Y-120633316D02*
X116885534Y-121016439D01*
X116502411Y-118733316D02*
X116502411Y-120633316D01*
X115921878Y-118152783D02*
X116502411Y-118733316D01*
X110792043Y-118152783D02*
X115921878Y-118152783D01*
X110702410Y-118063150D02*
X110792043Y-118152783D01*
X115400000Y-129400000D02*
X115400000Y-132500000D01*
X116743187Y-115335906D02*
X118548638Y-115335906D01*
X120920188Y-117707456D02*
X120920188Y-125641378D01*
X120920188Y-125641378D02*
X127500001Y-132221191D01*
X127500001Y-132221191D02*
X127800000Y-132521190D01*
X112532221Y-111124940D02*
X116743187Y-115335906D01*
X112532221Y-103122590D02*
X112532221Y-111124940D01*
X118548638Y-115335906D02*
X120920188Y-117707456D01*
X117588391Y-118073912D02*
X117588391Y-118697384D01*
X111452858Y-117750372D02*
X117264851Y-117750372D01*
X117900000Y-132096926D02*
X117900000Y-132521190D01*
X117264851Y-117750372D02*
X117588391Y-118073912D01*
X111212812Y-117510326D02*
X111452858Y-117750372D01*
X117693366Y-131890292D02*
X117900000Y-132096926D01*
X117350910Y-118934865D02*
X117350910Y-120343625D01*
X117588391Y-118697384D02*
X117350910Y-118934865D01*
X117350910Y-120343625D02*
X117693366Y-120686081D01*
X117693366Y-120686081D02*
X117693366Y-131890292D01*
X111377410Y-103100000D02*
X111377410Y-111108319D01*
X120115366Y-127236556D02*
X125100001Y-132221191D01*
X116409819Y-116140728D02*
X118215270Y-116140728D01*
X125100001Y-132221191D02*
X125400000Y-132521190D01*
X118215270Y-116140728D02*
X120115366Y-118040824D01*
X120115366Y-118040824D02*
X120115366Y-127236556D01*
X111377410Y-111108319D02*
X116409819Y-116140728D01*
X111844268Y-117101197D02*
X112091032Y-117347961D01*
X117659496Y-117347961D02*
X118768554Y-118457018D01*
X120100001Y-132221191D02*
X120400000Y-132521190D01*
X112091032Y-117347961D02*
X117659496Y-117347961D01*
X118155732Y-120010257D02*
X118498188Y-120352713D01*
X118155732Y-119497483D02*
X118155732Y-120010257D01*
X118768554Y-118457018D02*
X118768554Y-118884661D01*
X118498188Y-120352713D02*
X118498188Y-130619378D01*
X118498188Y-130619378D02*
X120100001Y-132221191D01*
X118768554Y-118884661D02*
X118155732Y-119497483D01*
X112147731Y-116412696D02*
X112680585Y-116945550D01*
X122600001Y-132221191D02*
X122900000Y-132521190D01*
X112680585Y-116945550D02*
X117881902Y-116945550D01*
X119310544Y-128931734D02*
X122600001Y-132221191D01*
X117881902Y-116945550D02*
X119310544Y-118374192D01*
X119310544Y-118374192D02*
X119310544Y-128931734D01*
X132900000Y-127410560D02*
X132900000Y-132057968D01*
X132900000Y-132057968D02*
X132900000Y-132482232D01*
X138141709Y-118858291D02*
X136631016Y-118858291D01*
X138592767Y-121717793D02*
X132900000Y-127410560D01*
X138592767Y-119309349D02*
X138592767Y-121717793D01*
X138141709Y-118858291D02*
X138592767Y-119309349D01*
X136631016Y-118858291D02*
X136584486Y-118904821D01*
X111800000Y-128614323D02*
X108613633Y-131800690D01*
X111800000Y-124800018D02*
X111800000Y-128614323D01*
X108613633Y-131800690D02*
X108313634Y-132100689D01*
X111204822Y-128357159D02*
X107526059Y-132035922D01*
X107526059Y-132035922D02*
X107526059Y-132122590D01*
X111536122Y-124202066D02*
X111204822Y-124533366D01*
X111204822Y-124533366D02*
X111204822Y-128357159D01*
X112432016Y-124202066D02*
X111536122Y-124202066D01*
X111546495Y-123622599D02*
X110802411Y-124366683D01*
X107293983Y-131545189D02*
X107286877Y-131545189D01*
X110802411Y-128036761D02*
X107293983Y-131545189D01*
X112906017Y-123622599D02*
X111546495Y-123622599D01*
X107013028Y-131826144D02*
X106713029Y-132126143D01*
X110802411Y-124366683D02*
X110802411Y-128036761D01*
X107013028Y-131819038D02*
X107013028Y-131826144D01*
X113033671Y-123750253D02*
X112906017Y-123622599D01*
X107286877Y-131545189D02*
X107013028Y-131819038D01*
X110400000Y-127622590D02*
X105900000Y-132122590D01*
X110400000Y-124200000D02*
X110400000Y-127622590D01*
X111475002Y-123124998D02*
X110400000Y-124200000D01*
X113799996Y-123699996D02*
X113224998Y-123124998D01*
X113799996Y-124200000D02*
X113799996Y-123699996D01*
X113224998Y-123124998D02*
X111475002Y-123124998D01*
X156981544Y-94818347D02*
X165381653Y-94818347D01*
X165381653Y-94818347D02*
X165400000Y-94800000D01*
X165129280Y-110600001D02*
X165429279Y-110900000D01*
X162931690Y-108402411D02*
X165129280Y-110600001D01*
X159204822Y-109295178D02*
X160097589Y-108402411D01*
X161499450Y-113999453D02*
X159504538Y-113999453D01*
X176207230Y-128707233D02*
X161499450Y-113999453D01*
X180107233Y-128707233D02*
X176207230Y-128707233D01*
X160097589Y-108402411D02*
X162931690Y-108402411D01*
X159504538Y-113999453D02*
X159204822Y-113699737D01*
X183600000Y-132200000D02*
X180107233Y-128707233D01*
X183600000Y-133400000D02*
X183600000Y-132200000D01*
X182900000Y-134100000D02*
X183600000Y-133400000D01*
X159204822Y-113699737D02*
X159204822Y-109295178D01*
X182900000Y-140100000D02*
X182900000Y-134100000D01*
X148538188Y-95400000D02*
X156399891Y-95400000D01*
X156681545Y-95118346D02*
X156981544Y-94818347D01*
X156399891Y-95400000D02*
X156681545Y-95118346D01*
X148100000Y-100541763D02*
X148100000Y-95838188D01*
X148100000Y-95838188D02*
X148538188Y-95400000D01*
X147408801Y-101232960D02*
X148100000Y-100541763D01*
X147408801Y-103357223D02*
X147408801Y-101232960D01*
X162147947Y-118952051D02*
X161847948Y-118652052D01*
X174804822Y-130804822D02*
X174000718Y-130804822D01*
X177900000Y-133900000D02*
X174804822Y-130804822D01*
X174000718Y-130804822D02*
X162147947Y-118952051D01*
X177900000Y-140100000D02*
X177900000Y-133900000D01*
X157317964Y-114606494D02*
X156893700Y-114606494D01*
X161847948Y-118652052D02*
X157802390Y-114606494D01*
X157802390Y-114606494D02*
X157317964Y-114606494D01*
X172295252Y-131700000D02*
X162747625Y-122152373D01*
X162747625Y-122152373D02*
X162447626Y-121852374D01*
X173700000Y-131700000D02*
X172295252Y-131700000D01*
X175400000Y-133400000D02*
X173700000Y-131700000D01*
X175400000Y-140100000D02*
X175400000Y-133400000D01*
X156472770Y-113831046D02*
X156897034Y-113831046D01*
X156100000Y-114203816D02*
X156472770Y-113831046D01*
X156100000Y-115504748D02*
X156100000Y-114203816D01*
X162447626Y-121852374D02*
X156100000Y-115504748D01*
X132900000Y-140100000D02*
X132900000Y-133250000D01*
X135924264Y-116599996D02*
X135500000Y-116599996D01*
X138995178Y-118395178D02*
X137199996Y-116599996D01*
X138995178Y-121884478D02*
X138995178Y-118395178D01*
X133600000Y-127279656D02*
X138995178Y-121884478D01*
X132900000Y-134100000D02*
X133600000Y-133400000D01*
X137199996Y-116599996D02*
X135924264Y-116599996D01*
X133600000Y-133400000D02*
X133600000Y-127279656D01*
X132900000Y-140100000D02*
X132900000Y-134100000D01*
X122900000Y-140100000D02*
X122900000Y-133700000D01*
X122900000Y-133700000D02*
X122450000Y-133250000D01*
X118900599Y-119915055D02*
X118733134Y-119747590D01*
X118900599Y-129900599D02*
X118900599Y-119915055D01*
X122900000Y-133900000D02*
X118900599Y-129900599D01*
X122900000Y-140100000D02*
X122900000Y-133900000D01*
X125277402Y-104627349D02*
X125100000Y-104449947D01*
X123300000Y-113194287D02*
X124802412Y-111691875D01*
X125277402Y-106391692D02*
X125277402Y-104627349D01*
X124802412Y-106866682D02*
X125277402Y-106391692D01*
X124802412Y-111691875D02*
X124802412Y-106866682D01*
X135688838Y-119711162D02*
X134099999Y-121300001D01*
X137817230Y-120011161D02*
X137517231Y-119711162D01*
X134099999Y-121300001D02*
X133800000Y-121600000D01*
X137517231Y-119711162D02*
X135688838Y-119711162D01*
X120400000Y-140100000D02*
X120350000Y-140050000D01*
X118165792Y-118918076D02*
X118165792Y-118670840D01*
X117753321Y-120176941D02*
X117753321Y-119330547D01*
X118095777Y-120519397D02*
X117753321Y-120176941D01*
X118095777Y-131595777D02*
X118095777Y-120519397D01*
X117753321Y-119330547D02*
X118165792Y-118918076D01*
X120400000Y-133900000D02*
X118095777Y-131595777D01*
X120400000Y-140100000D02*
X120400000Y-133900000D01*
X129314424Y-112285560D02*
X128869256Y-111840392D01*
X128869256Y-111840392D02*
X128869256Y-106824054D01*
X128869256Y-106824054D02*
X128869256Y-106399790D01*
X129153206Y-96222300D02*
X129153206Y-106115840D01*
X125208307Y-92277401D02*
X129153206Y-96222300D01*
X122177401Y-92277401D02*
X125208307Y-92277401D01*
X129153206Y-106115840D02*
X128869256Y-106399790D01*
X121600000Y-91700000D02*
X122177401Y-92277401D01*
X117287945Y-133487945D02*
X117287945Y-120849755D01*
X117900000Y-134100000D02*
X117287945Y-133487945D01*
X117900000Y-140100000D02*
X117900000Y-134100000D01*
X116904822Y-120466632D02*
X116904822Y-118508930D01*
X117287945Y-120849755D02*
X116904822Y-120466632D01*
X116904822Y-118508930D02*
X117010981Y-118402771D01*
X115400000Y-140100000D02*
X115400000Y-134100000D01*
X167588403Y-113264500D02*
X167588403Y-112843730D01*
X171500000Y-117176097D02*
X167588403Y-113264500D01*
X176707282Y-127500000D02*
X171500000Y-122292718D01*
X181641468Y-127500000D02*
X176707282Y-127500000D01*
X183611313Y-129469845D02*
X181641468Y-127500000D01*
X167588403Y-112843730D02*
X167288404Y-112543731D01*
X171500000Y-122292718D02*
X171500000Y-117176097D01*
X183611313Y-131311103D02*
X183611313Y-129469845D01*
X116400001Y-132800009D02*
X116700000Y-132500010D01*
X115400000Y-133800010D02*
X116400001Y-132800009D01*
X115400000Y-134100000D02*
X115400000Y-133800010D01*
X114700000Y-133400000D02*
X115400000Y-134100000D01*
X114700000Y-129500000D02*
X114700000Y-133400000D01*
X116483123Y-127716877D02*
X114700000Y-129500000D01*
X116483123Y-121183123D02*
X116483123Y-127716877D01*
X116100000Y-120800000D02*
X116483123Y-121183123D01*
X116100000Y-118900000D02*
X116100000Y-120800000D01*
X115930193Y-118730193D02*
X116100000Y-118900000D01*
X111800000Y-118730193D02*
X115930193Y-118730193D01*
X112100000Y-139300000D02*
X112100000Y-131297904D01*
X115608889Y-127789015D02*
X115608889Y-127708293D01*
X112100000Y-131297904D02*
X115608889Y-127789015D01*
X112900000Y-140100000D02*
X112100000Y-139300000D01*
X114856525Y-127778487D02*
X114856525Y-127699801D01*
X111200000Y-131435012D02*
X114856525Y-127778487D01*
X111200000Y-133300000D02*
X111200000Y-131435012D01*
X109600000Y-134900000D02*
X111200000Y-133300000D01*
X109600000Y-139300000D02*
X109600000Y-134900000D01*
X110400000Y-140100000D02*
X109600000Y-139300000D01*
X114087648Y-127712352D02*
X114104218Y-127712352D01*
X107900000Y-133900000D02*
X114087648Y-127712352D01*
X107900000Y-140100000D02*
X107900000Y-133900000D01*
X113291715Y-127939191D02*
X113291715Y-127691703D01*
X108527361Y-132703545D02*
X113291715Y-127939191D01*
X106596455Y-132703545D02*
X108527361Y-132703545D01*
X105400000Y-133900000D02*
X106596455Y-132703545D01*
X105400000Y-140100000D02*
X105400000Y-133900000D01*
X162489657Y-120191585D02*
X162489657Y-120110343D01*
X165161372Y-122863300D02*
X162489657Y-120191585D01*
X132000001Y-92099999D02*
X132300000Y-91800000D01*
X131200000Y-92900000D02*
X132000001Y-92099999D01*
X126400000Y-92900000D02*
X131200000Y-92900000D01*
X125200000Y-91700000D02*
X126400000Y-92900000D01*
X123400000Y-91700000D02*
X125200000Y-91700000D01*
X142695188Y-92800000D02*
X143695188Y-91800000D01*
X148600000Y-93000000D02*
X169692746Y-93000000D01*
X143695188Y-91800000D02*
X147400000Y-91800000D01*
X147400000Y-91800000D02*
X148600000Y-93000000D01*
X169692746Y-93000000D02*
X172641858Y-95949112D01*
X172641858Y-95949112D02*
X172641858Y-98676552D01*
X172641858Y-98676552D02*
X172318409Y-99000001D01*
X172318409Y-99000001D02*
X172018410Y-99300000D01*
X136896877Y-120331985D02*
X137730864Y-121165972D01*
X137730864Y-121165972D02*
X137989595Y-121165972D01*
X160395890Y-112062359D02*
X160807694Y-112062359D01*
X167800001Y-118500007D02*
X168100000Y-118800006D01*
X167669010Y-118369016D02*
X167800001Y-118500007D01*
X167114351Y-118369016D02*
X167669010Y-118369016D01*
X160095891Y-111762360D02*
X160395890Y-112062359D01*
X160807694Y-112062359D02*
X167114351Y-118369016D01*
X161598283Y-113422043D02*
X167122658Y-118946418D01*
X167122658Y-118946418D02*
X167262998Y-118946418D01*
X159833681Y-113422043D02*
X161598283Y-113422043D01*
X168150022Y-117966605D02*
X168165502Y-117982085D01*
X160466221Y-111011454D02*
X167421372Y-117966605D01*
X160143466Y-111011454D02*
X160466221Y-111011454D01*
X167421372Y-117966605D02*
X168150022Y-117966605D01*
X167377483Y-117353622D02*
X167624971Y-117353622D01*
X160320122Y-110296261D02*
X167377483Y-117353622D01*
X159837499Y-110296261D02*
X160320122Y-110296261D01*
X140500000Y-98900000D02*
X141416582Y-99816582D01*
X141416582Y-99816582D02*
X141416582Y-100600000D01*
X163396876Y-108000000D02*
X154397590Y-108000000D01*
X166296876Y-110900000D02*
X163396876Y-108000000D01*
X166993752Y-110900000D02*
X166296876Y-110900000D01*
X146900000Y-120330906D02*
X146900000Y-118524264D01*
X152900000Y-132477410D02*
X152900000Y-126330906D01*
X152900000Y-126330906D02*
X146900000Y-120330906D01*
X146900000Y-118524264D02*
X146900000Y-118100000D01*
X152900000Y-140100000D02*
X153150002Y-139849998D01*
X152900000Y-140100000D02*
X152900000Y-134100000D01*
X146200000Y-115294443D02*
X146200000Y-114870179D01*
X146200000Y-120200000D02*
X146200000Y-115294443D01*
X152200000Y-126200000D02*
X146200000Y-120200000D01*
X152200000Y-133700000D02*
X152200000Y-126200000D01*
X152900000Y-134400000D02*
X152200000Y-133700000D01*
X152900000Y-140100000D02*
X152900000Y-134400000D01*
X168177797Y-94207233D02*
X168247939Y-94277375D01*
X168247939Y-94277375D02*
X168547938Y-94577374D01*
X148592767Y-94207233D02*
X168177797Y-94207233D01*
X147295178Y-95504820D02*
X148592767Y-94207233D01*
X146200000Y-101303573D02*
X147295178Y-100208395D01*
X146200000Y-114870179D02*
X146200000Y-101303573D01*
X147295178Y-100208395D02*
X147295178Y-95504820D01*
X139011323Y-117572589D02*
X138711324Y-117272590D01*
X139397589Y-117958855D02*
X139011323Y-117572589D01*
X134700000Y-133400000D02*
X134700000Y-126748750D01*
X135400000Y-134100000D02*
X134700000Y-133400000D01*
X139397589Y-122051161D02*
X139397589Y-117958855D01*
X134700000Y-126748750D02*
X139397589Y-122051161D01*
X135400000Y-140100000D02*
X135400000Y-134100000D01*
X146831391Y-115485724D02*
X146810564Y-115464897D01*
X148546504Y-94822590D02*
X155675748Y-94822590D01*
X147697589Y-100375079D02*
X147697589Y-95671504D01*
X146810564Y-101262103D02*
X147697589Y-100375079D01*
X146810564Y-115464897D02*
X146810564Y-101262103D01*
X155675748Y-94822590D02*
X156100012Y-94822590D01*
X146831391Y-115909988D02*
X146831391Y-115485724D01*
X147697589Y-95671504D02*
X148546504Y-94822590D01*
X165342184Y-112518905D02*
X164917920Y-112518905D01*
X176373914Y-128304822D02*
X170695178Y-122626086D01*
X180554637Y-128304822D02*
X176373914Y-128304822D01*
X183033903Y-130784088D02*
X180554637Y-128304822D01*
X170695178Y-122626086D02*
X170695178Y-117509465D01*
X170695178Y-117509465D02*
X165704618Y-112518905D01*
X165704618Y-112518905D02*
X165342184Y-112518905D01*
X122900874Y-119106508D02*
X122900874Y-124200874D01*
X129700001Y-131000001D02*
X130000000Y-131300000D01*
X122900874Y-124200874D02*
X129700001Y-131000001D01*
X122122590Y-97322590D02*
X122100000Y-97322590D01*
X124500000Y-105600000D02*
X124500000Y-103200000D01*
X124700000Y-105800000D02*
X124500000Y-105600000D01*
X124500000Y-103200000D02*
X123700000Y-102400000D01*
X123700000Y-102400000D02*
X123700000Y-98900000D01*
X123700000Y-98900000D02*
X122122590Y-97322590D01*
X122600000Y-113400000D02*
X123500000Y-114300000D01*
X126822590Y-114300000D02*
X128422590Y-115900000D01*
X122600000Y-113000000D02*
X122600000Y-113400000D01*
X124400001Y-111199999D02*
X122600000Y-113000000D01*
X123500000Y-114300000D02*
X126822590Y-114300000D01*
X124700000Y-105800000D02*
X124400001Y-106099999D01*
X124400001Y-106099999D02*
X124400001Y-111199999D01*
X139800000Y-122503302D02*
X139799998Y-122503304D01*
X138293284Y-115999994D02*
X139800000Y-117506710D01*
X136800000Y-115999994D02*
X138293284Y-115999994D01*
X139800000Y-117506710D02*
X139800000Y-122503302D01*
X148185829Y-93402411D02*
X169526062Y-93402411D01*
X172239447Y-96115796D02*
X172239447Y-96260553D01*
X172239447Y-98143828D02*
X171402411Y-98980864D01*
X147191707Y-92408289D02*
X148185829Y-93402411D01*
X171402411Y-98980864D02*
X171402411Y-99603354D01*
X171402411Y-99603354D02*
X171691238Y-99892181D01*
X172239447Y-96260553D02*
X172239447Y-98143828D01*
X169526062Y-93402411D02*
X172239447Y-96115796D01*
X171691238Y-99892181D02*
X171991237Y-100192180D01*
X138800000Y-125500000D02*
X138800000Y-126899996D01*
X138800000Y-126899996D02*
X138799998Y-126899998D01*
X138779803Y-107800000D02*
X138779803Y-112125673D01*
X138779803Y-112125673D02*
X141552401Y-114898271D01*
X141552401Y-114898271D02*
X141552401Y-122747599D01*
X141552401Y-122747599D02*
X138800000Y-125500000D01*
X171000000Y-100424264D02*
X171575736Y-101000000D01*
X171000000Y-98814180D02*
X171000000Y-100424264D01*
X171575736Y-101000000D02*
X172000000Y-101000000D01*
X171837036Y-97977144D02*
X171000000Y-98814180D01*
X169359378Y-93804822D02*
X171837036Y-96282480D01*
X147724264Y-93800000D02*
X147729086Y-93804822D01*
X147300000Y-93800000D02*
X147724264Y-93800000D01*
X147729086Y-93804822D02*
X169359378Y-93804822D01*
X171837036Y-96282480D02*
X171837036Y-97977144D01*
X125257231Y-97216372D02*
X125257231Y-98722590D01*
X117574999Y-102624999D02*
X119600000Y-100599998D01*
X117574999Y-113022590D02*
X117574999Y-102624999D01*
X124679821Y-101507279D02*
X124679821Y-101931543D01*
X124679821Y-96720175D02*
X124679821Y-101507279D01*
X125099996Y-96300000D02*
X124679821Y-96720175D01*
X127873394Y-103929358D02*
X128173393Y-104229357D01*
X127394232Y-96501488D02*
X127394232Y-103450196D01*
X127394232Y-103450196D02*
X127873394Y-103929358D01*
X125492744Y-94600000D02*
X127394232Y-96501488D01*
X125200000Y-94600000D02*
X125492744Y-94600000D01*
X127971642Y-96426414D02*
X125472613Y-93927385D01*
X125472613Y-93927385D02*
X125172614Y-93627386D01*
X127971642Y-102513651D02*
X127971642Y-96426414D01*
X169300000Y-94640366D02*
X169300000Y-94600000D01*
X171259634Y-96600000D02*
X169300000Y-94640366D01*
X126609942Y-113606640D02*
X127097589Y-113118993D01*
X121902052Y-93939308D02*
X121602053Y-93639309D01*
X125643837Y-95320188D02*
X123282932Y-95320188D01*
X126887046Y-96563397D02*
X125643837Y-95320188D01*
X127097589Y-104997589D02*
X126887046Y-104787046D01*
X126887046Y-104787046D02*
X126887046Y-96563397D01*
X127097589Y-113118993D02*
X127097589Y-104997589D01*
X123282932Y-95320188D02*
X121902052Y-93939308D01*
X126484635Y-96730081D02*
X125477153Y-95722599D01*
X121902409Y-95587053D02*
X121602410Y-95287054D01*
X125477153Y-95722599D02*
X122037955Y-95722599D01*
X122037955Y-95722599D02*
X121902409Y-95587053D01*
X126484635Y-106442035D02*
X126484635Y-96730081D01*
X125785164Y-113598445D02*
X126695178Y-112688431D01*
X126695178Y-106652578D02*
X126484635Y-106442035D01*
X126695178Y-112688431D02*
X126695178Y-106652578D01*
X124102411Y-102233317D02*
X124102411Y-98502411D01*
X125679813Y-103810719D02*
X124102411Y-102233317D01*
X124102411Y-98502411D02*
X122170179Y-96570179D01*
X122170179Y-96570179D02*
X122100366Y-96570179D01*
X125679813Y-106558376D02*
X125679813Y-103810719D01*
X123910807Y-113633648D02*
X125204823Y-112339632D01*
X125204823Y-112339632D02*
X125204823Y-107033365D01*
X125204823Y-107033365D02*
X125679813Y-106558376D01*
X127500000Y-107185555D02*
X127500000Y-104516956D01*
X127714445Y-107400000D02*
X127500000Y-107185555D01*
X127500000Y-104516956D02*
X127464456Y-104481412D01*
X126082224Y-101658208D02*
X125812008Y-101387992D01*
X126082224Y-106933634D02*
X126082224Y-101658208D01*
X126117768Y-106969178D02*
X126082224Y-106933634D01*
X121867915Y-92784497D02*
X121567916Y-92484498D01*
X128750795Y-96388983D02*
X125146309Y-92784497D01*
X128750795Y-104506511D02*
X128750795Y-96388983D01*
X125146309Y-92784497D02*
X121867915Y-92784497D01*
X128291846Y-104965460D02*
X128750795Y-104506511D01*
X128291846Y-113503213D02*
X128291846Y-104965460D01*
X128403665Y-113615032D02*
X128291846Y-113503213D01*
X127900000Y-140100000D02*
X127772589Y-139972589D01*
X111954811Y-102613820D02*
X111893055Y-102552064D01*
X111954811Y-111116623D02*
X111954811Y-102613820D01*
X116576503Y-115738317D02*
X111954811Y-111116623D01*
X118381954Y-115738317D02*
X116576503Y-115738317D01*
X120517777Y-117874140D02*
X118381954Y-115738317D01*
X120517777Y-126567777D02*
X120517777Y-117874140D01*
X127900000Y-133950000D02*
X120517777Y-126567777D01*
X127900000Y-140100000D02*
X127900000Y-133950000D01*
X110702410Y-111002413D02*
X110702410Y-102903271D01*
X116243135Y-116543139D02*
X110702410Y-111002413D01*
X118048586Y-116543139D02*
X116243135Y-116543139D01*
X110702410Y-102903271D02*
X110702410Y-102479007D01*
X119712955Y-118207508D02*
X118048586Y-116543139D01*
X119712955Y-128212955D02*
X119712955Y-118207508D01*
X125400000Y-133900000D02*
X119712955Y-128212955D01*
X125400000Y-140100000D02*
X125400000Y-133900000D01*
X123644336Y-123462480D02*
X123644336Y-119415068D01*
X131633797Y-131451941D02*
X123644336Y-123462480D01*
X123644336Y-119415068D02*
X123644336Y-118990804D01*
X181136314Y-127902411D02*
X176540598Y-127902411D01*
X183033903Y-129800000D02*
X181136314Y-127902411D01*
X171097589Y-117342781D02*
X166537464Y-112782656D01*
X171097589Y-122459402D02*
X171097589Y-117342781D01*
X176540598Y-127902411D02*
X171097589Y-122459402D01*
X166537464Y-112782656D02*
X166537464Y-112496700D01*
X170100000Y-117743274D02*
X166090290Y-113733564D01*
X170100000Y-121500000D02*
X170100000Y-117743274D01*
X131377410Y-118542234D02*
X130366984Y-119552660D01*
X131377410Y-114690180D02*
X131377410Y-118542234D01*
D23*
G36*
X145253986Y-120365984D02*
G01*
X145466001Y-120398446D01*
X145490706Y-120479891D01*
X145494454Y-120492246D01*
X145565026Y-120624276D01*
X145601744Y-120669016D01*
X145659999Y-120740001D01*
X145689003Y-120763804D01*
X151440001Y-126514804D01*
X151440000Y-131977571D01*
X151224263Y-132217410D01*
X150982168Y-132432134D01*
X150939797Y-132461928D01*
X149400000Y-132461928D01*
X149275518Y-132474188D01*
X149155820Y-132510498D01*
X149150000Y-132513609D01*
X149144180Y-132510498D01*
X149024482Y-132474188D01*
X148900000Y-132461928D01*
X146900000Y-132461928D01*
X146775518Y-132474188D01*
X146655820Y-132510498D01*
X146650000Y-132513609D01*
X146644180Y-132510498D01*
X146524482Y-132474188D01*
X146400000Y-132461928D01*
X144400000Y-132461928D01*
X144275518Y-132474188D01*
X144155820Y-132510498D01*
X144150000Y-132513609D01*
X144144180Y-132510498D01*
X144024482Y-132474188D01*
X143900000Y-132461928D01*
X141900000Y-132461928D01*
X141775518Y-132474188D01*
X141655820Y-132510498D01*
X141650000Y-132513609D01*
X141644180Y-132510498D01*
X141524482Y-132474188D01*
X141400000Y-132461928D01*
X139400000Y-132461928D01*
X139275518Y-132474188D01*
X139264394Y-132477562D01*
X139099879Y-132359779D01*
X138861533Y-132145169D01*
X138660000Y-131918175D01*
X138660000Y-127825468D01*
X138707909Y-127834998D01*
X138892087Y-127834998D01*
X139072727Y-127799066D01*
X139242887Y-127728584D01*
X139396026Y-127626260D01*
X139526260Y-127496026D01*
X139628584Y-127342887D01*
X139699066Y-127172727D01*
X139734998Y-126992087D01*
X139734998Y-126807909D01*
X139699066Y-126627269D01*
X139628584Y-126457109D01*
X139560000Y-126354466D01*
X139560000Y-125814801D01*
X142063404Y-123311398D01*
X142092402Y-123287600D01*
X142187375Y-123171875D01*
X142257947Y-123039846D01*
X142301404Y-122896585D01*
X142312401Y-122784932D01*
X142312401Y-122784922D01*
X142316077Y-122747599D01*
X142312401Y-122710276D01*
X142312401Y-120497710D01*
X142387549Y-120474961D01*
X142695903Y-120417351D01*
X143012187Y-120393439D01*
X144919855Y-120353697D01*
X145253986Y-120365984D01*
G37*
X145253986Y-120365984D02*
X145466001Y-120398446D01*
X145490706Y-120479891D01*
X145494454Y-120492246D01*
X145565026Y-120624276D01*
X145601744Y-120669016D01*
X145659999Y-120740001D01*
X145689003Y-120763804D01*
X151440001Y-126514804D01*
X151440000Y-131977571D01*
X151224263Y-132217410D01*
X150982168Y-132432134D01*
X150939797Y-132461928D01*
X149400000Y-132461928D01*
X149275518Y-132474188D01*
X149155820Y-132510498D01*
X149150000Y-132513609D01*
X149144180Y-132510498D01*
X149024482Y-132474188D01*
X148900000Y-132461928D01*
X146900000Y-132461928D01*
X146775518Y-132474188D01*
X146655820Y-132510498D01*
X146650000Y-132513609D01*
X146644180Y-132510498D01*
X146524482Y-132474188D01*
X146400000Y-132461928D01*
X144400000Y-132461928D01*
X144275518Y-132474188D01*
X144155820Y-132510498D01*
X144150000Y-132513609D01*
X144144180Y-132510498D01*
X144024482Y-132474188D01*
X143900000Y-132461928D01*
X141900000Y-132461928D01*
X141775518Y-132474188D01*
X141655820Y-132510498D01*
X141650000Y-132513609D01*
X141644180Y-132510498D01*
X141524482Y-132474188D01*
X141400000Y-132461928D01*
X139400000Y-132461928D01*
X139275518Y-132474188D01*
X139264394Y-132477562D01*
X139099879Y-132359779D01*
X138861533Y-132145169D01*
X138660000Y-131918175D01*
X138660000Y-127825468D01*
X138707909Y-127834998D01*
X138892087Y-127834998D01*
X139072727Y-127799066D01*
X139242887Y-127728584D01*
X139396026Y-127626260D01*
X139526260Y-127496026D01*
X139628584Y-127342887D01*
X139699066Y-127172727D01*
X139734998Y-126992087D01*
X139734998Y-126807909D01*
X139699066Y-126627269D01*
X139628584Y-126457109D01*
X139560000Y-126354466D01*
X139560000Y-125814801D01*
X142063404Y-123311398D01*
X142092402Y-123287600D01*
X142187375Y-123171875D01*
X142257947Y-123039846D01*
X142301404Y-122896585D01*
X142312401Y-122784932D01*
X142312401Y-122784922D01*
X142316077Y-122747599D01*
X142312401Y-122710276D01*
X142312401Y-120497710D01*
X142387549Y-120474961D01*
X142695903Y-120417351D01*
X143012187Y-120393439D01*
X144919855Y-120353697D01*
X145253986Y-120365984D01*
G36*
X190491156Y-86653951D02*
G01*
X190731376Y-86868624D01*
X190946049Y-87108844D01*
X190965000Y-87135553D01*
X190965001Y-104165000D01*
X186683647Y-104165000D01*
X186650000Y-104161686D01*
X186616353Y-104165000D01*
X186515717Y-104174912D01*
X186386594Y-104214081D01*
X186267593Y-104277688D01*
X186163289Y-104363289D01*
X186077688Y-104467593D01*
X186014081Y-104586594D01*
X185974912Y-104715717D01*
X185961686Y-104850000D01*
X185965000Y-104883647D01*
X185965001Y-107316343D01*
X185961686Y-107350000D01*
X185974912Y-107484283D01*
X186014081Y-107613406D01*
X186077688Y-107732407D01*
X186163289Y-107836711D01*
X186267593Y-107922312D01*
X186386594Y-107985919D01*
X186515717Y-108025088D01*
X186616353Y-108035000D01*
X186650000Y-108038314D01*
X186683647Y-108035000D01*
X189465000Y-108035000D01*
X189465001Y-113316343D01*
X189461686Y-113350000D01*
X189474912Y-113484283D01*
X189514081Y-113613406D01*
X189577688Y-113732407D01*
X189663289Y-113836711D01*
X189767593Y-113922312D01*
X189886594Y-113985919D01*
X190015717Y-114025088D01*
X190116353Y-114035000D01*
X190150000Y-114038314D01*
X190183647Y-114035000D01*
X190965000Y-114035000D01*
X190965001Y-132165000D01*
X188433647Y-132165000D01*
X188400000Y-132161686D01*
X188366353Y-132165000D01*
X188265717Y-132174912D01*
X188136594Y-132214081D01*
X188017593Y-132277688D01*
X187913289Y-132363289D01*
X187832337Y-132461928D01*
X184400000Y-132461928D01*
X184360000Y-132465868D01*
X184360000Y-132237322D01*
X184363676Y-132199999D01*
X184360000Y-132162676D01*
X184360000Y-132162667D01*
X184349003Y-132051014D01*
X184312856Y-131931850D01*
X184337575Y-131907131D01*
X184439899Y-131753992D01*
X184510381Y-131583832D01*
X184546313Y-131403192D01*
X184546313Y-131219014D01*
X184510381Y-131038374D01*
X184439899Y-130868214D01*
X184371313Y-130765568D01*
X184371313Y-129507178D01*
X184374990Y-129469845D01*
X184360316Y-129320859D01*
X184316859Y-129177598D01*
X184246287Y-129045569D01*
X184209753Y-129001052D01*
X184151314Y-128929844D01*
X184122316Y-128906046D01*
X182205272Y-126989003D01*
X182181469Y-126959999D01*
X182065744Y-126865026D01*
X181933715Y-126794454D01*
X181790454Y-126750997D01*
X181678801Y-126740000D01*
X181678790Y-126740000D01*
X181641468Y-126736324D01*
X181604146Y-126740000D01*
X177022084Y-126740000D01*
X172260000Y-121977917D01*
X172260000Y-117213430D01*
X172263677Y-117176097D01*
X172252741Y-117065058D01*
X172249003Y-117027111D01*
X172205546Y-116883850D01*
X172134974Y-116751821D01*
X172040001Y-116636096D01*
X172011003Y-116612298D01*
X169416542Y-114017838D01*
X169467603Y-113941420D01*
X169538085Y-113771260D01*
X169562170Y-113650179D01*
X169580858Y-113631491D01*
X169609862Y-113607688D01*
X169704835Y-113491963D01*
X169775407Y-113359934D01*
X169818864Y-113216673D01*
X169829861Y-113105020D01*
X169829861Y-113105012D01*
X169833537Y-113067687D01*
X169829861Y-113030362D01*
X169829861Y-112539088D01*
X169833538Y-112501755D01*
X169818864Y-112352769D01*
X169775407Y-112209508D01*
X169704835Y-112077479D01*
X169633660Y-111990752D01*
X169609862Y-111961754D01*
X169580865Y-111937957D01*
X168631910Y-110989002D01*
X168608107Y-110959999D01*
X168492382Y-110865026D01*
X168360353Y-110794454D01*
X168217092Y-110750997D01*
X168105439Y-110740000D01*
X168105428Y-110740000D01*
X168068106Y-110736324D01*
X168030784Y-110740000D01*
X167915243Y-110740000D01*
X167892820Y-110627271D01*
X167822338Y-110457111D01*
X167720014Y-110303972D01*
X167589780Y-110173738D01*
X167436641Y-110071414D01*
X167266481Y-110000932D01*
X167085841Y-109965000D01*
X166901663Y-109965000D01*
X166721023Y-110000932D01*
X166550863Y-110071414D01*
X166546205Y-110074527D01*
X163960680Y-107489003D01*
X163936877Y-107459999D01*
X163821152Y-107365026D01*
X163689123Y-107294454D01*
X163545862Y-107250997D01*
X163434209Y-107240000D01*
X163434198Y-107240000D01*
X163396876Y-107236324D01*
X163359554Y-107240000D01*
X154943125Y-107240000D01*
X154840479Y-107171414D01*
X154670319Y-107100932D01*
X154489679Y-107065000D01*
X154305501Y-107065000D01*
X154124861Y-107100932D01*
X153954701Y-107171414D01*
X153801562Y-107273738D01*
X153671328Y-107403972D01*
X153569004Y-107557111D01*
X153498522Y-107727271D01*
X153462590Y-107907911D01*
X153462590Y-108092089D01*
X153498522Y-108272729D01*
X153569004Y-108442889D01*
X153671328Y-108596028D01*
X153801562Y-108726262D01*
X153954701Y-108828586D01*
X154089557Y-108884445D01*
X154064998Y-109007911D01*
X154064998Y-109192089D01*
X154100930Y-109372729D01*
X154171412Y-109542889D01*
X154273736Y-109696028D01*
X154403970Y-109826262D01*
X154557109Y-109928586D01*
X154727269Y-109999068D01*
X154907909Y-110035000D01*
X155092087Y-110035000D01*
X155272727Y-109999068D01*
X155442887Y-109928586D01*
X155545533Y-109860000D01*
X156436301Y-109860000D01*
X156371414Y-109957111D01*
X156300932Y-110127271D01*
X156265000Y-110307911D01*
X156265000Y-110492089D01*
X156300932Y-110672729D01*
X156371414Y-110842889D01*
X156473738Y-110996028D01*
X156603972Y-111126262D01*
X156757111Y-111228586D01*
X156927271Y-111299068D01*
X157048351Y-111323153D01*
X157640001Y-111914803D01*
X157640000Y-113260018D01*
X157623296Y-113235018D01*
X157493062Y-113104784D01*
X157339923Y-113002460D01*
X157169763Y-112931978D01*
X156989123Y-112896046D01*
X156804945Y-112896046D01*
X156624305Y-112931978D01*
X156454145Y-113002460D01*
X156336986Y-113080743D01*
X156323784Y-113082043D01*
X156180523Y-113125500D01*
X156048494Y-113196072D01*
X155932769Y-113291045D01*
X155908970Y-113320044D01*
X155588997Y-113640017D01*
X155577371Y-113649559D01*
X155428567Y-113619960D01*
X155244389Y-113619960D01*
X155063749Y-113655892D01*
X154893589Y-113726374D01*
X154815852Y-113778316D01*
X154147946Y-113110411D01*
X154147946Y-113098337D01*
X154112014Y-112917697D01*
X154041532Y-112747537D01*
X153939208Y-112594398D01*
X153808974Y-112464164D01*
X153745535Y-112421776D01*
X153745535Y-112413161D01*
X153709603Y-112232521D01*
X153639121Y-112062361D01*
X153536797Y-111909222D01*
X153406563Y-111778988D01*
X153343124Y-111736600D01*
X153343124Y-111605510D01*
X153307192Y-111424870D01*
X153236710Y-111254710D01*
X153134386Y-111101571D01*
X153004152Y-110971337D01*
X152939755Y-110928308D01*
X152939755Y-110783406D01*
X152903823Y-110602766D01*
X152833341Y-110432606D01*
X152731017Y-110279467D01*
X152600783Y-110149233D01*
X152472956Y-110063822D01*
X152472956Y-110007911D01*
X152437024Y-109827271D01*
X152366542Y-109657111D01*
X152264218Y-109503972D01*
X152133984Y-109373738D01*
X151980845Y-109271414D01*
X151810685Y-109200932D01*
X151630045Y-109165000D01*
X151560000Y-109165000D01*
X151560000Y-109159170D01*
X151563676Y-109121847D01*
X151560000Y-109084524D01*
X151560000Y-109084514D01*
X151549003Y-108972861D01*
X151505546Y-108829600D01*
X151481205Y-108784062D01*
X151434974Y-108697570D01*
X151363799Y-108610844D01*
X151340001Y-108581846D01*
X151311004Y-108558049D01*
X148396871Y-105643917D01*
X148373068Y-105614913D01*
X148257343Y-105519940D01*
X148125314Y-105449368D01*
X147982053Y-105405911D01*
X147968851Y-105404611D01*
X147851692Y-105326328D01*
X147681532Y-105255846D01*
X147570564Y-105233773D01*
X147570564Y-104278364D01*
X147681530Y-104256291D01*
X147851690Y-104185809D01*
X148004829Y-104083485D01*
X148135063Y-103953251D01*
X148232550Y-103807351D01*
X148576847Y-104151649D01*
X148600932Y-104272729D01*
X148671414Y-104442889D01*
X148773738Y-104596028D01*
X148903972Y-104726262D01*
X149057111Y-104828586D01*
X149227271Y-104899068D01*
X149407911Y-104935000D01*
X149592089Y-104935000D01*
X149772729Y-104899068D01*
X149942889Y-104828586D01*
X150096028Y-104726262D01*
X150226262Y-104596028D01*
X150328586Y-104442889D01*
X150399068Y-104272729D01*
X150435000Y-104092089D01*
X150435000Y-103907911D01*
X150399068Y-103727271D01*
X150328586Y-103557111D01*
X150226262Y-103403972D01*
X150096028Y-103273738D01*
X149942889Y-103171414D01*
X149772729Y-103100932D01*
X149651649Y-103076847D01*
X149297019Y-102722217D01*
X156850695Y-102722217D01*
X156850695Y-102906395D01*
X156886627Y-103087035D01*
X156957109Y-103257195D01*
X157059433Y-103410334D01*
X157189667Y-103540568D01*
X157342806Y-103642892D01*
X157512966Y-103713374D01*
X157693606Y-103749306D01*
X157877784Y-103749306D01*
X158058424Y-103713374D01*
X158126925Y-103685000D01*
X162893308Y-103685000D01*
X162927271Y-103699068D01*
X163107911Y-103735000D01*
X163292089Y-103735000D01*
X163472729Y-103699068D01*
X163642889Y-103628586D01*
X163796028Y-103526262D01*
X163926262Y-103396028D01*
X164028586Y-103242889D01*
X164099068Y-103072729D01*
X164135000Y-102892089D01*
X164135000Y-102707911D01*
X164099068Y-102527271D01*
X164028586Y-102357111D01*
X163926262Y-102203972D01*
X163796028Y-102073738D01*
X163642889Y-101971414D01*
X163472729Y-101900932D01*
X163292089Y-101865000D01*
X163107911Y-101865000D01*
X162927271Y-101900932D01*
X162893308Y-101915000D01*
X158057228Y-101915000D01*
X157877784Y-101879306D01*
X157693606Y-101879306D01*
X157512966Y-101915238D01*
X157342806Y-101985720D01*
X157189667Y-102088044D01*
X157059433Y-102218278D01*
X156957109Y-102371417D01*
X156886627Y-102541577D01*
X156850695Y-102722217D01*
X149297019Y-102722217D01*
X148784164Y-102209363D01*
X148828586Y-102142881D01*
X148899068Y-101972721D01*
X148935000Y-101792081D01*
X148935000Y-101607903D01*
X148899068Y-101427263D01*
X148828586Y-101257103D01*
X148726262Y-101103964D01*
X148668877Y-101046579D01*
X148734973Y-100966040D01*
X148734975Y-100966038D01*
X148796457Y-100851014D01*
X148805546Y-100834011D01*
X148839536Y-100721957D01*
X148849003Y-100690749D01*
X148860000Y-100579096D01*
X148860000Y-100579094D01*
X148863677Y-100541764D01*
X148860000Y-100504431D01*
X148860000Y-96160000D01*
X156362569Y-96160000D01*
X156399891Y-96163676D01*
X156437213Y-96160000D01*
X156437224Y-96160000D01*
X156548877Y-96149003D01*
X156692138Y-96105546D01*
X156824167Y-96034974D01*
X156939892Y-95940001D01*
X156963695Y-95910997D01*
X157133192Y-95741500D01*
X157254273Y-95717415D01*
X157424433Y-95646933D01*
X157527079Y-95578347D01*
X164881923Y-95578347D01*
X164957111Y-95628586D01*
X165127271Y-95699068D01*
X165307911Y-95735000D01*
X165492089Y-95735000D01*
X165672729Y-95699068D01*
X165842889Y-95628586D01*
X165996028Y-95526262D01*
X166126262Y-95396028D01*
X166228586Y-95242889D01*
X166299068Y-95072729D01*
X166320053Y-94967233D01*
X167697386Y-94967233D01*
X167719352Y-95020263D01*
X167821676Y-95173402D01*
X167951910Y-95303636D01*
X168105049Y-95405960D01*
X168275209Y-95476442D01*
X168455849Y-95512374D01*
X168640027Y-95512374D01*
X168820667Y-95476442D01*
X168896657Y-95444966D01*
X169027271Y-95499068D01*
X169097962Y-95513130D01*
X170336481Y-96751649D01*
X170360566Y-96872729D01*
X170431048Y-97042889D01*
X170533372Y-97196028D01*
X170663606Y-97326262D01*
X170816745Y-97428586D01*
X170986905Y-97499068D01*
X171077037Y-97516997D01*
X171077037Y-97662341D01*
X170489002Y-98250377D01*
X170459999Y-98274179D01*
X170435549Y-98303972D01*
X170365026Y-98389904D01*
X170324532Y-98465662D01*
X170294454Y-98521934D01*
X170250997Y-98665195D01*
X170240000Y-98776848D01*
X170240000Y-98776858D01*
X170236324Y-98814180D01*
X170240000Y-98851503D01*
X170240001Y-100386932D01*
X170236324Y-100424264D01*
X170240001Y-100461597D01*
X170250998Y-100573250D01*
X170258514Y-100598027D01*
X170294454Y-100716510D01*
X170365026Y-100848540D01*
X170413751Y-100907911D01*
X170460000Y-100964265D01*
X170488998Y-100988063D01*
X171011936Y-101511002D01*
X171035735Y-101540001D01*
X171151460Y-101634974D01*
X171283489Y-101705546D01*
X171426750Y-101749003D01*
X171439952Y-101750303D01*
X171557111Y-101828586D01*
X171727271Y-101899068D01*
X171907911Y-101935000D01*
X172092089Y-101935000D01*
X172272729Y-101899068D01*
X172442889Y-101828586D01*
X172596028Y-101726262D01*
X172726262Y-101596028D01*
X172828586Y-101442889D01*
X172899068Y-101272729D01*
X172935000Y-101092089D01*
X172935000Y-100907911D01*
X172899068Y-100727271D01*
X172840350Y-100585512D01*
X172890305Y-100464909D01*
X172926237Y-100284269D01*
X172926237Y-100100091D01*
X172890305Y-99919451D01*
X172828585Y-99770444D01*
X172846996Y-99742889D01*
X172917478Y-99572729D01*
X172941563Y-99451648D01*
X173152855Y-99240356D01*
X173181859Y-99216553D01*
X173276832Y-99100828D01*
X173347404Y-98968799D01*
X173390861Y-98825538D01*
X173401858Y-98713885D01*
X173401858Y-98713875D01*
X173405534Y-98676552D01*
X173401858Y-98639229D01*
X173401858Y-95986434D01*
X173405534Y-95949111D01*
X173401858Y-95911788D01*
X173401858Y-95911779D01*
X173390861Y-95800126D01*
X173347404Y-95656865D01*
X173276832Y-95524836D01*
X173181859Y-95409111D01*
X173152862Y-95385314D01*
X170256550Y-92489003D01*
X170232747Y-92459999D01*
X170117022Y-92365026D01*
X169984993Y-92294454D01*
X169841732Y-92250997D01*
X169730079Y-92240000D01*
X169730068Y-92240000D01*
X169692746Y-92236324D01*
X169655424Y-92240000D01*
X148914802Y-92240000D01*
X147963804Y-91289003D01*
X147940001Y-91259999D01*
X147824276Y-91165026D01*
X147692247Y-91094454D01*
X147548986Y-91050997D01*
X147437333Y-91040000D01*
X147437322Y-91040000D01*
X147400000Y-91036324D01*
X147362678Y-91040000D01*
X143732521Y-91040000D01*
X143695188Y-91036323D01*
X143657855Y-91040000D01*
X143546202Y-91050997D01*
X143402941Y-91094454D01*
X143270912Y-91165026D01*
X143155187Y-91259999D01*
X143131389Y-91288997D01*
X142543539Y-91876847D01*
X142422459Y-91900932D01*
X142252299Y-91971414D01*
X142099160Y-92073738D01*
X141968926Y-92203972D01*
X141866602Y-92357111D01*
X141796120Y-92527271D01*
X141760188Y-92707911D01*
X141760188Y-92892089D01*
X141796120Y-93072729D01*
X141866602Y-93242889D01*
X141968926Y-93396028D01*
X142099160Y-93526262D01*
X142252299Y-93628586D01*
X142422459Y-93699068D01*
X142436832Y-93701927D01*
X142415000Y-93923592D01*
X142415000Y-98270680D01*
X142129162Y-98556518D01*
X142034343Y-98634334D01*
X141723806Y-99012724D01*
X141711169Y-99036367D01*
X141423153Y-98748351D01*
X141399068Y-98627271D01*
X141328586Y-98457111D01*
X141226262Y-98303972D01*
X141096028Y-98173738D01*
X140942889Y-98071414D01*
X140772729Y-98000932D01*
X140592089Y-97965000D01*
X140407911Y-97965000D01*
X140227271Y-98000932D01*
X140057111Y-98071414D01*
X139903972Y-98173738D01*
X139773738Y-98303972D01*
X139671414Y-98457111D01*
X139600932Y-98627271D01*
X139565000Y-98807911D01*
X139565000Y-98992089D01*
X139600932Y-99172729D01*
X139671414Y-99342889D01*
X139773738Y-99496028D01*
X139903972Y-99626262D01*
X140057111Y-99728586D01*
X140227271Y-99799068D01*
X140348351Y-99823153D01*
X140625773Y-100100574D01*
X140587996Y-100157111D01*
X140517514Y-100327271D01*
X140481582Y-100507911D01*
X140481582Y-100692089D01*
X140517514Y-100872729D01*
X140587996Y-101042889D01*
X140690320Y-101196028D01*
X140820554Y-101326262D01*
X140973693Y-101428586D01*
X141143853Y-101499068D01*
X141315005Y-101533113D01*
X141315001Y-112198877D01*
X140835000Y-111718876D01*
X140835000Y-107650835D01*
X140840007Y-107600000D01*
X140835000Y-107549162D01*
X140820024Y-107397105D01*
X140760841Y-107202007D01*
X140709169Y-107105336D01*
X140664734Y-107022202D01*
X140567803Y-106904092D01*
X140535396Y-106864604D01*
X140495908Y-106832197D01*
X139767807Y-106104097D01*
X139735396Y-106064604D01*
X139577797Y-105935266D01*
X139397993Y-105839159D01*
X139202895Y-105779976D01*
X139050838Y-105765000D01*
X139050828Y-105765000D01*
X139000000Y-105759994D01*
X138949172Y-105765000D01*
X137049162Y-105765000D01*
X136897105Y-105779976D01*
X136702007Y-105839159D01*
X136522203Y-105935266D01*
X136364604Y-106064604D01*
X136235266Y-106222203D01*
X136139159Y-106402007D01*
X136079976Y-106597105D01*
X136059993Y-106800000D01*
X136079976Y-107002895D01*
X136139159Y-107197993D01*
X136235266Y-107377797D01*
X136364604Y-107535396D01*
X136522203Y-107664734D01*
X136702007Y-107760841D01*
X136897105Y-107820024D01*
X137049162Y-107835000D01*
X137844803Y-107835000D01*
X137844803Y-107892089D01*
X137880735Y-108072729D01*
X137951217Y-108242889D01*
X138019803Y-108345536D01*
X138019804Y-110697514D01*
X137896028Y-110573738D01*
X137742889Y-110471414D01*
X137572729Y-110400932D01*
X137392089Y-110365000D01*
X137207911Y-110365000D01*
X137027271Y-110400932D01*
X136857111Y-110471414D01*
X136703972Y-110573738D01*
X136573738Y-110703972D01*
X136471414Y-110857111D01*
X136400932Y-111027271D01*
X136365000Y-111207911D01*
X136365000Y-111392089D01*
X136400932Y-111572729D01*
X136471414Y-111742889D01*
X136573738Y-111896028D01*
X136703972Y-112026262D01*
X136857111Y-112128586D01*
X137027271Y-112199068D01*
X137148352Y-112223153D01*
X140389991Y-115464794D01*
X140389991Y-116452804D01*
X138826189Y-114889003D01*
X138802386Y-114859999D01*
X138686661Y-114765026D01*
X138554632Y-114694454D01*
X138411371Y-114650997D01*
X138299718Y-114640000D01*
X138299707Y-114640000D01*
X138262385Y-114636324D01*
X138225063Y-114640000D01*
X135320742Y-114640000D01*
X135283417Y-114636324D01*
X135246092Y-114640000D01*
X135246084Y-114640000D01*
X135134431Y-114650997D01*
X134991170Y-114694454D01*
X134859141Y-114765026D01*
X134743416Y-114859999D01*
X134719617Y-114888998D01*
X134580140Y-115028475D01*
X134459060Y-115052560D01*
X134288900Y-115123042D01*
X134135761Y-115225366D01*
X134005527Y-115355600D01*
X133903203Y-115508739D01*
X133832721Y-115678899D01*
X133796789Y-115859539D01*
X133796789Y-116043717D01*
X133832721Y-116224357D01*
X133903203Y-116394517D01*
X134005527Y-116547656D01*
X134135761Y-116677890D01*
X134288900Y-116780214D01*
X134459060Y-116850696D01*
X134603727Y-116879472D01*
X134671414Y-117042885D01*
X134773738Y-117196024D01*
X134903972Y-117326258D01*
X135057111Y-117428582D01*
X135227271Y-117499064D01*
X135407911Y-117534996D01*
X135592089Y-117534996D01*
X135772729Y-117499064D01*
X135942889Y-117428582D01*
X136045535Y-117359996D01*
X136885195Y-117359996D01*
X137612548Y-118087350D01*
X137596174Y-118098291D01*
X137060384Y-118098291D01*
X137027375Y-118076235D01*
X136857215Y-118005753D01*
X136676575Y-117969821D01*
X136492397Y-117969821D01*
X136311757Y-118005753D01*
X136141597Y-118076235D01*
X135988458Y-118178559D01*
X135858224Y-118308793D01*
X135755900Y-118461932D01*
X135685418Y-118632092D01*
X135649486Y-118812732D01*
X135649486Y-118951361D01*
X135539852Y-118962159D01*
X135396591Y-119005616D01*
X135264562Y-119076188D01*
X135148837Y-119171161D01*
X135125039Y-119200159D01*
X133648352Y-120676847D01*
X133527271Y-120700932D01*
X133357111Y-120771414D01*
X133203972Y-120873738D01*
X133073738Y-121003972D01*
X132971414Y-121157111D01*
X132900932Y-121327271D01*
X132865000Y-121507911D01*
X132865000Y-121692089D01*
X132900932Y-121872729D01*
X132971414Y-122042889D01*
X133073738Y-122196028D01*
X133203972Y-122326262D01*
X133357111Y-122428586D01*
X133527271Y-122499068D01*
X133707911Y-122535000D01*
X133892089Y-122535000D01*
X134072729Y-122499068D01*
X134242889Y-122428586D01*
X134396028Y-122326262D01*
X134526262Y-122196028D01*
X134628586Y-122042889D01*
X134699068Y-121872729D01*
X134723153Y-121751648D01*
X135976618Y-120498183D01*
X135997809Y-120604714D01*
X136068291Y-120774874D01*
X136170615Y-120928013D01*
X136300849Y-121058247D01*
X136453988Y-121160571D01*
X136624148Y-121231053D01*
X136745228Y-121255138D01*
X137167065Y-121676974D01*
X137190863Y-121705973D01*
X137282559Y-121781226D01*
X137368546Y-121867213D01*
X132389003Y-126846756D01*
X132359999Y-126870559D01*
X132305203Y-126937329D01*
X132265026Y-126986284D01*
X132217219Y-127075724D01*
X132194454Y-127118314D01*
X132150997Y-127261575D01*
X132140000Y-127373228D01*
X132140000Y-127373238D01*
X132136324Y-127410560D01*
X132140000Y-127447883D01*
X132140001Y-130665660D01*
X132076686Y-130623355D01*
X131906526Y-130552873D01*
X131785446Y-130528788D01*
X124404336Y-123147679D01*
X124404336Y-119536339D01*
X124472922Y-119433693D01*
X124543404Y-119263533D01*
X124579336Y-119082893D01*
X124579336Y-118898715D01*
X124543404Y-118718075D01*
X124472922Y-118547915D01*
X124370598Y-118394776D01*
X124240364Y-118264542D01*
X124087225Y-118162218D01*
X123917065Y-118091736D01*
X123736425Y-118055804D01*
X123552247Y-118055804D01*
X123371607Y-118091736D01*
X123201447Y-118162218D01*
X123142906Y-118201334D01*
X123062411Y-118185322D01*
X123062411Y-117139712D01*
X123066087Y-117102389D01*
X123062411Y-117065066D01*
X123062411Y-117065057D01*
X123051414Y-116953404D01*
X123007957Y-116810143D01*
X123003158Y-116801164D01*
X122937385Y-116678113D01*
X122866210Y-116591387D01*
X122842412Y-116562389D01*
X122813415Y-116538592D01*
X119463825Y-113189003D01*
X119440022Y-113159999D01*
X119324297Y-113065026D01*
X119192268Y-112994454D01*
X119049007Y-112950997D01*
X118937354Y-112940000D01*
X118937343Y-112940000D01*
X118900021Y-112936324D01*
X118862699Y-112940000D01*
X118509999Y-112940000D01*
X118509999Y-112930501D01*
X118474067Y-112749861D01*
X118403585Y-112579701D01*
X118334999Y-112477055D01*
X118334999Y-102939800D01*
X119751649Y-101523151D01*
X119872729Y-101499066D01*
X120042889Y-101428584D01*
X120196028Y-101326260D01*
X120326262Y-101196026D01*
X120428586Y-101042887D01*
X120499068Y-100872727D01*
X120535000Y-100692087D01*
X120535000Y-100507909D01*
X120499068Y-100327269D01*
X120428586Y-100157109D01*
X120326262Y-100003970D01*
X120196028Y-99873736D01*
X120042889Y-99771412D01*
X119872729Y-99700930D01*
X119692089Y-99664998D01*
X119507911Y-99664998D01*
X119327271Y-99700930D01*
X119157111Y-99771412D01*
X119003972Y-99873736D01*
X118873738Y-100003970D01*
X118771414Y-100157109D01*
X118700932Y-100327269D01*
X118676847Y-100448349D01*
X117063997Y-102061200D01*
X117036481Y-102083782D01*
X116900380Y-102056709D01*
X116716202Y-102056709D01*
X116535562Y-102092641D01*
X116365402Y-102163123D01*
X116212263Y-102265447D01*
X116082029Y-102395681D01*
X115979705Y-102548820D01*
X115909223Y-102718980D01*
X115873291Y-102899620D01*
X115873291Y-103040904D01*
X115824151Y-103073738D01*
X115693917Y-103203972D01*
X115591593Y-103357111D01*
X115521111Y-103527271D01*
X115485179Y-103707911D01*
X115485179Y-103892089D01*
X115521111Y-104072729D01*
X115591593Y-104242889D01*
X115660180Y-104345537D01*
X115660179Y-113178096D01*
X113292221Y-110810139D01*
X113292221Y-103668125D01*
X113360807Y-103565479D01*
X113431289Y-103395319D01*
X113467221Y-103214679D01*
X113467221Y-103030501D01*
X113431289Y-102849861D01*
X113360807Y-102679701D01*
X113258483Y-102526562D01*
X113128249Y-102396328D01*
X112975110Y-102294004D01*
X112804950Y-102223522D01*
X112765777Y-102215730D01*
X112721641Y-102109175D01*
X112619317Y-101956036D01*
X112489083Y-101825802D01*
X112335944Y-101723478D01*
X112165784Y-101652996D01*
X111985144Y-101617064D01*
X111800966Y-101617064D01*
X111620326Y-101652996D01*
X111450166Y-101723478D01*
X111341667Y-101795974D01*
X111298438Y-101752745D01*
X111145299Y-101650421D01*
X110975139Y-101579939D01*
X110794499Y-101544007D01*
X110610321Y-101544007D01*
X110429681Y-101579939D01*
X110259521Y-101650421D01*
X110106382Y-101752745D01*
X109976148Y-101882979D01*
X109873824Y-102036118D01*
X109803342Y-102206278D01*
X109767410Y-102386918D01*
X109767410Y-102571096D01*
X109803342Y-102751736D01*
X109873824Y-102921896D01*
X109942411Y-103024544D01*
X109942410Y-110965090D01*
X109938734Y-111002413D01*
X109942410Y-111039735D01*
X109942410Y-111039745D01*
X109953407Y-111151398D01*
X109993372Y-111283146D01*
X109996864Y-111294659D01*
X110067436Y-111426689D01*
X110107281Y-111475239D01*
X110162409Y-111542414D01*
X110191413Y-111566217D01*
X114810744Y-116185550D01*
X113055866Y-116185550D01*
X113046799Y-116139967D01*
X112976317Y-115969807D01*
X112873993Y-115816668D01*
X112743759Y-115686434D01*
X112590620Y-115584110D01*
X112420460Y-115513628D01*
X112239820Y-115477696D01*
X112055642Y-115477696D01*
X111875002Y-115513628D01*
X111704842Y-115584110D01*
X111551703Y-115686434D01*
X111421469Y-115816668D01*
X111319145Y-115969807D01*
X111248663Y-116139967D01*
X111212731Y-116320607D01*
X111212731Y-116410444D01*
X111118006Y-116505169D01*
X111063527Y-116586703D01*
X110940083Y-116611258D01*
X110769923Y-116681740D01*
X110616784Y-116784064D01*
X110486550Y-116914298D01*
X110384226Y-117067437D01*
X110326490Y-117206825D01*
X110259521Y-117234564D01*
X110106382Y-117336888D01*
X109976148Y-117467122D01*
X109873824Y-117620261D01*
X109803342Y-117790421D01*
X109767410Y-117971061D01*
X109767410Y-118155239D01*
X109803342Y-118335879D01*
X109873824Y-118506039D01*
X109976148Y-118659178D01*
X110106382Y-118789412D01*
X110259521Y-118891736D01*
X110429681Y-118962218D01*
X110610321Y-118998150D01*
X110794499Y-118998150D01*
X110895968Y-118977966D01*
X110900932Y-119002922D01*
X110971414Y-119173082D01*
X111073738Y-119326221D01*
X111203972Y-119456455D01*
X111357111Y-119558779D01*
X111527271Y-119629261D01*
X111707911Y-119665193D01*
X111892089Y-119665193D01*
X112072729Y-119629261D01*
X112242889Y-119558779D01*
X112345535Y-119490193D01*
X115340000Y-119490193D01*
X115340001Y-120762668D01*
X115336324Y-120800000D01*
X115340001Y-120837332D01*
X115340001Y-120837333D01*
X115350998Y-120948986D01*
X115355491Y-120963798D01*
X115394454Y-121092246D01*
X115465026Y-121224276D01*
X115536201Y-121311002D01*
X115560000Y-121340001D01*
X115588998Y-121363799D01*
X115723123Y-121497924D01*
X115723124Y-126777698D01*
X115700978Y-126773293D01*
X115516800Y-126773293D01*
X115336160Y-126809225D01*
X115242958Y-126847830D01*
X115129254Y-126800733D01*
X114948614Y-126764801D01*
X114764436Y-126764801D01*
X114583796Y-126800733D01*
X114465221Y-126849848D01*
X114376947Y-126813284D01*
X114196307Y-126777352D01*
X114012129Y-126777352D01*
X113831489Y-126813284D01*
X113722892Y-126858266D01*
X113564444Y-126792635D01*
X113383804Y-126756703D01*
X113199626Y-126756703D01*
X113018986Y-126792635D01*
X112848826Y-126863117D01*
X112695687Y-126965441D01*
X112565453Y-127095675D01*
X112560000Y-127103836D01*
X112560000Y-125345553D01*
X112628586Y-125242907D01*
X112685744Y-125104914D01*
X112704745Y-125101134D01*
X112874905Y-125030652D01*
X113028044Y-124928328D01*
X113117039Y-124839333D01*
X113203968Y-124926262D01*
X113357107Y-125028586D01*
X113527267Y-125099068D01*
X113707907Y-125135000D01*
X113892085Y-125135000D01*
X114072725Y-125099068D01*
X114242885Y-125028586D01*
X114396024Y-124926262D01*
X114526258Y-124796028D01*
X114628582Y-124642889D01*
X114699064Y-124472729D01*
X114734996Y-124292089D01*
X114734996Y-124107911D01*
X114699064Y-123927271D01*
X114628582Y-123757111D01*
X114559049Y-123653047D01*
X114548999Y-123551010D01*
X114505542Y-123407749D01*
X114464856Y-123331632D01*
X114434970Y-123275719D01*
X114363795Y-123188993D01*
X114339997Y-123159995D01*
X114310998Y-123136196D01*
X113788801Y-122614000D01*
X113764999Y-122584997D01*
X113649274Y-122490024D01*
X113517245Y-122419452D01*
X113373984Y-122375995D01*
X113262331Y-122364998D01*
X113262320Y-122364998D01*
X113224998Y-122361322D01*
X113187676Y-122364998D01*
X111512324Y-122364998D01*
X111475001Y-122361322D01*
X111437678Y-122364998D01*
X111437669Y-122364998D01*
X111326016Y-122375995D01*
X111182755Y-122419452D01*
X111050726Y-122490024D01*
X111050724Y-122490025D01*
X111050725Y-122490025D01*
X110963998Y-122561199D01*
X110963994Y-122561203D01*
X110935001Y-122584997D01*
X110911207Y-122613990D01*
X109889002Y-123636197D01*
X109859999Y-123659999D01*
X109827175Y-123699996D01*
X109765026Y-123775724D01*
X109705678Y-123886755D01*
X109694454Y-123907754D01*
X109650997Y-124051015D01*
X109640000Y-124162668D01*
X109640000Y-124162678D01*
X109636324Y-124200000D01*
X109640000Y-124237323D01*
X109640001Y-127307787D01*
X105748352Y-131199437D01*
X105627271Y-131223522D01*
X105457111Y-131294004D01*
X105303972Y-131396328D01*
X105173738Y-131526562D01*
X105071414Y-131679701D01*
X105000932Y-131849861D01*
X104965000Y-132030501D01*
X104965000Y-132214679D01*
X105000932Y-132395319D01*
X105028522Y-132461928D01*
X104502177Y-132461928D01*
X104535000Y-132296916D01*
X104535000Y-132112738D01*
X104499068Y-131932098D01*
X104428586Y-131761938D01*
X104360000Y-131659292D01*
X104360000Y-118337322D01*
X104363676Y-118299999D01*
X104360000Y-118262676D01*
X104360000Y-118262667D01*
X104349003Y-118151014D01*
X104305546Y-118007753D01*
X104234974Y-117875724D01*
X104140001Y-117759999D01*
X104111004Y-117736202D01*
X103798688Y-117423886D01*
X103835000Y-117241335D01*
X103835000Y-116958665D01*
X103779853Y-116681426D01*
X103671680Y-116420273D01*
X103514637Y-116185241D01*
X103314759Y-115985363D01*
X103082241Y-115830000D01*
X103314759Y-115674637D01*
X103514637Y-115474759D01*
X103671680Y-115239727D01*
X103779853Y-114978574D01*
X103835000Y-114701335D01*
X103835000Y-114418665D01*
X103779853Y-114141426D01*
X103671680Y-113880273D01*
X103514637Y-113645241D01*
X103314759Y-113445363D01*
X103082241Y-113290000D01*
X103314759Y-113134637D01*
X103514637Y-112934759D01*
X103671680Y-112699727D01*
X103779853Y-112438574D01*
X103835000Y-112161335D01*
X103835000Y-111878665D01*
X103779853Y-111601426D01*
X103671680Y-111340273D01*
X103514637Y-111105241D01*
X103314759Y-110905363D01*
X103079727Y-110748320D01*
X102818574Y-110640147D01*
X102541335Y-110585000D01*
X102258665Y-110585000D01*
X101981426Y-110640147D01*
X101720273Y-110748320D01*
X101485241Y-110905363D01*
X101285363Y-111105241D01*
X101128320Y-111340273D01*
X101020147Y-111601426D01*
X100965000Y-111878665D01*
X100965000Y-112161335D01*
X101020147Y-112438574D01*
X101128320Y-112699727D01*
X101285363Y-112934759D01*
X101485241Y-113134637D01*
X101717759Y-113290000D01*
X101485241Y-113445363D01*
X101285363Y-113645241D01*
X101128320Y-113880273D01*
X101020147Y-114141426D01*
X100965000Y-114418665D01*
X100965000Y-114701335D01*
X100982166Y-114787635D01*
X100926262Y-114703968D01*
X100796028Y-114573734D01*
X100642889Y-114471410D01*
X100472729Y-114400928D01*
X100292089Y-114364996D01*
X100107911Y-114364996D01*
X99927271Y-114400928D01*
X99757111Y-114471410D01*
X99603972Y-114573734D01*
X99473738Y-114703968D01*
X99371414Y-114857107D01*
X99300932Y-115027267D01*
X99265000Y-115207907D01*
X99265000Y-115392085D01*
X99300932Y-115572725D01*
X99371414Y-115742885D01*
X99473738Y-115896024D01*
X99603972Y-116026258D01*
X99640001Y-116050332D01*
X99640000Y-132461928D01*
X99400000Y-132461928D01*
X99275518Y-132474188D01*
X99155820Y-132510498D01*
X99045506Y-132569463D01*
X98948815Y-132648815D01*
X98869463Y-132745506D01*
X98810498Y-132855820D01*
X98774188Y-132975518D01*
X98761928Y-133100000D01*
X98761928Y-133910222D01*
X95585000Y-133938461D01*
X95585000Y-132883646D01*
X95588314Y-132850000D01*
X95575088Y-132715717D01*
X95535919Y-132586594D01*
X95472312Y-132467593D01*
X95386711Y-132363289D01*
X95282407Y-132277688D01*
X95163406Y-132214081D01*
X95034283Y-132174912D01*
X94933647Y-132165000D01*
X94900000Y-132161686D01*
X94866353Y-132165000D01*
X92335000Y-132165000D01*
X92335000Y-116535000D01*
X93116353Y-116535000D01*
X93150000Y-116538314D01*
X93183647Y-116535000D01*
X93284283Y-116525088D01*
X93413406Y-116485919D01*
X93500386Y-116439428D01*
X93400147Y-116681426D01*
X93345000Y-116958665D01*
X93345000Y-117241335D01*
X93400147Y-117518574D01*
X93508320Y-117779727D01*
X93665363Y-118014759D01*
X93865241Y-118214637D01*
X94100273Y-118371680D01*
X94361426Y-118479853D01*
X94638665Y-118535000D01*
X94921335Y-118535000D01*
X95198574Y-118479853D01*
X95459727Y-118371680D01*
X95694759Y-118214637D01*
X95894637Y-118014759D01*
X96051680Y-117779727D01*
X96159853Y-117518574D01*
X96215000Y-117241335D01*
X96215000Y-116958665D01*
X96159853Y-116681426D01*
X96051680Y-116420273D01*
X95894637Y-116185241D01*
X95694759Y-115985363D01*
X95462241Y-115830000D01*
X95694759Y-115674637D01*
X95894637Y-115474759D01*
X96051680Y-115239727D01*
X96159853Y-114978574D01*
X96215000Y-114701335D01*
X96215000Y-114418665D01*
X96159853Y-114141426D01*
X96051680Y-113880273D01*
X95894637Y-113645241D01*
X95696039Y-113446643D01*
X95704482Y-113445812D01*
X95824180Y-113409502D01*
X95934494Y-113350537D01*
X96031185Y-113271185D01*
X96110537Y-113174494D01*
X96169502Y-113064180D01*
X96205812Y-112944482D01*
X96218072Y-112820000D01*
X96218072Y-111220000D01*
X96205812Y-111095518D01*
X96169502Y-110975820D01*
X96110537Y-110865506D01*
X96031185Y-110768815D01*
X95934494Y-110689463D01*
X95824180Y-110630498D01*
X95704482Y-110594188D01*
X95580000Y-110581928D01*
X93980000Y-110581928D01*
X93855518Y-110594188D01*
X93835000Y-110600412D01*
X93835000Y-110535000D01*
X96616353Y-110535000D01*
X96650000Y-110538314D01*
X96683647Y-110535000D01*
X96784283Y-110525088D01*
X96913406Y-110485919D01*
X97032407Y-110422312D01*
X97136711Y-110336711D01*
X97222312Y-110232407D01*
X97285919Y-110113406D01*
X97325088Y-109984283D01*
X97338314Y-109850000D01*
X97335000Y-109816353D01*
X97335000Y-107383646D01*
X97338314Y-107350000D01*
X97325088Y-107215717D01*
X97285919Y-107086594D01*
X97222312Y-106967593D01*
X97136711Y-106863289D01*
X97032407Y-106777688D01*
X96913406Y-106714081D01*
X96784283Y-106674912D01*
X96683647Y-106665000D01*
X96650000Y-106661686D01*
X96616353Y-106665000D01*
X92335000Y-106665000D01*
X92335000Y-92392409D01*
X120632916Y-92392409D01*
X120632916Y-92576587D01*
X120668848Y-92757227D01*
X120739330Y-92927387D01*
X120841654Y-93080526D01*
X120847199Y-93086071D01*
X120773467Y-93196420D01*
X120702985Y-93366580D01*
X120667053Y-93547220D01*
X120667053Y-93731398D01*
X120702985Y-93912038D01*
X120773467Y-94082198D01*
X120875791Y-94235337D01*
X121006025Y-94365571D01*
X121152288Y-94463301D01*
X121006382Y-94560792D01*
X120876148Y-94691026D01*
X120773824Y-94844165D01*
X120703342Y-95014325D01*
X120667410Y-95194965D01*
X120667410Y-95379143D01*
X120703342Y-95559783D01*
X120773824Y-95729943D01*
X120876148Y-95883082D01*
X121006382Y-96013316D01*
X121159521Y-96115640D01*
X121259459Y-96157035D01*
X121201298Y-96297450D01*
X121165366Y-96478090D01*
X121165366Y-96662268D01*
X121201298Y-96842908D01*
X121243976Y-96945943D01*
X121200932Y-97049861D01*
X121165000Y-97230501D01*
X121165000Y-97414679D01*
X121200932Y-97595319D01*
X121271414Y-97765479D01*
X121373738Y-97918618D01*
X121503972Y-98048852D01*
X121657111Y-98151176D01*
X121827271Y-98221658D01*
X121976551Y-98251352D01*
X122940001Y-99214803D01*
X122940000Y-102362677D01*
X122936324Y-102400000D01*
X122940000Y-102437322D01*
X122940000Y-102437332D01*
X122950997Y-102548985D01*
X122990649Y-102679701D01*
X122994454Y-102692246D01*
X123065026Y-102824276D01*
X123098448Y-102865000D01*
X123159999Y-102940001D01*
X123189002Y-102963803D01*
X123740001Y-103514803D01*
X123740000Y-105562677D01*
X123736324Y-105600000D01*
X123740000Y-105637322D01*
X123740000Y-105637332D01*
X123747087Y-105709286D01*
X123717307Y-105765000D01*
X123694455Y-105807753D01*
X123650998Y-105951014D01*
X123640001Y-106062667D01*
X123640001Y-106062677D01*
X123636325Y-106099999D01*
X123640001Y-106137322D01*
X123640002Y-110885196D01*
X122089003Y-112436196D01*
X122059999Y-112459999D01*
X122025731Y-112501755D01*
X121965026Y-112575724D01*
X121901408Y-112694744D01*
X121894454Y-112707754D01*
X121850997Y-112851015D01*
X121840000Y-112962668D01*
X121840000Y-112962678D01*
X121836324Y-113000000D01*
X121840000Y-113037322D01*
X121840000Y-113362678D01*
X121836324Y-113400000D01*
X121840000Y-113437322D01*
X121840000Y-113437333D01*
X121850997Y-113548986D01*
X121894454Y-113692247D01*
X121965026Y-113824276D01*
X122059999Y-113940001D01*
X122089001Y-113963802D01*
X122936200Y-114811002D01*
X122959999Y-114840001D01*
X123075724Y-114934974D01*
X123207753Y-115005546D01*
X123351014Y-115049003D01*
X123462667Y-115060000D01*
X123462676Y-115060000D01*
X123499999Y-115063676D01*
X123537322Y-115060000D01*
X126507789Y-115060000D01*
X127499437Y-116051649D01*
X127523522Y-116172729D01*
X127594004Y-116342889D01*
X127696328Y-116496028D01*
X127826562Y-116626262D01*
X127979701Y-116728586D01*
X128149861Y-116799068D01*
X128330501Y-116835000D01*
X128514679Y-116835000D01*
X128695319Y-116799068D01*
X128865479Y-116728586D01*
X129018618Y-116626262D01*
X129148852Y-116496028D01*
X129251176Y-116342889D01*
X129321658Y-116172729D01*
X129357590Y-115992089D01*
X129357590Y-115807911D01*
X129321658Y-115627271D01*
X129251176Y-115457111D01*
X129148852Y-115303972D01*
X129018618Y-115173738D01*
X128865479Y-115071414D01*
X128695319Y-115000932D01*
X128574239Y-114976847D01*
X128097742Y-114500351D01*
X128130936Y-114514100D01*
X128311576Y-114550032D01*
X128495754Y-114550032D01*
X128676394Y-114514100D01*
X128846554Y-114443618D01*
X128999693Y-114341294D01*
X129129927Y-114211060D01*
X129232251Y-114057921D01*
X129302733Y-113887761D01*
X129338665Y-113707121D01*
X129338665Y-113522943D01*
X129302733Y-113342303D01*
X129252306Y-113220560D01*
X129406513Y-113220560D01*
X129587153Y-113184628D01*
X129757313Y-113114146D01*
X129910452Y-113011822D01*
X130040000Y-112882274D01*
X130040000Y-117950295D01*
X127488998Y-120501298D01*
X127460000Y-120525096D01*
X127436202Y-120554094D01*
X127436201Y-120554095D01*
X127365026Y-120640821D01*
X127294454Y-120772851D01*
X127269649Y-120854627D01*
X127250998Y-120916111D01*
X127244793Y-120979107D01*
X127236324Y-121065097D01*
X127240001Y-121102429D01*
X127240000Y-121754460D01*
X127171414Y-121857107D01*
X127100932Y-122027267D01*
X127065000Y-122207907D01*
X127065000Y-122392085D01*
X127100932Y-122572725D01*
X127171414Y-122742885D01*
X127273738Y-122896024D01*
X127403972Y-123026258D01*
X127557111Y-123128582D01*
X127727271Y-123199064D01*
X127907911Y-123234996D01*
X128092089Y-123234996D01*
X128272729Y-123199064D01*
X128442889Y-123128582D01*
X128596028Y-123026258D01*
X128726262Y-122896024D01*
X128828586Y-122742885D01*
X128899068Y-122572725D01*
X128935000Y-122392085D01*
X128935000Y-122207907D01*
X128899068Y-122027267D01*
X128828586Y-121857107D01*
X128760000Y-121754461D01*
X128760000Y-121379898D01*
X129824919Y-120314979D01*
X129924095Y-120381246D01*
X130094255Y-120451728D01*
X130274895Y-120487660D01*
X130459073Y-120487660D01*
X130639713Y-120451728D01*
X130809873Y-120381246D01*
X130963012Y-120278922D01*
X131093246Y-120148688D01*
X131195570Y-119995549D01*
X131266052Y-119825389D01*
X131290137Y-119704309D01*
X131888413Y-119106033D01*
X131917411Y-119082235D01*
X131959841Y-119030534D01*
X132012384Y-118966511D01*
X132082956Y-118834481D01*
X132089089Y-118814262D01*
X132126413Y-118691220D01*
X132137410Y-118579567D01*
X132137410Y-118579558D01*
X132141086Y-118542235D01*
X132137410Y-118504912D01*
X132137410Y-115235715D01*
X132205996Y-115133069D01*
X132276478Y-114962909D01*
X132312410Y-114782269D01*
X132312410Y-114598091D01*
X132276478Y-114417451D01*
X132205996Y-114247291D01*
X132103672Y-114094152D01*
X131973438Y-113963918D01*
X131820299Y-113861594D01*
X131650139Y-113791112D01*
X131560000Y-113773182D01*
X131560000Y-97652023D01*
X131563676Y-97614700D01*
X131560000Y-97577377D01*
X131560000Y-97577368D01*
X131549003Y-97465715D01*
X131505546Y-97322454D01*
X131434974Y-97190425D01*
X131434899Y-97190334D01*
X131406957Y-97049861D01*
X131336475Y-96879701D01*
X131234151Y-96726562D01*
X131103917Y-96596328D01*
X130950778Y-96494004D01*
X130780618Y-96423522D01*
X130599978Y-96387590D01*
X130415800Y-96387590D01*
X130379414Y-96394828D01*
X130379414Y-95950198D01*
X132451649Y-93877964D01*
X132572729Y-93853879D01*
X132742889Y-93783397D01*
X132896028Y-93681073D01*
X133026262Y-93550839D01*
X133128586Y-93397700D01*
X133199068Y-93227540D01*
X133235000Y-93046900D01*
X133235000Y-92862722D01*
X133199068Y-92682082D01*
X133128586Y-92511922D01*
X133038705Y-92377406D01*
X133128586Y-92242889D01*
X133199068Y-92072729D01*
X133235000Y-91892089D01*
X133235000Y-91707911D01*
X133199068Y-91527271D01*
X133128586Y-91357111D01*
X133026262Y-91203972D01*
X132896028Y-91073738D01*
X132742889Y-90971414D01*
X132572729Y-90900932D01*
X132392089Y-90865000D01*
X132207911Y-90865000D01*
X132027271Y-90900932D01*
X131857111Y-90971414D01*
X131703972Y-91073738D01*
X131573738Y-91203972D01*
X131471414Y-91357111D01*
X131400932Y-91527271D01*
X131376847Y-91648351D01*
X130885199Y-92140000D01*
X126714802Y-92140000D01*
X125763804Y-91189003D01*
X125740001Y-91159999D01*
X125624276Y-91065026D01*
X125492247Y-90994454D01*
X125348986Y-90950997D01*
X125237333Y-90940000D01*
X125237322Y-90940000D01*
X125200000Y-90936324D01*
X125162678Y-90940000D01*
X123945535Y-90940000D01*
X123842889Y-90871414D01*
X123672729Y-90800932D01*
X123492089Y-90765000D01*
X123307911Y-90765000D01*
X123127271Y-90800932D01*
X122957111Y-90871414D01*
X122803972Y-90973738D01*
X122673738Y-91103972D01*
X122571414Y-91257111D01*
X122500932Y-91427271D01*
X122500000Y-91431956D01*
X122499068Y-91427271D01*
X122428586Y-91257111D01*
X122326262Y-91103972D01*
X122196028Y-90973738D01*
X122042889Y-90871414D01*
X121872729Y-90800932D01*
X121692089Y-90765000D01*
X121507911Y-90765000D01*
X121327271Y-90800932D01*
X121157111Y-90871414D01*
X121003972Y-90973738D01*
X120873738Y-91103972D01*
X120771414Y-91257111D01*
X120700932Y-91427271D01*
X120665000Y-91607911D01*
X120665000Y-91792089D01*
X120700932Y-91972729D01*
X120734396Y-92053520D01*
X120668848Y-92211769D01*
X120632916Y-92392409D01*
X92335000Y-92392409D01*
X92335000Y-87144096D01*
X92358063Y-87111505D01*
X92572753Y-86870728D01*
X92813072Y-86655549D01*
X92912331Y-86585000D01*
X190393979Y-86585000D01*
X190491156Y-86653951D01*
G37*
X190491156Y-86653951D02*
X190731376Y-86868624D01*
X190946049Y-87108844D01*
X190965000Y-87135553D01*
X190965001Y-104165000D01*
X186683647Y-104165000D01*
X186650000Y-104161686D01*
X186616353Y-104165000D01*
X186515717Y-104174912D01*
X186386594Y-104214081D01*
X186267593Y-104277688D01*
X186163289Y-104363289D01*
X186077688Y-104467593D01*
X186014081Y-104586594D01*
X185974912Y-104715717D01*
X185961686Y-104850000D01*
X185965000Y-104883647D01*
X185965001Y-107316343D01*
X185961686Y-107350000D01*
X185974912Y-107484283D01*
X186014081Y-107613406D01*
X186077688Y-107732407D01*
X186163289Y-107836711D01*
X186267593Y-107922312D01*
X186386594Y-107985919D01*
X186515717Y-108025088D01*
X186616353Y-108035000D01*
X186650000Y-108038314D01*
X186683647Y-108035000D01*
X189465000Y-108035000D01*
X189465001Y-113316343D01*
X189461686Y-113350000D01*
X189474912Y-113484283D01*
X189514081Y-113613406D01*
X189577688Y-113732407D01*
X189663289Y-113836711D01*
X189767593Y-113922312D01*
X189886594Y-113985919D01*
X190015717Y-114025088D01*
X190116353Y-114035000D01*
X190150000Y-114038314D01*
X190183647Y-114035000D01*
X190965000Y-114035000D01*
X190965001Y-132165000D01*
X188433647Y-132165000D01*
X188400000Y-132161686D01*
X188366353Y-132165000D01*
X188265717Y-132174912D01*
X188136594Y-132214081D01*
X188017593Y-132277688D01*
X187913289Y-132363289D01*
X187832337Y-132461928D01*
X184400000Y-132461928D01*
X184360000Y-132465868D01*
X184360000Y-132237322D01*
X184363676Y-132199999D01*
X184360000Y-132162676D01*
X184360000Y-132162667D01*
X184349003Y-132051014D01*
X184312856Y-131931850D01*
X184337575Y-131907131D01*
X184439899Y-131753992D01*
X184510381Y-131583832D01*
X184546313Y-131403192D01*
X184546313Y-131219014D01*
X184510381Y-131038374D01*
X184439899Y-130868214D01*
X184371313Y-130765568D01*
X184371313Y-129507178D01*
X184374990Y-129469845D01*
X184360316Y-129320859D01*
X184316859Y-129177598D01*
X184246287Y-129045569D01*
X184209753Y-129001052D01*
X184151314Y-128929844D01*
X184122316Y-128906046D01*
X182205272Y-126989003D01*
X182181469Y-126959999D01*
X182065744Y-126865026D01*
X181933715Y-126794454D01*
X181790454Y-126750997D01*
X181678801Y-126740000D01*
X181678790Y-126740000D01*
X181641468Y-126736324D01*
X181604146Y-126740000D01*
X177022084Y-126740000D01*
X172260000Y-121977917D01*
X172260000Y-117213430D01*
X172263677Y-117176097D01*
X172252741Y-117065058D01*
X172249003Y-117027111D01*
X172205546Y-116883850D01*
X172134974Y-116751821D01*
X172040001Y-116636096D01*
X172011003Y-116612298D01*
X169416542Y-114017838D01*
X169467603Y-113941420D01*
X169538085Y-113771260D01*
X169562170Y-113650179D01*
X169580858Y-113631491D01*
X169609862Y-113607688D01*
X169704835Y-113491963D01*
X169775407Y-113359934D01*
X169818864Y-113216673D01*
X169829861Y-113105020D01*
X169829861Y-113105012D01*
X169833537Y-113067687D01*
X169829861Y-113030362D01*
X169829861Y-112539088D01*
X169833538Y-112501755D01*
X169818864Y-112352769D01*
X169775407Y-112209508D01*
X169704835Y-112077479D01*
X169633660Y-111990752D01*
X169609862Y-111961754D01*
X169580865Y-111937957D01*
X168631910Y-110989002D01*
X168608107Y-110959999D01*
X168492382Y-110865026D01*
X168360353Y-110794454D01*
X168217092Y-110750997D01*
X168105439Y-110740000D01*
X168105428Y-110740000D01*
X168068106Y-110736324D01*
X168030784Y-110740000D01*
X167915243Y-110740000D01*
X167892820Y-110627271D01*
X167822338Y-110457111D01*
X167720014Y-110303972D01*
X167589780Y-110173738D01*
X167436641Y-110071414D01*
X167266481Y-110000932D01*
X167085841Y-109965000D01*
X166901663Y-109965000D01*
X166721023Y-110000932D01*
X166550863Y-110071414D01*
X166546205Y-110074527D01*
X163960680Y-107489003D01*
X163936877Y-107459999D01*
X163821152Y-107365026D01*
X163689123Y-107294454D01*
X163545862Y-107250997D01*
X163434209Y-107240000D01*
X163434198Y-107240000D01*
X163396876Y-107236324D01*
X163359554Y-107240000D01*
X154943125Y-107240000D01*
X154840479Y-107171414D01*
X154670319Y-107100932D01*
X154489679Y-107065000D01*
X154305501Y-107065000D01*
X154124861Y-107100932D01*
X153954701Y-107171414D01*
X153801562Y-107273738D01*
X153671328Y-107403972D01*
X153569004Y-107557111D01*
X153498522Y-107727271D01*
X153462590Y-107907911D01*
X153462590Y-108092089D01*
X153498522Y-108272729D01*
X153569004Y-108442889D01*
X153671328Y-108596028D01*
X153801562Y-108726262D01*
X153954701Y-108828586D01*
X154089557Y-108884445D01*
X154064998Y-109007911D01*
X154064998Y-109192089D01*
X154100930Y-109372729D01*
X154171412Y-109542889D01*
X154273736Y-109696028D01*
X154403970Y-109826262D01*
X154557109Y-109928586D01*
X154727269Y-109999068D01*
X154907909Y-110035000D01*
X155092087Y-110035000D01*
X155272727Y-109999068D01*
X155442887Y-109928586D01*
X155545533Y-109860000D01*
X156436301Y-109860000D01*
X156371414Y-109957111D01*
X156300932Y-110127271D01*
X156265000Y-110307911D01*
X156265000Y-110492089D01*
X156300932Y-110672729D01*
X156371414Y-110842889D01*
X156473738Y-110996028D01*
X156603972Y-111126262D01*
X156757111Y-111228586D01*
X156927271Y-111299068D01*
X157048351Y-111323153D01*
X157640001Y-111914803D01*
X157640000Y-113260018D01*
X157623296Y-113235018D01*
X157493062Y-113104784D01*
X157339923Y-113002460D01*
X157169763Y-112931978D01*
X156989123Y-112896046D01*
X156804945Y-112896046D01*
X156624305Y-112931978D01*
X156454145Y-113002460D01*
X156336986Y-113080743D01*
X156323784Y-113082043D01*
X156180523Y-113125500D01*
X156048494Y-113196072D01*
X155932769Y-113291045D01*
X155908970Y-113320044D01*
X155588997Y-113640017D01*
X155577371Y-113649559D01*
X155428567Y-113619960D01*
X155244389Y-113619960D01*
X155063749Y-113655892D01*
X154893589Y-113726374D01*
X154815852Y-113778316D01*
X154147946Y-113110411D01*
X154147946Y-113098337D01*
X154112014Y-112917697D01*
X154041532Y-112747537D01*
X153939208Y-112594398D01*
X153808974Y-112464164D01*
X153745535Y-112421776D01*
X153745535Y-112413161D01*
X153709603Y-112232521D01*
X153639121Y-112062361D01*
X153536797Y-111909222D01*
X153406563Y-111778988D01*
X153343124Y-111736600D01*
X153343124Y-111605510D01*
X153307192Y-111424870D01*
X153236710Y-111254710D01*
X153134386Y-111101571D01*
X153004152Y-110971337D01*
X152939755Y-110928308D01*
X152939755Y-110783406D01*
X152903823Y-110602766D01*
X152833341Y-110432606D01*
X152731017Y-110279467D01*
X152600783Y-110149233D01*
X152472956Y-110063822D01*
X152472956Y-110007911D01*
X152437024Y-109827271D01*
X152366542Y-109657111D01*
X152264218Y-109503972D01*
X152133984Y-109373738D01*
X151980845Y-109271414D01*
X151810685Y-109200932D01*
X151630045Y-109165000D01*
X151560000Y-109165000D01*
X151560000Y-109159170D01*
X151563676Y-109121847D01*
X151560000Y-109084524D01*
X151560000Y-109084514D01*
X151549003Y-108972861D01*
X151505546Y-108829600D01*
X151481205Y-108784062D01*
X151434974Y-108697570D01*
X151363799Y-108610844D01*
X151340001Y-108581846D01*
X151311004Y-108558049D01*
X148396871Y-105643917D01*
X148373068Y-105614913D01*
X148257343Y-105519940D01*
X148125314Y-105449368D01*
X147982053Y-105405911D01*
X147968851Y-105404611D01*
X147851692Y-105326328D01*
X147681532Y-105255846D01*
X147570564Y-105233773D01*
X147570564Y-104278364D01*
X147681530Y-104256291D01*
X147851690Y-104185809D01*
X148004829Y-104083485D01*
X148135063Y-103953251D01*
X148232550Y-103807351D01*
X148576847Y-104151649D01*
X148600932Y-104272729D01*
X148671414Y-104442889D01*
X148773738Y-104596028D01*
X148903972Y-104726262D01*
X149057111Y-104828586D01*
X149227271Y-104899068D01*
X149407911Y-104935000D01*
X149592089Y-104935000D01*
X149772729Y-104899068D01*
X149942889Y-104828586D01*
X150096028Y-104726262D01*
X150226262Y-104596028D01*
X150328586Y-104442889D01*
X150399068Y-104272729D01*
X150435000Y-104092089D01*
X150435000Y-103907911D01*
X150399068Y-103727271D01*
X150328586Y-103557111D01*
X150226262Y-103403972D01*
X150096028Y-103273738D01*
X149942889Y-103171414D01*
X149772729Y-103100932D01*
X149651649Y-103076847D01*
X149297019Y-102722217D01*
X156850695Y-102722217D01*
X156850695Y-102906395D01*
X156886627Y-103087035D01*
X156957109Y-103257195D01*
X157059433Y-103410334D01*
X157189667Y-103540568D01*
X157342806Y-103642892D01*
X157512966Y-103713374D01*
X157693606Y-103749306D01*
X157877784Y-103749306D01*
X158058424Y-103713374D01*
X158126925Y-103685000D01*
X162893308Y-103685000D01*
X162927271Y-103699068D01*
X163107911Y-103735000D01*
X163292089Y-103735000D01*
X163472729Y-103699068D01*
X163642889Y-103628586D01*
X163796028Y-103526262D01*
X163926262Y-103396028D01*
X164028586Y-103242889D01*
X164099068Y-103072729D01*
X164135000Y-102892089D01*
X164135000Y-102707911D01*
X164099068Y-102527271D01*
X164028586Y-102357111D01*
X163926262Y-102203972D01*
X163796028Y-102073738D01*
X163642889Y-101971414D01*
X163472729Y-101900932D01*
X163292089Y-101865000D01*
X163107911Y-101865000D01*
X162927271Y-101900932D01*
X162893308Y-101915000D01*
X158057228Y-101915000D01*
X157877784Y-101879306D01*
X157693606Y-101879306D01*
X157512966Y-101915238D01*
X157342806Y-101985720D01*
X157189667Y-102088044D01*
X157059433Y-102218278D01*
X156957109Y-102371417D01*
X156886627Y-102541577D01*
X156850695Y-102722217D01*
X149297019Y-102722217D01*
X148784164Y-102209363D01*
X148828586Y-102142881D01*
X148899068Y-101972721D01*
X148935000Y-101792081D01*
X148935000Y-101607903D01*
X148899068Y-101427263D01*
X148828586Y-101257103D01*
X148726262Y-101103964D01*
X148668877Y-101046579D01*
X148734973Y-100966040D01*
X148734975Y-100966038D01*
X148796457Y-100851014D01*
X148805546Y-100834011D01*
X148839536Y-100721957D01*
X148849003Y-100690749D01*
X148860000Y-100579096D01*
X148860000Y-100579094D01*
X148863677Y-100541764D01*
X148860000Y-100504431D01*
X148860000Y-96160000D01*
X156362569Y-96160000D01*
X156399891Y-96163676D01*
X156437213Y-96160000D01*
X156437224Y-96160000D01*
X156548877Y-96149003D01*
X156692138Y-96105546D01*
X156824167Y-96034974D01*
X156939892Y-95940001D01*
X156963695Y-95910997D01*
X157133192Y-95741500D01*
X157254273Y-95717415D01*
X157424433Y-95646933D01*
X157527079Y-95578347D01*
X164881923Y-95578347D01*
X164957111Y-95628586D01*
X165127271Y-95699068D01*
X165307911Y-95735000D01*
X165492089Y-95735000D01*
X165672729Y-95699068D01*
X165842889Y-95628586D01*
X165996028Y-95526262D01*
X166126262Y-95396028D01*
X166228586Y-95242889D01*
X166299068Y-95072729D01*
X166320053Y-94967233D01*
X167697386Y-94967233D01*
X167719352Y-95020263D01*
X167821676Y-95173402D01*
X167951910Y-95303636D01*
X168105049Y-95405960D01*
X168275209Y-95476442D01*
X168455849Y-95512374D01*
X168640027Y-95512374D01*
X168820667Y-95476442D01*
X168896657Y-95444966D01*
X169027271Y-95499068D01*
X169097962Y-95513130D01*
X170336481Y-96751649D01*
X170360566Y-96872729D01*
X170431048Y-97042889D01*
X170533372Y-97196028D01*
X170663606Y-97326262D01*
X170816745Y-97428586D01*
X170986905Y-97499068D01*
X171077037Y-97516997D01*
X171077037Y-97662341D01*
X170489002Y-98250377D01*
X170459999Y-98274179D01*
X170435549Y-98303972D01*
X170365026Y-98389904D01*
X170324532Y-98465662D01*
X170294454Y-98521934D01*
X170250997Y-98665195D01*
X170240000Y-98776848D01*
X170240000Y-98776858D01*
X170236324Y-98814180D01*
X170240000Y-98851503D01*
X170240001Y-100386932D01*
X170236324Y-100424264D01*
X170240001Y-100461597D01*
X170250998Y-100573250D01*
X170258514Y-100598027D01*
X170294454Y-100716510D01*
X170365026Y-100848540D01*
X170413751Y-100907911D01*
X170460000Y-100964265D01*
X170488998Y-100988063D01*
X171011936Y-101511002D01*
X171035735Y-101540001D01*
X171151460Y-101634974D01*
X171283489Y-101705546D01*
X171426750Y-101749003D01*
X171439952Y-101750303D01*
X171557111Y-101828586D01*
X171727271Y-101899068D01*
X171907911Y-101935000D01*
X172092089Y-101935000D01*
X172272729Y-101899068D01*
X172442889Y-101828586D01*
X172596028Y-101726262D01*
X172726262Y-101596028D01*
X172828586Y-101442889D01*
X172899068Y-101272729D01*
X172935000Y-101092089D01*
X172935000Y-100907911D01*
X172899068Y-100727271D01*
X172840350Y-100585512D01*
X172890305Y-100464909D01*
X172926237Y-100284269D01*
X172926237Y-100100091D01*
X172890305Y-99919451D01*
X172828585Y-99770444D01*
X172846996Y-99742889D01*
X172917478Y-99572729D01*
X172941563Y-99451648D01*
X173152855Y-99240356D01*
X173181859Y-99216553D01*
X173276832Y-99100828D01*
X173347404Y-98968799D01*
X173390861Y-98825538D01*
X173401858Y-98713885D01*
X173401858Y-98713875D01*
X173405534Y-98676552D01*
X173401858Y-98639229D01*
X173401858Y-95986434D01*
X173405534Y-95949111D01*
X173401858Y-95911788D01*
X173401858Y-95911779D01*
X173390861Y-95800126D01*
X173347404Y-95656865D01*
X173276832Y-95524836D01*
X173181859Y-95409111D01*
X173152862Y-95385314D01*
X170256550Y-92489003D01*
X170232747Y-92459999D01*
X170117022Y-92365026D01*
X169984993Y-92294454D01*
X169841732Y-92250997D01*
X169730079Y-92240000D01*
X169730068Y-92240000D01*
X169692746Y-92236324D01*
X169655424Y-92240000D01*
X148914802Y-92240000D01*
X147963804Y-91289003D01*
X147940001Y-91259999D01*
X147824276Y-91165026D01*
X147692247Y-91094454D01*
X147548986Y-91050997D01*
X147437333Y-91040000D01*
X147437322Y-91040000D01*
X147400000Y-91036324D01*
X147362678Y-91040000D01*
X143732521Y-91040000D01*
X143695188Y-91036323D01*
X143657855Y-91040000D01*
X143546202Y-91050997D01*
X143402941Y-91094454D01*
X143270912Y-91165026D01*
X143155187Y-91259999D01*
X143131389Y-91288997D01*
X142543539Y-91876847D01*
X142422459Y-91900932D01*
X142252299Y-91971414D01*
X142099160Y-92073738D01*
X141968926Y-92203972D01*
X141866602Y-92357111D01*
X141796120Y-92527271D01*
X141760188Y-92707911D01*
X141760188Y-92892089D01*
X141796120Y-93072729D01*
X141866602Y-93242889D01*
X141968926Y-93396028D01*
X142099160Y-93526262D01*
X142252299Y-93628586D01*
X142422459Y-93699068D01*
X142436832Y-93701927D01*
X142415000Y-93923592D01*
X142415000Y-98270680D01*
X142129162Y-98556518D01*
X142034343Y-98634334D01*
X141723806Y-99012724D01*
X141711169Y-99036367D01*
X141423153Y-98748351D01*
X141399068Y-98627271D01*
X141328586Y-98457111D01*
X141226262Y-98303972D01*
X141096028Y-98173738D01*
X140942889Y-98071414D01*
X140772729Y-98000932D01*
X140592089Y-97965000D01*
X140407911Y-97965000D01*
X140227271Y-98000932D01*
X140057111Y-98071414D01*
X139903972Y-98173738D01*
X139773738Y-98303972D01*
X139671414Y-98457111D01*
X139600932Y-98627271D01*
X139565000Y-98807911D01*
X139565000Y-98992089D01*
X139600932Y-99172729D01*
X139671414Y-99342889D01*
X139773738Y-99496028D01*
X139903972Y-99626262D01*
X140057111Y-99728586D01*
X140227271Y-99799068D01*
X140348351Y-99823153D01*
X140625773Y-100100574D01*
X140587996Y-100157111D01*
X140517514Y-100327271D01*
X140481582Y-100507911D01*
X140481582Y-100692089D01*
X140517514Y-100872729D01*
X140587996Y-101042889D01*
X140690320Y-101196028D01*
X140820554Y-101326262D01*
X140973693Y-101428586D01*
X141143853Y-101499068D01*
X141315005Y-101533113D01*
X141315001Y-112198877D01*
X140835000Y-111718876D01*
X140835000Y-107650835D01*
X140840007Y-107600000D01*
X140835000Y-107549162D01*
X140820024Y-107397105D01*
X140760841Y-107202007D01*
X140709169Y-107105336D01*
X140664734Y-107022202D01*
X140567803Y-106904092D01*
X140535396Y-106864604D01*
X140495908Y-106832197D01*
X139767807Y-106104097D01*
X139735396Y-106064604D01*
X139577797Y-105935266D01*
X139397993Y-105839159D01*
X139202895Y-105779976D01*
X139050838Y-105765000D01*
X139050828Y-105765000D01*
X139000000Y-105759994D01*
X138949172Y-105765000D01*
X137049162Y-105765000D01*
X136897105Y-105779976D01*
X136702007Y-105839159D01*
X136522203Y-105935266D01*
X136364604Y-106064604D01*
X136235266Y-106222203D01*
X136139159Y-106402007D01*
X136079976Y-106597105D01*
X136059993Y-106800000D01*
X136079976Y-107002895D01*
X136139159Y-107197993D01*
X136235266Y-107377797D01*
X136364604Y-107535396D01*
X136522203Y-107664734D01*
X136702007Y-107760841D01*
X136897105Y-107820024D01*
X137049162Y-107835000D01*
X137844803Y-107835000D01*
X137844803Y-107892089D01*
X137880735Y-108072729D01*
X137951217Y-108242889D01*
X138019803Y-108345536D01*
X138019804Y-110697514D01*
X137896028Y-110573738D01*
X137742889Y-110471414D01*
X137572729Y-110400932D01*
X137392089Y-110365000D01*
X137207911Y-110365000D01*
X137027271Y-110400932D01*
X136857111Y-110471414D01*
X136703972Y-110573738D01*
X136573738Y-110703972D01*
X136471414Y-110857111D01*
X136400932Y-111027271D01*
X136365000Y-111207911D01*
X136365000Y-111392089D01*
X136400932Y-111572729D01*
X136471414Y-111742889D01*
X136573738Y-111896028D01*
X136703972Y-112026262D01*
X136857111Y-112128586D01*
X137027271Y-112199068D01*
X137148352Y-112223153D01*
X140389991Y-115464794D01*
X140389991Y-116452804D01*
X138826189Y-114889003D01*
X138802386Y-114859999D01*
X138686661Y-114765026D01*
X138554632Y-114694454D01*
X138411371Y-114650997D01*
X138299718Y-114640000D01*
X138299707Y-114640000D01*
X138262385Y-114636324D01*
X138225063Y-114640000D01*
X135320742Y-114640000D01*
X135283417Y-114636324D01*
X135246092Y-114640000D01*
X135246084Y-114640000D01*
X135134431Y-114650997D01*
X134991170Y-114694454D01*
X134859141Y-114765026D01*
X134743416Y-114859999D01*
X134719617Y-114888998D01*
X134580140Y-115028475D01*
X134459060Y-115052560D01*
X134288900Y-115123042D01*
X134135761Y-115225366D01*
X134005527Y-115355600D01*
X133903203Y-115508739D01*
X133832721Y-115678899D01*
X133796789Y-115859539D01*
X133796789Y-116043717D01*
X133832721Y-116224357D01*
X133903203Y-116394517D01*
X134005527Y-116547656D01*
X134135761Y-116677890D01*
X134288900Y-116780214D01*
X134459060Y-116850696D01*
X134603727Y-116879472D01*
X134671414Y-117042885D01*
X134773738Y-117196024D01*
X134903972Y-117326258D01*
X135057111Y-117428582D01*
X135227271Y-117499064D01*
X135407911Y-117534996D01*
X135592089Y-117534996D01*
X135772729Y-117499064D01*
X135942889Y-117428582D01*
X136045535Y-117359996D01*
X136885195Y-117359996D01*
X137612548Y-118087350D01*
X137596174Y-118098291D01*
X137060384Y-118098291D01*
X137027375Y-118076235D01*
X136857215Y-118005753D01*
X136676575Y-117969821D01*
X136492397Y-117969821D01*
X136311757Y-118005753D01*
X136141597Y-118076235D01*
X135988458Y-118178559D01*
X135858224Y-118308793D01*
X135755900Y-118461932D01*
X135685418Y-118632092D01*
X135649486Y-118812732D01*
X135649486Y-118951361D01*
X135539852Y-118962159D01*
X135396591Y-119005616D01*
X135264562Y-119076188D01*
X135148837Y-119171161D01*
X135125039Y-119200159D01*
X133648352Y-120676847D01*
X133527271Y-120700932D01*
X133357111Y-120771414D01*
X133203972Y-120873738D01*
X133073738Y-121003972D01*
X132971414Y-121157111D01*
X132900932Y-121327271D01*
X132865000Y-121507911D01*
X132865000Y-121692089D01*
X132900932Y-121872729D01*
X132971414Y-122042889D01*
X133073738Y-122196028D01*
X133203972Y-122326262D01*
X133357111Y-122428586D01*
X133527271Y-122499068D01*
X133707911Y-122535000D01*
X133892089Y-122535000D01*
X134072729Y-122499068D01*
X134242889Y-122428586D01*
X134396028Y-122326262D01*
X134526262Y-122196028D01*
X134628586Y-122042889D01*
X134699068Y-121872729D01*
X134723153Y-121751648D01*
X135976618Y-120498183D01*
X135997809Y-120604714D01*
X136068291Y-120774874D01*
X136170615Y-120928013D01*
X136300849Y-121058247D01*
X136453988Y-121160571D01*
X136624148Y-121231053D01*
X136745228Y-121255138D01*
X137167065Y-121676974D01*
X137190863Y-121705973D01*
X137282559Y-121781226D01*
X137368546Y-121867213D01*
X132389003Y-126846756D01*
X132359999Y-126870559D01*
X132305203Y-126937329D01*
X132265026Y-126986284D01*
X132217219Y-127075724D01*
X132194454Y-127118314D01*
X132150997Y-127261575D01*
X132140000Y-127373228D01*
X132140000Y-127373238D01*
X132136324Y-127410560D01*
X132140000Y-127447883D01*
X132140001Y-130665660D01*
X132076686Y-130623355D01*
X131906526Y-130552873D01*
X131785446Y-130528788D01*
X124404336Y-123147679D01*
X124404336Y-119536339D01*
X124472922Y-119433693D01*
X124543404Y-119263533D01*
X124579336Y-119082893D01*
X124579336Y-118898715D01*
X124543404Y-118718075D01*
X124472922Y-118547915D01*
X124370598Y-118394776D01*
X124240364Y-118264542D01*
X124087225Y-118162218D01*
X123917065Y-118091736D01*
X123736425Y-118055804D01*
X123552247Y-118055804D01*
X123371607Y-118091736D01*
X123201447Y-118162218D01*
X123142906Y-118201334D01*
X123062411Y-118185322D01*
X123062411Y-117139712D01*
X123066087Y-117102389D01*
X123062411Y-117065066D01*
X123062411Y-117065057D01*
X123051414Y-116953404D01*
X123007957Y-116810143D01*
X123003158Y-116801164D01*
X122937385Y-116678113D01*
X122866210Y-116591387D01*
X122842412Y-116562389D01*
X122813415Y-116538592D01*
X119463825Y-113189003D01*
X119440022Y-113159999D01*
X119324297Y-113065026D01*
X119192268Y-112994454D01*
X119049007Y-112950997D01*
X118937354Y-112940000D01*
X118937343Y-112940000D01*
X118900021Y-112936324D01*
X118862699Y-112940000D01*
X118509999Y-112940000D01*
X118509999Y-112930501D01*
X118474067Y-112749861D01*
X118403585Y-112579701D01*
X118334999Y-112477055D01*
X118334999Y-102939800D01*
X119751649Y-101523151D01*
X119872729Y-101499066D01*
X120042889Y-101428584D01*
X120196028Y-101326260D01*
X120326262Y-101196026D01*
X120428586Y-101042887D01*
X120499068Y-100872727D01*
X120535000Y-100692087D01*
X120535000Y-100507909D01*
X120499068Y-100327269D01*
X120428586Y-100157109D01*
X120326262Y-100003970D01*
X120196028Y-99873736D01*
X120042889Y-99771412D01*
X119872729Y-99700930D01*
X119692089Y-99664998D01*
X119507911Y-99664998D01*
X119327271Y-99700930D01*
X119157111Y-99771412D01*
X119003972Y-99873736D01*
X118873738Y-100003970D01*
X118771414Y-100157109D01*
X118700932Y-100327269D01*
X118676847Y-100448349D01*
X117063997Y-102061200D01*
X117036481Y-102083782D01*
X116900380Y-102056709D01*
X116716202Y-102056709D01*
X116535562Y-102092641D01*
X116365402Y-102163123D01*
X116212263Y-102265447D01*
X116082029Y-102395681D01*
X115979705Y-102548820D01*
X115909223Y-102718980D01*
X115873291Y-102899620D01*
X115873291Y-103040904D01*
X115824151Y-103073738D01*
X115693917Y-103203972D01*
X115591593Y-103357111D01*
X115521111Y-103527271D01*
X115485179Y-103707911D01*
X115485179Y-103892089D01*
X115521111Y-104072729D01*
X115591593Y-104242889D01*
X115660180Y-104345537D01*
X115660179Y-113178096D01*
X113292221Y-110810139D01*
X113292221Y-103668125D01*
X113360807Y-103565479D01*
X113431289Y-103395319D01*
X113467221Y-103214679D01*
X113467221Y-103030501D01*
X113431289Y-102849861D01*
X113360807Y-102679701D01*
X113258483Y-102526562D01*
X113128249Y-102396328D01*
X112975110Y-102294004D01*
X112804950Y-102223522D01*
X112765777Y-102215730D01*
X112721641Y-102109175D01*
X112619317Y-101956036D01*
X112489083Y-101825802D01*
X112335944Y-101723478D01*
X112165784Y-101652996D01*
X111985144Y-101617064D01*
X111800966Y-101617064D01*
X111620326Y-101652996D01*
X111450166Y-101723478D01*
X111341667Y-101795974D01*
X111298438Y-101752745D01*
X111145299Y-101650421D01*
X110975139Y-101579939D01*
X110794499Y-101544007D01*
X110610321Y-101544007D01*
X110429681Y-101579939D01*
X110259521Y-101650421D01*
X110106382Y-101752745D01*
X109976148Y-101882979D01*
X109873824Y-102036118D01*
X109803342Y-102206278D01*
X109767410Y-102386918D01*
X109767410Y-102571096D01*
X109803342Y-102751736D01*
X109873824Y-102921896D01*
X109942411Y-103024544D01*
X109942410Y-110965090D01*
X109938734Y-111002413D01*
X109942410Y-111039735D01*
X109942410Y-111039745D01*
X109953407Y-111151398D01*
X109993372Y-111283146D01*
X109996864Y-111294659D01*
X110067436Y-111426689D01*
X110107281Y-111475239D01*
X110162409Y-111542414D01*
X110191413Y-111566217D01*
X114810744Y-116185550D01*
X113055866Y-116185550D01*
X113046799Y-116139967D01*
X112976317Y-115969807D01*
X112873993Y-115816668D01*
X112743759Y-115686434D01*
X112590620Y-115584110D01*
X112420460Y-115513628D01*
X112239820Y-115477696D01*
X112055642Y-115477696D01*
X111875002Y-115513628D01*
X111704842Y-115584110D01*
X111551703Y-115686434D01*
X111421469Y-115816668D01*
X111319145Y-115969807D01*
X111248663Y-116139967D01*
X111212731Y-116320607D01*
X111212731Y-116410444D01*
X111118006Y-116505169D01*
X111063527Y-116586703D01*
X110940083Y-116611258D01*
X110769923Y-116681740D01*
X110616784Y-116784064D01*
X110486550Y-116914298D01*
X110384226Y-117067437D01*
X110326490Y-117206825D01*
X110259521Y-117234564D01*
X110106382Y-117336888D01*
X109976148Y-117467122D01*
X109873824Y-117620261D01*
X109803342Y-117790421D01*
X109767410Y-117971061D01*
X109767410Y-118155239D01*
X109803342Y-118335879D01*
X109873824Y-118506039D01*
X109976148Y-118659178D01*
X110106382Y-118789412D01*
X110259521Y-118891736D01*
X110429681Y-118962218D01*
X110610321Y-118998150D01*
X110794499Y-118998150D01*
X110895968Y-118977966D01*
X110900932Y-119002922D01*
X110971414Y-119173082D01*
X111073738Y-119326221D01*
X111203972Y-119456455D01*
X111357111Y-119558779D01*
X111527271Y-119629261D01*
X111707911Y-119665193D01*
X111892089Y-119665193D01*
X112072729Y-119629261D01*
X112242889Y-119558779D01*
X112345535Y-119490193D01*
X115340000Y-119490193D01*
X115340001Y-120762668D01*
X115336324Y-120800000D01*
X115340001Y-120837332D01*
X115340001Y-120837333D01*
X115350998Y-120948986D01*
X115355491Y-120963798D01*
X115394454Y-121092246D01*
X115465026Y-121224276D01*
X115536201Y-121311002D01*
X115560000Y-121340001D01*
X115588998Y-121363799D01*
X115723123Y-121497924D01*
X115723124Y-126777698D01*
X115700978Y-126773293D01*
X115516800Y-126773293D01*
X115336160Y-126809225D01*
X115242958Y-126847830D01*
X115129254Y-126800733D01*
X114948614Y-126764801D01*
X114764436Y-126764801D01*
X114583796Y-126800733D01*
X114465221Y-126849848D01*
X114376947Y-126813284D01*
X114196307Y-126777352D01*
X114012129Y-126777352D01*
X113831489Y-126813284D01*
X113722892Y-126858266D01*
X113564444Y-126792635D01*
X113383804Y-126756703D01*
X113199626Y-126756703D01*
X113018986Y-126792635D01*
X112848826Y-126863117D01*
X112695687Y-126965441D01*
X112565453Y-127095675D01*
X112560000Y-127103836D01*
X112560000Y-125345553D01*
X112628586Y-125242907D01*
X112685744Y-125104914D01*
X112704745Y-125101134D01*
X112874905Y-125030652D01*
X113028044Y-124928328D01*
X113117039Y-124839333D01*
X113203968Y-124926262D01*
X113357107Y-125028586D01*
X113527267Y-125099068D01*
X113707907Y-125135000D01*
X113892085Y-125135000D01*
X114072725Y-125099068D01*
X114242885Y-125028586D01*
X114396024Y-124926262D01*
X114526258Y-124796028D01*
X114628582Y-124642889D01*
X114699064Y-124472729D01*
X114734996Y-124292089D01*
X114734996Y-124107911D01*
X114699064Y-123927271D01*
X114628582Y-123757111D01*
X114559049Y-123653047D01*
X114548999Y-123551010D01*
X114505542Y-123407749D01*
X114464856Y-123331632D01*
X114434970Y-123275719D01*
X114363795Y-123188993D01*
X114339997Y-123159995D01*
X114310998Y-123136196D01*
X113788801Y-122614000D01*
X113764999Y-122584997D01*
X113649274Y-122490024D01*
X113517245Y-122419452D01*
X113373984Y-122375995D01*
X113262331Y-122364998D01*
X113262320Y-122364998D01*
X113224998Y-122361322D01*
X113187676Y-122364998D01*
X111512324Y-122364998D01*
X111475001Y-122361322D01*
X111437678Y-122364998D01*
X111437669Y-122364998D01*
X111326016Y-122375995D01*
X111182755Y-122419452D01*
X111050726Y-122490024D01*
X111050724Y-122490025D01*
X111050725Y-122490025D01*
X110963998Y-122561199D01*
X110963994Y-122561203D01*
X110935001Y-122584997D01*
X110911207Y-122613990D01*
X109889002Y-123636197D01*
X109859999Y-123659999D01*
X109827175Y-123699996D01*
X109765026Y-123775724D01*
X109705678Y-123886755D01*
X109694454Y-123907754D01*
X109650997Y-124051015D01*
X109640000Y-124162668D01*
X109640000Y-124162678D01*
X109636324Y-124200000D01*
X109640000Y-124237323D01*
X109640001Y-127307787D01*
X105748352Y-131199437D01*
X105627271Y-131223522D01*
X105457111Y-131294004D01*
X105303972Y-131396328D01*
X105173738Y-131526562D01*
X105071414Y-131679701D01*
X105000932Y-131849861D01*
X104965000Y-132030501D01*
X104965000Y-132214679D01*
X105000932Y-132395319D01*
X105028522Y-132461928D01*
X104502177Y-132461928D01*
X104535000Y-132296916D01*
X104535000Y-132112738D01*
X104499068Y-131932098D01*
X104428586Y-131761938D01*
X104360000Y-131659292D01*
X104360000Y-118337322D01*
X104363676Y-118299999D01*
X104360000Y-118262676D01*
X104360000Y-118262667D01*
X104349003Y-118151014D01*
X104305546Y-118007753D01*
X104234974Y-117875724D01*
X104140001Y-117759999D01*
X104111004Y-117736202D01*
X103798688Y-117423886D01*
X103835000Y-117241335D01*
X103835000Y-116958665D01*
X103779853Y-116681426D01*
X103671680Y-116420273D01*
X103514637Y-116185241D01*
X103314759Y-115985363D01*
X103082241Y-115830000D01*
X103314759Y-115674637D01*
X103514637Y-115474759D01*
X103671680Y-115239727D01*
X103779853Y-114978574D01*
X103835000Y-114701335D01*
X103835000Y-114418665D01*
X103779853Y-114141426D01*
X103671680Y-113880273D01*
X103514637Y-113645241D01*
X103314759Y-113445363D01*
X103082241Y-113290000D01*
X103314759Y-113134637D01*
X103514637Y-112934759D01*
X103671680Y-112699727D01*
X103779853Y-112438574D01*
X103835000Y-112161335D01*
X103835000Y-111878665D01*
X103779853Y-111601426D01*
X103671680Y-111340273D01*
X103514637Y-111105241D01*
X103314759Y-110905363D01*
X103079727Y-110748320D01*
X102818574Y-110640147D01*
X102541335Y-110585000D01*
X102258665Y-110585000D01*
X101981426Y-110640147D01*
X101720273Y-110748320D01*
X101485241Y-110905363D01*
X101285363Y-111105241D01*
X101128320Y-111340273D01*
X101020147Y-111601426D01*
X100965000Y-111878665D01*
X100965000Y-112161335D01*
X101020147Y-112438574D01*
X101128320Y-112699727D01*
X101285363Y-112934759D01*
X101485241Y-113134637D01*
X101717759Y-113290000D01*
X101485241Y-113445363D01*
X101285363Y-113645241D01*
X101128320Y-113880273D01*
X101020147Y-114141426D01*
X100965000Y-114418665D01*
X100965000Y-114701335D01*
X100982166Y-114787635D01*
X100926262Y-114703968D01*
X100796028Y-114573734D01*
X100642889Y-114471410D01*
X100472729Y-114400928D01*
X100292089Y-114364996D01*
X100107911Y-114364996D01*
X99927271Y-114400928D01*
X99757111Y-114471410D01*
X99603972Y-114573734D01*
X99473738Y-114703968D01*
X99371414Y-114857107D01*
X99300932Y-115027267D01*
X99265000Y-115207907D01*
X99265000Y-115392085D01*
X99300932Y-115572725D01*
X99371414Y-115742885D01*
X99473738Y-115896024D01*
X99603972Y-116026258D01*
X99640001Y-116050332D01*
X99640000Y-132461928D01*
X99400000Y-132461928D01*
X99275518Y-132474188D01*
X99155820Y-132510498D01*
X99045506Y-132569463D01*
X98948815Y-132648815D01*
X98869463Y-132745506D01*
X98810498Y-132855820D01*
X98774188Y-132975518D01*
X98761928Y-133100000D01*
X98761928Y-133910222D01*
X95585000Y-133938461D01*
X95585000Y-132883646D01*
X95588314Y-132850000D01*
X95575088Y-132715717D01*
X95535919Y-132586594D01*
X95472312Y-132467593D01*
X95386711Y-132363289D01*
X95282407Y-132277688D01*
X95163406Y-132214081D01*
X95034283Y-132174912D01*
X94933647Y-132165000D01*
X94900000Y-132161686D01*
X94866353Y-132165000D01*
X92335000Y-132165000D01*
X92335000Y-116535000D01*
X93116353Y-116535000D01*
X93150000Y-116538314D01*
X93183647Y-116535000D01*
X93284283Y-116525088D01*
X93413406Y-116485919D01*
X93500386Y-116439428D01*
X93400147Y-116681426D01*
X93345000Y-116958665D01*
X93345000Y-117241335D01*
X93400147Y-117518574D01*
X93508320Y-117779727D01*
X93665363Y-118014759D01*
X93865241Y-118214637D01*
X94100273Y-118371680D01*
X94361426Y-118479853D01*
X94638665Y-118535000D01*
X94921335Y-118535000D01*
X95198574Y-118479853D01*
X95459727Y-118371680D01*
X95694759Y-118214637D01*
X95894637Y-118014759D01*
X96051680Y-117779727D01*
X96159853Y-117518574D01*
X96215000Y-117241335D01*
X96215000Y-116958665D01*
X96159853Y-116681426D01*
X96051680Y-116420273D01*
X95894637Y-116185241D01*
X95694759Y-115985363D01*
X95462241Y-115830000D01*
X95694759Y-115674637D01*
X95894637Y-115474759D01*
X96051680Y-115239727D01*
X96159853Y-114978574D01*
X96215000Y-114701335D01*
X96215000Y-114418665D01*
X96159853Y-114141426D01*
X96051680Y-113880273D01*
X95894637Y-113645241D01*
X95696039Y-113446643D01*
X95704482Y-113445812D01*
X95824180Y-113409502D01*
X95934494Y-113350537D01*
X96031185Y-113271185D01*
X96110537Y-113174494D01*
X96169502Y-113064180D01*
X96205812Y-112944482D01*
X96218072Y-112820000D01*
X96218072Y-111220000D01*
X96205812Y-111095518D01*
X96169502Y-110975820D01*
X96110537Y-110865506D01*
X96031185Y-110768815D01*
X95934494Y-110689463D01*
X95824180Y-110630498D01*
X95704482Y-110594188D01*
X95580000Y-110581928D01*
X93980000Y-110581928D01*
X93855518Y-110594188D01*
X93835000Y-110600412D01*
X93835000Y-110535000D01*
X96616353Y-110535000D01*
X96650000Y-110538314D01*
X96683647Y-110535000D01*
X96784283Y-110525088D01*
X96913406Y-110485919D01*
X97032407Y-110422312D01*
X97136711Y-110336711D01*
X97222312Y-110232407D01*
X97285919Y-110113406D01*
X97325088Y-109984283D01*
X97338314Y-109850000D01*
X97335000Y-109816353D01*
X97335000Y-107383646D01*
X97338314Y-107350000D01*
X97325088Y-107215717D01*
X97285919Y-107086594D01*
X97222312Y-106967593D01*
X97136711Y-106863289D01*
X97032407Y-106777688D01*
X96913406Y-106714081D01*
X96784283Y-106674912D01*
X96683647Y-106665000D01*
X96650000Y-106661686D01*
X96616353Y-106665000D01*
X92335000Y-106665000D01*
X92335000Y-92392409D01*
X120632916Y-92392409D01*
X120632916Y-92576587D01*
X120668848Y-92757227D01*
X120739330Y-92927387D01*
X120841654Y-93080526D01*
X120847199Y-93086071D01*
X120773467Y-93196420D01*
X120702985Y-93366580D01*
X120667053Y-93547220D01*
X120667053Y-93731398D01*
X120702985Y-93912038D01*
X120773467Y-94082198D01*
X120875791Y-94235337D01*
X121006025Y-94365571D01*
X121152288Y-94463301D01*
X121006382Y-94560792D01*
X120876148Y-94691026D01*
X120773824Y-94844165D01*
X120703342Y-95014325D01*
X120667410Y-95194965D01*
X120667410Y-95379143D01*
X120703342Y-95559783D01*
X120773824Y-95729943D01*
X120876148Y-95883082D01*
X121006382Y-96013316D01*
X121159521Y-96115640D01*
X121259459Y-96157035D01*
X121201298Y-96297450D01*
X121165366Y-96478090D01*
X121165366Y-96662268D01*
X121201298Y-96842908D01*
X121243976Y-96945943D01*
X121200932Y-97049861D01*
X121165000Y-97230501D01*
X121165000Y-97414679D01*
X121200932Y-97595319D01*
X121271414Y-97765479D01*
X121373738Y-97918618D01*
X121503972Y-98048852D01*
X121657111Y-98151176D01*
X121827271Y-98221658D01*
X121976551Y-98251352D01*
X122940001Y-99214803D01*
X122940000Y-102362677D01*
X122936324Y-102400000D01*
X122940000Y-102437322D01*
X122940000Y-102437332D01*
X122950997Y-102548985D01*
X122990649Y-102679701D01*
X122994454Y-102692246D01*
X123065026Y-102824276D01*
X123098448Y-102865000D01*
X123159999Y-102940001D01*
X123189002Y-102963803D01*
X123740001Y-103514803D01*
X123740000Y-105562677D01*
X123736324Y-105600000D01*
X123740000Y-105637322D01*
X123740000Y-105637332D01*
X123747087Y-105709286D01*
X123717307Y-105765000D01*
X123694455Y-105807753D01*
X123650998Y-105951014D01*
X123640001Y-106062667D01*
X123640001Y-106062677D01*
X123636325Y-106099999D01*
X123640001Y-106137322D01*
X123640002Y-110885196D01*
X122089003Y-112436196D01*
X122059999Y-112459999D01*
X122025731Y-112501755D01*
X121965026Y-112575724D01*
X121901408Y-112694744D01*
X121894454Y-112707754D01*
X121850997Y-112851015D01*
X121840000Y-112962668D01*
X121840000Y-112962678D01*
X121836324Y-113000000D01*
X121840000Y-113037322D01*
X121840000Y-113362678D01*
X121836324Y-113400000D01*
X121840000Y-113437322D01*
X121840000Y-113437333D01*
X121850997Y-113548986D01*
X121894454Y-113692247D01*
X121965026Y-113824276D01*
X122059999Y-113940001D01*
X122089001Y-113963802D01*
X122936200Y-114811002D01*
X122959999Y-114840001D01*
X123075724Y-114934974D01*
X123207753Y-115005546D01*
X123351014Y-115049003D01*
X123462667Y-115060000D01*
X123462676Y-115060000D01*
X123499999Y-115063676D01*
X123537322Y-115060000D01*
X126507789Y-115060000D01*
X127499437Y-116051649D01*
X127523522Y-116172729D01*
X127594004Y-116342889D01*
X127696328Y-116496028D01*
X127826562Y-116626262D01*
X127979701Y-116728586D01*
X128149861Y-116799068D01*
X128330501Y-116835000D01*
X128514679Y-116835000D01*
X128695319Y-116799068D01*
X128865479Y-116728586D01*
X129018618Y-116626262D01*
X129148852Y-116496028D01*
X129251176Y-116342889D01*
X129321658Y-116172729D01*
X129357590Y-115992089D01*
X129357590Y-115807911D01*
X129321658Y-115627271D01*
X129251176Y-115457111D01*
X129148852Y-115303972D01*
X129018618Y-115173738D01*
X128865479Y-115071414D01*
X128695319Y-115000932D01*
X128574239Y-114976847D01*
X128097742Y-114500351D01*
X128130936Y-114514100D01*
X128311576Y-114550032D01*
X128495754Y-114550032D01*
X128676394Y-114514100D01*
X128846554Y-114443618D01*
X128999693Y-114341294D01*
X129129927Y-114211060D01*
X129232251Y-114057921D01*
X129302733Y-113887761D01*
X129338665Y-113707121D01*
X129338665Y-113522943D01*
X129302733Y-113342303D01*
X129252306Y-113220560D01*
X129406513Y-113220560D01*
X129587153Y-113184628D01*
X129757313Y-113114146D01*
X129910452Y-113011822D01*
X130040000Y-112882274D01*
X130040000Y-117950295D01*
X127488998Y-120501298D01*
X127460000Y-120525096D01*
X127436202Y-120554094D01*
X127436201Y-120554095D01*
X127365026Y-120640821D01*
X127294454Y-120772851D01*
X127269649Y-120854627D01*
X127250998Y-120916111D01*
X127244793Y-120979107D01*
X127236324Y-121065097D01*
X127240001Y-121102429D01*
X127240000Y-121754460D01*
X127171414Y-121857107D01*
X127100932Y-122027267D01*
X127065000Y-122207907D01*
X127065000Y-122392085D01*
X127100932Y-122572725D01*
X127171414Y-122742885D01*
X127273738Y-122896024D01*
X127403972Y-123026258D01*
X127557111Y-123128582D01*
X127727271Y-123199064D01*
X127907911Y-123234996D01*
X128092089Y-123234996D01*
X128272729Y-123199064D01*
X128442889Y-123128582D01*
X128596028Y-123026258D01*
X128726262Y-122896024D01*
X128828586Y-122742885D01*
X128899068Y-122572725D01*
X128935000Y-122392085D01*
X128935000Y-122207907D01*
X128899068Y-122027267D01*
X128828586Y-121857107D01*
X128760000Y-121754461D01*
X128760000Y-121379898D01*
X129824919Y-120314979D01*
X129924095Y-120381246D01*
X130094255Y-120451728D01*
X130274895Y-120487660D01*
X130459073Y-120487660D01*
X130639713Y-120451728D01*
X130809873Y-120381246D01*
X130963012Y-120278922D01*
X131093246Y-120148688D01*
X131195570Y-119995549D01*
X131266052Y-119825389D01*
X131290137Y-119704309D01*
X131888413Y-119106033D01*
X131917411Y-119082235D01*
X131959841Y-119030534D01*
X132012384Y-118966511D01*
X132082956Y-118834481D01*
X132089089Y-118814262D01*
X132126413Y-118691220D01*
X132137410Y-118579567D01*
X132137410Y-118579558D01*
X132141086Y-118542235D01*
X132137410Y-118504912D01*
X132137410Y-115235715D01*
X132205996Y-115133069D01*
X132276478Y-114962909D01*
X132312410Y-114782269D01*
X132312410Y-114598091D01*
X132276478Y-114417451D01*
X132205996Y-114247291D01*
X132103672Y-114094152D01*
X131973438Y-113963918D01*
X131820299Y-113861594D01*
X131650139Y-113791112D01*
X131560000Y-113773182D01*
X131560000Y-97652023D01*
X131563676Y-97614700D01*
X131560000Y-97577377D01*
X131560000Y-97577368D01*
X131549003Y-97465715D01*
X131505546Y-97322454D01*
X131434974Y-97190425D01*
X131434899Y-97190334D01*
X131406957Y-97049861D01*
X131336475Y-96879701D01*
X131234151Y-96726562D01*
X131103917Y-96596328D01*
X130950778Y-96494004D01*
X130780618Y-96423522D01*
X130599978Y-96387590D01*
X130415800Y-96387590D01*
X130379414Y-96394828D01*
X130379414Y-95950198D01*
X132451649Y-93877964D01*
X132572729Y-93853879D01*
X132742889Y-93783397D01*
X132896028Y-93681073D01*
X133026262Y-93550839D01*
X133128586Y-93397700D01*
X133199068Y-93227540D01*
X133235000Y-93046900D01*
X133235000Y-92862722D01*
X133199068Y-92682082D01*
X133128586Y-92511922D01*
X133038705Y-92377406D01*
X133128586Y-92242889D01*
X133199068Y-92072729D01*
X133235000Y-91892089D01*
X133235000Y-91707911D01*
X133199068Y-91527271D01*
X133128586Y-91357111D01*
X133026262Y-91203972D01*
X132896028Y-91073738D01*
X132742889Y-90971414D01*
X132572729Y-90900932D01*
X132392089Y-90865000D01*
X132207911Y-90865000D01*
X132027271Y-90900932D01*
X131857111Y-90971414D01*
X131703972Y-91073738D01*
X131573738Y-91203972D01*
X131471414Y-91357111D01*
X131400932Y-91527271D01*
X131376847Y-91648351D01*
X130885199Y-92140000D01*
X126714802Y-92140000D01*
X125763804Y-91189003D01*
X125740001Y-91159999D01*
X125624276Y-91065026D01*
X125492247Y-90994454D01*
X125348986Y-90950997D01*
X125237333Y-90940000D01*
X125237322Y-90940000D01*
X125200000Y-90936324D01*
X125162678Y-90940000D01*
X123945535Y-90940000D01*
X123842889Y-90871414D01*
X123672729Y-90800932D01*
X123492089Y-90765000D01*
X123307911Y-90765000D01*
X123127271Y-90800932D01*
X122957111Y-90871414D01*
X122803972Y-90973738D01*
X122673738Y-91103972D01*
X122571414Y-91257111D01*
X122500932Y-91427271D01*
X122500000Y-91431956D01*
X122499068Y-91427271D01*
X122428586Y-91257111D01*
X122326262Y-91103972D01*
X122196028Y-90973738D01*
X122042889Y-90871414D01*
X121872729Y-90800932D01*
X121692089Y-90765000D01*
X121507911Y-90765000D01*
X121327271Y-90800932D01*
X121157111Y-90871414D01*
X121003972Y-90973738D01*
X120873738Y-91103972D01*
X120771414Y-91257111D01*
X120700932Y-91427271D01*
X120665000Y-91607911D01*
X120665000Y-91792089D01*
X120700932Y-91972729D01*
X120734396Y-92053520D01*
X120668848Y-92211769D01*
X120632916Y-92392409D01*
X92335000Y-92392409D01*
X92335000Y-87144096D01*
X92358063Y-87111505D01*
X92572753Y-86870728D01*
X92813072Y-86655549D01*
X92912331Y-86585000D01*
X190393979Y-86585000D01*
X190491156Y-86653951D01*
M02*
